<svg id="svg" version="1.1" width="434" height="462" xmlns="http://www.w3.org/2000/svg" xmlns:xlink="http://www.w3.org/1999/xlink" ><g id="svgg"><path id="path0" d="M204.519 22.774 C 174.101 54.241,149.813 89.827,144.586 110.585 C 140.748 125.825,144.172 152.766,151.967 168.669 L 155.578 176.037 146.622 176.037 C 137.101 176.037,129.486 177.087,122.345 179.386 C 118.327 180.679,117.445 180.660,111.746 179.151 C 91.051 173.673,70.409 179.251,55.254 194.418 C 40.981 208.702,36.900 220.535,36.878 247.696 C 36.866 262.649,37.562 265.656,39.758 260.138 C 49.012 236.877,60.861 224.540,77.207 221.147 C 82.225 220.105,86.139 220.177,108.756 221.726 C 130.014 223.183,140.751 201.580,126.067 186.897 C 121.560 182.390,121.287 182.604,132.824 181.598 C 178.766 177.592,223.322 201.826,245.162 242.701 C 257.899 266.539,243.068 281.124,212.110 275.206 C 190.323 271.041,176.687 279.660,176.687 297.597 C 176.687 329.456,229.067 337.063,256.684 309.214 C 279.337 286.372,278.734 255.024,255.043 223.819 C 251.565 219.238,248.852 215.378,249.014 215.241 C 249.176 215.104,253.871 213.444,259.447 211.553 C 304.442 196.293,313.560 181.750,319.277 116.129 C 322.278 81.678,323.104 57.143,321.262 57.143 C 319.098 57.143,284.231 83.775,268.407 97.515 L 261.699 103.339 258.145 100.524 C 251.438 95.213,243.841 92.466,231.294 90.817 L 227.104 90.266 225.044 74.856 C 222.416 55.188,220.198 44.518,216.041 31.551 C 211.183 16.394,210.897 16.176,204.519 22.774 M197.912 111.849 C 220.396 123.520,212.657 158.065,187.558 158.065 C 160.261 158.065,152.993 120.451,178.459 110.975 C 183.045 109.268,193.877 109.755,197.912 111.849 M186.627 121.166 C 178.518 129.472,175.648 140.544,179.271 149.539 C 181.859 155.963,194.087 139.129,195.016 127.864 C 196.010 115.799,193.682 113.940,186.627 121.166 M265.767 130.513 C 276.969 134.330,285.359 147.021,284.591 158.988 C 282.966 184.311,253.721 195.789,235.765 178.152 C 213.896 156.672,236.624 120.582,265.767 130.513 M260.369 140.350 C 258.848 141.473,256.595 143.580,255.363 145.031 C 254.130 146.481,252.663 148.141,252.103 148.719 C 247.156 153.824,245.804 156.847,245.534 163.401 C 244.810 181.016,248.330 183.722,257.815 172.844 C 269.255 159.724,271.419 132.186,260.369 140.350 M40.962 267.176 C 17.082 278.023,24.079 335.376,52.464 361.460 C 72.676 380.033,92.921 389.020,80.112 373.733 C 63.916 354.403,59.474 326.799,68.266 300.119 C 76.195 276.061,61.209 257.980,40.962 267.176 M107.373 287.563 C 69.392 295.232,75.132 369.961,115.695 395.910 C 161.162 424.994,227.420 414.402,264.521 372.117 C 268.634 367.430,274.152 361.769,276.783 359.538 C 298.252 341.334,326.415 349.478,330.828 375.165 C 335.436 401.990,357.811 399.913,368.742 371.646 C 381.846 337.759,348.538 300.810,308.316 304.615 C 281.974 307.107,260.788 320.202,244.954 343.779 C 226.978 370.545,210.446 384.873,186.636 394.320 C 150.586 408.624,127.173 380.184,135.923 332.719 C 141.765 301.024,130.324 282.928,107.373 287.563 " stroke="none" fill="#000000" fill-rule="evenodd"></path></g></svg>