<svg id="svg" version="1.1" width="400" height="400" viewBox="0 0 400 400" xmlns="http://www.w3.org/2000/svg" xmlns:xlink="http://www.w3.org/1999/xlink" ><g id="svgg"><path id="path0" d="M145.023 34.889 C 144.188 36.081,144.195 36.119,145.800 38.627 C 146.570 39.831,147.200 40.961,147.200 41.138 C 147.200 41.315,147.650 41.883,148.200 42.400 C 148.750 42.917,149.200 43.509,149.200 43.715 C 149.200 43.922,150.820 46.519,152.800 49.487 C 154.780 52.455,156.400 55.016,156.400 55.179 C 156.400 55.343,156.760 55.802,157.200 56.200 C 157.640 56.598,158.000 57.144,158.000 57.413 C 158.000 57.682,158.289 58.142,158.642 58.435 C 158.995 58.727,159.444 59.335,159.641 59.784 C 159.837 60.233,160.223 60.915,160.497 61.300 C 161.257 62.367,160.554 63.113,156.980 65.034 C 155.231 65.974,153.215 67.060,152.500 67.446 C 147.699 70.040,158.933 72.975,165.800 70.922 C 171.155 69.320,175.507 67.926,176.200 67.589 C 181.538 64.998,190.593 63.079,190.990 64.454 C 191.831 67.364,193.528 69.399,196.320 70.846 C 200.507 73.016,202.686 77.071,200.977 79.511 C 199.173 82.087,190.317 78.840,190.895 75.814 C 191.150 74.483,190.409 74.500,189.055 75.855 C 187.281 77.628,187.860 80.985,190.349 83.357 C 192.180 85.102,199.335 85.073,203.231 83.305 C 210.349 80.074,211.342 73.196,205.442 68.000 C 199.839 63.066,199.037 61.560,201.705 60.980 C 202.417 60.824,204.041 60.366,205.314 59.961 C 207.517 59.260,208.548 58.845,212.200 57.193 C 213.080 56.795,214.385 56.229,215.100 55.937 C 221.316 53.393,194.802 53.471,182.800 56.032 C 180.710 56.479,178.278 57.000,177.395 57.192 C 176.513 57.383,173.867 58.184,171.517 58.970 C 167.001 60.481,164.800 60.773,164.800 59.862 C 164.800 59.566,164.440 58.998,164.000 58.600 C 163.560 58.202,163.200 57.662,163.200 57.400 C 163.200 57.138,162.840 56.598,162.400 56.200 C 161.960 55.802,161.600 55.262,161.600 55.000 C 161.600 54.738,161.240 54.198,160.800 53.800 C 160.360 53.402,160.000 52.862,160.000 52.600 C 160.000 52.338,159.640 51.798,159.200 51.400 C 158.760 51.002,158.400 50.468,158.400 50.213 C 158.400 49.959,158.085 49.401,157.700 48.973 C 157.315 48.545,156.559 47.387,156.020 46.398 C 150.757 36.739,146.701 32.494,145.023 34.889 M258.070 34.926 C 257.591 35.435,257.200 36.037,257.200 36.264 C 257.200 36.491,256.840 37.002,256.400 37.400 C 255.960 37.798,255.600 38.338,255.600 38.600 C 255.600 38.862,255.240 39.402,254.800 39.800 C 254.360 40.198,254.000 40.661,254.000 40.828 C 254.000 40.996,253.100 42.479,252.000 44.123 C 250.900 45.768,250.000 47.254,250.000 47.425 C 250.000 47.597,249.701 48.067,249.336 48.471 C 248.970 48.875,248.475 49.545,248.236 49.959 C 247.486 51.257,243.909 56.590,243.649 56.800 C 243.512 56.910,243.006 57.720,242.525 58.600 C 241.364 60.722,240.611 60.765,235.167 59.025 C 230.048 57.388,223.573 55.778,220.463 55.369 L 218.326 55.087 219.222 56.843 C 221.413 61.138,234.246 70.400,238.006 70.400 C 238.417 70.400,238.851 70.559,238.971 70.754 C 239.184 71.098,239.595 71.205,243.800 72.016 C 253.174 73.823,262.629 73.800,260.977 71.975 C 260.591 71.549,260.062 71.200,259.800 71.200 C 259.538 71.200,258.998 70.840,258.600 70.400 C 258.202 69.960,257.733 69.600,257.558 69.600 C 257.383 69.600,256.440 69.060,255.462 68.400 C 254.484 67.740,253.544 67.200,253.373 67.200 C 253.203 67.200,252.779 66.949,252.431 66.642 C 252.084 66.335,250.495 65.422,248.900 64.614 C 246.040 63.166,245.098 61.804,246.400 61.000 C 246.620 60.864,246.800 60.403,246.800 59.976 C 246.800 59.549,246.950 59.200,247.132 59.200 C 247.315 59.200,247.720 58.705,248.032 58.100 C 248.344 57.495,248.704 56.910,248.832 56.800 C 249.046 56.616,252.463 51.571,253.403 50.051 C 253.624 49.693,254.659 48.105,255.703 46.521 C 256.746 44.938,257.600 43.481,257.600 43.283 C 257.600 43.086,257.960 42.598,258.400 42.200 C 258.840 41.802,259.200 41.262,259.200 41.000 C 259.200 40.738,259.560 40.198,260.000 39.800 C 260.440 39.402,260.800 38.856,260.800 38.587 C 260.800 38.318,261.070 37.874,261.400 37.600 C 262.182 36.951,262.167 35.424,261.371 34.629 C 260.471 33.728,259.077 33.853,258.070 34.926 " stroke="none" fill="#000000" fill-rule="evenodd"></path><path id="path1" d="M144.565 34.597 C 143.700 35.917,144.050 37.227,146.024 40.064 C 146.891 41.309,147.600 42.496,147.600 42.702 C 147.600 42.908,147.960 43.402,148.400 43.800 C 148.840 44.198,149.200 44.689,149.200 44.892 C 149.200 45.094,150.910 47.781,153.000 50.862 C 155.090 53.943,156.800 56.550,156.800 56.654 C 156.800 56.758,157.520 57.904,158.400 59.200 C 160.376 62.110,160.387 62.583,158.500 63.457 C 157.675 63.839,155.911 64.804,154.580 65.602 C 153.249 66.400,151.854 67.170,151.480 67.314 C 151.044 67.481,150.820 67.973,150.854 68.687 C 150.896 69.527,150.949 69.595,151.074 68.965 C 151.164 68.506,151.815 67.818,152.519 67.437 C 153.224 67.056,155.231 65.974,156.980 65.034 C 160.554 63.113,161.257 62.367,160.497 61.300 C 160.223 60.915,159.837 60.233,159.641 59.784 C 159.444 59.335,158.995 58.727,158.642 58.435 C 158.289 58.142,158.000 57.682,158.000 57.413 C 158.000 57.144,157.640 56.598,157.200 56.200 C 156.760 55.802,156.400 55.343,156.400 55.179 C 156.400 55.016,154.780 52.455,152.800 49.487 C 150.820 46.519,149.200 43.922,149.200 43.715 C 149.200 43.509,148.750 42.917,148.200 42.400 C 147.650 41.883,147.200 41.315,147.200 41.138 C 147.200 40.961,146.543 39.788,145.740 38.533 C 144.006 35.822,144.325 34.308,146.679 34.077 C 147.943 33.953,152.550 40.029,156.020 46.398 C 156.559 47.387,157.315 48.545,157.700 48.973 C 158.085 49.401,158.400 49.959,158.400 50.213 C 158.400 50.468,158.760 51.002,159.200 51.400 C 159.640 51.798,160.000 52.338,160.000 52.600 C 160.000 52.862,160.360 53.402,160.800 53.800 C 161.240 54.198,161.600 54.738,161.600 55.000 C 161.600 55.262,161.960 55.802,162.400 56.200 C 162.840 56.598,163.200 57.138,163.200 57.400 C 163.200 57.662,163.560 58.202,164.000 58.600 C 164.440 58.998,164.800 59.566,164.800 59.862 C 164.800 60.773,167.001 60.481,171.517 58.970 C 173.867 58.184,176.513 57.384,177.395 57.192 C 188.083 54.874,195.026 54.021,203.316 54.008 C 209.108 53.999,216.131 54.667,216.339 55.247 C 216.421 55.475,216.713 55.438,217.051 55.157 C 217.507 54.779,217.752 54.837,218.242 55.441 C 218.582 55.858,218.729 55.948,218.569 55.640 C 217.996 54.534,226.627 56.294,235.167 59.025 C 240.611 60.765,241.364 60.722,242.525 58.600 C 243.006 57.720,243.512 56.910,243.649 56.800 C 243.909 56.590,247.486 51.257,248.236 49.959 C 248.475 49.545,248.970 48.875,249.336 48.471 C 249.701 48.067,250.000 47.597,250.000 47.425 C 250.000 47.254,250.900 45.768,252.000 44.123 C 253.100 42.479,254.000 40.996,254.000 40.828 C 254.000 40.661,254.360 40.198,254.800 39.800 C 255.240 39.402,255.600 38.862,255.600 38.600 C 255.600 38.338,255.960 37.798,256.400 37.400 C 256.840 37.002,257.200 36.465,257.200 36.208 C 257.200 35.454,258.977 34.000,259.897 34.000 C 261.685 34.000,262.728 36.498,261.400 37.600 C 261.070 37.874,260.800 38.318,260.800 38.587 C 260.800 38.856,260.440 39.402,260.000 39.800 C 259.560 40.198,259.200 40.738,259.200 41.000 C 259.200 41.262,258.840 41.802,258.400 42.200 C 257.960 42.598,257.600 43.086,257.600 43.283 C 257.600 43.481,256.746 44.938,255.703 46.521 C 254.659 48.105,253.624 49.693,253.403 50.051 C 252.463 51.571,249.046 56.616,248.832 56.800 C 248.704 56.910,248.344 57.495,248.032 58.100 C 247.720 58.705,247.315 59.200,247.132 59.200 C 246.950 59.200,246.800 59.549,246.800 59.976 C 246.800 60.403,246.620 60.864,246.400 61.000 C 245.098 61.804,246.040 63.166,248.900 64.614 C 250.495 65.422,252.084 66.335,252.431 66.642 C 252.779 66.949,253.203 67.200,253.373 67.200 C 253.544 67.200,254.484 67.740,255.462 68.400 C 256.440 69.060,257.383 69.600,257.558 69.600 C 257.733 69.600,258.202 69.960,258.600 70.400 C 258.998 70.840,259.538 71.200,259.800 71.200 C 260.782 71.200,261.762 72.702,260.930 72.932 C 260.529 73.043,260.700 73.094,261.310 73.045 C 261.921 72.997,262.422 72.825,262.423 72.663 C 262.426 72.268,260.182 70.400,259.704 70.400 C 259.495 70.400,258.998 70.040,258.600 69.600 C 258.202 69.160,257.707 68.800,257.500 68.800 C 257.293 68.800,256.646 68.461,256.062 68.047 C 254.479 66.925,251.688 65.342,249.104 64.102 C 246.541 62.872,246.217 62.050,247.600 60.291 C 248.040 59.731,248.400 59.105,248.400 58.899 C 248.400 58.693,248.760 58.198,249.200 57.800 C 249.640 57.402,250.000 56.930,250.000 56.751 C 250.000 56.441,255.167 48.368,258.458 43.536 C 259.306 42.291,260.000 41.110,260.000 40.912 C 260.000 40.713,260.315 40.193,260.700 39.755 C 263.303 36.796,262.883 33.600,259.891 33.600 C 258.436 33.600,258.438 33.598,255.700 37.157 C 255.205 37.800,254.800 38.495,254.800 38.701 C 254.800 38.907,254.440 39.402,254.000 39.800 C 253.560 40.198,253.200 40.681,253.200 40.874 C 253.200 41.066,251.760 43.373,250.000 46.000 C 248.240 48.627,246.800 50.962,246.800 51.188 C 246.800 51.415,246.641 51.600,246.446 51.600 C 246.251 51.600,245.802 52.185,245.449 52.900 C 242.980 57.899,239.950 60.910,238.674 59.634 C 238.435 59.395,237.914 59.200,237.515 59.200 C 237.116 59.200,236.477 59.041,236.095 58.847 C 234.984 58.282,229.818 56.800,228.961 56.800 C 228.530 56.800,227.823 56.552,227.389 56.248 C 226.626 55.714,225.037 55.420,220.400 54.952 C 219.190 54.830,218.029 54.565,217.820 54.365 C 217.611 54.164,215.777 54.000,213.744 54.000 C 211.711 54.000,209.936 53.820,209.800 53.600 C 209.652 53.361,207.004 53.200,203.200 53.200 C 199.396 53.200,196.748 53.361,196.600 53.600 C 196.464 53.821,194.670 54.000,192.600 54.000 C 190.530 54.000,188.736 54.179,188.600 54.400 C 188.464 54.620,187.409 54.800,186.256 54.800 C 185.103 54.800,183.989 54.963,183.780 55.161 C 183.571 55.360,182.590 55.604,181.600 55.704 C 180.610 55.804,179.260 56.082,178.600 56.323 C 177.940 56.563,176.050 57.145,174.400 57.615 C 169.709 58.952,168.665 59.281,167.700 59.723 C 166.483 60.280,165.019 59.469,164.225 57.797 C 163.890 57.089,163.341 56.283,163.007 56.006 C 162.673 55.729,162.400 55.282,162.400 55.013 C 162.400 54.744,162.040 54.198,161.600 53.800 C 161.160 53.402,160.800 52.862,160.800 52.600 C 160.800 52.338,160.440 51.798,160.000 51.400 C 159.560 51.002,159.200 50.505,159.200 50.297 C 159.200 50.089,157.310 47.050,155.000 43.544 C 152.690 40.038,150.800 37.076,150.800 36.962 C 150.800 34.484,145.865 32.613,144.565 34.597 M157.300 71.891 C 158.125 71.978,159.475 71.978,160.300 71.891 C 161.125 71.805,160.450 71.734,158.800 71.734 C 157.150 71.734,156.475 71.805,157.300 71.891 M248.900 73.076 C 249.285 73.176,249.915 73.176,250.300 73.076 C 250.685 72.975,250.370 72.893,249.600 72.893 C 248.830 72.893,248.515 72.975,248.900 73.076 M160.800 81.264 C 151.380 86.698,154.363 100.100,165.000 100.134 C 175.881 100.169,179.087 86.135,169.316 81.243 C 167.037 80.102,162.796 80.113,160.800 81.264 M237.319 81.255 C 227.646 85.948,230.703 100.093,241.400 100.140 C 251.968 100.187,255.412 86.854,246.200 81.557 C 243.666 80.101,239.959 79.975,237.319 81.255 M197.300 84.676 C 197.685 84.776,198.315 84.776,198.700 84.676 C 199.085 84.575,198.770 84.493,198.000 84.493 C 197.230 84.493,196.915 84.575,197.300 84.676 M115.385 138.099 C 115.280 138.375,115.241 167.130,115.297 202.000 L 115.400 265.400 203.200 265.400 L 291.000 265.400 291.000 201.600 L 291.000 137.800 203.288 137.699 C 133.328 137.619,115.537 137.700,115.385 138.099 M79.600 138.784 C 79.270 139.006,78.530 139.191,77.956 139.194 C 76.820 139.201,72.000 141.526,72.000 142.067 C 72.000 142.250,71.755 142.400,71.455 142.400 C 71.155 142.400,70.120 143.283,69.155 144.362 C 62.938 151.312,63.131 149.481,63.291 200.158 L 63.418 240.200 64.335 242.748 C 68.381 254.003,80.596 259.266,91.100 254.281 C 92.035 253.837,92.800 253.323,92.800 253.137 C 92.800 252.952,93.031 252.800,93.313 252.800 C 93.914 252.800,98.229 248.530,99.023 247.150 C 99.569 246.198,99.956 245.410,101.156 242.800 C 101.733 241.545,101.811 236.916,101.907 198.234 L 102.014 155.067 101.128 152.234 C 100.641 150.675,100.098 149.340,99.921 149.267 C 99.745 149.193,99.600 148.921,99.600 148.661 C 99.600 148.032,95.674 143.200,95.164 143.200 C 94.944 143.200,94.315 142.751,93.767 142.203 C 91.205 139.641,81.725 137.353,79.600 138.784 M319.800 138.896 C 316.886 139.616,314.128 140.867,312.779 142.081 C 312.217 142.587,311.419 143.192,311.006 143.427 C 310.592 143.661,310.061 144.192,309.827 144.606 C 309.592 145.019,308.985 145.817,308.477 146.379 C 307.482 147.479,306.413 149.602,305.429 152.428 C 304.638 154.698,304.468 239.936,305.250 241.881 C 305.497 242.497,305.878 243.450,306.096 244.000 C 307.153 246.662,307.992 247.955,310.191 250.314 C 311.286 251.488,312.771 252.728,313.491 253.070 C 314.211 253.412,314.800 253.851,314.800 254.046 C 314.800 254.241,315.072 254.400,315.405 254.400 C 315.738 254.400,316.323 254.558,316.705 254.751 C 319.360 256.092,327.459 256.701,328.521 255.639 C 328.763 255.397,329.363 255.200,329.856 255.200 C 330.349 255.200,330.864 255.020,331.000 254.800 C 331.136 254.580,331.597 254.400,332.024 254.400 C 332.451 254.400,332.800 254.220,332.800 254.000 C 332.800 253.780,333.067 253.600,333.393 253.600 C 335.305 253.600,342.000 245.218,342.000 242.824 C 342.000 242.459,342.225 241.935,342.500 241.660 C 343.109 241.052,343.462 162.871,342.885 156.499 C 342.525 152.527,340.923 148.064,339.405 146.804 C 339.072 146.528,338.800 146.091,338.800 145.832 C 338.800 145.247,335.923 142.400,335.332 142.400 C 335.093 142.400,334.671 142.127,334.394 141.793 C 333.941 141.247,332.456 140.475,330.200 139.613 C 327.081 138.421,322.894 138.132,319.800 138.896 M235.853 148.700 C 237.260 149.493,252.802 165.527,252.796 166.177 C 252.793 166.410,249.778 170.035,246.096 174.234 C 240.155 181.008,234.928 187.020,232.390 190.000 C 231.921 190.550,230.966 191.630,230.266 192.400 C 229.567 193.170,226.884 196.259,224.305 199.264 C 221.725 202.270,219.375 204.970,219.083 205.264 C 218.791 205.559,217.494 207.060,216.199 208.600 C 214.905 210.140,213.746 211.490,213.623 211.600 C 213.500 211.710,212.415 212.970,211.211 214.400 C 210.008 215.830,208.743 217.270,208.401 217.600 C 208.059 217.930,206.907 219.235,205.841 220.500 C 203.505 223.272,203.058 223.303,201.000 220.837 C 199.410 218.932,192.207 210.605,191.414 209.756 C 190.212 208.469,188.326 206.301,186.233 203.800 C 184.944 202.260,183.146 200.190,182.238 199.200 C 181.330 198.210,178.436 194.880,175.807 191.800 C 173.178 188.720,170.931 186.110,170.813 186.000 C 170.573 185.776,165.863 180.367,164.550 178.809 C 164.083 178.254,161.518 175.334,158.850 172.320 C 156.183 169.305,154.000 166.514,154.000 166.116 C 154.000 165.708,157.701 161.695,162.501 156.899 L 171.002 148.405 200.201 148.300 C 216.260 148.242,230.573 148.151,232.006 148.097 C 233.891 148.027,234.956 148.194,235.853 148.700 M148.243 298.233 C 148.109 298.581,148.000 304.686,148.000 311.800 C 148.000 318.914,148.109 325.019,148.243 325.367 C 148.449 325.905,149.377 326.000,154.410 326.000 L 160.335 326.000 161.541 327.300 C 164.761 330.770,165.728 331.871,166.286 332.700 C 167.290 334.192,167.481 334.065,171.965 328.900 L 174.482 326.000 180.227 326.000 C 185.497 326.000,186.006 325.936,186.386 325.226 C 187.140 323.817,186.935 298.137,186.167 297.843 C 184.530 297.215,148.491 297.585,148.243 298.233 M220.271 297.863 C 219.816 298.318,219.952 324.363,220.414 325.226 C 220.793 325.934,221.300 326.000,226.360 326.000 L 231.892 326.000 235.213 329.700 C 237.039 331.735,238.652 333.449,238.796 333.510 C 239.067 333.623,242.513 330.090,244.562 327.600 L 245.714 326.200 251.957 326.000 L 258.200 325.800 258.200 311.800 L 258.200 297.800 239.371 297.696 C 229.014 297.639,220.419 297.714,220.271 297.863 " stroke="none" fill="#2066b1" fill-rule="evenodd"></path><path id="path2" d="M200.800 148.265 L 171.000 148.384 162.500 157.055 C 157.825 161.824,154.005 165.922,154.011 166.163 C 154.021 166.551,155.979 168.859,164.391 178.400 C 165.651 179.830,168.074 182.620,169.775 184.600 C 171.475 186.580,173.904 189.370,175.172 190.800 C 176.440 192.230,178.785 194.930,180.385 196.800 C 181.984 198.670,183.771 200.740,184.356 201.400 C 184.942 202.060,187.122 204.580,189.201 207.000 C 191.281 209.420,193.076 211.490,193.192 211.600 C 193.307 211.710,194.014 212.520,194.763 213.400 C 195.512 214.280,197.250 216.260,198.626 217.800 C 200.002 219.340,201.517 221.095,201.993 221.700 C 203.268 223.321,203.469 223.200,207.604 218.319 C 209.692 215.854,213.383 211.579,215.806 208.819 C 218.229 206.058,220.749 203.154,221.406 202.365 C 222.063 201.576,225.480 197.631,229.000 193.600 C 232.520 189.569,237.290 184.080,239.600 181.402 C 244.189 176.082,248.956 170.639,251.058 168.317 C 253.054 166.112,253.033 166.077,244.087 156.884 L 235.800 148.369 233.200 148.258 C 231.770 148.197,217.190 148.200,200.800 148.265 M229.700 162.881 C 232.725 166.016,235.200 168.774,235.200 169.010 C 235.200 169.245,233.535 171.334,231.500 173.652 C 223.777 182.447,217.648 189.499,215.379 192.200 C 214.085 193.740,212.930 195.090,212.813 195.200 C 212.695 195.310,211.429 196.750,210.000 198.399 C 208.570 200.049,207.211 201.601,206.979 201.849 C 206.748 202.096,205.944 203.042,205.193 203.949 C 203.585 205.894,203.148 205.970,201.996 204.500 C 201.522 203.895,200.384 202.590,199.467 201.600 C 198.549 200.610,196.179 197.910,194.199 195.600 C 192.220 193.290,190.420 191.205,190.200 190.966 C 189.980 190.728,187.640 188.040,185.000 184.993 C 182.360 181.947,178.175 177.154,175.700 174.342 C 173.225 171.530,171.200 169.113,171.200 168.970 C 171.200 168.828,173.752 166.121,176.871 162.956 L 182.542 157.200 203.371 157.190 L 224.200 157.181 229.700 162.881 M101.043 264.330 C 100.635 264.991,94.508 267.792,92.600 268.190 C 84.988 269.780,81.695 269.940,76.800 268.954 C 75.150 268.622,73.215 268.251,72.500 268.131 C 71.785 268.011,71.200 267.752,71.200 267.556 C 71.200 267.360,70.858 267.200,70.441 267.200 C 70.023 267.200,68.641 266.653,67.370 265.984 C 64.608 264.531,64.311 264.601,63.632 266.857 C 63.072 268.724,62.521 270.178,61.953 271.295 C 61.759 271.677,61.600 272.431,61.600 272.971 C 61.600 273.511,61.420 274.064,61.200 274.200 C 60.980 274.336,60.800 274.876,60.800 275.400 C 60.800 275.924,60.620 276.464,60.400 276.600 C 60.180 276.736,60.000 277.276,60.000 277.800 C 60.000 278.324,59.820 278.864,59.600 279.000 C 59.380 279.136,59.200 279.856,59.200 280.600 C 59.200 281.344,59.044 282.049,58.853 282.167 C 58.662 282.285,58.395 283.151,58.259 284.091 C 58.124 285.031,57.819 286.700,57.583 287.800 C 56.257 293.963,55.315 302.029,54.557 313.702 L 54.278 318.004 94.439 317.902 L 134.600 317.800 134.716 314.300 L 134.831 310.800 132.316 310.786 C 121.377 310.724,112.523 306.266,106.918 297.998 C 105.018 295.195,104.000 293.246,104.000 292.411 C 104.000 291.991,103.820 291.536,103.600 291.400 C 103.380 291.264,103.200 290.724,103.200 290.200 C 103.200 289.676,103.020 289.136,102.800 289.000 C 102.547 288.844,102.400 284.196,102.400 276.376 C 102.400 264.097,102.213 262.437,101.043 264.330 M115.867 265.867 C 115.391 266.342,115.566 283.237,116.062 284.772 C 117.578 289.460,120.989 293.598,124.673 295.218 C 125.733 295.684,126.913 296.231,127.295 296.433 C 127.677 296.635,132.571 296.800,138.171 296.800 C 144.527 296.800,148.446 296.950,148.600 297.200 C 148.944 297.756,185.693 297.747,186.249 297.191 C 186.521 296.919,192.331 296.853,203.629 296.992 C 251.058 297.578,258.000 297.606,258.000 297.208 C 258.000 296.941,261.581 296.800,268.334 296.800 L 278.668 296.800 281.434 295.439 C 285.454 293.460,290.000 288.457,290.000 286.011 C 290.000 285.591,290.180 285.136,290.400 285.000 C 290.649 284.846,290.800 281.129,290.800 275.176 L 290.800 265.600 203.467 265.600 C 155.433 265.600,116.013 265.720,115.867 265.867 M148.400 335.272 C 148.400 344.492,148.565 345.669,150.437 349.800 C 154.776 359.377,169.880 364.077,176.626 357.950 C 177.080 357.537,177.669 357.200,177.934 357.200 C 179.560 357.200,183.813 351.482,185.424 347.129 C 186.108 345.281,186.765 329.510,186.244 327.435 L 185.985 326.400 180.092 326.404 L 174.200 326.408 171.077 330.004 C 167.394 334.244,167.409 334.241,164.947 331.359 C 163.894 330.126,162.472 328.506,161.788 327.759 L 160.543 326.400 154.472 326.400 L 148.400 326.400 148.400 335.272 M220.366 327.263 C 219.581 328.731,220.087 344.588,220.983 346.600 C 224.722 354.992,226.642 356.900,234.676 360.210 C 236.565 360.988,242.745 360.917,244.200 360.101 C 244.640 359.854,245.585 359.417,246.300 359.129 C 247.015 358.840,247.600 358.469,247.600 358.302 C 247.600 358.136,247.915 357.998,248.300 357.996 C 249.924 357.986,254.547 353.273,255.947 350.200 C 256.247 349.540,256.652 348.687,256.847 348.305 C 257.041 347.923,257.200 347.259,257.200 346.829 C 257.200 346.399,257.380 345.936,257.600 345.800 C 257.849 345.646,258.000 341.929,258.000 335.976 L 258.000 326.400 251.848 326.400 L 245.696 326.400 244.292 328.100 C 243.520 329.035,242.004 330.771,240.923 331.957 L 238.959 334.115 235.579 330.276 L 232.200 326.437 226.514 326.419 C 221.089 326.401,220.807 326.440,220.366 327.263 " stroke="none" fill="#ed1c24" fill-rule="evenodd"></path><path id="path3" d="M216.500 55.882 C 216.005 55.978,215.600 56.223,215.600 56.428 C 215.600 56.633,215.335 56.800,215.012 56.800 C 214.689 56.800,213.834 57.126,213.112 57.524 C 212.390 57.923,210.720 58.660,209.400 59.163 C 208.080 59.666,206.640 60.216,206.200 60.384 C 204.284 61.115,202.480 61.600,201.672 61.600 C 200.164 61.600,200.690 62.442,204.652 66.376 C 210.971 72.650,211.678 77.100,207.070 81.605 C 203.468 85.127,193.944 86.617,190.300 84.228 C 187.662 82.500,186.654 77.310,188.582 75.382 C 189.707 74.257,192.000 74.001,192.000 75.000 C 192.000 75.330,191.820 75.600,191.600 75.600 C 189.531 75.600,193.388 78.740,196.495 79.586 C 202.675 81.267,202.403 75.526,196.108 71.406 C 193.069 69.417,190.800 67.100,190.800 65.985 C 190.800 64.538,189.827 63.871,188.368 64.319 C 184.730 65.437,176.582 68.087,173.000 69.317 C 169.008 70.688,167.491 71.128,163.894 71.959 C 161.772 72.450,155.493 72.560,155.047 72.114 C 153.764 70.831,149.200 71.424,149.200 72.874 C 149.200 73.053,148.912 73.200,148.560 73.200 C 148.209 73.200,147.417 73.740,146.800 74.400 C 146.183 75.060,145.473 75.600,145.222 75.600 C 144.645 75.600,131.600 88.792,131.600 89.375 C 131.600 89.613,130.974 90.346,130.209 91.004 C 129.443 91.662,128.813 92.475,128.809 92.812 C 128.804 93.148,128.440 93.683,128.000 94.000 C 127.560 94.317,127.200 94.897,127.200 95.288 C 127.200 95.680,127.020 96.000,126.800 96.000 C 126.580 96.000,126.400 96.360,126.400 96.800 C 126.400 97.240,126.250 97.600,126.067 97.600 C 125.667 97.600,123.200 102.286,123.200 103.044 C 123.200 103.336,122.840 104.217,122.400 105.000 C 121.960 105.783,121.600 106.768,121.600 107.189 C 121.600 107.609,121.420 108.064,121.200 108.200 C 120.980 108.336,120.800 108.876,120.800 109.400 C 120.800 109.924,120.620 110.464,120.400 110.600 C 120.180 110.736,120.000 111.377,120.000 112.024 C 120.000 112.671,119.820 113.200,119.600 113.200 C 119.380 113.200,119.200 113.920,119.200 114.800 C 119.200 115.680,119.020 116.400,118.800 116.400 C 118.578 116.400,118.400 117.459,118.400 118.776 C 118.400 120.083,118.220 121.264,118.000 121.400 C 115.707 122.817,114.670 122.800,203.400 122.800 C 292.130 122.800,291.093 122.817,288.800 121.400 C 288.580 121.264,288.400 120.184,288.400 119.000 C 288.400 117.816,288.220 116.736,288.000 116.600 C 287.780 116.464,287.600 115.744,287.600 115.000 C 287.600 114.256,287.420 113.536,287.200 113.400 C 286.980 113.264,286.800 112.623,286.800 111.976 C 286.800 111.329,286.620 110.800,286.400 110.800 C 286.180 110.800,286.000 110.260,286.000 109.600 C 286.000 108.940,285.820 108.400,285.600 108.400 C 285.380 108.400,285.200 107.860,285.200 107.200 C 285.200 106.540,285.020 106.000,284.800 106.000 C 284.580 106.000,284.400 105.640,284.400 105.200 C 284.400 104.760,284.220 104.400,284.000 104.400 C 283.780 104.400,283.600 103.871,283.600 103.224 C 283.600 102.577,283.420 101.936,283.199 101.799 C 282.978 101.663,282.439 100.763,282.000 99.800 C 281.561 98.837,281.021 97.937,280.800 97.800 C 280.579 97.663,280.047 96.782,279.619 95.841 C 279.190 94.900,278.561 93.899,278.220 93.616 C 277.879 93.334,277.600 92.888,277.600 92.626 C 277.600 92.364,277.060 91.632,276.400 91.000 C 275.740 90.368,275.200 89.657,275.200 89.421 C 275.200 89.185,272.050 85.845,268.200 82.000 C 264.350 78.155,261.200 74.737,261.200 74.404 C 261.200 73.896,260.329 73.796,255.700 73.776 C 249.883 73.751,242.828 72.930,240.600 72.018 C 240.160 71.838,238.990 71.447,238.000 71.149 C 231.526 69.198,221.865 62.351,218.740 57.500 C 218.067 56.455,217.490 55.625,217.458 55.654 C 217.426 55.684,216.995 55.787,216.500 55.882 M169.894 80.939 C 179.351 85.871,176.257 99.912,165.535 100.720 C 156.268 101.419,150.947 88.871,157.916 82.752 C 161.100 79.956,166.454 79.146,169.894 80.939 M246.600 81.225 C 254.067 85.611,253.281 97.017,245.306 100.001 C 233.676 104.352,225.515 88.676,235.746 81.637 C 238.573 79.692,243.661 79.499,246.600 81.225 M177.082 163.132 C 171.164 169.104,171.163 169.106,172.500 170.238 C 173.399 170.999,173.399 170.999,172.700 170.169 C 171.635 168.903,171.111 169.549,182.767 157.768 C 182.858 157.676,182.850 157.600,182.748 157.600 C 182.646 157.600,180.096 160.089,177.082 163.132 M229.176 163.133 C 233.969 168.242,234.500 168.948,234.073 169.632 C 233.809 170.054,233.763 170.400,233.970 170.400 C 235.950 170.400,229.397 161.784,224.503 157.952 C 224.116 157.650,226.219 159.981,229.176 163.133 M231.968 172.300 C 230.031 174.384,229.040 175.600,229.278 175.600 C 229.389 175.600,230.419 174.520,231.567 173.200 C 233.885 170.536,234.139 169.964,231.968 172.300 M174.416 172.271 C 174.424 172.452,175.436 173.680,176.664 175.000 L 178.898 177.400 177.151 175.200 C 175.007 172.501,174.395 171.846,174.416 172.271 M227.386 177.387 C 227.174 177.689,226.218 178.851,225.263 179.968 C 224.307 181.086,223.605 182.000,223.703 182.000 C 224.011 182.000,228.099 177.165,227.932 176.998 C 227.844 176.910,227.598 177.085,227.386 177.387 M181.423 180.378 C 183.508 182.969,184.799 184.401,184.790 184.114 C 184.785 183.941,183.840 182.800,182.690 181.578 C 181.541 180.355,180.970 179.815,181.423 180.378 M185.210 184.699 C 185.215 184.864,186.160 186.001,187.310 187.224 C 189.516 189.573,189.176 188.963,186.682 186.099 C 185.867 185.163,185.204 184.533,185.210 184.699 M218.700 187.417 C 218.095 188.128,217.600 188.826,217.600 188.969 C 217.600 189.111,218.164 188.586,218.853 187.800 C 219.543 187.015,220.038 186.317,219.953 186.249 C 219.869 186.180,219.305 186.706,218.700 187.417 M215.775 190.900 L 214.600 192.200 215.900 191.025 C 216.615 190.379,217.200 189.794,217.200 189.725 C 217.200 189.416,216.870 189.688,215.775 190.900 M191.230 191.885 C 193.599 194.534,195.371 196.271,194.205 194.800 C 192.309 192.409,190.837 190.800,190.542 190.800 C 190.387 190.800,190.697 191.288,191.230 191.885 M213.255 193.800 C 212.554 194.570,212.120 195.200,212.290 195.200 C 212.461 195.200,213.103 194.570,213.717 193.800 C 215.155 191.998,214.895 191.998,213.255 193.800 M211.191 195.900 C 211.186 196.065,210.299 197.188,209.220 198.396 C 208.141 199.603,207.335 200.668,207.429 200.762 C 207.523 200.856,207.653 200.858,207.717 200.767 C 207.782 200.675,208.789 199.475,209.957 198.100 C 211.124 196.725,211.881 195.600,211.640 195.600 C 211.398 195.600,211.196 195.735,211.191 195.900 M197.000 198.370 C 197.440 198.933,197.890 199.485,198.000 199.597 C 198.110 199.708,198.875 200.566,199.700 201.501 C 200.525 202.437,201.195 203.067,201.189 202.901 C 201.183 202.736,200.058 201.418,198.689 199.974 C 197.320 198.529,196.560 197.808,197.000 198.370 M205.626 202.522 L 204.651 203.800 205.926 202.625 C 207.251 201.403,207.403 201.185,206.900 201.222 C 206.735 201.234,206.162 201.819,205.626 202.522 M202.162 204.300 C 203.050 205.349,203.705 205.437,204.400 204.600 C 204.744 204.185,204.759 204.000,204.449 204.000 C 204.202 204.000,204.000 204.180,204.000 204.400 C 204.000 205.018,203.151 204.874,202.231 204.100 C 201.401 203.401,201.401 203.401,202.162 204.300 " stroke="none" fill="#fbc7ab" fill-rule="evenodd"></path><path id="path4" d="M177.472 163.156 C 171.207 169.517,171.487 168.918,173.700 171.241 C 174.635 172.223,176.210 174.010,177.200 175.213 C 178.190 176.416,179.287 177.670,179.637 178.000 C 179.987 178.330,181.337 179.860,182.637 181.400 C 183.937 182.940,185.095 184.290,185.210 184.400 C 185.326 184.510,186.406 185.770,187.610 187.199 C 188.815 188.629,190.075 190.069,190.411 190.399 C 190.748 190.730,192.008 192.164,193.211 193.587 C 194.415 195.009,195.733 196.539,196.141 196.987 C 196.548 197.434,198.236 199.375,199.891 201.300 C 203.220 205.171,203.416 205.269,204.683 203.696 C 205.168 203.093,206.039 202.060,206.617 201.400 C 207.195 200.740,208.418 199.313,209.334 198.228 C 210.250 197.144,211.360 195.881,211.800 195.423 C 212.240 194.964,214.220 192.704,216.200 190.400 C 218.180 188.096,220.160 185.836,220.600 185.377 C 221.040 184.919,222.210 183.573,223.200 182.386 C 224.190 181.200,225.630 179.512,226.400 178.637 C 227.170 177.761,228.279 176.495,228.864 175.823 C 229.450 175.150,230.935 173.452,232.164 172.050 C 234.993 168.823,235.260 169.614,229.154 163.152 L 223.908 157.600 203.426 157.600 L 182.943 157.600 177.472 163.156 " stroke="none" fill="#fff200" fill-rule="evenodd"></path></g></svg>