<?xml version="1.0" encoding="iso-8859-1"?>
<!-- Generator: Adobe Illustrator 19.0.0, SVG Export Plug-In . SVG Version: 6.00 Build 0)  -->
<svg version="1.1" id="Layer_1" xmlns="http://www.w3.org/2000/svg" xmlns:xlink="http://www.w3.org/1999/xlink" x="0px" y="0px"
	 viewBox="0 0 486.581 486.581" style="enable-background:new 0 0 486.581 486.581;" xml:space="preserve">
<circle style="fill:#D64505;" cx="243.291" cy="243.287" r="228.431"/>
<g>
	<path style="fill:#F0F7F7;" d="M232.302,203.76c10.027,11.28,3.663,33.296-14.218,49.215
		c-17.881,15.896-114.018,85.031-124.062,73.767c-10.012-11.295,69.892-98.706,87.773-114.601
		C199.66,196.238,222.275,192.488,232.302,203.76z"/>
	<path style="fill:#F0F7F7;" d="M254.279,203.76c-10.027,11.28-3.663,33.296,14.218,49.215
		c17.881,15.896,114.018,85.031,124.062,73.767c10.012-11.295-69.892-98.706-87.773-114.601
		C286.921,196.238,264.306,192.488,254.279,203.76z"/>
</g>
<g>
	<path style="fill:#FFFFFF;" d="M339.767,358.951c0,19.511-15.817,124.676-35.336,124.676c-19.495,0-35.304-105.173-35.304-124.676
		c0-19.495,15.817-35.32,35.304-35.32C323.95,323.623,339.767,339.456,339.767,358.951z"/>
	<path style="fill:#FFFFFF;" d="M219.447,361.905c0,19.511-15.817,124.676-35.336,124.676c-19.495,0-35.304-105.173-35.304-124.676
		c0-19.495,15.817-35.32,35.304-35.32C203.63,326.577,219.447,342.41,219.447,361.905z"/>
</g>
<path style="fill:#CE1111;" d="M342.934,315.242c0,126.322-44.599,84.259-99.643,84.259c-55.028,0-99.643,42.063-99.643-84.259
	c0-72.231,44.631-130.788,99.643-130.788C298.319,184.454,342.934,243.011,342.934,315.242z"/>
<path style="fill:#F0F7F7;" d="M350.811,315.242c0,126.322-52.476,123.644-107.52,123.644c-55.028,0-107.52,2.678-107.52-123.644
	c0-72.231,52.508-130.788,107.52-130.788C298.319,184.454,350.811,243.011,350.811,315.242z"/>
<g>
	<path style="fill:#FFFFFF;" d="M243.291,184.454c-53.28,0-96.681,54.957-99.383,124.014c3.513,107.874,46.655,69.372,99.383,69.372
		c52.744,0,95.862,38.51,99.383-69.372C339.972,239.411,296.578,184.454,243.291,184.454z"/>
	<path style="fill:#FFFFFF;" d="M372.244,124.258c0,63-57.738,94.681-128.937,94.681c-71.215,0-128.969-31.673-128.969-94.681
		C114.337,61.227,172.091,0,243.306,0C314.506-0.008,372.244,61.227,372.244,124.258z"/>
</g>
<rect x="184.088" y="89.576" style="fill:#113E49;" width="126.976" height="4.6"/>
<path style="fill:#F0F7F7;" d="M372.244,124.258c0,63-57.738,94.681-128.937,94.681c-71.215,0-128.969-31.673-128.969-94.681"/>
<circle style="fill:#113E49;" cx="181.977" cy="92.199" r="11.532"/>
<path d="M193.508,92.199c0,6.388-5.167,11.54-11.54,11.54c-6.372,0-11.524-5.152-11.524-11.54"/>
<path style="fill:#F0F7F7;" d="M204.725,116.263c-0.614,0-1.245-0.221-1.725-0.725c-5.632-5.616-13.107-8.72-21.047-8.72h-0.016
	c-7.94,0-15.399,3.111-21,8.72c-0.953,0.953-2.489,0.969-3.434,0c-0.953-0.922-0.985-2.458-0.031-3.419
	c6.538-6.538,15.218-10.153,24.458-10.153h0.016c9.263,0,17.951,3.584,24.505,10.138c0.937,0.937,0.937,2.505,0,3.434
	C205.985,116.043,205.371,116.263,204.725,116.263z"/>
<circle style="fill:#113E49;" cx="304.652" cy="92.199" r="11.532"/>
<path d="M293.088,92.199c0,6.388,5.151,11.54,11.54,11.54c6.372,0,11.524-5.152,11.524-11.54"/>
<path style="fill:#F0F7F7;" d="M281.872,116.263c0.599,0,1.229-0.221,1.709-0.725c5.632-5.616,13.107-8.72,21.047-8.72h0.016
	c7.94,0,15.415,3.111,21.016,8.72c0.937,0.953,2.473,0.969,3.434,0c0.953-0.922,0.969-2.458,0.016-3.419
	c-6.506-6.538-15.218-10.153-24.458-10.153h-0.016c-9.248,0-17.936,3.584-24.505,10.138c-0.922,0.937-0.922,2.505,0,3.434
	C280.611,116.043,281.226,116.263,281.872,116.263z"/>
<g>
</g>
<g>
</g>
<g>
</g>
<g>
</g>
<g>
</g>
<g>
</g>
<g>
</g>
<g>
</g>
<g>
</g>
<g>
</g>
<g>
</g>
<g>
</g>
<g>
</g>
<g>
</g>
<g>
</g>
</svg>
