<?xml version="1.0" standalone="no"?><!DOCTYPE svg PUBLIC "-//W3C//DTD SVG 1.1//EN" "http://www.w3.org/Graphics/SVG/1.1/DTD/svg11.dtd"><svg t="1624437226299" class="icon" viewBox="0 0 1024 1024" version="1.1" xmlns="http://www.w3.org/2000/svg" p-id="9032" xmlns:xlink="http://www.w3.org/1999/xlink" width="200" height="200"><defs><style type="text/css"></style></defs><path d="M933.4 701.1V509.7c0-93.8-65.3-173.1-152.7-194.7-3.1-0.8-9.4-2.1-9.4-2.1l0.3 173.4c0 9.2-8.4 15.7-17.5 14.1-11.9-2.1-24-3.3-36.5-3.3H550.1V464c0-12.4 4.9-24.6 14.1-32.9 44-39.9 71.2-98.1 69.2-162.6-3.3-110-95.1-201.5-205-204.5-119.4-3.3-217.1 92.4-217.1 211 0 3 0.4 6 0.5 9h-0.5v112.5h38.8c5.8 8.1 12.1 15.9 18.9 23.2 7.6 8.1 11.4 19.1 11.4 30.2V501C162.7 522.2 75.2 633 92.1 759.7c15.5 115.9 119.1 199.9 236 199.9h389.5c18.9 0 37.4-1.9 54.7-7.3 20.5-6.5 55.3-20.5 77-37.9 7.6-5.9 14.9-12.1 21.6-18.9 1.8-1.7 3.8-3.4 5.6-5.1 36.2-35.4 56.8-83.7 56.8-134.3v-0.4c0.2-4.2 0.6-8.3 0.6-12.5v-29.5c0.1-4.3-0.3-8.4-0.5-12.6z" fill="#FFD778" p-id="9033"></path><path d="M440.1 251.5m-46.3 0a46.3 46.3 0 1 0 92.6 0 46.3 46.3 0 1 0-92.6 0Z" fill="#FB813A" p-id="9034"></path><path d="M272.6 348.5l-122.6-0.3c-22 0-40.1 18-40.1 40s18 40.1 40 40.1l122.5 0.3c22 0 40.1-18 40.1-40 0.1-22-17.9-40-39.9-40.1z" fill="#FB813A" p-id="9035"></path></svg>