<svg class="icon" viewBox="0 0 1049 1024" xmlns="http://www.w3.org/2000/svg" width="204.883" height="200"><path d="M525.584 573.347s268.831-2.63 309.364 193.243l-76.465 21.91 12.927 84.132a214.057 214.057 0 0 1-96.84-4.82 224.793 224.793 0 0 1-148.986-289.426z" fill="pink"/><path d="M552.752 512.438S684.21 278.663 874.385 341.543l-20.157 77.122 79.313 30.893a215.59 215.59 0 0 1-52.583 81.503 224.574 224.574 0 0 1-325.358-14.68z" fill="pink"/><path d="M508.494 494.034s-191.49-187.546-81.722-354.717l69.453 38.78 51.269-68.796a214.057 214.057 0 0 1 65.728 71.864 225.012 225.012 0 0 1-98.374 310.678z" fill="pink"/><path d="M473.22 525.584s-230.927 136.059-363.919-13.146l55.431-57.184-53.459-65.729a213.619 213.619 0 0 1 86.324-43.819 224.793 224.793 0 0 1 274.527 175.277z" fill="pink"/><path d="M481.765 566.555s72.082 258.314-106.481 348.144l-40.314-68.14-78.217 34.18a212.304 212.304 0 0 1-20.157-94.65 224.574 224.574 0 0 1 241.006-219.096z" fill="pink"/></svg>