<?xml version="1.0" standalone="no"?><!DOCTYPE svg PUBLIC "-//W3C//DTD SVG 1.1//EN" "http://www.w3.org/Graphics/SVG/1.1/DTD/svg11.dtd"><svg t="1624437236504" class="icon" viewBox="0 0 1024 1024" version="1.1" xmlns="http://www.w3.org/2000/svg" p-id="9166" xmlns:xlink="http://www.w3.org/1999/xlink" width="200" height="200"><defs><style type="text/css"></style></defs><path d="M958.2 511.5c0-74.1-39-138.8-97.5-175.4 1.2-7.9 1.9-15.9 1.9-24.1 0-91.6-74.3-165.9-165.9-165.9-23.5 0-45.8 4.9-66 13.7-30.1-30.9-72.2-50.2-118.7-50.2s-88.6 19.3-118.7 50.2c-20.2-8.8-42.5-13.7-66-13.7-91.6 0-165.9 74.3-165.9 165.9 0 8.2 0.8 16.2 1.9 24.1-58.5 36.5-97.5 101.3-97.5 175.4 0 67.4 32.4 127.1 82.2 164.8 0 0.5-0.1 1-0.1 1.6 0 130.6 105.9 236.5 236.5 236.5 47.4 0 91.5-14.1 128.5-38.1 37 24 81.1 38.1 128.5 38.1 130.6 0 236.5-105.9 236.5-236.5 0-1-0.1-1.9-0.1-2.9 48.8-37.8 80.4-96.9 80.4-163.5z" fill="#FC6B8A" p-id="9167"></path><path d="M696.7 477.9c-46.6 0-88.6-19.3-118.7-50.2-20.2 8.8-42.5 13.7-66 13.7s-45.8-4.9-66-13.7c-30.1 30.9-72.2 50.2-118.7 50.2-4.1 0-8.2-0.3-12.2-0.6v183.9c0 100.2 82 182.2 182.2 182.2H534c100.2 0 182.2-82 182.2-182.2V476.6c-6.4 0.8-12.8 1.3-19.5 1.3z" fill="#FFFFFF" p-id="9168"></path><path d="M509.5 666.5m-36.9 0a36.9 36.9 0 1 0 73.8 0 36.9 36.9 0 1 0-73.8 0Z" fill="#E2006C" p-id="9169"></path><path d="M647.4 560H624v-23.4c0-7.1-5.8-12.9-12.9-12.9h-5.4c-7.1 0-12.9 5.8-12.9 12.9V560h-23.4c-7.1 0-12.9 5.8-12.9 12.9v5.4c0 7.1 5.8 12.9 12.9 12.9h23.4v23.4c0 7.1 5.8 12.9 12.9 12.9h5.4c7.1 0 12.9-5.8 12.9-12.9v-23.4h23.4c7.1 0 12.9-5.8 12.9-12.9v-5.4c0.1-7.1-5.8-12.9-12.9-12.9zM449.7 560h-23.4v-23.4c0-7.1-5.8-12.9-12.9-12.9H408c-7.1 0-12.9 5.8-12.9 12.9V560h-23.4c-7.1 0-12.9 5.8-12.9 12.9v5.4c0 7.1 5.8 12.9 12.9 12.9h23.4v23.4c0 7.1 5.8 12.9 12.9 12.9h5.4c7.1 0 12.9-5.8 12.9-12.9v-23.4h23.4c7.1 0 12.9-5.8 12.9-12.9v-5.4c0-7.1-5.8-12.9-12.9-12.9z" fill="#FF5C7A" p-id="9170"></path><path d="M608.3 666.1c-7.5 0-13.7 6.1-13.7 13.7 0 37.5-38.2 67.9-85.1 67.9-46.9 0-85.1-30.5-85.1-67.9 0-7.5-6.1-13.7-13.7-13.7s-13.7 6.1-13.7 13.7c0 52.5 50.5 95.3 112.5 95.3S622 732.4 622 679.8c0-7.6-6.1-13.7-13.7-13.7z" fill="#EB53A8" p-id="9171"></path></svg>