<svg class="icon" viewBox="0 0 1024 1024" xmlns="http://www.w3.org/2000/svg" width="200" height="200"><path d="M337.369 341.858c-17.723 0-35.486 11.816-35.486 29.539 0 17.802 17.723 29.617 35.486 29.617s29.617-11.815 29.617-29.578c0-18.51-11.816-29.617-29.617-29.617zM577.85 513.497c-11.815 0-22.922 12.563-22.922 23.63 0 12.603 11.816 23.71 22.922 23.71 17.723 0 29.578-11.815 29.578-23.67 0-11.816-11.815-23.67-29.578-23.67zm-76.21-112.483c17.724 0 29.579-12.603 29.579-29.578 0-17.762-11.816-29.617-29.578-29.617-17.723 0-35.525 11.815-35.525 29.617 0 17.723 17.762 29.578 35.525 29.578zM706.6 513.497c-11.815 0-22.96 12.563-22.96 23.63 0 12.603 11.854 23.71 22.96 23.71 17.723 0 29.578-11.815 29.578-23.67 0-11.816-11.815-23.67-29.578-23.67z" fill="#28C445"/><path d="M510.503 2.954C228.628 2.954 0 231.582 0 513.497 0 795.372 228.628 1024 510.503 1024c281.915 0 510.543-228.628 510.543-510.503 0-281.915-228.628-510.543-510.543-510.543zM413.617 644.45c-29.617 0-53.287-5.907-81.408-12.603l-81.408 41.433 22.961-71.759c-58.446-41.432-93.971-95.429-93.971-159.823 0-113.19 105.787-201.964 233.787-201.964 114.688 0 216.064 71.01 236.032 166.479a223.586 223.586 0 0 0-22.174-1.497c-110.986 1.497-198.301 85.071-198.301 188.653 0 17.053 2.954 33.319 7.404 49.624a238.631 238.631 0 0 1-22.961 1.457zm346.23 82.866 17.763 59.195-63.606-35.525c-22.962 5.908-46.632 11.815-70.302 11.815-111.734 0-199.759-76.918-199.759-172.386-.787-94.68 87.277-171.638 198.263-171.638 105.826 0 199.05 77.666 199.05 172.386 0 53.287-34.777 100.628-81.409 136.153z" fill="#28C445"/></svg>