<svg class="icon" viewBox="0 0 1024 1024" xmlns="http://www.w3.org/2000/svg" width="200" height="200"><path d="M592.427 770.347c-29.44 0-53.974 0-75.947 2.346-19.627-2.346-46.507-2.346-75.947-2.346-83.2 0-159.146 31.786-159.146 53.973 0 22.187 61.226 19.627 146.986 19.627 34.347 0 63.787-4.907 90.667-9.814 24.533 4.907 56.32 7.254 88.107 9.814 83.2 0 146.986 2.346 146.986-19.627-2.346-22.187-75.946-53.973-161.706-53.973z" fill="#FAAF08"/><path d="M803.2 542.507c-14.72-41.6-31.787-83.2-51.413-122.454 0-9.813 2.346-19.626 2.346-29.44-2.346-156.8-83.2-281.6-235.093-281.6-151.893 0-235.093 125.014-235.093 281.6v26.88a1749.333 1749.333 0 0 0-51.414 125.014c-31.786 85.76-34.346 164.053-21.973 168.96 7.253 4.906 36.693-26.88 66.133-75.947 19.627 115.2 95.574 200.747 242.56 200.747 146.987 0 225.28-85.76 242.56-200.747 26.88 49.067 56.32 78.293 63.787 73.387 11.733-2.134 9.387-80.64-22.4-166.4z"/><path d="M668.373 459.307c-44.16 7.253-95.573 12.16-151.893 12.16-53.973 0-105.387-4.907-149.333-12.16C337.707 496 335.36 549.973 335.36 611.2c0 112.64 63.787 200.747 183.68 200.747S702.72 721.28 702.72 611.2c-2.56-61.227-4.907-115.2-34.347-151.893zM580.267 202.24c-21.974 0-41.6 24.533-44.16 56.32-2.347 31.787 17.066 58.88 41.6 58.88 21.973 0 41.6-24.533 44.16-56.32 0-32-17.067-58.88-41.6-58.88zm-125.014 0c-21.973 0-41.6 26.88-39.253 58.88 0 31.787 19.627 58.88 41.6 56.32 21.973-2.347 39.253-26.88 39.253-58.88s-19.413-58.88-41.6-56.32z" fill="#FFF"/><path d="M519.04 336.853c-80.853 0-144.427 14.72-144.427 29.44 0 12.16 85.76 46.507 144.427 46.507 61.227 0 144.427-36.693 144.427-46.507 0-12.373-66.134-29.44-144.427-29.44z" fill="#FAAF08"/><path d="M751.787 420.053c-58.88 17.067-142.08 29.44-232.747 29.44-93.013 0-176.427-12.16-235.093-31.786-12.16 26.88-24.534 53.973-36.694 83.2 36.694 12.16 75.947 21.973 120.107 26.88v105.386s31.787 4.907 61.227 7.254c19.626 0 41.6-2.347 41.6-2.347V537.6h46.506c100.48 0 193.494-14.72 269.44-39.253-10.026-24.32-22.186-51.2-34.346-78.294z" fill="#E91F1F"/><path d="M602.24 256s-7.253-9.813-26.88-7.253c-17.067 2.346-24.533 12.16-26.88 14.72 0 0-4.907 4.906-2.347 9.813 2.347 2.347 9.814-2.347 9.814-2.347s7.253-9.813 19.626-9.813c9.814 0 17.067 4.907 17.067 4.907s4.907 4.906 7.253 0C604.8 260.907 602.24 256 602.24 256zm-134.613-14.72c-9.814 0-17.067 9.813-17.067 21.973 0 12.16 7.253 21.974 17.067 21.974s17.066-9.814 17.066-21.974-4.906-21.973-17.066-21.973z"/></svg>