<svg class="icon" viewBox="0 0 1024 1024" xmlns="http://www.w3.org/2000/svg" width="200" height="200"><path d="M989.568 336.16c0-222.112-145.536-287.232-145.536-287.232C770.656 15.232 644.608 1.056 513.76 0h-3.232c-130.912 1.056-256.864 15.232-330.24 48.928 0 0-145.536 65.12-145.536 287.232 0 50.848-.992 111.712.64 176.16 5.28 217.248 39.84 431.328 240.672 484.48 92.576 24.48 172.128 29.664 236.16 26.112 116.128-6.4 181.344-41.472 181.344-41.472l-3.84-84.256s-82.976 26.144-176.16 23.008c-92.384-3.168-189.824-9.952-204.768-123.36a226.208 226.208 0 0 1-2.048-30.944v-.896.032s90.656 22.176 205.536 27.424c70.24 3.2 136.096-4.128 203.008-12.064 128.288-15.328 240-94.368 254.048-166.624C991.392 500.064 989.6 336.128 989.6 336.128zm-171.68 286.272H711.36V361.344c0-55.04-23.168-82.944-69.472-82.944-51.2 0-76.896 33.12-76.896 98.656v142.88H459.04V376.992c0-65.536-25.696-98.656-76.896-98.656-46.304 0-69.472 27.936-69.472 82.944v261.088H206.144V353.44c0-55.008 13.984-98.688 42.112-130.976 29.024-32.352 66.944-48.896 114.08-48.896 54.528 0 95.84 20.96 123.136 62.88l26.496 44.512 26.528-44.512c27.296-41.952 68.608-62.88 123.136-62.88 47.104 0 85.088 16.544 114.08 48.896 28.064 32.288 42.08 76 42.08 130.976V622.4z" fill="#3088D4"/></svg>