<svg class="icon" viewBox="0 0 1024 1024" xmlns="http://www.w3.org/2000/svg" width="200" height="200"><path d="M1023.36 392.608c-1.376-4.224-5.408-9.504-14.24-11.008-8.832-1.536-313.632-60-313.632-60s-4.48-.928-8.448-2.976c-3.936-2.016-5.408-7.136-5.408-7.136S531.104 40.768 526.912 32.832c-4.224-7.968-10.464-10.144-14.88-10.144s-10.72 2.176-14.88 10.144c-4.192 7.936-154.72 278.656-154.72 278.656s-1.504 5.12-5.472 7.136c-3.936 2.016-8.416 2.976-8.416 2.976s-304.8 58.464-313.696 59.936C5.984 383.072 1.952 388.352.64 392.544a20.288 20.288 0 0 0 5.344 19.136l228.768 234.24s3.072 3.424 5.088 7.328c.672 4.448.224 8.96.224 8.96S189.344 971.2 188 980.064s3.2 15.744 6.784 18.336c3.552 2.656 9.952 4.512 17.952.544 8.064-3.968 290.656-139.136 290.656-139.136s4.192-1.888 8.576-2.592c4.384-.736 8.576 2.592 8.576 2.592S803.136 994.976 811.2 998.944c8.032 4 14.432 2.08 17.952-.544a19.712 19.712 0 0 0 6.752-18.464v.128c-.896-5.984-39.68-242.208-39.68-242.208 37.376-23.04 60.8-44.32 78.88-74.528-110.688 41.344-256.256 73.248-401.696 79.616-39.04 1.76-102.816 4.128-148.192-.64-28.928-3.04-49.92-6.144-53.024-18.688-2.272-9.184 2.304-19.616 23.264-35.456C57.632 860.32 97.344 830.176 137.088 800.032l280.448-203.84c54.816-41.312 151.84-105.376 151.84-116.512 0-12.16-91.488-33.312-172.256-33.312-82.976 0-97.056 5.632-119.936 7.168-20.832 1.44-32.8.224-34.304-5.888-2.56-10.592 7.808-16.608 25.088-24.224 30.24-13.408 79.36-25.344 84.64-26.72 8.288-2.208 131.488-34.336 239.712-22.816 56.224 5.984 138.4 28.512 138.4 54.432 0 14.592-73.44 63.744-137.6 110.816-49.024 35.968-94.592 66.592-94.592 72.032 0 14.592 150.752 52.96 285.408 43.104l.128-.928c2.048-3.936 5.088-7.328 5.088-7.328l228.768-234.24a20.32 20.32 0 0 0 5.408-19.296l.032.128z" fill="#FECE00"/></svg>