<svg xmlns="http://www.w3.org/2000/svg" viewBox="0 0 40 30"><g fill="none" fill-rule="evenodd"><path d="M2.715 20.11c0 4.203 5.6 7.613 12.506 7.613 6.907 0 12.506-3.41 12.506-7.613s-5.6-7.612-12.506-7.612c-6.907 0-12.506 3.409-12.506 7.612" fill="#fefefe"/><path d="M15.513 27.102c-6.114.59-11.39-2.111-11.788-6.035-.397-3.922 4.239-7.581 10.35-8.172 6.115-.591 11.39 2.11 11.789 6.032.395 3.924-4.238 7.584-10.35 8.175M27.74 14.078c-.521-.152-.878-.255-.604-.924.59-1.45.65-2.701.011-3.593-1.2-1.675-4.48-1.584-8.239-.045 0-.001-1.18.505-.878-.41.579-1.818.49-3.34-.409-4.219-2.039-1.995-7.464.075-12.115 4.62C2.023 12.914 0 16.523 0 19.643c0 5.97 7.831 9.598 15.492 9.598 10.043 0 16.724-5.702 16.724-10.231 0-2.737-2.358-4.29-4.476-4.932" fill="#d52c2b"/><path d="M34.409 3.154C31.984.526 28.405-.476 25.103.21c-.764.16-1.251.894-1.088 1.64.162.747.914 1.224 1.678 1.063 2.35-.487 4.891.226 6.617 2.093a6.687 6.687 0 0 1 1.452 6.647 1.373 1.373 0 0 0 .91 1.74c.743.235 1.54-.162 1.782-.888V12.5a9.393 9.393 0 0 0-2.045-9.346" fill="#e79115"/><path d="M30.684 6.44c-1.181-1.28-2.923-1.766-4.532-1.432a1.188 1.188 0 0 0-.935 1.413c.14.64.787 1.053 1.442.913v.002a2.366 2.366 0 0 1 2.217.698c.578.626.733 1.479.484 2.227h.002a1.187 1.187 0 0 0 .783 1.5c.64.199 1.326-.142 1.532-.768a4.57 4.57 0 0 0-.993-4.553" fill="#e79115"/><path d="M15.85 19.996c-.213.358-.686.53-1.057.38-.364-.146-.479-.545-.27-.897.212-.349.666-.52 1.03-.378.369.131.501.535.297.895m-1.947 2.445c-.593.921-1.859 1.325-2.812.9-.94-.418-1.217-1.49-.626-2.388.583-.897 1.808-1.295 2.754-.907.958.4 1.263 1.463.684 2.395m2.22-6.526c-2.909-.741-6.197.676-7.46 3.183-1.287 2.555-.042 5.392 2.897 6.32 3.043.96 6.632-.512 7.88-3.269 1.23-2.697-.306-5.474-3.317-6.234" fill="#060101"/></g></svg>