<svg class="icon" viewBox="0 0 1024 1024" xmlns="http://www.w3.org/2000/svg" width="200" height="200"><path d="M1024 512c0 281.6-230.4 512-512 512S0 793.6 0 512 230.4 0 512 0s512 230.4 512 512z" fill="#36AAE8"/><path d="m696.32 778.24 102.4-486.4c10.24-40.96-15.36-61.44-46.08-51.2l-604.16 230.4c-40.96 15.36-40.96 40.96-5.12 51.2l153.6 51.2 363.52-230.4c15.36-10.24 30.72-5.12 20.48 5.12L389.12 614.4l-10.24 158.72c15.36 0 25.6-5.12 30.72-15.36l76.8-71.68 158.72 117.76c25.6 15.36 46.08 5.12 51.2-25.6z" fill="#FFF"/></svg>