<svg class="icon" viewBox="0 0 1024 1024" xmlns="http://www.w3.org/2000/svg" width="200" height="200"><path d="M727.6 492.2c-34.8-6.7-17.9-25.1-17.9-25.1s34.1-55.5-6.8-95.9c-50.6-49.9-173.7 6.3-173.7 6.3-46.9 14.4-34.5-6.6-27.9-42.2 0-42-14.5-113-139.7-71.2-125.1 42.3-232.4 190.2-232.4 190.2-74.6 98.2-64.8 174.2-64.8 174.2C83 796.3 263.6 842.3 404.1 853.3c147.8 11.4 347.3-50.2 407.7-177 60.7-127-49.2-177.2-84.2-184.1zM415.1 806.1c-146.7 6.7-265.4-65.8-265.4-162.4 0-96.7 118.7-174.2 265.4-180.9 146.9-6.8 265.7 53 265.7 149.5 0 96.4-118.8 187.2-265.7 193.8z" fill="#E52429"/><path d="M799.5 433.1c12 0 22-8.7 23.8-20 .2-.9.3-1.6.3-2.5 18-159.9-132.8-132.3-132.8-132.3-13.3 0-24.1 10.6-24.1 24.1 0 13.2 10.7 23.8 24.1 23.8 108.3-23.6 84.5 83.3 84.5 83.3-.1 13 10.8 23.6 24.2 23.6z" fill="#F49500"/><path d="M782 154.1c-52.1-12.1-105.8-1.6-120.8 1.2-1.2.2-2.3 1.2-3.3 1.3-.5.2-.9.6-.9.6-14.8 4.2-25.6 17.6-25.6 33.6 0 19 15.6 34.7 35.1 34.7 0 0 18.9-2.5 31.8-7.5 12.7-5.1 120.8-3.7 174.4 85.1 29.2 64.9 12.9 108.3 10.8 115.3 0 0-7 16.9-7 33.5 0 19.1 15.6 31.3 35.1 31.3 16.2 0 29.8-2.2 33.8-29.3h.2c57.7-189.4-70.4-278.4-163.6-299.8z" fill="#F49500"/><path d="M385.9 526.3c-147.6 17-130.5 153.4-130.5 153.4s-1.5 43.2 39.5 65.2c86.3 46.2 175.3 18.2 220.1-39 45-57.1 18.7-196.5-129.1-179.6z"/><path d="M348.7 717.8c-27.6 3.1-49.8-12.6-49.8-35.3 0-22.6 19.7-46.4 47.2-49.2 31.6-3 52.2 15 52.2 37.8.2 22.7-22.2 43.6-49.6 46.7zm87-73.1c-9.4 6.9-20.9 6-25.7-2.4-5.1-8.1-3.2-20.9 6.2-27.7 10.9-8.1 22.3-5.7 27.3 2.4 4.8 8.1 1.3 20.5-7.8 27.7z" fill="#FFF"/></svg>