<svg class="icon" viewBox="0 0 1024 1024" xmlns="http://www.w3.org/2000/svg" width="200" height="200"><path d="m511.68 975.36 188.48-580.096H323.2z" fill="#E24329"/><path d="M511.68 975.36 323.168 395.264H59.104z" fill="#FC6D26"/><path d="M59.104 395.264 1.92 571.648a39.043 39.043 0 0 0 14.208 43.68L511.68 975.36 59.104 395.264z" fill="#FCA326"/><path d="M59.104 395.264h264.064L209.856 45.952a19.488 19.488 0 0 0-37.088 0L59.104 395.264z" fill="#E24329"/><path d="m511.68 975.36 188.48-580.096h264.096z" fill="#FC6D26"/><path d="m964.256 395.264 57.152 176.384c5.216 15.936-.32 33.6-14.208 43.68L511.68 975.36l452.576-580.096z" fill="#FCA326"/><path d="M964.256 395.264H700.16L813.824 45.952a19.488 19.488 0 0 1 37.088 0l113.28 349.312z" fill="#E24329"/></svg>