<svg class="icon" viewBox="0 0 1024 1024" xmlns="http://www.w3.org/2000/svg" width="200" height="200"><path d="m641.835 887.296-407.702.213-.042-86.357 407.68-.213.064 86.357zm275.498-488.981L847.573 0l-85.76 14.763 69.739 398.293 85.781-14.72zM651.648 690.24l-405.973-37.099-8 85.995 405.973 37.056 8-85.973zm26.773-112.683-393.706-104.96-22.614 83.414L655.83 660.949l22.592-83.392zm51.414-98.773-351.19-205.376-44.245 74.368 351.19 205.376 44.223-74.347zm86.101-60.459L586.219 84.31l-71.936 48.64L744 466.944l71.936-48.64z" fill="#FF810F"/><path d="M711.083 603.264v352.981H176.32V603.264h-69.653V1024h673.706V603.264z" fill="#BEBCBC"/></svg>