<svg class="icon" viewBox="0 0 1024 1024" xmlns="http://www.w3.org/2000/svg" width="200" height="200"><path d="M960 512a435.2 435.2 0 0 1-85.76 263.36 440 440 0 0 1-220.48 161.92 26.88 26.88 0 0 1-23.04-4.16 22.72 22.72 0 0 1-7.04-17.6V792.64a104.64 104.64 0 0 0-30.4-82.88 416 416 0 0 0 59.52-10.24 218.24 218.24 0 0 0 54.72-23.04 164.8 164.8 0 0 0 47.04-38.4 184 184 0 0 0 32-61.44 293.76 293.76 0 0 0 12.16-88 168.64 168.64 0 0 0-46.4-120 154.88 154.88 0 0 0-4.48-119.04 76.48 76.48 0 0 0-47.04 6.4 300.48 300.48 0 0 0-53.76 25.6l-22.08 13.76a416 416 0 0 0-224 0c-6.4-4.48-14.4-9.28-24.64-15.68A326.08 326.08 0 0 0 326.4 256a82.88 82.88 0 0 0-50.24-8A156.8 156.8 0 0 0 272 368a173.76 173.76 0 0 0-46.08 120.64A288 288 0 0 0 238.08 576a196.48 196.48 0 0 0 32 61.44 152 152 0 0 0 47.04 39.04 267.84 267.84 0 0 0 54.72 23.04 414.08 414.08 0 0 0 59.84 10.24 92.48 92.48 0 0 0-28.8 60.16 99.2 99.2 0 0 1-26.56 8.32 167.36 167.36 0 0 1-32 2.88A69.12 69.12 0 0 1 303.36 768a109.44 109.44 0 0 1-32-36.48 96 96 0 0 0-28.16-30.4 80.64 80.64 0 0 0-28.8-14.08h-11.52a41.6 41.6 0 0 0-16.96 2.56q-4.8 2.88-2.88 6.72a44.16 44.16 0 0 0 5.44 8 55.36 55.36 0 0 0 7.68 7.36l4.16 2.56a78.08 78.08 0 0 1 25.6 22.08 157.76 157.76 0 0 1 18.24 29.44l5.76 13.44a72.32 72.32 0 0 0 25.6 36.16A96 96 0 0 0 314.24 832a196.16 196.16 0 0 0 40.32 4.16 182.08 182.08 0 0 0 32-2.24l13.44-2.24v83.84a23.04 23.04 0 0 1-7.68 17.6 27.84 27.84 0 0 1-23.36 4.16 438.08 438.08 0 0 1-219.2-162.88A427.84 427.84 0 0 1 64 512a437.44 437.44 0 0 1 60.16-224A443.52 443.52 0 0 1 288 124.16 437.44 437.44 0 0 1 512 64a437.44 437.44 0 0 1 224 60.16A443.52 443.52 0 0 1 899.84 288 436.8 436.8 0 0 1 960 512z"/></svg>