<svg class="icon" viewBox="0 0 1024 1024" xmlns="http://www.w3.org/2000/svg" width="200" height="200"><path d="M70.13 125.364h883.737v828.503H70.131z" fill="#1296db"/><path d="M513.159 1174.801c-268.49.663-510.524-161.06-613.258-408.949s-46.452-532.948 143.165-722.51S518.406-203.22 765.742-99.823a663.079 663.079 0 0 1 409.06 613.092c0 365.26-295.666 660.87-661.643 661.532zm145.816-956.479-20.547 2.651c-12.593 2.652-25.186 6.628-37.116 11.268a164.817 164.817 0 0 0-94.118 112.014c-6.628 25.849-6.628 53.024 0 78.21-25.187 0-50.373-3.314-74.234-9.942a487.712 487.712 0 0 1-202.873-98.757 305.718 305.718 0 0 1-49.103-48.385 135.267 135.267 0 0 1-15.244-17.896 185.419 185.419 0 0 0-17.896 43.083 172.66 172.66 0 0 0 37.117 151.781c8.617 10.605 21.873 17.233 30.489 26.513a43.8 43.8 0 0 1-22.535-1.989 163.16 163.16 0 0 1-35.129-9.942l-17.895-6.628a159.956 159.956 0 0 0 78.21 143.165c15.907 11.93 34.466 19.222 54.35 21.873-10.605 9.28-57.664 5.302-74.234 3.314 16.57 50.373 55.676 89.478 105.441 106.711 15.907 5.965 32.477 8.616 49.047 8.616a218.172 218.172 0 0 1-45.07 29.164 358.797 358.797 0 0 1-99.42 36.454c-15.245 3.314-31.152 2.651-48.385 5.302a236.952 236.952 0 0 1-53.024-1.988l14.581 8.616c15.245 9.28 30.49 17.233 47.06 23.861 31.814 13.256 64.291 23.861 97.431 31.815 78.21 16.57 159.79 13.919 236.676-7.954 173.71-54.35 283.735-181.608 325.546-369.18 6.628-35.13 9.28-71.583 7.954-107.375l26.512-21.872a278.1 278.1 0 0 0 56.338-64.955 330.849 330.849 0 0 1-94.118 25.85c6.628-3.315 12.594-7.954 18.559-13.257 25.186-20.547 43.745-47.721 53.687-78.21l-20.547 11.267a269.208 269.208 0 0 1-86.164 28.5 167.358 167.358 0 0 0-130.628-52.36v.662h-.718z" fill="#fff"/></svg>