<svg class="icon" viewBox="0 0 1024 1024" xmlns="http://www.w3.org/2000/svg" width="200" height="200"><path d="M157.515 0h708.97A157.415 157.415 0 0 1 1024 156.411v711.178a157.415 157.415 0 0 1-157.515 156.41h-708.97A157.415 157.415 0 0 1 0 867.59V156.41A157.415 157.415 0 0 1 157.515 0z" fill="#42BD56"/><path d="M171.169 159.523h682.164v76.298H171.17zM793.098 616.91V316.235H230.902v299.872l562.196.803zM312.62 393.437h400.163V540.51H312.621zm359.404 395.545a894.494 894.494 0 0 0 69.07-130.51l-82.02-30.118a1059.94 1059.94 0 0 1-73.89 160.628h-143.46a750.732 750.732 0 0 0-80.313-160.628l-75.596 30.118a1176.897 1176.897 0 0 1 75.596 130.51h-209.62v75.495h720.415v-75.495z" fill="#FFF"/></svg>