<svg class="icon" viewBox="0 0 1024 1024" xmlns="http://www.w3.org/2000/svg" width="200" height="200"><path d="M579.584 511.488c-11.776 0-23.552 10.752-23.552 24.064 0 10.752 11.776 21.504 23.552 21.504 17.408 0 30.208-10.752 30.208-21.504 0-13.312-12.8-24.064-30.208-24.064zm-76.8-171.008c-17.408 0-34.304 10.752-34.304 29.184 0 17.408 16.896 29.184 34.304 29.184 18.432 0 30.208-11.776 30.208-29.184 0-18.432-11.776-29.184-30.208-29.184zm-164.864 0c-17.408 0-35.84 10.752-35.84 29.184 0 17.408 18.432 29.184 35.84 29.184 16.384 0 30.208-11.776 30.208-29.184-.512-18.432-13.824-29.184-30.208-29.184zm164.864 0c-17.408 0-34.304 10.752-34.304 29.184 0 17.408 16.896 29.184 34.304 29.184 18.432 0 30.208-11.776 30.208-29.184 0-18.432-11.776-29.184-30.208-29.184zm76.8 171.008c-11.776 0-23.552 10.752-23.552 24.064 0 10.752 11.776 21.504 23.552 21.504 17.408 0 30.208-10.752 30.208-21.504 0-13.312-12.8-24.064-30.208-24.064zm131.072 0c-12.288 0-23.552 10.752-23.552 24.064 0 10.752 10.752 21.504 23.552 21.504 16.896 0 29.184-10.752 29.184-21.504 0-13.312-12.8-24.064-29.184-24.064zm0 0c-12.288 0-23.552 10.752-23.552 24.064 0 10.752 10.752 21.504 23.552 21.504 16.896 0 29.184-10.752 29.184-21.504 0-13.312-12.8-24.064-29.184-24.064zm-131.072 0c-11.776 0-23.552 10.752-23.552 24.064 0 10.752 11.776 21.504 23.552 21.504 17.408 0 30.208-10.752 30.208-21.504 0-13.312-12.8-24.064-30.208-24.064zm-76.8-171.008c-17.408 0-34.304 10.752-34.304 29.184 0 17.408 16.896 29.184 34.304 29.184 18.432 0 30.208-11.776 30.208-29.184 0-18.432-11.776-29.184-30.208-29.184zm-164.864 0c-17.408 0-35.84 10.752-35.84 29.184 0 17.408 18.432 29.184 35.84 29.184 16.384 0 30.208-11.776 30.208-29.184-.512-18.432-13.824-29.184-30.208-29.184zM512 0C229.376 0 0 229.376 0 512s229.376 512 512 512 512-229.376 512-512S794.624 0 512 0zm-75.776 641.024c-6.656 1.024-14.336 1.024-20.992 1.024-30.72 0-53.248-5.12-82.432-13.312l-84.48 41.984 24.064-71.68c-59.392-41.984-94.208-94.208-94.208-158.72 0-113.664 107.008-200.192 236.544-200.192 115.2 0 217.6 68.096 237.568 164.864-8.192-1.536-15.872-2.56-22.528-2.56-113.664 0-200.704 84.992-200.704 187.392.512 18.432 3.072 34.304 7.168 51.2zM716.288 747.52c-24.064 5.12-47.616 12.288-71.68 12.288-111.616 0-200.192-76.8-200.192-172.032 0-95.232 88.576-171.52 200.192-171.52 105.984 0 200.704 76.8 200.704 171.52 0 53.248-35.84 100.864-82.432 135.168l16.896 59.904-63.488-35.328zm-5.632-236.032c-12.288 0-23.552 10.752-23.552 24.064 0 10.752 10.752 21.504 23.552 21.504 16.896 0 29.184-10.752 29.184-21.504 0-13.312-12.8-24.064-29.184-24.064zm-131.072 0c-11.776 0-23.552 10.752-23.552 24.064 0 10.752 11.776 21.504 23.552 21.504 17.408 0 30.208-10.752 30.208-21.504 0-13.312-12.8-24.064-30.208-24.064zm-46.592-141.824c0-18.432-11.776-29.184-30.208-29.184-17.408 0-34.304 10.752-34.304 29.184 0 17.408 16.896 29.184 34.304 29.184 18.432 0 30.208-11.776 30.208-29.184zM337.92 340.48c-17.408 0-35.84 10.752-35.84 29.184 0 17.408 18.432 29.184 35.84 29.184 16.384 0 30.208-11.776 30.208-29.184-.512-18.432-13.824-29.184-30.208-29.184zm0 0c-17.408 0-35.84 10.752-35.84 29.184 0 17.408 18.432 29.184 35.84 29.184 16.384 0 30.208-11.776 30.208-29.184-.512-18.432-13.824-29.184-30.208-29.184zm164.864 0c-17.408 0-34.304 10.752-34.304 29.184 0 17.408 16.896 29.184 34.304 29.184 18.432 0 30.208-11.776 30.208-29.184 0-18.432-11.776-29.184-30.208-29.184zm76.8 171.008c-11.776 0-23.552 10.752-23.552 24.064 0 10.752 11.776 21.504 23.552 21.504 17.408 0 30.208-10.752 30.208-21.504 0-13.312-12.8-24.064-30.208-24.064zm131.072 0c-12.288 0-23.552 10.752-23.552 24.064 0 10.752 10.752 21.504 23.552 21.504 16.896 0 29.184-10.752 29.184-21.504 0-13.312-12.8-24.064-29.184-24.064zM337.92 340.48c-17.408 0-35.84 10.752-35.84 29.184 0 17.408 18.432 29.184 35.84 29.184 16.384 0 30.208-11.776 30.208-29.184-.512-18.432-13.824-29.184-30.208-29.184zm372.736 171.008c-12.288 0-23.552 10.752-23.552 24.064 0 10.752 10.752 21.504 23.552 21.504 16.896 0 29.184-10.752 29.184-21.504 0-13.312-12.8-24.064-29.184-24.064z" fill="#0AB70E"/><path d="M845.824 588.288c0-95.232-95.232-171.52-200.704-171.52-111.616 0-200.192 76.8-200.192 171.52 0 95.232 88.576 172.032 200.192 172.032 24.064 0 47.616-7.68 71.68-12.288l63.488 35.84-17.408-60.416c46.592-34.304 82.944-81.92 82.944-135.168zm-266.24-30.72c-11.776 0-23.552-10.752-23.552-21.504 0-13.312 11.776-24.064 23.552-24.064 17.408 0 30.208 10.752 30.208 24.064 0 10.752-12.8 21.504-30.208 21.504zm131.072 0c-12.288 0-23.552-10.752-23.552-21.504 0-13.312 10.752-24.064 23.552-24.064 16.896 0 29.184 10.752 29.184 24.064 0 10.752-12.8 21.504-29.184 21.504z" fill="#FFF"/><path d="M415.232 240.64c-130.048 0-236.544 86.528-236.544 200.192 0 64 34.816 116.736 94.208 158.72l-24.064 71.68 84.48-42.496c29.184 8.192 51.712 13.312 82.432 13.312 6.656 0 14.336 0 20.992-1.024-4.096-16.896-6.656-32.256-6.656-50.176 0-102.4 87.552-187.392 200.704-187.392 6.656 0 14.336 1.024 22.528 2.56-20.48-97.28-122.88-165.376-238.08-165.376zM337.92 398.848c-17.408 0-35.84-11.776-35.84-29.184 0-18.432 18.432-29.184 35.84-29.184 16.384 0 30.208 10.752 30.208 29.184-.512 17.408-13.824 29.184-30.208 29.184zm164.864 0c-17.408 0-34.304-11.776-34.304-29.184 0-18.432 16.896-29.184 34.304-29.184 18.432 0 30.208 10.752 30.208 29.184 0 17.408-11.776 29.184-30.208 29.184z" fill="#FFF"/></svg>