<svg class="icon" viewBox="0 0 1024 1024" xmlns="http://www.w3.org/2000/svg" width="200" height="200"><path d="M836.077 728.083c0 59.638-48.356 107.994-107.994 107.994H295.917c-59.638 0-107.994-48.356-107.994-107.994V295.917c0-59.638 48.356-107.994 107.994-107.994h432.166c59.638 0 107.994 48.356 107.994 107.994v432.166zM438.044 536.557h95.29c0-22.376-10.525-35.556-10.525-35.556H440.13c1.991-40.58 3.698-92.634 4.362-111.976h78.601s-.379-33.28-9.197-33.28h-138.24s8.344-43.52 19.437-62.767c0 0-41.244-2.276-55.372 52.812-14.127 54.992-35.176 88.272-37.451 94.435-2.276 6.068 12.136 2.845 18.204 0 6.068-2.844 33.565-12.8 41.624-51.2h42.761c.57 24.368 2.276 98.892 1.707 111.976h-87.988c-12.516 8.913-16.593 35.556-16.593 35.556h100.599c-4.172 27.78-11.568 63.62-21.903 82.584-16.308 30.056-24.936 57.552-83.816 104.96 0 0-9.576 7.016 20.196 4.456s57.932-10.24 77.463-49.304c10.146-20.29 20.67-46.08 28.824-72.154v.095l82.773 95.384s10.904-25.6 2.845-53.76l-61.44-68.836-20.765 15.455v.095c5.784-20.29 9.956-40.296 11.189-57.648.094-.474.094-.948.094-1.327zM553.15 348.729v330.145h34.702l14.222 39.727 60.207-39.727h75.852V348.73H553.15zm149.238 294.684h-39.443l-49.209 32.522-11.662-32.522h-12.231V385.517h112.45v257.896zm0 0" fill="#1B61DE"/></svg>