<?xml version="1.0" standalone="no"?><!DOCTYPE svg PUBLIC "-//W3C//DTD SVG 1.1//EN" "http://www.w3.org/Graphics/SVG/1.1/DTD/svg11.dtd"><svg t="1624437239487" class="icon" viewBox="0 0 1024 1024" version="1.1" xmlns="http://www.w3.org/2000/svg" p-id="9302" xmlns:xlink="http://www.w3.org/1999/xlink" width="200" height="200"><defs><style type="text/css"></style></defs><path d="M253.2 207.9c-46.2 53.3-66.4 123.8-55.5 193.8l27.4 141.9c63.1 24.4 66.9 98.2 75 167.3 47.4-10.4 146.9-15.6 211.8-15.6 65 0 171 5.3 218.4 15.6 8.5-68.9 4.8-142 66.7-166.6L826.2 401c10.8-69.4-9.5-139.9-55.5-193.2-46.1-53.3-113.1-83.9-183.9-83.9H437.1c-70.7 0-137.8 30.6-183.9 84z" fill="#FFB161" p-id="9303"></path><path d="M513.3 392.7l-38.8-38.8c-8.4-8.4-22.2-8.4-30.6 0-8.5 8.5-8.5 22.2 0 30.6l28 27.9-28 28c-8.5 8.4-8.5 22.2 0 30.6 4.2 4.2 9.8 6.3 15.3 6.3s11.1-2.1 15.3-6.3l38.8-38.8 38.8 38.8c4.2 4.2 9.8 6.3 15.3 6.3s11.1-2.1 15.3-6.3c8.5-8.4 8.5-22.2 0-30.6l-28-28 28-27.9c8.5-8.4 8.5-22.2 0-30.6-4.2-4.2-9.8-6.3-15.3-6.3s-11.1 2.1-15.3 6.3l-38.8 38.8z" fill="#FDDE80" p-id="9304"></path><path d="M866.1 471C783.9 471 717 535.1 717 613.9v77.2l-410 1.8v-77.2c0-75.5-58.8-136.6-133.9-143.9l-15.2-0.8c-51.4 0-93.2 40.1-93.2 89.3 0 5 0.5 10 1.4 14.8 4.4 25.6 20.2 48.1 43.5 61.6l9.7 4.8 2.7 1.3c10.9 5.2 17.2 14.3 17.2 24.6v71.4c0 54.9 37.2 101.5 88.6 118.2 5 24.5 28.2 42.9 56 42.9 25.2 0 46.4-15.2 53.9-36.2h348.8c7.6 21 28.7 36.2 53.9 36.2 27.9 0 51-18.6 56-43.1 51.3-16.8 88.3-63.4 88.3-118.1v-71.4l1.2-7.9c1.7-5.1 4.7-9.5 8.9-12.8l1.7-1 5.3-3c30.5-12.2 51.6-38.5 56.4-69.1l1-13.3c0.1-49-41.7-89.2-93.1-89.2z" fill="#FB952C" p-id="9305"></path></svg>