<?xml version="1.0" standalone="no"?><!DOCTYPE svg PUBLIC "-//W3C//DTD SVG 1.1//EN" "http://www.w3.org/Graphics/SVG/1.1/DTD/svg11.dtd"><svg t="1624437245115" class="icon" viewBox="0 0 1024 1024" version="1.1" xmlns="http://www.w3.org/2000/svg" p-id="9569" xmlns:xlink="http://www.w3.org/1999/xlink" width="200" height="200"><defs><style type="text/css"></style></defs><path d="M408.7 486.8c5-15.5-3.4-32.2-19-37.2-15.5-5-32.2 3.5-37.2 19s3.5 32.2 19 37.2 32.1-3.5 37.2-19zM448 607.9c-13.2-9.6-31.7-6.7-41.2 6.5-9.6 13.2-6.7 31.7 6.5 41.2 13.2 9.6 31.7 6.7 41.2-6.5 9.6-13.2 6.7-31.6-6.5-41.2zM511.7 412c16.3 0 29.5-13.2 29.5-29.5S528 353 511.7 353s-29.5 13.2-29.5 29.5c-0.1 16.3 13.1 29.5 29.5 29.5z m63.6 195.9c-13.2 9.6-16.1 28.1-6.5 41.2 9.6 13.2 28.1 16.1 41.3 6.5 13.2-9.6 16.1-28.1 6.5-41.2-9.6-13.2-28.1-16.1-41.3-6.5z m-35.6-96.8c-3.8-11.8-15-20.4-28.1-20.4-13.1 0-24.3 8.6-28.1 20.4-0.9 2.9-1.4 5.9-1.4 9.1 0 16.3 13.2 29.5 29.5 29.5s29.5-13.2 29.5-29.5c0.1-3.1-0.4-6.2-1.4-9.1z m74.9-24.3c5 15.5 21.7 24 37.2 19 15.5-5 24-21.7 19-37.2-5-15.5-21.7-24-37.2-19-15.5 5-24 21.7-19 37.2z m344.5-4.3c8.3 78.6-70.3 120.9-161.1 130.8 67.7 61.3 106.3 141.8 53.4 200.5-24.8 27.6-57.7 43.6-91.8 47.7-14.5 31.2-39.9 57.5-73.8 72.6-72.2 32.2-136.7-29.5-174.2-112.8-37.4 83.3-102 144.9-174.2 112.8-33.9-15.1-59.3-41.4-73.8-72.6-34.2-4.2-67-20.2-91.8-47.7-52.9-58.7-14.2-139.2 53.4-200.5-90.7-9.9-169.2-52.2-161-130.8 3.9-36.9 21-69.2 46.2-92.6-6.6-33.8-1.5-70 17-102.1 39.5-68.4 128-56.5 207.2-11.1C316 187.3 332 99.5 409.3 83.1c36.3-7.7 72.3-1.3 102.4 15.4 30.1-16.7 66.1-23.1 102.3-15.4 77.3 16.4 93.3 104.2 74.6 193.6 79.2-45.4 167.7-57.3 207.2 11.1 18.6 32.1 23.6 68.3 17 102.1 25.2 23.4 42.4 55.7 46.3 92.6z m0 0" fill="#FF8882" p-id="9570"></path><path d="M633.2 496.3l-9.1-28.1-97.7 31.8V397.2h-29.5v102.7l-97.7-31.8-9.1 28.1 97.7 31.7-60.4 83.1 23.9 17.4 60.4-83.1 60.4 83.1L596 611l-60.5-83 97.7-31.7z m0 0" fill="#FDDE80" p-id="9571"></path><path d="M541.2 520.3c0 16.3-13.2 29.5-29.5 29.5s-29.5-13.2-29.5-29.5 13.2-29.5 29.5-29.5c16.3-0.1 29.5 13.2 29.5 29.5z m0 0" fill="#FFC743" p-id="9572"></path><path d="M482.2 382.4a29.5 29.5 0 1 0 59 0 29.5 29.5 0 1 0-59 0Z" fill="#FF382E" p-id="9573"></path><path d="M380.6 477.7m-29.5 0a29.5 29.5 0 1 0 59 0 29.5 29.5 0 1 0-59 0Z" fill="#FF382E" p-id="9574"></path><path d="M430.6 602.2c-16.3 0-29.5 13.2-29.5 29.5s13.2 29.5 29.5 29.5 29.5-13.2 29.5-29.5c0.1-16.2-13.1-29.5-29.5-29.5zM592.7 602.2c-16.3 0-29.5 13.2-29.5 29.5s13.2 29.5 29.5 29.5 29.5-13.2 29.5-29.5c0-16.2-13.2-29.5-29.5-29.5z" fill="#FF382E" p-id="9575"></path><path d="M613.2 477.7a29.5 29.5 0 1 0 59 0 29.5 29.5 0 1 0-59 0Z" fill="#FF382E" p-id="9576"></path></svg>