<?xml version="1.0" standalone="no"?><!DOCTYPE svg PUBLIC "-//W3C//DTD SVG 1.1//EN" "http://www.w3.org/Graphics/SVG/1.1/DTD/svg11.dtd"><svg t="1527169520208" class="icon" style="" viewBox="0 0 1042 1024" version="1.1" xmlns="http://www.w3.org/2000/svg" p-id="2824" xmlns:xlink="http://www.w3.org/1999/xlink" width="203.515625" height="200"><defs><style type="text/css"></style></defs><path d="M94.115121 900.042105c-43.115789-43.115789-30.540351-132.940351 25.150878-240.729824C153.399332 754.526316 219.869507 835.368421 306.101086 887.466667c-95.214035 43.115789-174.259649 50.301754-211.985965 12.575438zM895.350209 98.807018c34.133333 34.133333 32.336842 95.214035 3.592983 174.259649-48.505263-75.452632-120.364912-132.940351-204.8-167.073685 89.824561-39.522807 163.480702-44.912281 201.207017-7.185964zM347.420385 445.529825c5.389474-97.010526 86.231579-174.259649 185.038596-174.25965s179.649123 77.249123 185.038597 174.25965H347.420385z m386.245614 116.771929h235.34035c1.796491-16.168421 1.796491-32.336842 1.796492-50.301754 0-80.842105-21.557895-154.498246-59.284211-219.17193 39.522807-102.4 37.726316-190.42807-14.37193-242.526316C848.641437 0 715.701086 8.982456 566.592314 75.452632c-10.778947 0-21.557895-1.796491-34.133333-1.796492-204.8 0-377.263158 141.922807-425.768421 332.350878 64.673684-82.638596 132.940351-141.922807 222.764912-185.038597-8.982456 7.185965-55.691228 55.691228-64.673684 62.877193C25.848455 522.778947-49.604177 833.57193 31.237928 914.414035c61.080702 61.080702 172.463158 50.301754 301.810527-10.778947 59.284211 30.540351 127.550877 46.708772 199.410526 46.708772 192.224561 0 355.705263-123.957895 414.989474-296.421053H710.311613C677.974771 715.003509 613.301086 754.526316 539.644946 754.526316s-136.533333-41.319298-170.666667-100.603509c-14.37193-26.947368-23.354386-59.284211-23.354386-91.621053h388.042106z" fill="#1ED67E" p-id="2825"></path></svg>