<?xml version="1.0" standalone="no"?><!DOCTYPE svg PUBLIC "-//W3C//DTD SVG 1.1//EN" "http://www.w3.org/Graphics/SVG/1.1/DTD/svg11.dtd"><svg t="1515483725599" class="icon" style="" viewBox="0 0 1024 1024" version="1.1" xmlns="http://www.w3.org/2000/svg" p-id="7450" xmlns:xlink="http://www.w3.org/1999/xlink" width="200" height="200"><defs><style type="text/css"></style></defs><path d="M462.933333 40.533333H512l17.066667 2.133334c-19.2 51.2-34.133333 102.4-38.4 157.866666h4.266666c2.133333-4.266667 4.266667-6.4 6.4-12.8 25.6-36.266667 53.333333-66.133333 98.133334-83.2 64-25.6 125.866667-10.666667 181.333333 25.6 68.266667 42.666667 113.066667 102.4 145.066667 177.066667 12.8 27.733333 19.2 53.333333 29.866666 83.2-42.666667-2.133333-81.066667-2.133333-117.333333 4.266667 2.133333 2.133333 6.4 2.133333 10.666667 4.266666 19.2 12.8 44.8 19.2 61.866666 34.133334 64 51.2 81.066667 123.733333 64 202.666666-17.066667 83.2-61.866667 147.2-123.733333 204.8-21.333333 19.2-44.8 34.133333-68.266667 53.333334-14.933333-61.866667-34.133333-113.066667-66.133333-164.266667-2.133333 2.133333-2.133333 4.266667-2.133333 4.266667 0 4.266667 0 6.4 2.133333 12.8 6.4 59.733333-2.133333 115.2-42.666667 162.133333-44.8 51.2-100.266667 70.4-164.266666 74.666667-102.4 2.133333-189.866667-38.4-268.8-102.4l-4.266667-4.266667c44.8-27.733333 83.2-59.733333 117.333333-98.133333-4.266667 0-10.666667 0-12.8 2.133333-44.8 19.2-91.733333 29.866667-140.8 14.933333-70.4-29.866667-110.933333-78.933333-134.4-142.933333-29.866667-70.4-29.866667-142.933333-14.933333-215.466667 6.4-29.866667 17.066667-59.733333 25.6-91.733333 44.8 36.266667 89.6 66.133333 138.666667 85.333333-2.133333-4.266667-4.266667-6.4-6.4-12.8-36.266667-44.8-57.6-93.866667-51.2-149.333333 4.266667-57.6 32-104.533333 76.8-142.933333 49.066667-44.8 108.8-66.133333 172.8-78.933334 19.2-2.133333 36.266667-4.266667 55.466666-6.4z m-49.066666 473.6c0 57.6 44.8 100.266667 100.266666 100.266667 57.6 0 100.266667-44.8 100.266667-100.266667s-44.8-100.266667-100.266667-100.266666c-57.6-2.133333-100.266667 40.533333-100.266666 100.266666z" p-id="7451" fill="#32cd32"></path></svg>