<?xml version="1.0" standalone="no"?><!DOCTYPE svg PUBLIC "-//W3C//DTD SVG 1.1//EN" "http://www.w3.org/Graphics/SVG/1.1/DTD/svg11.dtd"><svg t="1527169587210" class="icon" style="" viewBox="0 0 1024 1024" version="1.1" xmlns="http://www.w3.org/2000/svg" p-id="3921" xmlns:xlink="http://www.w3.org/1999/xlink" width="200" height="200"><defs><style type="text/css"></style></defs><path d="M217.858536 549.353609c99.945069-21.477332 86.333049-140.913544 83.31404-166.998836-4.899268-40.253446-52.22355-110.617529-116.496651-105.056198-80.877648 7.229731-92.688856 124.097137-92.688856 124.097137C81.049784 455.393591 118.178292 570.804459 217.858536 549.353609zM323.974035 757.029612c-2.939561 8.421445-9.454263 29.898777-3.839967 48.595443 11.149145 41.921846 47.562624 43.828588 47.562624 43.828588l52.355962 0 0-127.937104-56.037034 0C338.857217 729.06406 326.675253 748.661132 323.974035 757.029612zM403.315696 349.092715c55.242558 0 99.812657-63.505108 99.812657-142.078775 0-78.441255-44.570099-141.946363-99.812657-141.946363-55.083663 0-99.839139 63.505108-99.839139 141.946363C303.476556 285.561124 348.232032 349.092715 403.315696 349.092715zM641.04937 358.46753c73.753847 9.560193 121.210541-69.172369 130.61184-128.83751 9.613159-59.585693-38.002431-128.811027-90.225981-140.701684-52.32948-12.023069-117.661882 71.79414-123.593969 126.480565C550.717459 282.250808 567.401453 348.986785 641.04937 358.46753zM821.766157 709.202162c0 0-114.139706-88.319239-180.743269-183.709313-90.331911-140.754649-218.613288-83.472936-261.541469-11.917139-42.716321 71.555797-109.293403 116.814441-118.747666 128.784545-9.613159 11.811209-137.894535 81.063025-109.399333 207.54359 28.46872 126.401117 128.493237 123.991207 128.493237 123.991207s73.674399 7.256213 159.212972-11.864174c85.538573-18.987974 159.160007 4.71389 159.160007 4.71389s199.784209 66.894872 254.470634-61.889673C907.278248 776.017586 821.766157 709.202162 821.766157 709.202162zM479.929656 900.909199l-129.896811 0c-56.116482-11.175628-78.441255-49.495849-81.274886-55.984069-2.754183-6.620633-18.670184-37.419815-10.248739-89.749295 24.231515-78.414772 93.377402-84.082034 93.377402-84.082034l69.145887 0 0-84.98244 58.897147 0.900406L479.929656 900.909199zM721.874053 900.008793l-149.493884 0c-57.943776-14.936147-60.644994-56.089999-60.644994-56.089999l0-165.303954 60.644994-0.953371 0 148.540513c3.681072 15.810071 23.384074 18.723149 23.384074 18.723149l61.5454 0 0-166.31029 64.564409 0L721.874053 900.008793zM933.442988 458.62446c0-28.548168-23.701865-114.510461-111.67683-114.510461-88.107378 0-99.865622 81.11599-99.865622 138.477151 0 54.765873 4.634443 131.194455 114.060258 128.705097C945.439574 608.91282 933.442988 487.358006 933.442988 458.62446z" fill="#1296db" p-id="3922"></path></svg>