<?xml version="1.0" standalone="no"?><!DOCTYPE svg PUBLIC "-//W3C//DTD SVG 1.1//EN" "http://www.w3.org/Graphics/SVG/1.1/DTD/svg11.dtd"><svg t="1515483867491" class="icon" style="" viewBox="0 0 1024 1024" version="1.1" xmlns="http://www.w3.org/2000/svg" p-id="9583" xmlns:xlink="http://www.w3.org/1999/xlink" width="200" height="200"><defs><style type="text/css"></style></defs><path d="M350.818 37.665c60.767-21.263 125.757-28.873 189.946-25.413 174.617 7.427 339.659 116.326 417.428 272.484-16.202 3.604-32.804 2.293-49.261 2.476-118.183 0.255-236.367 0.619-354.549 0.801-42.271-6.736-86.617-3.787-126.484 12.525-60.147 23.556-108.935 74.238-130.271 135.222-21.335 59.165-15.91 126.594 12.67 182.445-72.090-126.521-146.4-251.767-219.437-377.706 60.767-94.081 153.646-167.263 259.959-202.834z" fill="#D94F42" p-id="9584"></path><path d="M28.636 380.454c13.143-49.552 34.553-96.848 62.223-139.956 73.036 125.938 147.347 251.185 219.437 377.706 24.722 46.567 65.827 84.323 114.652 104.348 63.351 26.469 138.718 22.028 198.393-12.015 29.455-16.165 53.958-39.831 74.42-66.265-69.578 122.807-140.101 245.068-209.97 367.694-105.731-4.442-209.388-44.346-291.308-111.229-97.612-78.862-164.022-195.407-180.515-319.925-8.156-66.737-5.57-135.441 12.67-200.358z" fill="#19A05E" p-id="9585"></path><path d="M427.895 300.538c39.868-16.311 84.213-19.261 126.484-12.525 64.116 12.889 122.37 53.375 154.774 110.391 44.346 75.003 40.123 175.418-11.396 245.869-20.462 26.433-44.965 50.098-74.42 66.265-59.675 34.043-135.041 38.484-198.393 12.015-48.825-20.025-89.93-57.781-114.652-104.348-28.581-55.852-34.006-123.28-12.67-182.445 21.335-60.985 70.124-111.666 130.271-135.222M481.308 332.65c-67.393 10.668-125.757 62.878-144.070 128.56-14.892 51.445-6.19 109.409 24.54 153.5 32.95 48.897 90.986 79.844 150.041 79.043 53.849 0.765 107.115-24.649 140.939-66.446 27.307-33.095 42.307-76.131 40.996-119.057-0.4-57.781-31.13-114.069-78.934-146.4-38.412-26.797-87.454-36.918-133.511-29.2z" fill="#F2F2F2" p-id="9586"></path><path d="M554.38 288.013c118.183-0.182 236.367-0.546 354.549-0.801 16.457-0.182 33.059 1.129 49.261-2.476 39.685 76.35 57.818 163.33 53.667 249.219-3.495 106.605-44.054 211.245-111.411 293.747-68.012 83.741-163.549 145.053-268.551 170.357-46.967 12.234-95.756 15.219-144.107 13.908 69.869-122.625 140.393-244.886 209.97-367.694 51.519-70.451 55.742-170.867 11.396-245.869-32.404-57.017-90.658-97.503-154.774-110.391z" fill="#FDCA41" p-id="9587"></path><path d="M481.308 332.65c46.058-7.718 95.1 2.403 133.511 29.2 47.805 32.331 78.534 88.62 78.934 146.4 1.311 42.926-13.69 85.962-40.996 119.057-33.824 41.797-87.090 67.211-140.939 66.446-59.055 0.801-117.091-30.146-150.041-79.043-30.73-44.091-39.43-102.054-24.54-153.5 18.314-65.682 76.677-117.892 144.070-128.56z" fill="#4B8BF5" p-id="9588"></path></svg>