<?xml version="1.0" encoding="iso-8859-1"?>
<!-- Generator: Adobe Illustrator 19.0.0, SVG Export Plug-In . SVG Version: 6.00 Build 0)  -->
<svg version="1.1" id="Layer_1" xmlns="http://www.w3.org/2000/svg" xmlns:xlink="http://www.w3.org/1999/xlink" x="0px" y="0px"
	 viewBox="0 0 512.001 512.001" style="enable-background:new 0 0 512.001 512.001;" xml:space="preserve">
<path style="fill:#E16B5A;" d="M255.333,0.048c0,0,150.936-6.78,230.932,144.636c-42.26,0-243.764,0-243.764,0
	s-46.036-1.512-85.28,54.244c-11.32,23.352-23.392,47.46-9.808,94.916C127.793,260.704,43.265,113.8,43.265,113.8
	S102.889,6.072,255.333,0.048z"/>
<path style="fill:#CC6152;" d="M255.333,0.048c-2.604,0.104-5.116,0.308-7.668,0.468c40.752,2.968,150.852,22.468,215.148,144.168
	c9.928,0,18.016,0,23.444,0C406.265-6.736,255.333,0.048,255.333,0.048z"/>
<path style="fill:#FFD464;" d="M478.409,384.488c0,0-69.6,133.852-240.968,127.268c21.14-36.524,121.912-210.704,121.912-210.704
	s24.328-39.044-4.4-100.844c-14.604-21.464-58.844-43.96-106.812-55.952c38.576-0.384,237.644,0.024,237.644,0.024
	S549.417,249.7,478.409,384.488z"/>
<path style="fill:#F2C95F;" d="M485.781,144.284c0,0-101.54-0.208-173.636-0.184c69.164,0.016,152.012,0.184,152.012,0.184
	s63.636,105.416-7.372,240.204c0,0-63.776,122.416-219.348,127.268l0,0c171.368,6.584,240.972-127.268,240.972-127.268
	C549.417,249.7,485.781,144.284,485.781,144.284z"/>
<path style="fill:#74B340;" d="M33.333,385.504c0,0-81.324-127.104,10.08-271.952c21.124,36.54,121.84,210.752,121.84,210.752
	s21.696,40.552,89.684,46.616c25.916-1.888,52.876-3.492,87.264-38.952c-18.96,33.532-104.172,180.028-104.172,180.028
	S114.757,514.292,33.333,385.504z"/>
<circle style="fill:#FFFFFF;" cx="254.721" cy="258.08" r="116"/>
<circle style="fill:#2995CC;" cx="254.681" cy="258.08" r="92"/>
<path style="fill:#268CBF;" d="M254.705,166.1c-1.832,0-3.644,0.068-5.444,0.172c48.272,2.82,86.552,42.848,86.552,91.824
	c0,48.984-38.28,89.016-86.552,91.836c1.804,0.1,3.616,0.172,5.444,0.172c50.804,0,92-41.196,92-92.008
	C346.705,207.292,305.509,166.1,254.705,166.1z"/>
<g>
</g>
<g>
</g>
<g>
</g>
<g>
</g>
<g>
</g>
<g>
</g>
<g>
</g>
<g>
</g>
<g>
</g>
<g>
</g>
<g>
</g>
<g>
</g>
<g>
</g>
<g>
</g>
<g>
</g>
</svg>
