<?xml version="1.0" standalone="no"?><!DOCTYPE svg PUBLIC "-//W3C//DTD SVG 1.1//EN" "http://www.w3.org/Graphics/SVG/1.1/DTD/svg11.dtd"><svg t="1515484313786" class="icon" style="" viewBox="0 0 1024 1024" version="1.1" xmlns="http://www.w3.org/2000/svg" p-id="12120" xmlns:xlink="http://www.w3.org/1999/xlink" width="200" height="200"><defs><style type="text/css"></style></defs><path d="M786.826276 448.843588c0.720408 23.836895-7.225565 35.396161-14.450107 56.350402l-13.000082 6.504134c-10.117428 20.945031 1.441838 13.000082-6.504134 29.620621-16.612353 14.450107-49.846268 46.232974-60.683081 49.124837-7.945973-0.720408 5.054109-9.386788 7.225565-13.000082-22.396079 15.170514-18.062378 23.116487-52.007491 31.782867l-0.720408-2.171456c-83.800591 39.72884-200.104457-38.288025-198.653409-144.474462-0.720408 6.504134-2.171456 5.054109-4.333702 7.225565-4.333702-54.178947 25.287943-109.079324 75.125001-131.47438 49.124837-24.558325 106.187461-14.450107 140.862191 18.062378-18.783809-25.287943-57.07081-52.016701-102.583376-49.124837-44.062542 0.720408-85.961814 28.900214-99.691513 59.233056-22.396079 14.450107-25.287943 54.899354-35.396161 62.845327-13.000082 97.521081 25.287943 140.141784 90.304725 189.987029 10.116405 6.504134 2.891863 7.945973 4.332678 13.000082-21.675672-10.117428-41.178865-25.287943-57.791218-44.062542 8.66638 13.000082 18.062378 25.278733 30.342052 34.674731-20.945031-7.225565-47.674812-49.124837-55.620785-51.287083 34.674731 62.845327 142.312216 110.529349 197.933001 86.692455-26.00835 0.720408-58.512648 0.720408-88.13327-10.117428-12.278651-6.504134-28.900214-19.504216-26.00835-21.675672 77.295434 28.170596 156.032706 21.675672 222.491327-31.782867 16.612353-13.000082 35.396161-35.396161 40.458457-35.396161-7.945973 11.558244 1.441838 5.774517-5.054109 15.891945 17.33276-26.728758-7.225565-10.837836 17.33276-46.232974l9.395998 12.278651c-3.612271-22.396079 28.170596-49.846268 24.558325-85.241406 7.225565-10.837836 7.945973 11.558244 0.720408 36.836977 10.837836-28.170596 2.891863-32.504298 5.774517-55.620785 2.891863 7.945973 6.504134 15.891945 8.66638 24.558325-7.225565-27.450189 6.504134-45.512566 10.117428-61.404512-3.612271-1.441838-10.837836 12.278651-12.278651-19.504216 0.720408-13.72049 4.333702-7.225565 5.054109-10.837836-2.171456-1.441838-9.386788-11.558244-13.729699-31.782867 2.891863-5.054109 7.945973 12.278651 12.278651 13.000082-2.171456-16.612353-7.225565-28.900214-7.225565-41.178865-12.278651-26.00835-4.333702 3.612271-14.450107-10.837836-13.729699-41.178865 10.837836-10.116405 12.278651-28.179806 20.224624 28.900214 31.782867 73.683163 36.836977 92.466971-4.333702-23.116487-10.116405-44.782949-18.062378-66.458621 5.774517 2.891863-10.117428-46.232974 7.945973-13.729699-19.504216-70.070892-81.629135-135.087675-138.699945-165.428703 7.225565 6.504134 15.891945 14.450107 13.000082 15.891945-28.900214-17.33276-23.836895-18.783809-27.450189-25.278733-23.116487-9.386788-24.558325 0.720408-40.458457 0-43.341111-23.116487-52.007491-20.954241-91.745541-35.396161l1.441838 8.66638c-28.891004-10.117428-33.224706 3.612271-65.016783 0-1.441838-1.450025 10.116405-5.783727 20.224624-7.225565-28.170596 3.612271-26.728758-5.054109-54.178947 1.441838 6.54916-5.03569 13.765515-7.927553 20.990057-12.261255-22.396079 1.441838-54.178947 13.729699-44.782949 2.891863-36.846186 16.612353-102.583376 39.72884-140.141784 74.40357l-0.720408-7.945973c-17.33276 20.224624-74.40357 61.404512-78.737272 87.412862l-4.333702 1.450025c-9.395998 14.450107-15.170514 31.782867-21.675672 46.954405-11.558244 19.504216-17.34197 7.225565-15.170514 10.837836-23.116487 46.232974-34.674731 84.520999-44.062542 116.303866 7.225565 10.117428 0 62.845327 2.891863 104.025215C140.290163 706.739263 296.322869 906.84372 466.805682 953.076694c25.278733 8.66638 62.124919 8.66638 93.907787 9.395998-37.566594-10.837836-41.900296-5.774517-78.737272-18.062378-26.00835-13.000082-31.782867-26.728758-50.566676-42.620703l7.945973 13.000082c-36.836977-13.000082-21.675672-16.612353-51.287083-25.287943l7.945973-10.837836c-11.558244-0.720408-31.06246-19.504216-36.836977-30.342052l-12.278651 0.720408c-15.891945-19.504216-23.836895-33.233915-23.116487-44.062542l-4.333702 7.945973c-5.054109-7.945973-57.07081-72.241324-30.342052-57.07081-5.054109-4.333702-11.558244-7.225565-18.783809-20.946055l5.783727-6.504134c-13.000082-16.612353-24.558325-38.288025-23.836895-45.512566 7.225565 9.386788 12.278651 11.558244 16.612353 13.008268-32.504298-81.629135-34.674731-4.333702-59.233056-83.07916l5.054109-0.720408c-4.333702-5.783727-6.504134-13.000082-10.116405-19.504216l2.891863-22.396079c-23.836895-27.450189-7.225565-117.024274-3.612271-166.150134 2.171456-19.504216 20.224624-41.178865 33.224706-74.40357l-7.945973-1.450025c15.170514-26.728758 88.13327-108.357893 122.078383-104.025215 15.891945-20.224624-3.612271 0-6.504134-5.054109 36.116569-37.566594 46.954405-26.728758 71.520917-33.233915 26.00835-15.170514-22.396079 5.783727-10.117428-5.774517 44.792159-11.558244 31.782867-26.00835 91.025133-31.782867 5.774517 2.891863-14.450107 5.054109-19.504216 9.395998 37.566594-18.062378 118.475322-13.729699 171.924651 10.837836 61.404512 28.170596 130.033565 113.412003 132.925429 192.878892l2.891863 0.720408c-1.441838 31.782867 5.054109 68.629054-6.504134 102.574167L786.826276 448.843588 786.826276 448.843588z" p-id="12121" fill="#d70a53"></path></svg>