<?xml version="1.0" standalone="no"?><!DOCTYPE svg PUBLIC "-//W3C//DTD SVG 1.1//EN" "http://www.w3.org/Graphics/SVG/1.1/DTD/svg11.dtd"><svg t="1515484364413" class="icon" style="" viewBox="0 0 1024 1024" version="1.1" xmlns="http://www.w3.org/2000/svg" p-id="12892" xmlns:xlink="http://www.w3.org/1999/xlink" width="200" height="200"><defs><style type="text/css"></style></defs><path d="M501.547101 0h14.795857c10.553898 1.367987 21.087795 3.734964 31.664692 3.939962C607.079077 5.076951 663.158533 19.394812 716.069019 44.599567c114.39489 54.489471 196.465093 139.360647 238.643684 260.332473 30.9517 88.774138 27.165736 181.007243 26.953738 272.915351-0.038 17.907826-10.085902 18.832817-24.034767 18.812817-193.141125-0.336997-386.28125-0.298997-579.417375-0.351996-12.843875-0.005-25.686751 0-37.667635 0-7.012932 33.479675 12.298881 84.305182 27.162737 107.935952 44.483568 70.727313 114.37289 96.87106 192.539131 105.839972 106.663965 12.243881 209.035971-2.417977 304.977039-53.344482 8.554917-4.541956 19.006816-5.504947 30.585703-8.683915 0 63.560383-0.620994 122.523811 0.379997 181.465238 0.293997 17.392831-5.913943 26.283745-21.346793 33.773672-66.074359 32.078689-136.145678 51.706498-208.554976 57.264444-101.558014 7.798924-201.96504 5.827943-296.777119-44.201571-96.747061-51.046504-164.378404-127.225765-194.292114-229.293774-50.976505-173.937312-3.527966-350.2536 169.934351-462.039515 14.234862-9.175911 29.930709-16.082844 44.946563-24.044766-27.259735 48.746527-51.053504 95.997068-53.51048 152.373521h362.225484c8.891914-82.4602-28.86572-176.942282-123.136805-205.546005-47.611538-14.44786-96.091067-13.339871-145.706586-6.509937-110.656926 15.229852-206.427996 60.426413-287.924205 135.558684-34.228668 31.558694-64.988369 66.881351-99.966029 103.233998 1.439986-12.850875 0.729993-23.64477 4.01996-33.036679 17.801827-50.817507 32.256687-103.421996 55.879458-151.46753C165.382365 126.635771 270.817341 48.113533 409.947991 14.928855 439.959699 7.770925 470.988398 4.864953 501.547101 0z" fill="#1296db" p-id="12893"></path></svg>