<?xml version="1.0" standalone="no"?><!DOCTYPE svg PUBLIC "-//W3C//DTD SVG 1.1//EN" "http://www.w3.org/Graphics/SVG/1.1/DTD/svg11.dtd"><svg t="1515484481908" class="icon" style="" viewBox="0 0 1024 1024" version="1.1" xmlns="http://www.w3.org/2000/svg" p-id="14154" xmlns:xlink="http://www.w3.org/1999/xlink" width="200" height="200"><defs><style type="text/css"></style></defs><path d="M515.046357 506.493163z m-491.726779 0c0 279.785743 220.161816 506.524184 491.726779 506.524184s491.757801-226.769463 491.757801-506.524184C1006.773136 226.769463 786.580298 0 515.046357 0S23.319578 226.769463 23.319578 506.493163" fill="#1370B3" p-id="14155"></path><path d="M23.319578 547.286848c0 257.232884 220.161816 465.76152 491.726779 465.761521s491.757801-208.528636 491.757801-465.761521S786.580298 81.525328 515.046357 81.525328 23.319578 290.053964 23.319578 547.286848z" fill="#1678BC" p-id="14156"></path><path d="M755.372352 118.844571L676.390813 89.963262l99.890242 88.350127-37.350264-2.264593-7.69341 15.759082c-18.799219-15.38682-41.538209-22.987164-68.092883-22.614903a36.109392 36.109392 0 0 0-25.220735 23.824754l5.98721 25.406866 76.406729 6.266406c5.98721 8.810195 18.054696 8.437933 18.054696 26.616717l28.602113-1.209851 19.822939-6.66969c21.932423 27.795546 38.405006 62.571 48.300965 105.443147l-22.459793 16.193387-6.111298 19.791918-0.527371 69.612951s-14.301056 14.70434-16.534627 10.175155c-2.140505-4.529185 0.651458-57.080138-7.631366-62.291803s-16.689736-5.614948-25.282779-1.054742c-8.562021-17.651412-20.102136-30.215247-35.178737-36.233479a177.13456 177.13456 0 0 0-15.417842-28.322916c-5.863123 1.458025-9.989024 4.249989-12.129529 9.058369a36.636763 36.636763 0 0 0-2.140505-26.058324l-35.20976-6.793777-24.63132-1.613134c-9.120413 2.667876-15.355798 9.492675-16.999955 22.025488l-13.773685 11.912377-8.282825 29.93605c-2.109483 7.879541 25.624019 20.443376 36.822894 17.527325 11.167853-2.947072 32.47984 28.850287 32.47984 28.850288l-5.614949 22.614902s-8.686108 15.914191-10.888657 12.563835l-20.939724-32.883123c-14.642296-8.71713-29.811964-7.228083-44.981631 0-3.536487 31.425098-4.436119 69.24069 0 84.906706 4.28101 15.759082 10.888657 22.583881 17.496303 20.319288 6.607646-2.109483 32.976189-22.614903 32.976189-22.614902s24.290081 65.642159 24.290081 69.147624c0 3.288312 36.171436 30.4324 38.373984 30.4324 2.171527 0 9.833915 3.474443 10.981722-4.529185 1.054742-7.910563-4.405098-22.614903-1.147807-24.879495 3.257291-2.295614 7.69341 2.233571 8.810195 13.587554 1.582113 16.0693 3.009116 49.200598 1.054742 56.552768-4.436119 16.999954-26.368542 40.762664-26.368542 40.762664s-6.576625 24.848473-3.226269 26.058324c3.226269 1.054742 14.301056 33.968887 18.737176 42.934191 4.28101 9.089392 77.988841 238.557752 224.101587 46.904983 89.311803-117.076327 109.010656-278.327718 59.282687-411.318236-31.642251-84.751597-107.273434-129.391988-159.328039-236.603378l-70.326453-36.698806z" fill="#10549A" p-id="14157"></path><path d="M128.049223 99.052653c0.651458 35.302825 15.697038 70.047257 52.675041 104.140231 42.06558-11.509093 81.773503-12.718944 119.278876-2.822985 42.561929-46.377612 88.132975-63.222458 135.751459-60.554582-33.224363 27.144088-57.235247 60.833778-69.302733 102.93038 4.932468 15.634994 14.239013 29.40868 34.123996 38.498072 33.224363 4.96349 70.202366 1.613134 106.559932 11.385006l-2.202549 28.353938c-22.459794 42.344777-69.58193 55.591091-107.707739 89.963261 5.708014 24.879495 3.350356 46.656809-2.202549 67.224272-14.02186-11.63318-28.540069-17.248129-43.864845-15.790103l-2.72992 1.737221c-46.718852 46.967027-7.259105 86.799037 66.448726 123.96317a111.895684 111.895684 0 0 0 58.258968-4.560206c38.932377-22.05651 135.59635-44.764478 153.775133 32.759036-8.934283 11.385006-22.490815 12.967118-37.350264 11.385005-5.056556 4.28101-14.828427 6.142319-19.760896 10.175156-57.11116 45.943307-116.145673 63.749828-185.200232 52.612997 13.246315 16.441562 29.191527 30.246269 47.773595 41.321056 38.436028 2.791963 60.213342 8.158737 62.695086 16.441562h-35.178737c64.618439 28.850287 127.871919 33.131298 188.953871 1.613134 0.434305 5.863123-3.350356 13.866751-8.810195 22.707968 20.35031-17.496303 38.932377-39.707922 60.461516-55.498025l3.319334 21.529139c35.209759-7.910563 64.12209-64.711505 85.713273-177.661931l14.239013 40.669599c13.990838-61.485236 13.649598-134.944892 7.166039-214.484825 17.124042 18.582067 33.999909 41.04186 43.337474 72.994329 2.822985-112.547142-29.098462-216.687373-107.645695-277.272976 17.310172-3.59853 43.647693 7.228083 94.523468 46.408634-28.291895-56.956051-77.523514-109.879266-146.174789-159.638256 93.87201 28.074742 178.344411 85.309989 243.862482 195.840713 0.651458-23.235339-53.481608-99.983308-103.954099-143.693044l2.854006-14.859449 59.468819 54.412263 3.226268-12.408726c77.895776 93.034421 94.120185 173.505008 95.423101 251.028522-1.954374 54.815546-9.492675 106.559932-27.950655 152.720392 33.472538-23.297383 48.425052-47.86666 32.728014-126.134698l11.943399-49.045488c17.124042 76.996143 18.054696 160.289715-22.304684 259.776673-19.481699 54.412262-67.224272 108.266132-100.882941 162.399198l43.027257-30.587509 46.439656-93.809966c4.436119 29.005396 2.295614 59.872102-14.70434 95.019817a366.367627 366.367627 0 0 1-134.293434 125.359152c-0.527371 14.083904-8.562021 29.129484-28.291895 45.47798-66.479748 51.496212-157.156511 72.994329-270.32409 66.820988l16.441561 15.821125c-45.13674 0.124087-89.653043-5.894145-133.145627-21.280965l26.089346 17.372216C186.835561 956.495601 26.297672 789.59824 23.567752 562.518559l-23.483513 43.058279c-0.899633-48.518118 16.472583-90.490632 24.538255-135.565329l3.908749-37.44333-16.875867 41.165948c7.910563-57.359335 19.853961-116.145673 63.718806-186.751323-5.490861-70.574628 12.967118-132.866431 52.675041-187.930151z" fill="#E36724" p-id="14158"></path><path d="M366.451866 242.745697c-15.852147 66.448726-10.516395 124.707694 30.742618 168.169256 8.313846-6.66969 15.572951-14.456165 25.561975-20.722572 23.607601-14.456165 52.178692-25.499931 82.145764-69.24069l2.202549-28.353938c-16.75178-6.173341-60.461516-8.810195-106.559932-11.385006-18.799219-8.282824-30.339334-21.094834-34.092974-38.46705z m-18.054696 221.340645c-94.864708-4.28101-123.528865 58.196924-109.413939 163.515984 2.202549-56.366637 89.156694-124.738715 89.280782-126.041632 1.054742-13.928795 8.065672-26.33752 20.133157-37.474352z m250.749325 164.074376c-20.226223-10.578439-49.448772-10.981722-90.986981 2.822986-92.413985 23.111252-168.293343 10.020046-231.763975-30.4324 10.516395 34.71341 38.80829 65.207854 103.302642 87.109254 34.496258 6.576625 68.89945 7.383192 103.023445-2.388679a180.112654 180.112654 0 0 0 55.56007-27.268175c20.412354-16.999954 40.607555-29.718898 60.864799-29.842986zM180.724264 203.161862l-97.718716 76.996143c14.394122-38.094788 34.248083-74.452354 72.404915-104.791689l25.313801 27.795546z" fill="#D5562C" p-id="14159"></path><path d="M367.227411 361.062897c-1.427003-4.529185 23.76271-14.580253 26.337521-14.70434 2.72992-0.124087 37.10209-6.266406 40.731642-4.529185l12.067486 5.614949c24.010884-9.213479 36.202457-17.651412 46.718852-29.936051l-0.651458 23.111251c-8.313846 13.370402-58.910425 44.516304-83.696855 59.49984-1.054742 0.527371-1.830287 2.140505-2.72992 2.791964-6.080276 4.312032-8.406912 7.755454-8.810195 8.034649-1.302916 0.899633-24.134972-32.386774-29.967073-49.883077z" fill="#F0B991" p-id="14160"></path><path d="M468.854875 284.594125l19.326591 8.56202 4.932468 24.321103-0.651458 23.111252 12.718944-20.84666c2.078462-8.127715 3.133203-16.441562 0.527371-25.530953a22.707968 22.707968 0 0 0-13.742664-6.700712l-23.111252-2.91605z" fill="#7E3430" p-id="14161"></path><path d="M226.667571 194.599841a218.610726 218.610726 0 0 1 73.335569 5.770058c40.886751-45.726154 86.799037-62.291803 135.751459-60.554582-29.06744 23.669644-53.85387 54.133066-68.527188 100.417613-12.843031 41.538209-10.237199 81.277154 0 119.868291 5.583927 17.527325 15.976234 34.496258 29.967073 50.813732 4.932468 24.165993 3.75364 46.532722-2.202549 67.224271-14.921493-12.718944-30.09116-17.930609-45.291849-14.983536-94.988795-5.490861-125.359152 56.180506-110.685833 164.446638-38.032744-99.17674-6.111297-173.132746 93.437705-219.54138-35.830196-54.660437-21.932423-133.269714-6.607647-183.400967-21.808335-16.131343-58.165902-24.414168-99.17674-30.060138z m400.243448 421.648501c-13.649598-51.154972-57.235247-64.432308-126.786155-44.516304-33.100276 18.582067-78.640299 24.165993-100.572722 7.786476-0.403284-0.310218-0.775545-0.68248-1.178829-0.837589-21.156877-11.074788-39.180552-22.459794-53.047302-38.715225-1.551091-1.892331-3.629552-3.226269-5.45984-4.808381l-6.607646 17.217107c-1.054742 39.863031 59.437796 73.924984 137.054375 60.027211 69.271711-12.439748 119.713182-8.437933 156.598119 3.846705z" fill="#FF9D00" p-id="14162"></path><path d="M759.157014 672.708044c14.176969-35.178737 23.390448-72.870242 30.370356-111.740575l14.239013 40.638576c13.122227-69.147624 14.735362-140.839037 7.166039-214.484824 18.551045 20.474397 34.651367 43.306453 43.337474 72.994329-0.651458-139.163859-41.165948-226.986615-107.583652-277.241955 22.304685-1.085764 52.302779 11.353984 94.461425 46.377613-34.403192-66.976097-87.450495-116.021586-146.174789-159.607235 77.244318 20.474397 158.118188 59.623927 243.862482 195.840714l-32.293708-86.612906-68.806385-71.908565 58.28999 53.35752 4.436119-11.416027c121.605512 149.307992 105.877452 278.172609 67.472446 403.748913l-208.77681 120.054422z" fill="#F5B044" p-id="14163"></path><path d="M875.736992 579.11523c49.790012-76.872056 63.594719-172.078004 42.934191-284.904343 76.841034 144.65472 77.058187 309.349533-30.742618 502.522371l-72.529002 45.198783 60.337429-262.816811z" fill="#FF9D00" p-id="14164"></path><path d="M715.447277 732.704233c37.350264-27.795546 59.406774-87.047211 73.583744-171.364503 20.629507 31.425098 26.368542 78.330081 17.62039 140.342688 32.169621-40.51449 40.235293-120.178509 47.246224-201.455662 53.047303 154.674766 20.319288 290.116008-68.837406 369.624918 4.932468-4.156923-47.060092-16.441562-29.718898-38.498072 38.591137-48.642205 50.007165-150.238647 39.894053-152.099955-37.257199 49.821034-60.740712 58.507142-79.788107 53.450586z" fill="#FF9D00" p-id="14165"></path><path d="M612.082592 831.353602c94.523468-24.290081 150.052516-72.870242 180.298785-137.023354-1.861309 88.629324-34.155018 156.132792-113.167579 191.311529-47.897681-12.99814-66.417704-31.890425-67.131206-54.288175z" fill="#FF9D00" p-id="14166"></path><path d="M771.844936 913.437323l-24.10395 24.352124 26.368542 0.496349c-32.169621 18.209805-66.479748 23.638623-101.131115 26.058324 24.507233-20.567463 57.886706-37.257199 98.866523-50.906797z" fill="#10549A" p-id="14167"></path></svg>