<?xml version="1.0" standalone="no"?><!DOCTYPE svg PUBLIC "-//W3C//DTD SVG 1.1//EN" "http://www.w3.org/Graphics/SVG/1.1/DTD/svg11.dtd"><svg t="1515484513090" class="icon" style="" viewBox="0 0 1062 1024" version="1.1" xmlns="http://www.w3.org/2000/svg" p-id="14839" xmlns:xlink="http://www.w3.org/1999/xlink" width="207.421875" height="200"><defs><style type="text/css"></style></defs><path d="M117.7856 433.024C177.344 235.648 307.84 94.8992 546.432 74.8288c16.3712-1.3824 39.3984-0.128 58.112-3.6224 16.1664-3.008 35.8656-14.2976 54.5024-21.696 75.648-30.1056 242.688-82.8416 326.9376-18.0992 73.1904 56.2432 59.712 193.0496 14.528 282.2144 36.1088 70.4512 62.784 168.64 47.232 278.592-211.968 8.4608-458.88 1.1776-664.7936 3.6096 6.8992 106.1632 75.8016 187.4816 178.0096 199.0016 99.904 11.264 168.96-43.3664 214.3232-104.9216h254.2848c-66.048 183.6544-233.984 326.0928-494.0416 307.5328-59.1488-4.224-105.1904-20.8896-156.2112-39.7952-85.1968 45.0816-273.728 112.064-348.7232 18.0864-56.9472-71.3344-20.352-201.1392 10.88-285.824 63.2576-171.4304 183.68-341.248 301.5168-437.7984 0.6912-2.9312 3.6608-3.5968 3.6352-7.232-93.1072 45.952-155.8656 122.1504-228.864 188.1472z m893.6448-267.7376C1007.9872 42.176 843.776 54.2208 757.12 103.7696c96.768 37.504 167.424 100.992 225.2288 177.28 12.544-38.7072 30.3232-70.7584 29.056-115.7632z m-628.4672 300.288h403.2384c-11.7248-251.6608-390.5792-231.3472-403.2384 0zM85.0944 907.008c20.224 111.424 181.4272 79.0144 254.2848 28.928-95.6544-51.84-155.2512-139.648-203.4304-238.784C113.5744 750.7456 71.744 833.408 85.0944 907.008z" fill="#40BCF4" p-id="14840"></path></svg>