<?xml version="1.0" standalone="no"?><!DOCTYPE svg PUBLIC "-//W3C//DTD SVG 1.1//EN" "http://www.w3.org/Graphics/SVG/1.1/DTD/svg11.dtd"><svg t="1515484668860" class="icon" style="" viewBox="0 0 1024 1024" version="1.1" xmlns="http://www.w3.org/2000/svg" p-id="17016" xmlns:xlink="http://www.w3.org/1999/xlink" width="200" height="200"><defs><style type="text/css"></style></defs><path d="M180.318766 49.752185c-1.667181 0.789717-4.036332 1.842674-5.264781 2.369152-9.037875 4.124079-16.847301 13.776178-20.269409 25.095458-1.842674 5.879006-1.842674 868.074722 0 873.953728 3.246615 10.880548 8.160411 17.373779 18.07575 23.954756l3.509854 2.369152 334.752356 0 334.752356 0 4.562811-3.071123c8.42365-5.615767 13.688432-12.986461 16.847301-23.340531 1.403942-4.387318 1.403942-869.390917 0-873.778235-1.754927-5.879006-6.054499-13.688432-9.125621-16.935047-4.124079-4.211825-11.231534-8.774636-16.671808-10.617309-4.124079-1.403942-24.656727-1.491688-331.242502-1.403942-295.266495 0-327.118423 0.175493-329.926307 1.403942zm609.837189 464.441474l0 389.59383-278.945673 0c-185.232562 0-279.033419-0.263239-279.296658-0.877464-0.175493-0.438732-0.175493-175.755955 0-389.59383l0.175493-388.716367 279.033419 0 279.033419 0 0 389.59383zm-273.066667 409.249015c10.003085 5.264781 11.582519 18.251243 2.89563 24.832219-3.334362 2.544644-4.387318 2.89563-9.213368 2.89563-5.001542 0-5.79126-0.263239-9.037875-3.071123-4.036332-3.422108-6.054499-9.037875-5.177035-13.863925 0.701971-3.86084 4.211825-8.511397 7.809426-10.441817 3.422108-1.842674 9.564353-2.018166 12.723222-0.350985z" p-id="17017"></path><path d="M572.983719 335.191088c-14.302656 2.544644-33.431362 12.810968-44.399657 23.954756-5.352528 5.440274-15.531105 19.918423-17.900257 25.621937-3.86084 9.301114-5.089289 14.916881-5.177035 24.393488-0.087746 11.143787 0.087746 11.407027 7.809426 10.705056 10.880548-1.052956 20.708141-4.82605 32.729392-12.547729 13.074207-8.335904 25.972922-25.358698 31.764182-42.030506 2.281405-6.75647 4.475064-21.67335 3.773093-26.060668-0.789717-5.089289-1.403942-5.352528-8.599143-4.036332z" p-id="17018"></path><path d="M442.241645 418.286889c-20.532648 1.667181-40.538817 10.266324-54.753728 23.428278-22.287575 20.883633-31.062211 38.345159-34.835304 69.407369-1.491688 12.635476-1.491688 18.777721-0.263239 30.097001 2.544644 23.340531 7.45844 42.732476 16.14533 62.738646 16.847301 39.310368 46.856555 76.690317 68.003428 84.762982 4.475064 1.667181 13.863925 3.509854 18.426735 3.597601 6.75647 0 16.14533-2.456898 26.762639-7.019709 13.161954-5.703513 23.252785-7.897172 36.063753-7.897172 12.28449 0 22.112082 2.018166 34.22108 7.107455 13.863925 5.79126 14.478149 5.966752 21.848843 6.931962 13.951671 1.842674 27.376864-2.544644 39.924593-13.074207 15.969837-13.425193 36.063753-40.363325 48.874722-65.634276 8.42365-16.584062 8.335904-15.706598 3.158869-17.988003-12.810968-5.528021-26.850386-17.022793-33.870094-27.727849-4.650557-7.019709-9.564353-17.198286-11.494773-23.867009-2.369152-8.072665-3.158869-22.375321-1.842674-31.764182 1.93042-12.723222 4.562811-19.830677 11.31928-30.36024 5.352528-8.248158 15.004627-17.724764 22.550814-22.287575 3.334362-1.93042 6.054499-4.124079 6.054499-4.913796 0-2.369152-16.057584-16.935047-24.130249-21.848843-17.988003-10.880548-35.800514-15.18012-55.806684-13.425193-10.705056 0.96521-13.951671 1.754927-29.746015 7.195201-17.900257 6.142245-21.059126 6.844216-31.676435 6.844216-10.705056 0-14.741388-0.789717-31.062211-6.229991-15.092374-5.089289-21.848843-6.75647-29.833762-7.370694-3.86084-0.263239-7.809426-0.614225-8.774636-0.789717-0.96521-0.087746-3.334362-0.087746-5.264781 0.087746z" p-id="17019"></path></svg>