<?xml version="1.0" standalone="no"?><!DOCTYPE svg PUBLIC "-//W3C//DTD SVG 1.1//EN" "http://www.w3.org/Graphics/SVG/1.1/DTD/svg11.dtd"><svg t="1515484711653" class="icon" style="" viewBox="0 0 1024 1024" version="1.1" xmlns="http://www.w3.org/2000/svg" p-id="18256" xmlns:xlink="http://www.w3.org/1999/xlink" width="200" height="200"><defs><style type="text/css"></style></defs><path d="M466.488889 616.296296c18.962963 0 26.548148-11.377778 49.303704-11.377777 22.755556 0 30.340741 11.377778 51.2 11.377777s34.133333-17.066667 47.407407-34.133333c15.17037-20.859259 20.859259-39.822222 20.859259-39.822222s-39.822222-15.17037-41.718518-56.888889c0-36.02963 32.237037-53.096296 32.237037-53.096296-17.066667-24.651852-45.511111-28.444444-54.992593-28.444445-24.651852-1.896296-45.511111 13.274074-58.785185 13.274074-11.377778 0-30.340741-13.274074-51.2-13.274074-26.548148 0-49.303704 13.274074-62.577778 36.02963-26.548148 43.614815-7.585185 108.088889 18.962963 142.222222 13.274074 15.17037 30.340741 34.133333 49.303704 34.133333z" p-id="18257"></path><path d="M714.903704 0H305.303704C257.896296 0 218.074074 37.925926 218.074074 85.333333v851.437037c0 47.407407 39.822222 85.333333 87.22963 85.333334h409.6c47.407407 0 87.22963-37.925926 87.229629-85.333334V85.333333c1.896296-47.407407-37.925926-85.333333-87.229629-85.333333zM441.837037 60.681481h166.874074V75.851852h-166.874074v-15.170371zM409.6 56.888889c5.688889 0 11.377778 5.688889 11.377778 11.377778s-5.688889 11.377778-11.377778 11.377777-11.377778-5.688889-11.377778-11.377777 5.688889-11.377778 11.377778-11.377778z m100.503704 929.185185c-22.755556 0-43.614815-18.962963-43.614815-41.718518 0-22.755556 18.962963-41.718519 43.614815-41.718519 22.755556 0 43.614815 18.962963 43.614815 41.718519 0 22.755556-18.962963 41.718519-43.614815 41.718518z m252.207407-121.362963H257.896296V132.740741h504.414815v731.97037z" p-id="18258"></path><path d="M570.785185 333.748148c-15.17037 0-34.133333 9.481481-45.511111 20.859259-9.481481 11.377778-18.962963 28.444444-17.066667 43.614815 17.066667 1.896296 34.133333-7.585185 45.511112-20.859259 13.274074-11.377778 18.962963-28.444444 17.066666-43.614815z" p-id="18259"></path></svg>