<?xml version="1.0" standalone="no"?><!DOCTYPE svg PUBLIC "-//W3C//DTD SVG 1.1//EN" "http://www.w3.org/Graphics/SVG/1.1/DTD/svg11.dtd"><svg t="1527169542792" class="icon" style="" viewBox="0 0 1026 1024" version="1.1" xmlns="http://www.w3.org/2000/svg" p-id="2975" xmlns:xlink="http://www.w3.org/1999/xlink" width="200.390625" height="200"><defs><style type="text/css"></style></defs><path d="M5.782106 570.057397c-0.262067-2.337801-0.499175-4.675602-0.723803-7.017563 0.232948 2.341961 0.457577 4.679762 0.723803 7.017563zM18.248992 387.330373zM638.885255 17.471111zM455.729773 5.178937zM653.436194 21.385472c1.37689 0.39102 2.75794 0.7862 4.13483 1.189699-1.37689-0.407659-2.75794-0.798679-4.13483-1.189699zM75.916138 776.807198l-1.173061-1.938462c0.38686 0.648927 0.78204 1.293694 1.173061 1.938462zM92.309863 802.244303zM444.477546 6.584945c1.264576-0.170551 2.524992-0.320304 3.789567-0.482535-1.264576 0.162232-2.524992 0.311984-3.789567 0.482535zM83.907091 789.611026c-1.048267-1.626477-2.092374-3.248795-3.124001-4.883591 1.031628 1.638957 2.079894 3.261274 3.124001 4.883591zM119.448323 187.69381c1.023308-1.235457 2.067415-2.462595 3.103202-3.693892-1.035787 1.231297-2.079894 2.454275-3.103202 3.693892zM268.867921 64.26873c2.017497-1.102344 4.039154-2.192208 6.064971-3.265434-2.034137 1.073225-4.047474 2.17141-6.064971 3.265434zM22.171672 372.775274c0.349422-1.227138 0.698844-2.454275 1.056586-3.677253-0.361902 1.222978-0.707164 2.450115-1.056586 3.677253zM282.878088 56.901745l2.142291-1.085705c-0.719643 0.357742-1.426807 0.723803-2.142291 1.085705zM857.906431 890.606528a512.735513 512.735513 0 0 0 105.234326-134.768824 722.655073 722.655073 0 0 1-21.098446 33.519575c-23.415449 36.95556-51.564736 71.099103-84.13588 101.249249zM171.682785 133.242181a512.01171 512.01171 0 0 1 93.329012-66.856119 508.359416 508.359416 0 0 0-138.3712 112.788502 515.368659 515.368659 0 0 1 45.042188-45.932383zM636.4185 16.851303A507.386025 507.386025 0 0 0 466.890485 4.026675a513.667306 513.667306 0 0 1 169.528015 12.824628zM17.512709 390.233906a507.539937 507.539937 0 0 0-12.862066 168.700216A514.095764 514.095764 0 0 1 17.512709 390.233906zM513.634027 1023.961023c51.855922-11.776361 98.512108-29.842322 139.698173-52.176226 67.521685-38.13694 127.863575-91.960441 167.672749-151.353899 29.164276-44.983951 45.79511-91.38639 49.035585-133.333696 1.139782-21.955363-1.455926-43.690257-8.44437-64.751266-16.152458-48.582168-59.780318-83.603426-150.101803-86.194974-9.309606-49.672033-32.953843-95.292432-72.188968-136.449378l-4.068273 3.660614c14.796367 21.42707 26.065234 46.701944 29.705049 75.583354 2.687223 18.810563 1.747111 37.816636-2.832816 57.00574-0.087356 0.420139-0.162232 0.831958-0.257907 1.256256l-0.033278 0.049917c-0.120634 0.495015-0.19967 0.98587-0.324464 1.480885a183.454986 183.454986 0 0 1-12.030107 16.818024c-0.370221 0.465896-0.748762 0.927633-1.127303 1.38937-1.726312 2.117332-3.515021 4.201386-5.353648 6.260481-0.59069 0.657247-1.160581 1.335292-1.76375 1.988379a185.588958 185.588958 0 0 1-7.217233 7.400263l-0.099835 0.103995 0.016639-0.024959c-22.679166 21.967842-52.958266 40.0962-93.104383 53.212013-1.821987 0.757081-3.648134 1.505843-5.441003 2.308683-29.397224 13.993528-53.777744 32.005412-73.70313 53.573914-25.079364 27.887221-44.347504 63.012474-58.17048 104.943141l-73.108281-58.133043 2.479234-11.19815 0.116474-1.060746c1.742951 0.253747 4.059953 0.291185 6.759656 0.112314 17.521029-2.820337 36.073685-9.097457 50.412475-19.825551 0.707164-0.557412 1.414328-1.123143 2.104853-1.705513l0.278706-0.237108c12.167381-10.441069 21.564343-25.183359 22.878836-45.329214 0.037438-0.578211 0.087356-1.148102 0.112314-1.730472 0.079036-1.705513 0.120634-3.377748 0.137273-5.020864 0-0.295345 0.016639-0.59069 0.01664-0.886035v-0.037438c-0.049917-11.738923-1.992539-23.831428-6.056652-35.154372l-275.806448 248.360164a515.980148 515.980148 0 0 1-40.08372-50.528949c119.51072 172.16948 338.290628 259.545835 552.340858 202.082518 1.052426-0.278706 2.088214-0.59901 3.13648-0.886035-2.762099 0.723803-5.524199 1.435127-8.302938 2.109013-39.792535 10.000131-82.280614 15.682402-127.281204 16.31885zM1018.877761 581.409459c-8.381974 60.662194-27.021985 116.182889-52.46325 168.259279 41.240142-78.832149 62.089001-168.521346 57.692104-260.62738 0.998349 30.903068-0.7862 61.831094-5.228854 92.368101zM667.920577 25.728291l0.116475 0.037438c-0.037438-0.016639-0.074876-0.024959-0.116475-0.037438zM965.424481 748.499838l-0.145593 0.291185c-0.19551 1.360251-0.357742 2.699703-0.561571 4.072433l0.012479-0.029119c0.249587-1.460086 0.461737-2.891053 0.694685-4.334499z" fill="#DF4E02" p-id="2976"></path><path d="M409.639318 606.513782c-2.936811-8.182304-6.992604-15.952788-12.250576-22.907955-8.069989-10.149884-17.516869-16.876261-25.528622-21.339714-18.581775-9.305447-43.611221-12.025948-76.132446-3.589897-23.818948 6.131528-42.920696 30.890588-47.16368 84.31059l-8.136546 1.884384-64.971735-57.425878 2.475074-23.698314 106.240995-93.740831-11.318784-12.500164c-5.070782-13.793858-3.893562-31.955494 2.475074-53.769424 74.992665-97.043703 152.343929-171.329203 232.407375-218.609358 9.550874 6.248002 21.22324 24.289004 35.017099 53.769424 3.772928-32.662658-0.116474-58.95668-18.748166-74.992664-14.975238-10.02093-31.601912 19.929546-48.698643 28.773256 32.662658-56.59808 45.632878-73.10828 92.442977-42.567114 60.608116-32.188442 133.837031-55.067278 218.380569-69.568301a507.897679 507.897679 0 0 0-118.092231-54.771933l-0.116475-0.037438c-3.440145-1.085705-6.88861-2.142291-10.349553-3.15312-1.37689-0.403499-2.75794-0.79452-4.13483-1.189699-2.129812-0.603169-4.255463-1.206339-6.393594-1.78039-2.712182-0.732123-5.432684-1.447606-8.157345-2.133971-0.819478-0.207989-1.643116-0.420139-2.466755-0.619809A513.667306 513.667306 0 0 0 466.890485 4.030835l-0.665566 0.066557c-3.502542 0.324463-7.000924 0.690525-10.499305 1.085704-2.487553 0.282866-4.975107 0.607329-7.458501 0.923473-1.264576 0.162232-2.524992 0.311984-3.789567 0.482536a508.367735 508.367735 0 0 0-159.457167 49.226935c-0.715484 0.357742-1.426807 0.723803-2.142291 1.085705a471.740799 471.740799 0 0 0-14.010167 7.366985c-1.285375 0.703004-2.574909 1.397689-3.856124 2.117332a512.698075 512.698075 0 0 0-93.329012 66.856119 515.988467 515.988467 0 0 0-45.046348 45.932383c-1.38521 1.597359-2.728821 3.215516-4.084912 4.825354-1.035787 1.227138-2.079894 2.454275-3.103202 3.693892A507.577375 507.577375 0 0 0 22.167512 372.775274a491.732742 491.732742 0 0 0-3.92268 14.555099c-0.245428 0.965071-0.495015 1.934302-0.732123 2.903533a513.871135 513.871135 0 0 0-12.862066 168.700216c0.120634 1.36857 0.270386 2.737141 0.4035 4.105712a508.405173 508.405173 0 0 0 69.684774 211.828902l1.173061 1.938462c1.601519 2.649785 3.215516 5.291251 4.871112 7.920237 1.031628 1.634797 2.075734 3.257114 3.124001 4.883591 1.060746 1.647276 2.117332 3.294552 3.203037 4.933509 1.709673 2.579069 3.444305 5.145658 5.199735 7.703928 0.482535 0.698844 0.952592 1.397689 1.439287 2.096533a514.861165 514.861165 0 0 0 40.083721 50.52895l275.806447-248.360164z" fill="#F5671B" p-id="2977"></path><path d="M419.065399 349.376464c-10.961042 18.635852-21.651698 37.271704-31.393923 55.849319 9.517596-17.625023 20.682468-36.718452 31.393923-55.849319zM611.405693 374.634699l0.865236 0.886035c2.504193 2.579069 4.970947 5.245493 7.391944 7.990954l0.869395 0.97755a211.575155 211.575155 0 0 1 14.696533 18.877119l4.068273-3.660613a372.163785 372.163785 0 0 0-36.522942-33.465498c2.907692 2.683063 5.790425 5.490921 8.631561 8.394453z" fill="#F5671B" p-id="2978"></path><path d="M661.493704 538.74667c0.124794-0.495015 0.20383-0.98587 0.324464-1.480885-0.033278 0.062397-0.074876 0.112314-0.103995 0.170551-0.087356 0.440938-0.133113 0.865236-0.220469 1.310334zM942.042311 789.353119c-36.323272 54.25196-76.515147 97.530398-120.005735 131.428513a495.027294 495.027294 0 0 0 35.869855-30.175104c32.571143-30.150146 60.720431-64.293689 84.13588-101.253409zM415.542058 647.612491c-0.029119 0.58237-0.074876 1.152261-0.112314 1.730472 0.024959-0.39518 0.079036-0.773721 0.099835-1.173061l0.012479-0.557411zM535.373081 628.202918c1.792869-0.798679 3.614856-1.551601 5.441003-2.308682-0.819478 0.266226-1.597359 0.553252-2.420996 0.815318-1.031628 0.474216-2.000858 1.002509-3.020007 1.493364zM662.105193 535.959611c4.579927-19.189104 5.515879-38.195177 2.832816-57.005739 2.229647 17.666621 1.597359 36.685174-2.832816 57.005739zM602.774132 366.236087c220.685092 35.532912 401.219907 108.062982 362.504756 382.550776l0.145593-0.291185c39.576226-244.204535-107.642843-345.595217-362.650349-382.259591zM653.3322 971.784797c-41.186065 22.333904-87.842251 40.399865-139.698173 52.176226 47.130402-8.531726 94.984607-26.91799 139.698173-52.176226zM339.750714 716.436189c12.450247-0.815319 33.586131-6.501749 50.412475-19.825551-14.33879 10.732254-32.891447 17.009375-50.412475 19.825551zM461.669951 681.772673c-26.843114 29.047802-45.699435 64.46424-58.17048 104.94314 13.822977-41.926507 33.091116-77.05176 58.17048-104.94314zM513.634027 1023.961023c45.00059-0.636448 87.488669-6.322878 127.293684-16.31469-40.849122 9.937734-83.362159 15.13747-127.293684 16.31469zM870.036374 687.101362c-3.240475 41.947306-19.871309 88.345585-49.035585 133.333696 28.710859-42.829181 46.710263-88.545255 49.035585-133.333696zM415.69181 641.705591c0 0.295345-0.016639 0.59069-0.016639 0.886035 0.00416-0.295345 0.016639-0.59485 0.016639-0.886035zM392.268042 694.909284l0.278706-0.237108-0.278706 0.237108z" fill="#FBF3EC" p-id="2979"></path><path d="M567.748714 150.101803c-46.810098-30.541166-59.780318-14.030966-92.442977 42.567114 17.09673-8.84371 33.723404-38.794186 48.698643-28.773256 18.631692 16.035984 22.521094 42.330006 18.748166 74.992665-13.793858-29.48042-25.466224-47.521422-35.017099-53.769425-80.063447 47.284314-157.414711 121.569815-232.407375 218.609358-6.368636 21.81393-7.545856 39.971406-2.475074 53.769424l11.318784 12.500164-106.240995 93.740831-2.475074 23.698314 64.971735 57.425879 8.136546-1.884385c4.247144-53.420002 23.344732-78.179062 47.16368-84.31059 32.521225-8.431891 57.550672-5.715549 76.132446 3.589897-6.272961-3.494222-11.664047-5.611554-14.817166-6.892769l34.551202-59.193788c58.486624-64.027462 128.762089-107.418215 211.184136-129.939309 151.636765-36.55206 293.131966-24.289004 416.702639 73.461862 6.231363 50.454073 5.515879 97.438882-0.60317 141.70735a524.212369 524.212369 0 0 0 5.228854-92.3681c-4.871112-150.813127-75.928617-300.91493-226.712625-401.190788a588.293909 588.293909 0 0 0-11.260547-7.317068c-84.547698 14.513502-157.772453 37.388178-218.384729 69.57662z m-180.077238 255.12814a635.82365 635.82365 0 0 0-16.718189 34.118584l-26.173389-8.136546-18.748166 5.661472c30.894748-38.31997 61.90597-66.976752 93.033667-87.492829-10.711455 19.126707-21.876327 38.220135-31.393923 55.849319z" fill="#FBF3EC" p-id="2980"></path><path d="M397.388742 583.605827c5.257972 6.955166 9.313766 14.725651 12.250576 22.907955 4.064113 11.327104 6.002575 23.415449 6.056652 35.154371 0.045758-26.560249-8.007593-45.104585-18.307228-58.062326z" fill="#FBF3EC" p-id="2981"></path><path d="M964.717317 752.859296c0.20383-1.36857 0.366061-2.708022 0.561571-4.072433 38.71931-274.487795-141.819664-347.022024-362.504756-382.550776a372.205383 372.205383 0 0 1 36.522942 33.465497c39.239284 41.156946 62.879361 86.773185 72.188967 136.449378 90.321485 2.591548 133.949345 37.612806 150.101803 86.194974 6.992604 21.061008 9.588312 42.795903 8.44437 64.751266-2.329481 44.792601-20.328886 90.504515-49.035585 133.333696-39.805015 59.389298-100.146905 113.21696-167.672749 151.353899-44.713565 25.254075-92.56777 43.644499-139.698172 52.176226 43.935685-1.17722 86.444562-6.376956 127.293683-16.31469 2.778739-0.673886 5.540838-1.38521 8.302938-2.109013 61.872692-16.127499 119.801905-43.453149 172.810088-84.759847 43.490587-33.893956 83.678303-77.176553 120.005734-131.428514a719.156691 719.156691 0 0 0 21.098446-33.519574c0.499175-0.840277 1.010829-1.643116 1.505844-2.487554 0.029119-0.158072 0.049917-0.316144 0.074876-0.482535z" fill="#DBA789" p-id="2982"></path><path d="M1019.476771 439.697949c-123.570673-97.750867-265.065874-110.013923-416.702639-73.461862 255.007506 36.664375 402.222416 138.055056 362.650349 382.259591-0.232948 1.447606-0.445097 2.874414-0.694685 4.334499l-0.083195 0.515814c0.607329-1.218818 1.164741-2.462595 1.76375-3.681413 25.441266-52.08055 44.085437-107.597086 52.463251-168.259279 6.119049-44.268468 6.834532-91.249117 0.603169-141.70735zM641.218896 565.198764zM648.336294 556.954063z" fill="#F0DBCB" p-id="2983"></path><path d="M611.405693 374.634699l0.865236 0.886035c-0.287025-0.295345-0.569891-0.59069-0.865236-0.886035zM620.536428 384.493398l-0.869395-0.977551 0.869395 0.977551zM649.463597 555.564694a183.454986 183.454986 0 0 0 12.030107-16.818024c0.087356-0.440938 0.133113-0.869396 0.220469-1.310334a145.272289 145.272289 0 0 1-12.250576 18.128358zM391.589997 496.179555l-34.551202 59.193789c3.15312 1.285375 8.544205 3.398547 14.817166 6.892769 8.011752 4.463453 17.458632 11.185671 25.528621 21.339714 10.303796 12.957741 18.357146 31.502077 18.303069 58.062326v0.037438c0 0.291185-0.012479 0.59485-0.01664 0.886035a138.354561 138.354561 0 0 1-0.137273 5.020865l-0.012479 0.557411c-0.020799 0.403499-0.074876 0.78204-0.099835 1.173061-1.314493 20.150015-10.711455 34.892305-22.878836 45.329213l-0.278706 0.237108a73.919439 73.919439 0 0 1-2.104853 1.705514c-16.826344 13.319642-37.962229 19.006073-50.412475 19.825551-2.699703 0.178871-5.016705 0.137273-6.759656-0.112314l-0.116474 1.060746-2.479234 11.19815L403.499471 786.715813c12.471045-40.474741 31.331526-75.891179 58.17048-104.94314 19.925386-21.568503 44.301746-39.580386 73.70313-53.573915 1.019148-0.486695 1.988379-1.014988 3.020007-1.489204 0.823638-0.262067 1.601519-0.549092 2.420996-0.815318 40.141958-13.115813 70.425217-31.24417 93.104383-53.212013 41.015513-58.719572 29.455461-127.809497-31.140175-206.441977-82.426206 22.521094-152.701671 65.911847-211.188295 129.939309z" fill="#F0DBCB" p-id="2984"></path><path d="M633.918467 572.682223l-0.016639 0.024959 0.099835-0.103995a180.746964 180.746964 0 0 0 7.217233-7.400263c0.603169-0.648927 1.17306-1.326972 1.76375-1.988379 1.826147-2.042456 3.623176-4.114031 5.353648-6.260482 0.378541-0.461737 0.757081-0.923473 1.127303-1.389369a144.045151 144.045151 0 0 0 12.246416-18.128358c0.033278-0.058237 0.074876-0.108154 0.103995-0.170551a0.345262 0.345262 0 0 0 0.033278-0.049918c0.091515-0.424298 0.166392-0.836117 0.257907-1.256256 4.430175-20.320566 5.062462-39.339118 2.832816-57.005739-3.639815-28.88557-14.908681-54.156285-29.705048-75.583355a211.575155 211.575155 0 0 0-14.696533-18.877119l-0.869395-0.977551a231.001367 231.001367 0 0 0-8.25718-8.876988 243.53065 243.53065 0 0 0-8.631561-8.398613c60.595637 78.632479 72.155689 147.722404 31.140175 206.441977z" fill="#E8B293" p-id="2985"></path><path d="M326.027572 436.869293l18.748166-5.661472 26.173389 8.136546a637.362772 637.362772 0 0 1 16.718189-34.118584c9.742224-18.577615 20.43288-37.213467 31.393923-55.849319-31.127696 20.516076-62.138918 49.172858-93.033667 87.492829z" fill="#CF4E08" p-id="2986"></path></svg>