<?xml version="1.0" standalone="no"?><!DOCTYPE svg PUBLIC "-//W3C//DTD SVG 1.1//EN" "http://www.w3.org/Graphics/SVG/1.1/DTD/svg11.dtd"><svg t="1515484741721" class="icon" style="" viewBox="0 0 1024 1024" version="1.1" xmlns="http://www.w3.org/2000/svg" p-id="18981" xmlns:xlink="http://www.w3.org/1999/xlink" width="200" height="200"><defs><style type="text/css"></style></defs><path d="M557.596851 148.521015a54.602561 54.602561 0 0 0-20.898984 25.885658 63.577553 63.577553 0 0 0 1.669052 41.757008 69.250281 69.250281 0 0 0 24.667149 35.198557 45.12071 45.12071 0 0 0 20.161733 7.80768 36.749853 36.749853 0 0 0 21.180572-3.681129 40.876404 40.876404 0 0 0 17.571119-19.199213 70.837416 70.837416 0 0 0 5.790483-25.793502 87.128588 87.128588 0 0 0-4.187989-33.401511 56.09242 56.09242 0 0 0-21.636232-28.798819 42.253628 42.253628 0 0 0-17.08474-6.399738 36.447786 36.447786 0 0 0-18.108698 2.017198 45.305022 45.305022 0 0 0-9.184903 5.022514" fill="#FFFFFF" p-id="18982"></path><path d="M873.569816 600.997823a468.409595 468.409595 0 0 0-26.336201-91.577685 262.727148 262.727148 0 0 0-32.700099-61.882903c-13.761996-18.30325-31.102725-33.724057-44.578012-52.252578-7.101149-9.599606-13.116902-20.351166-20.509879-29.853496a846.444656 846.444656 0 0 1-8.800919-18.620676c-8.887956-19.357926-16.961865-39.197113-27.518872-57.597639a185.11625 185.11625 0 0 0-5.150509-8.53981c-1.341385-17.724713-3.199869-35.423828-4.162389-53.179259a500.336606 500.336606 0 0 0-8.923794-106.235645 172.941389 172.941389 0 0 0-21.119135-47.419495 162.68645 162.68645 0 0 0-41.275747-44.480737 159.312508 159.312508 0 0 0-91.388253-29.274959 142.959899 142.959899 0 0 0-69.27588 15.999344A124.748805 124.748805 0 0 0 419.772101 70.285502a179.51008 179.51008 0 0 0-16.57276 73.786415c-0.834526 24.958977 1.4745 49.917953 2.401181 74.907649 0.962521 25.947096 0.445422 51.996588 2.590614 77.882247 0.701411 8.350378 1.663932 16.670037 1.628093 25.056252 0 4.162389-0.25599 8.381096-0.322546 12.543486l-0.322547 0.895963a531.894992 531.894992 0 0 1-37.435905 55.257895 2415.977745 2415.977745 0 0 1-28.79882 35.935806 217.263412 217.263412 0 0 0-31.578865 46.559371 332.520127 332.520127 0 0 0-13.756876 45.049033l-0.353265 1.279948a350.055408 350.055408 0 0 1-19.936463 51.197901c-0.73725 1.541057-1.505218 3.199869-2.242468 4.607811a905.486075 905.486075 0 0 1-14.975386 29.402954l-5.985035 11.23282a182.274767 182.274767 0 0 0-10.014309 20.858025c-1.679291 4.290384-2.91828 8.739482-3.711848 13.280735a70.197442 70.197442 0 0 0 1.791927 28.798819c0.609255 2.365343 1.310666 4.669249 2.114473 6.973155a151.079886 151.079886 0 0 0 8.703643 20.095176c1.535937 2.974598 3.199869 5.918477 4.766525 8.831638l1.438661 2.109353c1.602494 2.774926 3.240827 5.519134 4.925238 8.227503l0.194552 0.322547c1.9404 3.071874 3.947358 6.08743 6.015753 9.051788l0.291828 0.419823c2.134952 2.959239 4.264785 5.872399 6.399738 8.729242a231.506668 231.506668 0 0 0 43.963637 87.57913c-3.199869 5.60105-6.113029 11.263538-9.343617 16.792911a254.115661 254.115661 0 0 0-27.769741 52.544406 63.16797 63.16797 0 0 0-2.114473 29.438793 42.238268 42.238268 0 0 0 14.524844 25.307122 44.004596 44.004596 0 0 0 17.566 8.125107c6.369019 1.372104 12.881392 1.9404 19.388645 1.69977a315.645299 315.645299 0 0 0 72.537186-14.304693 808.215183 808.215183 0 0 1 42.775846-9.983591 254.914349 254.914349 0 0 1 45.468856-6.205185c3.773285 0 7.55169 0 11.294257-0.383985 10.393174 1.162192 20.868264 1.541057 31.322876 1.151953l3.839842-0.220151c2.718609 0.322547 5.442337 0.48126 8.160946 0.639974 18.369807 1.049557 36.734494 2.846603 54.909748 5.60105 16.019823 2.411421 31.896292 5.544733 47.649887 9.405055a363.90444 363.90444 0 0 0 74.549263 14.304693 80.9746 80.9746 0 0 0 19.910864-1.571775 44.194028 44.194028 0 0 0 18.03702-8.253102 42.294586 42.294586 0 0 0 14.560683-25.342961 62.973418 62.973418 0 0 0-2.170791-29.500231 244.551893 244.551893 0 0 0-28.28684-52.375452c-4.029275-6.788842-7.776961-13.731277-11.775517-20.47916a363.131352 363.131352 0 0 0 45.084871-62.615033 61.46308 61.46308 0 0 0 22.783066-2.882442 95.514804 95.514804 0 0 0 47.992913-35.997244 54.853431 54.853431 0 0 0 8.03295-16.419167 108.764821 108.764821 0 0 0 15.354251-39.099837 195.581101 195.581101 0 0 0-1.70489-69.536989z" fill="#020204" p-id="18983"></path><path d="M447.203937 287.006217a39.683493 39.683493 0 0 0-7.136988 15.067542 79.873845 79.873845 0 0 0-2.078635 16.639318A147.173486 147.173486 0 0 1 435.203149 352.05315a102.564755 102.564755 0 0 1-17.248573 31.327995 190.077327 190.077327 0 0 0-30.176043 54.136661 96.047262 96.047262 0 0 0-3.486577 37.31303 394.858691 394.858691 0 0 0-34.748015 62.809585 343.358722 343.358722 0 0 0-28.256122 104.694587 267.263282 267.263282 0 0 0 18.815229 130.616085 214.007226 214.007226 0 0 0 55.739154 77.656976 190.73266 190.73266 0 0 0 40.73305 27.037612 182.581954 182.581954 0 0 0 163.602893-1.602495 318.082319 318.082319 0 0 0 69.434593-54.87903 241.853764 241.853764 0 0 0 35.198557-40.00092 224.451597 224.451597 0 0 0 29.402954-97.654876 318.558459 318.558459 0 0 0-18.77939-176.525242 194.843851 194.843851 0 0 0-35.198557-50.588646 277.221274 277.221274 0 0 0-22.399081-75.322352c-7.935675-17.212734-17.601838-33.626781-24.958977-51.197901-3.010437-7.167706-5.631769-14.524844-8.990351-21.533837a64.575912 64.575912 0 0 0-13.122022-19.199213 54.064983 54.064983 0 0 0-20.509879-11.903512 89.2789 89.2789 0 0 0-23.489597-4.034394c-15.999344-0.798687-31.998688 1.279948-47.80348 0.639973-12.799475-0.511979-25.307122-2.718609-37.978603-1.981358a58.5448 58.5448 0 0 0-18.559239 3.90128 37.389827 37.389827 0 0 0-15.262095 11.038267m5.160749-138.28041a25.870299 25.870299 0 0 0-15.999344 7.136987 36.09964 36.09964 0 0 0-9.307779 15.041943 91.060587 91.060587 0 0 0-2.078634 35.454547c0.215031 10.802757 2.104234 21.513358 5.60105 31.742698a41.439581 41.439581 0 0 0 8.606367 13.567444 29.623105 29.623105 0 0 0 13.756876 8.125107 27.826059 27.826059 0 0 0 14.975386-0.542698 32.469709 32.469709 0 0 0 12.799475-7.80768 43.134231 43.134231 0 0 0 10.879554-19.004661c1.914801-7.142107 2.764687-14.524844 2.529176-21.917821a91.388253 91.388253 0 0 0-4.223826-27.262882 61.386283 61.386283 0 0 0-13.951428-23.679029 39.50942 39.50942 0 0 0-10.685002-8.002232 26.33108 26.33108 0 0 0-12.958189-2.846604m105.329442-0.005119a54.602561 54.602561 0 0 0-20.898984 25.885658 63.577553 63.577553 0 0 0 1.669052 41.757008 69.250281 69.250281 0 0 0 24.667149 35.198557 45.12071 45.12071 0 0 0 20.161733 7.80768 36.749853 36.749853 0 0 0 21.180572-3.681129 40.876404 40.876404 0 0 0 17.571119-19.199213 70.837416 70.837416 0 0 0 5.790483-25.793502 87.128588 87.128588 0 0 0-4.187989-33.401511 56.09242 56.09242 0 0 0-21.636232-28.798819 42.253628 42.253628 0 0 0-17.08474-6.399738 36.447786 36.447786 0 0 0-18.108698 2.017198 45.305022 45.305022 0 0 0-9.184903 5.022514" fill="#FFFFFF" p-id="18984"></path><path d="M579.038531 176.551865a21.513358 21.513358 0 0 0-9.860715 3.199869 25.926617 25.926617 0 0 0-7.485133 7.295701 37.656056 37.656056 0 0 0-5.985035 19.839187 41.895242 41.895242 0 0 0 2.109354 15.518083 29.336397 29.336397 0 0 0 8.739481 12.799476 25.240565 25.240565 0 0 0 14.780834 5.759763 24.759305 24.759305 0 0 0 15.231376-4.351821 27.31408 27.31408 0 0 0 8.386216-9.599607c1.996718-3.814244 3.286905-7.951034 3.809124-12.226058a37.712374 37.712374 0 0 0-3.583853-22.076535 30.908173 30.908173 0 0 0-16.449886-14.87811 23.254087 23.254087 0 0 0-9.599606-1.505218" fill="#020204" p-id="18985"></path><path d="M452.323727 148.521015a25.870299 25.870299 0 0 0-15.999344 7.136987 36.09964 36.09964 0 0 0-9.307779 15.041943 91.060587 91.060587 0 0 0-2.078634 35.454547c0.215031 10.802757 2.104234 21.513358 5.60105 31.742698a41.439581 41.439581 0 0 0 8.606367 13.567444 29.623105 29.623105 0 0 0 13.756876 8.125107 27.826059 27.826059 0 0 0 14.975386-0.542698 32.469709 32.469709 0 0 0 12.799475-7.80768 43.134231 43.134231 0 0 0 10.879554-19.004661c1.914801-7.142107 2.764687-14.524844 2.529176-21.917821a91.388253 91.388253 0 0 0-4.223826-27.262882 61.386283 61.386283 0 0 0-13.951428-23.679029 39.50942 39.50942 0 0 0-10.685002-8.002232 26.33108 26.33108 0 0 0-12.958189-2.846604" fill="#FFFFFF" p-id="18986"></path><path d="M437.957596 197.793874a44.926158 44.926158 0 0 0 1.279947 22.399082c1.756088 4.756285 4.454217 9.113226 7.935675 12.799475 2.181031 2.472859 4.807483 4.515655 7.746242 6.015754a14.38661 14.38661 0 0 0 9.599607 1.21339 14.15622 14.15622 0 0 0 7.423695-4.991795c1.848244-2.421661 3.225468-5.165868 4.065114-8.094389a44.997835 44.997835 0 0 0-0.419823-26.459075 34.471547 34.471547 0 0 0-10.111586-16.444765 20.018379 20.018379 0 0 0-8.191664-4.285265 14.284214 14.284214 0 0 0-9.282179 0.73725c-3.123072 1.551296-5.647128 4.095832-7.167706 7.234263a32.940729 32.940729 0 0 0-2.974598 9.886315" fill="#020204" p-id="18987"></path><path d="M423.975449 291.06621c0.204792 0.993239 0.568297 1.94552 1.085396 2.815885 0.96764 1.505218 2.242468 2.790286 3.742566 3.773285 1.407942 1.023958 2.913161 1.853364 4.38254 2.785166a79.233871 79.233871 0 0 1 19.808468 19.199213 124.349462 124.349462 0 0 0 24.380441 27.677585 51.402692 51.402692 0 0 0 24.38044 8.734362 79.781689 79.781689 0 0 0 30.334756-3.522416 107.167446 107.167446 0 0 0 26.013654-11.422251 271.809656 271.809656 0 0 1 45.146309-29.597507c3.711848-1.341385 7.55169-2.334624 11.104824-3.998556a17.484083 17.484083 0 0 0 8.637086-7.741123 37.200395 37.200395 0 0 0 2.114474-11.104824c0.573416-3.998556 1.853364-7.899836 2.559895-11.867674a19.977421 19.977421 0 0 0-0.926682-11.93935 15.431047 15.431047 0 0 0-7.008993-6.973154 23.981097 23.981097 0 0 0-9.599606-2.401182 143.098133 143.098133 0 0 0-19.9979 1.986479c-8.857237 0.798687-17.760552-0.322547-26.653628 0-11.033148 0.322547-21.94854 2.815885-32.986807 3.199869-12.604923 0.609255-25.179128-1.346505-37.789171-1.858484a78.030721 78.030721 0 0 0-16.352609 0.767968 37.773811 37.773811 0 0 0-15.164819 5.85704 145.35596 145.35596 0 0 0-11.903512 10.623565 30.298918 30.298918 0 0 1-6.558451 4.510535 16.946505 16.946505 0 0 1-7.710404 1.822645 12.492288 12.492288 0 0 0-4.095832 0 5.539613 5.539613 0 0 0-2.140072 1.341385 12.44109 12.44109 0 0 0-1.602494 2.017197 35.157599 35.157599 0 0 0-2.913161 5.217066" fill="#D99A03" p-id="18988"></path><path d="M451.75031 263.168474a194.88481 194.88481 0 0 0-13.024746 8.575648 16.035183 16.035183 0 0 0-5.60105 5.662488 13.306334 13.306334 0 0 0-1.023958 5.565212c0.107516 1.899442 0.107516 3.798884 0 5.693207-0.158713 1.279948-0.511979 2.559895-0.578536 3.870561a6.399738 6.399738 0 0 0 0.194552 1.919921 4.044634 4.044634 0 0 0 0.926682 1.694651 4.899639 4.899639 0 0 0 2.17591 1.249229c0.798687 0.25599 1.628093 0.383984 2.462619 0.573416a24.231966 24.231966 0 0 1 10.336857 6.015753c3.010437 2.68789 5.698326 5.729045 8.831638 8.288941a49.667084 49.667084 0 0 0 30.621464 9.922153 138.065379 138.065379 0 0 0 32.382672-4.510535 195.84733 195.84733 0 0 0 24.544274-6.814441 109.399675 109.399675 0 0 0 33.790615-20.125895 115.86085 115.86085 0 0 1 13.787594-11.422251c4.479816-2.815885 9.599606-4.674368 14.048704-7.362259 0.409583-0.23551 0.808927-0.501739 1.177552-0.798687s0.680932-0.665573 0.901083-1.085395a3.194749 3.194749 0 0 0 0-2.401182 6.450936 6.450936 0 0 0-0.993239-2.017197 14.509485 14.509485 0 0 0-1.884083-1.919921 30.155564 30.155564 0 0 0-17.468724-6.051592c-6.399738-0.48126-12.579324 0-18.753791-1.182672a122.593374 122.593374 0 0 1-16.956745-4.925238 123.627571 123.627571 0 0 0-18.021661-4.38254 119.03512 119.03512 0 0 0-43.354382 1.059796 126.673846 126.673846 0 0 0-38.398426 14.975386" fill="#604405" p-id="18989"></path><path d="M450.342368 248.034375a79.489861 79.489861 0 0 0-17.151297 15.646078 37.026322 37.026322 0 0 0-6.783722 11.391533 86.171187 86.171187 0 0 0-2.206629 10.23958 19.045619 19.045619 0 0 0-0.573417 3.870562c0 0.650213 0.097276 1.295307 0.286709 1.919921a4.362061 4.362061 0 0 0 0.993239 1.69465c0.793567 0.757729 1.797046 1.264588 2.882442 1.438661 1.054677 0.225271 2.140072 0.25599 3.199868 0.383985a30.155564 30.155564 0 0 1 13.372892 5.693206c4.034395 2.785166 7.741123 5.985035 11.872793 8.606367a62.031377 62.031377 0 0 0 30.810897 8.765081 137.717234 137.717234 0 0 0 32.157402-3.199869 144.715987 144.715987 0 0 0 24.800263-6.973154 148.832298 148.832298 0 0 0 33.790614-20.125895 141.393243 141.393243 0 0 0 13.787595-11.422251c1.46938-1.407942 2.882442-2.882442 4.449098-4.16239a16.050542 16.050542 0 0 1 5.247785-3.041155 19.455202 19.455202 0 0 1 9.179783-0.158714c2.268067 0.501739 4.587332 0.767969 6.911717 0.798688 1.167312 0.015359 2.319265-0.168953 3.425139-0.542698a6.962915 6.962915 0 0 0 2.815885-2.017197c0.962521-1.20827 1.484739-2.708369 1.46938-4.254546a8.631966 8.631966 0 0 0-1.244109-4.351822 14.88835 14.88835 0 0 0-7.039712-5.662487 69.373156 69.373156 0 0 0-12.031506-3.522416 172.69052 172.69052 0 0 1-36.191797-13.219298c-5.723925-2.846603-11.289137-5.979915-16.956744-9.02107a99.922943 99.922943 0 0 0-18.016542-8.002232 70.811817 70.811817 0 0 0-43.359502 1.95064 92.832034 92.832034 0 0 0-39.965081 27.355038" fill="#F5BD0C" p-id="18990"></path><path d="M522.531408 230.463255c0.762849 2.493338 4.766525 2.078635 7.07043 3.199869 2.298786 1.121234 3.65041 3.199869 5.918478 3.394421s5.570332-0.767969 5.85704-2.913161c0.383984-2.846603-3.773285-4.674368-6.399738-5.693206a13.66984 13.66984 0 0 0-11.104825-0.225271c-0.773088 0.445422-1.602494 1.407942-1.341385 2.237348z m-38.178274-1.407942c-2.974598-0.962521-7.869117 4.254546-6.399738 6.942435 0.450542 0.73725 1.791927 1.663932 2.68789 1.182672 0.895963-0.48126 2.493338-3.455858 3.967837-4.479817 1.121234-0.73213 0.895963-3.292025-0.255989-3.64529z" fill="#CD8907" p-id="18991"></path><path d="M959.387737 848.498716a56.711915 56.711915 0 0 1-9.405054 15.84063 102.600593 102.600593 0 0 1-33.058485 23.448639 655.292173 655.292173 0 0 0-61.529637 32.479948 252.984188 252.984188 0 0 0-36.289072 29.213522 290.583926 290.583926 0 0 1-29.500231 26.781622 84.860521 84.860521 0 0 1-36.734494 15.548803 88.06039 88.06039 0 0 1-47.772761-7.229144 57.331409 57.331409 0 0 1-26.58707-20.801707 62.492158 62.492158 0 0 1-7.454414-33.150641c0.639974-20.305087 3.071874-40.507779 7.264982-60.382804 2.93876-16.603479 5.759764-33.242797 7.55169-50.040828a515.255675 515.255675 0 0 0 1.059797-91.925832 69.680343 69.680343 0 0 1 0-15.390089 19.552478 19.552478 0 0 1 19.900624-18.241812 71.574665 71.574665 0 0 1 14.176699 1.177552c11.115064 1.290187 22.153332 3.204989 33.053364 5.729045 6.814441 1.791927 13.470168 4.187988 20.289729 6.051592 11.350575 3.271546 23.213128 4.362061 34.968166 3.199869a270.550187 270.550187 0 0 1 37.502462-5.887759c5.211946 0.168953 10.362455 1.080276 15.323532 2.68789a32.648901 32.648901 0 0 1 13.761996 7.679685 30.135084 30.135084 0 0 1 6.399737 10.234461c2.145192 5.626649 3.460978 11.534887 3.9064 17.535281 0.174073 5.3553 0.634854 10.695241 1.377224 15.999344a52.221859 52.221859 0 0 0 11.775517 23.16705 149.851136 149.851136 0 0 0 19.004661 17.79127c6.691566 5.631769 13.40873 11.202101 20.607155 15.999344 3.389301 2.298786 6.880998 4.479816 10.080866 7.003873a31.752938 31.752938 0 0 1 8.160946 9.087628c2.698129 4.87404 3.512176 10.562127 2.268067 15.994224" fill="#F5BD0C" p-id="18992"></path><path d="M959.387737 848.498716a56.711915 56.711915 0 0 1-9.405054 15.84063 102.600593 102.600593 0 0 1-33.058485 23.448639 655.292173 655.292173 0 0 0-61.529637 32.479948 252.984188 252.984188 0 0 0-36.289072 29.213522 290.583926 290.583926 0 0 1-29.500231 26.781622 84.860521 84.860521 0 0 1-36.734494 15.548803 88.06039 88.06039 0 0 1-47.772761-7.229144 57.331409 57.331409 0 0 1-26.58707-20.801707 62.492158 62.492158 0 0 1-7.454414-33.150641c0.639974-20.305087 3.071874-40.507779 7.264982-60.382804 2.93876-16.603479 5.759764-33.242797 7.55169-50.040828a515.255675 515.255675 0 0 0 1.059797-91.925832 69.680343 69.680343 0 0 1 0-15.390089 19.552478 19.552478 0 0 1 19.900624-18.241812 71.574665 71.574665 0 0 1 14.176699 1.177552c11.115064 1.290187 22.153332 3.204989 33.053364 5.729045 6.814441 1.791927 13.470168 4.187988 20.289729 6.051592 11.350575 3.271546 23.213128 4.362061 34.968166 3.199869a270.550187 270.550187 0 0 1 37.502462-5.887759c5.211946 0.168953 10.362455 1.080276 15.323532 2.68789a32.648901 32.648901 0 0 1 13.761996 7.679685 30.135084 30.135084 0 0 1 6.399737 10.234461c2.145192 5.626649 3.460978 11.534887 3.9064 17.535281 0.174073 5.3553 0.634854 10.695241 1.377224 15.999344a52.221859 52.221859 0 0 0 11.775517 23.16705 149.851136 149.851136 0 0 0 19.004661 17.79127c6.691566 5.631769 13.40873 11.202101 20.607155 15.999344 3.389301 2.298786 6.880998 4.479816 10.080866 7.003873a31.752938 31.752938 0 0 1 8.160946 9.087628c2.698129 4.87404 3.512176 10.562127 2.268067 15.994224M263.029728 678.429528a30.375715 30.375715 0 0 1 17.054021-1.571775 42.105154 42.105154 0 0 1 15.999344 6.753003 100.603875 100.603875 0 0 1 23.453758 25.307122c15.61536 21.497999 30.621465 43.446539 44.255466 66.234725 11.038267 18.492682 21.180572 37.599738 33.949328 54.971186 8.319659 11.330095 17.724713 21.856384 26.110929 33.150641a114.248116 114.248116 0 0 1 19.52176 37.149197c4.863801 17.827109 2.9234 36.82665-5.442337 53.307254a70.345916 70.345916 0 0 1-25.982935 27.867017 66.925896 66.925896 0 0 1-36.795931 9.599607 180.426523 180.426523 0 0 1-58.334889-18.400526c-38.685134-15.420808-80.72885-20.24877-120.596655-32.249557-12.256777-3.681129-24.319003-8.063669-36.637218-11.458091a108.360357 108.360357 0 0 1-16.224615-5.181227 28.076929 28.076929 0 0 1-12.799475-10.751559 24.319003 24.319003 0 0 1-3.199869-12.799476c0.148474-4.377421 1.023958-8.708763 2.590614-12.799475 3.005317-8.258221 7.838399-15.743355 11.104825-23.9043a100.347886 100.347886 0 0 0 5.565212-42.361143c-0.706531-14.340532-3.199869-28.54283-4.034395-42.878242-0.629734-6.399738-0.424943-12.850673 0.609255-19.199213a28.803939 28.803939 0 0 1 24.221727-24.641549 78.230393 78.230393 0 0 1 17.663276-1.121235 167.775521 167.775521 0 0 0 17.724713 0 40.584576 40.584576 0 0 0 16.926026-4.735805 40.108436 40.108436 0 0 0 12.159501-11.48369 139.376046 139.376046 0 0 0 8.703644-14.401969 91.915591 91.915591 0 0 1 9.154184-14.110142 34.865771 34.865771 0 0 1 13.18346-10.23958" fill="#F5BD0C" p-id="18993"></path><path d="M263.029728 678.429528a30.375715 30.375715 0 0 1 17.054021-1.571775 42.105154 42.105154 0 0 1 15.999344 6.753003 100.603875 100.603875 0 0 1 23.453758 25.307122c15.61536 21.497999 30.621465 43.446539 44.255466 66.234725 11.038267 18.492682 21.180572 37.599738 33.949328 54.971186 8.319659 11.330095 17.724713 21.856384 26.110929 33.150641a114.248116 114.248116 0 0 1 19.52176 37.149197c4.863801 17.827109 2.9234 36.82665-5.442337 53.307254a70.345916 70.345916 0 0 1-25.982935 27.867017 66.925896 66.925896 0 0 1-36.795931 9.599607 180.426523 180.426523 0 0 1-58.334889-18.400526c-38.685134-15.420808-80.72885-20.24877-120.596655-32.249557-12.256777-3.681129-24.319003-8.063669-36.637218-11.458091a108.360357 108.360357 0 0 1-16.224615-5.181227 28.076929 28.076929 0 0 1-12.799475-10.751559 24.319003 24.319003 0 0 1-3.199869-12.799476c0.148474-4.377421 1.023958-8.708763 2.590614-12.799475 3.005317-8.258221 7.838399-15.743355 11.104825-23.9043a100.347886 100.347886 0 0 0 5.565212-42.361143c-0.706531-14.340532-3.199869-28.54283-4.034395-42.878242-0.629734-6.399738-0.424943-12.850673 0.609255-19.199213a28.803939 28.803939 0 0 1 24.221727-24.641549 78.230393 78.230393 0 0 1 17.663276-1.121235 167.775521 167.775521 0 0 0 17.724713 0 40.584576 40.584576 0 0 0 16.926026-4.735805 40.108436 40.108436 0 0 0 12.159501-11.48369 139.376046 139.376046 0 0 0 8.703644-14.401969 91.915591 91.915591 0 0 1 9.154184-14.110142 34.865771 34.865771 0 0 1 13.18346-10.23958" fill="#F5BD0C" p-id="18994"></path><path d="M271.477381 687.803864a26.182607 26.182607 0 0 1 15.456647-1.023958 36.242994 36.242994 0 0 1 13.982146 6.845159 88.418775 88.418775 0 0 1 19.547359 24.288285c13.280735 21.503118 26.238924 43.200789 38.398426 65.374599a433.093283 433.093283 0 0 0 29.536069 49.052709c7.55169 10.167903 16.188776 19.485921 23.89918 29.530949a99.728391 99.728391 0 0 1 18.016541 33.18136 65.3746 65.3746 0 0 1-4.991795 47.54749A63.352283 63.352283 0 0 1 401.325498 967.682309a61.724189 61.724189 0 0 1-33.693339 8.319659 188.500431 188.500431 0 0 1-53.40453-16.536922c-33.754776-12.261897-70.391994-13.889991-104.950577-23.458878-12.415491-3.353463-24.508435-7.869117-36.990484-11.002429a112.604663 112.604663 0 0 1-16.383328-4.735806 26.556351 26.556351 0 0 1-13.024746-10.562127 23.115852 23.115852 0 0 1-2.815885-12.220939 38.193634 38.193634 0 0 1 2.718609-12.354053c3.005317-7.904956 7.741123-15.067542 10.782278-22.972498a88.623566 88.623566 0 0 0 4.321103-37.855728c-0.860125-12.794355-3.199869-25.435117-3.839843-38.203874a65.256844 65.256844 0 0 1 0.767969-17.089859 29.336397 29.336397 0 0 1 7.679685-15.067543 29.889335 29.889335 0 0 1 16.639318-7.710403 77.07844 77.07844 0 0 1 18.559239 0c6.169347 0.747489 12.379652 1.039317 18.589957 0.860124a34.865771 34.865771 0 0 0 17.601839-5.37066 35.183197 35.183197 0 0 0 10.848835-12.799475c2.513817-5.002035 4.715327-10.147424 6.59429-15.425927a72.977488 72.977488 0 0 1 7.423695-15.072662 29.065048 29.065048 0 0 1 12.799475-10.807877" fill="#F5BD0C" p-id="18995"></path></svg>