<?xml version="1.0" standalone="no"?><!DOCTYPE svg PUBLIC "-//W3C//DTD SVG 1.1//EN" "http://www.w3.org/Graphics/SVG/1.1/DTD/svg11.dtd"><svg t="1527169444700" class="icon" style="" viewBox="0 0 1024 1024" version="1.1" xmlns="http://www.w3.org/2000/svg" p-id="1411" xmlns:xlink="http://www.w3.org/1999/xlink" width="200" height="200"><defs><style type="text/css"></style></defs><path d="M369.5 689c4.8-19.6 12.1-38.5 21.7-56-49.7-35.3-82.1-93.4-82.1-159 0-107.6 87.3-194.9 194.9-194.9S698.9 366.4 698.9 474c0 21.1-3.4 41.4-9.5 60.4 40.8 18.6 75.5 48.7 99.4 86.3 29.4 1.7 57.9 10.7 82.8 26.1 24.7-52.4 38.5-111 38.5-172.7 0-224.2-181.8-406-406-406S98 249.8 98 474c0 139.8 70.7 263.1 178.2 336.1 6.2-54.2 41.9-101 93.3-121.1z" fill="#4795F4" p-id="1412"></path><path d="M921.8 772.9c-10.5-74.1-73.7-131.5-150.4-132.6-23.9-40.6-60.8-70.9-103.6-87.2-12-4.6-24.4-7.9-37.2-10.2-11.7-2.1-23.5-3.5-35.6-3.5-97.7 0-180.6 67.8-200.3 162.4-50.4 16.8-86.9 64.3-86.9 120.3 0 69.9 56.9 126.9 126.8 126.9 25.2 0 49.2-7.3 70-21.1 28 13.8 59 21.1 90.4 21.1 32.6 0 64.9-7.9 93.7-22.8 24.2 14.9 51.7 22.8 80.5 22.8 80.6 0 146.9-62.1 153.6-141 0.4-4.4 0.7-8.9 0.7-13.4 0.1-7.4-0.6-14.6-1.7-21.7z" fill="#E5E5E5" p-id="1413"></path></svg>