<?xml version="1.0" encoding="iso-8859-1"?>
<!-- Generator: Adobe Illustrator 19.0.0, SVG Export Plug-In . SVG Version: 6.00 Build 0)  -->
<svg version="1.1" id="Capa_1" xmlns="http://www.w3.org/2000/svg" xmlns:xlink="http://www.w3.org/1999/xlink" x="0px" y="0px"
	 viewBox="0 0 512 512" style="enable-background:new 0 0 512 512;" xml:space="preserve">
<path style="fill:#51CAF3;" d="M511.56,241c-2.01-35.18-11.12-69.02-26.63-99.85c-4.48-8.92-9.5-17.59-15.04-25.96
	c-9.47-14.32-20.45-27.79-32.87-40.21c-12.42-12.42-25.89-23.4-40.21-32.87c-8.37-5.54-17.04-10.56-25.96-15.04
	C340.02,11.56,306.18,2.45,271,0.44C266.02,0.14,261.02,0,256,0s-10.02,0.14-15,0.44c-35.18,2.01-69.02,11.12-99.85,26.63
	c-8.92,4.48-17.59,9.5-25.96,15.04c-28.167,18.628-53.483,43.447-73.08,73.08c-5.54,8.37-10.56,17.04-15.04,25.96
	C11.56,171.98,2.45,205.82,0.44,241C0.14,245.98,0,250.98,0,256c0,5.02,0.14,10.02,0.44,15c2.01,35.18,11.12,69.02,26.63,99.85
	c4.48,8.92,9.5,17.59,15.04,25.96c9.47,14.32,20.45,27.79,32.87,40.21c12.42,12.42,25.89,23.4,40.21,32.87
	c8.37,5.54,17.04,10.56,25.96,15.04c30.83,15.51,64.67,24.62,99.85,26.63c4.98,0.3,9.98,0.44,15,0.44c5.02,0,10.02-0.14,15-0.44
	c35.18-2.01,69.02-11.12,99.85-26.63c8.92-4.48,17.59-9.5,25.96-15.04c14.32-9.47,27.79-20.45,40.21-32.87
	c12.42-12.42,23.4-25.89,32.87-40.21c5.54-8.37,10.56-17.04,15.04-25.96c15.51-30.83,24.62-64.67,26.63-99.85
	c0.3-4.98,0.44-9.98,0.44-15S511.86,245.98,511.56,241z"/>
<path style="fill:#3FA0E1;" d="M115.19,469.89c8.37,5.54,17.04,10.56,25.96,15.04c30.83,15.51,64.67,24.62,99.85,26.63
	c4.98,0.3,9.98,0.44,15,0.44c5.02,0,10.02-0.14,15-0.44c35.18-2.01,69.02-11.12,99.85-26.63c8.92-4.48,17.59-9.5,25.96-15.04
	c14.32-9.47,27.79-20.45,40.21-32.87c12.42-12.42,23.4-25.89,32.87-40.21c5.54-8.37,10.56-17.04,15.04-25.96
	c15.51-30.83,24.62-64.67,26.63-99.85c0.3-4.98,0.44-9.98,0.44-15c0-5.02-0.14-10.02-0.44-15c-2.01-35.18-11.12-69.02-26.63-99.85
	c-4.48-8.92-9.5-17.59-15.04-25.96c-9.47-14.32-20.45-27.79-32.87-40.21L74.98,437.02C87.4,449.44,100.87,460.42,115.19,469.89z"/>
<path style="fill:#FE4234;" d="M287.82,309.033l-84.853-84.853c-3.52-3.52-5.064-8.556-4.123-13.443
	c0.941-4.888,4.246-8.99,8.821-10.951l148.492-63.64c5.64-2.416,12.181-1.156,16.516,3.181c4.337,4.337,5.597,10.877,3.181,16.515
	l-63.64,148.492c-1.961,4.575-6.063,7.879-10.95,8.821C296.344,314.102,291.319,312.532,287.82,309.033z"/>
<path style="fill:#E33745;" d="M245.394,266.606l42.427,42.426c3.491,3.491,8.512,5.071,13.443,4.123
	c4.888-0.941,8.989-4.246,10.95-8.821l63.64-148.492c2.416-5.638,1.156-12.178-3.181-16.515l0,0L245.394,266.606z"/>
<g>
	<path style="fill:#EEEEEE;" d="M271,0.44V45c0,8.28-6.72,15-15,15s-15-6.72-15-15V0.44c4.98-0.3,9.98-0.44,15-0.44
		C261.02,0,266.02,0.14,271,0.44z"/>
	<path style="fill:#EEEEEE;" d="M158,86.26c-7.174,4.134-16.341,1.689-20.49-5.49l-22.32-38.66c8.37-5.54,17.04-10.56,25.96-15.04
		l22.34,38.7C167.63,72.94,165.17,82.12,158,86.26z"/>
	<path style="fill:#EEEEEE;" d="M86.26,158c-4.143,7.169-13.308,9.629-20.49,5.49l-38.7-22.34c4.48-8.92,9.5-17.59,15.04-25.96
		l38.66,22.32C87.94,141.65,90.4,150.83,86.26,158z"/>
	<path style="fill:#EEEEEE;" d="M60,256c0,8.28-6.72,15-15,15H0.44C0.14,266.02,0,261.02,0,256s0.14-10.02,0.44-15H45
		C53.28,241,60,247.72,60,256z"/>
	<path style="fill:#EEEEEE;" d="M80.77,374.49l-38.66,22.32c-5.54-8.37-10.56-17.04-15.04-25.96l38.7-22.34
		c7.17-4.14,16.35-1.68,20.49,5.49S87.94,370.35,80.77,374.49z"/>
	<path style="fill:#EEEEEE;" d="M396.81,42.11l-22.32,38.66c-4.147,7.175-13.312,9.627-20.49,5.49c-7.17-4.14-9.63-13.32-5.49-20.49
		l22.34-38.7C379.77,31.55,388.44,36.57,396.81,42.11z"/>
	<path style="fill:#EEEEEE;" d="M202.975,202.975c-1.331,1.331-2.425,2.91-3.188,4.69l-63.64,148.492
		c-2.416,5.638-1.157,12.178,3.181,16.515c4.335,4.335,10.874,5.598,16.515,3.181l148.493-63.64c1.779-0.763,3.359-1.857,4.69-3.188
		L202.975,202.975z"/>
</g>
<g>
	<path style="fill:#C6C6C6;" d="M139.328,372.672c4.335,4.335,10.874,5.598,16.515,3.181l148.493-63.64
		c1.779-0.763,3.359-1.857,4.69-3.188L256,256L139.328,372.672z"/>
	<path style="fill:#C6C6C6;" d="M271,467v44.56c-4.98,0.3-9.98,0.44-15,0.44s-10.02-0.14-15-0.44V467c0-8.28,6.72-15,15-15
		S271,458.72,271,467z"/>
	<path style="fill:#C6C6C6;" d="M396.81,469.89c-8.37,5.54-17.04,10.56-25.96,15.04l-22.34-38.7c-4.14-7.17-1.68-16.35,5.49-20.49
		s16.35-1.68,20.49,5.49L396.81,469.89z"/>
	<path style="fill:#C6C6C6;" d="M484.93,370.85c-4.48,8.92-9.5,17.59-15.04,25.96l-38.66-22.32c-7.17-4.14-9.63-13.32-5.49-20.49
		s13.32-9.63,20.49-5.49L484.93,370.85z"/>
	<path style="fill:#C6C6C6;" d="M512,256c0,5.02-0.14,10.02-0.44,15H467c-8.28,0-15-6.72-15-15s6.72-15,15-15h44.56
		C511.86,245.98,512,250.98,512,256z"/>
	<path style="fill:#C6C6C6;" d="M484.93,141.15l-38.7,22.34c-7.183,4.139-16.347,1.678-20.49-5.49c-4.14-7.17-1.68-16.35,5.49-20.49
		l38.66-22.32C475.43,123.56,480.45,132.23,484.93,141.15z"/>
	<path style="fill:#C6C6C6;" d="M163.49,446.23l-22.34,38.7c-8.92-4.48-17.59-9.5-25.96-15.04l22.32-38.66
		c4.14-7.17,13.31-9.63,20.49-5.49C165.17,429.88,167.63,439.06,163.49,446.23z"/>
</g>
<g>
</g>
<g>
</g>
<g>
</g>
<g>
</g>
<g>
</g>
<g>
</g>
<g>
</g>
<g>
</g>
<g>
</g>
<g>
</g>
<g>
</g>
<g>
</g>
<g>
</g>
<g>
</g>
<g>
</g>
</svg>
