<?xml version="1.0" standalone="no"?><!DOCTYPE svg PUBLIC "-//W3C//DTD SVG 1.1//EN" "http://www.w3.org/Graphics/SVG/1.1/DTD/svg11.dtd"><svg t="1515485006514" class="icon" style="" viewBox="0 0 1024 1024" version="1.1" xmlns="http://www.w3.org/2000/svg" p-id="22517" xmlns:xlink="http://www.w3.org/1999/xlink" width="200" height="200"><defs><style type="text/css"></style></defs><path d="M42.666667 546.133333v-61.866666c2.133333-10.666667 2.133333-19.2 4.266666-32 19.2-142.933333 91.733333-253.866667 213.333334-332.8 106.666667-68.266667 224-91.733333 345.6-64 189.866667 42.666667 311.466667 162.133333 362.666666 354.133333 4.266667 21.333333 6.4 46.933333 12.8 72.533333v66.133334c0 2.133333-2.133333 6.4-2.133333 10.666666-12.8 119.466667-59.733333 217.6-142.933333 296.533334-115.2 108.8-251.733333 147.2-405.333334 121.6-185.6-32-332.8-172.8-375.466666-360.533334-8.533333-23.466667-10.666667-49.066667-12.8-70.4z m635.733333 317.866667s0 2.133333 2.133333 2.133333c19.2-12.8 40.533333-21.333333 57.6-34.133333 125.866667-83.2 198.4-249.6 170.666667-396.8C883.2 300.8 810.666667 206.933333 689.066667 153.6c-46.933333-21.333333-98.133333-32-153.6-19.2-46.933333 10.666667-76.8 40.533333-91.733334 83.2-14.933333 44.8-4.266667 81.066667 25.6 115.2 21.333333 25.6 46.933333 44.8 76.8 59.733333 36.266667 19.2 74.666667 36.266667 110.933334 57.6 51.2 29.866667 89.6 68.266667 110.933333 125.866667 27.733333 72.533333 14.933333 138.666667-17.066667 202.666667-21.333333 34.133333-44.8 61.866667-72.533333 85.333333zM317.866667 149.333333s-4.266667 2.133333-6.4 4.266667c-6.4 4.266667-12.8 6.4-19.2 12.8-108.8 72.533333-170.666667 174.933333-181.333334 302.933333-10.666667 104.533333 19.2 198.4 83.2 279.466667 40.533333 51.2 87.466667 91.733333 151.466667 106.666667 49.066667 10.666667 98.133333 14.933333 145.066667-6.4 64-27.733333 104.533333-110.933333 49.066666-181.333334-25.6-32-57.6-53.333333-91.733333-72.533333-32-17.066667-66.133333-32-98.133333-51.2-134.4-78.933333-147.2-230.4-83.2-334.933333 14.933333-23.466667 36.266667-40.533333 51.2-59.733334z" p-id="22518" fill="#1296db"></path></svg>