<svg width="400" height="400" xmlns="http://www.w3.org/2000/svg"><g fill-rule="evenodd"><path d="M145.023 34.889c-.835 1.192-.828 1.23.777 3.738.77 1.204 1.4 2.334 1.4 2.511 0 .177.45.745 1 1.262s1 1.109 1 1.315c0 .207 1.62 2.804 3.6 5.772 1.98 2.968 3.6 5.529 3.6 5.692 0 .164.36.623.8 1.021.44.398.8.944.8 1.213 0 .269.289.729.642 1.022.353.292.802.9.999 1.349.196.449.582 1.131.856 1.516.76 1.067.057 1.813-3.517 3.734-1.749.94-3.765 2.026-4.48 2.412-4.801 2.594 6.433 5.529 13.3 3.476 5.355-1.602 9.707-2.996 10.4-3.333 5.338-2.591 14.393-4.51 14.79-3.135.841 2.91 2.538 4.945 5.33 6.392 4.187 2.17 6.366 6.225 4.657 8.665-1.804 2.576-10.66-.671-10.082-3.697.255-1.331-.486-1.314-1.84.041-1.774 1.773-1.195 5.13 1.294 7.502 1.831 1.745 8.986 1.716 12.882-.052 7.118-3.231 8.111-10.109 2.211-15.305-5.603-4.934-6.405-6.44-3.737-7.02.712-.156 2.336-.614 3.609-1.019 2.203-.701 3.234-1.116 6.886-2.768.88-.398 2.185-.964 2.9-1.256 6.216-2.544-20.298-2.466-32.3.095-2.09.447-4.522.968-5.405 1.16-.882.191-3.528.992-5.878 1.778-4.516 1.511-6.717 1.803-6.717.892 0-.296-.36-.864-.8-1.262-.44-.398-.8-.938-.8-1.2s-.36-.802-.8-1.2c-.44-.398-.8-.938-.8-1.2s-.36-.802-.8-1.2c-.44-.398-.8-.938-.8-1.2s-.36-.802-.8-1.2c-.44-.398-.8-.932-.8-1.187 0-.254-.315-.812-.7-1.24-.385-.428-1.141-1.586-1.68-2.575-5.263-9.659-9.319-13.904-10.997-11.509m113.047.037c-.479.509-.87 1.111-.87 1.338 0 .227-.36.738-.8 1.136-.44.398-.8.938-.8 1.2s-.36.802-.8 1.2c-.44.398-.8.861-.8 1.028 0 .168-.9 1.651-2 3.295-1.1 1.645-2 3.131-2 3.302 0 .172-.299.642-.664 1.046-.366.404-.861 1.074-1.1 1.488-.75 1.298-4.327 6.631-4.587 6.841-.137.11-.643.92-1.124 1.8-1.161 2.122-1.914 2.165-7.358.425-5.119-1.637-11.594-3.247-14.704-3.656l-2.137-.282.896 1.756c2.191 4.295 15.024 13.557 18.784 13.557.411 0 .845.159.965.354.213.344.624.451 4.829 1.262 9.374 1.807 18.829 1.784 17.177-.041-.386-.426-.915-.775-1.177-.775s-.802-.36-1.2-.8c-.398-.44-.867-.8-1.042-.8-.175 0-1.118-.54-2.096-1.2-.978-.66-1.918-1.2-2.089-1.2-.17 0-.594-.251-.942-.558-.347-.307-1.936-1.22-3.531-2.028-2.86-1.448-3.802-2.81-2.5-3.614.22-.136.4-.597.4-1.024 0-.427.15-.776.332-.776.183 0 .588-.495.9-1.1.312-.605.672-1.19.8-1.3.214-.184 3.631-5.229 4.571-6.749.221-.358 1.256-1.946 2.3-3.53 1.043-1.583 1.897-3.04 1.897-3.238 0-.197.36-.685.8-1.083.44-.398.8-.938.8-1.2s.36-.802.8-1.2c.44-.398.8-.944.8-1.213 0-.269.27-.713.6-.987.782-.649.767-2.176-.029-2.971-.9-.901-2.294-.776-3.301.297"/><path d="M144.565 34.597c-.865 1.32-.515 2.63 1.459 5.467.867 1.245 1.576 2.432 1.576 2.638 0 .206.36.7.8 1.098.44.398.8.889.8 1.092 0 .202 1.71 2.889 3.8 5.97s3.8 5.688 3.8 5.792c0 .104.72 1.25 1.6 2.546 1.976 2.91 1.987 3.383.1 4.257-.825.382-2.589 1.347-3.92 2.145s-2.726 1.568-3.1 1.712c-.436.167-.66.659-.626 1.373.042.84.095.908.22.278.09-.459.741-1.147 1.445-1.528.705-.381 2.712-1.463 4.461-2.403 3.574-1.921 4.277-2.667 3.517-3.734-.274-.385-.66-1.067-.856-1.516-.197-.449-.646-1.057-.999-1.349-.353-.293-.642-.753-.642-1.022s-.36-.815-.8-1.213c-.44-.398-.8-.857-.8-1.021 0-.163-1.62-2.724-3.6-5.692s-3.6-5.565-3.6-5.772c0-.206-.45-.798-1-1.315-.55-.517-1-1.085-1-1.262 0-.177-.657-1.35-1.46-2.605-1.734-2.711-1.415-4.225.939-4.456 1.264-.124 5.871 5.952 9.341 12.321.539.989 1.295 2.147 1.68 2.575.385.428.7.986.7 1.24 0 .255.36.789.8 1.187.44.398.8.938.8 1.2s.36.802.8 1.2c.44.398.8.938.8 1.2s.36.802.8 1.2c.44.398.8.938.8 1.2s.36.802.8 1.2c.44.398.8.966.8 1.262 0 .911 2.201.619 6.717-.892 2.35-.786 4.996-1.586 5.878-1.778 10.688-2.318 17.631-3.171 25.921-3.184 5.792-.009 12.815.659 13.023 1.239.082.228.374.191.712-.09.456-.378.701-.32 1.191.284.34.417.487.507.327.199-.573-1.106 8.058.654 16.598 3.385 5.444 1.74 6.197 1.697 7.358-.425.481-.88.987-1.69 1.124-1.8.26-.21 3.837-5.543 4.587-6.841.239-.414.734-1.084 1.1-1.488.365-.404.664-.874.664-1.046 0-.171.9-1.657 2-3.302 1.1-1.644 2-3.127 2-3.295 0-.167.36-.63.8-1.028.44-.398.8-.938.8-1.2s.36-.802.8-1.2c.44-.398.8-.935.8-1.192 0-.754 1.777-2.208 2.697-2.208 1.788 0 2.831 2.498 1.503 3.6-.33.274-.6.718-.6.987s-.36.815-.8 1.213c-.44.398-.8.938-.8 1.2s-.36.802-.8 1.2c-.44.398-.8.886-.8 1.083 0 .198-.854 1.655-1.897 3.238-1.044 1.584-2.079 3.172-2.3 3.53-.94 1.52-4.357 6.565-4.571 6.749-.128.11-.488.695-.8 1.3-.312.605-.717 1.1-.9 1.1-.182 0-.332.349-.332.776 0 .427-.18.888-.4 1.024-1.302.804-.36 2.166 2.5 3.614 1.595.808 3.184 1.721 3.531 2.028.348.307.772.558.942.558.171 0 1.111.54 2.089 1.2.978.66 1.921 1.2 2.096 1.2.175 0 .644.36 1.042.8.398.44.938.8 1.2.8.982 0 1.962 1.502 1.13 1.732-.401.111-.23.162.38.113.611-.048 1.112-.22 1.113-.382.003-.395-2.241-2.263-2.719-2.263-.209 0-.706-.36-1.104-.8-.398-.44-.893-.8-1.1-.8-.207 0-.854-.339-1.438-.753-1.583-1.122-4.374-2.705-6.958-3.945-2.563-1.23-2.887-2.052-1.504-3.811.44-.56.8-1.186.8-1.392 0-.206.36-.701.8-1.099.44-.398.8-.87.8-1.049 0-.31 5.167-8.383 8.458-13.215.848-1.245 1.542-2.426 1.542-2.624 0-.199.315-.719.7-1.157 2.603-2.959 2.183-6.155-.809-6.155-1.455 0-1.453-.002-4.191 3.557-.495.643-.9 1.338-.9 1.544 0 .206-.36.701-.8 1.099-.44.398-.8.881-.8 1.074 0 .192-1.44 2.499-3.2 5.126-1.76 2.627-3.2 4.962-3.2 5.188 0 .227-.159.412-.354.412-.195 0-.644.585-.997 1.3-2.469 4.999-5.499 8.01-6.775 6.734-.239-.239-.76-.434-1.159-.434s-1.038-.159-1.42-.353c-1.111-.565-6.277-2.047-7.134-2.047-.431 0-1.138-.248-1.572-.552-.763-.534-2.352-.828-6.989-1.296-1.21-.122-2.371-.387-2.58-.587-.209-.201-2.043-.365-4.076-.365-2.033 0-3.808-.18-3.944-.4-.148-.239-2.796-.4-6.6-.4s-6.452.161-6.6.4c-.136.221-1.93.4-4 .4-2.07 0-3.864.179-4 .4-.136.22-1.191.4-2.344.4-1.153 0-2.267.163-2.476.361-.209.199-1.19.443-2.18.543-.99.1-2.34.378-3 .619-.66.24-2.55.822-4.2 1.292-4.691 1.337-5.735 1.666-6.7 2.108-1.217.557-2.681-.254-3.475-1.926-.335-.708-.884-1.514-1.218-1.791-.334-.277-.607-.724-.607-.993s-.36-.815-.8-1.213c-.44-.398-.8-.938-.8-1.2s-.36-.802-.8-1.2c-.44-.398-.8-.895-.8-1.103 0-.208-1.89-3.247-4.2-6.753-2.31-3.506-4.2-6.468-4.2-6.582 0-2.478-4.935-4.349-6.235-2.365M157.3 71.891c.825.087 2.175.087 3 0 .825-.086.15-.157-1.5-.157s-2.325.071-1.5.157m91.6 1.185c.385.1 1.015.1 1.4 0 .385-.101.07-.183-.7-.183s-1.085.082-.7.183m-88.1 8.188c-9.42 5.434-6.437 18.836 4.2 18.87 10.881.035 14.087-13.999 4.316-18.891-2.279-1.141-6.52-1.13-8.516.021m76.519-.009c-9.673 4.693-6.616 18.838 4.081 18.885 10.568.047 14.012-13.286 4.8-18.583-2.534-1.456-6.241-1.582-8.881-.302M197.3 84.676c.385.1 1.015.1 1.4 0 .385-.101.07-.183-.7-.183s-1.085.082-.7.183m-81.915 53.423c-.105.276-.144 29.031-.088 63.901l.103 63.4H291V137.8l-87.712-.101c-69.96-.08-87.751.001-87.903.4m-35.785.685c-.33.222-1.07.407-1.644.41-1.136.007-5.956 2.332-5.956 2.873 0 .183-.245.333-.545.333-.3 0-1.335.883-2.3 1.962-6.217 6.95-6.024 5.119-5.864 55.796l.127 40.042.917 2.548c4.046 11.255 16.261 16.518 26.765 11.533.935-.444 1.7-.958 1.7-1.144 0-.185.231-.337.513-.337.601 0 4.916-4.27 5.71-5.65.546-.952.933-1.74 2.133-4.35.577-1.255.655-5.884.751-44.566l.107-43.167-.886-2.833c-.487-1.559-1.03-2.894-1.207-2.967-.176-.074-.321-.346-.321-.606 0-.629-3.926-5.461-4.436-5.461-.22 0-.849-.449-1.397-.997-2.562-2.562-12.042-4.85-14.167-3.419m240.2.112c-2.914.72-5.672 1.971-7.021 3.185-.562.506-1.36 1.111-1.773 1.346-.414.234-.945.765-1.179 1.179-.235.413-.842 1.211-1.35 1.773-.995 1.1-2.064 3.223-3.048 6.049-.791 2.27-.961 87.508-.179 89.453.247.616.628 1.569.846 2.119 1.057 2.662 1.896 3.955 4.095 6.314 1.095 1.174 2.58 2.414 3.3 2.756.72.342 1.309.781 1.309.976 0 .195.272.354.605.354.333 0 .918.158 1.3.351 2.655 1.341 10.754 1.95 11.816.888.242-.242.842-.439 1.335-.439s1.008-.18 1.144-.4c.136-.22.597-.4 1.024-.4.427 0 .776-.18.776-.4 0-.22.267-.4.593-.4 1.912 0 8.607-8.382 8.607-10.776 0-.365.225-.889.5-1.164.609-.608.962-78.789.385-85.161-.36-3.972-1.962-8.435-3.48-9.695-.333-.276-.605-.713-.605-.972 0-.585-2.877-3.432-3.468-3.432-.239 0-.661-.273-.938-.607-.453-.546-1.938-1.318-4.194-2.18-3.119-1.192-7.306-1.481-10.4-.717m-83.947 9.804c1.407.793 16.949 16.827 16.943 17.477-.003.233-3.018 3.858-6.7 8.057-5.941 6.774-11.168 12.786-13.706 15.766-.469.55-1.424 1.63-2.124 2.4-.699.77-3.382 3.859-5.961 6.864-2.58 3.006-4.93 5.706-5.222 6-.292.295-1.589 1.796-2.884 3.336-1.294 1.54-2.453 2.89-2.576 3-.123.11-1.208 1.37-2.412 2.8-1.203 1.43-2.468 2.87-2.81 3.2-.342.33-1.494 1.635-2.56 2.9-2.336 2.772-2.783 2.803-4.841.337-1.59-1.905-8.793-10.232-9.586-11.081-1.202-1.287-3.088-3.455-5.181-5.956-1.289-1.54-3.087-3.61-3.995-4.6-.908-.99-3.802-4.32-6.431-7.4s-4.876-5.69-4.994-5.8c-.24-.224-4.95-5.633-6.263-7.191-.467-.555-3.032-3.475-5.7-6.489-2.667-3.015-4.85-5.806-4.85-6.204 0-.408 3.701-4.421 8.501-9.217l8.501-8.494 29.199-.105c16.059-.058 30.372-.149 31.805-.203 1.885-.07 2.95.097 3.847.603m-87.61 149.533c-.134.348-.243 6.453-.243 13.567s.109 13.219.243 13.567c.206.538 1.134.633 6.167.633h5.925l1.206 1.3c3.22 3.47 4.187 4.571 4.745 5.4 1.004 1.492 1.195 1.365 5.679-3.8l2.517-2.9h5.745c5.27 0 5.779-.064 6.159-.774.754-1.409.549-27.089-.219-27.383-1.637-.628-37.676-.258-37.924.39m72.028-.37c-.455.455-.319 26.5.143 27.363.379.708.886.774 5.946.774h5.532l3.321 3.7c1.826 2.035 3.439 3.749 3.583 3.81.271.113 3.717-3.42 5.766-5.91l1.152-1.4 6.243-.2 6.243-.2v-28l-18.829-.104c-10.357-.057-18.952.018-19.1.167" fill="#2066b1"/><path d="M200.8 148.265l-29.8.119-8.5 8.671c-4.675 4.769-8.495 8.867-8.489 9.108.01.388 1.968 2.696 10.38 12.237 1.26 1.43 3.683 4.22 5.384 6.2 1.7 1.98 4.129 4.77 5.397 6.2 1.268 1.43 3.613 4.13 5.213 6 1.599 1.87 3.386 3.94 3.971 4.6.586.66 2.766 3.18 4.845 5.6 2.08 2.42 3.875 4.49 3.991 4.6.115.11.822.92 1.571 1.8s2.487 2.86 3.863 4.4c1.376 1.54 2.891 3.295 3.367 3.9 1.275 1.621 1.476 1.5 5.611-3.381 2.088-2.465 5.779-6.74 8.202-9.5 2.423-2.761 4.943-5.665 5.6-6.454.657-.789 4.074-4.734 7.594-8.765 3.52-4.031 8.29-9.52 10.6-12.198 4.589-5.32 9.356-10.763 11.458-13.085 1.996-2.205 1.975-2.24-6.971-11.433l-8.287-8.515-2.6-.111c-1.43-.061-16.01-.058-32.4.007m28.9 14.616c3.025 3.135 5.5 5.893 5.5 6.129 0 .235-1.665 2.324-3.7 4.642-7.723 8.795-13.852 15.847-16.121 18.548-1.294 1.54-2.449 2.89-2.566 3-.118.11-1.384 1.55-2.813 3.199-1.43 1.65-2.789 3.202-3.021 3.45-.231.247-1.035 1.193-1.786 2.1-1.608 1.945-2.045 2.021-3.197.551-.474-.605-1.612-1.91-2.529-2.9-.918-.99-3.288-3.69-5.268-6-1.979-2.31-3.779-4.395-3.999-4.634-.22-.238-2.56-2.926-5.2-5.973-2.64-3.046-6.825-7.839-9.3-10.651-2.475-2.812-4.5-5.229-4.5-5.372 0-.142 2.552-2.849 5.671-6.014l5.671-5.756 20.829-.01 20.829-.009 5.5 5.7M101.043 264.33c-.408.661-6.535 3.462-8.443 3.86-7.612 1.59-10.905 1.75-15.8.764-1.65-.332-3.585-.703-4.3-.823-.715-.12-1.3-.379-1.3-.575 0-.196-.342-.356-.759-.356-.418 0-1.8-.547-3.071-1.216-2.762-1.453-3.059-1.383-3.738.873-.56 1.867-1.111 3.321-1.679 4.438-.194.382-.353 1.136-.353 1.676s-.18 1.093-.4 1.229c-.22.136-.4.676-.4 1.2 0 .524-.18 1.064-.4 1.2-.22.136-.4.676-.4 1.2 0 .524-.18 1.064-.4 1.2-.22.136-.4.856-.4 1.6 0 .744-.156 1.449-.347 1.567-.191.118-.458.984-.594 1.924-.135.94-.44 2.609-.676 3.709-1.326 6.163-2.268 14.229-3.026 25.902l-.279 4.302 40.161-.102 40.161-.102.116-3.5.115-3.5-2.515-.014c-10.939-.062-19.793-4.52-25.398-12.788-1.9-2.803-2.918-4.752-2.918-5.587 0-.42-.18-.875-.4-1.011-.22-.136-.4-.676-.4-1.2 0-.524-.18-1.064-.4-1.2-.253-.156-.4-4.804-.4-12.624 0-12.279-.187-13.939-1.357-12.046m14.824 1.537c-.476.475-.301 17.37.195 18.905 1.516 4.688 4.927 8.826 8.611 10.446 1.06.466 2.24 1.013 2.622 1.215.382.202 5.276.367 10.876.367 6.356 0 10.275.15 10.429.4.344.556 37.093.547 37.649-.009.272-.272 6.082-.338 17.38-.199 47.429.586 54.371.614 54.371.216 0-.267 3.581-.408 10.334-.408h10.334l2.766-1.361c4.02-1.979 8.566-6.982 8.566-9.428 0-.42.18-.875.4-1.011.249-.154.4-3.871.4-9.824V265.6h-87.333c-48.034 0-87.454.12-87.6.267m32.533 69.405c0 9.22.165 10.397 2.037 14.528 4.339 9.577 19.443 14.277 26.189 8.15.454-.413 1.043-.75 1.308-.75 1.626 0 5.879-5.718 7.49-10.071.684-1.848 1.341-17.619.82-19.694l-.259-1.035-5.893.004-5.892.004-3.123 3.596c-3.683 4.24-3.668 4.237-6.13 1.355-1.053-1.233-2.475-2.853-3.159-3.6l-1.245-1.359H148.4v8.872m71.966-8.009c-.785 1.468-.279 17.325.617 19.337 3.739 8.392 5.659 10.3 13.693 13.61 1.889.778 8.069.707 9.524-.109.44-.247 1.385-.684 2.1-.972.715-.289 1.3-.66 1.3-.827 0-.166.315-.304.7-.306 1.624-.01 6.247-4.723 7.647-7.796.3-.66.705-1.513.9-1.895.194-.382.353-1.046.353-1.476 0-.43.18-.893.4-1.029.249-.154.4-3.871.4-9.824V326.4h-12.304l-1.404 1.7c-.772.935-2.288 2.671-3.369 3.857l-1.964 2.158-3.38-3.839-3.379-3.839-5.686-.018c-5.425-.018-5.707.021-6.148.844" fill="#ed1c24"/><path d="M216.5 55.882c-.495.096-.9.341-.9.546 0 .205-.265.372-.588.372-.323 0-1.178.326-1.9.724-.722.399-2.392 1.136-3.712 1.639-1.32.503-2.76 1.053-3.2 1.221-1.916.731-3.72 1.216-4.528 1.216-1.508 0-.982.842 2.98 4.776 6.319 6.274 7.026 10.724 2.418 15.229-3.602 3.522-13.126 5.012-16.77 2.623-2.638-1.728-3.646-6.918-1.718-8.846C189.707 74.257 192 74.001 192 75c0 .33-.18.6-.4.6-2.069 0 1.788 3.14 4.895 3.986 6.18 1.681 5.908-4.06-.387-8.18-3.039-1.989-5.308-4.306-5.308-5.421 0-1.447-.973-2.114-2.432-1.666-3.638 1.118-11.786 3.768-15.368 4.998-3.992 1.371-5.509 1.811-9.106 2.642-2.122.491-8.401.601-8.847.155-1.283-1.283-5.847-.69-5.847.76 0 .179-.288.326-.64.326-.351 0-1.143.54-1.76 1.2-.617.66-1.327 1.2-1.578 1.2-.577 0-13.622 13.192-13.622 13.775 0 .238-.626.971-1.391 1.629-.766.658-1.396 1.471-1.4 1.808-.005.336-.369.871-.809 1.188-.44.317-.8.897-.8 1.288 0 .392-.18.712-.4.712-.22 0-.4.36-.4.8 0 .44-.15.8-.333.8-.4 0-2.867 4.686-2.867 5.444 0 .292-.36 1.173-.8 1.956-.44.783-.8 1.768-.8 2.189 0 .42-.18.875-.4 1.011-.22.136-.4.676-.4 1.2 0 .524-.18 1.064-.4 1.2-.22.136-.4.777-.4 1.424 0 .647-.18 1.176-.4 1.176-.22 0-.4.72-.4 1.6 0 .88-.18 1.6-.4 1.6-.222 0-.4 1.059-.4 2.376 0 1.307-.18 2.488-.4 2.624-2.293 1.417-3.33 1.4 85.4 1.4s87.693.017 85.4-1.4c-.22-.136-.4-1.216-.4-2.4s-.18-2.264-.4-2.4c-.22-.136-.4-.856-.4-1.6 0-.744-.18-1.464-.4-1.6-.22-.136-.4-.777-.4-1.424 0-.647-.18-1.176-.4-1.176-.22 0-.4-.54-.4-1.2 0-.66-.18-1.2-.4-1.2-.22 0-.4-.54-.4-1.2 0-.66-.18-1.2-.4-1.2-.22 0-.4-.36-.4-.8 0-.44-.18-.8-.4-.8-.22 0-.4-.529-.4-1.176 0-.647-.18-1.288-.401-1.425-.221-.136-.76-1.036-1.199-1.999-.439-.963-.979-1.863-1.2-2-.221-.137-.753-1.018-1.181-1.959-.429-.941-1.058-1.942-1.399-2.225-.341-.282-.62-.728-.62-.99s-.54-.994-1.2-1.626c-.66-.632-1.2-1.343-1.2-1.579s-3.15-3.576-7-7.421-7-7.263-7-7.596c0-.508-.871-.608-5.5-.628-5.817-.025-12.872-.846-15.1-1.758-.44-.18-1.61-.571-2.6-.869-6.474-1.951-16.135-8.798-19.26-13.649-.673-1.045-1.25-1.875-1.282-1.846-.032.03-.463.133-.958.228m-46.606 25.057c9.457 4.932 6.363 18.973-4.359 19.781-9.267.699-14.588-11.849-7.619-17.968 3.184-2.796 8.538-3.606 11.978-1.813m76.706.286c7.467 4.386 6.681 15.792-1.294 18.776-11.63 4.351-19.791-11.325-9.56-18.364 2.827-1.945 7.915-2.138 10.854-.412m-69.518 81.907c-5.918 5.972-5.919 5.974-4.582 7.106.899.761.899.761.2-.069-1.065-1.266-1.589-.62 10.067-12.401.091-.092.083-.168-.019-.168-.102 0-2.652 2.489-5.666 5.532m52.094.001c4.793 5.109 5.324 5.815 4.897 6.499-.264.422-.31.768-.103.768 1.98 0-4.573-8.616-9.467-12.448-.387-.302 1.716 2.029 4.673 5.181m2.792 9.167c-1.937 2.084-2.928 3.3-2.69 3.3.111 0 1.141-1.08 2.289-2.4 2.318-2.664 2.572-3.236.401-.9m-57.552-.029c.008.181 1.02 1.409 2.248 2.729l2.234 2.4-1.747-2.2c-2.144-2.699-2.756-3.354-2.735-2.929m52.97 5.116c-.212.302-1.168 1.464-2.123 2.581-.956 1.118-1.658 2.032-1.56 2.032.308 0 4.396-4.835 4.229-5.002-.088-.088-.334.087-.546.389m-45.963 2.991c2.085 2.591 3.376 4.023 3.367 3.736-.005-.173-.95-1.314-2.1-2.536-1.149-1.223-1.72-1.763-1.267-1.2m3.787 4.321c.005.165.95 1.302 2.1 2.525 2.206 2.349 1.866 1.739-.628-1.125-.815-.936-1.478-1.566-1.472-1.4m33.49 2.718c-.605.711-1.1 1.409-1.1 1.552 0 .142.564-.383 1.253-1.169.69-.785 1.185-1.483 1.1-1.551-.084-.069-.648.457-1.253 1.168m-2.925 3.483l-1.175 1.3 1.3-1.175c.715-.646 1.3-1.231 1.3-1.3 0-.309-.33-.037-1.425 1.175m-24.545.985c2.369 2.649 4.141 4.386 2.975 2.915-1.896-2.391-3.368-4-3.663-4-.155 0 .155.488.688 1.085m22.025 1.915c-.701.77-1.135 1.4-.965 1.4.171 0 .813-.63 1.427-1.4 1.438-1.802 1.178-1.802-.462 0m-2.064 2.1c-.005.165-.892 1.288-1.971 2.496-1.079 1.207-1.885 2.272-1.791 2.366.094.094.224.096.288.005.065-.092 1.072-1.292 2.24-2.667 1.167-1.375 1.924-2.5 1.683-2.5-.242 0-.444.135-.449.3M197 198.37c.44.563.89 1.115 1 1.227.11.111.875.969 1.7 1.904.825.936 1.495 1.566 1.489 1.4-.006-.165-1.131-1.483-2.5-2.927-1.369-1.445-2.129-2.166-1.689-1.604m8.626 4.152l-.975 1.278 1.275-1.175c1.325-1.222 1.477-1.44.974-1.403-.165.012-.738.597-1.274 1.3m-3.464 1.778c.888 1.049 1.543 1.137 2.238.3.344-.415.359-.6.049-.6-.247 0-.449.18-.449.4 0 .618-.849.474-1.769-.3-.83-.699-.83-.699-.069.2" fill="#fbc7ab"/><path d="M177.472 163.156c-6.265 6.361-5.985 5.762-3.772 8.085.935.982 2.51 2.769 3.5 3.972.99 1.203 2.087 2.457 2.437 2.787.35.33 1.7 1.86 3 3.4 1.3 1.54 2.458 2.89 2.573 3 .116.11 1.196 1.37 2.4 2.799 1.205 1.43 2.465 2.87 2.801 3.2.337.331 1.597 1.765 2.8 3.188 1.204 1.422 2.522 2.952 2.93 3.4.407.447 2.095 2.388 3.75 4.313 3.329 3.871 3.525 3.969 4.792 2.396.485-.603 1.356-1.636 1.934-2.296.578-.66 1.801-2.087 2.717-3.172.916-1.084 2.026-2.347 2.466-2.805.44-.459 2.42-2.719 4.4-5.023 1.98-2.304 3.96-4.564 4.4-5.023.44-.458 1.61-1.804 2.6-2.991.99-1.186 2.43-2.874 3.2-3.749.77-.876 1.879-2.142 2.464-2.814.586-.673 2.071-2.371 3.3-3.773 2.829-3.227 3.096-2.436-3.01-8.898l-5.246-5.552h-40.965l-5.471 5.556" fill="#fff200"/></g></svg>