<?xml version="1.0" standalone="no"?><!DOCTYPE svg PUBLIC "-//W3C//DTD SVG 1.1//EN" "http://www.w3.org/Graphics/SVG/1.1/DTD/svg11.dtd"><svg t="1515485030680" class="icon" style="" viewBox="0 0 1024 1024" version="1.1" xmlns="http://www.w3.org/2000/svg" p-id="23061" xmlns:xlink="http://www.w3.org/1999/xlink" width="200" height="200"><defs><style type="text/css"></style></defs><path d="M512 62c247.5 0 450 202.5 450 450s-202.5 450-450 450-450-202.5-450-450 202.5-450 450-450z m123.75 663.75c-28.125 16.875-39.375 50.625-22.5 84.375s50.625 39.375 84.375 22.5c28.125-16.875 39.375-50.625 22.5-84.375s-56.25-39.375-84.375-22.5z m-123.75-39.375c-28.125 0-50.625-5.625-73.125-16.875l-39.375 73.125c56.25 28.125 123.75 33.75 185.625 16.875 5.625-45 50.625-78.75 95.625-67.5 5.625 0 11.25 0 16.875 5.625 45-45 73.125-106.875 78.75-168.75h-84.375c-11.25 90-90 157.5-180 157.5z m-174.375-174.375c0-61.875 28.125-112.5 73.125-146.25l-45-73.125c-50.625 33.75-90 90-106.875 151.875 16.875 16.875 33.75 39.375 33.75 67.5s-11.25 50.625-33.75 67.5c16.875 61.875 56.25 118.125 106.875 151.875l45-73.125c-45-33.75-73.125-90-73.125-146.25z m-129.375-61.875c-33.75 0-61.875 28.125-61.875 61.875 0 33.75 28.125 61.875 61.875 61.875 33.75 0 61.875-28.125 61.875-61.875-5.625-33.75-33.75-61.875-61.875-61.875z m303.75-112.5c90 0 168.75 67.5 174.375 157.5h84.375c-5.625-61.875-33.75-123.75-78.75-168.75-45 16.875-90-5.625-106.875-50.625 0-5.625-5.625-11.25-5.625-16.875-22.5-5.625-45-11.25-67.5-11.25-39.375 0-78.75 11.25-118.125 28.125l39.375 73.125c28.125-5.625 50.625-11.25 78.75-11.25z m123.75-39.375c28.125 16.875 67.5 5.625 84.375-22.5 16.875-28.125 5.625-67.5-28.125-78.75-28.125-16.875-61.875-5.625-78.75 22.5-16.875 28.125-5.625 61.875 22.5 78.75z" fill="#e0620d" p-id="23062"></path></svg>