<?xml version="1.0" standalone="no"?><!DOCTYPE svg PUBLIC "-//W3C//DTD SVG 1.1//EN" "http://www.w3.org/Graphics/SVG/1.1/DTD/svg11.dtd"><svg t="1515485045241" class="icon" style="" viewBox="0 0 1024 1024" version="1.1" xmlns="http://www.w3.org/2000/svg" p-id="23753" xmlns:xlink="http://www.w3.org/1999/xlink" width="200" height="200"><defs><style type="text/css"></style></defs><path d="M100.352 265.216s26.624-73.728 126.976-130.048c59.392-32.768 150.528-49.152 226.304-8.192 97.28 53.248 115.712 146.432 92.16 219.136C494.592 512 327.68 500.736 260.096 642.048c-48.128 99.328-2.048 192.512 18.432 220.16 60.416 84.992 137.216 84.992 137.216 84.992s-131.072 13.312-220.16-61.44c-38.912-32.768-81.92-93.184-90.112-156.672C76.8 522.24 245.76 459.776 273.408 359.424c20.48-74.752-28.672-117.76-66.56-124.928-64.512-14.336-106.496 30.72-106.496 30.72z" fill="#F08300" p-id="23754"></path><path d="M373.76 779.264c0-30.72 24.576-55.296 55.296-55.296 30.72 0 55.296 24.576 55.296 55.296 0 30.72-24.576 55.296-55.296 55.296-30.72 0-55.296-24.576-55.296-55.296z m-68.608 0c0-68.608 55.296-123.904 123.904-123.904C497.664 655.36 552.96 710.656 552.96 779.264c0 68.608-55.296 123.904-123.904 123.904-68.608 0-123.904-55.296-123.904-123.904z" fill="#F08300" p-id="23755"></path><path d="M630.784 945.152c-76.8 2.048-161.792 2.048-161.792 2.048 198.656-57.344 167.936-320.512-18.432-340.992-100.352-9.216-153.6 63.488-153.6 63.488s29.696-112.64 165.888-113.664c78.848-1.024 167.936 53.248 201.728 132.096 43.008 101.376 5.12 186.368 5.12 186.368s38.912 0 66.56 12.288c45.056 20.48 49.152 49.152 49.152 49.152s-58.368 6.144-154.624 9.216z" fill="#F08300" p-id="23756"></path><path d="M720.896 686.08s-83.968-186.368-293.888-166.912c0 0 62.464-46.08 206.848-3.072 108.544 31.744 112.64 82.944 236.544 94.208 78.848 7.168 75.776 59.392 75.776 59.392s-47.104-24.576-107.52 6.144c-72.704 36.864-117.76 10.24-117.76 10.24zM702.464 497.664c-101.376-41.984-162.816-33.792-162.816-33.792s77.824-30.72 120.832-56.32c48.128-28.672 57.344-43.008 57.344-43.008s-2.048-33.792 9.216-69.632c10.24-31.744 26.624-47.104 26.624-47.104s12.288 11.264 22.528 30.72c13.312 25.6 17.408 54.272 17.408 54.272s70.656 16.384 111.616 77.824c46.08 68.608 35.84 139.264 35.84 139.264s-15.36 11.264-53.248 13.312c-82.944 6.144-96.256-28.672-185.344-65.536z" fill="#F08300" p-id="23757"></path></svg>