<?xml version="1.0" standalone="no"?><!DOCTYPE svg PUBLIC "-//W3C//DTD SVG 1.1//EN" "http://www.w3.org/Graphics/SVG/1.1/DTD/svg11.dtd"><svg t="1515485217070" class="icon" style="" viewBox="0 0 1024 1024" version="1.1" xmlns="http://www.w3.org/2000/svg" p-id="28211" xmlns:xlink="http://www.w3.org/1999/xlink" width="200" height="200"><defs><style type="text/css"></style></defs><path d="M513.42336 0.56832c282.5216 0 511.5136 229.03808 511.5136 511.5136 0 282.51648-228.992 511.55968-511.5136 511.55968S1.86368 794.5984 1.86368 512.08192C1.86368 229.61152 230.90176 0.56832 513.42336 0.56832z" fill="#B7F5BA" p-id="28212"></path><path d="M522.04544 213.3504c-60.75904 0-108.37504 17.23904-142.848 52.5056-34.42688 34.47296-51.6608 81.2544-51.6608 141.16864h86.13888c0-36.06016 7.40864-64.01024 22.17984-83.67616 16.39936-23.85408 43.50976-35.31264 80.4096-35.31264 29.5424 0 53.3504 8.19712 69.79584 24.59648 15.5648 16.45056 23.808 38.5792 23.808 67.32288 0 21.34016-8.2432 41.04704-23.0144 59.91424l-13.9264 15.60576c-50.88256 45.1072-82.09408 78.78656-92.76928 101.76-11.46368 21.32992-16.39936 47.60576-16.39936 77.98784v13.93152h87.81824v-13.93152c0-19.712 4.10624-37.7344 13.1328-54.18496 7.36256-14.77632 18.87744-29.53728 34.43712-42.68032 38.57408-33.68448 61.5936-55.02464 68.95616-64.02048 20.54656-26.27072 31.21664-59.90912 31.21664-100.11648 0-49.24416-16.45056-88.66304-49.24928-117.40672-32.83968-29.53728-75.52-43.46368-128.0256-43.46368z m-14.7712 480.11776c-16.4352 0-31.21152 4.92544-42.72128 16.39424-11.45856 10.71616-17.18784 24.63744-17.18784 41.88672 0 16.4352 5.7344 30.37696 17.18784 41.88672 11.50976 11.45856 26.28096 17.22368 42.72128 17.22368 16.40448 0 31.16544-5.76512 42.68032-16.4352 11.45856-11.50976 18.0224-25.43616 18.0224-42.6752 0-17.24928-5.72416-31.17056-17.23392-41.88672-11.50464-11.4688-26.27584-16.39424-43.4688-16.39424z" fill="#00BA76" p-id="28213"></path></svg>