<?xml version="1.0" standalone="no"?><!DOCTYPE svg PUBLIC "-//W3C//DTD SVG 1.1//EN" "http://www.w3.org/Graphics/SVG/1.1/DTD/svg11.dtd"><svg t="1527170754460" class="icon" style="" viewBox="0 0 1024 1024" version="1.1" xmlns="http://www.w3.org/2000/svg" p-id="5172" xmlns:xlink="http://www.w3.org/1999/xlink" width="200" height="200"><defs><style type="text/css"></style></defs><path d="M279.50186667 280.49493333c-11.32693333 0-22.59093333 4.608-30.52586667 12.60693334-7.936 8-12.60693333 19.13493333-12.60693333 30.52586666 0 11.26293333 4.608 22.52693333 12.60693333 30.52586667 8 7.872 19.19893333 12.54293333 30.52586667 12.54293333 11.26293333 0 22.52693333-4.672 30.46186666-12.60693333 8-8 12.60693333-19.26293333 12.60693334-30.46186667 0-11.39093333-4.608-22.52693333-12.60693334-30.52586666-7.936-8-19.19893333-12.60693333-30.46186666-12.60693334zM605.9456 512.80106667c-8.83093333 0-17.59893333 3.648-23.87093333 9.85493333s-9.91893333 14.97493333-9.91893334 23.87093333 3.648 17.59893333 9.85493334 23.87093334 15.10293333 9.85493333 23.93493333 9.85493333 17.59893333-3.648 23.87093333-9.85493333 9.85493333-14.97493333 9.85493334-23.87093334-3.648-17.59893333-9.85493334-23.87093333-15.10293333-9.85493333-23.87093333-9.85493333zM499.45706667 366.6976c11.26293333 0 22.52693333-4.672 30.52586666-12.60693333 7.936-8 12.54293333-19.26293333 12.54293334-30.52586667 0-11.39093333-4.608-22.52693333-12.54293334-30.52586667-8.06293333-7.936-19.32693333-12.54293333-30.52586666-12.54293333-11.32693333 0-22.52693333 4.608-30.52586667 12.60693333s-12.60693333 19.13493333-12.60693333 30.52586667c0 11.26293333 4.608 22.52693333 12.60693333 30.52586667 8 7.872 19.19893333 12.54293333 30.52586667 12.54293333zM857.96266667 0h-691.9264c-91.64266667 0-165.8784 74.49173333-165.8784 166.4544v691.09546667c0 91.9616 74.23573333 166.4544 165.8784 166.4544h691.9904c91.64266667 0 165.8784-74.49173333 165.8784-166.4544v-691.09546667c-0.064-91.9616-74.3008-166.4544-165.9424-166.4544zM384.32853333 686.03946667c-38.71786667 0-69.94666667-7.936-108.72853333-15.55093334l-108.47253333 54.3968 31.03786666-93.3696c-77.69066667-54.3328-124.15253333-124.28053333-124.15253333-209.4592 0-147.76746667 139.76853333-263.984 310.3808-263.984 152.63146667 0 286.31786667 92.8576 313.1328 217.9712-9.85493333-1.15306667-19.83893333-1.856-29.88586667-1.856-147.44853333 0-263.856 110.07253333-263.856 245.61706667 0 22.65493333 3.52 44.2848 9.53493334 65.08266667-9.59893333 0.64106667-19.26293333 1.15306667-28.98986667 1.15306666zM842.09173333 794.768l23.35893334 77.49866667-85.11466667-46.6528c-31.03786667 7.80906667-62.26666667 15.61493333-93.1776 15.61493333-147.63946667 0-263.92-100.9216-263.92-225.26613333 0-124.08853333 116.28053333-225.26613333 263.92-225.26613334 139.51253333 0 263.664 101.1136 263.664 225.26613334 0 70.07573333-46.3968 132.02346667-108.72853333 178.80533333zM775.024 512.80106667c-8.83093333 0-17.59893333 3.648-23.87093333 9.85493333s-9.85493333 14.97493333-9.85493334 23.87093333 3.648 17.59893333 9.85493334 23.87093334 15.03893333 9.85493333 23.87093333 9.85493333 17.59893333-3.648 23.87093333-9.85493333 9.85493333-14.97493333 9.85493334-23.87093334-3.648-17.59893333-9.85493334-23.87093333-15.03893333-9.85493333-23.87093333-9.85493333z" fill="#32CD32" p-id="5173"></path></svg>