<?xml version="1.0" standalone="no"?><!DOCTYPE svg PUBLIC "-//W3C//DTD SVG 1.1//EN" "http://www.w3.org/Graphics/SVG/1.1/DTD/svg11.dtd"><svg t="1515485829239" class="icon" style="" viewBox="0 0 1024 1024" version="1.1" xmlns="http://www.w3.org/2000/svg" p-id="7925" xmlns:xlink="http://www.w3.org/1999/xlink" width="200" height="200"><defs><style type="text/css"></style></defs><path d="M915.968 291.2c35.84 65.536 56.32 140.8 56.32 220.8 0 169.792-92.032 318.08-228.864 397.888L884.032 503.36c26.24-65.664 35.008-118.208 35.008-164.864 0-17.28-1.152-33.28-3.072-47.36z m-340.48 4.416c27.648-1.28 52.608-4.48 52.608-4.48 24.832-3.2 21.888-39.68-2.88-38.4 0 0-74.88 5.76-122.88 5.76-45.44 0-121.6-6.4-121.6-6.4-24.96-1.28-28.16 36.48-3.2 37.76 0 0 23.04 2.56 48 3.84l71.68 196.48-101.12 302.08L228.48 294.4c27.648-1.28 52.608-4.288 52.608-4.288 24.96-3.2 22.016-39.68-2.816-38.208 0 0-74.496 5.888-122.624 5.888-8.512 0-18.688-0.32-29.44-0.64C209.536 134.4 351.36 51.84 512 51.84c119.808 0 228.928 45.76 310.848 120.832-1.92-0.128-3.84-0.384-5.952-0.384-45.248 0-77.312 39.36-77.312 81.664 0 37.952 21.888 70.08 45.184 107.968 17.536 30.72 38.016 70.08 38.016 126.976 0 39.04-15.168 85.12-35.072 148.48l-45.888 152.96-166.4-495.36zM512 972.16c-45.184 0-88.768-6.592-130.048-18.688l138.112-401.28 141.44 387.648a67.033 67.033 0 0 0 3.328 6.4c-47.808 16.768-99.2 26.048-152.832 26.048zM51.648 512c0-66.752 14.336-130.112 39.872-187.328l219.52 601.6C157.632 851.648 51.712 694.208 51.712 512zM512 0C229.76 0 0 229.76 0 512s229.76 512 512 512 512-229.76 512-512S794.24 0 512 0z" fill="#21759B" p-id="7926"></path></svg>