<?xml version="1.0" standalone="no"?><!DOCTYPE svg PUBLIC "-//W3C//DTD SVG 1.1//EN" "http://www.w3.org/Graphics/SVG/1.1/DTD/svg11.dtd"><svg t="1515472174568" class="icon" style="" viewBox="0 0 1024 1024" version="1.1" xmlns="http://www.w3.org/2000/svg" p-id="2446" xmlns:xlink="http://www.w3.org/1999/xlink" width="200" height="200"><defs><style type="text/css"></style></defs><path d="M970.592 611.424c27.52 0 49.92-22.304 49.92-49.952V459.84a49.92 49.92 0 0 0-49.92-49.92h-56.16l-0.128-0.192a406.08 406.08 0 0 0-45.376-109.12l39.136-39.2a50.016 50.016 0 0 0 0-70.56L836.16 118.976a49.92 49.92 0 0 0-70.624 0.032l-39.104 39.136A405.888 405.888 0 0 0 618.24 112.96a4592.32 4592.32 0 0 1-0.608-56.48A49.856 49.856 0 0 0 567.744 6.912h-101.6a49.92 49.92 0 0 0-49.888 50.304l0.48 54.592c-39.808 8.448-77.344 25.6-111.712 46.144L266.112 118.976a49.792 49.792 0 0 0-70.56 0L123.584 190.912a49.92 49.92 0 0 0 0 70.56l39.136 39.136a409.504 409.504 0 0 0-45.312 109.12c-0.032 0.128-0.032 0.16-0.096 0.192H62.848a49.92 49.92 0 0 0-49.92 49.92v101.728a49.92 49.92 0 0 0 49.92 49.952h54.208l-1.344-5.856c0.48 1.856 0.864 3.776 1.344 5.6a406.88 406.88 0 0 0 45.728 110.56l-39.104 39.072c-9.376 9.312-14.624 22.016-14.624 35.328s5.248 25.952 14.624 35.328l71.904 71.936c9.344 9.312 22.016 14.624 35.264 14.624 13.216 0 25.952-5.312 35.296-14.624l39.072-39.136a407.808 407.808 0 0 0 111.616 46.016l-0.48 53.984a49.76 49.76 0 0 0 49.888 50.304h101.6c27.392 0 49.728-22.144 49.92-49.6 0.192-27.2 0.384-55.424 0.608-55.456a409.44 409.44 0 0 0 108.128-45.152l39.104 39.072a49.888 49.888 0 0 0 70.56 0l71.904-71.776a50.08 50.08 0 0 0 0-70.624l-39.168-39.168a409.568 409.568 0 0 0 45.824-110.304h55.936l-0.064-0.224z m-454.72 40.064a140.352 140.352 0 0 1 0-280.64 140.32 140.32 0 0 1 0 280.64z" p-id="2447"></path></svg>