<!DOCTYPE svg PUBLIC "-//W3C//DTD SVG 20010904//EN" "http://www.w3.org/TR/2001/REC-SVG-20010904/DTD/svg10.dtd">
<svg version="1.0" xmlns="http://www.w3.org/2000/svg" width="960px" height="314px" viewBox="0 0 9600 3140" preserveAspectRatio="xMidYMid meet">
<g id="layer101" fill="#a5d12e" stroke="none">
 <path d="M621 2526 c-31 -32 -33 -38 -26 -78 14 -84 11 -294 -4 -311 -11 -13 -11 -20 -1 -32 8 -10 11 -55 9 -152 -2 -76 0 -144 4 -150 12 -19 35 -16 68 8 l29 20 -5 140 c-3 95 -1 139 6 139 6 0 23 -12 38 -27 36 -37 104 -72 151 -79 57 -9 123 30 166 98 19 30 22 42 14 63 -6 15 -8 31 -5 36 3 5 -9 37 -27 71 -34 64 -123 158 -150 158 -8 0 -23 9 -33 20 -10 11 -25 20 -33 20 -8 0 -43 20 -79 45 -35 25 -70 45 -77 45 -6 0 -27 -15 -45 -34z m198 -168 c85 -44 151 -123 151 -182 0 -55 -13 -66 -76 -66 -47 0 -56 4 -98 43 -43 39 -48 48 -63 122 -17 83 -14 115 10 115 8 0 42 -14 76 -32z"/>
 </g>
<g id="layer102" fill="#f0bc12" stroke="none">
 <path d="M9120 1849 c-60 -34 -117 -106 -139 -176 -11 -34 -35 -83 -53 -107 -18 -25 -48 -69 -66 -99 -18 -30 -44 -65 -58 -78 -32 -30 -63 -89 -80 -154 -17 -64 2 -137 53 -197 51 -62 62 -67 131 -68 61 0 70 2 122 30 14 8 43 23 65 34 154 79 370 314 419 456 20 59 20 133 0 173 -24 46 -85 116 -114 131 -14 7 -42 22 -63 34 -21 12 -46 22 -57 22 -10 0 -22 5 -25 10 -11 17 -98 10 -135 -11z"/>
 <path d="M2251 1538 c-103 -103 -142 -173 -145 -260 -1 -45 1 -49 63 -107 36 -34 69 -61 74 -61 5 0 22 -9 38 -21 47 -33 116 -8 215 78 150 130 152 291 5 417 -50 42 -60 46 -106 46 -50 0 -50 0 -144 -92z"/>
 <path d="M5240 1280 c-8 -5 -54 -10 -101 -10 -109 0 -163 -25 -220 -100 -67 -89 -72 -141 -30 -270 25 -75 33 -89 72 -117 34 -25 56 -32 104 -36 33 -3 94 -10 135 -16 44 -6 100 -8 135 -3 l60 7 3 55 c1 30 -4 154 -10 275 l-13 220 -60 2 c-33 2 -67 -2 -75 -7z"/>
 <path d="M5993 1253 c-4 -10 -7 -148 -8 -308 l0 -290 194 -3 c123 -1 198 1 205 8 5 5 23 10 39 10 50 0 157 81 189 144 23 44 45 215 35 258 -11 41 -59 91 -114 117 -26 13 -56 27 -65 32 -10 5 -29 9 -42 9 -14 0 -28 5 -31 10 -4 6 -62 10 -140 10 -78 0 -136 4 -140 10 -3 6 -31 10 -61 10 -43 0 -56 -4 -61 -17z"/>
 </g>
<g id="layer103" fill="#db1d73" stroke="none">
 <path d="M5485 3033 c-11 -3 -24 -9 -29 -14 -6 -5 -27 -9 -47 -9 -21 0 -41 -4 -44 -10 -3 -5 -21 -10 -40 -10 -19 0 -37 -4 -40 -10 -3 -5 -17 -10 -31 -10 -13 0 -32 -4 -42 -9 -9 -5 -37 -18 -62 -29 -186 -82 -241 -117 -304 -189 -76 -87 -90 -110 -116 -182 -32 -90 -31 -188 1 -232 38 -51 103 -114 154 -149 64 -44 193 -110 216 -110 10 0 21 -4 24 -10 3 -5 19 -10 35 -10 16 0 32 -4 35 -10 3 -5 17 -10 30 -10 13 0 27 -4 30 -10 3 -5 25 -10 49 -10 35 0 45 -4 56 -25 11 -20 11 -27 0 -40 -14 -17 -54 -17 -198 1 -34 4 -58 2 -66 -5 -8 -7 -32 -11 -54 -10 -31 2 -49 -4 -87 -32 -58 -41 -109 -118 -107 -161 0 -10 -3 -20 -9 -23 -5 -4 -9 -28 -9 -54 0 -49 51 -173 81 -198 33 -27 92 -53 119 -53 16 0 32 -4 35 -10 3 -5 19 -10 35 -10 16 0 32 -4 35 -10 3 -5 41 -10 84 -10 43 0 81 -3 85 -8 4 -4 12 -8 17 -8 5 -1 13 -2 19 -3 14 -2 18 -43 31 -339 7 -150 15 -275 19 -277 4 -3 6 -27 4 -54 -2 -28 1 -53 6 -56 5 -3 9 -42 8 -85 0 -49 4 -85 11 -94 7 -8 11 -34 10 -58 -2 -24 0 -48 3 -53 3 -6 11 -28 17 -51 21 -77 135 -194 190 -194 11 0 23 -4 26 -10 3 -5 30 -10 60 -10 30 0 57 5 60 10 3 6 15 10 26 10 41 0 120 63 149 120 27 54 29 81 35 445 4 187 8 412 10 500 l3 160 39 -1 c178 -7 407 -4 416 5 6 6 24 11 39 11 16 0 36 4 46 9 9 5 33 15 52 24 56 23 99 65 130 126 45 90 61 206 39 284 -12 43 -73 117 -97 117 -8 0 -24 8 -35 18 -17 15 -46 17 -235 20 -146 2 -223 0 -237 -8 -12 -6 -43 -10 -70 -8 -38 2 -51 7 -53 21 -2 11 3 17 17 17 11 0 22 4 25 9 3 5 34 9 68 10 34 0 66 5 72 11 5 5 21 10 35 10 27 0 96 21 107 33 4 4 15 7 25 7 22 0 182 78 303 149 179 103 244 172 267 279 16 78 7 179 -21 238 -25 53 -174 209 -190 199 -5 -3 -18 0 -30 7 -16 10 -24 10 -40 0 -11 -6 -26 -12 -34 -12 -27 0 -93 -42 -163 -103 -150 -132 -295 -217 -369 -217 l-42 0 -26 70 c-55 149 -209 299 -371 361 -21 8 -162 40 -167 38 -2 -1 -12 -3 -23 -6z m-67 -531 c2 -14 -3 -24 -15 -28 -10 -3 -26 -10 -35 -15 -25 -13 -45 -11 -73 7 -24 16 -33 43 -18 58 4 4 37 6 73 4 59 -3 65 -5 68 -26z"/>
 <path d="M815 2840 c-3 -5 -21 -10 -40 -10 -19 0 -37 -4 -40 -10 -3 -5 -15 -10 -26 -10 -10 0 -27 -4 -37 -9 -9 -5 -39 -19 -67 -32 -68 -32 -126 -71 -217 -147 -79 -66 -191 -202 -193 -234 -1 -10 -10 -27 -20 -38 -10 -12 -19 -28 -20 -38 -2 -26 -27 -126 -34 -137 -18 -28 5 -125 47 -204 74 -139 139 -206 309 -319 101 -68 133 -87 223 -132 11 -5 26 -10 34 -10 8 0 24 -12 35 -26 17 -22 21 -41 21 -99 0 -70 -1 -73 -25 -79 -14 -4 -30 -4 -35 -1 -6 4 -72 6 -148 6 -135 0 -140 -1 -198 -31 -32 -17 -66 -38 -74 -45 -8 -7 -19 -13 -24 -12 -4 1 -15 -18 -23 -43 -7 -25 -19 -55 -25 -67 -15 -30 -5 -152 16 -193 9 -18 16 -39 16 -45 0 -7 18 -24 40 -39 34 -23 50 -26 119 -26 44 0 83 -5 86 -10 8 -13 72 -13 80 0 8 13 102 13 110 0 3 -5 19 -10 35 -10 l29 0 0 -177 c0 -149 3 -188 20 -238 26 -81 50 -125 66 -125 8 0 30 -9 50 -20 20 -11 44 -20 53 -20 10 0 22 -4 27 -9 12 -12 32 -14 120 -12 68 1 72 2 117 44 38 35 50 55 71 123 16 50 28 116 31 175 3 52 9 118 12 147 l6 53 65 -3 c36 -1 67 -6 69 -10 3 -5 38 -8 79 -8 41 0 77 -4 80 -10 8 -13 192 -13 200 0 3 5 16 10 27 10 35 0 85 47 125 118 36 64 38 71 38 161 l0 93 -48 44 c-27 24 -57 44 -66 44 -9 0 -21 4 -26 9 -13 11 -92 32 -141 37 -22 2 -64 7 -94 10 -30 3 -59 10 -64 15 -6 5 -49 9 -98 9 -79 0 -88 2 -99 21 -24 45 -18 129 8 129 8 0 27 6 41 14 15 8 47 19 72 26 25 7 62 21 83 31 22 10 49 19 62 19 13 0 27 5 30 10 3 6 17 10 31 10 13 0 32 4 42 9 36 19 109 49 147 61 60 19 206 122 260 182 26 29 66 91 89 138 l41 85 -1 125 c-2 102 -7 140 -27 205 -47 152 -124 313 -188 395 -27 36 -98 80 -127 80 -8 0 -24 8 -35 17 -22 21 -156 31 -191 15 -11 -5 -37 -17 -57 -26 -44 -19 -139 -120 -139 -147 0 -11 -5 -28 -12 -38 -17 -28 24 -100 90 -157 29 -25 62 -62 73 -82 11 -20 31 -55 44 -77 16 -28 24 -56 24 -96 1 -48 -3 -59 -26 -81 -45 -41 -90 -68 -111 -68 -12 0 -24 -4 -27 -10 -3 -5 -17 -10 -30 -10 -13 0 -27 -4 -30 -10 -8 -13 -83 -10 -94 4 -5 6 -12 34 -15 61 -3 28 -8 75 -11 105 -13 110 -74 373 -93 394 -10 12 -31 40 -47 64 -31 47 -122 134 -170 164 -19 11 -49 18 -82 18 -28 0 -55 5 -58 10 -3 6 -35 10 -70 10 -35 0 -67 -4 -70 -10z m-89 -322 c15 -13 61 -39 101 -60 87 -43 191 -130 200 -166 3 -14 12 -37 19 -51 8 -14 14 -51 14 -81 0 -52 -3 -59 -37 -92 -67 -63 -176 -62 -263 4 -29 22 -58 37 -66 34 -11 -4 -14 -35 -14 -144 0 -128 -2 -140 -21 -158 -15 -14 -24 -16 -37 -7 -15 9 -17 41 -19 324 -1 173 -2 327 -2 343 -2 37 34 76 69 76 15 0 40 -10 56 -22z"/>
 <path d="M3405 2740 c-3 -5 -17 -10 -30 -10 -67 0 -233 -137 -302 -249 -81 -132 -159 -318 -178 -426 -4 -22 -12 -48 -17 -58 -14 -27 -12 -460 2 -486 6 -12 10 -40 10 -64 -1 -39 3 -62 30 -185 6 -23 10 -67 10 -97 0 -29 5 -57 10 -60 6 -3 9 -33 9 -66 -1 -33 4 -65 10 -73 7 -8 11 -23 10 -33 -1 -10 3 -31 9 -46 7 -16 12 -33 12 -39 0 -19 26 -97 52 -158 31 -72 148 -180 195 -180 7 0 23 -5 36 -12 50 -25 58 -28 95 -28 21 0 44 -6 50 -12 10 -10 17 -10 32 0 11 6 38 12 60 12 70 0 146 51 169 113 29 77 -4 234 -82 392 -42 83 -58 133 -102 300 -50 189 -75 491 -52 625 25 144 69 210 141 210 28 0 102 -79 113 -120 3 -14 16 -46 29 -72 13 -26 26 -61 27 -78 2 -16 7 -33 10 -37 4 -3 7 -23 7 -44 0 -47 31 -101 67 -118 16 -8 36 -17 45 -22 23 -12 105 -12 113 0 3 5 19 9 35 9 17 -1 41 4 53 9 145 68 184 100 221 183 24 53 28 73 24 129 -3 58 -13 85 -79 221 -53 108 -99 186 -154 258 -86 114 -205 228 -247 237 -15 4 -30 11 -33 16 -4 5 -17 9 -30 9 -13 0 -27 5 -30 10 -3 6 -21 10 -40 10 -19 0 -37 5 -40 10 -3 6 -48 10 -100 10 -52 0 -97 4 -100 10 -3 6 -19 10 -35 10 -16 0 -32 -4 -35 -10z"/>
 <path d="M8115 2560 c-3 -5 -24 -10 -45 -10 -36 0 -48 -9 -155 -112 -105 -100 -205 -215 -205 -233 0 -4 -13 -27 -30 -52 -16 -24 -30 -46 -30 -49 0 -3 -15 -29 -34 -57 -19 -29 -42 -70 -51 -92 -9 -22 -25 -58 -35 -80 -9 -22 -23 -60 -31 -85 -7 -25 -16 -49 -19 -55 -4 -5 -10 -21 -13 -35 -3 -14 -17 -70 -31 -125 -14 -55 -26 -120 -26 -145 0 -26 -5 -51 -12 -58 -16 -16 -12 -223 4 -272 24 -69 126 -170 172 -170 16 0 26 -4 73 -28 13 -7 34 -12 48 -12 14 0 34 -5 44 -11 40 -25 107 15 140 84 23 47 27 69 36 192 6 93 16 192 20 218 2 10 6 46 9 80 13 128 67 332 111 417 40 78 116 132 158 112 12 -5 48 -22 79 -37 32 -14 60 -30 63 -35 3 -5 22 -17 41 -26 75 -36 162 21 204 134 18 48 19 82 5 165 -6 40 -18 60 -62 108 -30 32 -60 59 -65 59 -6 0 -38 26 -73 58 -65 61 -150 115 -206 134 -19 6 -42 15 -51 19 -22 11 -25 11 -33 -1z"/>
 </g>

</svg>