<?xml version="1.0" standalone="no"?><!DOCTYPE svg PUBLIC "-//W3C//DTD SVG 1.1//EN" "http://www.w3.org/Graphics/SVG/1.1/DTD/svg11.dtd"><svg t="1516334075859" class="icon" style="" viewBox="0 0 1024 1024" version="1.1" xmlns="http://www.w3.org/2000/svg" p-id="5193" xmlns:xlink="http://www.w3.org/1999/xlink" width="200" height="200"><defs><style type="text/css"></style></defs><path d="M512 64C264.64 64 64 264.64 64 512c0 247.424 200.64 448 448 448 247.424 0 448-200.576 448-448C960 264.64 759.424 64 512 64zM448 635.584c0 23.552-18.432 42.688-41.216 42.624-22.656 0.064-41.088-19.072-41.088-42.56L365.696 383.04c0-23.68 18.432-42.688 41.152-42.688C429.568 340.224 448 359.488 448 382.976L448 635.584zM658.24 635.584c0 23.552-18.432 42.688-41.216 42.624C594.368 678.272 576 659.136 576 635.648L576 383.04c0-23.68 18.432-42.688 41.152-42.688 22.656-0.128 41.152 19.136 41.152 42.624L658.304 635.584z" p-id="5194" fill="#d81e06"></path></svg>