<?xml version="1.0" standalone="no"?><!DOCTYPE svg PUBLIC "-//W3C//DTD SVG 1.1//EN" "http://www.w3.org/Graphics/SVG/1.1/DTD/svg11.dtd"><svg t="1515581212596" class="icon" style="" viewBox="0 0 1024 1024" version="1.1" xmlns="http://www.w3.org/2000/svg" p-id="1419" xmlns:xlink="http://www.w3.org/1999/xlink" width="200" height="200"><defs><style type="text/css"></style></defs><path d="M701.515 301.152c-44.44-46.092-100.245-64.919-163.08-65.107-29.552-0.089-58.595 4.617-87.095 12.455-28.961 7.965-56.673 18.839-81.996 35.306-3.347 2.176-4.69 4.686-4.695 8.694-0.034 29.713-0.333 59.424-0.426 89.137-0.085 27.263-0.018 54.527-0.021 81.79-0.004 56.836 0.053 113.674-0.097 170.51-0.015 5.326 1.57 8.393 6.639 10.576 17.881 7.7 36.245 13.85 55.161 18.37 30.808 7.36 62.082 10.876 93.715 12.36 33.75 1.583 66.83-1.28 98.832-12.378 61.328-21.265 105.46-61.217 129.447-121.99 15.492-39.25 17.417-80.058 10.877-121.393-7.146-45.173-25.384-85.268-57.26-118.33z" fill="#0074AA" p-id="1420"></path><path d="M512 17.482C238.886 17.482 17.482 238.886 17.482 512S238.886 1006.518 512 1006.518 1006.518 785.114 1006.518 512 785.114 17.482 512 17.482z m327.127 530.516c-18.962 47.58-50.687 84.816-92.709 113.517-43.734 29.872-92.452 46.554-144.647 53.74-66.355 9.136-131.115 0.236-195.108-17.307-12.485-3.423-24.767-7.483-37.009-11.676-4.732-1.62-5.413-1.201-5.42 3.878-0.049 33.583 0.004 67.165-0.069 100.748-0.008 3.782 1.314 5.86 5.093 7.004 7.233 2.187 14.26 5.003 20.384 9.602 3.594 2.699 6.19 5.968 5.824 10.873-0.43 5.752-3.64 8.957-9.432 8.968-19.872 0.039-39.744 0.014-59.617 0.014-19.41 0.006-38.82-0.103-58.23 0.082-4.736 0.045-8.025-1.288-9.814-5.842-1.798-4.575-0.752-8.45 2.566-11.847 5.698-5.833 13.181-8.404 20.593-11 7.625-2.668 7.8-0.933 7.8-10.86-0.02-151.738-0.02-303.476-0.076-455.215-0.001-2.353 1.227-5.726-1.09-6.829-2.297-1.094-4.167 1.976-6 3.442-22.584 18.058-43.474 37.783-60.052 61.694-0.527 0.76-1.03 1.537-1.588 2.273-5.878 7.727-9.827 15.6-5.76 25.855 1.946 4.91 1.707 10.59 0.282 15.968-0.937 3.532-2.436 6.64-5.44 8.865-5.016 3.718-8.469 3.16-11.788-2.085-12.847-20.308-25.59-40.682-38.532-60.928-2.117-3.313-1.999-5.634 0.715-8.492 17.758-18.692 37.058-35.675 57.256-51.635 51.148-40.413 106.911-72.725 168.335-94.902 40.036-14.455 81.234-23.72 123.709-27.312 49.596-4.194 98.488-0.765 146.365 13.295 50.8 14.919 95.584 40.146 131.966 79.103 36.324 38.896 58.162 84.856 65.163 137.62 5.425 40.866 1.694 80.839-13.67 119.389z" fill="#0074AA" p-id="1421"></path></svg>