<?xml version="1.0" standalone="no"?><!DOCTYPE svg PUBLIC "-//W3C//DTD SVG 1.1//EN" "http://www.w3.org/Graphics/SVG/1.1/DTD/svg11.dtd"><svg t="1515581306127" class="icon" style="" viewBox="0 0 1157 1024" version="1.1" xmlns="http://www.w3.org/2000/svg" p-id="1669" xmlns:xlink="http://www.w3.org/1999/xlink" width="225.9765625" height="200"><defs><style type="text/css"></style></defs><path d="M1012.973037 122.680889C922.168889 44.885333 795.003259 0 647.205926 0 262.011259 0 0 291.422815 0 291.422815l73.832296 114.87763c0 0 40.846222 3.356444 19.218963-64.312889 18.669037-34.569481 55.220148-81.133037 126.587259-134.874074 0 0 0 725.807407 0 765.184-30.767407 8.51437-71.433481 24.519111-43.70963 51.693037 47.331556 0 176.905481 0 212.091259 0 27.998815-27.45837-16.109037-43.984593-42.979556-51.693037 0-29.534815 0-180.508444 0-180.508444s145.417481 55.959704 302.165333 55.959704c137.737481 0 263.044741-40.173037 356.257185-112.734815 93.202963-72.144593 153.27763-179.873185 152.907852-302.999704C1156.645926 311.125333 1103.862519 200.182519 1012.973037 122.680889zM900.570074 674.616889c-64.455111 62.388148-158.179556 101.840593-266.30637 101.764741-120.623407 0.056889-222.170074-22.840889-289.21363-55.201185 0 0 0-19.806815 0-164.437333 0-156.453926 0-409.647407 0-409.647407 73.557333-51.237926 192.872296-82.811259 289.21363-82.62163 117.05837 0.085333 208.981333 43.444148 271.122963 109.255111 62.046815 66.199704 95.924148 154.130963 96.227556 256.341333C1001.244444 529.673481 965.025185 611.707259 900.570074 674.616889z" p-id="1670" fill="#404040"></path></svg>