<?xml version="1.0"?>
<svg xmlns="http://www.w3.org/2000/svg" xmlns:xlink="http://www.w3.org/1999/xlink" version="1.1" id="Capa_1" x="0px" y="0px" width="512px" height="512px" viewBox="0 0 440.982 440.983" style="enable-background:new 0 0 440.982 440.983;" xml:space="preserve"><g><g>
	<path d="M376.497,64.677c-86.055-86.16-225.66-86.246-311.821-0.191c-86.159,86.055-86.246,225.659-0.19,311.822   c86.053,86.157,225.661,86.243,311.821,0.188C462.467,290.444,462.553,150.837,376.497,64.677z M220.49,367.665   c-81.199,0-147.26-66.062-147.26-147.259c0-25.983,6.87-51.536,19.87-73.894l-11.404-13.016c-1.649-1.881-2.167-4.499-1.364-6.865   c0.805-2.367,2.813-4.127,5.266-4.613l77.536-16.767c2.451-0.486,4.978,0.372,6.625,2.253c1.647,1.879,2.169,4.494,1.362,6.863   l-22.781,79.086c-0.805,2.367-2.811,4.125-5.264,4.613c-2.452,0.486-4.979-0.371-6.626-2.253l-10.795-12.153   c-4.537,11.709-6.838,24.07-6.838,36.744c0,56.062,45.61,101.672,101.673,101.673c56.063,0,101.673-45.609,101.673-101.674   c0-53.487-41.782-98.056-95.121-101.464c-3.684-0.234-6.552-3.291-6.552-6.984V80.313c0-1.915,0.787-3.748,2.174-5.069   c1.389-1.32,3.258-2.016,5.171-1.92c37.723,1.861,72.93,18.004,99.137,45.45c26.298,27.542,40.779,63.634,40.779,101.63   C367.751,301.603,301.688,367.665,220.49,367.665z" data-original="#000000" class="active-path" data-old_color="#d81e06" fill="#d81e06"/>
</g></g> </svg>
