<?xml version="1.0" standalone="no"?><!DOCTYPE svg PUBLIC "-//W3C//DTD SVG 1.1//EN" "http://www.w3.org/Graphics/SVG/1.1/DTD/svg11.dtd"><svg t="1515473255247" class="icon" style="" viewBox="0 0 1049 1024" version="1.1" xmlns="http://www.w3.org/2000/svg" p-id="3780" xmlns:xlink="http://www.w3.org/1999/xlink" width="204.8828125" height="200"><defs><style type="text/css"></style></defs><path d="M529.270947 589.997824s341.797606-3.342764 393.331882 245.693144l-97.218716 27.856366 16.435256 106.968444a272.156692 272.156692 0 0 1-123.125136-6.1284A285.806311 285.806311 0 0 1 529.270947 596.404788z" fill="#404040" p-id="3781"></path><path d="M563.81284 512.557127s167.138194-297.227421 408.931447-217.279651L947.116431 393.331882l100.840043 39.277476a274.106638 274.106638 0 0 1-66.855277 103.62568 285.527748 285.527748 0 0 1-413.667029-18.663765z" fill="#404040" p-id="3782"></path><path d="M507.542982 489.15778S264.078346 250.707291 403.638738 38.163221l88.304679 49.305767L557.127312 0a272.156692 272.156692 0 0 1 83.569097 91.368879 286.084875 286.084875 0 0 1-125.075081 395.003265z" fill="#404040" p-id="3783"></path><path d="M462.694233 529.270947S169.088139 702.258977 0 512.557127l70.476605-72.705114-67.969532-83.569097a271.599565 271.599565 0 0 1 109.75408-55.712731 285.806311 285.806311 0 0 1 349.040262 222.850925z" fill="#404040" p-id="3784"></path><path d="M473.558215 581.36235s91.647443 328.426551-135.381936 442.63765l-51.255713-86.633297-99.447225 43.45593a269.928183 269.928183 0 0 1-25.627857-120.339499 285.527748 285.527748 0 0 1 306.420022-278.563656z" fill="#404040" p-id="3785"></path></svg>