<?xml version="1.0" encoding="UTF-8" standalone="no"?>
<svg xmlns="http://www.w3.org/2000/svg" viewBox="0 0 500 100" width="100%">
	<path 
	style="fill:#1e88e5"
	d="m 31.01411,5.0634774 0,0 c -1.1047,-2.84065 -3.78754,-4.73442002 -6.94382,-4.73442002 0,0 0,0 -0.15781,0 l 0,0 H 6.71075 l 0,0 c 0,0 0,0 0,0 -3.47191,0 -6.15475,2.84065002 -6.15475,6.15475002 0,3.3140896 2.84065,6.1547496 6.15475,6.1547496 0,0 0,0 0,0 l 13.88763,0 7.10163,17.04391 7.57507,18.77983 h 13.4142 L 31.01411,5.0634774 z"
	/>
	<path
	style="fill:#2b2a29"
	d="m 101.85288,0.32907738 c -2.367219,0 -4.063719,1.40060002 -5.326229,4.24125002 l -32.84504,81.9153696 -10.25791,-26.0393 -4.88237,0 -8.23592,0 13.26624,32.3518 c 1.89377,4.261 4.89223,6.4605 8.67977,6.4605 l 3.00833,0 c 3.78754,0 6.786,-2.1995 8.67977,-6.4605 L 108.3627,9.1567974 c 0.31563,-0.63126 0.44386,-1.588 0.44386,-3.00833 0,-1.42033 -0.6214,-2.68284 -1.7261,-3.94535 -1.10469,-1.26251 -2.86037,-1.87404002 -5.22758,-1.87404002 z m 36.00132,0 c -1.73596,0 -3.17601,0.61153002 -4.43852,1.87404002 -1.26251,1.26251 -1.87404,2.85051 -1.87404,4.58647 l 0,54.2979096 c 0,12.1517 4.24125,21.7586 12.92102,28.7024 7.41726,5.9969 16.60006,9.1729 27.1736,9.1729 10.41573,0 19.40126,-3.0182 26.97634,-9.1729 8.67977,-6.9438 13.11829,-16.5507 13.11829,-28.7024 l 0,-54.2979096 c 0,-1.73596 -0.66085,-3.32396 -1.92336,-4.58647 -1.26251,-1.26251 -2.85052,-1.87404002 -4.58647,-1.87404002 -1.89377,0 -3.30423,0.61153002 -4.0933,1.87404002 -1.26251,1.26251 -1.87404,2.85051 -1.87404,4.58647 l 0,54.7910096 c 0,8.3642 -2.85052,14.7951 -8.53182,19.5295 -5.20787,4.261 -11.52043,6.5099 -18.93769,6.5099 -7.41726,0 -13.72982,-2.2489 -18.93768,-6.5099 -5.6813,-4.7344 -8.53182,-11.1653 -8.53182,-19.5295 l 0,-54.7910096 c 0,-1.73596 -0.61153,-3.32396 -1.87404,-4.58647 -1.26251,-1.26251 -2.85052,-1.87404002 -4.58647,-1.87404002 z m 187.50278,0 c -1.73595,0 -3.18587,0.62139002 -4.29057,1.72609002 -1.10469,1.1047 -1.72609,2.55461 -1.72609,4.29057 0,1.73595 0.6214,3.13655 1.72609,4.2412496 1.26252,1.1047 2.55462,1.72609 4.29057,1.72609 l 28.55448,0 0,80.97832 c 0,1.7359 0.61153,3.1267 1.87404,4.3892 1.1047,1.2625 2.70256,1.923403 4.43852,1.923403 1.73595,0 3.32396,-0.660903 4.58647,-1.923403 1.26251,-1.1047 1.87404,-2.6533 1.87404,-4.3892 l 0,-80.97832 28.40652,0 c 1.73596,0 3.13656,-0.62139 4.24126,-1.72609 1.10469,-1.2625096 1.7754,-2.5052996 1.7754,-4.2412496 0,-1.73596 -0.67071,-3.18587 -1.7754,-4.29057 -1.1047,-1.1047 -2.5053,-1.72609002 -4.24126,-1.72609002 l -69.73407,0 z m -74.51781,0.14787 c -1.73595,0 -3.12669,0.66085002 -4.3892,1.92336002 -1.26251,1.26251 -1.92336,2.8012 -1.92336,4.53715 l 0,83.6414396 c 0,2.3672 0.77921,4.4286 2.51516,6.1646 1.73596,1.736 3.7974,2.5152 6.16461,2.5152 l 49.56347,0 c 1.73596,0 3.32396,-0.4636 4.58647,-1.7261 1.26251,-1.1047 1.87404,-2.6533 1.87404,-4.3892 0,-1.736 -0.61153,-3.324 -1.87404,-4.5865 -1.26251,-1.2625 -2.85051,-1.9234 -4.58647,-1.9234 l 0,0.1973 -45.47016,0 0,-79.8933396 c 0,-1.73595 -0.61153,-3.27464 -1.87405,-4.53715 -1.26251,-1.26251 -2.85051,-1.92336002 -4.58647,-1.92336002 z m 176.75171,0 c -1.73596,0 -3.32396,0.66085002 -4.58647,1.92336002 -1.26251,1.26251 -1.87404,2.8012 -1.87404,4.53715 l 0,85.5647396 c 0,3.9454 3.15628,6.9537 7.10163,6.9537 3.94535,0 7.10163,-3.1563 7.10163,-7.1016 l 0,-30.4778 27.91335,0 c 5.36568,0 9.78447,-0.1776 12.62513,1.874 2.99846,2.0516 5.21772,5.0599 6.95368,8.5318 1.73595,3.6297 2.51516,9.1828 2.51516,16.9157 l 0,3.7481 c 0,1.8938 0.67071,3.4818 1.7754,4.5865 1.1047,1.1047 2.64339,1.7261 4.53716,1.7261 1.89377,0 3.47191,-0.6116 4.73442,-1.8741 1.26251,-1.2625 1.92336,-2.6927 1.92336,-4.5865 l 0,-5.9673 c 0,-6.3126 -0.95675,-12.1911 -3.00833,-17.5568 -2.84066,-8.0485 -7.91043,-12.9112 -14.69643,-14.6471 6.31256,-2.2094 10.89903,-5.6715 14.05531,-10.40588 2.99846,-4.73442 4.58647,-9.81406 4.58647,-15.33755 0,-8.52195 -3.01819,-15.30796 -9.17294,-20.5158196 -6.62819,-5.52349 -16.4028,-7.89070002 -29.34355,-7.89070002 l -33.14094,0 z m 7.8907,13.75940962 23.6721,0 c 9.31103,0 16.09703,1.39073 20.51583,4.3892 3.62972,2.68284 5.37554,6.48024 5.37554,11.6881 0,5.52349 -2.37708,9.78447 -6.95368,12.62512 -4.57661,2.99847 -10.72149,4.43852 -18.29657,4.43852 l -24.31322,0 0,-33.14094 z"
	/>
</svg>
