<svg class="icon" viewBox="0 0 1024 1024" xmlns="http://www.w3.org/2000/svg" width="200" height="200"><path d="m1007.475 86.155-12.956-3.47 3.471-12.958c2.393-8.934-2.642-18.279-11.498-20.95-12.425-3.745-26.307-2.55-38.434 4.452-6.17 3.563-12.939 8.884-18.708 15.739l-42.597 50.609v65.85c3.51 18.183 13.236 37.199 23.678 47.64 9.901 9.902 23.002 14.648 35.974 14.247 9.244-.286 16.526-8.01 16.526-17.261v-13.414h13.414c9.25 0 16.973-7.282 17.26-16.526.4-12.972-4.346-26.073-14.247-35.974-5.813-5.813-14.282-11.4-23.784-15.819 15.331-.661 30.908-4.72 41.221-10.675 12.127-7 20.102-18.426 23.072-31.06 2.118-9.003-3.457-18.037-12.392-20.43z" fill="#FFB5C0"/><path d="M935.304 40.087c0-14-5.907-26.622-15.362-35.511-6.74-6.334-17.352-6.021-23.893.518l-9.484 9.484-9.484-9.484c-6.541-6.541-17.151-6.854-23.893-.518-9.455 8.889-15.362 21.51-15.362 35.511 0 7.765 1.82 17.067 5.05 26.373-5.34-5.526-10.987-10.128-16.364-13.231-12.126-7.002-26.009-8.197-38.434-4.452-8.856 2.67-13.89 12.014-11.498 20.95l3.471 12.957-12.957 3.471c-8.934 2.395-14.51 11.427-12.395 20.432 2.97 12.632 10.946 24.058 23.072 31.06 10.096 5.829 25.24 9.842 40.256 10.628-9.542 4.427-18.05 10.035-23.883 15.866-9.901 9.901-14.647 23.002-14.246 35.974.286 9.244 8.01 16.526 17.26 16.526h13.413v13.414c0 9.249 7.282 16.975 16.529 17.261 12.971.401 26.072-4.345 35.973-14.246 10.442-10.442 20.168-29.458 23.678-47.64a180.504 180.504 0 0 1 42.597-116.46c3.796-10.131 5.956-20.418 5.956-28.883z" fill="#FF8E9E"/><path d="M216.542 817.942h43.416v-43.416c-28.625-28.624-75.198-28.624-103.823 0s-28.624 75.198 0 103.822c19.257 19.257 19.255 50.587 0 69.842-19.257 19.257-50.587 19.257-69.841 0L56.09 917.988c-11.989-11.99-31.426-11.99-43.415 0s-11.99 31.426 0 43.415l30.202 30.203c43.195 43.194 113.478 43.194 156.675 0 43.194-43.197 43.196-113.479 0-156.675-4.683-4.683-4.685-12.307 0-16.99s12.304-4.684 16.99 0z" fill="#EFEDFF"/><path d="M758.527 275.955c-66.236-66.236-155.785-94.408-244.362-79.639v360.893h286.879V329.8a291.913 291.913 0 0 0-42.517-53.844z" fill="#FFB5C0"/><path d="M514.165 196.316c-20.886 3.481-41.716 9.333-62.177 17.656a30.7 30.7 0 0 0-16.868 16.869l-84.013 206.508v186.196h344.436V483.42c-30.759-108.535-92.177-208.428-181.378-287.103z" fill="#EFEDFF"/><path d="M260.336 660.473h110.339l56.142-67.73c-9.927-56.256-35.152-110.316-75.71-155.394z" fill="#FFB5C0"/><path d="M801.044 329.798c.153 36.478-6.86 73.526-21.468 109.428a30.7 30.7 0 0 1-16.868 16.869L677.25 490.86l-163.083 66.346v76.92h204.016l85.458-34.767a30.7 30.7 0 0 0 16.868-16.869c34.775-85.474 26.69-177.431-19.465-252.693z" fill="#FF8E9E"/><path d="m695.543 483.42-18.293 7.441L426.82 592.743 411.61 611.78v147.07l306.573-124.723a602.25 602.25 0 0 0-22.64-150.707z" fill="#D4D4FF"/><path d="m260.336 660.473-50.523 124.19a30.702 30.702 0 0 0 40.006 40.006l161.791-65.82c19.928-53.184 24.983-110.71 15.209-166.106l-56.142 22.84z" fill="#FF8E9E"/><path d="M499.364 536.749a33.612 37.611 45 1 0 53.19-53.19 33.612 37.611 45 1 0-53.19 53.19z" fill="#4C5699"/><path d="M392.724 92.69a15.35 15.35 0 0 0 15.35-15.35V65.081c0-8.477-6.871-15.35-15.35-15.35s-15.35 6.873-15.35 15.35v12.26c0 8.479 6.87 15.35 15.35 15.35zm-44.984 32.726H360c8.479 0 15.35-6.873 15.35-15.35s-6.871-15.35-15.35-15.35h-12.26c-8.479 0-15.35 6.873-15.35 15.35s6.871 15.35 15.35 15.35zm77.71 0h12.257c8.479 0 15.35-6.873 15.35-15.35s-6.871-15.35-15.35-15.35h-12.258a15.35 15.35 0 0 0 0 30.7zM392.723 170.4a15.35 15.35 0 0 0 15.35-15.35V142.79c0-8.477-6.871-15.35-15.35-15.35s-15.35 6.873-15.35 15.35v12.26a15.35 15.35 0 0 0 15.35 15.35zM781.586 747.617a15.35 15.35 0 0 0 15.35-15.35v-12.26c0-8.477-6.87-15.35-15.35-15.35s-15.35 6.873-15.35 15.35v12.26c0 8.48 6.871 15.35 15.35 15.35zm-44.983 32.726h12.26c8.479 0 15.35-6.873 15.35-15.35s-6.871-15.35-15.35-15.35h-12.26c-8.48 0-15.35 6.873-15.35 15.35s6.87 15.35 15.35 15.35zm77.71 0h12.256c8.48 0 15.35-6.873 15.35-15.35s-6.87-15.35-15.35-15.35h-12.257a15.35 15.35 0 0 0 0 30.7zm-32.727 44.983a15.35 15.35 0 0 0 15.35-15.35v-12.26c0-8.477-6.87-15.35-15.35-15.35s-15.35 6.873-15.35 15.35v12.26a15.35 15.35 0 0 0 15.35 15.35z" fill="#FFDBE0"/><path d="M909.762 593.803c-8.003 4.775-26.676 13.305-26.676 36.834v19.652c0 13.69 14.918 22.16 26.676 15.147 25.499-15.21 57.709-15.614 83.881 0 11.758 7.014 26.676-1.457 26.676-15.147v-19.652A36.836 36.836 0 0 0 1002.354 599l-8.709-5.195a81.862 81.862 0 0 0-83.883-.002z" fill="#FF8E9E"/><path d="m664.516 80.93-.01.004a42.404 42.404 0 0 1-47.822-7.664l-.002-.002a42.404 42.404 0 0 0-47.822-7.665c-8.387 4.04-15.915 6.07-15.915 14.635v41.887c0 8.174 8.54 13.54 15.907 9.994l.008-.004a42.404 42.404 0 0 1 47.822 7.664l.002.002a42.404 42.404 0 0 0 47.822 7.665c8.405-4.048 15.917-6.07 15.917-14.635V90.924c0-8.174-8.541-13.543-15.907-9.994z" fill="#FFDBE0"/><path d="m225.054 307.59.004-.01a42.407 42.407 0 0 1 39.234-28.395h.005a42.407 42.407 0 0 0 39.234-28.395c3.074-8.789 6.96-15.547.904-21.603l-29.619-29.619c-5.78-5.78-15.614-3.534-18.313 4.181l-.004.009a42.407 42.407 0 0 1-39.234 28.395h-.005a42.407 42.407 0 0 0-39.234 28.395c-3.082 8.807-6.96 15.548-.906 21.604l29.617 29.617c5.783 5.782 15.618 3.539 18.317-4.179z" fill="#FFB5C0"/><path d="M941.865 303.722a30.553 30.553 0 0 1 18.547 6.254c13.504 10.256 16.136 29.513 5.88 43.017a22.216 22.216 0 0 0 .624 27.781c27.888 33.48 25.681 81.962-5.129 112.772-11.987 11.987-31.426 11.987-43.415 0s-11.99-31.426 0-43.415a22.208 22.208 0 0 0 1.367-30.061c-25.098-30.131-26.058-72.984-2.343-104.211a30.649 30.649 0 0 1 24.47-12.137zM856.5849999999999 119.577a30.7 30.7 0 1 0 61.4 0 30.7 30.7 0 1 0-61.4 0z" fill="#FFDBE0"/><path d="M429.5 381.744a15.352 15.352 0 0 0 21.708 21.709 12.812 12.812 0 0 1 18.134 0 12.816 12.816 0 0 1 0 18.133 15.35 15.35 0 0 0 0 21.707 15.35 15.35 0 0 0 21.706 0c16.97-16.969 16.97-44.58 0-61.549-17.01-17.012-44.537-17.012-61.548 0zm223.248 161.697c-17.045-17.046-44.566-16.985-61.551 0a15.352 15.352 0 0 0 21.709 21.71 12.816 12.816 0 0 1 18.133 0 12.816 12.816 0 0 1 0 18.132 15.35 15.35 0 0 0 0 21.707 15.35 15.35 0 0 0 21.707 0c16.97-16.969 16.97-44.58.002-61.549z" fill="#313D40"/></svg>