<?xml version="1.0" standalone="no"?><!DOCTYPE svg PUBLIC "-//W3C//DTD SVG 1.1//EN" "http://www.w3.org/Graphics/SVG/1.1/DTD/svg11.dtd"><svg t="1624436296210" class="icon" viewBox="0 0 1024 1024" version="1.1" xmlns="http://www.w3.org/2000/svg" p-id="15546" xmlns:xlink="http://www.w3.org/1999/xlink" width="200" height="200"><defs><style type="text/css"></style></defs><path d="M1007.474522 86.155273l-12.955267-3.471111 3.471111-12.957315c2.392529-8.933609-2.64222-18.278593-11.498056-20.949466-12.425187-3.745362-26.307585-2.550121-38.433961 4.451455-6.170637 3.56321-12.938895 8.884489-18.708389 15.738706l-42.596839 50.609457V185.427826c3.509998 18.182401 13.235658 37.197787 23.677645 47.639774 9.901672 9.901672 23.002252 14.647844 35.973893 14.246701 9.244699-0.28653 16.526665-8.010572 16.526665-17.26141v-13.413716h13.413716c9.250839 0 16.972833-7.281966 17.259364-16.526665 0.401143-12.971641-4.345029-26.072221-14.246701-35.973893-5.812474-5.812474-14.281494-11.399817-23.784071-15.818525 15.331424-0.661067 30.908445-4.719565 41.221493-10.675304 12.126376-6.999529 20.102155-18.425952 23.071838-31.059897 2.118278-9.003195-3.456785-18.037089-12.392441-20.429618z" fill="#FFB5C0" p-id="15547"></path><path d="M935.303652 40.087323c0-14.001104-5.90662-26.622768-15.362123-35.511351-6.739605-6.334369-17.351463-6.021232-23.892543 0.517802l-9.484156 9.484156-9.484157-9.484156c-6.54108-6.54108-17.150892-6.854217-23.892542-0.517802-9.455503 8.888583-15.362123 21.510247-15.362124 35.511351 0 7.764974 1.819468 17.066979 5.049076 26.373078-5.339699-5.525944-10.986395-10.12885-16.362933-13.231565-12.126376-7.001575-26.008775-8.196816-38.433961-4.451455-8.855836 2.668826-13.890585 12.013811-11.498056 20.949466l3.471111 12.957315-12.957315 3.471111c-8.933609 2.394576-14.510719 11.426423-12.394486 20.431665 2.969683 12.631898 10.945462 24.058321 23.071837 31.059896 10.096104 5.828847 25.239236 9.84232 40.255476 10.628232-9.541463 4.426895-18.049369 10.034704-23.882309 15.865598-9.901672 9.901672-14.647844 23.002252-14.246702 35.973893 0.28653 9.244699 8.010572 16.526665 17.259364 16.526664h13.413717v13.413717c0 9.248792 7.281966 16.97488 16.528711 17.26141 12.971641 0.401143 26.072221-4.345029 35.973893-14.246701 10.441987-10.441987 20.167647-29.457373 23.677645-47.639774a180.503924 180.503924 0 0 1 42.596838-116.460284c3.796528-10.130897 5.955739-20.417338 5.955739-28.882266z" fill="#FF8E9E" p-id="15548"></path><path d="M216.542123 817.941657h43.415496v-43.415497c-28.624388-28.624388-75.197859-28.624388-103.822246 0s-28.624388 75.197859 0 103.822247c19.25689 19.25689 19.254843 50.586944 0 69.841787-19.25689 19.25689-50.586944 19.25689-69.841788 0l-30.202351-30.202352c-11.989251-11.989251-31.426246-11.989251-43.415497 0s-11.989251 31.426246 0 43.415497l30.202352 30.202352c43.194459 43.194459 113.478322 43.194459 156.674827 0 43.194459-43.196506 43.196506-113.478322 0-156.674828-4.682726-4.682726-4.684772-12.306481 0-16.989206s12.304434-4.684772 16.989207 0z" fill="#EFEDFF" p-id="15549"></path><path d="M758.52667 275.955062c-66.235597-66.235597-155.784536-94.407676-244.361319-79.63908v360.893236h286.878339V329.798219a291.913087 291.913087 0 0 0-42.51702-53.843157z" fill="#FFB5C0" p-id="15550"></path><path d="M514.165351 196.315982c-20.88602 3.481344-41.716781 9.332705-62.177098 17.656413a30.699687 30.699687 0 0 0-16.868455 16.868455L351.107036 437.349455v186.195646h344.436157V483.419451c-30.759039-108.535672-92.176832-208.428359-181.377842-287.103469z" fill="#EFEDFF" p-id="15551"></path><path d="M260.336249 660.472731h110.338767l56.14154-67.729649c-9.926232-56.256152-35.151141-110.316254-75.70952-155.393627z" fill="#FFB5C0" p-id="15552"></path><path d="M801.04369 329.798219c0.153498 36.477368-6.860357 73.525749-21.467268 109.42801a30.699687 30.699687 0 0 1-16.868454 16.868455l-85.457695 34.766371-163.082875 66.346116v76.919089h204.015791l85.457694-34.766372a30.699687 30.699687 0 0 0 16.868455-16.868455c34.774558-85.474068 26.690308-177.431909-19.465648-252.693214z" fill="#FF8E9E" p-id="15553"></path><path d="M695.543193 483.419451l-18.29292 7.441604-250.43167 101.882027-15.208625 19.035852v147.069919l306.573211-124.722593a602.250079 602.250079 0 0 0-22.639996-150.706809z" fill="#D4D4FF" p-id="15554"></path><path d="M260.336249 660.472731l-50.523498 124.190465a30.701733 30.701733 0 0 0 40.005785 40.005785l161.791442-65.820128c19.92819-53.184137 24.983405-110.70921 15.208625-166.105771l-56.14154 22.840567z" fill="#FF8E9E" p-id="15555"></path><path d="M499.364054 536.748866a33.612064 37.611209 45 1 0 53.190283-53.190283 33.612064 37.611209 45 1 0-53.190283 53.190283Z" fill="#4C5699" p-id="15556"></path><path d="M392.723531 92.690213a15.349843 15.349843 0 0 0 15.349843-15.349843v-12.259408c0-8.477207-6.87059-15.349843-15.349843-15.349844s-15.349843 6.872637-15.349843 15.349844v12.259408c0 8.479253 6.87059 15.349843 15.349843 15.349843zM347.740303 125.416079h12.259409c8.479253 0 15.349843-6.872637 15.349843-15.349843s-6.87059-15.349843-15.349843-15.349844h-12.259409c-8.479253 0-15.349843 6.872637-15.349843 15.349844s6.87059 15.349843 15.349843 15.349843zM425.449397 125.416079h12.257361c8.479253 0 15.349843-6.872637 15.349844-15.349843s-6.87059-15.349843-15.349844-15.349844h-12.257361a15.349843 15.349843 0 0 0 0 30.699687zM392.723531 170.399307a15.349843 15.349843 0 0 0 15.349843-15.349844v-12.259408c0-8.477207-6.87059-15.349843-15.349843-15.349843s-15.349843 6.872637-15.349843 15.349843v12.259408a15.349843 15.349843 0 0 0 15.349843 15.349844z" fill="#FFDBE0" p-id="15557"></path><path d="M781.586228 747.616861a15.349843 15.349843 0 0 0 15.349844-15.349843v-12.259408c0-8.477207-6.87059-15.349843-15.349844-15.349844s-15.349843 6.872637-15.349843 15.349844v12.259408c0 8.479253 6.87059 15.349843 15.349843 15.349843zM736.603001 780.342727h12.259408c8.479253 0 15.349843-6.872637 15.349843-15.349843s-6.87059-15.349843-15.349843-15.349843h-12.259408c-8.479253 0-15.349843 6.872637-15.349844 15.349843s6.87059 15.349843 15.349844 15.349843zM814.312094 780.342727h12.257362c8.479253 0 15.349843-6.872637 15.349843-15.349843s-6.87059-15.349843-15.349843-15.349843h-12.257362a15.349843 15.349843 0 0 0 0 30.699686zM781.586228 825.325955a15.349843 15.349843 0 0 0 15.349844-15.349844v-12.259408c0-8.477207-6.87059-15.349843-15.349844-15.349843s-15.349843 6.872637-15.349843 15.349843v12.259408a15.349843 15.349843 0 0 0 15.349843 15.349844z" fill="#FFDBE0" p-id="15558"></path><path d="M909.761513 593.803245c-8.002385 4.774825-26.675981 13.305244-26.675981 36.833484v19.651892c0 13.690014 14.918001 22.16108 26.675981 15.147226 25.49916-15.210671 57.709271-15.613861 83.881777 0 11.75798 7.013855 26.675981-1.457212 26.675981-15.147226v-19.651892a36.835531 36.835531 0 0 0-17.965456-31.637051l-8.708478-5.194387a81.861738 81.861738 0 0 0-83.883824-0.002046z" fill="#FF8E9E" p-id="15559"></path><path d="M664.516043 80.930186l-0.010233 0.004094a42.404454 42.404454 0 0 1-47.821925-7.664689l-0.002047-0.002046a42.404454 42.404454 0 0 0-47.821925-7.664689c-8.387154 4.040079-15.914718 6.070351-15.914718 14.635564V122.125073c0 8.174303 8.540653 13.540608 15.906531 9.993771l0.008187-0.004093a42.404454 42.404454 0 0 1 47.821925 7.664688l0.002047 0.002047a42.404454 42.404454 0 0 0 47.821925 7.664688c8.405574-4.048265 15.916764-6.070351 15.916764-14.635564V90.923958c0-8.174303-8.540653-13.542655-15.906531-9.993772z" fill="#FFDBE0" p-id="15560"></path><path d="M225.054122 307.590066l0.004094-0.010233a42.4065 42.4065 0 0 1 39.234199-28.395164h0.004093a42.4065 42.4065 0 0 0 39.2342-28.395163c3.074062-8.788297 6.960642-15.546321 0.904617-21.602346l-29.619057-29.619058c-5.779728-5.779728-15.613861-3.534557-18.313387 4.181297l-0.004093 0.008187a42.4065 42.4065 0 0 1-39.234199 28.395163h-0.004094a42.4065 42.4065 0 0 0-39.234199 28.395164c-3.082249 8.806717-6.960642 15.548368-0.906664 21.604393l29.617011 29.617011c5.783821 5.781774 15.617954 3.538651 18.317479-4.179251z" fill="#FFB5C0" p-id="15561"></path><path d="M941.865199 303.721906c6.471494 0 12.996201 2.036413 18.546704 6.254549 13.503769 10.255742 16.135755 29.512632 5.880013 43.016401a22.21634 22.21634 0 0 0 0.624227 27.78117c27.887595 33.479032 25.681311 81.962023-5.128894 112.772229-11.987204 11.987204-31.426246 11.987204-43.415497 0s-11.989251-31.426246 0-43.415497a22.208153 22.208153 0 0 0 1.367159-30.061133c-25.098017-30.130719-26.057894-72.983388-2.343409-104.21111a30.64852 30.64852 0 0 1 24.469697-12.136609z" fill="#FFDBE0" p-id="15562"></path><path d="M887.285249 119.576999m-30.699686 0a30.699687 30.699687 0 1 0 61.399373 0 30.699687 30.699687 0 1 0-61.399373 0Z" fill="#FFDBE0" p-id="15563"></path><path d="M429.499709 381.744136a15.35189 15.35189 0 0 0 21.708772 21.708772 12.812003 12.812003 0 0 1 18.133281 0 12.816096 12.816096 0 0 1 0 18.133281 15.349843 15.349843 0 0 0 0 21.706725 15.349843 15.349843 0 0 0 21.706725 0c16.96874-16.96874 16.96874-44.580038 0-61.548778-17.009673-17.01172-44.537059-17.01172-61.548778 0zM652.74783 543.441432c-17.044466-17.046513-44.565712-16.985113-61.550825 0a15.35189 15.35189 0 0 0 21.708772 21.708772 12.816096 12.816096 0 0 1 18.133281 0 12.816096 12.816096 0 0 1 0 18.133281 15.349843 15.349843 0 0 0 0 21.706725 15.349843 15.349843 0 0 0 21.706725 0c16.970787-16.96874 16.970787-44.580038 0.002047-61.548778z" fill="#313D40" p-id="15564"></path></svg>