<svg class="icon" viewBox="0 0 1024 1024" xmlns="http://www.w3.org/2000/svg" width="200" height="200"><path d="M512 0C229.23 0 0 229.23 0 512s229.23 512 512 512c73.304 0 142.99-15.436 206.036-43.185V43.185C654.99 15.436 585.304 0 512 0z" fill="#E8B5B1"/><path d="M718.036 43.185a510.821 510.821 0 0 0-72 38.84C505.24 173.258 412.073 331.74 412.073 512s93.168 338.742 233.965 429.975a511.044 511.044 0 0 0 72 38.842C898.193 901.522 1024 721.467 1024 512S898.194 122.478 718.036 43.185z" fill="#F2D4D3"/><path d="M830.332 193.668c-52.41-52.408-115.473-90.279-184.295-111.643h-164.83L247.244 512l233.965 429.975h164.829c68.824-21.364 131.888-59.233 184.295-111.643C915.362 745.301 962.19 632.25 962.19 512s-46.828-233.301-131.857-318.332z" fill="#EFEDFF"/><path d="M193.668 193.668C108.638 278.699 61.81 391.75 61.81 512s46.828 233.301 131.857 318.332C278.699 915.362 391.75 962.19 512 962.19c46.134 0 91.198-6.919 134.037-20.214C505.24 850.742 412.072 692.259 412.072 512S505.24 173.258 646.037 82.025C603.197 68.73 558.134 61.811 512 61.811c-120.249 0-233.301 46.828-318.332 131.857z" fill="#D4D4FF"/><path d="M861.536 515.379c-35.316-30.87-83.467-40.964-127.073-38.745 49.348-20.404 91.221-49.072 111.301-96.73 21.173-50.252-15.05-107.555-70.668-109.498l-8.627-.3.301-8.625c1.943-55.67-52.735-95.735-104.3-78.136-47.114 16.082-77.131 52.744-100.58 97.124H512v417.538h101.207c48.95 48.157 109.043 81.797 169.722 74.548 53.809-6.426 85.703-66.858 59.518-116.107l-4.05-7.62 7.62-4.052c49.095-26.109 56.605-93.483 15.52-129.397z" fill="#FFB5C0"/><path d="M561.888 280.465c2.28-43.83-3.756-83.838-30.494-119.12-32.937-43.461-100.671-40.738-130.16 6.455l-4.573 7.32-7.32-4.574c-47.24-29.518-109.276-2.198-119.819 51.258-3.894 19.745-3.779 40.612 1.045 61.492 7.92 34.309 30.244 76.02 59.441 110.806-169.848-68.997-230.653 55.405-172.25 118.038l5.886 6.313-6.313 5.887c-48.83 45.536-29.286 140.16 78.166 143.91 44.574 1.555 106.608-16.129 153.996-45.825-32.93 45.202-54.9 105.851-56.456 150.425-3.764 107.656 89.416 133.417 138.106 88.015l6.313-5.887 5.886 6.313c58.453 62.683 186.537 10.56 129.865-163.284-107.574-112.514-128.447-282.331-51.32-417.542z" fill="#FF8E9E"/><path d="m347.486 669.014-41.207-41.207-258.52 258.52v115.648l18.039 18.038A93.054 93.054 0 0 0 92.716 1024c23.73 0 47.457-9.053 65.561-27.156l258.52-258.52z" fill="#D6948C"/><path d="m88.966 927.534 258.52-258.52-61.81-61.81-258.52 258.519c-36.21 36.209-36.21 94.913 0 131.121a92.29 92.29 0 0 0 38.642 23.17c-9.577-31.669-1.863-67.449 23.168-92.48z" fill="#CE857A"/><path d="M471.642 591.903H318.326v85.987a65.33 65.33 0 0 0 19.135 46.193l10.47 10.471 34.227 34.227c38.385 38.384 103.927 20.822 117.976-31.612l24.677-92.096z" fill="#EFEDFF"/><path d="m379.543 616.58 92.097-24.677-92.717-92.716-92.096 24.677c-52.434 14.05-69.997 79.591-31.612 117.976l92.714 92.714c-38.38-38.382-20.818-103.925 31.614-117.974z" fill="#D4D4FF"/><path d="M594.414 357.463H512L419.284 512 512 666.537h82.414c55.169-29.481 92.717-87.616 92.717-154.537s-37.548-125.056-92.717-154.537z" fill="#EFEDFF"/><path d="M501.698 512c0-66.923 37.548-125.056 92.716-154.537-24.565-13.13-52.613-20.594-82.414-20.594-96.722 0-175.13 78.41-175.13 175.131S415.277 687.13 512 687.13c29.801 0 57.849-7.464 82.414-20.593-55.168-29.481-92.716-87.614-92.716-154.537z" fill="#D4D4FF"/><path d="M385.58 483.092a49.912 39.749 45 1 0 56.214-56.213 49.912 39.749 45 1 0-56.213 56.213zM540.78 638.318a49.912 39.749 45 1 0 56.213-56.212 49.912 39.749 45 1 0-56.213 56.212z" fill="#FF8E9E"/><path d="M479.092 406.652a15.453 15.453 0 0 0-21.852 0l-17.482 17.482a15.453 15.453 0 0 0 10.926 26.379 15.4 15.4 0 0 0 10.926-4.527l17.482-17.482a15.447 15.447 0 0 0 0-21.852zm138.256 138.256a15.453 15.453 0 0 0-21.852 0l-17.482 17.482a15.453 15.453 0 0 0 10.926 26.38 15.4 15.4 0 0 0 10.926-4.528l17.482-17.482a15.453 15.453 0 0 0 0-21.852zM543.26 512.24c-8.532.593-16.897-2.536-22.93-8.569s-9.156-14.39-8.569-22.93a15.453 15.453 0 0 0-14.359-16.474c-8.5-.602-15.89 5.843-16.474 14.358a60.443 60.443 0 0 0 17.55 46.9 60.428 60.428 0 0 0 46.9 17.55 15.453 15.453 0 0 0-2.118-30.835z" fill="#313D40"/></svg>