<?xml version="1.0" standalone="no"?><!DOCTYPE svg PUBLIC "-//W3C//DTD SVG 1.1//EN" "http://www.w3.org/Graphics/SVG/1.1/DTD/svg11.dtd"><svg t="1624436286043" class="icon" viewBox="0 0 1024 1024" version="1.1" xmlns="http://www.w3.org/2000/svg" p-id="15400" xmlns:xlink="http://www.w3.org/1999/xlink" width="200" height="200"><defs><style type="text/css"></style></defs><path d="M512 0C229.229714 0 0 229.229714 0 512S229.229714 1024 512 1024c73.303565 0 142.989135-15.436233 206.036217-43.185191V43.185191C654.989135 15.436233 585.303565 0 512 0z" fill="#E8B5B1" p-id="15401"></path><path d="M718.036217 43.185191a510.821473 510.821473 0 0 0-71.999356 38.839887C505.239952 173.257915 412.072435 331.738913 412.072435 512s93.167517 338.742085 233.964426 429.974922a511.043992 511.043992 0 0 0 71.999356 38.841947C898.194286 901.521771 1024 721.46672 1024 512S898.194286 122.478229 718.036217 43.185191z" fill="#F2D4D3" p-id="15402"></path><path d="M830.332137 193.667863c-52.409433-52.407372-115.472998-90.278889-184.295276-111.642785h-164.828974L247.243461 512l233.964426 429.974922h164.828974c68.824338-21.363895 131.887903-59.233352 184.295276-111.642785C915.361223 745.30099 962.189135 632.248918 962.189135 512s-46.827911-233.30099-131.856998-318.332137z" fill="#EFEDFF" p-id="15403"></path><path d="M193.667863 193.667863C108.638777 278.69901 61.810865 391.751082 61.810865 512s46.827911 233.30099 131.856998 318.332137C278.69901 915.361223 391.751082 962.189135 512 962.189135c46.133569 0 91.197811-6.918696 134.036861-20.214213C505.239952 850.742085 412.072435 692.259026 412.072435 512S505.239952 173.257915 646.036861 82.025078C603.197811 68.729561 558.133569 61.810865 512 61.810865c-120.248918 0-233.30099 46.827911-318.332137 131.856998z" fill="#D4D4FF" p-id="15404"></path><path d="M861.536322 515.378994c-35.316668-30.870406-83.467332-40.964121-127.072837-38.745111 49.347734-20.403767 91.220475-49.071646 111.300764-96.729883 21.172282-50.252233-15.050946-107.555026-70.668362-109.497948l-8.626736-0.300813 0.300813-8.624676c1.942922-55.668926-52.73497-95.734728-104.299654-78.135114-47.114302 16.081127-77.131718 52.743211-100.5807 97.123412H512v417.538576h101.20705c48.950085 48.156845 109.042608 81.796378 169.722334 74.548024 53.808419-6.42627 85.702825-66.858753 59.517682-116.10759l-4.050672-7.619219 7.62128-4.052732c49.09431-26.108909 56.60433-93.482753 15.518648-129.396926z" fill="#FFB5C0" p-id="15405"></path><path d="M561.887549 280.46474c2.280821-43.830085-3.75604-83.838197-30.49336-119.119839-32.93695-43.46128-100.671356-40.737481-130.159259 6.455115l-4.574004 7.320467-7.320467-4.574004c-47.239984-29.518809-109.275429-2.198406-119.818302 51.25769-3.894085 19.744451-3.778704 40.611799 1.044604 61.491509 7.920032 34.309151 30.244056 76.021183 59.441448 110.806278-169.848016-68.997408-230.653425 55.405199-172.250398 118.038149l5.886455 6.312949-6.31295 5.886455c-48.830584 45.536064-29.285988 140.160258 78.16602 143.910117 44.573875 1.555573 106.60726-16.128515 153.99559-45.824515-32.930769 45.202286-54.90041 105.851107-56.455984 150.424982-3.764282 107.655984 89.415598 133.416692 138.106076 88.014551l6.31295-5.886455 5.886455 6.31295c58.452475 62.682398 186.53695 10.559356 129.864627-163.283702-107.573569-112.514318-128.447099-282.331429-51.319501-417.542697z" fill="#FF8E9E" p-id="15406"></path><path d="M347.486262 669.01402l-41.207244-41.207243L47.759195 886.3266v115.648128l18.038471 18.038471A93.054197 93.054197 0 0 0 92.716298 1024c23.729191 0 47.456322-9.053231 65.560724-27.155573l258.519823-258.519823z" fill="#D6948C" p-id="15407"></path><path d="M88.966439 927.533843l258.519823-258.519823-61.810866-61.810865L27.155573 865.722978c-36.208805 36.208805-36.208805 94.912644 0 131.121449a92.289803 92.289803 0 0 0 38.642093 23.168772c-9.576563-31.667767-1.862567-67.448016 23.168773-92.479356z" fill="#CE857A" p-id="15408"></path><path d="M471.641626 591.902905H318.325956v85.987155a65.329964 65.329964 0 0 0 19.134583 46.19332l10.470761 10.470761 34.226736 34.226736c38.384547 38.384547 103.926728 20.82202 117.976338-31.612137l24.676958-92.096128z" fill="#EFEDFF" p-id="15409"></path><path d="M379.543437 616.579863l92.096128-24.676958-92.716297-92.716297-92.096129 24.676957c-52.434157 14.04961-69.996684 79.591791-31.612137 117.976338l92.714237 92.714238c-38.380427-38.382487-20.817899-103.924668 31.614198-117.974278z" fill="#D4D4FF" p-id="15410"></path><path d="M594.414487 357.462535h-82.414487l-92.716298 154.537465 92.716298 154.537465h82.414487c55.168258-29.481722 92.716298-87.616901 92.716298-154.537465s-37.54804-125.055742-92.716298-154.537465z" fill="#EFEDFF" p-id="15411"></path><path d="M501.698189 512c0-66.922624 37.54804-125.055742 92.716298-154.537465-24.565698-13.128628-52.613408-20.59332-82.414487-20.59332-96.721642 0-175.130785 78.409143-175.130785 175.130785s78.409143 175.130785 175.130785 175.130785c29.801078 0 57.848789-7.464692 82.414487-20.59332-55.168258-29.481722-92.716298-87.614841-92.716298-154.537465z" fill="#D4D4FF" p-id="15412"></path><path d="M385.58088 483.091779a49.912274 39.748507 45 1 0 56.212878-56.212878 49.912274 39.748507 45 1 0-56.212878 56.212878Z" fill="#FF8E9E" p-id="15413"></path><path d="M540.779825 638.318422a49.912274 39.748507 45 1 0 56.212878-56.212878 49.912274 39.748507 45 1 0-56.212878 56.212878Z" fill="#FF8E9E" p-id="15414"></path><path d="M479.091895 406.651622a15.452716 15.452716 0 0 0-21.852201 0l-17.482173 17.482173a15.452716 15.452716 0 0 0 10.926101 26.378817 15.399147 15.399147 0 0 0 10.9261-4.526616l17.482173-17.482173a15.446535 15.446535 0 0 0 0-21.852201zM617.348378 544.908105a15.452716 15.452716 0 0 0-21.852201 0l-17.482173 17.482173a15.452716 15.452716 0 0 0 10.926101 26.378817 15.399147 15.399147 0 0 0 10.9261-4.526616l17.482173-17.482173a15.452716 15.452716 0 0 0 0-21.852201zM543.259815 512.239002c-8.53196 0.593384-16.89703-2.536306-22.929771-8.569046s-9.156249-14.389569-8.569046-22.929771a15.452716 15.452716 0 0 0-14.358664-16.474656c-8.501054-0.601626-15.889513 5.843187-16.474656 14.358664a60.442785 60.442785 0 0 0 17.550165 46.900024 60.428362 60.428362 0 0 0 46.900024 17.550165 15.452716 15.452716 0 0 0-2.118052-30.83538z" fill="#313D40" p-id="15415"></path></svg>