<svg class="icon" viewBox="0 0 1024 1024" xmlns="http://www.w3.org/2000/svg" width="200" height="200"><path d="m944.835 353.587-10.8-2.487 2.493-10.773c16.075-69.445-42.955-133.256-112.325-123.725-56.316 7.738-98.123 38.502-135.85 80.263H335.648v465.82h176.353c16.064 69.81 78.722 142.008 120.61 180.965 100.97 93.915 204.638 25.921 201.645-59.54l-.388-11.048 11.077-.385c109.902-3.828 167.65-171.56-49.226-262.896 58.096-5.06 116.241-22.619 154.585-46.52 23.337-14.541 42.39-33.336 56.783-54.743 38.968-57.956 7.446-138.883-62.252-154.931z" fill="#FFB5C0"/><path d="M685.213 91.035c-30.841-62.64-124.43-75.87-173.212-23.696-48.784-52.175-142.371-38.943-173.213 23.696-28.178 57.23-22.143 144.405-3.14 205.832-37.727-41.761-79.536-72.524-135.85-80.263-69.37-9.531-128.4 54.278-112.325 123.725l2.493 10.773-10.8 2.487c-69.698 16.048-101.22 96.975-62.254 154.933 14.394 21.407 33.446 40.202 56.784 54.744 38.343 23.898 96.49 41.456 154.584 46.519-216.873 91.332-159.125 259.064-49.226 262.892l11.077.385-.388 11.048c-2.991 85.461 100.676 153.455 201.646 59.54C433.276 904.693 495.934 832.496 512 762.684a430.853 430.853 0 0 1-10.364-58.3l137.438-367.968a440.163 440.163 0 0 1 49.278-39.549c19.005-61.427 25.04-148.601-3.138-205.832z" fill="#FF8E9E"/><path d="m327.044 468.64-137.04-78.228a15.453 15.453 0 0 0-15.322 26.838l137.041 78.228z" fill="#EA5B70"/><path d="M855.078 396.17a15.45 15.45 0 0 0-21.08-5.758l-137.04 78.228 15.32 26.84 137.041-78.228a15.453 15.453 0 0 0 5.759-21.081z" fill="#FF8E9E"/><path d="M274.21 779.212a15.453 15.453 0 0 0 22.3 21.397l117.114-122.062-22.3-21.397z" fill="#EA5B70"/><path d="m632.668 657.142-22.302 21.397L727.49 800.607a15.453 15.453 0 0 0 22.3-21.397z" fill="#FF8E9E"/><path d="M512 160.364a15.453 15.453 0 0 0-15.452 15.453v132.207h30.905V175.817a15.453 15.453 0 0 0-15.452-15.453z" fill="#EA5B70"/><path d="M639.075 336.418H501.637v367.968c3.435.171 6.888.26 10.364.26 113.79 0 206.036-92.245 206.036-206.036 0-65.845-30.887-124.475-78.962-162.192z" fill="#FFDBE0"/><path d="M512 292.571c-113.79 0-206.036 92.245-206.036 206.037 0 110.313 86.696 200.378 195.673 205.776 0-137.416 34.478-272.423 137.438-367.968-35.007-27.465-79.128-43.845-127.074-43.845z" fill="#FFB5C0"/><path d="M382.069 572.925a41.207 32.815.11 1 0 .126-65.63 41.207 32.815.11 1 0-.126 65.63zM641.876 507.951c-22.76-.05-41.239 14.602-41.28 32.725-.039 18.123 18.377 32.857 41.135 32.906s41.24-14.602 41.28-32.725-18.377-32.854-41.135-32.906z" fill="#FF8E9E"/><path d="M399.639 476.88a15.453 15.453 0 0 0-15.453 15.452v24.724a15.453 15.453 0 0 0 30.905 0v-24.724a15.453 15.453 0 0 0-15.452-15.453zm224.367 0a15.453 15.453 0 0 0-15.453 15.452v24.724a15.453 15.453 0 0 0 30.906 0v-24.724a15.453 15.453 0 0 0-15.453-15.453zm-58.238 40.963a15.453 15.453 0 0 0-15.453 15.453c0 6.249-5.083 11.332-11.332 11.332s-11.332-5.083-11.332-11.332a15.453 15.453 0 0 0-30.905 0c0 6.249-5.083 11.332-11.332 11.332s-11.332-5.083-11.332-11.332a15.453 15.453 0 0 0-30.906 0c0 35.566 41.547 55.222 69.022 32.63 27.471 22.59 69.023 2.94 69.023-32.63a15.453 15.453 0 0 0-15.453-15.453z" fill="#313D40"/></svg>