<svg class="icon" viewBox="0 0 1024 1024" xmlns="http://www.w3.org/2000/svg" width="200" height="200"><path d="M967.042 405.087c4.611-60.823-54.603-106.19-112.134-85.78-19.343-32.36-56.24-46.671-90.35-39.2 60.635-34.223 55.563-128.95-14.955-153.157C754.217 66.127 695 20.758 637.47 41.17 610.973-3.16 551.528-13.668 511.44 19.373 384.71 69.22 301.382 191.534 301.382 327.715V678.22c38.927 26.024 93.868 15.49 119.241-27.1 34.466 12.158 69.772.542 91.379-23.917 21.557 24.582 56.886 36.302 91.537 24.038 26.657 44.766 86.71 54.396 125.98 21.997 39.054 32.164 99.105 22.991 125.98-22.118 57.315 20.218 117.014-25.256 112.034-86.335 75.505-26.405 75.221-133.704-.49-159.698z" fill="#FFDBE0"/><path d="M511.443 19.373C471.673-13.399 411.926-3.16 385.445 41.52c-57.562-20.226-116.884 25.398-111.838 86.417-30.36 10.621-48.404 34.435-54.146 60.727-7.475 34.225 5.909 72.667 40.191 91.836-34.397-8.023-72.09 6.163-91.644 39.16-57.562-20.227-116.884 25.395-111.838 86.416-75.007 26.245-74.925 132.887.433 159.01-4.795 60.933 54.6 106.493 112.062 86.155 26.657 44.766 86.71 54.396 125.98 21.997a83.86 83.86 0 0 0 6.74 4.982l80.977-154.586a206.043 206.043 0 0 0 23.526-95.607v-191.99A275.158 275.158 0 0 1 511.443 19.374z" fill="#FFB5C0"/><path d="M897.572 493.14c-16.01-30.149-53.425-41.61-83.579-25.608l-66.528 35.325-35.325-66.53c-16.009-30.152-53.431-41.611-83.578-25.609-30.151 16.011-41.615 53.43-25.608 83.578l55.786 105.068-27.617 90.138C615.116 741.74 566.772 777.424 512 777.424a124.96 124.96 0 0 1-27.06-2.982H423.4v249.556h338.343c10.63 0 18.14-10.477 14.61-20.476-4.89-13.852-14.6-25.435-27.123-32.751-19.023-11.116-31.197-30.97-31.197-52.957v-47.116c0-28.489 4.244-56.819 12.59-84.065l49.352-161.076 91.988-48.838c30.152-16.007 41.615-53.427 25.609-83.578z" fill="#E8B5B1"/><path d="M484.937 1023.726a69.133 69.133 0 0 1-20.332-48.95V823.394c0-18.36 7.315-35.97 20.332-48.95-42.793-9.496-78.666-41.22-92.063-84.94l-27.617-90.138 55.786-105.068c16.01-30.15 4.544-67.569-25.608-83.578-30.149-16.002-67.569-4.545-83.578 25.608l-35.324 66.531-66.53-35.324c-30.152-16.011-67.572-4.542-83.577 25.608-16.01 30.15-4.543 67.57 25.608 83.578l91.988 48.838 49.352 161.076a286.928 286.928 0 0 1 12.59 84.065v47.116c0 21.988-12.172 41.841-31.197 52.957-12.523 7.316-22.233 18.9-27.123 32.751-3.529 10.001 3.979 20.476 14.61 20.476h222.957z" fill="#D6948C"/><path d="M553.205 112.33c0-22.758-18.449-41.207-41.207-41.207S470.79 89.572 470.79 112.33c-22.759 0-41.207 18.449-41.207 41.207s18.448 41.207 41.207 41.207c0 22.759 18.448 41.207 41.207 41.207s41.207-18.448 41.207-41.207c22.758 0 41.207-18.448 41.207-41.207s-18.449-41.207-41.207-41.207z" fill="#FFB5C0"/><path d="M488.365 153.537a23.632 23.632 0 1 0 47.265 0 23.632 23.632 0 1 0-47.265 0z" fill="#FFDBE0"/><path d="M720.548 413.932c0-34.135-27.672-61.81-61.81-61.81s-61.81 27.675-61.81 61.81c-34.139 0-61.811 27.675-61.811 61.81s27.672 61.811 61.81 61.811c0 34.136 27.673 61.81 61.81 61.81s61.811-27.674 61.811-61.81c34.138 0 61.81-27.674 61.81-61.81s-27.672-61.81-61.81-61.81z" fill="#FFB5C0"/><path d="M635.106 475.743a23.632 23.632 0 1 0 47.264 0 23.632 23.632 0 1 0-47.264 0z" fill="#FFDBE0"/><path d="M421.639 375.748c-5.12-22.174-27.246-36-49.42-30.88-22.175 5.12-36 27.246-30.88 49.419-22.176 5.12-36 27.246-30.88 49.42s27.245 36 49.419 30.88c5.12 22.174 27.246 36 49.42 30.88s36-27.245 30.88-49.419c22.176-5.12 36-27.246 30.88-49.42s-27.246-36-49.42-30.88z" fill="#FF8E9E"/><path d="M367.124 425.17a23.632 23.632 0 1 0 47.265 0 23.632 23.632 0 1 0-47.265 0z" fill="#FFDBE0"/><path d="M863.594 789.728c0-22.759 18.449-41.207 41.207-41.207s41.207 18.448 41.207 41.207c22.759 0 41.207 18.448 41.207 41.207s-18.448 41.207-41.207 41.207c0 22.759-18.448 41.207-41.207 41.207s-41.207-18.448-41.207-41.207c-22.758 0-41.207-18.448-41.207-41.207s18.449-41.207 41.207-41.207z" fill="#FFB5C0"/><path d="M881.169 830.935a23.632 23.632 0 1 0 47.265 0 23.632 23.632 0 1 0-47.265 0z" fill="#FFDBE0"/><path d="M86 900.377c0-22.759 18.448-41.207 41.207-41.207s41.207 18.448 41.207 41.207c22.758 0 41.207 18.448 41.207 41.207s-18.449 41.207-41.207 41.207c0 22.759-18.449 41.207-41.207 41.207S86 1005.55 86 982.79c-22.759 0-41.207-18.448-41.207-41.207S63.243 900.377 86 900.377z" fill="#FF8E9E"/><path d="M103.574 941.584a23.632 23.632 0 1 0 47.265 0 23.632 23.632 0 1 0-47.265 0z" fill="#FFDBE0"/><path d="M219.463 188.664c0-34.136-27.673-61.81-61.81-61.81s-61.811 27.674-61.811 61.81c-34.138 0-61.81 27.675-61.81 61.81s27.672 61.811 61.81 61.811c0 34.136 27.673 61.81 61.81 61.81s61.811-27.674 61.811-61.81c34.138 0 61.81-27.675 61.81-61.81s-27.672-61.81-61.81-61.81z" fill="#FF8E9E"/><path d="M134.02 250.475a23.632 23.632 0 1 0 47.265 0 23.632 23.632 0 1 0-47.265 0z" fill="#FFDBE0"/><path d="M846.971 197.695c0-22.759-18.448-41.207-41.207-41.207s-41.207 18.448-41.207 41.207c-22.758 0-41.207 18.448-41.207 41.207s18.449 41.207 41.207 41.207c0 22.758 18.449 41.207 41.207 41.207s41.207-18.449 41.207-41.207c22.759 0 41.207-18.449 41.207-41.207s-18.448-41.207-41.207-41.207z" fill="#FFB5C0"/><path d="M782.132 238.902a23.632 23.632 0 1 0 47.265 0 23.632 23.632 0 1 0-47.265 0z" fill="#FFDBE0"/><path d="M395.543 824.292c-24.16 0-43.814 19.654-43.814 43.814a15.453 15.453 0 0 0 30.905 0c0-7.119 5.792-12.908 12.909-12.908s12.908 5.79 12.908 12.908a15.453 15.453 0 0 0 30.905 0c0-24.16-19.656-43.814-43.813-43.814zm232.912 0c-24.16 0-43.814 19.654-43.814 43.814a15.453 15.453 0 0 0 30.906 0c0-7.119 5.791-12.908 12.908-12.908s12.908 5.79 12.908 12.908a15.453 15.453 0 0 0 30.905 0c-.002-24.16-19.656-43.814-43.813-43.814zm-76.22 44.71a15.453 15.453 0 0 0-21.803 1.498c-9.764 11.204-27.11 11.196-36.868 0a15.453 15.453 0 0 0-23.3 20.305c22.084 25.34 61.404 25.311 83.466 0a15.453 15.453 0 0 0-1.496-21.803z" fill="#313D40"/></svg>