<?xml version="1.0" standalone="no"?><!DOCTYPE svg PUBLIC "-//W3C//DTD SVG 1.1//EN" "http://www.w3.org/Graphics/SVG/1.1/DTD/svg11.dtd"><svg t="1624436315972" class="icon" viewBox="0 0 1024 1024" version="1.1" xmlns="http://www.w3.org/2000/svg" p-id="16272" xmlns:xlink="http://www.w3.org/1999/xlink" width="200" height="200"><defs><style type="text/css"></style></defs><path d="M967.042409 405.08736c4.611063-60.823591-54.603394-106.190436-112.134546-85.78061-19.342565-32.359856-56.239312-46.671047-90.350466-39.200218 60.636099-34.222413 55.563517-128.949062-14.95402-153.156113 4.613124-60.823591-54.603394-106.192496-112.134545-85.780609-26.4961-44.328429-85.941317-54.838274-126.027486-21.796442-126.732125 49.846046-210.058858 172.160781-210.058857 308.34167v350.504672c38.926191 26.02428 93.867483 15.489711 119.240692-27.099782 34.465534 12.158125 69.77169 0.541872 91.378581-23.916543 21.557441 24.582035 56.886262 36.301306 91.537227 24.038103 26.656808 44.765223 86.709827 54.395299 125.980097 21.996296 39.053933 32.164123 99.104893 22.991445 125.980097-22.117856 57.314815 20.218214 117.013454-25.25577 112.033589-86.334844 75.505644-26.405445 75.221316-133.704349-0.490363-159.697724z" fill="#FFDBE0" p-id="16273"></path><path d="M511.443407 19.373368C471.672472-13.398559 411.926444-3.16068 385.444766 41.520069c-57.562057-20.226455-116.883652 25.397934-111.837855 86.417258-30.359256 10.621104-48.403801 34.434629-54.145996 60.726754-7.47495 34.224473 5.909084 72.666482 40.191246 91.835978-34.397542-8.023003-72.089584 6.162507-91.644366 39.159011-57.562057-20.226455-116.883652 25.395873-111.837855 86.417258-75.00704 26.244738-74.924626 132.88639 0.432674 159.009567-4.794434 60.932789 54.601334 106.493308 112.062433 86.155593 26.656808 44.765223 86.709827 54.395299 125.980097 21.996296a83.860363 83.860363 0 0 0 6.739405 4.981926l80.977934-154.585996a206.043236 206.043236 0 0 0 23.525075-95.606418V236.037707A275.157675 275.157675 0 0 1 511.443407 19.373368z" fill="#FFB5C0" p-id="16274"></path><path d="M897.571529 493.140535c-16.008919-30.149101-53.424874-41.610827-83.578095-25.608089l-66.5287 35.3247-35.3247-66.53076c-16.008919-30.151161-53.431055-41.610827-83.578095-25.60809-30.151161 16.010979-41.614948 53.428995-25.608089 83.578096l55.786035 105.067545-27.616931 90.13825c-16.006859 52.238112-64.35091 87.921313-119.123253 87.921313a124.960224 124.960224 0 0 1-27.060636-2.981327h-61.538532V1023.99794h338.342426c10.629345 0 18.139321-10.476879 14.609942-20.475758-4.88921-13.851733-14.59964-25.43502-27.122447-32.751323-19.023211-11.115588-31.197819-30.96912-31.197819-52.957174v-47.116083c0-28.488459 4.244321-56.81827 12.590799-84.064338l49.351562-161.076098 91.988444-48.838535c30.151161-16.006859 41.614948-53.426934 25.608089-83.578096z" fill="#E8B5B1" p-id="16275"></path><path d="M484.937005 1023.725973a69.132982 69.132982 0 0 1-20.331533-48.949794v-151.382151c0-18.359778 7.314242-35.969589 20.331533-48.949794-42.793468-9.496153-78.666221-41.219361-92.062617-84.939987l-27.61693-90.13825 55.786035-105.067545c16.008919-30.151161 4.543072-67.569176-25.60809-83.578096-30.149101-16.002738-67.569176-4.545132-83.578095 25.60809l-35.3247 66.53076-66.5287-35.3247c-30.153221-16.010979-67.573297-4.541011-83.578095 25.60809-16.008919 30.151161-4.543072 67.571237 25.608089 83.578095l91.988444 48.838535 49.351562 161.076098a286.928454 286.928454 0 0 1 12.590799 84.064338v47.116083c0 21.988055-12.172547 41.841587-31.197819 52.957175-12.522807 7.316303-22.233236 18.89959-27.122447 32.751322-3.529379 10.000939 3.978536 20.475758 14.609942 20.475758h222.956648z" fill="#D6948C" p-id="16276"></path><path d="M553.20464 112.330176c0-22.758625-18.448373-41.206999-41.206999-41.206999s-41.206999 18.448373-41.206999 41.206999c-22.758625 0-41.206999 18.448373-41.206999 41.206999s18.448373 41.206999 41.206999 41.206999c0 22.758625 18.448373 41.206999 41.206999 41.206999s41.206999-18.448373 41.206999-41.206999c22.758625 0 41.206999-18.448373 41.206999-41.206999s-18.448373-41.206999-41.206999-41.206999z" fill="#FFB5C0" p-id="16277"></path><path d="M511.997641 153.537175m-23.632214 0a23.632214 23.632214 0 1 0 47.264428 0 23.632214 23.632214 0 1 0-47.264428 0Z" fill="#FFDBE0" p-id="16278"></path><path d="M720.548323 413.932442c0-34.135878-27.67256-61.810498-61.810499-61.810498s-61.810498 27.67462-61.810498 61.810498c-34.137938 0-61.810498 27.67462-61.810498 61.810498s27.67256 61.810498 61.810498 61.810499c0 34.135878 27.67256 61.810498 61.810498 61.810498s61.810498-27.67462 61.810499-61.810498c34.137938 0 61.810498-27.67462 61.810498-61.810499s-27.67256-61.810498-61.810498-61.810498z" fill="#FFB5C0" p-id="16279"></path><path d="M658.737824 475.74294m-23.632214 0a23.632214 23.632214 0 1 0 47.264428 0 23.632214 23.632214 0 1 0-47.264428 0Z" fill="#FFDBE0" p-id="16280"></path><path d="M421.638934 375.747977c-5.11997-22.173486-27.246068-36.000495-49.419554-30.880525-22.175546 5.11997-36.000495 27.246068-30.880525 49.419553-22.175546 5.11997-36.000495 27.246068-30.880525 49.419554s27.246068 36.000495 49.419554 30.880525c5.11997 22.173486 27.246068 36.000495 49.419554 30.880525s36.000495-27.246068 30.880525-49.419554c22.175546-5.11997 36.000495-27.246068 30.880525-49.419553s-27.246068-36.000495-49.419554-30.880525z" fill="#FF8E9E" p-id="16281"></path><path d="M390.756348 425.169591m-23.632213 0a23.632214 23.632214 0 1 0 47.264427 0 23.632214 23.632214 0 1 0-47.264427 0Z" fill="#FFDBE0" p-id="16282"></path><path d="M863.594298 789.72791c0-22.758625 18.448373-41.206999 41.206999-41.206999s41.206999 18.448373 41.206999 41.206999c22.758625 0 41.206999 18.448373 41.206999 41.206999s-18.448373 41.206999-41.206999 41.206998c0 22.758625-18.448373 41.206999-41.206999 41.206999s-41.206999-18.448373-41.206999-41.206999c-22.758625 0-41.206999-18.448373-41.206998-41.206998s18.448373-41.206999 41.206998-41.206999z" fill="#FFB5C0" p-id="16283"></path><path d="M904.801297 830.934909m-23.632214 0a23.632214 23.632214 0 1 0 47.264428 0 23.632214 23.632214 0 1 0-47.264428 0Z" fill="#FFDBE0" p-id="16284"></path><path d="M85.999687 900.376943c0-22.758625 18.448373-41.206999 41.206998-41.206999s41.206999 18.448373 41.206999 41.206999c22.758625 0 41.206999 18.448373 41.206999 41.206999s-18.448373 41.206999-41.206999 41.206999c0 22.758625-18.448373 41.206999-41.206999 41.206999s-41.206999-18.448373-41.206998-41.206999c-22.758625 0-41.206999-18.448373-41.206999-41.206999s18.450434-41.206999 41.206999-41.206999z" fill="#FF8E9E" p-id="16285"></path><path d="M127.206685 941.583942m-23.632213 0a23.632214 23.632214 0 1 0 47.264427 0 23.632214 23.632214 0 1 0-47.264427 0Z" fill="#FFDBE0" p-id="16286"></path><path d="M219.462975 188.664081c0-34.135878-27.67256-61.810498-61.810498-61.810498s-61.810498 27.67462-61.810499 61.810498c-34.137938 0-61.810498 27.67462-61.810498 61.810498s27.67256 61.810498 61.810498 61.810499c0 34.135878 27.67256 61.810498 61.810499 61.810498s61.810498-27.67462 61.810498-61.810498c34.137938 0 61.810498-27.67462 61.810498-61.810499s-27.67256-61.810498-61.810498-61.810498z" fill="#FF8E9E" p-id="16287"></path><path d="M157.652477 250.474579m-23.632214 0a23.632214 23.632214 0 1 0 47.264427 0 23.632214 23.632214 0 1 0-47.264427 0Z" fill="#FFDBE0" p-id="16288"></path><path d="M846.971395 197.694595c0-22.758625-18.448373-41.206999-41.206999-41.206999s-41.206999 18.448373-41.206999 41.206999c-22.758625 0-41.206999 18.448373-41.206999 41.206999s18.448373 41.206999 41.206999 41.206999c0 22.758625 18.448373 41.206999 41.206999 41.206998s41.206999-18.448373 41.206999-41.206998c22.758625 0 41.206999-18.448373 41.206999-41.206999s-18.448373-41.206999-41.206999-41.206999z" fill="#FFB5C0" p-id="16289"></path><path d="M805.764396 238.901594m-23.632214 0a23.632214 23.632214 0 1 0 47.264428 0 23.632214 23.632214 0 1 0-47.264428 0Z" fill="#FFDBE0" p-id="16290"></path><path d="M395.542541 824.29234c-24.159663 0-43.813342 19.653678-43.813341 43.813342a15.452625 15.452625 0 0 0 30.905249 0c0-7.118509 5.791644-12.908092 12.908092-12.908093s12.908092 5.789583 12.908093 12.908093a15.452625 15.452625 0 0 0 30.905249 0c0-24.159663-19.655738-43.813342-43.813342-43.813342zM628.454801 824.29234c-24.159663 0-43.813342 19.653678-43.813342 43.813342a15.452625 15.452625 0 0 0 30.905249 0c0-7.118509 5.791644-12.908092 12.908093-12.908093s12.908092 5.789583 12.908092 12.908093a15.452625 15.452625 0 0 0 30.905249 0c-0.00206-24.159663-19.655738-43.813342-43.813341-43.813342zM552.234215 869.001934a15.452625 15.452625 0 0 0-21.802623 1.497875c-9.763998 11.204183-27.110085 11.195942-36.867902 0a15.452625 15.452625 0 0 0-23.300498 20.304748c22.084891 25.340244 61.404609 25.311399 83.466837 0a15.452625 15.452625 0 0 0-1.495814-21.802623z" fill="#313D40" p-id="16291"></path></svg>