<?xml version="1.0" standalone="no"?><!DOCTYPE svg PUBLIC "-//W3C//DTD SVG 1.1//EN" "http://www.w3.org/Graphics/SVG/1.1/DTD/svg11.dtd"><svg t="1624436301588" class="icon" viewBox="0 0 1024 1024" version="1.1" xmlns="http://www.w3.org/2000/svg" p-id="15695" xmlns:xlink="http://www.w3.org/1999/xlink" width="200" height="200"><defs><style type="text/css"></style></defs><path d="M721.090884 252.554871l-7.169937-1.650322 1.656502-7.153455c10.672493-46.110116-28.521105-88.478678-74.581773-82.149354-37.390812 5.138455-64.98065 27.251944-90.030104 54.979823H316.405596l0.203973 307.602685h117.092498c10.666312 46.353234 52.268433 94.2888 80.080785 120.156204 67.040977 62.357854 135.874438 17.211971 133.888283-39.533552l-0.257541-7.334764 7.355367-0.255481c72.970598-2.542443 111.315341-113.911353-32.685025-174.555015 38.57344-3.360393 77.181906-15.017723 102.641365-30.88636 15.495719-9.656752 28.146126-22.134092 37.701922-36.348287 25.869464-38.484846 4.940664-92.216111-41.336339-102.872122z" fill="#FFB5C0" p-id="15696"></path><path d="M548.707454 78.226492c-20.477589-41.589759-82.617048-50.377053-115.007448-15.732657-32.390399-34.642336-94.529858-25.857103-115.007447 15.732657-18.709829 37.998609-14.906465 97.56884-2.289023 138.355071-25.049454-27.727879-52.606327-49.841368-89.997139-54.979823-46.060668-6.329324-85.254267 36.039238-74.581773 82.149354l1.656502 7.153455-7.169937 1.650322c-46.277002 10.656011-67.207863 64.389336-41.334278 102.870061 9.555796 14.214195 22.206203 26.691535 37.701921 36.348287 25.459459 15.868638 64.065865 27.525967 102.641366 30.886361-143.998307 60.643662-105.655623 172.014632-32.685026 174.555015l7.355367 0.255481-0.257541 7.334763c-1.986155 56.743463 66.845246 101.891406 133.888283 39.533553 27.812353-25.867404 69.414473-73.80297 80.080786-120.156204a286.173225 286.173225 0 0 1-6.881492-38.709422l91.255999-244.319744c10.130627-9.399211 21.206945-16.503218 32.888998-24.573519 12.615382-40.784171 16.45171-100.354402-2.258118-138.353011zM887.954699 921.866485l-41.898808-220.082059c1.147602-22.630631-1.996457-43.293649-15.827431-61.531663-17.036843-22.463744-52.010892-21.103928-67.207863 3.245015l-2.357014 3.77658-3.78276-2.367316c-24.412813-15.275264-56.428233-1.207352-61.836591 26.386606a75.700531 75.700531 0 0 0 0.581012 31.753759c4.112412 17.720872 15.668786 39.276012 30.768922 57.256484-87.751383-35.742551-119.066291 28.455175-88.86602 60.835272l3.043103 3.263558-3.255317 3.034862c-25.183376 23.479485-15.028024 72.35456 40.4607 74.363378 23.017972 0.834432 61.412164-1.881078 85.862063-17.185187-15.302048 24.449899-18.017559 62.844091-17.185187 85.862063 2.008819 55.486664 50.883893 65.644075 74.363379 40.4607l3.034861-3.255316 3.263558 3.043102c32.386278 30.206453 96.584004-1.108456 60.839393-88.859838z" fill="#FF8E9E" p-id="15697"></path><path d="M1008.007887 818.03219c-18.235953-13.830974-38.898972-16.975033-61.531663-15.827431 22.900533-12.079697 49.437544-35.180082 57.709756-59.49812 9.053076-26.615303-13.824793-57.029848-42.570474-56.063555 0.966293-28.743621-29.448252-51.623551-56.063555-42.570474-24.318038 8.272212-47.418423 34.809223-59.49812 57.709756-4.087689 7.75095-7.398634 16.066429-10.017309 24.758948-15.536925 51.596766-5.665899 116.98124 24.002808 163.101658 7.930198 12.326936 17.265539 23.281694 27.911248 32.221452 17.982533 15.100136 39.535613 26.656509 57.256485 30.768922a75.733496 75.733496 0 0 0 31.753758 0.581012c27.596018-5.408358 41.66187-37.423778 26.386606-61.836591l-2.367315-3.78276 3.776579-2.357014c24.355124-15.194911 25.717-50.16896 3.251196-67.205803z" fill="#FFB5C0" p-id="15698"></path><path d="M860.043451 889.645032c35.538579-9.374487 61.745937-41.727801 61.745936-80.210586 0-45.82373-37.149754-82.961123-82.961122-82.961123-0.935388 0-1.860475 0.039146-2.787623 0.070051l-80.072544 86.881925z" fill="#FFDBE0" p-id="15699"></path><path d="M836.040642 726.543374c-44.523664 1.473134-80.17144 38.00685-80.17144 82.889012 0 45.842273 37.168297 82.959062 82.961123 82.959062 7.334764 0 14.440831-0.962173 21.215186-2.748476-29.668707-46.118357-39.541794-111.500771-24.004869-163.099598z" fill="#FFB5C0" p-id="15700"></path><path d="M250.75328 788.194536c-19.132196-36.274115-52.81442-81.226327-91.334292-94.327946a59.37038 59.37038 0 0 0-10.983602-2.579529l-31.337572 33.603931v197.65128l76.658583 41.567095c73.998701-5.091068 108.171283-78.891977 56.996883-175.914831z" fill="#FFB5C0" p-id="15701"></path><path d="M148.435386 691.287061c-39.100884-5.428961-79.221629 28.397486-77.822668 70.011968-45.533224-1.530823-81.772314 46.647861-67.432439 88.80627 13.103679 38.519872 59.510482 70.743384 95.786658 89.87764 35.433502 18.689225 67.766212 25.986903 94.78946 24.126428-68.157674-73.776185-85.956838-180.987356-45.321011-272.822306z" fill="#FF8E9E" p-id="15702"></path><path d="M964.495843 72.991201c-14.325453-27.161289-39.543854-60.81879-68.38637-70.630066a44.280546 44.280546 0 0 0-8.224825-1.930527l-23.465063 25.160712v147.993281l57.398647 31.123298c55.408371-3.813665 80.993511-59.071632 42.677611-131.716698z" fill="#FFB5C0" p-id="15703"></path><path d="M887.884648 0.430608c-29.277245-4.065025-59.316811 21.262574-58.270165 52.420898-34.092229-1.145542-61.226734 34.926662-50.490371 66.49499 9.811277 28.842516 44.55869 52.968944 71.719979 67.296457 26.530829 13.99374 50.73967 19.457727 70.974141 18.064946-51.032237-55.241485-64.358431-135.515941-33.933584-204.277291z" fill="#FF8E9E" p-id="15704"></path><path d="M550.963512 216.581563h-166.070589v271.987874l48.809144 35.614811c97.288636 0 176.157949-78.869314 176.157949-176.15795-0.00206-52.258131-22.758371-99.186197-58.896504-131.444735z" fill="#FFDBE0" p-id="15705"></path><path d="M405.817602 337.401193a192.593177 192.593177 0 0 1 145.14591-120.81963c-31.145962-27.802051-72.235061-44.713214-117.263506-44.713214-45.049048 0-86.148448 16.894681-117.29647 44.713214C280.281885 248.840101 257.542057 295.78671 257.542057 348.026298c0 97.3113 78.896098 176.157949 176.157949 176.15795a192.597298 192.597298 0 0 1-27.882404-186.783055z" fill="#FFB5C0" p-id="15706"></path><path d="M323.243821 326.561813a15.452452 15.452452 0 0 0-15.452452 15.452452v24.723922a15.452452 15.452452 0 0 0 30.904904 0v-24.723922a15.452452 15.452452 0 0 0-15.452452-15.452452zM539.367992 326.561813a15.452452 15.452452 0 0 0-15.452452 15.452452v24.723922a15.452452 15.452452 0 0 0 30.904903 0v-24.723922a15.452452 15.452452 0 0 0-15.452451-15.452452zM475.380419 354.351502a15.452452 15.452452 0 0 0-21.802379 1.497858c-5.622632 6.452944-13.74032 10.153291-22.272134 10.153291s-16.649502-3.700347-22.272133-10.153291a15.452452 15.452452 0 0 0-23.300237 20.304521c11.494564 13.188152 28.104919 20.753673 45.57237 20.753673s34.077807-7.56346 45.572371-20.753673a15.452452 15.452452 0 0 0-1.497858-21.802379z" fill="#313D40" p-id="15707"></path></svg>