<svg class="icon" viewBox="0 0 1024 1024" xmlns="http://www.w3.org/2000/svg" width="200" height="200"><path d="m721.09 252.555-7.17-1.65 1.657-7.154c10.673-46.11-28.52-88.479-74.581-82.15-37.391 5.14-64.981 27.253-90.03 54.98h-234.56l.204 307.603h117.092c10.666 46.353 52.269 94.289 80.08 120.156 67.042 62.358 135.875 17.212 133.89-39.533l-.258-7.335 7.355-.255c72.97-2.543 111.315-113.912-32.685-174.555 38.573-3.36 77.182-15.018 102.641-30.887 15.496-9.656 28.146-22.134 37.702-36.348 25.87-38.485 4.94-92.216-41.336-102.872z" fill="#FFB5C0"/><path d="M548.707 78.226C528.23 36.636 466.09 27.85 433.7 62.494c-32.39-34.643-94.53-25.857-115.007 15.732-18.71 38-14.907 97.57-2.29 138.356-25.049-27.728-52.606-49.842-89.997-54.98-46.06-6.33-85.254 36.039-74.581 82.15l1.656 7.153-7.17 1.65c-46.277 10.656-67.208 64.39-41.334 102.87 9.556 14.214 22.206 26.691 37.702 36.348 25.46 15.869 64.066 27.526 102.641 30.887-143.998 60.643-105.655 172.014-32.685 174.555l7.356.255-.258 7.335c-1.986 56.743 66.845 101.891 133.888 39.533 27.813-25.867 69.415-73.803 80.081-120.156a286.173 286.173 0 0 1-6.881-38.71l91.256-244.319c10.13-9.4 21.207-16.503 32.889-24.573 12.615-40.785 16.451-100.355-2.259-138.354zm339.248 843.64-41.9-220.082c1.148-22.63-1.996-43.293-15.827-61.531-17.036-22.464-52.01-21.104-67.207 3.245l-2.357 3.776-3.783-2.367c-24.413-15.275-56.428-1.207-61.837 26.387a75.7 75.7 0 0 0 .581 31.753c4.113 17.721 15.669 39.276 30.77 57.257-87.752-35.743-119.067 28.455-88.867 60.835l3.043 3.264-3.255 3.035c-25.183 23.48-15.028 72.354 40.46 74.363 23.019.834 61.413-1.881 85.863-17.185-15.302 24.45-18.018 62.844-17.185 85.862 2.008 55.487 50.883 65.644 74.363 40.46l3.035-3.255 3.263 3.043c32.387 30.207 96.584-1.108 60.84-88.86z" fill="#FF8E9E"/><path d="M1008.008 818.032c-18.236-13.83-38.9-16.975-61.532-15.827 22.9-12.08 49.438-35.18 57.71-59.498 9.053-26.616-13.825-57.03-42.57-56.064.966-28.744-29.449-51.623-56.064-42.57-24.318 8.272-47.418 34.809-59.498 57.71-4.088 7.75-7.399 16.066-10.017 24.758-15.537 51.597-5.666 116.982 24.002 163.102 7.93 12.327 17.266 23.282 27.912 32.221 17.982 15.1 39.535 26.657 57.256 30.77a75.733 75.733 0 0 0 31.754.58c27.596-5.408 41.662-37.423 26.386-61.836l-2.367-3.783 3.777-2.357c24.355-15.195 25.717-50.169 3.25-67.206z" fill="#FFB5C0"/><path d="M860.043 889.645c35.539-9.374 61.746-41.728 61.746-80.21 0-45.824-37.15-82.962-82.96-82.962-.936 0-1.861.04-2.788.07l-80.073 86.882z" fill="#FFDBE0"/><path d="M836.04 726.543c-44.523 1.474-80.17 38.007-80.17 82.89 0 45.842 37.167 82.958 82.96 82.958 7.335 0 14.441-.962 21.216-2.748-29.67-46.118-39.542-111.5-24.005-163.1zM250.753 788.195c-19.132-36.275-52.814-81.227-91.334-94.328a59.37 59.37 0 0 0-10.984-2.58l-31.337 33.604v197.651l76.658 41.567c74-5.09 108.172-78.892 56.997-175.914z" fill="#FFB5C0"/><path d="M148.435 691.287c-39.1-5.429-79.221 28.398-77.822 70.012-45.534-1.53-81.773 46.648-67.433 88.806 13.104 38.52 59.51 70.744 95.787 89.878 35.433 18.69 67.766 25.987 94.79 24.126-68.158-73.776-85.957-180.987-45.322-272.822z" fill="#FF8E9E"/><path d="M964.496 72.991c-14.326-27.161-39.544-60.819-68.387-70.63a44.28 44.28 0 0 0-8.224-1.93L864.42 25.59v147.994l57.398 31.123c55.409-3.814 80.994-59.072 42.678-131.717z" fill="#FFB5C0"/><path d="M887.885.43c-29.278-4.064-59.317 21.263-58.27 52.422-34.093-1.146-61.227 34.926-50.49 66.494 9.81 28.843 44.558 52.97 71.72 67.297 26.53 13.994 50.739 19.458 70.973 18.065C870.786 149.466 857.46 69.192 887.885.43z" fill="#FF8E9E"/><path d="M550.964 216.582H384.893v271.987l48.81 35.615c97.288 0 176.157-78.87 176.157-176.158-.002-52.258-22.758-99.186-58.896-131.444z" fill="#FFDBE0"/><path d="M405.818 337.401a192.593 192.593 0 0 1 145.146-120.82c-31.146-27.801-72.236-44.713-117.264-44.713-45.049 0-86.148 16.895-117.296 44.714-36.122 32.258-58.862 79.205-58.862 131.444 0 97.312 78.896 176.158 176.158 176.158a192.597 192.597 0 0 1-27.882-186.783z" fill="#FFB5C0"/><path d="M323.244 326.562a15.452 15.452 0 0 0-15.453 15.452v24.724a15.452 15.452 0 0 0 30.905 0v-24.724a15.452 15.452 0 0 0-15.452-15.452zm216.124 0a15.452 15.452 0 0 0-15.452 15.452v24.724a15.452 15.452 0 0 0 30.904 0v-24.724a15.452 15.452 0 0 0-15.452-15.452zm-63.988 27.79a15.452 15.452 0 0 0-21.802 1.497c-5.623 6.453-13.74 10.154-22.272 10.154s-16.65-3.7-22.272-10.154a15.452 15.452 0 0 0-23.3 20.305c11.494 13.188 28.104 20.754 45.572 20.754s34.078-7.564 45.572-20.754a15.452 15.452 0 0 0-1.498-21.802z" fill="#313D40"/></svg>