<svg class="icon" viewBox="0 0 1024 1024" xmlns="http://www.w3.org/2000/svg" width="200" height="200"><path d="M1013.414 446.14c0-9.52-3.162-18.283-8.44-25.375 18.458-24.269 24.55-56.856 13.569-87.36-18.12-50.307-74.412-74.298-122.732-54.28v-14.418l5.858-3.467c50.048-29.628 50.025-101.823 0-131.002 14.828-56.34-36.716-107.357-92.634-92.635H682.47v593.104l20.603 41.207c17.266 11 38.531 14.977 59.707 9.401 29.352 50.325 101.868 49.954 131.002 0 56.26 14.812 107.37-36.639 92.633-92.631 43.218-25.209 49.064-82.375 18.016-116.443 5.61-7.213 8.983-16.254 8.983-26.1z" fill="#FFDBE0"/><path d="M809.035 37.603c-29.35-50.322-101.866-49.952-131.001.002-55.904-14.72-107.464 36.283-92.632 92.631-50.256 29.313-50.013 101.831 0 131.002a76.501 76.501 0 0 0-2.542 20.807 77.449 77.449 0 0 0-7.842 11.044c-55.904-14.72-107.464 36.283-92.631 92.631-50.257 29.313-50.014 101.831 0 131.002-14.895 56.594 37.51 107.145 92.633 92.631 21.366 36.634 65.59 46.373 99.317 29.71 6.204 13.515 16.308 24.929 28.74 32.851V213.96c0-32.6 20.58-60.375 49.449-71.089v-31.929c-.004-35.203 23.987-64.798 56.51-73.338zM356.678 319.805c14.946-56.785-37.004-108.201-93.363-93.363-29.58-50.72-102.672-50.348-132.036 0-56.344-14.834-108.313 36.57-93.363 93.363-50.652 29.544-50.408 102.635 0 132.036-9.024 34.287 6.451 66.443 32.447 83.414 17.06 11.136 38.586 15.83 60.916 9.951 29.583 50.722 102.672 50.347 132.036 0 56.705 14.93 108.218-36.927 93.363-93.363 50.637-29.535 50.421-102.628 0-132.038z" fill="#FFB5C0"/><path d="M960.434 354.351c-6.02-16.717-24.69-24.841-40.918-18.12l-27.117 11.233-13.975-33.743c-6.72-16.227-25.67-23.686-41.747-16.122-15.06 7.083-21.395 25.208-15.026 40.583l23.313 56.28-30.088 72.638c-.288.149-.579.278-.865.43l-66.529 35.326-28.987-54.598 14.214-69.873c3.404-16.725-7.396-33.044-24.122-36.445-16.726-3.404-33.044 7.397-36.446 24.122l-19.116 93.961-62.795-12.776c-16.314-3.32-32.917 6.358-36.994 22.499-4.35 17.222 6.587 34.391 23.793 37.892l36.878 7.504 44.85 84.225-27.617 90.138c-16.007 52.239-64.351 87.922-119.124 87.922-9.788 0-19.39-1.164-28.657-3.354h-59.942v206.886L484.956 1024h276.806c10.63 0 18.14-10.477 14.61-20.476-4.889-13.852-14.6-25.435-27.122-32.751-19.023-11.116-31.198-30.97-31.198-52.958V870.7a286.884 286.884 0 0 1 12.589-84.054l47.802-156.02h60.342V564.34l67.163-155.584 36.417-15.084c15.372-6.37 23.709-23.665 18.07-39.322z" fill="#D6948C"/><path d="M464.624 823.393c0-17.589 6.727-36.36 18.735-49.322-42.136-9.956-77.253-41.44-90.466-84.568l-27.617-90.138 110.342-206.178 62.934-26.82-22.85-57.438c-24.161 10.009-38.011 16.495-83.918 35.51l-36.693-88.583c-6.531-15.77-24.61-23.26-40.38-16.726-15.77 6.531-23.258 24.611-16.727 40.381l25.427 61.386-86.862 161.959c-76.308-40.517-65.332-34.703-67.395-35.756l-39.204-94.648c-6.533-15.77-24.61-23.258-40.38-16.726-15.769 6.531-23.254 24.609-16.727 40.379l48.522 117.137-59.213 24.526 26.486 55.762 31.12-12.719 84.278 44.747 49.356 161.087a286.954 286.954 0 0 1 12.589 84.054v47.116c0 21.989-12.173 41.842-31.198 52.958-12.523 7.316-22.233 18.9-27.123 32.751-3.529 10.001 3.979 20.476 14.61 20.476h222.686c-13.018-12.982-20.332-30.862-20.332-49.222z" fill="#CE857A"/><path d="M799.162 220.076c0-22.759 18.449-41.207 41.207-41.207s41.207 18.448 41.207 41.207c22.759 0 41.207 18.448 41.207 41.207s-18.448 41.207-41.207 41.207c0 22.759-18.448 41.207-41.207 41.207s-41.207-18.448-41.207-41.207c-22.759 0-41.207-18.448-41.207-41.207s18.45-41.207 41.207-41.207z" fill="#FFB5C0"/><path d="M816.737 261.283a23.632 23.632 0 1 0 47.264 0 23.632 23.632 0 1 0-47.264 0z" fill="#FFDBE0"/><path d="M395.091 132.235c0-34.136-27.672-61.81-61.81-61.81s-61.811 27.674-61.811 61.81c-34.138 0-61.81 27.674-61.81 61.81s27.672 61.811 61.81 61.811c0 34.136 27.673 61.81 61.81 61.81s61.811-27.674 61.811-61.81c34.138 0 61.811-27.675 61.811-61.81s-27.673-61.811-61.81-61.811z" fill="#FF8E9E"/><path d="M309.64799999999997 194.045a23.632 23.632 0 1 0 47.265 0 23.632 23.632 0 1 0-47.265 0zM1005.91 630.622c24.14-24.139 24.14-63.275 0-87.412-24.139-24.14-63.275-24.14-87.412 0-24.14-24.14-63.276-24.14-87.413 0-24.139 24.139-24.139 63.275 0 87.412-24.139 24.14-24.139 63.276 0 87.413 24.14 24.14 63.276 24.14 87.413 0 24.139 24.14 63.275 24.14 87.413 0s24.137-63.273 0-87.413z" fill="#FFB5C0"/><path d="M894.864 630.622a23.632 23.632 0 1 0 47.264 0 23.632 23.632 0 1 0-47.264 0z" fill="#FFDBE0"/><path d="M70.36 535.255c16.092-16.092 42.184-16.094 58.276 0s16.091 42.184 0 58.275c16.093 16.093 16.091 42.184 0 58.275s-42.184 16.093-58.275 0c-16.092 16.091-42.184 16.093-58.275 0s-16.092-42.184 0-58.275c-16.094-16.094-16.092-42.184 0-58.275s42.183-16.094 58.275 0z" fill="#FF8E9E"/><path d="M46.728 593.53a23.632 23.632 0 1 0 47.265 0 23.632 23.632 0 1 0-47.265 0z" fill="#FFB5C0"/><path d="M519.469 265.36c0-22.758 18.448-41.207 41.207-41.207s41.207 18.449 41.207 41.208c22.759 0 41.207 18.448 41.207 41.207s-18.448 41.207-41.207 41.207c0 22.758-18.448 41.207-41.207 41.207s-41.207-18.449-41.207-41.207c-22.759 0-41.207-18.449-41.207-41.207 0-22.757 18.448-41.207 41.207-41.207z" fill="#FF8E9E"/><path d="M537.044 306.568a23.632 23.632 0 1 0 47.264 0 23.632 23.632 0 1 0-47.264 0z" fill="#FFB5C0"/><path d="M383.35 838.333a15.453 15.453 0 0 0-15.453 15.453v24.724c0 8.536 6.918 15.453 15.452 15.453s15.453-6.917 15.453-15.453v-24.724a15.453 15.453 0 0 0-15.453-15.453zm257.332 0a15.453 15.453 0 0 0-15.453 15.453v24.724c0 8.536 6.919 15.453 15.453 15.453s15.452-6.917 15.452-15.453v-24.724a15.453 15.453 0 0 0-15.452-15.453zm-84.592 27.792a15.453 15.453 0 0 0-21.803 1.498c-11.794 13.537-32.76 13.528-44.545 0a15.453 15.453 0 0 0-23.3 20.305c24.118 27.673 67.052 27.642 91.143 0a15.453 15.453 0 0 0-1.495-21.803z" fill="#313D40"/></svg>