<?xml version="1.0" standalone="no"?><!DOCTYPE svg PUBLIC "-//W3C//DTD SVG 1.1//EN" "http://www.w3.org/Graphics/SVG/1.1/DTD/svg11.dtd"><svg t="1624436309095" class="icon" viewBox="0 0 1024 1024" version="1.1" xmlns="http://www.w3.org/2000/svg" p-id="15981" xmlns:xlink="http://www.w3.org/1999/xlink" width="200" height="200"><defs><style type="text/css"></style></defs><path d="M1013.414346 446.140277c0-9.520904-3.162646-18.283597-8.441278-25.375341 18.458727-24.26893 24.551199-56.855516 13.569503-87.359082-18.118768-50.307705-74.411807-74.298487-122.731269-54.280071v-14.41837l5.857592-3.467578c50.0481-29.627915 50.025437-101.822779 0-131.001537 14.82838-56.340427-36.715539-107.356894-92.633593-92.635653h-126.565591v593.104296l20.603557 41.207114c17.265781 11.000239 38.530712 14.976726 59.707048 9.401403 29.351827 50.324188 101.868107 49.953324 131.001537 0 56.260073 14.811897 107.369257-36.639306 92.633593-92.631532 43.218021-25.208452 49.06325-82.375081 18.01575-116.443063 5.610349-7.213305 8.983151-16.254146 8.983151-26.100586z" fill="#FFDBE0" p-id="15982"></path><path d="M809.035301 37.602645c-29.349767-50.322128-101.866046-49.951264-131.001536 0.002061-55.903631-14.719181-107.464033 36.282864-92.631533 92.631532-50.256196 29.312681-50.013074 101.83102 0 131.001536a76.501007 76.501007 0 0 0-2.542479 20.807533 77.448771 77.448771 0 0 0-7.841713 11.043506c-55.903631-14.719181-107.464033 36.282864-92.631533 92.631533-50.256196 29.312681-50.013074 101.83102 0 131.001536-14.894311 56.593851 37.510836 107.144678 92.633593 92.631532 21.365889 36.633124 65.589364 46.372426 99.317386 29.710329 6.203731 13.513873 16.307715 24.928244 28.739902 32.850312v-457.955263c0-32.598948 20.578833-60.374603 49.448537-71.088453V110.941007c-0.004121-35.203238 23.986661-64.798187 56.509376-73.338362zM356.678025 319.805446c14.94582-56.785464-37.003988-108.20164-93.362959-93.362959-29.580527-50.719776-102.671646-50.348912-132.035835 0-56.344547-14.834561-108.312899 36.569253-93.362958 93.362959-50.651785 29.54344-50.408663 102.634559 0 132.035835-9.024358 34.286379 6.450974 66.442351 32.446481 83.413501 17.059745 11.136223 38.586342 15.829713 60.916477 9.951518 29.582587 50.721837 102.671646 50.346852 132.035835 0 56.70511 14.929337 108.218123-36.927755 93.362959-93.362959 50.637362-29.535199 50.421025-102.628378 0-132.037895z" fill="#FFB5C0" p-id="15983"></path><path d="M960.434359 354.35143c-6.020359-16.717726-24.691303-24.841709-40.918664-18.120829l-27.116342 11.23306-13.975392-33.742446c-6.72088-16.227362-25.669972-23.685849-41.746928-16.122283-15.05914 7.083503-21.394734 25.208452-15.026174 40.582826l23.312925 56.280677-30.087374 72.63784c-0.28845 0.148346-0.57896 0.278148-0.86535 0.430615l-66.528886 35.324798-28.987144-54.597366 14.214394-69.872843c3.403708-16.725968-7.396677-33.043985-24.122645-36.445632-16.725968-3.403708-33.043985 7.396677-36.445632 24.122645l-19.11598 93.960461-62.795521-12.776265c-16.313896-3.319233-32.916243 6.358258-36.993687 22.499084-4.349411 17.222513 6.586957 34.391457 23.792988 37.892002l36.878307 7.503815 44.849823 84.225281-27.617008 90.138502c-16.006903 52.238259-64.35109 87.921559-119.123586 87.921559-9.78875 0-19.390008-1.164101-28.657488-3.354259h-59.941928v206.886497l61.538704 43.040831h276.806729c10.629375 0 18.139372-10.476909 14.609982-20.475815-4.889224-13.851771-14.599681-25.435091-27.122522-32.751414-19.023264-11.115619-31.197906-30.969207-31.197907-52.957323v-47.116214a286.883928 286.883928 0 0 1 12.588774-84.054272l47.802313-156.020436h60.341637v-66.283703l67.163475-155.58364 36.416788-15.083864c15.372314-6.37062 23.708513-23.665246 18.069319-39.321889z" fill="#D6948C" p-id="15984"></path><path d="M464.624181 823.393467c0-17.589257 6.727061-36.361157 18.734814-49.322856-42.136335-9.955639-77.253037-41.439934-90.466098-84.5673l-27.617008-90.138501 110.34235-206.177735 62.933565-26.819651-22.849345-57.438596c-24.161791 10.009208-38.011502 16.495208-83.918288 35.510231l-36.692874-88.582934c-6.531328-15.769963-24.610949-23.259356-40.380912-16.725967-15.769963 6.531328-23.257295 24.610949-16.725968 40.380911l25.42685 61.386238-86.862536 161.958381c-76.307334-40.516895-65.331819-34.702571-67.394235-35.755413L169.950047 372.451655c-6.533388-15.769963-24.610949-23.257295-40.380911-16.725968-15.767902 6.531328-23.253174 24.608889-16.725968 40.378851l48.521377 117.137403-59.212562 24.526475 26.485872 55.761466 31.119613-12.718575 84.27885 44.746805 49.355821 161.08685a286.953981 286.953981 0 0 1 12.588773 84.054272v47.116214c0 21.988116-12.172582 41.841704-31.197906 52.957323-12.522842 7.316323-22.233298 18.899643-27.122522 32.751414-3.529389 10.000967 3.978547 20.475815 14.609982 20.475815h222.685305c-13.017327-12.982301-20.33159-30.862068-20.33159-49.221898z" fill="#CE857A" p-id="15985"></path><path d="M799.162077 220.075988c0-22.758689 18.448425-41.207114 41.207114-41.207114s41.207114 18.448425 41.207114 41.207114c22.758689 0 41.207114 18.448425 41.207114 41.207114s-18.448425 41.207114-41.207114 41.207114c0 22.758689-18.448425 41.207114-41.207114 41.207115s-41.207114-18.448425-41.207114-41.207115c-22.758689 0-41.207114-18.448425-41.207115-41.207114s18.450485-41.207114 41.207115-41.207114z" fill="#FFB5C0" p-id="15986"></path><path d="M840.369191 261.283102m-23.63228 0a23.63228 23.63228 0 1 0 47.26456 0 23.63228 23.63228 0 1 0-47.26456 0Z" fill="#FFDBE0" p-id="15987"></path><path d="M395.091297 132.234783c0-34.135973-27.672637-61.810671-61.810672-61.810671s-61.810671 27.674698-61.810671 61.810671c-34.138034 0-61.810671 27.674698-61.810671 61.810671s27.672637 61.810671 61.810671 61.810671c0 34.135973 27.672637 61.810671 61.810671 61.810672s61.810671-27.674698 61.810672-61.810672c34.138034 0 61.810671-27.674698 61.810671-61.810671s-27.672637-61.810671-61.810671-61.810671z" fill="#FF8E9E" p-id="15988"></path><path d="M333.280625 194.045454m-23.63228 0a23.63228 23.63228 0 1 0 47.26456 0 23.63228 23.63228 0 1 0-47.26456 0Z" fill="#FFB5C0" p-id="15989"></path><path d="M1005.91053 630.622466c24.139127-24.139127 24.139127-63.275584 0-87.412651-24.139127-24.139127-63.275584-24.139127-87.412651 0-24.139127-24.139127-63.275584-24.139127-87.412651 0-24.139127 24.139127-24.139127 63.275584 0 87.412651-24.139127 24.139127-24.139127 63.275584 0 87.412651 24.139127 24.139127 63.275584 24.139127 87.412651 0 24.139127 24.139127 63.275584 24.139127 87.412651 0s24.137067-63.273524 0-87.412651z" fill="#FFB5C0" p-id="15990"></path><path d="M918.495819 630.622466m-23.63228 0a23.63228 23.63228 0 1 0 47.26456 0 23.63228 23.63228 0 1 0-47.26456 0Z" fill="#FFDBE0" p-id="15991"></path><path d="M70.360694 535.254782c16.091378-16.091378 42.183723-16.093438 58.275101 0s16.091378 42.183723 0 58.2751c16.093438 16.093438 16.091378 42.183723 0 58.275101s-42.183723 16.093438-58.275101 0c-16.091378 16.091378-42.183723 16.093438-58.275101 0s-16.091378-42.183723 0-58.275101c-16.093438-16.093438-16.091378-42.183723 0-58.2751s42.183723-16.093438 58.275101 0z" fill="#FF8E9E" p-id="15992"></path><path d="M70.360694 593.529882m-23.63228 0a23.63228 23.63228 0 1 0 47.26456 0 23.63228 23.63228 0 1 0-47.26456 0Z" fill="#FFB5C0" p-id="15993"></path><path d="M519.468789 265.360546c0-22.758689 18.448425-41.207114 41.207115-41.207114s41.207114 18.448425 41.207114 41.207114c22.758689 0 41.207114 18.448425 41.207114 41.207114s-18.448425 41.207114-41.207114 41.207114c0 22.758689-18.448425 41.207114-41.207114 41.207115s-41.207114-18.448425-41.207115-41.207115c-22.758689 0-41.207114-18.448425-41.207114-41.207114 0-22.756629 18.448425-41.207114 41.207114-41.207114z" fill="#FF8E9E" p-id="15994"></path><path d="M560.675904 306.56766m-23.63228 0a23.63228 23.63228 0 1 0 47.26456 0 23.63228 23.63228 0 1 0-47.26456 0Z" fill="#FFB5C0" p-id="15995"></path><path d="M383.349329 838.333106a15.452668 15.452668 0 0 0-15.452667 15.452668v24.724268c0 8.536054 6.918674 15.452668 15.452667 15.452668s15.452668-6.916614 15.452668-15.452668v-24.724268a15.452668 15.452668 0 0 0-15.452668-15.452668zM640.681576 838.333106a15.452668 15.452668 0 0 0-15.452668 15.452668v24.724268c0 8.536054 6.918674 15.452668 15.452668 15.452668s15.452668-6.916614 15.452668-15.452668v-24.724268a15.452668 15.452668 0 0 0-15.452668-15.452668zM556.089552 866.125244a15.452668 15.452668 0 0 0-21.802684 1.497879c-11.793476 13.536537-32.759656 13.528296-44.544891 0a15.452668 15.452668 0 0 0-23.300562 20.304805c24.118524 27.672637 67.052216 27.641732 91.143955 0a15.452668 15.452668 0 0 0-1.495818-21.802684z" fill="#313D40" p-id="15996"></path></svg>