<?xml version="1.0" standalone="no"?><!DOCTYPE svg PUBLIC "-//W3C//DTD SVG 1.1//EN" "http://www.w3.org/Graphics/SVG/1.1/DTD/svg11.dtd"><svg t="1624436320158" class="icon" viewBox="0 0 1024 1024" version="1.1" xmlns="http://www.w3.org/2000/svg" p-id="16422" xmlns:xlink="http://www.w3.org/1999/xlink" width="200" height="200"><defs><style type="text/css"></style></defs><path d="M512 0l-41.207243 31.960338L512 61.810865c17.06804 0 30.905433 13.837392 30.905433 30.905433s-13.837392 30.905433-30.905433 30.905432l-41.207243 28.606069L512 185.432596c51.206181 0 92.716298-41.510117 92.716298-92.716298s-41.510117-92.716298-92.716298-92.716298z" fill="#E8B5B1" p-id="16423"></path><path d="M512 123.62173c-17.06804 0-30.905433-13.837392-30.905433-30.905432s13.837392-30.905433 30.905433-30.905433c-17.06804-17.06804-17.06804-44.742825 0-61.810865-51.206181 0-92.716298 41.510117-92.716298 92.716298s41.510117 92.716298 92.716298 92.716298c-17.06804-17.06804-17.06804-44.742825 0-61.810866z" fill="#CE857A" p-id="16424"></path><path d="M451.023581 867.058093v74.943613l56.058334 56.058334A88.566728 88.566728 0 0 0 569.706624 1024h86.102535c45.286761 0 81.998294-36.711533 81.998294-81.998294v-74.943613z" fill="#B0EBD8" p-id="16425"></path><path d="M492.230825 942.001706v-74.943613h-206.036217v74.943613c0 45.2847 36.711533 81.998294 81.998293 81.998294h206.036218c-45.286761 0-81.998294-36.711533-81.998294-81.998294z" fill="#70DCBA" p-id="16426"></path><path d="M451.023581 280.563638V205.617964l56.058334-56.058334A88.568789 88.568789 0 0 1 569.704563 123.62173h86.102536c45.286761 0 81.998294 36.711533 81.998293 81.998294v74.943614z" fill="#B0EBD8" p-id="16427"></path><path d="M492.230825 205.617964v74.943613h-206.036217V205.617964c0-45.2847 36.711533-81.998294 81.998293-81.998294h206.036218c-45.286761 0.00206-81.998294 36.713594-81.998294 81.998294z" fill="#70DCBA" p-id="16428"></path><path d="M286.194608 218.22326c-90.571461 0-163.994527 73.423066-163.994528 163.994527V764.874431c0 90.571461 73.423066 163.994527 163.994528 163.994527h335.13645V218.22326z" fill="#FF8E9E" p-id="16429"></path><path d="M737.807453 218.22326h-116.476395c-85.535936 0-155.742777 65.496853-163.287823 149.069263a165.508893 165.508893 0 0 0-0.706704 14.927324v382.654584c0 5.039646 0.263726 10.017481 0.708765 14.939686 7.551227 83.566229 77.756008 149.054841 163.287823 149.054841h116.476394c90.571461 0 163.994527-73.423066 163.994527-163.994527V382.217787c-0.00206-90.571461-73.425127-163.994527-163.996587-163.994527z" fill="#FFB5C0" p-id="16430"></path><path d="M901.80198 743.524958H451.023581c-8.53402 0-15.452716 6.916636-15.452716 15.452716s6.918696 15.452716 15.452716 15.452716h450.778399c8.53402 0 15.452716-6.916636 15.452716-15.452716s-6.918696-15.452716-15.452716-15.452716zM901.80198 619.903227H451.023581c-8.53402 0-15.452716 6.916636-15.452716 15.452717s6.918696 15.452716 15.452716 15.452716h450.778399c8.53402 0 15.452716-6.916636 15.452716-15.452716s-6.918696-15.452716-15.452716-15.452717zM901.80198 496.281497H451.023581c-8.53402 0-15.452716 6.916636-15.452716 15.452716s6.918696 15.452716 15.452716 15.452717h450.778399c8.53402 0 15.452716-6.916636 15.452716-15.452717s-6.918696-15.452716-15.452716-15.452716zM451.023581 403.565199h450.778399c8.53402 0 15.452716-6.916636 15.452716-15.452716s-6.918696-15.452716-15.452716-15.452716H451.023581c-8.53402 0-15.452716 6.916636-15.452716 15.452716s6.918696 15.452716 15.452716 15.452716z" fill="#FF8E9E" p-id="16431"></path><path d="M451.023581 743.524958H122.19802c-8.53402 0-15.452716 6.916636-15.452716 15.452716s6.918696 15.452716 15.452716 15.452716h328.825561c8.53402 0 15.452716-6.916636 15.452717-15.452716s-6.918696-15.452716-15.452717-15.452716zM451.023581 619.903227H122.19802c-8.53402 0-15.452716 6.916636-15.452716 15.452717s6.918696 15.452716 15.452716 15.452716h328.825561c8.53402 0 15.452716-6.916636 15.452717-15.452716s-6.918696-15.452716-15.452717-15.452717zM451.023581 496.281497H122.19802c-8.53402 0-15.452716 6.916636-15.452716 15.452716s6.918696 15.452716 15.452716 15.452717h328.825561c8.53402 0 15.452716-6.916636 15.452717-15.452717s-6.918696-15.452716-15.452717-15.452716zM122.19802 403.565199h328.825561c8.53402 0 15.452716-6.916636 15.452717-15.452716s-6.918696-15.452716-15.452717-15.452716H122.19802c-8.53402 0-15.452716 6.916636-15.452716 15.452716s6.918696 15.452716 15.452716 15.452716z" fill="#EA5B70" p-id="16432"></path><path d="M512 360.351163c-18.629795 0-36.711533 2.416805-53.958825 6.9393l-159.23509 206.543066 159.23715 205.980588a213.041449 213.041449 0 0 0 53.956765 6.924877c117.743517 0 213.193915-95.450398 213.193915-213.193916 0-117.741457-95.450398-213.193915-213.193915-213.193915z" fill="#FFDBE0" p-id="16433"></path><path d="M457.334471 761.771525V382.217787c0-5.035525 0.261666-10.007179 0.706704-14.927324-91.416209 23.974374-159.235091 107.363412-159.23509 206.543066 0 99.665899 68.233014 182.187525 159.23715 205.980588a165.778801 165.778801 0 0 1-0.708764-14.939686z" fill="#FFB5C0" p-id="16434"></path><path d="M383.334503 554.970913a15.452716 15.452716 0 0 0-15.452716 15.452717v24.724346c0 8.53608 6.918696 15.452716 15.452716 15.452716s15.452716-6.916636 15.452716-15.452716v-24.724346a15.452716 15.452716 0 0 0-15.452716-15.452717zM640.667557 554.970913a15.452716 15.452716 0 0 0-15.452716 15.452717v24.724346c0 8.53608 6.918696 15.452716 15.452716 15.452716s15.452716-6.916636 15.452717-15.452716v-24.724346a15.452716 15.452716 0 0 0-15.452717-15.452717zM556.075268 582.763139a15.452716 15.452716 0 0 0-21.802753 1.497883c-11.793513 13.536579-32.759759 13.528338-44.54503 0a15.452716 15.452716 0 0 0-23.300636 20.304869c24.1186 27.672724 67.052427 27.641819 91.144242 0a15.452716 15.452716 0 0 0-1.495823-21.802752z" fill="#313D40" p-id="16435"></path></svg>