<svg class="icon" viewBox="0 0 1024 1024" xmlns="http://www.w3.org/2000/svg" width="200" height="200"><path d="m512 0-41.207 31.96L512 61.81c17.068 0 30.905 13.838 30.905 30.906S529.068 123.622 512 123.622l-41.207 28.606L512 185.433c51.206 0 92.716-41.51 92.716-92.717S563.206 0 512 0z" fill="#E8B5B1"/><path d="M512 123.622c-17.068 0-30.905-13.838-30.905-30.906S494.932 61.811 512 61.811C494.932 44.743 494.932 17.068 512 0c-51.206 0-92.716 41.51-92.716 92.716s41.51 92.717 92.716 92.717c-17.068-17.068-17.068-44.743 0-61.811z" fill="#CE857A"/><path d="M451.024 867.058v74.944l56.058 56.058a88.567 88.567 0 0 0 62.625 25.94h86.102c45.287 0 81.998-36.712 81.998-81.998v-74.944z" fill="#B0EBD8"/><path d="M492.23 942.002v-74.944H286.196v74.944c0 45.284 36.711 81.998 81.998 81.998h206.036c-45.287 0-81.998-36.712-81.998-81.998z" fill="#70DCBA"/><path d="M451.024 280.564v-74.946l56.058-56.058a88.569 88.569 0 0 1 62.623-25.938h86.102c45.287 0 81.998 36.711 81.998 81.998v74.944z" fill="#B0EBD8"/><path d="M492.23 205.618v74.944H286.196v-74.944c0-45.285 36.711-81.998 81.998-81.998h206.036c-45.287.002-81.998 36.713-81.998 81.998z" fill="#70DCBA"/><path d="M286.195 218.223c-90.572 0-163.995 73.423-163.995 163.995v382.656c0 90.572 73.423 163.995 163.995 163.995H621.33V218.223z" fill="#FF8E9E"/><path d="M737.807 218.223H621.331c-85.536 0-155.743 65.497-163.288 149.07a165.509 165.509 0 0 0-.706 14.927v382.654c0 5.04.263 10.018.708 14.94 7.552 83.566 77.756 149.055 163.288 149.055H737.81c90.571 0 163.994-73.423 163.994-163.995V382.218c-.002-90.572-73.425-163.995-163.997-163.995z" fill="#FFB5C0"/><path d="M901.802 743.525H451.024c-8.534 0-15.453 6.917-15.453 15.453s6.919 15.452 15.453 15.452h450.778c8.534 0 15.453-6.916 15.453-15.452s-6.919-15.453-15.453-15.453zm0-123.622H451.024c-8.534 0-15.453 6.917-15.453 15.453s6.919 15.453 15.453 15.453h450.778c8.534 0 15.453-6.917 15.453-15.453s-6.919-15.453-15.453-15.453zm0-123.622H451.024c-8.534 0-15.453 6.917-15.453 15.453s6.919 15.453 15.453 15.453h450.778c8.534 0 15.453-6.917 15.453-15.453s-6.919-15.453-15.453-15.453zm-450.778-92.716h450.778c8.534 0 15.453-6.916 15.453-15.453s-6.919-15.452-15.453-15.452H451.024c-8.534 0-15.453 6.916-15.453 15.452s6.919 15.453 15.453 15.453z" fill="#FF8E9E"/><path d="M451.024 743.525H122.198c-8.534 0-15.453 6.917-15.453 15.453s6.919 15.452 15.453 15.452h328.826c8.534 0 15.452-6.916 15.452-15.452s-6.918-15.453-15.452-15.453zm0-123.622H122.198c-8.534 0-15.453 6.917-15.453 15.453s6.919 15.453 15.453 15.453h328.826c8.534 0 15.452-6.917 15.452-15.453s-6.918-15.453-15.452-15.453zm0-123.622H122.198c-8.534 0-15.453 6.917-15.453 15.453s6.919 15.453 15.453 15.453h328.826c8.534 0 15.452-6.917 15.452-15.453s-6.918-15.453-15.452-15.453zm-328.826-92.716h328.826c8.534 0 15.452-6.916 15.452-15.453s-6.918-15.452-15.452-15.452H122.198c-8.534 0-15.453 6.916-15.453 15.452s6.919 15.453 15.453 15.453z" fill="#EA5B70"/><path d="M512 360.351c-18.63 0-36.712 2.417-53.959 6.94L298.806 573.833l159.237 205.98A213.041 213.041 0 0 0 512 786.74c117.744 0 213.194-95.45 213.194-213.194 0-117.741-95.45-213.194-213.194-213.194z" fill="#FFDBE0"/><path d="M457.334 761.772V382.218c0-5.036.262-10.007.707-14.928-91.416 23.975-159.235 107.364-159.235 206.544 0 99.665 68.233 182.187 159.237 205.98a165.779 165.779 0 0 1-.709-14.94z" fill="#FFB5C0"/><path d="M383.335 554.97a15.453 15.453 0 0 0-15.453 15.454v24.724c0 8.536 6.918 15.453 15.453 15.453s15.452-6.917 15.452-15.453v-24.724a15.453 15.453 0 0 0-15.452-15.453zm257.333 0a15.453 15.453 0 0 0-15.453 15.454v24.724c0 8.536 6.919 15.453 15.453 15.453s15.452-6.917 15.452-15.453v-24.724a15.453 15.453 0 0 0-15.452-15.453zm-84.593 27.793a15.453 15.453 0 0 0-21.802 1.498c-11.794 13.537-32.76 13.528-44.546 0a15.453 15.453 0 0 0-23.3 20.305c24.118 27.673 67.052 27.642 91.144 0a15.453 15.453 0 0 0-1.496-21.803z" fill="#313D40"/></svg>