<?xml version="1.0" standalone="no"?><!DOCTYPE svg PUBLIC "-//W3C//DTD SVG 1.1//EN" "http://www.w3.org/Graphics/SVG/1.1/DTD/svg11.dtd"><svg t="1624436323132" class="icon" viewBox="0 0 1024 1024" version="1.1" xmlns="http://www.w3.org/2000/svg" p-id="16566" xmlns:xlink="http://www.w3.org/1999/xlink" width="200" height="200"><defs><style type="text/css"></style></defs><path d="M977.464775 330.07609c66.014703-76.744848 62.666683-194.729054-15.821195-264.489418-14.036958-12.50614-35.491067-12.819309-49.907124-0.733474-15.837677 13.284941-18.594385 37.351536-4.415265 54.13902 37.145504 44.294813 29.376038 105.298818-6.860864 135.513406l-0.31935 0.269902c-74.445531 64.543635-101.734465 92.885392-161.222075 116.51932-59.221829 23.570057-96.377634 22.36683-139.40123 20.955511-38.577426-1.260916-82.287108-2.684597-145.765557 14.154396v148.178192h162.954804c43.021535-5.02512 91.070251-10.639491 155.432577-42.638316l17.830007 17.830006a152.521345 152.521345 0 0 0 107.845373 44.671852h16.540247c30.80384 0 50.716829-32.565413 36.677811-59.984147a41.206394 41.206394 0 0 0-36.677811-22.42864h-11.356482a57.8785 57.8785 0 0 1-50.714769-29.985893c43.818879-34.267237 74.155026-73.02185 125.180903-131.971717z" fill="#D6948C" p-id="16567"></path><path d="M453.750055 406.404753c-59.258915 15.584258-116.612034 43.44184-165.732115 80.463725l-83.296665 61.809591-154.979307 115.000863-0.119498 0.088594C20.848045 685.431787 2.877937 718.168207 0.323141 753.583042a123.149428 123.149428 0 0 0 35.392171 95.633858c23.157993 23.341362 54.017461 36.265747 86.896043 36.393487l0.496537 0.002061c32.691092 0 63.459907-12.673026 86.679709-35.709461l210.150548-208.471387 0.206031-0.206032c25.531481-26.015657 56.980201-47.478007 90.99814-62.087733 38.719588-16.748339 71.188166-20.541387 105.564599-24.55489-82.064593-5.73799-149.467952-67.030441-162.956864-148.178192z" fill="#CE857A" p-id="16568"></path><path d="M681.642015 488.316883h-50.383058a48.374246 48.374246 0 0 0-27.0726 8.286606l-51.229849 34.60925v62.081552h171.581363V531.212739c0-23.691616-19.2063-42.895856-42.895856-42.895856z" fill="#B0EBD8" p-id="16569"></path><path d="M637.058757 488.316883h-123.619181c-23.689556 0-42.895856 19.20424-42.895855 42.895856v62.081552h123.61918V531.212739c0-23.691616 19.20424-42.895856 42.895856-42.895856z" fill="#70DCBA" p-id="16570"></path><path d="M681.642015 1024h-50.383058a48.374246 48.374246 0 0 1-27.0726-8.286606l-51.229849-34.60925v-62.081552h171.581363v62.081552c0 23.691616-19.2063 42.895856-42.895856 42.895856z" fill="#B0EBD8" p-id="16571"></path><path d="M637.058757 1024h-123.619181c-23.689556 0-42.895856-19.20424-42.895855-42.895856v-62.081552h123.61918v62.081552c0 23.691616 19.20424 42.895856 42.895856 42.895856z" fill="#70DCBA" p-id="16572"></path><path d="M470.543721 570.140419c-47.381172 0-85.789651 38.41054-85.789652 85.789651V876.711867c0 47.381172 38.41054 85.789651 85.789652 85.789651h184.190519V570.140419z" fill="#EA5B70" p-id="16573"></path><path d="M724.537871 570.140419h-69.803631c-39.970202 0-73.553413 27.334261-83.082391 64.327301-2.933895 11.391508-2.70726 19.72138-2.70726 26.011536v216.232611c0 7.41097 0.939506 14.603546 2.70726 21.46235 9.528979 36.99304 43.11425 64.327301 83.082391 64.327301h69.803631c47.381172 0 85.789651-38.41054 85.789651-85.789651V655.93007c0-47.381172-38.41054-85.789651-85.789651-85.789651z" fill="#FF8E9E" p-id="16574"></path><path d="M597.539765 631.950009c-8.859375 0-17.508597 0.881817-25.889977 2.517711l-108.482012 131.854278 108.482012 131.854279a134.981844 134.981844 0 0 0 25.889977 2.517711c74.210655 0 134.371989-60.159274 134.37199-134.37199 0-74.210655-60.161335-134.371989-134.37199-134.371989z" fill="#FFDBE0" p-id="16575"></path><path d="M568.942528 841.810051v-185.879981c0-7.41303 0.939506-14.603546 2.70726-21.46235-61.819892 12.069353-108.482012 66.500938-108.482012 131.854278s46.66212 119.784926 108.482012 131.854279a85.91121 85.91121 0 0 1-2.70726-21.46235z" fill="#FFB5C0" p-id="16576"></path><path d="M518.322534 740.409358a15.452398 15.452398 0 0 0-15.452398 15.452397v24.723837c0 8.535904 6.918553 15.452398 15.452398 15.452397s15.452398-6.916493 15.452398-15.452397v-24.723837a15.452398 15.452398 0 0 0-15.452398-15.452397zM676.756997 740.409358a15.452398 15.452398 0 0 0-15.452398 15.452397v24.723837c0 8.535904 6.918553 15.452398 15.452398 15.452397s15.452398-6.916493 15.452397-15.452397v-24.723837a15.452398 15.452398 0 0 0-15.452397-15.452397zM628.294157 767.113161a15.448277 15.448277 0 0 0-21.802303 1.499913c-2.262231 2.596003-5.525777 4.083554-8.954149 4.083553s-6.691918-1.489611-8.954149-4.085613a15.452398 15.452398 0 1 0-23.298095 20.30445c8.134142 9.333248 19.888266 14.685959 32.252244 14.685959s24.120163-5.354771 32.252244-14.688019a15.448277 15.448277 0 0 0-1.495792-21.800243z" fill="#313D40" p-id="16577"></path><path d="M204.723336 425.058888c0-34.135376 27.672154-61.80959 61.80959-61.809591s61.80959 27.674214 61.80959 61.809591c34.137437 0 61.80959 27.674214 61.809591 61.80959s-27.672154 61.80959-61.809591 61.809591c0 34.135376-27.672154 61.80959-61.80959 61.80959s-61.80959-27.674214-61.80959-61.80959c-34.137437 0-61.80959-27.674214-61.809591-61.809591s27.672154-61.80959 61.809591-61.80959z" fill="#FF8E9E" p-id="16578"></path><path d="M266.532926 486.868478m-23.631867 0a23.631867 23.631867 0 1 0 47.263734 0 23.631867 23.631867 0 1 0-47.263734 0Z" fill="#FFDBE0" p-id="16579"></path><path d="M918.465461 18.125147c24.138705-24.138705 63.274478-24.138705 87.411122 0s24.138705 63.274478 0 87.411123c24.138705 24.138705 24.138705 63.274478 0 87.411123s-63.274478 24.138705-87.411122 0c-24.138705 24.138705-63.274478 24.138705-87.411123 0s-24.138705-63.274478 0-87.411123c-24.138705-24.138705-24.138705-63.274478 0-87.411123s63.272417-24.138705 87.411123 0z" fill="#FFB5C0" p-id="16580"></path><path d="M918.465461 105.53627m-23.631867 0a23.631867 23.631867 0 1 0 47.263733 0 23.631867 23.631867 0 1 0-47.263733 0Z" fill="#FFDBE0" p-id="16581"></path><path d="M900.361432 515.259683c0-22.758291 18.448102-41.206394 41.206393-41.206393s41.206394 18.448102 41.206394 41.206393c22.758291 0 41.206394 18.448102 41.206393 41.206394s-18.448102 41.206394-41.206393 41.206394c0 22.758291-18.448102 41.206394-41.206394 41.206393s-41.206394-18.448102-41.206393-41.206393c-22.758291 0-41.206394-18.448102-41.206394-41.206394s18.448102-41.206394 41.206394-41.206394z" fill="#FFB5C0" p-id="16582"></path><path d="M941.567825 556.466077m-23.631867 0a23.631867 23.631867 0 1 0 47.263734 0 23.631867 23.631867 0 1 0-47.263734 0Z" fill="#FFDBE0" p-id="16583"></path></svg>