<svg class="icon" viewBox="0 0 1024 1024" xmlns="http://www.w3.org/2000/svg" width="200" height="200"><path d="M977.465 330.076c66.014-76.745 62.666-194.729-15.821-264.49-14.037-12.505-35.491-12.819-49.908-.733-15.837 13.285-18.594 37.352-4.415 54.14 37.146 44.294 29.376 105.298-6.86 135.513l-.32.27c-74.446 64.543-101.734 92.885-161.222 116.519-59.222 23.57-96.378 22.367-139.401 20.955-38.578-1.26-82.287-2.684-145.766 14.155v148.178h162.955c43.021-5.025 91.07-10.64 155.432-42.638l17.83 17.83a152.521 152.521 0 0 0 107.846 44.671h16.54c30.804 0 50.717-32.565 36.678-59.984a41.206 41.206 0 0 0-36.678-22.428H903a57.879 57.879 0 0 1-50.715-29.986c43.819-34.267 74.155-73.022 125.18-131.972z" fill="#D6948C"/><path d="M453.75 406.405c-59.259 15.584-116.612 43.442-165.732 80.463l-83.297 61.81-154.979 115-.12.09c-28.774 21.664-46.744 54.4-49.299 89.815a123.15 123.15 0 0 0 35.392 95.634c23.158 23.341 54.018 36.266 86.896 36.393l.497.002c32.691 0 63.46-12.673 86.68-35.709l210.15-208.471.206-.206c25.532-26.016 56.98-47.478 90.998-62.088 38.72-16.749 71.188-20.542 105.565-24.555-82.065-5.738-149.468-67.03-162.957-148.178z" fill="#CE857A"/><path d="M681.642 488.317h-50.383a48.374 48.374 0 0 0-27.073 8.286l-51.23 34.61v62.081h171.582v-62.081c0-23.692-19.206-42.896-42.896-42.896z" fill="#B0EBD8"/><path d="M637.059 488.317h-123.62c-23.689 0-42.895 19.204-42.895 42.896v62.081h123.619v-62.081c0-23.692 19.204-42.896 42.896-42.896z" fill="#70DCBA"/><path d="M681.642 1024h-50.383a48.374 48.374 0 0 1-27.073-8.287l-51.23-34.609v-62.081h171.582v62.081c0 23.692-19.206 42.896-42.896 42.896z" fill="#B0EBD8"/><path d="M637.059 1024h-123.62c-23.689 0-42.895-19.204-42.895-42.896v-62.081h123.619v62.081c0 23.692 19.204 42.896 42.896 42.896z" fill="#70DCBA"/><path d="M470.544 570.14c-47.381 0-85.79 38.411-85.79 85.79v220.782c0 47.381 38.41 85.79 85.79 85.79h184.19V570.14z" fill="#EA5B70"/><path d="M724.538 570.14h-69.804c-39.97 0-73.553 27.335-83.082 64.328-2.934 11.391-2.707 19.721-2.707 26.011v216.233a85.9 85.9 0 0 0 2.707 21.462c9.529 36.993 43.114 64.328 83.082 64.328h69.804c47.381 0 85.79-38.411 85.79-85.79V655.93c0-47.381-38.411-85.79-85.79-85.79z" fill="#FF8E9E"/><path d="M597.54 631.95c-8.86 0-17.509.882-25.89 2.518L463.168 766.322 571.65 898.176a134.982 134.982 0 0 0 25.89 2.518c74.21 0 134.372-60.16 134.372-134.372 0-74.21-60.162-134.372-134.372-134.372z" fill="#FFDBE0"/><path d="M568.943 841.81V655.93c0-7.413.939-14.603 2.707-21.462-61.82 12.07-108.482 66.5-108.482 131.854S509.83 886.107 571.65 898.176a85.911 85.911 0 0 1-2.707-21.462z" fill="#FFB5C0"/><path d="M518.323 740.41a15.452 15.452 0 0 0-15.453 15.452v24.724c0 8.535 6.919 15.452 15.453 15.452s15.452-6.917 15.452-15.452v-24.724a15.452 15.452 0 0 0-15.452-15.453zm158.434 0a15.452 15.452 0 0 0-15.452 15.452v24.724c0 8.535 6.918 15.452 15.452 15.452s15.452-6.917 15.452-15.452v-24.724a15.452 15.452 0 0 0-15.452-15.453zm-48.463 26.703a15.448 15.448 0 0 0-21.802 1.5c-2.262 2.596-5.526 4.084-8.954 4.084s-6.692-1.49-8.954-4.086a15.452 15.452 0 1 0-23.299 20.304c8.135 9.334 19.889 14.686 32.253 14.686s24.12-5.354 32.252-14.688a15.448 15.448 0 0 0-1.496-21.8z" fill="#313D40"/><path d="M204.723 425.059c0-34.135 27.672-61.81 61.81-61.81s61.81 27.675 61.81 61.81c34.137 0 61.81 27.674 61.81 61.81s-27.673 61.81-61.81 61.81c0 34.134-27.673 61.809-61.81 61.809s-61.81-27.675-61.81-61.81c-34.137 0-61.81-27.674-61.81-61.81s27.673-61.81 61.81-61.81z" fill="#FF8E9E"/><path d="M242.901 486.868a23.632 23.632 0 1 0 47.264 0 23.632 23.632 0 1 0-47.264 0z" fill="#FFDBE0"/><path d="M918.465 18.125c24.14-24.139 63.275-24.139 87.412 0s24.138 63.275 0 87.411c24.138 24.139 24.138 63.275 0 87.411s-63.275 24.14-87.412 0c-24.138 24.14-63.274 24.14-87.41 0s-24.14-63.274 0-87.41c-24.14-24.14-24.14-63.275 0-87.412s63.272-24.139 87.41 0z" fill="#FFB5C0"/><path d="M894.834 105.536a23.632 23.632 0 1 0 47.263 0 23.632 23.632 0 1 0-47.263 0z" fill="#FFDBE0"/><path d="M900.361 515.26c0-22.759 18.449-41.207 41.207-41.207s41.206 18.448 41.206 41.207c22.759 0 41.207 18.448 41.207 41.206s-18.448 41.206-41.207 41.206c0 22.759-18.448 41.207-41.206 41.207s-41.207-18.448-41.207-41.207c-22.758 0-41.206-18.448-41.206-41.206s18.448-41.206 41.206-41.206z" fill="#FFB5C0"/><path d="M917.936 556.466a23.632 23.632 0 1 0 47.264 0 23.632 23.632 0 1 0-47.264 0z" fill="#FFDBE0"/></svg>