<svg class="icon" viewBox="0 0 1024 1024" xmlns="http://www.w3.org/2000/svg" width="200" height="200"><path d="M967.042 405.087c4.611-60.823-54.603-106.19-112.134-85.78-19.343-32.36-56.24-46.671-90.35-39.2 60.635-34.223 55.563-128.95-14.955-153.157C754.217 66.127 695 20.758 637.47 41.17 610.973-3.16 551.528-13.668 511.44 19.373 384.71 69.22 301.382 191.534 301.382 327.715V678.22c38.927 26.024 93.868 15.49 119.241-27.1 34.466 12.158 69.772.542 91.379-23.917 21.557 24.582 56.886 36.302 91.537 24.038 26.657 44.766 86.71 54.396 125.98 21.997V564.785h238.014c75.505-26.405 75.221-133.704-.49-159.698z" fill="#FFDBE0"/><path d="M56.603 571.046c-.353 4.494-.318-4.306 0 0z" fill="#FFB5C0"/><path d="M385.445 41.52c-57.562-20.226-116.884 25.398-111.838 86.417-30.36 10.623-48.404 34.435-54.146 60.727-7.475 34.225 5.909 72.667 40.191 91.836-34.397-8.023-72.09 6.163-91.644 39.16-57.562-20.227-116.884 25.395-111.838 86.416-75.007 26.245-74.925 138.847.433 164.973l100.12 43.836c81.477 35.672 176.667 2.237 217.94-76.55l7.7-14.7a206.043 206.043 0 0 0 23.525-95.606V236.038A275.145 275.145 0 0 1 511.44 19.373C471.672-13.399 411.926-3.16 385.445 41.52z" fill="#FFB5C0"/><path d="M842.978 522.126c-16.008-30.152-53.426-41.615-83.578-25.606l-11.935 6.337-35.325-66.53c-16.009-30.152-53.431-41.611-83.578-25.609-30.151 16.011-41.615 53.43-25.608 83.578l55.786 105.068-27.617 90.138C615.116 741.74 566.772 777.424 512 777.424a124.96 124.96 0 0 1-27.06-2.982H423.4v249.556h338.343c10.63 0 18.14-10.477 14.61-20.476-4.89-13.852-14.6-25.435-27.123-32.751-19.023-11.116-31.197-30.97-31.197-52.957v-47.116c0-28.487 4.242-56.817 12.586-84.054l49.356-161.087 37.395-19.853c30.152-16.007 41.615-53.427 25.608-83.578z" fill="#E8B5B1"/><path d="M484.937 1023.726a69.133 69.133 0 0 1-20.332-48.95V823.394c0-18.36 7.315-35.97 20.332-48.95-42.793-9.496-78.666-41.22-92.063-84.94l-27.617-90.138 55.786-105.068c16.01-30.15 4.544-67.569-25.608-83.578-30.149-16.002-67.569-4.545-83.578 25.608l-35.324 66.531-66.53-35.324c-30.152-16.011-67.572-4.542-83.577 25.608-16.01 30.15-4.543 67.57 25.608 83.578l91.988 48.838 49.352 161.076a286.928 286.928 0 0 1 12.59 84.065v47.116c0 21.988-12.172 41.841-31.197 52.957-12.523 7.316-22.233 18.9-27.123 32.751-3.529 10.001 3.979 20.476 14.61 20.476h222.957z" fill="#D6948C"/><path d="M513.23 112.33c0-22.758 18.448-41.207 41.207-41.207s41.207 18.449 41.207 41.207c22.758 0 41.207 18.449 41.207 41.207s-18.449 41.207-41.207 41.207c0 22.759-18.449 41.207-41.207 41.207s-41.207-18.448-41.207-41.207c-22.759 0-41.207-18.448-41.207-41.207s18.45-41.207 41.207-41.207z" fill="#FFB5C0"/><path d="M530.805 153.537a23.632 23.632 0 1 0 47.264 0 23.632 23.632 0 1 0-47.264 0z" fill="#FFDBE0"/><path d="M303.447 413.932c0-34.135 27.673-61.81 61.81-61.81s61.811 27.675 61.811 61.81c34.138 0 61.81 27.675 61.81 61.81s-27.672 61.811-61.81 61.811c0 34.136-27.673 61.81-61.81 61.81s-61.811-27.674-61.811-61.81c-34.138 0-61.81-27.674-61.81-61.81s27.672-61.81 61.81-61.81z" fill="#FF8E9E"/><path d="M341.625 475.743a23.632 23.632 0 1 0 47.265 0 23.632 23.632 0 1 0-47.265 0z" fill="#FFDBE0"/><path d="M595.35 369.567c5.12-22.174 27.245-36 49.419-30.88 22.175 5.12 36 27.245 30.88 49.419 22.176 5.12 36 27.246 30.88 49.42s-27.245 36-49.419 30.88c-5.12 22.174-27.246 36-49.42 30.88s-36-27.246-30.88-49.419c-22.175-5.12-36-27.246-30.88-49.42s27.244-36 49.42-30.88z" fill="#FFB5C0"/><path d="M602.597 418.989a23.632 23.632 0 1 0 47.265 0 23.632 23.632 0 1 0-47.265 0z" fill="#FFDBE0"/><path d="M743.954 188.664c0-34.136 27.672-61.81 61.81-61.81s61.81 27.674 61.81 61.81c34.139 0 61.811 27.675 61.811 61.81s-27.672 61.811-61.81 61.811c0 34.136-27.673 61.81-61.81 61.81s-61.811-27.674-61.811-61.81c-34.138 0-61.81-27.675-61.81-61.81s27.674-61.81 61.81-61.81z" fill="#FFB5C0"/><path d="M782.132 250.475a23.632 23.632 0 1 0 47.265 0 23.632 23.632 0 1 0-47.265 0z" fill="#FFDBE0"/><path d="M227.704 166.79c0-22.76 18.449-41.208 41.207-41.208s41.207 18.449 41.207 41.207c22.759 0 41.207 18.449 41.207 41.207s-18.448 41.207-41.207 41.207c0 22.759-18.448 41.207-41.207 41.207s-41.207-18.448-41.207-41.207c-22.758 0-41.207-18.448-41.207-41.207s18.449-41.207 41.207-41.207z" fill="#FF8E9E"/><path d="M245.279 207.996a23.632 23.632 0 1 0 47.265 0 23.632 23.632 0 1 0-47.265 0z" fill="#FFDBE0"/><path d="M395.543 824.292c-24.16 0-43.814 19.654-43.814 43.814a15.453 15.453 0 0 0 30.905 0c0-7.119 5.792-12.908 12.909-12.908s12.908 5.79 12.908 12.908a15.453 15.453 0 0 0 30.905 0c0-24.16-19.656-43.814-43.813-43.814zm232.912 0c-24.16 0-43.814 19.654-43.814 43.814a15.453 15.453 0 0 0 30.906 0c0-7.119 5.791-12.908 12.908-12.908s12.908 5.79 12.908 12.908a15.453 15.453 0 0 0 30.905 0c-.002-24.16-19.656-43.814-43.813-43.814zm-76.22 44.71a15.453 15.453 0 0 0-21.803 1.498c-9.764 11.204-27.11 11.196-36.868 0a15.453 15.453 0 0 0-23.3 20.305c22.084 25.34 61.404 25.311 83.466 0a15.453 15.453 0 0 0-1.496-21.803z" fill="#313D40"/><path d="M154.527 511.995h-61.81c-17.069 0-30.906 13.837-30.906 30.905v44.73h123.621V542.9c0-17.068-13.837-30.905-30.905-30.905z" fill="#B0EBD8"/><path d="M61.811 838.793v28.247c0 17.068 13.837 30.906 30.905 30.906h61.81c17.069 0 30.906-13.838 30.906-30.906v-28.247l-61.81-41.207z" fill="#70DCBA"/><path d="M61.811 570.948c-34.138 0-61.81 27.672-61.81 61.81v144.225c0 34.138 27.672 61.81 61.81 61.81H164.83V570.948z" fill="#EA5B70"/><path d="M185.432 570.948H164.83c-34.138 0-61.81 27.672-61.81 61.81v144.225c0 34.138 27.672 61.81 61.81 61.81h20.603c34.138 0 61.81-27.672 61.81-61.81V632.758c0-34.138-27.672-61.81-61.81-61.81z" fill="#FF8E9E"/><path d="M185.432 704.97c0-34.137-27.672-61.811-61.81-61.811a61.698 61.698 0 0 0-20.604 3.531l-41.207 58.28 41.207 58.278a61.697 61.697 0 0 0 20.604 3.532c34.138 0 61.81-27.673 61.81-61.81z" fill="#EFEDFF"/><path d="M61.811 704.97c0 26.91 17.202 49.792 41.207 58.278v-116.56c-24.003 8.489-41.207 31.371-41.207 58.281z" fill="#D4D4FF"/><path d="M931.279 470.887h-61.81c-17.069 0-30.906 13.837-30.906 30.905v44.73h123.621v-44.73c0-17.068-13.837-30.905-30.905-30.905z" fill="#B0EBD8"/><path d="M838.563 797.685v28.247c0 17.068 13.837 30.906 30.905 30.906h61.81c17.069 0 30.906-13.838 30.906-30.906v-28.247l-61.81-41.207z" fill="#70DCBA"/><path d="M838.563 529.84c-34.138 0-61.81 27.672-61.81 61.81v144.224c0 34.138 27.672 61.811 61.81 61.811h103.018V529.839z" fill="#EA5B70"/><path d="M962.184 529.84h-20.603c-34.138 0-61.81 27.672-61.81 61.81v144.224c0 34.138 27.672 61.811 61.81 61.811h20.603c34.138 0 61.81-27.673 61.81-61.81V591.65c0-34.136-27.672-61.81-61.81-61.81z" fill="#FF8E9E"/><path d="M962.184 663.863c0-34.136-27.672-61.81-61.81-61.81a61.698 61.698 0 0 0-20.604 3.531l-41.207 58.28 41.207 58.278a61.697 61.697 0 0 0 20.604 3.532c34.138 0 61.81-27.675 61.81-61.81z" fill="#EFEDFF"/><path d="M838.563 663.863c0 26.91 17.202 49.793 41.207 58.28v-116.56c-24.003 8.488-41.207 31.37-41.207 58.28z" fill="#D4D4FF"/></svg>