<?xml version="1.0" standalone="no"?><!DOCTYPE svg PUBLIC "-//W3C//DTD SVG 1.1//EN" "http://www.w3.org/Graphics/SVG/1.1/DTD/svg11.dtd"><svg t="1624436339919" class="icon" viewBox="0 0 1024 1024" version="1.1" xmlns="http://www.w3.org/2000/svg" p-id="17135" xmlns:xlink="http://www.w3.org/1999/xlink" width="200" height="200"><defs><style type="text/css"></style></defs><path d="M967.042409 405.08736c4.611063-60.823591-54.603394-106.190436-112.134546-85.78061-19.342565-32.359856-56.239312-46.671047-90.350466-39.200218 60.636099-34.222413 55.563517-128.949062-14.95402-153.156113 4.613124-60.823591-54.603394-106.192496-112.134545-85.780609-26.4961-44.328429-85.941317-54.838274-126.027486-21.796442-126.732125 49.846046-210.058858 172.160781-210.058857 308.34167v350.504672c38.926191 26.02428 93.867483 15.489711 119.240692-27.099782 34.465534 12.158125 69.77169 0.541872 91.378581-23.916543 21.557441 24.582035 56.886262 36.301306 91.537227 24.038103 26.656808 44.765223 86.709827 54.395299 125.980097 21.996296v-108.4527h238.013686c75.505644-26.405445 75.221316-133.704349-0.490363-159.697724z" fill="#FFDBE0" p-id="17136"></path><path d="M56.602614 571.046487c-0.35232 4.493623-0.317294-4.306131 0 0z" fill="#FFB5C0" p-id="17137"></path><path d="M385.444766 41.520069c-57.562057-20.226455-116.883652 25.397934-111.837855 86.417258-30.359256 10.623164-48.403801 34.434629-54.145996 60.726754-7.47495 34.224473 5.909084 72.666482 40.191246 91.835978-34.397542-8.023003-72.089584 6.162507-91.644366 39.159011-57.562057-20.226455-116.883652 25.395873-111.837855 86.417258-75.00704 26.244738-74.924626 138.846983 0.432674 164.97222l100.120645 43.836005c81.476539 35.672899 176.666766 2.23754 217.939696-76.550242l7.699528-14.698536a206.043236 206.043236 0 0 0 23.525075-95.606419V236.037707A275.145313 275.145313 0 0 1 511.441346 19.373368c-39.768875-32.771926-99.514902-22.534047-125.99658 22.146701z" fill="#FFB5C0" p-id="17138"></path><path d="M842.978437 522.125538c-16.008919-30.151161-53.426934-41.614948-83.578096-25.606029l-11.935607 6.337637-35.3247-66.53076c-16.008919-30.151161-53.431055-41.610827-83.578095-25.60809-30.151161 16.010979-41.614948 53.428995-25.608089 83.578096l55.786035 105.067545-27.616931 90.13825c-16.006859 52.238112-64.35091 87.921313-119.123253 87.921313a124.960224 124.960224 0 0 1-27.060636-2.981327h-61.538532V1023.99794h338.342426c10.629345 0 18.139321-10.476879 14.609942-20.475758-4.88921-13.851733-14.59964-25.43502-27.122447-32.751323-19.023211-11.115588-31.197819-30.96912-31.197819-52.957174v-47.116083c0-28.486398 4.242261-56.81621 12.586678-84.054036l49.355683-161.0864 37.395351-19.853532c30.151161-16.006859 41.614948-53.426934 25.60809-83.578096z" fill="#E8B5B1" p-id="17139"></path><path d="M484.937005 1023.725973a69.132982 69.132982 0 0 1-20.331533-48.949794v-151.382151c0-18.359778 7.314242-35.969589 20.331533-48.949794-42.793468-9.496153-78.666221-41.219361-92.062617-84.939987l-27.61693-90.13825 55.786035-105.067545c16.008919-30.151161 4.543072-67.569176-25.60809-83.578096-30.149101-16.002738-67.569176-4.545132-83.578095 25.60809l-35.3247 66.53076-66.5287-35.3247c-30.153221-16.010979-67.573297-4.541011-83.578095 25.60809-16.008919 30.151161-4.543072 67.571237 25.608089 83.578095l91.988444 48.838535 49.351562 161.076098a286.928454 286.928454 0 0 1 12.590799 84.064338v47.116083c0 21.988055-12.172547 41.841587-31.197819 52.957175-12.522807 7.316303-22.233236 18.89959-27.122447 32.751322-3.529379 10.000939 3.978536 20.475758 14.609942 20.475758h222.956648z" fill="#D6948C" p-id="17140"></path><path d="M513.22973 112.330176c0-22.758625 18.448373-41.206999 41.206999-41.206999s41.206999 18.448373 41.206999 41.206999c22.758625 0 41.206999 18.448373 41.206999 41.206999s-18.448373 41.206999-41.206999 41.206999c0 22.758625-18.448373 41.206999-41.206999 41.206999s-41.206999-18.448373-41.206999-41.206999c-22.758625 0-41.206999-18.448373-41.206999-41.206999s18.450434-41.206999 41.206999-41.206999z" fill="#FFB5C0" p-id="17141"></path><path d="M554.436729 153.537175m-23.632214 0a23.632214 23.632214 0 1 0 47.264428 0 23.632214 23.632214 0 1 0-47.264428 0Z" fill="#FFDBE0" p-id="17142"></path><path d="M303.446959 413.932442c0-34.135878 27.67256-61.810498 61.810499-61.810498s61.810498 27.67462 61.810498 61.810498c34.137938 0 61.810498 27.67462 61.810498 61.810498s-27.67256 61.810498-61.810498 61.810499c0 34.135878-27.67256 61.810498-61.810498 61.810498s-61.810498-27.67462-61.810499-61.810498c-34.137938 0-61.810498-27.67462-61.810498-61.810499s27.67256-61.810498 61.810498-61.810498z" fill="#FF8E9E" p-id="17143"></path><path d="M365.257458 475.74294m-23.632214 0a23.632214 23.632214 0 1 0 47.264427 0 23.632214 23.632214 0 1 0-47.264427 0Z" fill="#FFDBE0" p-id="17144"></path><path d="M595.349098 369.566927c5.11997-22.173486 27.246068-36.000495 49.419554-30.880525 22.175546 5.11997 36.000495 27.246068 30.880525 49.419554 22.175546 5.11997 36.000495 27.246068 30.880525 49.419553s-27.246068 36.000495-49.419554 30.880525c-5.11997 22.173486-27.246068 36.000495-49.419554 30.880525s-36.000495-27.246068-30.880525-49.419554c-22.175546-5.11997-36.000495-27.246068-30.880525-49.419553s27.244007-36.000495 49.419554-30.880525z" fill="#FFB5C0" p-id="17145"></path><path d="M626.229623 418.988541m-23.632214 0a23.632214 23.632214 0 1 0 47.264428 0 23.632214 23.632214 0 1 0-47.264428 0Z" fill="#FFDBE0" p-id="17146"></path><path d="M743.953898 188.664081c0-34.135878 27.67256-61.810498 61.810498-61.810498s61.810498 27.67462 61.810499 61.810498c34.137938 0 61.810498 27.67462 61.810498 61.810498s-27.67256 61.810498-61.810498 61.810499c0 34.135878-27.67256 61.810498-61.810499 61.810498s-61.810498-27.67462-61.810498-61.810498c-34.137938 0-61.810498-27.67462-61.810498-61.810499s27.67462-61.810498 61.810498-61.810498z" fill="#FFB5C0" p-id="17147"></path><path d="M805.764396 250.474579m-23.632214 0a23.632214 23.632214 0 1 0 47.264428 0 23.632214 23.632214 0 1 0-47.264428 0Z" fill="#FFDBE0" p-id="17148"></path><path d="M227.704375 166.789346c0-22.758625 18.448373-41.206999 41.206999-41.206999s41.206999 18.448373 41.206998 41.206999c22.758625 0 41.206999 18.448373 41.206999 41.206998s-18.448373 41.206999-41.206999 41.206999c0 22.758625-18.448373 41.206999-41.206998 41.206999s-41.206999-18.448373-41.206999-41.206999c-22.758625 0-41.206999-18.448373-41.206999-41.206999s18.448373-41.206999 41.206999-41.206998z" fill="#FF8E9E" p-id="17149"></path><path d="M268.911374 207.996344m-23.632214 0a23.632214 23.632214 0 1 0 47.264427 0 23.632214 23.632214 0 1 0-47.264427 0Z" fill="#FFDBE0" p-id="17150"></path><path d="M395.542541 824.29234c-24.159663 0-43.813342 19.653678-43.813341 43.813342a15.452625 15.452625 0 0 0 30.905249 0c0-7.118509 5.791644-12.908092 12.908092-12.908093s12.908092 5.789583 12.908093 12.908093a15.452625 15.452625 0 0 0 30.905249 0c0-24.159663-19.655738-43.813342-43.813342-43.813342zM628.454801 824.29234c-24.159663 0-43.813342 19.653678-43.813342 43.813342a15.452625 15.452625 0 0 0 30.905249 0c0-7.118509 5.791644-12.908092 12.908093-12.908093s12.908092 5.789583 12.908092 12.908093a15.452625 15.452625 0 0 0 30.905249 0c-0.00206-24.159663-19.655738-43.813342-43.813341-43.813342zM552.234215 869.001934a15.452625 15.452625 0 0 0-21.802623 1.497875c-9.763998 11.204183-27.110085 11.195942-36.867902 0a15.452625 15.452625 0 0 0-23.300498 20.304748c22.084891 25.340244 61.404609 25.311399 83.466837 0a15.452625 15.452625 0 0 0-1.495814-21.802623z" fill="#313D40" p-id="17151"></path><path d="M154.526926 511.994798H92.716427c-17.067939 0-30.905249 13.83731-30.905249 30.905249v44.730197h123.620997v-44.730197c0-17.067939-13.83731-30.905249-30.905249-30.905249z" fill="#B0EBD8" p-id="17152"></path><path d="M61.811178 838.793083v28.247398c0 17.067939 13.83731 30.905249 30.905249 30.905249h61.810499c17.067939 0 30.905249-13.83731 30.905249-30.905249v-28.247398l-61.810498-41.206999z" fill="#70DCBA" p-id="17153"></path><path d="M61.811178 570.947591c-34.137938 0-61.810498 27.67256-61.810498 61.810498v144.224496c0 34.137938 27.67256 61.810498 61.810498 61.810498h103.017497v-267.845492z" fill="#EA5B70" p-id="17154"></path><path d="M185.432175 570.947591H164.828675c-34.137938 0-61.810498 27.67256-61.810498 61.810498v144.224496c0 34.137938 27.67256 61.810498 61.810498 61.810498h20.6035c34.137938 0 61.810498-27.67256 61.810498-61.810498V632.758089c0-34.137938-27.67256-61.810498-61.810498-61.810498z" fill="#FF8E9E" p-id="17155"></path><path d="M185.432175 704.969234c0-34.135878-27.67256-61.810498-61.810498-61.810499-7.225647 0-14.156664 1.252693-20.6035 3.53144l-41.206999 58.279059 41.206999 58.279058a61.697179 61.697179 0 0 0 20.6035 3.53144c34.137938 0 61.810498-27.67256 61.810498-61.810498z" fill="#EFEDFF" p-id="17156"></path><path d="M61.811178 704.969234c0 26.910231 17.201862 49.792477 41.206999 58.279058v-116.560177c-24.003077 8.488642-41.206999 31.370888-41.206999 58.281119z" fill="#D4D4FF" p-id="17157"></path><path d="M931.278854 470.886696h-61.810498c-17.067939 0-30.905249 13.83731-30.905249 30.905249v44.730197h123.620997v-44.730197c0-17.067939-13.83731-30.905249-30.90525-30.905249z" fill="#B0EBD8" p-id="17158"></path><path d="M838.563107 797.684981v28.247398c0 17.067939 13.83731 30.905249 30.905249 30.905249h61.810498c17.067939 0 30.905249-13.83731 30.90525-30.905249v-28.247398l-61.810499-41.206999z" fill="#70DCBA" p-id="17159"></path><path d="M838.563107 529.839488c-34.137938 0-61.810498 27.67256-61.810498 61.810499v144.224496c0 34.137938 27.67256 61.810498 61.810498 61.810498h103.017497v-267.845493z" fill="#EA5B70" p-id="17160"></path><path d="M962.184104 529.839488h-20.6035c-34.137938 0-61.810498 27.67256-61.810498 61.810499v144.224496c0 34.137938 27.67256 61.810498 61.810498 61.810498h20.6035c34.137938 0 61.810498-27.67256 61.810498-61.810498V591.649987c0-34.135878-27.67256-61.810498-61.810498-61.810499z" fill="#FF8E9E" p-id="17161"></path><path d="M962.184104 663.863192c0-34.135878-27.67256-61.810498-61.810499-61.810498-7.225647 0-14.156664 1.252693-20.603499 3.531439l-41.206999 58.279059 41.206999 58.279058a61.697179 61.697179 0 0 0 20.603499 3.53144c34.137938 0 61.810498-27.67462 61.810499-61.810498z" fill="#EFEDFF" p-id="17162"></path><path d="M838.563107 663.863192c0 26.910231 17.201862 49.792477 41.206999 58.279058V605.582073c-24.003077 8.488642-41.206999 31.370888-41.206999 58.281119z" fill="#D4D4FF" p-id="17163"></path></svg>