<?xml version="1.0" standalone="no"?><!DOCTYPE svg PUBLIC "-//W3C//DTD SVG 1.1//EN" "http://www.w3.org/Graphics/SVG/1.1/DTD/svg11.dtd"><svg t="1624436349339" class="icon" viewBox="0 0 1024 1024" version="1.1" xmlns="http://www.w3.org/2000/svg" p-id="17588" xmlns:xlink="http://www.w3.org/1999/xlink" width="200" height="200"><defs><style type="text/css"></style></defs><path d="M290.875458 793.467339c-39.468258-81.606743-61.641853-173.074369-61.641854-269.641387H121.75904c0 98.394557 19.28291 193.875765 57.313037 283.787819a734.878939 734.878939 0 0 0 6.558127 14.978818 595.992125 595.992125 0 0 1-105.024796 9.290164C36.089268 831.882753 0 867.96996 0 912.48816S36.089268 993.093568 80.605408 993.093568c120.930776 0 240.347187-28.243416 354.45405-89.31867V716.078153c-43.137759 31.803719-93.047922 57.995016-144.184 77.389186z" fill="#D6948C" p-id="17589"></path><path d="M777.070993 531.447224C816.508346 438.205628 836.506201 339.201204 836.506201 237.192775h-161.210816c0 193.33183-91.105003 368.944562-240.235927 478.887438-21.96962 24.563613-36.752703 57.753954-37.177138 90.701173-0.467702 36.328269 11.486508 71.302882 37.177138 96.993512 98.709792 47.297626 207.224838 71.4059 317.258369 71.4059v-107.474564c-72.145569 0-141.451962-12.368342-205.926811-35.077631 97.547749-76.49911 178.74242-178.385977 230.679977-301.181379z" fill="#E8B5B1" p-id="17590"></path><path d="M982.583671 166.652227l-5.649507-1.300088 1.304208-5.635084c8.40833-36.33033-22.470287-69.710224-58.76147-64.724153-29.461089 4.048608-51.331812 20.14208-71.068001 41.988079h-184.513488v243.68703H756.152157c8.404209 36.521943 41.182478 74.290404 63.094407 94.669426 52.821452 49.131347 107.05425 13.56129 105.488377-31.148524l-0.201915-5.77931 5.795793-0.201915c57.494349-2.00267 87.703348-89.749286-25.752441-137.531097 41.915966-3.650958 87.044033-17.974582 110.575406-52.973919 20.385203-30.320259 3.894081-72.654478-32.568113-81.050445z" fill="#FFB5C0" p-id="17591"></path><path d="M846.766794 29.300381C830.632114-3.467586 781.671777-10.390396 756.152157 16.903194c-25.51962-27.295651-74.479957-20.372841-90.614637 12.397187-14.741877 29.939093-11.583344 75.543103-1.642107 107.67854-19.736189-21.845998-41.608972-37.941531-71.068001-41.988079-36.291183-4.986071-67.17186 28.395883-58.76147 64.724152l1.304208 5.635085-5.649508 1.300087c-36.462193 8.395967-52.951255 50.732247-32.568112 81.050446 23.523131 34.986975 68.636776 49.3209 110.575406 52.973919-113.455789 47.779751-83.244729 135.528427-25.752441 137.531097l5.795793 0.201915-0.201915 5.77931c-1.565874 44.707754 52.666925 80.279871 105.488376 31.148524 21.91193-20.381082 54.690199-58.149543 63.094408-94.669426-2.51982-10.081342-4.664655-30.060654-4.664655-45.548381l61.847889-165.58496c7.981835-7.406995 25.867821-26.195418 35.07351-32.551629 9.941237-32.137497 13.097709-77.741507-1.642107-107.6806z" fill="#FF8E9E" p-id="17592"></path><path d="M813.335391 169.53055h-61.847889v165.58496c1.54527 0.076233 3.100842 0.117441 4.664655 0.11744 51.20613 0 92.716205-41.510075 92.716204-92.716204 0-29.630039-13.899189-56.010889-35.53297-72.986196z" fill="#FFDBE0" p-id="17593"></path><path d="M756.152157 149.800541c-51.20613 0-92.716205 41.510075-92.716205 92.716205 0 49.642316 39.012918 90.169599 88.05155 92.598764 0-61.837588 15.514512-122.589366 61.847889-165.58496A92.326796 92.326796 0 0 0 756.152157 149.800541z" fill="#FFB5C0" p-id="17594"></path><path d="M320.400418 515.376415l-185.251097-125.997201c-15.191035-16.814599-32.026237-29.203544-54.700501-32.318809-27.932302-3.838451-51.700616 21.8563-45.229024 49.817447l1.003395 4.337058-4.34736 1.001335C3.811666 418.679595-8.880152 451.26625 6.80949 474.601889a75.703811 75.703811 0 0 0 22.863816 22.043792c15.440339 9.623942 38.85221 16.693038 62.243479 18.730734-87.326302 36.777428-64.073078 104.313972-19.820664 105.857181l4.460679 0.154527-0.156587 4.448318c-1.205311 34.412134 40.537585 61.790199 81.194671 23.97435 16.866108-15.685521 42.095217-44.757202 48.564748-72.866695 6.469531 28.109493 31.69658 57.179114 48.562687 72.866695 40.657086 37.815849 82.397921 10.437784 81.194671-23.97435l-0.156587-4.448318 4.460679-0.156587c44.252414-1.541149 67.505638-69.079753-19.820664-105.855121z" fill="#FF8E9E" p-id="17595"></path><path d="M331.868382 357.060405c-22.676323 3.115264-39.509465 15.502149-54.7005 32.318809 7.652177-24.734623 10.081342-59.834918-1.265061-82.880045-12.41779-25.220868-50.101777-30.548959-69.74525-9.541528-19.643473-21.009492-57.327459-15.67934-69.745249 9.541528-11.346403 23.043067-8.915178 58.145422-1.265062 82.880045 2.589873 8.371243 6.129571 16.59208 10.425423 24.590398 25.499017 47.470697 78.713997 86.724677 132.303963 98.359531 14.323623 3.109083 28.671971 4.252583 42.521712 3.047272 23.393329-2.037696 46.8052-9.106792 62.245539-18.730734a75.703811 75.703811 0 0 0 22.863816-22.043792c15.689642-23.335638 2.997824-55.922294-25.066341-62.383583l-4.34942-1.001335 1.003395-4.339119c6.475712-27.961147-17.292602-53.655898-45.226965-49.817447z" fill="#FFB5C0" p-id="17596"></path><path d="M277.878706 512.329143c18.499973-31.758391 14.154674-73.167508-13.056502-100.380745-32.403283-32.403283-84.932164-32.392981-117.325145 0-0.661376 0.661376-1.287725 1.343355-1.922316 2.021214l4.815061 118.056573z" fill="#FFDBE0" p-id="17597"></path><path d="M145.574743 413.969612c-30.44182 32.524845-29.815471 83.566145 1.922316 115.303932 32.415645 32.415645 84.944526 32.380619 117.325145 0a83.011908 83.011908 0 0 0 13.056502-16.944401c-53.589966-11.634853-106.804947-50.888834-132.303963-98.359531z" fill="#FFB5C0" p-id="17598"></path><path d="M837.146973 1002.789623c28.280503 28.280503 74.131756 28.280503 102.412259 0s28.280503-74.129696 0-102.412259c28.280503-28.280503 28.280503-74.131756 0-102.412259s-74.131756-28.280503-102.412259 0L734.734714 900.377364z" fill="#FFB5C0" p-id="17599"></path><path d="M837.146973 797.965105c-28.280503-28.280503-74.131756-28.280503-102.412259 0s-28.280503 74.129696 0 102.412259c-28.280503 28.280503-28.280503 74.129696 0 102.412259s74.131756 28.280503 102.412259 0a203.244222 203.244222 0 0 1 0-204.824518z" fill="#FF8E9E" p-id="17600"></path><path d="M837.146973 900.377364m-27.687119 0a27.687119 27.687119 0 1 0 55.374238 0 27.687119 27.687119 0 1 0-55.374238 0Z" fill="#FFDBE0" p-id="17601"></path><path d="M363.923465 822.959333a15.44858 15.44858 0 0 0-18.133229 12.197332c-2.645502 13.518023-16.571476 21.553427-29.592952 17.084506a15.452701 15.452701 0 0 0-10.023652 29.234449c30.763237 10.549044 63.706334-8.494865 69.947165-40.385118a15.452701 15.452701 0 0 0-12.197332-18.131169zM569.13121 704.480386c-8.375364-1.646228-16.493183 3.819908-18.133229 12.197332-2.647563 13.520083-16.573537 21.549306-29.595013 17.086566a15.44858 15.44858 0 0 0-19.62905 9.607459 15.45064 15.45064 0 0 0 9.607459 19.62699c30.761176 10.549044 63.708395-8.496925 69.947165-40.387178a15.45064 15.45064 0 0 0-12.197332-18.131169zM480.772667 774.917917c-8.369183-1.65859-16.493183 3.821968-18.131169 12.197331-3.710709 18.963554-23.261466 30.254328-41.536859 23.982592a15.452701 15.452701 0 0 0-19.629051 9.605399 15.45064 15.45064 0 0 0 9.603338 19.62905c35.942982 12.325074 74.572673-9.873246 81.893133-47.281143a15.454761 15.454761 0 0 0-12.199392-18.133229z" fill="#313D40" p-id="17602"></path></svg>