<svg class="icon" viewBox="0 0 1024 1024" xmlns="http://www.w3.org/2000/svg" width="200" height="200"><path d="M290.875 793.467c-39.468-81.606-61.641-173.074-61.641-269.641H121.759c0 98.395 19.283 193.876 57.313 283.788a734.879 734.879 0 0 0 6.558 14.979 595.992 595.992 0 0 1-105.025 9.29C36.09 831.883 0 867.97 0 912.488s36.09 80.606 80.605 80.606c120.931 0 240.348-28.244 354.454-89.32V716.079c-43.137 31.804-93.047 57.995-144.184 77.39z" fill="#D6948C"/><path d="M777.071 531.447c39.437-93.241 59.435-192.246 59.435-294.254h-161.21c0 193.332-91.106 368.944-240.237 478.887-21.97 24.564-36.752 57.754-37.177 90.701-.467 36.329 11.487 71.303 37.177 96.994 98.71 47.298 207.225 71.406 317.259 71.406V867.706c-72.146 0-141.452-12.368-205.927-35.077 97.548-76.5 178.742-178.386 230.68-301.182z" fill="#E8B5B1"/><path d="m982.584 166.652-5.65-1.3 1.304-5.635c8.409-36.33-22.47-69.71-58.761-64.724-29.461 4.049-51.332 20.142-71.068 41.988H663.895v243.687h92.257c8.404 36.522 41.183 74.29 63.095 94.67 52.821 49.13 107.054 13.56 105.488-31.15l-.202-5.778 5.796-.202c57.494-2.003 87.703-89.75-25.753-137.531 41.916-3.651 87.044-17.975 110.576-52.974 20.385-30.32 3.894-72.655-32.568-81.05z" fill="#FFB5C0"/><path d="M846.767 29.3c-16.135-32.768-65.095-39.69-90.615-12.397-25.52-27.295-74.48-20.373-90.614 12.397-14.742 29.94-11.584 75.543-1.643 107.679-19.736-21.846-41.609-37.942-71.068-41.988-36.29-4.986-67.171 28.396-58.761 64.724l1.304 5.635-5.65 1.3c-36.462 8.396-52.95 50.732-32.567 81.05 23.523 34.988 68.636 49.322 110.575 52.975-113.456 47.78-83.245 135.528-25.753 137.53l5.796.203-.202 5.779c-1.566 44.708 52.667 80.28 105.489 31.148 21.912-20.38 54.69-58.15 63.094-94.669-2.52-10.081-4.664-30.06-4.664-45.548l61.847-165.585c7.982-7.407 25.868-26.196 35.074-32.552 9.941-32.138 13.098-77.742-1.642-107.68z" fill="#FF8E9E"/><path d="M813.335 169.53h-61.847v165.586c1.545.076 3.1.117 4.664.117 51.206 0 92.716-41.51 92.716-92.716 0-29.63-13.899-56.011-35.533-72.986z" fill="#FFDBE0"/><path d="M756.152 149.8c-51.206 0-92.716 41.51-92.716 92.717 0 49.642 39.013 90.17 88.052 92.599 0-61.838 15.514-122.59 61.847-165.585a92.327 92.327 0 0 0-57.183-19.73z" fill="#FFB5C0"/><path d="M320.4 515.376 135.15 389.38c-15.192-16.814-32.027-29.203-54.701-32.319-27.932-3.838-51.7 21.857-45.23 49.818l1.004 4.337-4.347 1.001C3.812 418.68-8.88 451.266 6.809 474.602a75.704 75.704 0 0 0 22.864 22.044c15.44 9.624 38.853 16.693 62.244 18.73C4.59 552.154 27.844 619.69 72.097 621.234l4.46.154-.157 4.448c-1.205 34.413 40.538 61.79 81.195 23.975 16.866-15.686 42.095-44.757 48.565-72.867 6.47 28.11 31.696 57.18 48.562 72.867 40.657 37.816 82.398 10.438 81.195-23.975l-.157-4.448 4.461-.156c44.252-1.542 67.506-69.08-19.82-105.856z" fill="#FF8E9E"/><path d="M331.868 357.06c-22.676 3.116-39.51 15.503-54.7 32.32 7.652-24.735 10.081-59.836-1.265-82.88-12.418-25.222-50.102-30.55-69.745-9.542-19.644-21.01-57.328-15.68-69.746 9.541-11.346 23.043-8.915 58.146-1.265 82.88 2.59 8.371 6.13 16.592 10.426 24.59 25.499 47.471 78.714 86.725 132.304 98.36 14.323 3.11 28.672 4.253 42.521 3.047 23.394-2.037 46.806-9.106 62.246-18.73a75.704 75.704 0 0 0 22.864-22.044c15.69-23.336 2.998-55.922-25.067-62.384l-4.349-1.001 1.003-4.34c6.476-27.96-17.292-53.655-45.227-49.817z" fill="#FFB5C0"/><path d="M277.879 512.33c18.5-31.76 14.154-73.168-13.057-100.382-32.403-32.403-84.932-32.393-117.325 0-.661.662-1.288 1.344-1.922 2.022l4.815 118.056z" fill="#FFDBE0"/><path d="M145.575 413.97c-30.442 32.524-29.816 83.566 1.922 115.304 32.416 32.415 84.945 32.38 117.325 0a83.012 83.012 0 0 0 13.057-16.945c-53.59-11.635-106.805-50.889-132.304-98.36zM837.147 1002.79c28.28 28.28 74.132 28.28 102.412 0s28.28-74.13 0-102.413c28.28-28.28 28.28-74.131 0-102.412s-74.132-28.28-102.412 0L734.735 900.377z" fill="#FFB5C0"/><path d="M837.147 797.965c-28.28-28.28-74.132-28.28-102.412 0s-28.28 74.13 0 102.412c-28.28 28.28-28.28 74.13 0 102.413s74.131 28.28 102.412 0a203.244 203.244 0 0 1 0-204.825z" fill="#FF8E9E"/><path d="M809.46 900.377a27.687 27.687 0 1 0 55.374 0 27.687 27.687 0 1 0-55.374 0z" fill="#FFDBE0"/><path d="M363.923 822.96a15.449 15.449 0 0 0-18.133 12.197c-2.645 13.518-16.571 21.553-29.593 17.084a15.453 15.453 0 0 0-10.023 29.235c30.763 10.549 63.706-8.495 69.947-40.385a15.453 15.453 0 0 0-12.198-18.132zm205.208-118.48c-8.375-1.646-16.493 3.82-18.133 12.198-2.648 13.52-16.574 21.549-29.595 17.086a15.449 15.449 0 0 0-19.63 9.608 15.45 15.45 0 0 0 9.608 19.627c30.762 10.549 63.709-8.497 69.948-40.387a15.45 15.45 0 0 0-12.198-18.132zm-88.358 70.438c-8.37-1.659-16.494 3.822-18.132 12.197-3.71 18.964-23.261 30.255-41.536 23.983a15.453 15.453 0 0 0-19.63 9.605 15.45 15.45 0 0 0 9.604 19.63c35.943 12.324 74.573-9.874 81.893-47.282a15.455 15.455 0 0 0-12.2-18.133z" fill="#313D40"/></svg>