<svg class="icon" viewBox="0 0 1024 1024" xmlns="http://www.w3.org/2000/svg" width="200" height="200"><path d="m668.76 300.1-3.91-.9.902-3.903c5.823-25.15-15.555-48.262-40.681-44.808-20.396 2.802-35.538 13.944-49.202 29.07l-16.128-16.13h-90.022v184.836H512c5.818 25.282 28.511 51.43 43.682 65.542 36.57 34.014 74.115 9.387 73.031-21.564l-.14-4.001 4.012-.14c39.804-1.387 60.719-62.134-17.829-95.214 21.04-1.831 42.1-8.192 55.987-16.847a68.12 68.12 0 0 0 20.564-19.827c14.114-20.993 2.697-50.302-22.546-56.114z" fill="#FFDBE0"/><path d="M574.734 205.01c-11.17-22.684-45.066-27.479-62.734-8.581-17.668-18.898-51.563-14.103-62.734 8.581-10.205 20.727-8.019 52.3-1.137 74.546-13.665-15.125-28.806-26.265-49.202-29.07-25.124-3.453-46.502 19.658-40.682 44.81l.903 3.902-3.91.9c-25.244 5.812-36.659 35.12-22.547 56.112a68.095 68.095 0 0 0 20.564 19.827c13.887 8.655 34.946 15.014 55.986 16.847-78.545 33.08-57.63 93.827-17.828 95.214l4.012.14-.14 4.001c-1.084 30.953 36.462 55.578 73.031 21.564 15.17-14.11 37.863-40.258 43.682-65.542V343.423c0-24.79 14.132-46.263 34.77-56.85a63.579 63.579 0 0 1 29.101-7.019c6.884-22.246 9.07-53.817-1.135-74.544z" fill="#FFB5C0"/><path d="M564.766 299.857a74.569 74.569 0 0 0-17.995-13.281h-56.046V405.94l21.277 21.277c19.102 0 38.2-7.267 52.764-21.831a74.7 74.7 0 0 0 11.744-15.24c16.64-28.568 12.73-65.815-11.744-90.29z" fill="#FFB5C0"/><path d="M546.77 286.576c-28.675-15.109-65.42-10.358-89.262 15.098-28.223 30.154-26.725 77.958 4.33 106.185v.002h.002c14.207 12.92 32.185 19.357 50.162 19.357v-83.793c-.002-24.788 14.13-46.263 34.769-56.85z" fill="#FF8E9E"/><path d="M618.624 15.694h-173.73v114.06A247.241 247.241 0 0 1 512 120.528c136.287 0 247.243 110.516 247.243 247.244 0 136.73-110.958 247.243-247.243 247.243a246.205 246.205 0 0 1-82.526-14.173v376.039h189.162a144.524 144.524 0 0 0 23.183-34.202L843.04 528.184c23.536-48.476 36.735-102.9 36.735-160.41 0-166.038-110.03-306.375-261.151-352.08z" fill="#FF8E9E"/><path d="M429.474 600.843c-95.526-33.908-164.717-124.99-164.717-233.068 0-113.18 76.165-208.752 180.137-238.02 45.19-53.182 105.237-93.344 173.73-114.06C584.873 5.486 549.082 0 512 0 308.883 0 144.225 164.658 144.225 367.775c0 57.508 13.199 111.933 36.735 160.41L382.18 942.68C405.548 990.816 454.9 1024 512 1024c42.252 0 80.26-18.168 106.636-47.118a144.584 144.584 0 0 1-23.21-34.202z" fill="#EA5B70"/><path d="M389.625 697.787c-29.136 0-52.756 18.809-52.756 42.013s23.62 42.013 52.756 42.013 52.755-18.81 52.755-42.013c.002-23.202-23.618-42.013-52.755-42.013zm244.75 0c-29.135 0-52.755 18.809-52.755 42.013s23.62 42.013 52.755 42.013 52.756-18.81 52.756-42.013c0-23.202-23.62-42.013-52.756-42.013z" fill="#FFDBE0"/><path d="M403.936 663.56a15.453 15.453 0 0 0-15.453 15.453v24.724c0 8.536 6.919 15.453 15.453 15.453s15.453-6.917 15.453-15.453v-24.724a15.453 15.453 0 0 0-15.453-15.453zm216.128 0a15.453 15.453 0 0 0-15.453 15.453v24.724c0 8.536 6.919 15.453 15.453 15.453s15.453-6.917 15.453-15.453v-24.724a15.453 15.453 0 0 0-15.453-15.453zm-63.989 27.792a15.453 15.453 0 0 0-21.802 1.498c-5.623 6.453-13.741 10.154-22.273 10.154s-16.65-3.7-22.273-10.154a15.453 15.453 0 0 0-23.3 20.305c11.495 13.189 28.105 20.752 45.573 20.752s34.078-7.563 45.573-20.752a15.453 15.453 0 0 0-1.498-21.803z" fill="#313D40"/></svg>