<?xml version="1.0" standalone="no"?><!DOCTYPE svg PUBLIC "-//W3C//DTD SVG 1.1//EN" "http://www.w3.org/Graphics/SVG/1.1/DTD/svg11.dtd"><svg t="1624436330392" class="icon" viewBox="0 0 1024 1024" version="1.1" xmlns="http://www.w3.org/2000/svg" p-id="16714" xmlns:xlink="http://www.w3.org/1999/xlink" width="200" height="200"><defs><style type="text/css"></style></defs><path d="M668.760596 300.099992l-3.910568-0.900378 0.902439-3.902326c5.822584-25.150841-15.555734-48.261924-40.681851-44.808757-20.395525 2.802093-35.537127 13.944531-49.201449 29.06965l-16.128515-16.128515h-90.021344v184.835091H512c5.818463 25.282704 28.511292 51.430761 43.681738 65.542181 36.569368 34.014519 74.115348 9.38701 73.031598-21.563751l-0.140105-4.001223 4.011526-0.140105c39.804137-1.386624 60.718873-62.134342-17.828314-95.213457 21.040419-1.831662 42.09938-8.192 55.986221-16.847581a68.119694 68.119694 0 0 0 20.564475-19.826865c14.113481-20.99303 2.697014-50.301682-22.546543-56.113964z" fill="#FFDBE0" p-id="16715"></path><path d="M574.733907 205.010157c-11.169223-22.684588-45.066302-27.47905-62.733907-8.581409-17.667606-18.897642-51.562624-14.103179-62.733907 8.581409-10.204974 20.727243-8.01893 52.300233-1.13732 74.545964-13.664322-15.125119-28.805924-26.265497-49.201449-29.06965-25.124056-3.453167-46.502374 19.657915-40.681851 44.808756l0.902438 3.902326-3.910567 0.900379c-25.243557 5.812282-36.657964 35.120934-22.546543 56.111903a68.09497 68.09497 0 0 0 20.564475 19.826865c13.886841 8.655581 34.945803 15.013859 55.986221 16.847582-78.545127 33.079115-57.63039 93.826833-17.828314 95.213456l4.011525 0.140105-0.140104 4.001223c-1.083751 30.952821 36.462229 55.57827 73.031597 21.563751 15.170447-14.10936 37.863276-40.257416 43.681739-65.542181V343.423227c0-24.790278 14.132024-46.263372 34.770672-56.849513a63.578656 63.578656 0 0 1 29.100555-7.019654c6.88367-22.24573 9.069714-53.81666-1.13526-74.543903z" fill="#FFB5C0" p-id="16716"></path><path d="M564.765875 299.856869a74.568628 74.568628 0 0 0-17.995203-13.281094h-56.045972v119.365022l21.27736 21.27736c19.101618 0 38.199115-7.266897 52.763815-21.831598a74.700491 74.700491 0 0 0 11.744065-15.240499c16.639485-28.566922 12.730978-65.814149-11.744065-90.289191z" fill="#FFB5C0" p-id="16717"></path><path d="M546.770672 286.575775c-28.676121-15.108636-65.42062-10.357441-89.263131 15.098334-28.222841 30.1534-26.724958 77.957924 4.330882 106.184885v0.00206h0.00206c14.206197 12.920531 32.184918 19.357103 50.161577 19.357103v-83.792869c-0.00206-24.788217 14.129964-46.263372 34.768612-56.849513z" fill="#FF8E9E" p-id="16718"></path><path d="M618.623742 15.693779h-173.729738v114.059589a247.2414 247.2414 0 0 1 67.105996-9.224241c136.286777 0 247.243461 110.515767 247.243461 247.243461 0 136.729755-110.958744 247.243461-247.243461 247.24346a246.205038 246.205038 0 0 1-82.525746-14.173231v376.03876h189.161851a144.524105 144.524105 0 0 0 23.183195-34.202012l201.221151-414.49542C866.575968 479.707944 879.774648 425.283477 879.774648 367.774648c0-166.038406-110.029521-306.375855-261.150906-352.080869z" fill="#FF8E9E" p-id="16719"></path><path d="M429.474254 600.842817C333.947622 566.935437 264.756539 475.853006 264.756539 367.774648c0-113.179815 76.165408-208.751775 180.137465-238.019219 45.189924-53.182068 105.237119-93.344708 173.729738-114.05959C584.87295 5.484684 549.082398 0 512 0 308.883316 0 144.225352 164.657964 144.225352 367.774648c0 57.508829 13.19868 111.933296 36.734197 160.409497l201.221151 414.49542C405.547268 990.815807 454.899123 1024 512 1024c42.251847 0 80.259348-18.168274 106.636105-47.118423a144.583855 144.583855 0 0 1-23.20998-34.202012z" fill="#EA5B70" p-id="16720"></path><path d="M389.624789 697.786978c-29.135581 0-52.755573 18.809046-52.755574 42.012845s23.619992 42.012845 52.755574 42.012845 52.755573-18.809046 52.755573-42.012845c0.00206-23.201738-23.617932-42.012845-52.755573-42.012845zM634.375211 697.786978c-29.135581 0-52.755573 18.809046-52.755573 42.012845s23.619992 42.012845 52.755573 42.012845 52.755573-18.809046 52.755574-42.012845c0-23.201738-23.619992-42.012845-52.755574-42.012845z" fill="#FFDBE0" p-id="16721"></path><path d="M403.936064 663.560241a15.452716 15.452716 0 0 0-15.452716 15.452717v24.724346c0 8.53608 6.918696 15.452716 15.452716 15.452716s15.452716-6.916636 15.452717-15.452716v-24.724346a15.452716 15.452716 0 0 0-15.452717-15.452717zM620.063936 663.560241a15.452716 15.452716 0 0 0-15.452717 15.452717v24.724346c0 8.53608 6.918696 15.452716 15.452717 15.452716s15.452716-6.916636 15.452716-15.452716v-24.724346a15.452716 15.452716 0 0 0-15.452716-15.452717zM556.075268 691.352467a15.452716 15.452716 0 0 0-21.802753 1.497883c-5.622728 6.453054-13.740555 10.153465-22.272515 10.153465s-16.649787-3.70041-22.272515-10.153465a15.452716 15.452716 0 0 0-23.300636 20.304869c11.494761 13.188378 28.1054 20.751968 45.573151 20.751968s34.07839-7.56359 45.573151-20.751968a15.452716 15.452716 0 0 0-1.497883-21.802752z" fill="#313D40" p-id="16722"></path></svg>