<svg class="icon" viewBox="0 0 1024 1024" xmlns="http://www.w3.org/2000/svg" width="200" height="200"><path d="m961.468 336.875-8.53-1.963 1.97-8.51c12.698-54.852-33.928-105.255-88.724-97.727-44.483 6.114-77.504 30.413-107.305 63.4H480.283v367.941H619.58c12.69 55.144 62.181 112.17 95.267 142.942 79.754 74.184 161.64 20.476 159.276-47.03l-.305-8.725 8.75-.305c86.81-3.025 132.424-135.512-38.883-207.658 45.889-3.997 91.818-17.867 122.106-36.744 18.434-11.487 33.483-26.332 44.852-43.241 30.777-45.78 5.878-109.702-49.175-122.38z" fill="#FFB5C0"/><path d="M756.398 129.49c-24.362-49.478-98.285-59.93-136.818-18.717-38.533-41.211-112.457-30.759-136.819 18.717-22.258 45.204-17.49 114.063-2.48 162.585-29.801-32.987-62.825-57.286-107.306-63.4-54.795-7.528-101.421 42.875-88.723 97.728l1.97 8.509-8.53 1.963c-55.053 12.676-79.953 76.598-49.173 122.378 11.369 16.91 26.418 31.754 44.852 43.24 30.287 18.878 76.215 32.748 122.105 36.745-171.307 72.144-125.692 204.633-38.883 207.658l8.75.305-.305 8.725c-2.363 67.506 79.522 121.213 159.277 47.03 33.085-30.773 82.577-87.8 95.267-142.942-3.806-15.222-3.49-69.683-5.157-85.124l81.4-220.78 63.054-62.035c15.01-48.522 19.775-117.379-2.48-162.585z" fill="#FF8E9E"/><path d="M695.826 354.11h-82.464l1.063 220.78c2.06.104-2.085 0 0 0 68.274 0 128.779-55.19 128.779-123.467-.003-39.503-18.535-74.682-47.378-97.313z" fill="#FFDBE0"/><path d="M619.58 327.804c-68.274 0-123.622 55.347-123.622 123.621 0 66.19 53.081 120.227 118.465 123.468 0-82.45 19.623-163.455 81.4-220.78a123.078 123.078 0 0 0-76.243-26.31z" fill="#FFB5C0"/><path d="M456.836 451.425a247.794 247.794 0 0 0-60.993-7.588c-107.734 0-199.369 68.855-233.346 164.953v.01C73.95 609.974 0 682.31 0 773.78c0 91.11 73.86 164.968 164.971 164.968h351.034V510.595z" fill="#D4D4FF"/><path d="M643.266 691.287c-.007-115.871-79.446-212.729-186.43-239.862-107.133 27.201-186.389 124.277-186.389 239.872 0 136.035 109.766 246.42 245.558 247.453h127.63c68.333 0 123.728-55.394 123.728-123.728-.002-69.229-56.58-124.096-124.097-123.735z" fill="#EFEDFF"/><path d="M178.046 749.17a61.81 44.298 0 1 0 123.622 0 61.81 44.298 0 1 0-123.622 0zM495.342 749.17a61.81 44.298 0 1 0 123.622 0 61.81 44.298 0 1 0-123.622 0z" fill="#FF8E9E"/><path d="M269.84 666.004a15.453 15.453 0 0 0-15.453 15.453v24.724c0 8.536 6.918 15.453 15.452 15.453s15.453-6.917 15.453-15.453v-24.724a15.453 15.453 0 0 0-15.453-15.453zm257.333 0a15.453 15.453 0 0 0-15.453 15.453v24.724c0 8.536 6.918 15.453 15.453 15.453s15.452-6.917 15.452-15.453v-24.724a15.453 15.453 0 0 0-15.452-15.453zm-84.593 27.792a15.453 15.453 0 0 0-21.803 1.498 29.546 29.546 0 0 1-22.272 10.153 29.55 29.55 0 0 1-22.275-10.153 15.453 15.453 0 1 0-23.298 20.305c11.495 13.188 28.105 20.752 45.57 20.752s34.077-7.564 45.572-20.752a15.45 15.45 0 0 0-1.494-21.803z" fill="#313D40"/></svg>