<?xml version="1.0" standalone="no"?><!DOCTYPE svg PUBLIC "-//W3C//DTD SVG 1.1//EN" "http://www.w3.org/Graphics/SVG/1.1/DTD/svg11.dtd"><svg t="1624436334331" class="icon" viewBox="0 0 1024 1024" version="1.1" xmlns="http://www.w3.org/2000/svg" p-id="16853" xmlns:xlink="http://www.w3.org/1999/xlink" width="200" height="200"><defs><style type="text/css"></style></defs><path d="M961.468008 336.875396l-8.529899-1.963525 1.969706-8.509296c12.698012-54.853022-33.927984-105.255662-88.723316-97.727098-44.483219 6.113095-77.504644 30.413006-107.305722 63.399404H480.282785V660.016419h139.296966c12.689771 55.143533 62.18173 112.170237 95.267026 142.941746 79.754559 74.18334 161.639533 20.475879 159.276297-47.029827l-0.304933-8.725634 8.750358-0.304933c86.809239-3.024612 132.423598-135.51208-38.883155-207.657723 45.888386-3.997103 91.81798-17.867461 122.105304-36.744499 18.43406-11.486519 33.482946-26.331429 44.852024-43.240821 30.77769-45.779187 5.878213-109.701924-49.174664-122.379332z" fill="#FFB5C0" p-id="16854"></path><path d="M756.398101 129.489642c-24.361722-49.477537-98.285457-59.929755-136.81835-18.71633-38.532893-41.211364-112.456628-30.759147-136.818351 18.71633-22.258093 45.204346-17.490414 114.06371-2.480676 162.585239-29.801078-32.986398-62.824563-57.28631-107.305722-63.399404-54.795332-7.528563-101.421328 42.874076-88.723316 97.727098l1.969706 8.509296-8.529899 1.963525c-55.052877 12.675348-79.952354 76.598085-49.172604 122.377272 11.369078 16.909392 26.417964 31.754302 44.852024 43.240821 30.287324 18.877038 76.214857 32.747396 122.105304 36.744499-171.306753 72.143581-125.692394 204.633111-38.883155 207.657722l8.750359 0.304934-0.304934 8.725634c-2.363235 67.505706 79.521738 121.213167 159.276298 47.029827 33.085296-30.773569 82.577256-87.800274 95.267026-142.941747-3.805489-15.221956-3.490254-69.683509-5.157087-85.123863l81.400789-220.780169 63.053264-62.035445c15.009738-48.521529 19.775356-117.378833-2.480676-162.585239z" fill="#FF8E9E" p-id="16855"></path><path d="M695.825513 354.110326h-82.463936l1.063147 220.780169c2.060362 0.103018-2.085087 0 0 0 68.274221 0 128.778817-55.190922 128.778817-123.467203-0.00206-39.503324-18.535018-74.681948-47.378028-97.312966z" fill="#FFDBE0" p-id="16856"></path><path d="M619.579751 327.803622c-68.274221 0-123.62173 55.347509-123.621731 123.62173 0 66.189135 53.081111 120.226254 118.464644 123.467203 0-82.449513 19.622889-163.454712 81.400789-220.780169a123.077795 123.077795 0 0 0-76.243702-26.308764z" fill="#FFB5C0" p-id="16857"></path><path d="M456.835863 451.425352a247.793577 247.793577 0 0 0-60.992901-7.588314c-107.734278 0-199.368885 68.855243-233.346318 164.952596v0.010302C73.950519 609.974342 0 682.309537 0 773.779316c0 91.111276 73.859863 164.969078 164.971139 164.969078h351.034205V510.594833z" fill="#D4D4FF" p-id="16858"></path><path d="M643.265674 691.286535c-0.006181-115.870648-79.445505-212.728274-186.429811-239.861183-107.132652 27.200901-186.388604 124.276926-186.388603 239.871485 0 136.035412 109.765795 246.419316 245.558084 247.453618h127.629135c68.333972 0 123.728869-55.394897 123.728869-123.728869-0.00206-69.228169-56.579606-124.095614-124.097674-123.735051z" fill="#EFEDFF" p-id="16859"></path><path d="M178.046197 749.17035a61.810865 44.297787 0 1 0 123.621731 0 61.810865 44.297787 0 1 0-123.621731 0Z" fill="#FF8E9E" p-id="16860"></path><path d="M495.341972 749.17035a61.810865 44.297787 0 1 0 123.62173 0 61.810865 44.297787 0 1 0-123.62173 0Z" fill="#FF8E9E" p-id="16861"></path><path d="M269.839453 666.003831a15.452716 15.452716 0 0 0-15.452717 15.452716v24.724346c0 8.53608 6.918696 15.452716 15.452717 15.452717s15.452716-6.916636 15.452716-15.452717v-24.724346a15.452716 15.452716 0 0 0-15.452716-15.452716zM527.172507 666.003831a15.452716 15.452716 0 0 0-15.452716 15.452716v24.724346c0 8.53608 6.918696 15.452716 15.452716 15.452717s15.452716-6.916636 15.452716-15.452717v-24.724346a15.452716 15.452716 0 0 0-15.452716-15.452716zM442.580217 693.796056a15.452716 15.452716 0 0 0-21.802752 1.497884 29.545594 29.545594 0 0 1-22.272515 10.153464 29.549714 29.549714 0 0 1-22.274576-10.153464 15.452716 15.452716 0 1 0-23.298575 20.304869c11.494761 13.188378 28.1054 20.751968 45.57109 20.751968s34.07633-7.56359 45.571091-20.751968a15.450656 15.450656 0 0 0-1.493763-21.802753z" fill="#313D40" p-id="16862"></path></svg>