<?xml version="1.0" standalone="no"?><!DOCTYPE svg PUBLIC "-//W3C//DTD SVG 1.1//EN" "http://www.w3.org/Graphics/SVG/1.1/DTD/svg11.dtd"><svg t="1624436343122" class="icon" viewBox="0 0 1024 1024" version="1.1" xmlns="http://www.w3.org/2000/svg" p-id="17294" xmlns:xlink="http://www.w3.org/1999/xlink" width="200" height="200"><defs><style type="text/css"></style></defs><path d="M731.597035 296.513364c-4.773856-45.410352-47.050399-77.88988-92.048679-71.111293a79.843102 79.843102 0 0 0-30.357356-21.157845c17.455377-35.984201 6.712656-84.235791-32.883359-106.370247-4.773856-45.410352-47.05452-77.894001-92.046618-71.113354h-97.98664v418.179071l133.770986 67.804414c34.129877 33.371664 88.931353 30.938378 119.968629-3.898203 45.099238 6.648784 87.462316-26.09447 92.007472-71.599598 54.218395-30.717919 53.995876-110.313778-0.424435-140.732945z" fill="#FFDBE0" p-id="17295"></path><path d="M495.207719 435.041723c-73.099541-7.856156-95.398826-103.914297-35.454688-146.893424-67.256358-13.480941-87.633326-100.075845-33.501467-142.282336-27.670646-48.834672 2.274638-110.777359 58.009459-119.105338C459.250303-1.231436 418.492245-7.880221 385.864372 9.737924c-32.246707-17.325574-73.219042-11.111526-98.425496 17.29879-45.039487-6.62406-87.340755 26.067685-91.840583 71.630504-38.43191 21.619366-49.798921 69.201338-32.357967 105.451326a79.667971 79.667971 0 0 0-31.090844 21.561676c-45.002401-6.615819-87.365479 26.024417-91.846764 71.675831C13.375862 312.656291 0 340.17653 0 367.476311c0 27.41104 13.610743 54.807658 40.663281 70.044026C45.327938 483.097578 87.740465 515.645098 132.672813 508.950985c31.432864 35.160057 85.896442 36.983476 119.612186 4.017704l60.617876-13.095653c21.742988 18.032278 53.711546 16.260367 73.328241-4.067153 19.610514 20.321339 51.634702 22.087068 73.377689 4.073334l60.436564 12.871074c-20.333701-20.335761-32.170474-48.560644-24.83765-77.708568z" fill="#FFB5C0" p-id="17296"></path><path d="M579.062344 446.756934c-8.004502-15.0736-26.712578-20.805523-41.790298-12.803082l-33.264526 17.661413-17.661412-33.266586c-8.004502-15.07566-26.714638-20.805523-41.790299-12.803082-15.07566 8.004502-20.807584 26.714638-12.803082 41.790298l27.856078 52.539201-13.773511 45.064212c-9.504444 31.022853-41.332898 49.512531-73.0913 42.470217l-30.769428 16.482886v197.784336l30.905412 12.500209 57.772517 20.603608 58.639929-20.603608v-178.639463a143.442319 143.442319 0 0 1 6.296462-42.031361l24.456483-80.757902 46.213893-24.198937c15.0736-8.006562 20.805523-26.716699 12.803082-41.792359z" fill="#E8B5B1" p-id="17297"></path><path d="M372.879978 814.174895l-0.135984-0.135983a34.570794 34.570794 0 0 1-10.16582-24.475026v-177.679335c0-9.180968 3.65714-17.984889 10.16582-24.475026-21.396847-4.747071-39.334348-20.609789-46.032581-42.470217l-13.808538-45.068333 27.893164-52.53508c8.004502-15.07566 2.272578-33.783736-12.803082-41.790298-15.0736-8.000381-33.783736-2.272578-41.790298 12.803082l-17.661413 33.266586-33.264525-17.661413c-15.07566-8.004502-33.785796-2.270518-41.790298 12.803082-8.004502 15.07566-2.272578 33.785796 12.803082 41.790298l45.993434 24.419397 24.676941 80.537443a143.462923 143.462923 0 0 1 6.296463 42.031361v178.639462l40.494331 20.603608z" fill="#D6948C" p-id="17298"></path><path d="M962.188496 814.174895H489.292424l-33.565338 34.793313v138.783844h112.547209c9.726963 21.376243 31.255673 36.247928 56.272574 36.247927s46.547671-14.871684 56.272574-36.247927C690.548467 1009.128295 712.077177 1023.999979 737.094078 1023.999979s46.547671-14.871684 56.272574-36.247927C803.095676 1009.128295 824.624386 1023.999979 849.641287 1023.999979s46.547671-14.871684 56.272574-36.247927c9.811438 21.561676 31.630659 36.505473 56.925709 36.243807 34.096911-0.350261 61.15975-28.999578 61.15975-63.09855v-84.911589c0-34.136058-27.672706-61.810824-61.810824-61.810825z" fill="#70DCBA" p-id="17299"></path><path d="M568.274295 987.752052c-43.619899 0-78.981871-35.361972-78.981871-78.981871v-94.595286H61.810824c-34.138118 0-61.810824 27.674766-61.810824 61.810825v84.911589c0 34.098971 27.062839 62.748288 61.15975 63.09855 25.292989 0.259605 47.11221-14.682131 56.923648-36.243807C127.812422 1009.128295 149.341132 1023.999979 174.358033 1023.999979s46.547671-14.871684 56.272574-36.247927C240.359631 1009.128295 261.888341 1023.999979 286.905242 1023.999979s46.547671-14.871684 56.272574-36.247927c9.726963 21.376243 31.255673 36.247928 56.274635 36.247927s46.547671-14.871684 56.272574-36.247927a62.029222 62.029222 0 0 0 33.565338 31.919109A61.536796 61.536796 0 0 0 511.9976 1023.999979c25.018961 0 46.549732-14.871684 56.276695-36.247927z" fill="#30CD9C" p-id="17300"></path><path d="M920.98128 783.269483c0 17.068029 13.837383 30.905412 30.905412 30.905412s30.905412-13.837383 30.905412-30.905412v-61.810824h-61.810824z" fill="#D6948C" p-id="17301"></path><path d="M941.584888 566.931599h-106.493869a41.347321 41.347321 0 0 0-29.23858 12.110801L776.756023 608.138815v20.603608l20.603609 20.603608h163.370128l22.062344-20.603608v-20.603608c0-22.758745-18.448471-41.207216-41.207216-41.207216z" fill="#E8B5B1" p-id="17302"></path><path d="M797.359632 608.138815c0-22.758745 18.448471-41.207216 41.207216-41.207216h-164.828865c-22.758745 0-41.207216 18.448471-41.207216 41.207216v20.603608l95.771751 20.603608 69.057114-20.603608zM797.359632 628.742423l-20.603609 41.324657 20.603609 51.391579h185.432472v-92.716236z" fill="#D6948C" p-id="17303"></path><path d="M632.530767 628.742423v154.52706c0 17.068029 13.837383 30.905412 30.905412 30.905412s30.905412-13.837383 30.905412-30.905412v-61.810824h103.018041v-92.716236z" fill="#CE857A" p-id="17304"></path><path d="M993.093908 690.553247h-195.734276l-51.509021 30.905412 51.509021 30.905412h195.734276c17.068029 0 30.905412-13.837383 30.905412-30.905412s-13.837383-30.905412-30.905412-30.905412z" fill="#E8B5B1" p-id="17305"></path><path d="M797.359632 690.553247h-174.257076c-16.641534 0-30.961042 12.78866-31.743979 29.40959-0.836506 17.747948 13.30581 32.401234 30.870386 32.401234h175.130669c-17.068029-17.068029-17.068029-44.742795 0-61.810824z" fill="#D6948C" p-id="17306"></path><path d="M222.358259 297.891745c-33.402569 0-60.481891 21.563736-60.481892 48.165055s27.079322 48.162994 60.481892 48.162994 60.481891-21.563736 60.481891-48.162994-27.079322-48.165055-60.481891-48.165055zM550.188448 297.891745c-33.402569 0-60.481891 21.563736-60.481892 48.165055s27.079322 48.162994 60.481892 48.162994 60.481891-21.563736 60.481891-48.162994-27.077262-48.165055-60.481891-48.165055z" fill="#FF8E9E" p-id="17307"></path><path d="M116.597878 159.758976c0-22.758745 18.448471-41.207216 41.207216-41.207216s41.207216 18.448471 41.207217 41.207216c22.758745 0 41.207216 18.448471 41.207216 41.207216s-18.448471 41.207216-41.207216 41.207216c0 22.758745-18.448471 41.207216-41.207217 41.207216s-41.207216-18.448471-41.207216-41.207216c-22.758745 0-41.207216-18.448471-41.207216-41.207216s18.448471-41.207216 41.207216-41.207216z" fill="#FF8E9E" p-id="17308"></path><path d="M157.805094 200.966192m-23.632338 0a23.632338 23.632338 0 1 0 47.264677 0 23.632338 23.632338 0 1 0-47.264677 0Z" fill="#FFDBE0" p-id="17309"></path><path d="M576.307641 97.873979c16.091418-16.091418 42.183827-16.093478 58.275245 0s16.091418 42.183827 0 58.275245c16.093478 16.093478 16.091418 42.183827 0 58.275245s-42.183827 16.093478-58.275245 0c-16.091418 16.091418-42.183827 16.093478-58.275245 0-16.093478-16.093478-16.091418-42.183827 0-58.275245-16.093478-16.093478-16.091418-42.183827 0-58.275245s42.181767-16.091418 58.275245 0z" fill="#FFB5C0" p-id="17310"></path><path d="M576.307641 156.151284m-23.632338 0a23.632338 23.632338 0 1 0 47.264677 0 23.632338 23.632338 0 1 0-47.264677 0Z" fill="#FFDBE0" p-id="17311"></path><path d="M691.895943 380.137228c0-22.758745 18.448471-41.207216 41.207216-41.207216s41.207216 18.448471 41.207216 41.207216c22.758745 0 41.207216 18.448471 41.207216 41.207216s-18.448471 41.207216-41.207216 41.207216c0 22.758745-18.448471 41.207216-41.207216 41.207216s-41.207216-18.448471-41.207216-41.207216c-22.758745 0-41.207216-18.448471-41.207216-41.207216s18.448471-41.207216 41.207216-41.207216z" fill="#FFB5C0" p-id="17312"></path><path d="M733.103159 421.344444m-23.632338 0a23.632338 23.632338 0 1 0 47.264677 0 23.632338 23.632338 0 1 0-47.264677 0Z" fill="#FFDBE0" p-id="17313"></path><path d="M159.634695 752.364071c0-34.136058 27.672706-61.810824 61.810824-61.810824s61.810824 27.674766 61.810824 61.810824c34.138118 0 61.810824 27.674766 61.810824 61.810824s-27.672706 61.810824-61.810824 61.810825c0 34.136058-27.672706 61.810824-61.810824 61.810824s-61.810824-27.674766-61.810824-61.810824c-34.138118 0-61.810824-27.674766-61.810824-61.810825s27.672706-61.810824 61.810824-61.810824z" fill="#FFB5C0" p-id="17314"></path><path d="M221.445519 814.174895m-23.632338 0a23.632338 23.632338 0 1 0 47.264676 0 23.632338 23.632338 0 1 0-47.264676 0Z" fill="#FFDBE0" p-id="17315"></path><path d="M257.606911 271.875569a15.452706 15.452706 0 0 0-15.452706 15.452706v24.72433c0 8.536075 6.918692 15.452706 15.452706 15.452706s15.452706-6.916631 15.452706-15.452706v-24.72433a15.452706 15.452706 0 0 0-15.452706-15.452706zM514.939795 271.875569a15.452706 15.452706 0 0 0-15.452706 15.452706v24.72433c0 8.536075 6.918692 15.452706 15.452706 15.452706s15.452706-6.916631 15.452706-15.452706v-24.72433a15.452706 15.452706 0 0 0-15.452706-15.452706zM430.347561 299.665716a15.448585 15.448585 0 0 0-21.802738 1.499943c-11.797626 13.53451-32.757676 13.524208-44.545 0a15.452706 15.452706 0 0 0-23.300621 20.300735c24.112403 27.672706 67.052382 27.647982 91.144181 0a15.448585 15.448585 0 0 0-1.495822-21.800678z" fill="#313D40" p-id="17316"></path></svg>