<svg class="icon" viewBox="0 0 1024 1024" xmlns="http://www.w3.org/2000/svg" width="200" height="200"><path d="M731.597 296.513c-4.774-45.41-47.05-77.89-92.049-71.11a79.843 79.843 0 0 0-30.357-21.159c17.455-35.984 6.713-84.236-32.883-106.37-4.774-45.41-47.055-77.894-92.047-71.113h-97.987V444.94l133.771 67.804c34.13 33.372 88.932 30.938 119.969-3.898 45.1 6.649 87.462-26.095 92.007-71.6 54.219-30.718 53.996-110.313-.424-140.733z" fill="#FFDBE0"/><path d="M495.208 435.042c-73.1-7.856-95.4-103.915-35.455-146.894-67.256-13.48-87.633-100.076-33.501-142.282-27.671-48.835 2.274-110.777 58.009-119.105-25.01-27.992-65.769-34.641-98.397-17.023-32.246-17.326-73.219-11.112-98.425 17.299-45.04-6.624-87.34 26.067-91.84 71.63-38.433 21.62-49.8 69.202-32.359 105.452a79.668 79.668 0 0 0-31.09 21.561c-45.003-6.616-87.366 26.025-91.847 71.676C13.376 312.656 0 340.176 0 367.476c0 27.411 13.61 54.808 40.663 70.044 4.665 45.578 47.077 78.125 92.01 71.431 31.433 35.16 85.896 36.983 119.612 4.018l60.618-13.096c21.743 18.032 53.711 16.26 73.328-4.067 19.61 20.321 51.635 22.087 73.378 4.073l60.436 12.871c-20.333-20.335-32.17-48.56-24.837-77.708z" fill="#FFB5C0"/><path d="M579.062 446.757c-8.004-15.074-26.712-20.806-41.79-12.803l-33.264 17.661-17.662-33.266c-8.004-15.076-26.715-20.806-41.79-12.803-15.076 8.004-20.808 26.714-12.803 41.79l27.856 52.54-13.774 45.063c-9.504 31.023-41.333 49.513-73.091 42.47l-30.77 16.483v197.785l30.906 12.5 57.772 20.604 58.64-20.604v-178.64a143.442 143.442 0 0 1 6.297-42.03l24.456-80.759 46.214-24.199c15.074-8.006 20.806-26.716 12.803-41.792z" fill="#E8B5B1"/><path d="m372.88 814.175-.136-.136a34.57 34.57 0 0 1-10.166-24.475v-177.68a34.563 34.563 0 0 1 10.166-24.474c-21.397-4.748-39.334-20.61-46.033-42.47l-13.808-45.069 27.893-52.535c8.005-15.076 2.273-33.784-12.803-41.79-15.074-8-33.784-2.273-41.79 12.803l-17.662 33.266-33.264-17.661c-15.076-8.005-33.786-2.27-41.79 12.803-8.005 15.076-2.273 33.786 12.803 41.79l45.993 24.42 24.677 80.537a143.463 143.463 0 0 1 6.296 42.031v178.64l40.495 20.604z" fill="#D6948C"/><path d="M962.188 814.175H489.292l-33.565 34.793v138.784h112.547c9.727 21.376 31.256 36.248 56.273 36.248s46.548-14.872 56.272-36.248c9.73 21.376 31.258 36.248 56.275 36.248s46.548-14.872 56.273-36.248c9.729 21.376 31.257 36.248 56.274 36.248s46.548-14.872 56.273-36.248c9.811 21.562 31.63 36.506 56.926 36.244 34.096-.35 61.16-29 61.16-63.099v-84.911c0-34.136-27.673-61.811-61.812-61.811z" fill="#70DCBA"/><path d="M568.274 987.752c-43.62 0-78.982-35.362-78.982-78.982v-94.595H61.811C27.673 814.175 0 841.85 0 875.985v84.912c0 34.1 27.063 62.749 61.16 63.099 25.293.26 47.112-14.682 56.923-36.244 9.73 21.376 31.258 36.248 56.275 36.248s46.548-14.872 56.273-36.248c9.729 21.376 31.257 36.248 56.274 36.248s46.548-14.872 56.273-36.248c9.727 21.376 31.255 36.248 56.274 36.248s46.548-14.872 56.273-36.248a62.03 62.03 0 0 0 33.565 31.92 61.537 61.537 0 0 0 22.708 4.328c25.019 0 46.55-14.872 56.276-36.248z" fill="#30CD9C"/><path d="M920.981 783.27c0 17.068 13.838 30.905 30.906 30.905s30.905-13.837 30.905-30.906v-61.81h-61.81z" fill="#D6948C"/><path d="M941.585 566.932H835.09a41.347 41.347 0 0 0-29.239 12.11l-29.096 29.097v20.603l20.604 20.604h163.37l22.062-20.604V608.14c0-22.759-18.448-41.207-41.207-41.207z" fill="#E8B5B1"/><path d="M797.36 608.139c0-22.759 18.448-41.207 41.207-41.207H673.738c-22.759 0-41.207 18.448-41.207 41.207v20.603l95.772 20.604 69.057-20.604zm0 20.603-20.604 41.325 20.604 51.392h185.432v-92.717z" fill="#D6948C"/><path d="M632.53 628.742V783.27c0 17.069 13.838 30.906 30.906 30.906s30.906-13.837 30.906-30.906v-61.81H797.36v-92.717z" fill="#CE857A"/><path d="M993.094 690.553H797.36l-51.51 30.906 51.51 30.905h195.734c17.068 0 30.905-13.837 30.905-30.905s-13.837-30.906-30.905-30.906z" fill="#E8B5B1"/><path d="M797.36 690.553H623.103c-16.642 0-30.961 12.789-31.744 29.41-.837 17.748 13.305 32.401 30.87 32.401h175.13c-17.067-17.068-17.067-44.743 0-61.81z" fill="#D6948C"/><path d="M222.358 297.892c-33.402 0-60.482 21.563-60.482 48.165s27.08 48.163 60.482 48.163 60.482-21.564 60.482-48.163-27.08-48.165-60.482-48.165zm327.83 0c-33.402 0-60.481 21.563-60.481 48.165s27.079 48.163 60.481 48.163 60.482-21.564 60.482-48.163-27.077-48.165-60.482-48.165zM116.598 159.759c0-22.759 18.448-41.207 41.207-41.207s41.207 18.448 41.207 41.207c22.76 0 41.208 18.448 41.208 41.207s-18.449 41.207-41.208 41.207c0 22.76-18.448 41.208-41.207 41.208s-41.207-18.449-41.207-41.208c-22.759 0-41.207-18.448-41.207-41.207s18.448-41.207 41.207-41.207z" fill="#FF8E9E"/><path d="M134.173 200.966a23.632 23.632 0 1 0 47.264 0 23.632 23.632 0 1 0-47.264 0z" fill="#FFDBE0"/><path d="M576.308 97.874c16.091-16.091 42.183-16.093 58.275 0s16.091 42.184 0 58.275c16.093 16.094 16.091 42.184 0 58.275s-42.184 16.094-58.275 0c-16.092 16.092-42.184 16.094-58.276 0-16.093-16.093-16.091-42.183 0-58.275-16.093-16.093-16.091-42.184 0-58.275s42.182-16.091 58.276 0z" fill="#FFB5C0"/><path d="M552.675 156.151a23.632 23.632 0 1 0 47.265 0 23.632 23.632 0 1 0-47.265 0z" fill="#FFDBE0"/><path d="M691.896 380.137c0-22.759 18.448-41.207 41.207-41.207s41.207 18.448 41.207 41.207c22.76 0 41.208 18.449 41.208 41.207s-18.449 41.208-41.208 41.208c0 22.758-18.448 41.207-41.207 41.207s-41.207-18.449-41.207-41.207c-22.759 0-41.207-18.449-41.207-41.208s18.448-41.207 41.207-41.207z" fill="#FFB5C0"/><path d="M709.471 421.344a23.632 23.632 0 1 0 47.264 0 23.632 23.632 0 1 0-47.264 0z" fill="#FFDBE0"/><path d="M159.635 752.364c0-34.136 27.672-61.81 61.81-61.81s61.811 27.674 61.811 61.81c34.138 0 61.811 27.675 61.811 61.81s-27.673 61.812-61.81 61.812c0 34.136-27.673 61.81-61.811 61.81s-61.811-27.674-61.811-61.81c-34.138 0-61.811-27.675-61.811-61.811s27.673-61.81 61.81-61.81z" fill="#FFB5C0"/><path d="M197.813 814.175a23.632 23.632 0 1 0 47.265 0 23.632 23.632 0 1 0-47.265 0z" fill="#FFDBE0"/><path d="M257.607 271.876a15.453 15.453 0 0 0-15.453 15.452v24.725c0 8.536 6.919 15.452 15.453 15.452s15.453-6.916 15.453-15.452v-24.725a15.453 15.453 0 0 0-15.453-15.452zm257.333 0a15.453 15.453 0 0 0-15.453 15.452v24.725c0 8.536 6.919 15.452 15.453 15.452s15.453-6.916 15.453-15.452v-24.725a15.453 15.453 0 0 0-15.453-15.452zm-84.592 27.79a15.449 15.449 0 0 0-21.803 1.5c-11.798 13.534-32.758 13.524-44.545 0a15.453 15.453 0 0 0-23.3 20.3c24.112 27.673 67.052 27.648 91.143 0a15.449 15.449 0 0 0-1.495-21.8z" fill="#313D40"/></svg>