<svg class="icon" viewBox="0 0 1024 1024" xmlns="http://www.w3.org/2000/svg" width="200" height="200"><path d="M828.953 240.032H576.917a97.867 97.867 0 0 0-69.2 28.662l-68.859 75.73v47.733h467.016l20.604-47.732v-6.868c0-53.864-43.663-97.525-97.525-97.525z" fill="#D6948C"/><path d="M195.05 240.032c-53.863 0-97.524 43.661-97.524 97.523v6.868l20.604 47.732h348.887l20.604-47.732v-6.868c0-53.862 43.663-97.523 97.523-97.523z" fill="#CE857A"/><path d="M438.858 344.425v103.704l48.763 69.366h386.641l52.216-69.366V344.425z" fill="#E8B5B1"/><path d="M97.524 344.425v103.704l38.628 69.366h312.841l38.628-69.366V344.425z" fill="#D6948C"/><path d="M487.62 448.129 324.19 509.254l163.432 43.953h292.571v281.24c0 40.395 32.748 73.143 73.143 73.143s73.143-32.748 73.143-73.143V448.129z" fill="#D6948C"/><path d="M97.524 448.129v386.318c0 40.395 32.747 73.143 73.143 73.143s73.143-32.748 73.143-73.143v-281.24h243.809V448.13z" fill="#CE857A"/><path d="M950.858 615.018H487.621l-121.906 73.143 121.906 73.143h463.237c40.396 0 73.143-32.748 73.143-73.143s-32.747-73.143-73.143-73.143z" fill="#E8B5B1"/><path d="M487.62 615.018H75.21c-39.383 0-73.272 30.267-75.125 69.605-1.98 42.005 31.491 76.68 73.059 76.68H487.62c-40.396-40.395-40.396-105.89 0-146.285z" fill="#D6948C"/><path d="M287.603 475.387a60.482 48.165 0 1 0 120.964 0 60.482 48.165 0 1 0-120.964 0zM615.435 475.387a60.482 48.165 0 1 0 120.964 0 60.482 48.165 0 1 0-120.964 0z" fill="#FFDBE0"/><path d="M383.333 388.846a15.453 15.453 0 0 0-15.452 15.453v24.724c0 8.536 6.918 15.453 15.452 15.453s15.453-6.917 15.453-15.453v-24.724a15.453 15.453 0 0 0-15.453-15.453zm257.336 0a15.453 15.453 0 0 0-15.453 15.453v24.724c0 8.536 6.919 15.453 15.453 15.453s15.452-6.917 15.452-15.453v-24.724a15.453 15.453 0 0 0-15.452-15.453zm-84.593 27.79a15.453 15.453 0 0 0-21.803 1.498c-5.622 6.455-13.74 10.156-22.272 10.156s-16.65-3.7-22.273-10.156a15.453 15.453 0 0 0-23.3 20.305A60.45 60.45 0 0 0 512 459.193a60.45 60.45 0 0 0 45.573-20.754 15.453 15.453 0 0 0-1.498-21.803z" fill="#313D40"/><path d="M380.482 178.221c0-20.422-9.91-38.524-25.178-49.78h-41.207l-60.26 110.689 59.411 113.095h41.207c15.746-11.204 26.027-29.587 26.027-50.382 34.138 0 61.81-27.675 61.81-61.81s-27.674-61.812-61.81-61.812z" fill="#FFDBE0"/><path d="M295.045 239.13c.5-45.135 23.523-86.37 60.257-110.69a61.522 61.522 0 0 0-36.633-12.03c-34.138 0-61.81 27.675-61.81 61.811-34.14 0-61.812 27.675-61.812 61.811s27.673 61.811 61.811 61.811c0 34.136 27.673 61.81 61.81 61.81a61.496 61.496 0 0 0 35.785-11.428c-37.142-24.994-59.915-67.293-59.408-113.095z" fill="#FFB5C0"/><path d="M295.039 240.032a23.632 23.632 0 1 0 47.264 0 23.632 23.632 0 1 0-47.264 0z" fill="#FF8E9E"/></svg>