<?xml version="1.0" standalone="no"?><!DOCTYPE svg PUBLIC "-//W3C//DTD SVG 1.1//EN" "http://www.w3.org/Graphics/SVG/1.1/DTD/svg11.dtd"><svg t="1624436312737" class="icon" viewBox="0 0 1024 1024" version="1.1" xmlns="http://www.w3.org/2000/svg" p-id="16127" xmlns:xlink="http://www.w3.org/1999/xlink" width="200" height="200"><defs><style type="text/css"></style></defs><path d="M828.952663 240.032193H576.916799a97.867203 97.867203 0 0 0-69.199324 28.661698L438.858111 344.424563v47.732411h467.016113l20.603622-47.732411v-6.867187c0-53.864048-43.663195-97.525183-97.525183-97.525183z" fill="#D6948C" p-id="16128"></path><path d="M195.049274 240.032193c-53.861988 0-97.523123 43.661135-97.523123 97.523123v6.867187l20.603622 47.73241h348.887308l20.603622-47.73241v-6.867187c0-53.861988 43.663195-97.523123 97.523123-97.523123z" fill="#CE857A" p-id="16129"></path><path d="M438.858111 344.424563V448.128773l48.762592 69.366213h386.641384l52.215759-69.366213v-103.70421z" fill="#E8B5B1" p-id="16130"></path><path d="M97.524091 344.424563V448.128773l38.62767 69.366213h312.841272l38.62767-69.366213v-103.70421z" fill="#D6948C" p-id="16131"></path><path d="M487.620703 448.128773l-163.432049 61.124764 163.432049 43.953706h292.571428V834.44668c0 40.395461 32.747396 73.142857 73.142857 73.142857s73.142857-32.747396 73.142858-73.142857v-146.285714-240.032193z" fill="#D6948C" p-id="16132"></path><path d="M97.524091 448.128773V834.44668c0 40.395461 32.747396 73.142857 73.142857 73.142857s73.142857-32.747396 73.142857-73.142857V553.207243h243.808837v-105.07847z" fill="#CE857A" p-id="16133"></path><path d="M950.858111 615.018109H487.620703L365.715254 688.160966l121.905449 73.142857H950.858111c40.395461 0 73.142857-32.747396 73.142857-73.142857s-32.747396-73.142857-73.142857-73.142857z" fill="#E8B5B1" p-id="16134"></path><path d="M487.620703 615.018109H75.210369C35.826546 615.018109 1.937709 645.284829 0.085443 684.623324-1.894565 726.627928 31.576019 761.303823 73.143826 761.303823h414.476877c-40.395461-40.395461-40.395461-105.890254 0-146.285714z" fill="#D6948C" p-id="16135"></path><path d="M287.602803 475.387364a60.481932 48.165087 0 1 0 120.963864 0 60.481932 48.165087 0 1 0-120.963864 0Z" fill="#FFDBE0" p-id="16136"></path><path d="M615.43527 475.387364a60.481932 48.165087 0 1 0 120.963863 0 60.481932 48.165087 0 1 0-120.963863 0Z" fill="#FFDBE0" p-id="16137"></path><path d="M383.333411 388.845972a15.452716 15.452716 0 0 0-15.452716 15.452716v24.724346c0 8.53608 6.918696 15.452716 15.452716 15.452717s15.452716-6.916636 15.452716-15.452717v-24.724346a15.452716 15.452716 0 0 0-15.452716-15.452716zM640.668526 388.845972a15.452716 15.452716 0 0 0-15.452717 15.452716v24.724346c0 8.53608 6.918696 15.452716 15.452717 15.452717s15.452716-6.916636 15.452716-15.452717v-24.724346a15.452716 15.452716 0 0 0-15.452716-15.452716zM556.076236 416.636137a15.452716 15.452716 0 0 0-21.802753 1.497883c-5.622728 6.455115-13.740555 10.155525-22.272515 10.155525s-16.649787-3.70041-22.272515-10.155525a15.452716 15.452716 0 0 0-23.300636 20.304869c11.494761 13.188378 28.1054 20.754028 45.573151 20.754029s34.07839-7.56565 45.573151-20.754029a15.452716 15.452716 0 0 0-1.497883-21.802752z" fill="#313D40" p-id="16138"></path><path d="M380.48187 178.221328c0-20.42231-9.910342-38.524652-25.177626-49.78041h-41.207243L253.837588 239.129755l59.410543 113.09534h41.207244c15.745288-11.204249 26.026495-29.586801 26.026495-50.382037 34.138141 0 61.810865-27.674785 61.810865-61.810865s-27.674785-61.810865-61.810865-61.810865z" fill="#FFDBE0" p-id="16139"></path><path d="M295.044832 239.129755c0.500668-45.134294 23.523155-86.370382 60.257352-110.688837a61.522414 61.522414 0 0 0-36.63324-12.030455c-34.138141 0-61.810865 27.674785-61.810865 61.810865-34.138141 0-61.810865 27.674785-61.810865 61.810865s27.672724 61.810865 61.810865 61.810865c0 34.13608 27.672724 61.810865 61.810865 61.810866a61.49563 61.49563 0 0 0 35.78437-11.428829c-37.142149-24.994254-59.915332-67.293489-59.408482-113.09534z" fill="#FFB5C0" p-id="16140"></path><path d="M318.671005 240.032193m-23.632355 0a23.632354 23.632354 0 1 0 47.264709 0 23.632354 23.632354 0 1 0-47.264709 0Z" fill="#FF8E9E" p-id="16141"></path></svg>