<svg class="icon" viewBox="0 0 1024 1024" xmlns="http://www.w3.org/2000/svg" width="200" height="200"><path d="m160.1 814.175-38.838 20.604-38.84-20.604V686.474l38.84-30.906 38.837 30.906z" fill="#D6948C"/><path d="M195.74 538.814h-79.823v167.878h48.917c12.645-1.955 22.998-11.59 25.573-24.46l25.936-129.684z" fill="#EFEDFF"/><path d="M139.26 682.234 134 655.923A102.046 102.046 0 0 1 177.46 551l18.28-12.185-72.113-48.074-92.716 61.81 25.935 129.684c2.89 14.445 10.844 24.843 25.576 24.843h77.677c1.607 0 3.184-.146 4.733-.385-12.642-1.957-22.998-11.591-25.571-24.46z" fill="#D4D4FF"/><path d="m233.485 526.835-92.716-61.81-33.625 13.111v38.585l16.483 11.16 75.574 50.383a30.755 30.755 0 0 0 17.115 5.194c9.987 0 19.788-4.834 25.745-13.768 9.465-14.2 5.626-33.388-8.576-42.855z" fill="#FFB5C0"/><path d="m106.483 465.024-92.717 61.81c-14.202 9.468-18.04 28.656-8.573 42.858s28.656 18.039 42.858 8.572l75.574-50.382V499.72a43.686 43.686 0 0 1 17.142-34.697 30.901 30.901 0 0 0-34.284 0z" fill="#FF8E9E"/><path d="M983.049 296.513c-4.774-45.41-47.05-77.89-92.049-71.11a79.843 79.843 0 0 0-30.357-21.159c8.855-18.255 10.452-39.666 4.71-59.223-5.58-18.996-18.084-36.242-37.594-47.147-4.774-45.41-47.054-77.894-92.046-71.113h-97.987V444.94l133.771 67.804c34.13 33.372 88.931 30.938 119.969-3.898 45.099 6.649 87.462-26.095 92.007-71.6 54.219-30.718 53.994-110.313-.424-140.733z" fill="#FFDBE0"/><path d="M746.66 435.042c-73.1-7.856-95.4-103.915-35.455-146.894-55.053-11.035-78.696-71.062-55.772-115.63 9.725-18.907 13.153-40.26 11.94-61.489-2.263-39.573 25.377-77.85 68.338-84.268C710.7-1.231 669.94-7.88 637.314 9.738c-32.247-17.326-73.219-11.112-98.425 17.299-45.04-6.624-87.341 26.067-91.841 71.63-38.432 21.62-49.799 69.202-32.358 105.452a79.668 79.668 0 0 0-31.09 21.561c-45.003-6.616-87.366 26.025-91.848 71.676-26.924 15.302-40.3 42.82-40.3 70.12 0 27.411 13.61 54.808 40.663 70.044 4.665 45.578 47.077 78.125 92.01 71.431 31.432 35.16 85.896 36.983 119.612 4.018l60.618-13.096c21.743 18.032 53.711 16.26 73.328-4.067 19.61 20.321 51.635 22.087 73.378 4.073l60.436 12.871c-20.334-20.335-32.172-48.56-24.838-77.708z" fill="#FFB5C0"/><path d="M830.512 446.757c-8.005-15.074-26.713-20.806-41.79-12.803l-33.265 17.661-17.661-33.266c-8.005-15.076-26.715-20.806-41.79-12.803-15.076 8.004-20.808 26.714-12.804 41.79l27.856 52.54-13.773 45.063c-9.505 31.023-41.333 49.513-73.091 42.47l-30.77 16.483v230.889h88.678l58.64-20.604v-178.64a143.442 143.442 0 0 1 6.297-42.03l24.456-80.759 46.214-24.2c15.076-8.005 20.807-26.715 12.803-41.791z" fill="#E8B5B1"/><path d="m578.163 544.94-13.808-45.071 27.893-52.535c8.004-15.076 2.272-33.784-12.803-41.79-15.074-8-33.784-2.273-41.79 12.803l-17.662 33.266-5.58-2.963c-14.925-7.924-33.447-2.392-41.582 12.42-8.299 15.111-2.629 34.089 12.597 42.174l18.309 9.72 24.677 80.544a143.47 143.47 0 0 1 6.294 42.025v178.64l40.494 20.603 29.558-13.26V624.002c0-14.19 8.44-27.626 19.434-36.597-21.395-4.745-39.333-20.605-46.03-42.466zm90.47 141.721-.002-.03-.002.03v127.514h.005z" fill="#D6948C"/><path d="M473.81 297.892c-33.403 0-60.482 21.563-60.482 48.165s27.08 48.163 60.482 48.163 60.482-21.564 60.482-48.163-27.08-48.165-60.482-48.165zm327.83 0c-33.402 0-60.482 21.563-60.482 48.165s27.08 48.163 60.482 48.163 60.482-21.564 60.482-48.163-27.077-48.165-60.482-48.165z" fill="#FF8E9E"/><path d="M927.161 165.627c0-22.759-18.448-41.207-41.207-41.207s-41.207 18.448-41.207 41.207c-22.759 0-41.207 18.448-41.207 41.207s18.448 41.207 41.207 41.207c0 22.76 18.448 41.208 41.207 41.208s41.207-18.449 41.207-41.208c22.76 0 41.208-18.448 41.208-41.207s-18.449-41.207-41.208-41.207z" fill="#FFB5C0"/><path d="M862.322 206.834a23.632 23.632 0 1 0 47.265 0 23.632 23.632 0 1 0-47.265 0z" fill="#FFDBE0"/><path d="M370.11 392.5c0-22.76-18.449-41.208-41.207-41.208s-41.208 18.449-41.208 41.207c-22.758 0-41.207 18.449-41.207 41.208s18.449 41.207 41.207 41.207c0 22.759 18.449 41.207 41.208 41.207s41.207-18.448 41.207-41.207c22.759 0 41.207-18.449 41.207-41.207s-18.45-41.208-41.207-41.208z" fill="#FF8E9E"/><path d="M305.27 433.707a23.632 23.632 0 1 0 47.265 0 23.632 23.632 0 1 0-47.265 0z" fill="#FFDBE0"/><path d="M509.059 271.876a15.453 15.453 0 0 0-15.453 15.452v24.725c0 8.536 6.919 15.452 15.453 15.452s15.452-6.916 15.452-15.452v-24.725a15.453 15.453 0 0 0-15.452-15.452zm257.332 0a15.453 15.453 0 0 0-15.452 15.452v24.725c0 8.536 6.918 15.452 15.452 15.452s15.453-6.916 15.453-15.452v-24.725a15.453 15.453 0 0 0-15.453-15.452zm-84.592 27.79a15.449 15.449 0 0 0-21.802 1.5c-11.798 13.534-32.758 13.524-44.545 0a15.453 15.453 0 0 0-23.301 20.3c24.112 27.673 67.052 27.648 91.144 0a15.449 15.449 0 0 0-1.496-21.8z" fill="#313D40"/><path d="M386.741 692.842h501.97v61.811h-501.97z" fill="#D4D4FF"/><path d="m410.505 664.092-20.02-15.93h-51.51v166.015l51.51 10.302 30.905-10.302V686.663a28.845 28.845 0 0 0-10.885-22.571z" fill="#EFEDFF"/><path d="M377.54 637.86a28.845 28.845 0 0 0-35.92 0l-32.967 26.232a28.845 28.845 0 0 0-10.884 22.571v127.514l61.81 20.604V686.663a28.845 28.845 0 0 1 10.885-22.571l20.02-15.93z" fill="#D4D4FF"/><path d="m595.938 664.092-20.02-15.93h-51.51v166.015l51.51 10.302 30.905-10.302V686.663a28.845 28.845 0 0 0-10.885-22.571z" fill="#EFEDFF"/><path d="M562.972 637.86a28.845 28.845 0 0 0-35.92 0l-32.966 26.232a28.845 28.845 0 0 0-10.885 22.571v127.514l61.81 20.604V686.663a28.845 28.845 0 0 1 10.886-22.571l20.02-15.93z" fill="#D4D4FF"/><path d="m781.368 664.092-20.02-15.93h-51.51v166.015l51.51 10.302 30.905-10.302V686.663a28.845 28.845 0 0 0-10.885-22.571z" fill="#EFEDFF"/><path d="M748.402 637.86a28.845 28.845 0 0 0-35.92 0l-32.966 26.232a28.845 28.845 0 0 0-10.885 22.571v127.514l61.811 20.604V686.663a28.845 28.845 0 0 1 10.885-22.571l20.02-15.93z" fill="#D4D4FF"/><path d="m966.799 664.092-20.02-15.93h-51.51v166.015l51.51 10.302 30.905-10.302V686.663a28.845 28.845 0 0 0-10.885-22.571z" fill="#EFEDFF"/><path d="M933.833 637.86a28.845 28.845 0 0 0-35.92 0l-32.966 26.232a28.845 28.845 0 0 0-10.885 22.571v127.514l61.81 20.604V686.663a28.845 28.845 0 0 1 10.886-22.571l20.02-15.93z" fill="#D4D4FF"/><path d="M483.201 814.175H46.36c-25.602 0-46.358 20.756-46.358 46.358v100.364c0 34.1 27.063 62.749 61.16 63.099 25.293.262 47.112-14.682 56.924-36.244 9.726 21.376 31.257 36.248 56.274 36.248s46.548-14.872 56.273-36.248c9.727 21.376 31.257 36.248 56.274 36.248s46.548-14.872 56.273-36.248c9.727 21.376 31.256 36.248 56.275 36.248s46.547-14.872 56.272-36.248c9.902 21.757 31.746 36.248 56.275 36.248 25.017 0 46.547-14.872 56.272-36.248z" fill="#30CD9C"/><path d="M977.642 814.175h-494.44v94.595c0 43.62 35.361 78.982 78.981 78.982h6.092C578 1009.128 599.531 1024 624.548 1024s46.548-14.872 56.273-36.248c9.727 21.376 31.257 36.248 56.274 36.248s46.548-14.872 56.273-36.248c9.727 21.376 31.258 36.248 56.274 36.248s46.548-14.872 56.273-36.248c9.811 21.562 31.63 36.506 56.926 36.244 34.097-.35 61.16-29 61.16-63.099V860.533c0-25.602-20.757-46.358-46.359-46.358z" fill="#70DCBA"/><path d="M607.257 104.055c-16.091-16.091-42.183-16.093-58.275 0s-16.091 42.184 0 58.275c-16.093 16.094-16.091 42.184 0 58.276s42.184 16.093 58.275 0c16.092 16.091 42.184 16.093 58.276 0s16.091-42.184 0-58.276c16.093-16.093 16.091-42.184 0-58.275s-42.182-16.091-58.276 0z" fill="#FF8E9E"/><path d="M583.625 162.332a23.632 23.632 0 1 0 47.265 0 23.632 23.632 0 1 0-47.265 0z" fill="#FFDBE0"/></svg>