<?xml version="1.0" standalone="no"?><!DOCTYPE svg PUBLIC "-//W3C//DTD SVG 1.1//EN" "http://www.w3.org/Graphics/SVG/1.1/DTD/svg11.dtd"><svg t="1624436353809" class="icon" viewBox="0 0 1024 1024" version="1.1" xmlns="http://www.w3.org/2000/svg" p-id="17733" xmlns:xlink="http://www.w3.org/1999/xlink" width="200" height="200"><defs><style type="text/css"></style></defs><path d="M160.099412 814.174912l-38.837802 20.603608-38.839862-20.603608v-127.701166l38.839862-30.905412 38.837802 30.905412z" fill="#D6948C" p-id="17734"></path><path d="M195.739534 538.813866H115.917034v167.878201h48.917088c12.644435-1.955282 22.997748-11.58953 25.573198-24.460603l25.935823-129.683233z" fill="#EFEDFF" p-id="17735"></path><path d="M139.260923 682.233524l-5.262162-26.310808a102.045552 102.045552 0 0 1 43.461252-104.921816l18.279521-12.184974-72.112629-48.0744-92.716238 61.810826 25.935822 129.683232c2.888626 14.44519 10.843679 24.843831 25.575259 24.843831h77.677664c1.607081 0 3.183258-0.146286 4.732649-0.385287-12.642374-1.957343-22.997748-11.59159-25.571138-24.460604z" fill="#D4D4FF" p-id="17736"></path><path d="M233.485345 526.834928l-92.716238-61.810826-33.625089 13.112137v38.584377l16.482887 11.160975 75.574036 50.382004a30.755006 30.755006 0 0 0 17.115417 5.19417c9.986569 0 19.787706-4.833607 25.744209-13.767332 9.465298-14.200007 5.626845-33.388148-8.575222-42.855505z" fill="#FFB5C0" p-id="17737"></path><path d="M106.482642 465.024102l-92.716238 61.810826c-14.202067 9.467358-18.04052 28.655499-8.573161 42.857566s28.655499 18.038459 42.857565 8.571101l75.574036-50.382004V499.720579a43.685831 43.685831 0 0 1 17.142203-34.696477 30.901292 30.901292 0 0 0-34.284405 0z" fill="#FF8E9E" p-id="17738"></path><path d="M983.048742 296.51337c-4.773856-45.410353-47.0504-77.889881-92.048681-71.111294a79.843104 79.843104 0 0 0-30.357357-21.157846c8.855431-18.254797 10.452211-39.666067 4.709985-59.223012-5.579457-18.996527-18.083787-36.241747-37.593344-47.147237-4.773856-45.410353-47.054521-77.894002-92.046621-71.113355h-97.986641v418.179079l133.770988 67.804415c34.129877 33.371665 88.931355 30.938378 119.968631-3.898203 45.099239 6.648784 87.462318-26.09447 92.007474-71.5996 54.218396-30.71792 53.993816-110.31378-0.424434-140.732947z" fill="#FFDBE0" p-id="17739"></path><path d="M746.659421 435.041731c-73.099542-7.856156-95.398828-103.914299-35.454689-146.893426-55.052842-11.035293-78.695483-71.061846-55.771908-115.629511 9.724903-18.907931 13.153344-40.261511 11.939791-61.489409-2.262276-39.573351 25.377465-77.850735 68.338049-84.268759-25.01072-27.992062-65.768779-34.640847-98.396653-17.022701-32.246708-17.325574-73.219043-11.111526-98.425498 17.298789-45.039488-6.62406-87.340757 26.067685-91.840585 71.630506-38.431911 21.619366-49.798922 69.20134-32.357967 105.451328a79.667973 79.667973 0 0 0-31.090845 21.561676c-45.002402-6.615819-87.365481 26.024418-91.846766 71.675833-26.924796 15.3023-40.300658 42.820479-40.300658 70.120261 0 27.411041 13.610744 54.807659 40.663281 70.044027 4.664657 45.577242 47.077185 78.124763 92.009535 71.430651 31.432865 35.160058 85.896444 36.983477 119.612188 4.017703l60.617877-13.095653c21.742988 18.032278 53.711547 16.260368 73.328242-4.067153 19.610515 20.321339 51.634703 22.087068 73.377691 4.073334l60.436565 12.871074c-20.333701-20.335762-32.172535-48.560645-24.83765-77.70857z" fill="#FFB5C0" p-id="17740"></path><path d="M830.511987 446.756943c-8.004502-15.0736-26.712578-20.805524-41.790299-12.803082l-33.264526 17.661413-17.661413-33.266586c-8.004502-15.07566-26.714639-20.805524-41.790299-12.803083-15.07566 8.004502-20.807584 26.714639-12.803083 41.790299l27.856079 52.539202-13.773512 45.064213c-9.504445 31.022853-41.332899 49.512532-73.091301 42.470218l-30.769429 16.482886v230.888158h88.677931l58.63993-20.603609v-178.639466a143.442322 143.442322 0 0 1 6.296462-42.031362l24.456484-80.757903 46.213893-24.200999c15.07566-8.004502 20.807584-26.714639 12.803083-41.790299z" fill="#E8B5B1" p-id="17741"></path><path d="M578.163111 544.939319l-13.808538-45.070394 27.893165-52.535081c8.004502-15.07566 2.272578-33.783737-12.803083-41.790299-15.0736-8.000381-33.783737-2.272578-41.790299 12.803082l-17.661413 33.266587-5.579457-2.962799c-14.925254-7.924148-33.447898-2.392079-41.582203 12.419855-8.299133 15.110686-2.62902 34.08867 12.597047 42.173526l18.308366 9.720783 24.676942 80.543626a143.469107 143.469107 0 0 1 6.294402 42.02518v178.639466l40.494333 20.603609 29.557936-13.260483V624.001545c0-14.189705 8.439238-27.625318 19.433324-36.596129-21.394787-4.745011-39.332289-20.605669-46.030522-42.466097zM668.633556 686.661239l-0.002061-0.030905-0.00206 0.030905v127.513673h0.004121z" fill="#D6948C" p-id="17742"></path><path d="M473.809955 297.891751c-33.40257 0-60.481893 21.563737-60.481893 48.165056s27.079323 48.162995 60.481893 48.162995 60.481893-21.563737 60.481893-48.162995-27.079323-48.165056-60.481893-48.165056zM801.64015 297.891751c-33.40257 0-60.481893 21.563737-60.481892 48.165056s27.079323 48.162995 60.481892 48.162995 60.481893-21.563737 60.481893-48.162995-27.077262-48.165056-60.481893-48.165056z" fill="#FF8E9E" p-id="17743"></path><path d="M927.161454 165.626887c0-22.758746-18.448471-41.207217-41.207217-41.207217s-41.207217 18.448471-41.207217 41.207217c-22.758746 0-41.207217 18.448471-41.207217 41.207217s18.448471 41.207217 41.207217 41.207217c0 22.758746 18.448471 41.207217 41.207217 41.207216s41.207217-18.448471 41.207217-41.207216c22.758746 0 41.207217-18.448471 41.207217-41.207217s-18.448471-41.207217-41.207217-41.207217z" fill="#FFB5C0" p-id="17744"></path><path d="M885.954237 206.834104m-23.632339 0a23.632339 23.632339 0 1 0 47.264678 0 23.632339 23.632339 0 1 0-47.264678 0Z" fill="#FFDBE0" p-id="17745"></path><path d="M370.109933 392.499401c0-22.758746-18.448471-41.207217-41.207217-41.207217s-41.207217 18.448471-41.207217 41.207217c-22.758746 0-41.207217 18.448471-41.207217 41.207216s18.448471 41.207217 41.207217 41.207217c0 22.758746 18.448471 41.207217 41.207217 41.207217s41.207217-18.448471 41.207217-41.207217c22.758746 0 41.207217-18.448471 41.207217-41.207217s-18.450531-41.207217-41.207217-41.207216z" fill="#FF8E9E" p-id="17746"></path><path d="M328.902716 433.706617m-23.632339 0a23.632339 23.632339 0 1 0 47.264678 0 23.632339 23.632339 0 1 0-47.264678 0Z" fill="#FFDBE0" p-id="17747"></path><path d="M509.058608 271.875575a15.452706 15.452706 0 0 0-15.452706 15.452706v24.72433c0 8.536075 6.918692 15.452706 15.452706 15.452707s15.452706-6.916631 15.452707-15.452707v-24.72433a15.452706 15.452706 0 0 0-15.452707-15.452706zM766.391497 271.875575a15.452706 15.452706 0 0 0-15.452706 15.452706v24.72433c0 8.536075 6.918692 15.452706 15.452706 15.452707s15.452706-6.916631 15.452706-15.452707v-24.72433a15.452706 15.452706 0 0 0-15.452706-15.452706zM681.799262 299.665722a15.448586 15.448586 0 0 0-21.802739 1.499943c-11.797626 13.53451-32.757677 13.524209-44.545001 0a15.452706 15.452706 0 0 0-23.300621 20.300735c24.112403 27.672707 67.052383 27.647982 91.144183 0a15.448586 15.448586 0 0 0-1.495822-21.800678z" fill="#313D40" p-id="17748"></path><path d="M386.741166 692.842322h501.969834v61.810825H386.741166z" fill="#D4D4FF" p-id="17749"></path><path d="M410.505368 664.092047l-20.020526-15.93071h-51.509022v166.015635l51.509022 10.301804 30.905412-10.301804v-127.513672a28.845052 28.845052 0 0 0-10.884886-22.571253z" fill="#EFEDFF" p-id="17750"></path><path d="M377.539594 637.859532a28.845052 28.845052 0 0 0-35.920331 0l-32.965773 26.232515a28.845052 28.845052 0 0 0-10.884887 22.571253v127.513672l61.810826 20.603609V686.6633a28.845052 28.845052 0 0 1 10.884886-22.571253l20.020527-15.93071z" fill="#D4D4FF" p-id="17751"></path><path d="M595.937844 664.092047l-20.020526-15.93071h-51.509021v166.015635l51.509021 10.301804 30.905412-10.301804v-127.513672a28.845052 28.845052 0 0 0-10.884886-22.571253z" fill="#EFEDFF" p-id="17752"></path><path d="M562.972071 637.859532a28.845052 28.845052 0 0 0-35.920331 0l-32.965774 26.232515a28.845052 28.845052 0 0 0-10.884886 22.571253v127.513672l61.810825 20.603609V686.6633a28.845052 28.845052 0 0 1 10.884886-22.571253l20.020527-15.93071z" fill="#D4D4FF" p-id="17753"></path><path d="M781.36826 664.092047l-20.020526-15.93071h-51.509022v166.015635l51.509022 10.301804 30.905412-10.301804v-127.513672a28.845052 28.845052 0 0 0-10.884886-22.571253z" fill="#EFEDFF" p-id="17754"></path><path d="M748.402486 637.859532a28.845052 28.845052 0 0 0-35.920331 0l-32.965773 26.232515a28.845052 28.845052 0 0 0-10.884887 22.571253v127.513672l61.810826 20.603609V686.6633a28.845052 28.845052 0 0 1 10.884886-22.571253l20.020527-15.93071z" fill="#D4D4FF" p-id="17755"></path><path d="M966.798676 664.092047l-20.020527-15.93071h-51.509021v166.015635l51.509021 10.301804 30.905413-10.301804v-127.513672a28.845052 28.845052 0 0 0-10.884886-22.571253z" fill="#EFEDFF" p-id="17756"></path><path d="M933.832902 637.859532a28.845052 28.845052 0 0 0-35.920331 0l-32.965773 26.232515a28.845052 28.845052 0 0 0-10.884887 22.571253v127.513672l61.810826 20.603609V686.6633a28.845052 28.845052 0 0 1 10.884886-22.571253l20.020526-15.93071z" fill="#D4D4FF" p-id="17757"></path><path d="M483.20108 814.174912H46.359252c-25.602044 0-46.358119 20.756075-46.358119 46.358119v100.364297c0 34.098972 27.06284 62.74829 61.159752 63.098551 25.29299 0.261666 47.112211-14.682131 56.923649-36.243807C127.811498 1009.128315 149.342268 1024 174.35917 1024s46.547672-14.871685 56.272575-36.247928C240.358709 1009.128315 261.88948 1024 286.906381 1024s46.547672-14.871685 56.272576-36.247928c9.726964 21.376244 31.255674 36.247928 56.274635 36.247928s46.547672-14.871685 56.272576-36.247928C465.628262 1009.509482 487.472208 1024 512.000804 1024c25.016901 0 46.547672-14.871685 56.272575-36.247928z" fill="#30CD9C" p-id="17758"></path><path d="M977.642355 814.174912H483.20108v94.595287c0 43.619899 35.361973 78.981873 78.981872 78.981873h6.092487c9.724903 21.376244 31.255674 36.247928 56.272576 36.247928s46.547672-14.871685 56.272575-36.247928C690.547554 1009.128315 712.078325 1024 737.095226 1024s46.547672-14.871685 56.272575-36.247928C803.094765 1009.128315 824.625536 1024 849.642437 1024s46.547672-14.871685 56.272576-36.247928c9.811438 21.561676 31.63066 36.505473 56.92571 36.243807 34.096912-0.350261 61.159751-28.999579 61.159751-63.098551v-100.364297c0-25.602044-20.756075-46.358119-46.358119-46.358119z" fill="#70DCBA" p-id="17759"></path><path d="M607.257467 104.055063c-16.091418-16.091418-42.183828-16.093479-58.275247 0s-16.091418 42.183828 0 58.275246c-16.093479 16.093479-16.091418 42.183828 0 58.275247s42.183828 16.093479 58.275247 0c16.091418 16.091418 42.183828 16.093479 58.275246 0s16.091418-42.183828 0-58.275247c16.093479-16.093479 16.091418-42.183828 0-58.275246s-42.181768-16.091418-58.275246 0z" fill="#FF8E9E" p-id="17760"></path><path d="M607.257467 162.33237m-23.632339 0a23.632339 23.632339 0 1 0 47.264677 0 23.632339 23.632339 0 1 0-47.264677 0Z" fill="#FFDBE0" p-id="17761"></path></svg>