<svg class="icon" viewBox="0 0 1024 1024" xmlns="http://www.w3.org/2000/svg" width="200" height="200"><path d="m416.458 938.343-28.08 13.349-10.418-29.294c-13.623-38.309-67.8-38.309-81.423 0l-10.417 29.294-28.08-13.35c-36.723-17.455-75.03 20.856-57.575 57.575l13.347 28.08h246.874l13.349-28.08c17.453-36.721-20.855-75.03-57.577-57.574z" fill="#30CD9C"/><path d="M635.62 1023.998H388.377V117.44c0-34.138 27.673-61.81 61.811-61.81H573.81c34.138 0 61.81 27.672 61.81 61.81z" fill="#CE857A"/><path d="M900.376 179.251H635.62a198.963 198.963 0 0 0-140.69 58.275l-65.345 65.347v315.601l65.346 65.346c36.373 36.374 86.607 58.276 140.69 58.276h264.755c67.992 0 123.622-55.63 123.622-123.622V302.873c0-67.992-55.63-123.622-123.622-123.622z" fill="#E8B5B1"/><path d="M511.999 618.474V302.873c0-67.992 55.63-123.622 123.621-123.622H123.621C55.63 179.251 0 234.881 0 302.873v315.601c0 67.992 55.63 123.622 123.621 123.622h512c-67.992 0-123.622-55.63-123.622-123.622z" fill="#D6948C"/><path d="m765.959 938.343-28.081 13.349-10.417-29.294c-13.623-38.309-67.8-38.309-81.423 0l-10.418 29.294-28.08-13.35c-36.722-17.455-75.03 20.856-57.575 57.575l13.347 28.08h246.874l13.35-28.08c17.455-36.721-20.856-75.03-57.577-57.574z" fill="#70DCBA"/><path d="M198.736 420.222c-16.174-3.3-32.102 6.688-36.122 22.7a652.95 652.95 0 0 1-67.71 167.274c-8.526 14.787-3.447 33.684 11.338 42.208 14.812 8.538 33.698 3.429 42.21-11.34a714.666 714.666 0 0 0 74.081-182.968c4.296-17.105-6.517-34.348-23.797-37.874zm221.919 196.163c-22.717-72.481-47.572-134.113-74.074-183.751-8.338-15.617-28.116-20.985-43.26-11.81-14.074 8.526-18.94 26.55-11.21 41.08 24.411 45.886 48.116 104.684 69.294 172.114 4.984 15.864 21.43 25.725 37.521 21.526 17.213-4.491 26.985-22.384 21.729-39.159zm123.496-130.518h-59.617c-17.068 0-30.905 13.838-30.905 30.906s13.837 30.905 30.905 30.905h59.617c17.068 0 30.905-13.837 30.905-30.905s-13.837-30.906-30.905-30.906zm316.873-81.244H799.66a301.754 301.754 0 0 0 7.998-21.044c5.45-16.176-3.245-33.703-19.419-39.155-16.182-5.452-33.705 3.245-39.155 19.42-17.587 52.198-52.85 97.256-99.292 126.872-14.392 9.176-18.618 28.284-9.441 42.676 9.179 14.391 28.285 18.617 42.674 9.44 31.78-20.265 59.373-46.302 81.491-76.398h96.508c7.522 0 12.459 7.788 9.248 14.639-26.057 55.669-68.173 100.98-121.79 131.04-14.89 8.347-20.19 27.183-11.844 42.071 8.348 14.893 27.184 20.192 42.07 11.845 64.957-36.414 115.978-91.309 147.546-158.75 22.374-47.792-12.475-102.656-65.23-102.656zm-390.88 19.553c51.124 0 92.717-41.592 92.717-92.716s-41.593-92.716-92.716-92.716-92.716 41.592-92.716 92.716 41.592 92.716 92.716 92.716zm0-123.621c17.042 0 30.906 13.864 30.906 30.905s-13.864 30.906-30.905 30.906-30.906-13.865-30.906-30.906 13.865-30.905 30.906-30.905z" fill="#FFDBE0"/><path d="M951.506 700.888c0-22.758-18.448-41.207-41.207-41.207s-41.207 18.449-41.207 41.207c-22.759 0-41.207 18.449-41.207 41.208s18.448 41.207 41.207 41.207c0 22.759 18.448 41.207 41.207 41.207s41.207-18.448 41.207-41.207c22.759 0 41.207-18.449 41.207-41.207s-18.45-41.208-41.207-41.208z" fill="#FF8E9E"/><path d="M886.6669999999999 742.096a23.632 23.632 0 1 0 47.264 0 23.632 23.632 0 1 0-47.264 0zM268.877 89.626c0-29.614-14.37-55.86-36.508-72.18h-59.75L85.243 177.942 171.39 341.93h59.75c22.831-16.244 37.738-42.9 37.738-73.054 49.498 0 89.625-40.128 89.625-89.626s-40.127-89.625-89.625-89.625z" fill="#FFDBE0"/><path d="M144.994 177.943c.725-65.443 34.109-125.237 87.373-160.498A89.197 89.197 0 0 0 179.251 0c-49.498 0-89.625 40.128-89.625 89.626C40.128 89.626 0 129.753 0 179.25s40.128 89.626 89.626 89.626c0 49.498 40.127 89.625 89.625 89.625a89.17 89.17 0 0 0 51.888-16.571c-53.858-36.242-86.881-97.577-86.145-163.988z" fill="#FFB5C0"/><path d="M144.985 179.251a34.266 34.266 0 1 0 68.532 0 34.266 34.266 0 1 0-68.532 0z" fill="#FF8E9E"/></svg>