<?xml version="1.0" standalone="no"?><!DOCTYPE svg PUBLIC "-//W3C//DTD SVG 1.1//EN" "http://www.w3.org/Graphics/SVG/1.1/DTD/svg11.dtd"><svg t="1624436336875" class="icon" viewBox="0 0 1024 1024" version="1.1" xmlns="http://www.w3.org/2000/svg" p-id="16993" xmlns:xlink="http://www.w3.org/1999/xlink" width="200" height="200"><defs><style type="text/css"></style></defs><path d="M416.458074 938.342682l-28.080617 13.349059-10.417169-29.294168c-13.623086-38.308234-67.800196-38.308234-81.423283 0l-10.417169 29.294168-28.080617-13.349059c-36.721758-17.455352-75.029992 20.854942-57.57464 57.57464L213.811577 1023.99794h246.874139l13.349059-28.080618c17.453291-36.721758-20.854942-75.029992-57.576701-57.57464z" fill="#30CD9C" p-id="16994"></path><path d="M635.6204 1023.99794h-247.242943V117.440481c0-34.138069 27.672666-61.810736 61.810736-61.810736h123.621471c34.138069 0 61.810736 27.672666 61.810736 61.810736z" fill="#CE857A" p-id="16995"></path><path d="M900.376386 179.251216H635.6204a198.962578 198.962578 0 0 0-140.689476 58.275162L429.584614 302.872688v315.601497l65.34631 65.34631c36.373558 36.373558 86.607143 58.275162 140.689476 58.275161H900.376386c67.991809 0 123.621472-55.629662 123.621471-123.621471V302.872688c0-67.991809-55.629662-123.621472-123.621471-123.621472z" fill="#E8B5B1" p-id="16996"></path><path d="M511.998929 618.474185V302.872688c0-67.991809 55.629662-123.621472 123.621471-123.621472H123.621472c-67.991809 0-123.621472 55.629662-123.621472 123.621472v315.601497c0 67.991809 55.629662 123.621472 123.621472 123.621471h511.998928c-67.991809 0-123.621472-55.629662-123.621471-123.621471z" fill="#D6948C" p-id="16997"></path><path d="M765.958639 938.342682l-28.080618 13.349059-10.417169-29.294168c-13.623086-38.308234-67.800196-38.308234-81.423282 0l-10.41717 29.294168-28.080617-13.349059c-36.721758-17.455352-75.029992 20.854942-57.57464 57.57464L563.312141 1023.99794h246.874139l13.349059-28.080618c17.455352-36.721758-20.854942-75.029992-57.5767-57.57464z" fill="#70DCBA" p-id="16998"></path><path d="M198.735938 420.22243c-16.173809-3.300693-32.102436 6.687922-36.122194 22.698963a652.95007 652.95007 0 0 1-67.70954 167.274274c-8.525761 14.787188-3.446979 33.684791 11.338149 42.208491 14.811913 8.538123 33.697153 3.428435 42.210552-11.34021a714.66603 714.66603 0 0 0 74.080167-182.968019c4.295846-17.105091-6.516912-34.348226-23.797134-37.873499zM420.655023 616.384982c-22.717506-72.481329-47.571603-134.112814-74.073986-183.750956-8.338268-15.617513-28.115643-20.984745-43.259273-11.809971-14.074305 8.525761-18.94087 26.549771-11.210407 41.079415 24.41112 45.88623 48.115537 104.684723 69.293955 172.114054 4.984006 15.864756 21.429782 25.725628 37.521177 21.526619 17.21223-4.49158 26.984507-22.383728 21.728534-39.159161zM544.150813 485.867492H484.534358c-17.068005 0-30.905368 13.837363-30.905368 30.905368s13.837363 30.905368 30.905368 30.905368h59.616455c17.068005 0 30.905368-13.837363 30.905368-30.905368s-13.837363-30.905368-30.905368-30.905368zM861.02355 404.623461h-61.363638a301.753831 301.753831 0 0 0 7.998309-21.044495c5.449647-16.17587-3.245064-33.703334-19.418872-39.155041-16.182051-5.451707-33.705394 3.245064-39.155041 19.420933-17.587215 52.197106-52.85024 97.255072-99.292766 126.870656-14.3916 9.176834-18.617394 28.284593-9.44056 42.676193 9.178894 14.3916 28.284593 18.617394 42.674132 9.440559 31.77896-20.26568 59.373332-46.302422 81.491274-76.398069h96.507162c7.522367 0 12.458984 7.788153 9.248947 14.638843-26.057346 55.668809-68.173121 100.980199-121.789814 131.04082-14.890206 8.34651-20.191507 27.182301-11.844997 42.070447 8.34857 14.892267 27.184362 20.191507 42.070447 11.844997 64.956902-36.414765 115.977544-91.308879 147.546347-158.750573 22.373426-47.792061-12.475467-102.65527-65.23093-102.65527zM470.144819 424.176257c51.12366 0 92.716104-41.592444 92.716104-92.716104s-41.592444-92.716104-92.716104-92.716103-92.716104 41.592444-92.716104 92.716103 41.592444 92.716104 92.716104 92.716104z m0-123.621472c17.04122 0 30.905368 13.864148 30.905368 30.905368s-13.864148 30.905368-30.905368 30.905368-30.905368-13.864148-30.905368-30.905368 13.864148-30.905368 30.905368-30.905368z" fill="#FFDBE0" p-id="16999"></path><path d="M951.506226 700.888499c0-22.758713-18.448444-41.207157-41.207157-41.207157s-41.207157 18.448444-41.207157 41.207157c-22.758713 0-41.207157 18.448444-41.207157 41.207157s18.448444 41.207157 41.207157 41.207158c0 22.758713 18.448444 41.207157 41.207157 41.207157s41.207157-18.448444 41.207157-41.207157c22.758713 0 41.207157-18.448444 41.207157-41.207158s-18.450505-41.207157-41.207157-41.207157z" fill="#FF8E9E" p-id="17000"></path><path d="M910.299069 742.095656m-23.632305 0a23.632305 23.632305 0 1 0 47.26461 0 23.632305 23.632305 0 1 0-47.26461 0Z" fill="#FFDBE0" p-id="17001"></path><path d="M268.876701 89.625649c0-29.613524-14.368936-55.860422-36.507481-72.180517h-59.750378L85.243186 177.942889l86.145622 163.988003h59.750378c22.830825-16.243861 37.737515-42.900771 37.737515-73.054109 49.498037 0 89.625567-40.12753 89.625567-89.625567s-40.12753-89.625567-89.625567-89.625567z" fill="#FFDBE0" p-id="17002"></path><path d="M144.993564 177.942889c0.725246-65.443147 34.109224-125.236792 87.373596-160.497757A89.197013 89.197013 0 0 0 179.251134 0.000082C129.753097 0.000082 89.625567 40.127612 89.625567 89.625649 40.12753 89.625649 0 129.753179 0 179.251216s40.12753 89.625567 89.625567 89.625567c0 49.498037 40.12753 89.625567 89.625567 89.625567a89.170228 89.170228 0 0 0 51.888052-16.571458c-53.857755-36.241695-86.88117-97.576488-86.145622-163.988003z" fill="#FFB5C0" p-id="17003"></path><path d="M179.251134 179.251216m-34.265812 0a34.265812 34.265812 0 1 0 68.531624 0 34.265812 34.265812 0 1 0-68.531624 0Z" fill="#FF8E9E" p-id="17004"></path></svg>