<svg class="icon" viewBox="0 0 1024 1024" xmlns="http://www.w3.org/2000/svg" width="200" height="200"><path d="M318.801 902.558c-22.62-6.218-38.417-26.943-38.417-50.4a61.892 61.892 0 0 0-2.305-16.715L156.765 852.16c0 78.935 53.156 148.673 129.267 169.595 32.916 9.047 66.934-10.297 75.983-43.215s-10.3-66.932-43.214-75.98z" fill="#D4D4FF"/><path d="M306.511 947.603c-42.677-11.731-72.484-50.838-72.484-95.098h-30.905c0 58.13 39.146 109.49 95.2 124.897a15.452 15.452 0 0 0 8.19-29.799z" fill="#9EA2E3"/><path d="M445.295 460.225 73.849 852.272l100.756 100.756a92.55 92.55 0 0 0 24.712-17.667l350.255-370.859z" fill="#E8B5B1"/><path d="m177.397 824.845 305.958-326.562-64.9-64.9L68.2 804.242c-36.208 36.208-36.208 94.91 0 131.12 18.104 18.103 41.83 27.156 65.56 27.156 14.003 0 28-3.18 40.847-9.486-33.379-36.381-32.458-92.94 2.79-128.187z" fill="#D6948C"/><path d="M621.049 873.72c12.434 9.733 28.945 14.035 45.449 10.372 83.146-18.459 169.993-5.135 243.435 36.583 32.588 18.512 73.022-4.891 73.022-42.37V219.673c0-46.52-14.474-89.655-39.144-125.171L621.05 361.908z" fill="#FFDBE0"/><path d="M763.283 0H104.651c-37.48 0-60.883 40.434-42.37 73.022C104 146.466 117.326 233.313 98.868 316.46c-3.663 16.503.636 33.012 10.37 45.448H621.05L888.452 39.144C852.936 14.474 809.803 0 763.283 0z" fill="#FF8E9E"/><path d="M918.615 64.34a220.941 220.941 0 0 0-30.163-25.198L109.237 361.906c7.131 9.111 17.171 16.038 29.158 19.151a229.186 229.186 0 0 1 171.19 234.758c-.914 16.214 5.368 31.061 15.93 41.626 10.566 10.564 25.413 16.848 41.628 15.933A229.19 229.19 0 0 1 601.9 844.564a54.26 54.26 0 0 0 19.15 29.156L943.812 94.503a220.776 220.776 0 0 0-25.196-30.163z" fill="#FFB5C0"/><path d="M481.025 219.532c20.94-20.94 29.34-49.66 25.223-76.854a89.204 89.204 0 0 0-25.223-49.893c-35-35.001-91.748-35.001-126.747 0L227.531 219.532 354.278 346.28c35 35 91.748 34.999 126.747 0s35-91.748 0-126.75z" fill="#EFEDFF"/><path d="M354.278 92.785c-35-35.001-91.748-35.001-126.747 0-35 34.998-35 91.746 0 126.747-35 35-35 91.746 0 126.749a89.17 89.17 0 0 0 48.407 24.971c27.63 4.658 57.02-3.649 78.34-24.971-45.688-78.323-45.688-175.173 0-253.496z" fill="#D4D4FF"/><path d="M320.013 219.532a34.265 34.265 0 1 0 68.53 0 34.265 34.265 0 1 0-68.53 0z" fill="#FFB5C0"/><path d="M879.56 224.67c0-22.758-18.448-41.206-41.207-41.206s-41.206 18.448-41.206 41.206c-22.758 0-41.207 18.448-41.207 41.207s18.449 41.206 41.207 41.206c0 22.759 18.448 41.207 41.206 41.207s41.207-18.448 41.207-41.207c22.758 0 41.206-18.448 41.206-41.206s-18.448-41.207-41.206-41.207z" fill="#EFEDFF"/><path d="M814.721 265.877a23.632 23.632 0 1 0 47.264 0 23.632 23.632 0 1 0-47.264 0z" fill="#FFB5C0"/><path d="M780.664 636.735c0-22.758-18.448-41.206-41.206-41.206s-41.207 18.448-41.207 41.206c-22.758 0-41.206 18.448-41.206 41.207s18.448 41.206 41.206 41.206c0 22.759 18.448 41.207 41.207 41.207s41.206-18.448 41.206-41.207c22.759 0 41.207-18.448 41.207-41.206s-18.448-41.207-41.207-41.207z" fill="#EFEDFF"/><path d="M715.826 677.942a23.632 23.632 0 1 0 47.264 0 23.632 23.632 0 1 0-47.264 0z" fill="#FFB5C0"/><path d="M111.2 764.856c-12.588-9.66-17.66-26.9-11.3-42.255 7.594-18.337 28.618-27.044 46.955-19.45l181.733 75.277c18.335 7.609 27.042 28.618 19.45 46.953-7.595 18.336-28.619 27.043-46.956 19.451L119.35 769.556a36.235 36.235 0 0 1-8.148-4.7z" fill="#D4D4FF"/><path d="M233.102 886.756a36.058 36.058 0 0 1-4.697-8.147L153.13 696.876c-7.595-18.337 1.114-39.358 19.451-46.955 18.335-7.596 39.344 1.113 46.953 19.45l75.274 181.733c7.594 18.337-1.115 39.358-19.452 46.955-15.355 6.36-32.596 1.285-42.255-11.303z" fill="#EFEDFF"/><path d="m563.426 218.687-17.482 17.482a15.452 15.452 0 1 0 21.852 21.85l17.482-17.482a15.452 15.452 0 1 0-21.852-21.85zm203.813 181.958a15.457 15.457 0 0 0-21.854 0l-17.481 17.481a15.452 15.452 0 0 0 21.853 21.854l17.482-17.482a15.452 15.452 0 0 0 0-21.853zm-95.94-54.52c-17.872 1.231-32.731-13.566-31.5-31.499a15.452 15.452 0 0 0-14.358-16.474c-8.509-.594-15.889 5.84-16.474 14.358-2.51 36.563 27.79 66.944 64.447 64.447a15.452 15.452 0 0 0-2.116-30.833z" fill="#313D40"/></svg>