<?xml version="1.0" standalone="no"?><!DOCTYPE svg PUBLIC "-//W3C//DTD SVG 1.1//EN" "http://www.w3.org/Graphics/SVG/1.1/DTD/svg11.dtd"><svg t="1624436385614" class="icon" viewBox="0 0 1024 1024" version="1.1" xmlns="http://www.w3.org/2000/svg" p-id="18896" xmlns:xlink="http://www.w3.org/1999/xlink" width="200" height="200"><defs><style type="text/css"></style></defs><path d="M318.801269 902.558308c-22.620308-6.218061-38.416819-26.942869-38.416818-50.399669a61.892161 61.892161 0 0 0-2.305504-16.715416l-121.313993 16.715416c0 78.935169 53.156384 148.673048 129.266847 169.595648 32.915751 9.046887 66.933777-10.297504 75.982724-43.215316s-10.299564-66.931716-43.213256-75.980663z" fill="#D4D4FF" p-id="18897"></path><path d="M306.511431 947.603192c-42.677571-11.73149-72.484292-50.838518-72.484292-95.098418h-30.904874c0 58.130008 39.146174 109.489788 95.199375 124.896898a15.452437 15.452437 0 0 0 8.189791-29.79848z" fill="#9EA2E3" p-id="18898"></path><path d="M445.29492 460.225085L73.849237 852.271957l100.75607 100.756071a92.549797 92.549797 0 0 0 24.711538-17.667287l350.255241-370.85849z" fill="#E8B5B1" p-id="18899"></path><path d="M177.397048 824.844911l305.958254-326.561504-64.900236-64.900236-350.25524 370.858491c-36.208151 36.208151-36.208151 94.910929 0 131.12114 18.104075 18.102015 41.830777 27.155083 65.559539 27.155082 14.004029 0 27.999816-3.179081 40.848003-9.485736-33.379324-36.381218-32.458359-92.939198 2.78968-128.187237z" fill="#D6948C" p-id="18900"></path><path d="M621.048879 873.71994c12.434061 9.732975 28.945505 14.034934 45.448708 10.371675 83.146474-18.458451 169.993291-5.13433 243.435633 36.58313 32.58816 18.51202 73.022037-4.891211 73.022037-42.370582V219.673906c0-46.520077-14.473783-89.65504-39.144113-125.170921L621.048879 361.908439z" fill="#FFDBE0" p-id="18901"></path><path d="M763.283411 0H104.651095c-37.479371 0-60.882602 40.433877-42.370583 73.022037 41.71952 73.444403 55.045702 160.29122 36.58725 243.437694-3.663258 16.503203 0.63664 33.012587 10.369616 45.448708h511.813561L888.452273 39.144114C852.936391 14.473783 809.803488 0 763.283411 0z" fill="#FF8E9E" p-id="18902"></path><path d="M918.61543 64.339827a220.941006 220.941006 0 0 0-30.163157-25.197774l-779.214895 322.764325c7.130785 9.110757 17.170748 16.037569 29.157719 19.150721a229.186426 229.186426 0 0 1 171.190339 234.757545c-0.914784 16.214757 5.367146 31.061459 15.930432 41.626805 10.565346 10.563286 25.412048 16.847277 41.626806 15.932493a229.190547 229.190547 0 0 1 234.757545 171.190339 54.260718 54.260718 0 0 0 19.15072 29.155659L943.811144 94.502985a220.77618 220.77618 0 0 0-25.195714-30.163158z" fill="#FFB5C0" p-id="18903"></path><path d="M481.025075 219.531744c20.939082-20.939082 29.339027-49.660012 25.222498-76.854241a89.203829 89.203829 0 0 0-25.222498-49.892829c-35.0008-35.0008-91.74833-35.0008-126.74707 0l-126.74707 126.74707 126.74707 126.74913c35.0008 35.0008 91.74833 34.99874 126.74707 0s35.0008-91.74833 0-126.74913z" fill="#EFEDFF" p-id="18904"></path><path d="M354.278005 92.784674c-35.0008-35.0008-91.74833-35.0008-126.74707 0-35.0008 34.99874-35.0008 91.74627 0 126.74707-35.0008 35.0008-35.0008 91.74627 0 126.74913a89.170864 89.170864 0 0 0 48.407334 24.971138c27.628958 4.658395 57.019493-3.648835 78.339736-24.971138-45.687706-78.323253-45.687706-175.172948 0-253.4962z" fill="#D4D4FF" p-id="18905"></path><path d="M354.278005 219.531744m-34.265264 0a34.265264 34.265264 0 1 0 68.530528 0 34.265264 34.265264 0 1 0-68.530528 0Z" fill="#FFB5C0" p-id="18906"></path><path d="M879.55991 224.670194c0-22.758349-18.44815-41.206499-41.206499-41.206499s-41.206499 18.44815-41.206499 41.206499c-22.758349 0-41.206499 18.44815-41.206499 41.206499s18.44815 41.206499 41.206499 41.206499c0 22.758349 18.44815 41.206499 41.206499 41.206499s41.206499-18.44815 41.206499-41.206499c22.758349 0 41.206499-18.44815 41.206499-41.206499s-18.44815-41.206499-41.206499-41.206499z" fill="#EFEDFF" p-id="18907"></path><path d="M838.353411 265.876693m-23.631927 0a23.631927 23.631927 0 1 0 47.263854 0 23.631927 23.631927 0 1 0-47.263854 0Z" fill="#FFB5C0" p-id="18908"></path><path d="M780.664313 636.735183c0-22.758349-18.44815-41.206499-41.206499-41.206499s-41.206499 18.44815-41.206499 41.206499c-22.758349 0-41.206499 18.44815-41.206499 41.206499s18.44815 41.206499 41.206499 41.206499c0 22.758349 18.44815 41.206499 41.206499 41.206499s41.206499-18.44815 41.206499-41.206499c22.758349 0 41.206499-18.44815 41.206499-41.206499s-18.44815-41.206499-41.206499-41.206499z" fill="#EFEDFF" p-id="18909"></path><path d="M739.457814 677.941682m-23.631927 0a23.631927 23.631927 0 1 0 47.263854 0 23.631927 23.631927 0 1 0-47.263854 0Z" fill="#FFB5C0" p-id="18910"></path><path d="M111.200868 764.85649c-12.588585-9.660864-17.661105-26.899602-11.300883-42.255204 7.594358-18.336892 28.617914-27.043825 46.954806-19.449468l181.733022 75.276033c18.334832 7.60878 27.041765 28.617914 19.449467 46.952745-7.594358 18.336892-28.617914 27.043825-46.954805 19.451528l-181.733022-75.276033a36.234935 36.234935 0 0 1-8.148585-4.699601z" fill="#D4D4FF" p-id="18911"></path><path d="M233.102053 886.755616a36.057747 36.057747 0 0 1-4.697541-8.146525l-75.273971-181.733022c-7.594358-18.336892 1.114636-39.358387 19.451527-46.954806 18.334832-7.596418 39.343965 1.112575 46.952746 19.449467l75.273971 181.733023c7.594358 18.336892-1.114636 39.358387-19.451527 46.954805-15.355602 6.360223-32.596401 1.285643-42.255205-11.302942z" fill="#EFEDFF" p-id="18912"></path><path d="M563.425711 218.68701l-17.481858 17.481858a15.452437 15.452437 0 1 0 21.851807 21.849746l17.481857-17.481858a15.452437 15.452437 0 1 0-21.851806-21.849746zM767.239235 400.644608a15.456558 15.456558 0 0 0-21.853866 0l-17.481858 17.481857a15.452437 15.452437 0 0 0 21.853867 21.853867l17.481857-17.481857a15.452437 15.452437 0 0 0 0-21.853867zM671.298144 346.124289c-17.871259 1.232074-32.730322-13.565179-31.498248-31.498247a15.452437 15.452437 0 0 0-14.358404-16.474359c-8.509142-0.593374-15.889226 5.841021-16.474359 14.358405-2.509476 36.562526 27.789663 66.944078 64.446965 64.446964a15.452437 15.452437 0 0 0-2.115954-30.832763z" fill="#313D40" p-id="18913"></path></svg>