<?xml version="1.0" standalone="no"?><!DOCTYPE svg PUBLIC "-//W3C//DTD SVG 1.1//EN" "http://www.w3.org/Graphics/SVG/1.1/DTD/svg11.dtd"><svg t="1624436370491" class="icon" viewBox="0 0 1024 1024" version="1.1" xmlns="http://www.w3.org/2000/svg" p-id="18315" xmlns:xlink="http://www.w3.org/1999/xlink" width="200" height="200"><defs><style type="text/css"></style></defs><path d="M392.793626 611.494889H246.604748L29.875252 723.873223a55.359871 55.359871 0 0 0 0 98.287517l97.523122 50.567469H512V611.494889z" fill="#D4D4FF" p-id="18316"></path><path d="M994.124748 723.873223L777.395252 611.494889H512v261.23332h384.601626l97.523122-50.567469a55.357811 55.357811 0 0 0 0-98.287517z" fill="#EFEDFF" p-id="18317"></path><path d="M512 673.305755L127.398374 872.728209l192.299783 99.711228h208.483928a129.559694 129.559694 0 0 1-16.184145-62.738029V673.305755z" fill="#FF8E9E" p-id="18318"></path><path d="M896.601626 872.728209L512 673.305755v236.395653a129.559694 129.559694 0 0 0 16.184145 62.738029h176.115638z" fill="#FFB5C0" p-id="18319"></path><path d="M512 872.728209l-16.103791 16.103791v130.352934h76.243702a380.763171 380.763171 0 0 0 115.161884-37.931268l16.997988-8.814229z" fill="#EFEDFF" p-id="18320"></path><path d="M512 909.701408V872.728209l-192.299783 99.711228 16.995928 8.812169A380.802318 380.802318 0 0 0 512 1024c20.208032 0 40.313046-1.642109 60.139911-4.815066-37.098881-23.582905-60.139911-64.707734-60.139911-109.483526z" fill="#D4D4FF" p-id="18321"></path><path d="M512 506.849095v290.778913c0 55.609175 45.080724 100.689899 100.689899 100.689899h20.113256c79.81637 0 150.676346-51.074318 175.915783-126.792627L869.472837 589.263581v-82.414486z" fill="#E8B5B1" p-id="18322"></path><path d="M553.207243 784.019316V506.849095H154.527163v82.414486l60.753899 182.259638c25.239437 75.72037 96.101473 126.794688 175.915783 126.794688h230.358793c-41.885103-22.495034-68.348394-66.306575-68.348395-114.298591z" fill="#D6948C" p-id="18323"></path><path d="M154.527163 280.209256c-85.342262 0-154.527163 69.182841-154.527163 154.527163 0 85.342262 69.184901 154.527163 154.527163 154.527162h398.68008V280.209256z" fill="#E8B5B1" p-id="18324"></path><path d="M869.472837 280.209256H553.207243c-85.342262 0-154.527163 69.184901-154.527163 154.527163s69.184901 154.527163 154.527163 154.527162H869.472837c85.342262 0 154.527163-69.186962 154.527163-154.527162 0-85.344322-69.182841-154.527163-154.527163-154.527163z" fill="#F2D4D3" p-id="18325"></path><path d="M512 0c-34.138141 0-61.810865 27.672724-61.810865 61.810865v290.511067c0 34.138141 27.672724 61.810865 61.810865 61.810865s61.810865-27.672724 61.810865-61.810865V61.810865c0-34.138141-27.672724-61.810865-61.810865-61.810865z" fill="#D6948C" p-id="18326"></path><path d="M807.661972 527.452716c0-34.13608 27.672724-61.810865 61.810865-61.810865s61.810865 27.674785 61.810865 61.810865c34.138141 0 61.810865 27.674785 61.810865 61.810865s-27.672724 61.810865-61.810865 61.810866c0 34.13608-27.672724 61.810865-61.810865 61.810865s-61.810865-27.674785-61.810865-61.810865c-34.138141 0-61.810865-27.674785-61.810865-61.810866s27.674785-61.810865 61.810865-61.810865z" fill="#FF8E9E" p-id="18327"></path><path d="M869.472837 589.263581m-30.905433 0a30.905433 30.905433 0 1 0 61.810866 0 30.905433 30.905433 0 1 0-61.810866 0Z" fill="#FFB5C0" p-id="18328"></path><path d="M264.241449 239.002012c0-22.758761 18.448483-41.207243 41.207243-41.207243s41.207243 18.448483 41.207244 41.207243c22.758761 0 41.207243 18.448483 41.207243 41.207244s-18.448483 41.207243-41.207243 41.207243c0 22.758761-18.448483 41.207243-41.207244 41.207243s-41.207243-18.448483-41.207243-41.207243c-22.758761 0-41.207243-18.448483-41.207244-41.207243s18.448483-41.207243 41.207244-41.207244z" fill="#FF8E9E" p-id="18329"></path><path d="M305.448692 280.209256m-23.179074 0a23.179074 23.179074 0 1 0 46.358149 0 23.179074 23.179074 0 1 0-46.358149 0Z" fill="#FFB5C0" p-id="18330"></path><path d="M347.218414 682.286873c-33.600386-0.074173-60.887823 21.55963-60.945513 48.317554s27.132909 48.509167 60.733296 48.58334 60.887823-21.557569 60.945513-48.315493-27.130849-48.511227-60.733296-48.585401zM676.991742 683.01006c-33.600386-0.074173-60.887823 21.55963-60.945513 48.317554-0.059751 26.757924 27.132909 48.509167 60.733296 48.58334s60.887823-21.55963 60.945513-48.317554c0.059751-26.759984-27.130849-48.511227-60.733296-48.58334z" fill="#FFDBE0" p-id="18331"></path><path d="M383.155252 654.471984a15.452716 15.452716 0 0 0-15.452717 15.452716v24.724346c0 8.53402 6.916636 15.452716 15.452717 15.452717s15.452716-6.918696 15.452716-15.452717v-24.724346a15.452716 15.452716 0 0 0-15.452716-15.452716zM640.488306 654.471984a15.452716 15.452716 0 0 0-15.452716 15.452716v24.724346c0 8.53402 6.916636 15.452716 15.452716 15.452717s15.452716-6.918696 15.452716-15.452717v-24.724346a15.452716 15.452716 0 0 0-15.452716-15.452716zM571.764926 693.938221a15.452716 15.452716 0 0 0-15.452717 15.452717c0 7.901489-6.42833 14.331879-14.329819 14.331879a14.346302 14.346302 0 0 1-14.331879-14.331879c0-8.53402-6.916636-15.452716-15.452716-15.452717s-15.452716 6.918696-15.452717 15.452717c0 7.901489-6.42833 14.331879-14.329818 14.331879a14.346302 14.346302 0 0 1-14.33188-14.331879c0-8.53402-6.916636-15.452716-15.452716-15.452717s-15.452716 6.918696-15.452716 15.452717c0 38.79662 45.900748 59.542406 75.019847 34.004217 29.100555 25.517586 75.019847 4.815066 75.019847-34.004217a15.452716 15.452716 0 0 0-15.452716-15.452717z" fill="#313D40" p-id="18332"></path></svg>