<svg class="icon" viewBox="0 0 1024 1024" xmlns="http://www.w3.org/2000/svg" width="200" height="200"><path d="M392.794 611.495h-146.19L29.876 723.873a55.36 55.36 0 0 0 0 98.288l97.523 50.567H512V611.495z" fill="#D4D4FF"/><path d="m994.125 723.873-216.73-112.378H512v261.233h384.602l97.523-50.567a55.358 55.358 0 0 0 0-98.288z" fill="#EFEDFF"/><path d="M512 673.306 127.398 872.728l192.3 99.711h208.484a129.56 129.56 0 0 1-16.184-62.738V673.306z" fill="#FF8E9E"/><path d="M896.602 872.728 512 673.306V909.7a129.56 129.56 0 0 0 16.184 62.738H704.3z" fill="#FFB5C0"/><path d="m512 872.728-16.104 16.104v130.353h76.244a380.763 380.763 0 0 0 115.162-37.931l16.998-8.815z" fill="#EFEDFF"/><path d="M512 909.701v-36.973L319.7 972.44l16.996 8.813A380.802 380.802 0 0 0 512 1024c20.208 0 40.313-1.642 60.14-4.815C535.04 995.602 512 954.477 512 909.7z" fill="#D4D4FF"/><path d="M512 506.85v290.778c0 55.61 45.08 100.69 100.69 100.69h20.113c79.817 0 150.677-51.074 175.916-126.793l60.754-182.261v-82.415z" fill="#E8B5B1"/><path d="M553.207 784.02V506.85h-398.68v82.414l60.754 182.26c25.24 75.72 96.102 126.794 175.916 126.794h230.359c-41.885-22.495-68.349-66.307-68.349-114.299z" fill="#D6948C"/><path d="M154.527 280.21C69.185 280.21 0 349.391 0 434.735c0 85.343 69.185 154.528 154.527 154.528h398.68V280.209z" fill="#E8B5B1"/><path d="M869.473 280.21H553.207c-85.342 0-154.527 69.184-154.527 154.526s69.185 154.528 154.527 154.528h316.266c85.342 0 154.527-69.187 154.527-154.528 0-85.344-69.183-154.527-154.527-154.527z" fill="#F2D4D3"/><path d="M512 0c-34.138 0-61.81 27.673-61.81 61.81v290.512c0 34.138 27.672 61.81 61.81 61.81s61.81-27.672 61.81-61.81V61.81C573.81 27.673 546.139 0 512 0z" fill="#D6948C"/><path d="M807.662 527.453c0-34.136 27.673-61.811 61.81-61.811s61.812 27.675 61.812 61.81c34.138 0 61.81 27.676 61.81 61.812s-27.672 61.81-61.81 61.81c0 34.137-27.673 61.811-61.811 61.811s-61.811-27.674-61.811-61.81c-34.138 0-61.81-27.675-61.81-61.811s27.674-61.811 61.81-61.811z" fill="#FF8E9E"/><path d="M838.567 589.264a30.905 30.905 0 1 0 61.811 0 30.905 30.905 0 1 0-61.81 0z" fill="#FFB5C0"/><path d="M264.241 239.002c0-22.759 18.449-41.207 41.208-41.207s41.207 18.448 41.207 41.207c22.759 0 41.207 18.448 41.207 41.207s-18.448 41.207-41.207 41.207c0 22.76-18.449 41.208-41.207 41.208s-41.208-18.449-41.208-41.208c-22.758 0-41.207-18.448-41.207-41.207s18.449-41.207 41.207-41.207z" fill="#FF8E9E"/><path d="M282.269 280.21a23.18 23.18 0 1 0 46.359 0 23.18 23.18 0 1 0-46.358 0z" fill="#FFB5C0"/><path d="M347.218 682.287c-33.6-.074-60.887 21.56-60.945 48.317s27.133 48.51 60.733 48.584 60.888-21.558 60.946-48.316-27.131-48.511-60.734-48.585zm329.774.723c-33.6-.074-60.888 21.56-60.946 48.318-.06 26.758 27.133 48.509 60.734 48.583s60.887-21.56 60.945-48.318c.06-26.76-27.13-48.51-60.733-48.583z" fill="#FFDBE0"/><path d="M383.155 654.472a15.453 15.453 0 0 0-15.452 15.453v24.724c0 8.534 6.916 15.453 15.452 15.453s15.453-6.919 15.453-15.453v-24.724a15.453 15.453 0 0 0-15.453-15.453zm257.333 0a15.453 15.453 0 0 0-15.452 15.453v24.724c0 8.534 6.916 15.453 15.452 15.453s15.453-6.919 15.453-15.453v-24.724a15.453 15.453 0 0 0-15.453-15.453zm-68.723 39.466a15.453 15.453 0 0 0-15.453 15.453c0 7.901-6.428 14.332-14.33 14.332a14.346 14.346 0 0 1-14.331-14.332c0-8.534-6.917-15.453-15.453-15.453s-15.453 6.919-15.453 15.453c0 7.901-6.428 14.332-14.33 14.332a14.346 14.346 0 0 1-14.332-14.332c0-8.534-6.916-15.453-15.452-15.453s-15.453 6.919-15.453 15.453c0 38.797 45.9 59.542 75.02 34.004 29.1 25.518 75.02 4.815 75.02-34.004a15.453 15.453 0 0 0-15.453-15.453z" fill="#313D40"/></svg>