<?xml version="1.0" standalone="no"?><!DOCTYPE svg PUBLIC "-//W3C//DTD SVG 1.1//EN" "http://www.w3.org/Graphics/SVG/1.1/DTD/svg11.dtd"><svg t="1624436363187" class="icon" viewBox="0 0 1024 1024" version="1.1" xmlns="http://www.w3.org/2000/svg" p-id="18036" xmlns:xlink="http://www.w3.org/1999/xlink" width="200" height="200"><defs><style type="text/css"></style></defs><path d="M635.62173 1024h-247.24346V61.810865c0-34.138141 27.672724-61.810865 61.810865-61.810865h123.62173c34.138141 0 61.810865 27.672724 61.810865 61.810865z" fill="#CE857A" p-id="18037"></path><path d="M588.668137 102.40206h-329.657948c-51.206181 0-92.716298 41.510117-92.716298 92.716298v144.225352c0 51.206181 41.510117 92.716298 92.716298 92.716298H635.62173v-329.657948z" fill="#FFB5C0" p-id="18038"></path><path d="M993.828056 194.38693l-61.810865-61.810866a103.018109 103.018109 0 0 0-72.844104-30.174004H635.62173c-51.206181 0-92.716298 41.510117-92.716297 92.716298v144.225352c0 51.206181 41.510117 92.716298 92.716297 92.716298H859.171026a103.011928 103.011928 0 0 0 72.844105-30.174004l61.810865-61.810865c40.232692-40.230632 40.232692-105.457577 0.00206-145.688209z" fill="#FFDBE0" p-id="18039"></path><path d="M764.989811 524.776306H485.786012a138.161706 138.161706 0 0 0-97.700314 40.469634L263.726358 689.60528l124.35934 124.35934a138.174068 138.174068 0 0 0 97.700314 40.469634h279.203799c51.206181 0 92.716298-41.510117 92.716298-92.716298v-144.225352c0-51.206181-41.510117-92.716298-92.716298-92.716298z" fill="#B0EBD8" p-id="18040"></path><path d="M359.831952 762.449384c-40.230632-40.230632-40.230632-105.457577 0-145.690269l61.810865-61.810866A103.016048 103.016048 0 0 1 494.486922 524.774245H164.828974a103.011928 103.011928 0 0 0-72.844105 30.174004l-61.810865 61.810866c-40.230632 40.230632-40.230632 105.459638 0 145.690269l61.810865 61.810865A103.018109 103.018109 0 0 0 164.828974 854.434254h329.657948a103.011928 103.011928 0 0 1-72.844105-30.174005z" fill="#70DCBA" p-id="18041"></path><path d="M441.85703 299.811541a63.529207 50.592193 0 1 0 127.058415 0 63.529207 50.592193 0 1 0-127.058415 0Z" fill="#FF8E9E" p-id="18042"></path><path d="M849.734567 249.219348c-35.085907 0-63.527147 22.651622-63.527146 50.592193s28.4433 50.592193 63.527146 50.592193c35.085907 0 63.529207-22.651622 63.529208-50.592193s-28.441239-50.592193-63.529208-50.592193z" fill="#FF8E9E" p-id="18043"></path><path d="M542.410946 232.973392a15.450656 15.450656 0 0 0-15.452717 15.452717v24.724346c0 8.53608 6.916636 15.452716 15.452717 15.452716s15.452716-6.916636 15.452716-15.452716v-24.724346a15.452716 15.452716 0 0 0-15.452716-15.452717zM723.345771 261.350761a15.452716 15.452716 0 0 0-21.802753 1.497883c-6.053344 6.947541-14.797521 10.934342-23.982616 10.934342s-17.927211-3.986801-23.982615-10.934342a15.454777 15.454777 0 0 0-23.300636 20.304869c11.925376 13.684926 29.158245 21.532845 47.281191 21.532845s35.355815-7.84998 47.281191-21.532845a15.452716 15.452716 0 0 0-1.493762-21.802752zM817.485779 228.358181c-24.320515 0-44.104113 19.785658-44.104113 44.104113 0 8.53608 6.916636 15.452716 15.452716 15.452716s15.452716-6.916636 15.452717-15.452716c0-7.277199 5.921481-13.19868 13.19868-13.19868s13.19868 5.921481 13.19868 13.19868c0 8.53608 6.916636 15.452716 15.452716 15.452716s15.452716-6.916636 15.452716-15.452716c0-24.318455-19.785658-44.104113-44.104112-44.104113z" fill="#313D40" p-id="18044"></path><path d="M228.782616 677.71699c-33.600386-0.074173-60.887823 21.55963-60.945513 48.317553s27.132909 48.509167 60.733295 48.58334 60.887823-21.557569 60.945513-48.315493c0.05769-26.762044-27.132909-48.513288-60.733295-48.5854zM558.555944 678.438117c-33.600386-0.074173-60.887823 21.55963-60.945513 48.317553-0.059751 26.757924 27.132909 48.509167 60.733295 48.58334s60.887823-21.557569 60.945513-48.317553c0.05769-26.757924-27.132909-48.509167-60.733295-48.58334z" fill="#FF8E9E" p-id="18045"></path><path d="M264.719453 649.902101a15.452716 15.452716 0 0 0-15.452717 15.452716v24.724346c0 8.53402 6.916636 15.452716 15.452717 15.452716s15.452716-6.918696 15.452716-15.452716v-24.724346a15.452716 15.452716 0 0 0-15.452716-15.452716zM522.050447 649.902101a15.452716 15.452716 0 0 0-15.452717 15.452716v24.724346c0 8.53402 6.916636 15.452716 15.452717 15.452716s15.452716-6.918696 15.452716-15.452716v-24.724346a15.452716 15.452716 0 0 0-15.452716-15.452716zM453.327066 689.368338a15.452716 15.452716 0 0 0-15.452716 15.452716 14.348362 14.348362 0 0 1-14.331879 14.33188 14.346302 14.346302 0 0 1-14.329819-14.33188c0-8.53402-6.916636-15.452716-15.452716-15.452716s-15.452716 6.918696-15.452717 15.452716a14.348362 14.348362 0 0 1-14.331879 14.33188 14.346302 14.346302 0 0 1-14.329819-14.33188c0-8.53402-6.916636-15.452716-15.452716-15.452716s-15.452716 6.918696-15.452716 15.452716c0 24.942744 20.292507 45.237312 45.235251 45.237312 11.399984 0 21.819235-4.248467 29.784596-11.231034a45.031276 45.031276 0 0 0 29.782535 11.231034c24.942744 0 45.237312-20.292507 45.237312-45.237312 0-8.53608-6.916636-15.452716-15.452717-15.452716z" fill="#313D40" p-id="18046"></path><path d="M305.89167 61.810865c0-34.13608 27.672724-61.810865 61.810865-61.810865s61.810865 27.674785 61.810865 61.810865c34.138141 0 61.810865 27.674785 61.810866 61.810865s-27.672724 61.810865-61.810866 61.810866c0 34.13608-27.672724 61.810865-61.810865 61.810865s-61.810865-27.674785-61.810865-61.810865c-34.138141 0-61.810865-27.674785-61.810865-61.810866s27.672724-61.810865 61.810865-61.810865z" fill="#FF8E9E" p-id="18047"></path><path d="M367.702535 123.62173m-30.905432 0a30.905433 30.905433 0 1 0 61.810865 0 30.905433 30.905433 0 1 0-61.810865 0Z" fill="#FFB5C0" p-id="18048"></path><path d="M734.084378 730.812523c0-34.13608 27.672724-61.810865 61.810865-61.810865s61.810865 27.674785 61.810866 61.810865c34.138141 0 61.810865 27.674785 61.810865 61.810865s-27.672724 61.810865-61.810865 61.810866c0 34.13608-27.672724 61.810865-61.810866 61.810865s-61.810865-27.674785-61.810865-61.810865c-34.138141 0-61.810865-27.674785-61.810865-61.810866s27.674785-61.810865 61.810865-61.810865z" fill="#FFB5C0" p-id="18049"></path><path d="M795.895243 792.623388m-30.905432 0a30.905433 30.905433 0 1 0 61.810865 0 30.905433 30.905433 0 1 0-61.810865 0Z" fill="#FFDBE0" p-id="18050"></path></svg>