<svg class="icon" viewBox="0 0 1024 1024" xmlns="http://www.w3.org/2000/svg" width="200" height="200"><path d="M635.622 1024H388.378V61.81C388.378 27.674 416.051 0 450.19 0h123.622c34.138 0 61.81 27.673 61.81 61.81z" fill="#CE857A"/><path d="M588.668 102.402H259.01c-51.206 0-92.716 41.51-92.716 92.716v144.226c0 51.206 41.51 92.716 92.716 92.716h376.612V102.402z" fill="#FFB5C0"/><path d="m993.828 194.387-61.81-61.81a103.018 103.018 0 0 0-72.845-30.175H635.622c-51.206 0-92.717 41.51-92.717 92.716v144.226c0 51.206 41.51 92.716 92.717 92.716H859.17a103.012 103.012 0 0 0 72.844-30.174l61.811-61.81c40.233-40.231 40.233-105.458.002-145.69z" fill="#FFDBE0"/><path d="M764.99 524.776H485.786a138.162 138.162 0 0 0-97.7 40.47l-124.36 124.36 124.36 124.359a138.174 138.174 0 0 0 97.7 40.47H764.99c51.206 0 92.716-41.51 92.716-92.717V617.493c0-51.207-41.51-92.717-92.716-92.717z" fill="#B0EBD8"/><path d="M359.832 762.45c-40.23-40.231-40.23-105.458 0-145.69l61.81-61.812a103.016 103.016 0 0 1 72.845-30.174H164.829a103.012 103.012 0 0 0-72.844 30.174L30.174 616.76c-40.23 40.23-40.23 105.46 0 145.69l61.81 61.811a103.018 103.018 0 0 0 72.845 30.174h329.658a103.012 103.012 0 0 1-72.844-30.174z" fill="#70DCBA"/><path d="M441.857 299.812a63.53 50.592 0 1 0 127.058 0 63.53 50.592 0 1 0-127.058 0zM849.735 249.22c-35.086 0-63.528 22.651-63.528 50.592s28.444 50.592 63.528 50.592c35.085 0 63.529-22.652 63.529-50.592s-28.441-50.593-63.53-50.593z" fill="#FF8E9E"/><path d="M542.41 232.973a15.45 15.45 0 0 0-15.452 15.453v24.724c0 8.537 6.917 15.453 15.453 15.453s15.453-6.916 15.453-15.453v-24.724a15.453 15.453 0 0 0-15.453-15.453zm180.936 28.378a15.453 15.453 0 0 0-21.803 1.498c-6.053 6.947-14.798 10.934-23.983 10.934s-17.927-3.987-23.982-10.934a15.455 15.455 0 0 0-23.3 20.305c11.925 13.684 29.157 21.532 47.28 21.532s35.356-7.85 47.282-21.532a15.453 15.453 0 0 0-1.494-21.803zm94.14-32.993c-24.32 0-44.104 19.786-44.104 44.104 0 8.536 6.916 15.453 15.452 15.453s15.453-6.917 15.453-15.453c0-7.277 5.922-13.198 13.199-13.198s13.198 5.921 13.198 13.198c0 8.536 6.917 15.453 15.453 15.453s15.453-6.917 15.453-15.453c0-24.318-19.786-44.104-44.104-44.104z" fill="#313D40"/><path d="M228.783 677.717c-33.6-.074-60.888 21.56-60.946 48.318s27.133 48.509 60.733 48.583 60.888-21.558 60.946-48.316c.058-26.762-27.133-48.513-60.733-48.585zm329.773.721c-33.6-.074-60.888 21.56-60.946 48.318-.06 26.758 27.133 48.509 60.734 48.583s60.888-21.558 60.945-48.318c.058-26.757-27.133-48.509-60.733-48.583z" fill="#FF8E9E"/><path d="M264.72 649.902a15.453 15.453 0 0 0-15.453 15.453v24.724c0 8.534 6.916 15.453 15.452 15.453s15.453-6.919 15.453-15.453v-24.724a15.453 15.453 0 0 0-15.453-15.453zm257.33 0a15.453 15.453 0 0 0-15.452 15.453v24.724c0 8.534 6.916 15.453 15.452 15.453s15.453-6.919 15.453-15.453v-24.724a15.453 15.453 0 0 0-15.453-15.453zm-68.723 39.466a15.453 15.453 0 0 0-15.453 15.453 14.348 14.348 0 0 1-14.332 14.332 14.346 14.346 0 0 1-14.33-14.332c0-8.534-6.916-15.453-15.452-15.453s-15.453 6.919-15.453 15.453a14.348 14.348 0 0 1-14.332 14.332 14.346 14.346 0 0 1-14.33-14.332c0-8.534-6.916-15.453-15.452-15.453s-15.453 6.919-15.453 15.453c0 24.943 20.293 45.237 45.235 45.237 11.4 0 21.82-4.248 29.785-11.23a45.031 45.031 0 0 0 29.782 11.23c24.943 0 45.238-20.292 45.238-45.237 0-8.536-6.917-15.453-15.453-15.453z" fill="#313D40"/><path d="M305.892 61.81c0-34.135 27.672-61.81 61.81-61.81s61.811 27.675 61.811 61.81c34.139 0 61.811 27.676 61.811 61.812s-27.672 61.81-61.81 61.81c0 34.137-27.673 61.811-61.811 61.811s-61.811-27.674-61.811-61.81c-34.138 0-61.811-27.675-61.811-61.811s27.673-61.811 61.81-61.811z" fill="#FF8E9E"/><path d="M336.79699999999997 123.622a30.905 30.905 0 1 0 61.811 0 30.905 30.905 0 1 0-61.81 0zM734.084 730.813c0-34.137 27.673-61.811 61.811-61.811s61.811 27.674 61.811 61.81c34.138 0 61.811 27.675 61.811 61.811s-27.673 61.811-61.81 61.811c0 34.136-27.674 61.811-61.812 61.811s-61.81-27.675-61.81-61.81c-34.139 0-61.811-27.676-61.811-61.812s27.674-61.81 61.81-61.81z" fill="#FFB5C0"/><path d="M764.99 792.623a30.905 30.905 0 1 0 61.81 0 30.905 30.905 0 1 0-61.81 0z" fill="#FFDBE0"/></svg>