<svg class="icon" viewBox="0 0 1024 1024" xmlns="http://www.w3.org/2000/svg" width="200" height="200"><path d="M905.936 350.691c-5.647-53.707-55.648-92.12-108.869-84.103a94.397 94.397 0 0 0-35.906-25.023c20.645-42.561 7.939-99.629-38.891-125.806-5.646-53.707-55.652-92.127-108.865-84.108h-115.89v473.986L665.76 613.983c35.57 27.268 95.15 29.042 131.86-12.159 53.34 7.863 103.444-30.862 108.82-84.682 64.124-36.333 63.858-130.47-.504-166.45z" fill="#FFB5C0"/><path d="M626.354 514.533c-86.457-9.292-112.831-122.9-41.932-173.733-79.545-15.943-103.647-118.364-39.625-168.28-32.727-57.758 2.69-131.018 68.608-140.869C583.825-1.455 535.62-9.317 497.029 11.52 458.892-8.973 410.433-1.624 380.62 31.981c-53.268-7.834-103.3 30.831-108.622 84.718-45.456 25.569-58.897 81.847-38.269 124.717a94.255 94.255 0 0 0-36.773 25.501c-53.225-7.825-103.33 30.78-108.629 84.774-31.844 18.098-47.664 50.643-47.664 82.931 0 32.42 16.098 64.823 48.093 82.841 5.516 53.905 55.68 92.4 108.822 84.483 37.177 41.586 101.592 43.741 141.468 4.751l71.695-15.49c25.717 21.327 63.525 19.232 86.726-4.81 21.764 27.656 56.34 31.805 92.286 11.397h50.872z" fill="#FF8E9E"/><path d="M236.474 182.125c16.092-16.091 42.184-16.093 58.276 0s16.091 42.184 0 58.275c16.093 16.094 16.091 42.184 0 58.276s-42.184 16.093-58.276 0c-16.09 16.091-42.183 16.093-58.275 0-16.093-16.094-16.091-42.184 0-58.276-16.093-16.093-16.091-42.183 0-58.275s42.182-16.093 58.275 0z" fill="#FFB5C0"/><path d="M212.84199999999998 240.4a23.632 23.632 0 1 0 47.265 0 23.632 23.632 0 1 0-47.265 0zM859.716 505.523c0-22.758 18.449-41.207 41.208-41.207s41.207 18.449 41.207 41.207c22.758 0 41.207 18.449 41.207 41.207s-18.449 41.208-41.207 41.208c0 22.758-18.449 41.207-41.207 41.207s-41.208-18.449-41.208-41.207c-22.758 0-41.207-18.449-41.207-41.208s18.45-41.207 41.207-41.207z" fill="#FFDBE0"/><path d="M877.291 546.73a23.632 23.632 0 1 0 47.265 0 23.632 23.632 0 1 0-47.265 0z" fill="#FFB5C0"/><path d="M739.987 530.987c-10.067-18.96-33.596-26.168-52.56-16.104l-41.837 22.213-22.213-41.837c-10.067-18.962-33.6-26.17-52.56-16.104-18.961 10.067-26.17 33.598-16.104 52.56l35.037 66.08-17.324 56.678c-11.954 39.019-51.985 62.272-91.929 53.414L441.8 728.62v248.755L480.67 1024H657.99c0-22.874-12.435-42.833-30.906-53.522V768.417a180.448 180.448 0 0 1 7.918-52.865l30.761-101.57 58.123-30.435c18.958-10.067 26.169-33.598 16.102-52.56z" fill="#D6948C"/><path d="M480.497 1023.829a43.478 43.478 0 0 1-12.784-30.784V738.671a43.474 43.474 0 0 1 12.784-30.784c-26.91-5.97-49.063-26.049-57.894-53.414L383.53 534.44l35.082-66.073c10.067-18.962 2.858-42.491-16.104-52.56-18.959-10.063-42.49-2.858-52.557 16.104l-22.215 41.837-41.838-22.212c-18.961-10.067-42.495-2.856-52.56 16.103-10.066 18.962-2.857 42.493 16.104 52.56l57.847 30.712 52.741 164.643c5.444 17.072 7.918 34.95 7.918 52.865V970.48c-18.47 10.69-30.905 30.646-30.905 53.522h143.625z" fill="#CE857A"/><path d="m399.533 774.738-65.558-65.56c-42.711 42.708-62.104 102.723-54.464 160.62 1.2 9.136 5.036 17.324 10.64 23.948h52.677l27.539-41.613c-1.203-27.415 9.366-57.595 29.166-77.395z" fill="#D4D4FF"/><path d="M467.748 816.203c-1.756 0-3.53-.15-5.316-.46-46.583-8.074-88.95-32.323-119.295-68.274-11.008-13.044-9.36-32.541 3.684-43.552 13.042-11.012 32.541-9.358 43.552 3.682 20.989 24.864 50.33 41.642 82.62 47.242 16.817 2.915 28.087 18.912 25.172 35.73-2.609 15.031-15.667 25.632-30.417 25.632z" fill="#EFEDFF"/><path d="M460.712 573.972h-72.904v159.89h32.966a92.259 92.259 0 0 0 44.322-24.687c37.585-37.583 36.186-99.492-4.384-135.203z" fill="#EFEDFF"/><path d="M416.39 598.66a92.259 92.259 0 0 1 44.322-24.688c-36.417-32.048-91.952-30.7-126.737 4.084-36.209 36.209-36.209 94.913 0 131.121 23.546 23.546 56.6 31.763 86.799 24.687a94.73 94.73 0 0 1-4.385-4.083c-36.209-36.209-36.209-94.913 0-131.121z" fill="#D4D4FF"/><path d="M370.369 852.133c-30.75-9.098-65.4 12.694-80.218 41.613a47.673 47.673 0 0 0 36.39 16.875h20.746c11.474 0 20.605 9.345 20.663 20.817.087 17.493 14.703 31.549 32.4 30.716 17.11-.805 29.81-15.827 29.384-32.953-.909-36.436-25.866-67.158-59.365-77.068zM862.401 59.63h-61.81l-71.703 119.975L800.59 299.58h61.811c42.684-22.993 71.7-68.093 71.7-119.975 0-51.883-29.016-96.98-71.7-119.974z" fill="#EFEDFF"/><path d="M797.906 223.312a135.675 135.675 0 0 1-7.208-43.707 135.91 135.91 0 0 1 7.208-43.706c11.123-32.83 34.391-60.053 64.495-76.268-19.198-10.343-41.158-16.221-64.493-16.221-75.22 0-136.196 60.976-136.196 136.195s60.976 136.196 136.196 136.196c23.335 0 45.295-5.878 64.493-16.22-30.092-16.21-53.367-43.458-64.495-76.27z" fill="#D4D4FF"/><path d="m841.612 179.605 16.264-16.264c12.07-12.07 12.07-31.637 0-43.706-12.067-12.07-31.636-12.07-43.706 0l-16.264 16.264-43.707 43.706 43.707 43.707 16.264 16.264c6.035 6.035 13.945 9.054 21.852 9.054s15.82-3.017 21.852-9.054c12.07-12.07 12.07-31.636 0-43.706z" fill="#FF8E9E"/><path d="m797.906 135.9-16.265-16.265c-12.067-12.07-31.637-12.07-43.706 0s-12.07 31.636 0 43.706l16.264 16.264-16.264 16.265c-12.07 12.07-12.07 31.637 0 43.706 6.035 6.035 13.944 9.054 21.852 9.054s15.82-3.017 21.852-9.054l16.265-16.264a135.675 135.675 0 0 1-7.208-43.707 136.023 136.023 0 0 1 7.21-43.706z" fill="#EA5B70"/><path d="M281.178 358.214a54.958 43.766 0 1 0 109.916 0 54.958 43.766 0 1 0-109.916 0zM603.937 358.471a54.958 43.766 0 1 0 109.916 0 54.958 43.766 0 1 0-109.916 0z" fill="#FFDBE0"/><path d="M387.769 300.796h-.013a15.453 15.453 0 0 0-15.452 15.442l-.019 24.469a15.453 15.453 0 0 0 15.44 15.463h.013a15.453 15.453 0 0 0 15.452-15.442l.019-24.47a15.45 15.45 0 0 0-15.44-15.462zm219.638.255h-.012a15.453 15.453 0 0 0-15.453 15.443l-.019 24.468a15.453 15.453 0 0 0 15.44 15.463h.013a15.453 15.453 0 0 0 15.453-15.442l.018-24.469a15.453 15.453 0 0 0-15.44-15.463zm-75.46 26.993-68.771-.06h-.015a15.453 15.453 0 0 0-.014 30.906l68.77.06h.015a15.453 15.453 0 0 0 .014-30.906z" fill="#313D40"/></svg>