<?xml version="1.0" standalone="no"?><!DOCTYPE svg PUBLIC "-//W3C//DTD SVG 1.1//EN" "http://www.w3.org/Graphics/SVG/1.1/DTD/svg11.dtd"><svg t="1624436429502" class="icon" viewBox="0 0 1024 1024" version="1.1" xmlns="http://www.w3.org/2000/svg" p-id="20789" xmlns:xlink="http://www.w3.org/1999/xlink" width="200" height="200"><defs><style type="text/css"></style></defs><path d="M905.936358 350.691439c-5.647442-53.707356-55.648213-92.120673-108.869325-84.10382a94.397369 94.397369 0 0 0-35.905861-25.02305c20.644789-42.560818 7.93856-99.628618-38.891321-125.805468-5.645381-53.707356-55.652334-92.126854-108.865204-84.107941H497.515682v473.985393l168.244726 108.345994c35.570023 27.26884 95.1494 29.042809 131.858801-12.158174 53.340612 7.862327 103.444402-30.862105 108.819876-84.68278 64.124527-36.332356 63.858741-130.47012-0.502727-166.450154z" fill="#FFB5C0" p-id="20790"></path><path d="M626.353998 514.533179c-86.456749-9.292215-112.831393-122.900364-41.932409-173.73352-79.544247-15.943051-103.646317-118.363455-39.624808-168.279752-32.726729-57.75802 2.690828-131.018175 68.607866-140.868747C583.824085-1.454675 535.619946-9.317001 497.029438 11.519401c-38.137229-20.492322-86.596853-13.143025-116.410236 20.461416-53.2685-7.833482-103.300177 30.831199-108.622082 84.717807-45.455622 25.569045-58.897398 81.847728-38.269092 124.7176a94.255204 94.255204 0 0 0-36.773272 25.501052c-53.225232-7.82524-103.329022 30.77969-108.628263 84.773437-31.844896 18.098186-47.664325 50.643603-47.664326 82.931476 0 32.419736 16.097578 64.822988 48.09288 82.84082 5.515579 53.90515 55.679119 92.400882 108.821937 84.482925 37.177102 41.586269 101.59214 43.741404 141.468311 4.751186l71.694283-15.489772c25.71739 21.326767 63.524963 19.231383 86.726656-4.810937 21.763563 27.656187 56.340494 31.805749 92.285502 11.397902h50.872303z" fill="#FF8E9E" p-id="20791"></path><path d="M236.474485 182.125297c16.091397-16.091397 42.183773-16.093458 58.27517 0s16.091397 42.183773 0 58.27517c16.093458 16.093458 16.091397 42.183773 0 58.27517s-42.183773 16.093458-58.27517 0c-16.091397 16.091397-42.183773 16.093458-58.27517 0-16.093458-16.093458-16.091397-42.183773 0-58.27517-16.093458-16.093458-16.091397-42.183773 0-58.27517s42.181712-16.093458 58.27517 0z" fill="#FFB5C0" p-id="20792"></path><path d="M236.474485 240.400467m-23.632308 0a23.632308 23.632308 0 1 0 47.264616 0 23.632308 23.632308 0 1 0-47.264616 0Z" fill="#FFDBE0" p-id="20793"></path><path d="M859.716343 505.523233c0-22.758716 18.448447-41.207163 41.207164-41.207163s41.207163 18.448447 41.207163 41.207163c22.758716 0 41.207163 18.448447 41.207163 41.207163s-18.448447 41.207163-41.207163 41.207163c0 22.758716-18.448447 41.207163-41.207163 41.207163s-41.207163-18.448447-41.207164-41.207163c-22.758716 0-41.207163-18.448447-41.207163-41.207163s18.450507-41.207163 41.207163-41.207163z" fill="#FFDBE0" p-id="20794"></path><path d="M900.923507 546.730396m-23.632308 0a23.632308 23.632308 0 1 0 47.264616 0 23.632308 23.632308 0 1 0-47.264616 0Z" fill="#FFB5C0" p-id="20795"></path><path d="M739.986871 530.9872c-10.06691-18.959416-33.5962-26.168609-52.559737-16.10376l-41.837632 22.212722-22.212721-41.837633c-10.06691-18.961476-33.600321-26.168609-52.559737-16.103759-18.961476 10.06691-26.170669 33.59826-16.103759 52.559736l35.03639 66.079807-17.323491 56.678392c-11.954198 39.019063-51.984897 62.272265-91.92906 53.414785l-38.697647 20.731324V977.374095L480.670194 1024h177.318543c0-22.874096-12.434261-42.832786-30.905372-53.521924v-202.061384a180.448227 180.448227 0 0 1 7.917956-52.864669l30.761148-101.569476 58.122703-30.435611c18.957355-10.06691 26.168609-33.59826 16.101699-52.559736z" fill="#D6948C" p-id="20796"></path><path d="M480.497124 1023.82899a43.477678 43.477678 0 0 1-12.784522-30.783811V738.671301a43.473557 43.473557 0 0 1 12.784522-30.783811c-26.910338-5.970918-49.063309-26.049108-57.894004-53.414785l-39.072632-120.032345 35.081718-66.073626c10.06691-18.961476 2.857717-42.490766-16.103759-52.559736-18.959416-10.062789-42.490766-2.857717-52.557676 16.103759l-22.214782 41.837633-41.837632-22.212721c-18.961476-10.06691-42.494887-2.855656-52.559737 16.103759-10.06691 18.961476-2.857717 42.492827 16.10376 52.559736l57.846615 30.711699 52.741048 164.64322c5.443466 17.072128 7.917956 34.949855 7.917956 52.864669v202.061385c-18.46905 10.689138-30.905372 30.645767-30.905372 53.521923h143.625507z" fill="#CE857A" p-id="20797"></path><path d="M399.53329 774.737871l-65.558536-65.560597c-42.711224 42.709164-62.103315 102.723276-54.463507 160.621401 1.199128 9.135628 5.035515 17.323491 10.639689 23.947543h52.677177l27.538747-41.613054c-1.203249-27.415126 9.366388-57.595252 29.16643-77.395293z" fill="#D4D4FF" p-id="20798"></path><path d="M467.747628 816.202579c-1.755425 0-3.529394-0.150406-5.315724-0.45946-46.582637-8.074544-88.949782-32.322899-119.294737-68.274088-11.008494-13.044127-9.360207-32.541297 3.68392-43.551851 13.042067-11.012614 32.541297-9.358147 43.551851 3.68186 20.988868 24.864402 50.330429 41.641899 82.620361 47.241952 16.816643 2.915407 28.086802 18.912027 25.171396 35.730731-2.608413 15.030313-15.666963 25.630855-30.417067 25.630856z" fill="#EFEDFF" p-id="20799"></path><path d="M460.711505 573.972452h-72.903713v159.889973h32.96573a92.258717 92.258717 0 0 0 44.322425-24.687211c37.585053-37.582993 36.18607-99.492635-4.384442-135.202762z" fill="#EFEDFF" p-id="20800"></path><path d="M416.38908 598.659663a92.258717 92.258717 0 0 1 44.322425-24.687211c-36.41683-32.048871-91.951724-30.701397-126.736751 4.08363-36.208734 36.208734-36.208734 94.912459 0 131.121192 23.545773 23.545773 56.600099 31.762481 86.798768 24.687212a94.729087 94.729087 0 0 1-4.384442-4.08363c-36.208734-36.208734-36.208734-94.912459 0-131.121193z" fill="#D4D4FF" p-id="20801"></path><path d="M370.36892 852.133164c-30.750845-9.098542-65.399888 12.693867-80.217984 41.613054a47.672567 47.672567 0 0 0 36.390046 16.874333h20.745746c11.474135 0 20.605642 9.345785 20.663332 20.817859 0.086535 17.492441 14.702716 31.548204 32.399132 30.715819 17.111274-0.8056 29.811322-15.827671 29.384828-32.953368-0.908618-36.435374-25.865736-67.157374-59.3651-77.067697z" fill="#EFEDFF" p-id="20802"></path><path d="M862.40099 59.630824h-61.810744l-71.702524 119.974655 71.702524 119.974655h61.810744c42.68444-22.993597 71.700464-68.092777 71.700464-119.974655 0-51.883939-29.016024-96.981058-71.700464-119.974655z" fill="#EFEDFF" p-id="20803"></path><path d="M797.905599 223.311856a135.674584 135.674584 0 0 1-7.207133-43.706377 135.909465 135.909465 0 0 1 7.207133-43.706377c11.123874-32.829747 34.391498-60.053259 64.495391-76.268278-19.198417-10.342998-41.157714-16.2212-64.493331-16.2212-75.219555 0-136.195855 60.9763-136.195855 136.195855s60.9763 136.195855 136.195855 136.195855c23.335616 0 45.294914-5.878202 64.493331-16.2212-30.091531-16.208838-53.367397-43.457074-64.495391-76.268278z" fill="#D4D4FF" p-id="20804"></path><path d="M841.611976 179.605479l16.264468-16.264467c12.069578-12.069578 12.069578-31.636799 0-43.706378-12.067518-12.069578-31.636799-12.069578-43.706378 0l-16.264467 16.264468-43.706378 43.706377 43.706378 43.706377 16.264467 16.264468c6.034789 6.034789 13.944504 9.053214 21.852159 9.053213s15.81943-3.016364 21.852158-9.053213c12.069578-12.069578 12.069578-31.636799 0-43.706378z" fill="#FF8E9E" p-id="20805"></path><path d="M797.905599 135.899102l-16.264467-16.264468c-12.067518-12.069578-31.636799-12.069578-43.706378 0s-12.069578 31.636799 0 43.706378l16.264467 16.264467-16.264467 16.264467c-12.069578 12.069578-12.069578 31.636799 0 43.706378 6.034789 6.034789 13.944504 9.053214 21.852159 9.053213s15.81943-3.016364 21.852158-9.053213l16.264468-16.264468a135.674584 135.674584 0 0 1-7.207133-43.706377 136.022785 136.022785 0 0 1 7.209193-43.706377z" fill="#EA5B70" p-id="20806"></path><path d="M281.178076 358.213806a54.957993 43.766128 0 1 0 109.915987 0 54.957993 43.766128 0 1 0-109.915987 0Z" fill="#FFDBE0" p-id="20807"></path><path d="M603.937301 358.471351a54.957993 43.766128 0 1 0 109.915987 0 54.957993 43.766128 0 1 0-109.915987 0Z" fill="#FFDBE0" p-id="20808"></path><path d="M387.768645 300.795745h-0.012362a15.452686 15.452686 0 0 0-15.452686 15.442385l-0.018544 24.468813a15.452686 15.452686 0 0 0 15.440324 15.462988h0.012363a15.452686 15.452686 0 0 0 15.452686-15.442384l0.018543-24.468814a15.450626 15.450626 0 0 0-15.440324-15.462988zM607.406945 301.05123h-0.012363a15.452686 15.452686 0 0 0-15.452686 15.442384l-0.018543 24.468814a15.452686 15.452686 0 0 0 15.440324 15.462988h0.012362a15.452686 15.452686 0 0 0 15.452686-15.442385l0.018544-24.468813a15.452686 15.452686 0 0 0-15.440324-15.462988zM531.946327 328.043982l-68.770634-0.05975h-0.014423a15.452686 15.452686 0 0 0-0.014422 30.905372l68.770634 0.05975h0.014423a15.452686 15.452686 0 0 0 0.014422-30.905372z" fill="#313D40" p-id="20809"></path></svg>