<svg class="icon" viewBox="0 0 1024 1024" xmlns="http://www.w3.org/2000/svg" width="200" height="200"><path d="m922.607 211.518-7.17-1.65 1.654-7.153c10.673-46.111-28.521-88.48-74.58-82.151-37.392 5.138-64.982 27.252-90.032 54.98H517.915l.204 398.264h117.095s52.27 3.634 80.082 29.502c67.042 62.359 135.876 17.212 133.89-39.534l-.258-7.335 7.356-.256c72.971-2.542 111.317-113.913-32.686-174.557 38.574-3.36 77.183-15.018 102.643-30.887 15.496-9.657 28.147-22.134 37.703-36.349 25.87-38.483 4.94-92.217-41.337-102.874z" fill="#FFB5C0"/><path d="M750.223 37.19c-20.478-41.59-82.619-50.378-115.01-15.733-32.39-34.643-94.53-25.858-115.009 15.732-18.71 38-14.906 97.57-2.289 138.358-25.05-27.729-52.607-49.842-89.998-54.981-46.062-6.33-85.256 36.04-74.581 82.15l1.654 7.154-7.17 1.65c-46.277 10.657-67.206 64.39-41.335 102.872 9.556 14.215 22.207 26.694 37.703 36.349 25.46 15.869 64.067 27.526 102.643 30.887-144 60.644-105.657 172.017-32.686 174.557l7.356.256-.258 7.335c-1.986 56.744 66.847 101.893 133.889 39.534 27.812-25.868 80.082-29.502 80.082-29.502V444.442l84.375-244.324c10.131-9.399 21.208-16.503 32.89-24.573 12.617-40.787 16.454-100.356-2.256-138.356z" fill="#FF8E9E"/><path d="M550.31 602.282c6.822-21.222 29.562-32.892 50.782-26.072 21.224 6.824 32.896 29.56 26.072 50.784a184.19 184.19 0 0 1-22.858 46.94l-63.315 38.587-82.19-38.586c42.539-2.934 78.459-31.06 91.51-71.653z" fill="#FFCBBE"/><path d="M604.306 452.249h61.81v302.415h-61.81z" fill="#70DCBA"/><path d="M752.477 175.545H586.404v271.992l48.81 35.615c97.29 0 176.16-78.87 176.16-176.16-.002-52.258-22.757-99.186-58.897-131.447z" fill="#FFDBE0"/><path d="M607.329 296.368a192.596 192.596 0 0 1 145.148-120.821c-31.147-27.805-72.234-44.714-117.266-44.714-45.05 0-86.15 16.895-117.298 44.714-36.122 32.259-58.862 79.206-58.862 131.446 0 97.313 78.897 176.161 176.16 176.161a192.61 192.61 0 0 1-27.882-186.786z" fill="#FFB5C0"/><path d="M758.437 875.757c0-22.293-18.071-40.364-40.364-40.364 22.293 0 40.364-18.072 40.364-40.365s-18.071-40.364-40.364-40.364c22.781 0 41.156-18.873 40.338-41.836-.777-21.873-19.42-38.893-41.306-38.893h-50.988a145.088 145.088 0 0 0-124.619 70.788l-34.035 57.082v67.176l34.035 57.082a145.088 145.088 0 0 0 124.619 70.788h50.985c21.888 0 40.53-17.019 41.307-38.894.815-22.964-17.557-41.835-40.338-41.835 22.295 0 40.366-18.072 40.366-40.365z" fill="#FFDDCF"/><path d="M589.88 868.98v-67.175a145.354 145.354 0 0 1 76.239-127.87H318.304V996.85h347.815a145.35 145.35 0 0 1-76.24-127.87z" fill="#FFCBBE"/><path d="M363.547 646.788h-41.294a38.117 38.117 0 0 0-32.275 17.838l-36.339 57.845v225.844l36.339 57.842a38.117 38.117 0 0 0 32.275 17.839h41.294c14.993 0 27.147-12.154 27.147-27.147V673.935c-.002-14.993-12.154-27.147-27.147-27.147z" fill="#FFB5C0"/><path d="M274.707 722.47v225.845c0 33.326 19.412 62.115 47.546 75.683H212.171c-14.994 0-27.148-12.154-27.148-27.147V673.935c0-14.993 12.154-27.147 27.148-27.147h110.082c-28.134 13.567-47.546 42.356-47.546 75.683z" fill="#FF8E9E"/><path d="M249.519 715.418h-61.811l-71.703 119.975 71.703 119.974h61.81c42.685-22.993 71.701-68.092 71.701-119.974s-29.016-96.981-71.7-119.975z" fill="#EFEDFF"/><path d="M185.023 879.1a135.675 135.675 0 0 1-7.207-43.707 135.91 135.91 0 0 1 7.207-43.707c11.124-32.83 34.392-60.053 64.496-76.268-19.199-10.343-41.158-16.221-64.494-16.221-75.22 0-136.196 60.976-136.196 136.196s60.977 136.196 136.196 136.196c23.336 0 45.295-5.879 64.494-16.222-30.092-16.208-53.366-43.457-64.496-76.268z" fill="#D4D4FF"/><path d="m228.73 835.393 16.264-16.265c12.07-12.07 12.07-31.636 0-43.706-12.067-12.07-31.637-12.07-43.706 0l-16.265 16.264-43.706 43.707 43.706 43.706 16.265 16.265c6.034 6.034 13.944 9.053 21.852 9.053s15.82-3.017 21.852-9.053c12.07-12.07 12.07-31.637 0-43.707z" fill="#FF8E9E"/><path d="m185.023 791.686-16.264-16.264c-12.068-12.07-31.637-12.07-43.707 0s-12.07 31.637 0 43.706l16.265 16.265-16.265 16.264c-12.07 12.07-12.07 31.637 0 43.707 6.035 6.034 13.945 9.053 21.853 9.053s15.819-3.017 21.852-9.053l16.264-16.265a135.675 135.675 0 0 1-7.207-43.706 136.031 136.031 0 0 1 7.21-43.707z" fill="#EA5B70"/><path d="M525.415 284.31h-.012a15.453 15.453 0 0 0-15.453 15.443l-.019 24.47a15.453 15.453 0 0 0 15.44 15.462h.013a15.453 15.453 0 0 0 15.453-15.442l.018-24.47a15.453 15.453 0 0 0-15.44-15.462zm219.638.256h-.012a15.453 15.453 0 0 0-15.453 15.443l-.018 24.469a15.453 15.453 0 0 0 15.44 15.463h.012a15.453 15.453 0 0 0 15.453-15.443l.019-24.469a15.453 15.453 0 0 0-15.44-15.463zm-75.46 26.993-68.771-.06h-.014a15.453 15.453 0 0 0-.015 30.906l68.77.06h.015a15.453 15.453 0 0 0 .015-30.906z" fill="#313D40"/></svg>