<?xml version="1.0" standalone="no"?><!DOCTYPE svg PUBLIC "-//W3C//DTD SVG 1.1//EN" "http://www.w3.org/Graphics/SVG/1.1/DTD/svg11.dtd"><svg t="1624436373857" class="icon" viewBox="0 0 1024 1024" version="1.1" xmlns="http://www.w3.org/2000/svg" p-id="18463" xmlns:xlink="http://www.w3.org/1999/xlink" width="200" height="200"><defs><style type="text/css"></style></defs><path d="M922.606691 211.518415l-7.170046-1.650346 1.654467-7.153563c10.672655-46.110813-28.521536-88.480015-74.580839-82.150596-37.391377 5.138533-64.981632 27.252356-90.031465 54.980654H517.915288l0.203975 398.263086h117.094268s52.271283 3.634472 80.081996 29.502267c67.04199 62.358796 135.876491 17.212231 133.890306-39.53415l-0.257545-7.334875 7.355478-0.255484c72.9717-2.542482 111.317024-113.913075-32.68552-174.557653 38.574023-3.360444 77.183072-15.01795 102.642916-30.886827 15.495953-9.656898 28.146551-22.134426 37.702492-36.348836 25.869855-38.483367 4.940739-92.217505-41.336963-102.873677z" fill="#FFB5C0" p-id="18464"></path><path d="M750.222716 37.189462c-20.477898-41.590387-82.618297-50.377814-115.009185-15.732894-32.390889-34.64286-94.531287-25.857493-115.009185 15.732894-18.710111 37.999183-14.90669 97.570315-2.289058 138.357163-25.049833-27.728298-52.607122-49.842121-89.998499-54.980654-46.061364-6.32942-85.255555 36.039783-74.58084 82.150595l1.654468 7.153563-7.170046 1.650347c-46.277702 10.656172-67.206818 64.390309-41.334903 102.871616 9.555941 14.21441 22.206539 26.693999 37.702491 36.348836 25.459844 15.868878 64.066833 27.526383 102.642917 30.886827-144.000483 60.644578-105.65722 172.017231-32.68552 174.557653l7.355478 0.255484-0.257545 7.334875c-1.986185 56.74432 66.846256 101.892946 133.888246 39.53415 27.812773-25.867795 80.081996-29.502267 80.081996-29.502267v-129.36576l84.375782-244.323436c10.13078-9.399353 21.207265-16.503468 32.889495-24.57389 12.617633-40.786848 16.454019-100.355919-2.256092-138.355102z" fill="#FF8E9E" p-id="18465"></path><path d="M550.310297 602.281798c6.821845-21.221688 29.562017-32.891556 50.781644-26.07177 21.223748 6.823906 32.895676 29.559957 26.071771 50.783704a184.189827 184.189827 0 0 1-22.857612 46.941137l-63.314802 38.586385-82.189742-38.586385c42.538152-2.93395 78.458434-31.059897 91.508741-71.653071z" fill="#FFCBBE" p-id="18466"></path><path d="M604.3061 452.248587h61.810741v302.415231h-61.810741z" fill="#70DCBA" p-id="18467"></path><path d="M752.476748 175.544564h-166.073099v271.991984l48.809882 35.615349c97.290106 0 176.160611-78.870505 176.160611-176.160611-0.00206-52.256861-22.756654-99.185635-58.897394-131.446722z" fill="#FFDBE0" p-id="18468"></path><path d="M607.328645 296.36808a192.596087 192.596087 0 0 1 145.148103-120.821455C721.330315 147.742093 680.242655 130.832735 635.21147 130.832735c-45.049728 0-86.14975 16.894936-117.298242 44.71389-36.122197 32.259026-58.862368 79.206344-58.862369 131.446721 0 97.31277 78.89729 176.160611 176.160611 176.160611a192.61051 192.61051 0 0 1-27.882825-186.785877z" fill="#FFB5C0" p-id="18469"></path><path d="M758.437363 875.75724c0-22.293074-18.0714-40.364474-40.364474-40.364474 22.293074 0 40.364474-18.0714 40.364474-40.364474s-18.0714-40.364474-40.364474-40.364474c22.781379 0 41.155652-18.87288 40.33769-41.83557-0.776755-21.872761-19.418874-38.893378-41.306058-38.893379h-50.98768a145.088352 145.088352 0 0 0-124.618695 70.787721l-34.035054 57.082219v67.175913l34.035054 57.08222a145.088352 145.088352 0 0 0 124.618695 70.78772h50.98562c21.887183 0 40.529303-17.018557 41.306057-38.893378 0.815902-22.964751-17.556311-41.83557-40.337689-41.83557 22.295134 0 40.366534-18.0714 40.366534-40.364474z" fill="#FFDDCF" p-id="18470"></path><path d="M589.879473 868.980722v-67.175913a145.354138 145.354138 0 0 1 76.239428-127.86994H318.303681v322.915793h347.81522a145.350017 145.350017 0 0 1-76.239428-127.86994z" fill="#FFCBBE" p-id="18471"></path><path d="M363.547083 646.787592h-41.293695a38.116624 38.116624 0 0 0-32.275509 17.83858l-36.338534 57.844551v225.844085l36.338534 57.842491a38.116624 38.116624 0 0 0 32.275509 17.83858h41.293695c14.993225 0 27.147277-12.154052 27.147278-27.147277V673.934869c-0.00206-14.993225-12.154052-27.147277-27.147278-27.147277z" fill="#FFB5C0" p-id="18472"></path><path d="M274.706506 722.470723v225.844085c0 33.326291 19.412693 62.115674 47.546882 75.683132h-110.082869c-14.993225 0-27.147277-12.154052-27.147278-27.147278V673.934869c0-14.993225 12.154052-27.147277 27.147278-27.147277h110.082869c-28.134189 13.567458-47.546882 42.35684-47.546882 75.683131z" fill="#FF8E9E" p-id="18473"></path><path d="M249.518629 715.418118h-61.810741l-71.70252 119.974648 71.70252 119.974648h61.810741c42.684437-22.993596 71.700459-68.092772 71.700459-119.974648s-29.016022-96.981052-71.700459-119.974648z" fill="#EFEDFF" p-id="18474"></path><path d="M185.023241 879.099141a135.674576 135.674576 0 0 1-7.207132-43.706375 135.909457 135.909457 0 0 1 7.207132-43.706375c11.123873-32.829745 34.391496-60.053255 64.495388-76.268273-19.198416-10.342997-41.157712-16.221199-64.493327-16.221199-75.219551 0-136.195847 60.976296-136.195847 136.195847s60.976296 136.195847 136.195847 136.195846c23.335615 0 45.294911-5.878201 64.493327-16.221198-30.091529-16.208837-53.365333-43.457072-64.495388-76.268273z" fill="#D4D4FF" p-id="18475"></path><path d="M228.729616 835.392766l16.264467-16.264466c12.069577-12.069577 12.069577-31.636798 0-43.706375-12.067517-12.069577-31.636798-12.069577-43.706375 0l-16.264467 16.264466-43.706374 43.706375 43.706374 43.706375 16.264467 16.264466c6.034789 6.034789 13.944503 9.053213 21.852157 9.053213s15.819429-3.016364 21.852157-9.053213c12.069577-12.069577 12.069577-31.636798 0-43.706375z" fill="#FF8E9E" p-id="18476"></path><path d="M185.023241 791.686391l-16.264466-16.264466c-12.067517-12.069577-31.636798-12.069577-43.706375 0s-12.069577 31.636798 0 43.706375l16.264467 16.264466-16.264467 16.264466c-12.069577 12.069577-12.069577 31.636798 0 43.706375 6.034789 6.034789 13.944503 9.053213 21.852158 9.053213s15.819429-3.016364 21.852157-9.053213l16.264466-16.264466a135.674576 135.674576 0 0 1-7.207132-43.706375 136.031018 136.031018 0 0 1 7.209192-43.706375z" fill="#EA5B70" p-id="18477"></path><path d="M525.414991 284.310865h-0.012362a15.452685 15.452685 0 0 0-15.452685 15.442383l-0.018543 24.468812a15.452685 15.452685 0 0 0 15.440323 15.462987h0.012362a15.452685 15.452685 0 0 0 15.452685-15.442384l0.018543-24.468811a15.452685 15.452685 0 0 0-15.440323-15.462987zM745.053278 284.566349h-0.012363a15.452685 15.452685 0 0 0-15.452685 15.442383l-0.018543 24.468812a15.452685 15.452685 0 0 0 15.440323 15.462987h0.012362a15.452685 15.452685 0 0 0 15.452685-15.442383l0.018544-24.468812a15.452685 15.452685 0 0 0-15.440323-15.462987zM669.592665 311.559099l-68.77063-0.05975h-0.014423a15.452685 15.452685 0 0 0-0.014422 30.905371l68.77063 0.05975h0.014422a15.452685 15.452685 0 0 0 0.014423-30.905371z" fill="#313D40" p-id="18478"></path></svg>