<?xml version="1.0" standalone="no"?><!DOCTYPE svg PUBLIC "-//W3C//DTD SVG 1.1//EN" "http://www.w3.org/Graphics/SVG/1.1/DTD/svg11.dtd"><svg t="1624436462478" class="icon" viewBox="0 0 1024 1024" version="1.1" xmlns="http://www.w3.org/2000/svg" p-id="22538" xmlns:xlink="http://www.w3.org/1999/xlink" width="200" height="200"><defs><style type="text/css"></style></defs><path d="M888.680423 360.692537c-5.563386-52.907986-54.819956-90.749567-107.248935-82.852034a92.992377 92.992377 0 0 0-35.371446-24.650612c20.337516-41.927351 7.820404-98.145765-38.312469-123.933004-5.561357-52.907986-54.824015-90.755656-107.244875-82.856094h-114.164096v466.930685l165.740604 106.733393c35.040606 26.862976 93.733214 28.610541 129.896239-11.977214 52.546701 7.745305 101.904755-30.402759 107.200222-83.422378 63.16808-35.791592 62.908279-128.528227-0.495244-163.972742z" fill="#FFB5C0" p-id="22539"></path><path d="M613.257283 522.095689c-77.065382-8.283174-105.669834-100.701148-58.676371-155.312045 6.413827-7.45303 4.118245-18.912672-4.773836-23.108046-60.143839-28.385245-73.558074-114.318352-16.891098-158.500692-32.239631-56.898361 2.650778-129.068126 67.58672-138.772083C571.362407 13.787699 523.873699 6.042394 485.857565 26.568671c-37.569602-20.187318-85.307962-12.947406-114.677608 20.156873-52.475662-7.71689-101.762677 30.372314-107.005372 83.456883-44.779069 25.18848-58.020781 80.629522-37.699502 122.861326a92.852328 92.852328 0 0 0-36.225946 25.1215c-52.433038-7.708771-101.791092 30.321571-107.011461 83.511685-31.370922 17.828816-46.954899 49.889834-46.954899 81.69714 0 31.937206 15.857985 63.858175 47.377075 81.607833 5.433486 53.102836 54.850401 91.025605 107.202252 83.225498 36.623766 40.967307 100.080062 43.090365 139.362724 4.68047l67.52177-14.587397c25.334618 21.009344 65.684898 18.273319 88.541262-5.40913 21.439638 27.244558 55.501933 31.332358 90.911942 11.228257h50.115129z" fill="#FF8E9E" p-id="22540"></path><path d="M725.198866 538.304811c-9.917076-18.677227-33.096161-25.77912-51.777447-15.864074l-41.21493 21.882111-21.882111-41.214929c-9.917076-18.679257-33.10022-25.77912-51.777447-15.864074-18.679257 9.917076-25.78115 33.09819-15.864074 51.777447l34.514915 65.096287v40.928743c-0.233415 39.773848-30.506273 72.92887-70.09339 76.769047l-20.76781 58.246077V1023.979703H644.419147c0-22.533643-12.249192-42.195271-30.445382-52.725314a722.854572 722.854572 0 0 0 38.103411-351.189518l57.257616-29.982613c18.679257-9.917076 25.78115-33.09819 15.864074-51.777447z" fill="#D6948C" p-id="22541"></path><path d="M507.104382 721.815369c-39.587116 3.840178-68.183449-25.176302-83.544159-61.862987l-49.512311-118.245807 16.602882-31.269438c9.917076-18.679257 2.815183-41.860371-15.864074-51.777447-18.677227-9.917076-41.860371-2.815183-51.777448 15.864074l-3.927454 7.396198-40.403052-21.453846c-18.338269-9.736433-41.527502-3.771168-51.911408 14.209875-10.901477 18.878167-3.903098 42.867099 15.186157 53.001351l56.985638 30.256622 60.361015 144.154827a346.602414 346.602414 0 0 1-0.604848 269.167628c-18.194161 10.530043-30.445383 30.189641-30.445382 52.725314h158.082575a555.510511 555.510511 0 0 0 20.771869-302.166364z" fill="#CE857A" p-id="22542"></path><path d="M845.790997 73.964013h-60.890765l-70.635318 118.188975 70.635318 118.188975h60.890765c42.049133-22.651365 70.633288-67.079297 70.633288-118.188975 0.00203-51.111708-28.582125-95.537611-70.633288-118.188975z" fill="#EFEDFF" p-id="22543"></path><path d="M782.255543 235.208848a133.65523 133.65523 0 0 1-7.099863-43.05586 133.886615 133.886615 0 0 1 7.099863-43.05586c10.958308-32.341115 33.879622-59.159438 63.535454-75.133115-18.912672-10.189055-40.545131-15.979767-63.533424-15.979767-74.100002 0-134.168742 60.06874-134.168742 134.168742s60.06874 134.168742 134.168742 134.168742c22.988294 0 44.620753-5.790712 63.533424-15.979767-29.641625-15.967588-52.571057-42.810267-63.535454-75.133115z" fill="#D4D4FF" p-id="22544"></path><path d="M825.311403 192.152988l16.02239-16.02239c11.889937-11.889937 11.889937-31.165923 0-43.05586-11.887907-11.889937-31.165923-11.889937-43.05586 0l-16.02239 16.02239-43.05586 43.05586 43.05586 43.05586 16.02239 16.02239c5.944968 5.944968 13.736957 8.918467 21.526915 8.918468s15.583977-2.971469 21.526915-8.918468c11.889937-11.889937 11.889937-31.165923 0-43.05586z" fill="#FF8E9E" p-id="22545"></path><path d="M782.255543 149.097128l-16.02239-16.02239c-11.887907-11.889937-31.165923-11.889937-43.05586 0s-11.889937 31.165923 0 43.05586l16.02239 16.02239-16.02239 16.02239c-11.889937 11.889937-11.889937 31.165923 0 43.05586 5.944968 5.944968 13.736957 8.918467 21.526915 8.918468s15.583977-2.971469 21.526915-8.918468l16.02239-16.02239a133.65523 133.65523 0 0 1-7.099863-43.05586 134.053049 134.053049 0 0 1 7.101893-43.05586z" fill="#EA5B70" p-id="22546"></path><path d="M444.070262 402.337761l14.780219-6.082987 14.776159 8.486143c7.503772 0.166435 17.897826 0.166435 25.423924 0l14.776159-8.486143 14.780218 6.082987c21.664934-3.746812 36.016888-12.845922 36.016888-34.510856 0-21.662905-14.356013-40.691269-36.016888-51.594775l-14.780218-0.008119-14.776159-8.885992a100.449466 100.449466 0 0 0-25.423924 0l-14.776159 8.885992-14.780219 0.008119c-21.660875 10.903506-36.016888 29.931871-36.016887 51.594775 0 21.666964 14.351953 30.764044 36.016887 34.510856z" fill="#FFFFFF" p-id="22547"></path><path d="M499.048534 307.340049v97.400868c10.74722-0.237474 20.751573-0.878857 29.556378-2.401126v-86.103601c-8.802775-4.432848-18.809157-7.522039-29.556378-8.896141zM444.070262 402.339791c8.802775 1.522269 18.809157 2.163652 29.556378 2.401126v-97.400868c-10.74722 1.374102-20.751573 4.463293-29.556378 8.894111z" fill="#D4D4FF" p-id="22548"></path><path d="M347.408202 272.831222c-25.180361 0-45.668074 20.485683-45.668074 45.668074v21.039789c0 25.182391 20.487713 45.668074 45.668074 45.668074s45.668074-20.485683 45.668074-45.668074V318.499296c0-25.182391-20.487713-45.668074-45.668074-45.668074zM625.266972 272.831222c-25.180361 0-45.668074 20.485683-45.668074 45.668074v21.039789c0 25.182391 20.487713 45.668074 45.668074 45.668074s45.668074-20.485683 45.668074-45.668074V318.499296c0-25.182391-20.485683-45.668074-45.668074-45.668074z" fill="#FFFFFF" p-id="22549"></path><path d="M347.406172 303.276605a15.222691 15.222691 0 0 0-15.222691 15.222691v21.039789c0 8.406985 6.813677 15.222691 15.222691 15.222692s15.222691-6.815706 15.222692-15.222692V318.499296a15.222691 15.222691 0 0 0-15.222692-15.222691zM625.266972 303.276605a15.222691 15.222691 0 0 0-15.222691 15.222691v21.039789c0 8.406985 6.813677 15.222691 15.222691 15.222692s15.222691-6.815706 15.222691-15.222692V318.499296a15.222691 15.222691 0 0 0-15.222691-15.222691z" fill="#313D40" p-id="22550"></path><path d="M843.148338 716.189063c0-22.41998 18.173864-40.593844 40.593844-40.593844s40.593844 18.173864 40.593843 40.593844c22.41998 0 40.593844 18.173864 40.593844 40.593843s-18.173864 40.593844-40.593844 40.593844c0 22.41998-18.173864 40.593844-40.593843 40.593843s-40.593844-18.173864-40.593844-40.593843c-22.41998 0-40.593844-18.173864-40.593844-40.593844s18.173864-40.593844 40.593844-40.593843z" fill="#FFDBE0" p-id="22551"></path><path d="M883.742182 756.782906m-23.28057 0a23.280569 23.280569 0 1 0 46.561139 0 23.280569 23.280569 0 1 0-46.561139 0Z" fill="#FFB5C0" p-id="22552"></path><path d="M103.753805 105.531815c15.851896-15.851896 41.555918-15.853926 57.407813 0s15.851896 41.555918 0 57.407814c15.853926 15.853926 15.851896 41.555918 0 57.407813s-41.555918 15.853926-57.407813 0c-15.851896 15.851896-41.555918 15.853926-57.407814 0s-15.851896-41.555918 0-57.407813c-15.853926-15.853926-15.851896-41.555918 0-57.407814s41.553888-15.853926 57.407814 0z" fill="#FFB5C0" p-id="22553"></path><path d="M103.753805 162.939629m-23.28057 0a23.280569 23.280569 0 1 0 46.561139 0 23.280569 23.280569 0 1 0-46.561139 0Z" fill="#FFDBE0" p-id="22554"></path><path d="M144.412598 875.964401l-56.831381 102.838414c-8.132977 14.717298-2.794886 33.240269 11.922412 41.373245a30.303304 30.303304 0 0 0 14.697001 3.805673c10.722864 0 21.120977-5.677049 26.676245-15.726055l56.831381-102.838414z" fill="#D4D4FF" p-id="22555"></path><path d="M323.963228 615.155045h-71.818628v157.510202h32.475075a90.885556 90.885556 0 0 0 43.662738-24.319771c37.025645-37.023615 35.647484-98.011806-4.319185-133.190431z" fill="#EFEDFF" p-id="22556"></path><path d="M280.30049 639.474817a90.885556 90.885556 0 0 1 43.662738-24.319772c-35.874809-31.571862-90.583132-30.244443-124.850425 4.02285-35.66981 35.66981-35.66981 93.4998 0 129.169611-36.985051 36.983021-56.220444 87.140774-55.221836 137.47308 0.255741 12.876367 6.225066 24.979422 16.012242 33.351902a45.802034 45.802034 0 0 0 29.771525 10.996872h18.159656l27.128865-40.993693c-1.18737-27.005054 9.224951-56.738015 28.732323-76.241327v-37.851729h0.359255c6.905013 0 13.805966-0.832174 20.562812-2.415334a93.319157 93.319157 0 0 1-4.319185-4.02285c-35.667781-35.66981-35.667781-93.4998 0.00203-129.16961z" fill="#D4D4FF" p-id="22557"></path><path d="M367.703094 772.665247h-124.304438c-16.81397 0-30.445383 13.631413-30.445383 30.445383s13.631413 30.445383 30.445383 30.445383h124.304438c16.81397 0 30.445383-13.631413 30.445383-30.445383s-13.629383-30.445383-30.445383-30.445383zM208.402704 869.964631H184.03016c-16.625209 0-30.102365 13.477156-30.102365 30.102365s13.477156 30.102365 30.102365 30.102364h15.669224c24.250762 0 36.404559 26.653918 22.687899 45.36768-14.780218 20.169051-0.188761 48.442663 24.532889 48.442663 9.346732 0 18.569654-4.290769 24.538978-12.3933 45.152532-61.317001-3.754931-141.621772-63.056446-141.621772z" fill="#EFEDFF" p-id="22558"></path><path d="M721.340421 783.871178a15.222691 15.222691 0 0 0-16.722633 13.556314 774.861374 774.861374 0 0 1-19.708311 110.30971 15.222691 15.222691 0 1 0 29.501575 7.51798 805.280371 805.280371 0 0 0 20.485683-114.65934 15.222691 15.222691 0 0 0-13.556314-16.724664zM257.115316 3.227211c-18.427575 14.396607-33.473683 32.170621-44.718178 52.826798a15.222691 15.222691 0 1 0 26.739165 14.554922c9.241188-16.976345 21.597954-31.573891 36.72322-43.388729a15.222691 15.222691 0 0 0-18.744207-23.992991zM88.847745 617.158352c-19.312521-17.045355-33.49398-38.945733-41.01196-63.330456a15.224721 15.224721 0 0 0-19.032423-10.063213 15.220662 15.220662 0 0 0-10.061184 19.030393c9.170149 29.741079 26.444859 56.431532 49.958843 77.187164a15.157741 15.157741 0 0 0 10.067273 3.809732 15.222691 15.222691 0 0 0 10.079451-26.63362zM1004.886389 377.080272c-10.08554-25.740556-26.615354-48.797859-47.80534-66.675388a15.222691 15.222691 0 1 0-19.633212 23.268391c17.331541 14.623932 30.847262 33.473683 39.091871 54.513473a15.22878 15.22878 0 0 0 14.1774 9.673512 15.222691 15.222691 0 0 0 14.169281-20.779988z" fill="#EFEDFF" p-id="22559"></path></svg>