<svg class="icon" viewBox="0 0 1024 1024" xmlns="http://www.w3.org/2000/svg" width="200" height="200"><path d="M888.68 360.693c-5.563-52.908-54.82-90.75-107.249-82.852a92.992 92.992 0 0 0-35.371-24.651c20.338-41.927 7.82-98.146-38.312-123.933C702.186 76.349 652.924 38.5 600.503 46.4H486.339v466.93l165.74 106.734c35.04 26.863 93.733 28.61 129.896-11.977 52.547 7.745 101.905-30.403 107.2-83.423 63.169-35.791 62.909-128.528-.495-163.972z" fill="#FFB5C0"/><path d="M613.257 522.096c-77.065-8.283-105.67-100.701-58.676-155.312 6.414-7.453 4.118-18.913-4.774-23.108-60.144-28.386-73.558-114.319-16.891-158.501-32.24-56.898 2.65-129.068 67.587-138.772-29.14-32.615-76.63-40.36-114.645-19.834C448.288 6.38 400.55 13.62 371.18 46.726c-52.476-7.717-101.763 30.372-107.005 83.456-44.78 25.189-58.021 80.63-37.7 122.862a92.852 92.852 0 0 0-36.226 25.121c-52.433-7.709-101.791 30.322-107.011 83.512-31.371 17.829-46.955 49.89-46.955 81.697 0 31.937 15.858 63.858 47.377 81.608 5.433 53.103 54.85 91.026 107.202 83.225 36.624 40.968 100.08 43.09 139.363 4.68l67.522-14.587c25.334 21.01 65.684 18.274 88.54-5.409 21.44 27.245 55.503 31.333 90.913 11.229h50.115z" fill="#FF8E9E"/><path d="M725.199 538.305c-9.917-18.677-33.096-25.78-51.778-15.864l-41.215 21.882-21.882-41.215c-9.917-18.68-33.1-25.78-51.777-15.864-18.68 9.917-25.781 33.098-15.864 51.777l34.515 65.097v40.928c-.234 39.774-30.507 72.93-70.094 76.77l-20.767 58.245v243.919h158.082c0-22.534-12.249-42.196-30.445-52.726a722.855 722.855 0 0 0 38.103-351.19l57.258-29.982c18.679-9.917 25.78-33.098 15.864-51.777z" fill="#D6948C"/><path d="M507.104 721.815c-39.587 3.84-68.183-25.176-83.544-61.863l-49.512-118.245 16.603-31.27c9.917-18.68 2.815-41.86-15.864-51.777-18.678-9.917-41.86-2.815-51.778 15.864l-3.927 7.396-40.403-21.454c-18.339-9.736-41.528-3.771-51.912 14.21-10.901 18.878-3.903 42.867 15.187 53.001l56.985 30.257L359.3 702.089a346.602 346.602 0 0 1-.605 269.167c-18.194 10.53-30.445 30.19-30.445 52.726h158.083a555.51 555.51 0 0 0 20.771-302.167z" fill="#CE857A"/><path d="M845.791 73.964h-60.89l-70.636 118.189L784.9 310.342h60.891c42.05-22.651 70.633-67.08 70.633-118.189.002-51.112-28.582-95.538-70.633-118.189z" fill="#EFEDFF"/><path d="M782.256 235.209a133.655 133.655 0 0 1-7.1-43.056 133.887 133.887 0 0 1 7.1-43.056c10.958-32.341 33.88-59.16 63.535-75.133-18.913-10.189-40.545-15.98-63.533-15.98-74.1 0-134.17 60.069-134.17 134.169s60.07 134.169 134.17 134.169c22.988 0 44.62-5.791 63.533-15.98-29.642-15.968-52.571-42.81-63.535-75.133z" fill="#D4D4FF"/><path d="m825.311 192.153 16.023-16.022c11.89-11.89 11.89-31.166 0-43.056-11.888-11.89-31.166-11.89-43.056 0l-16.022 16.022-43.056 43.056 43.056 43.056 16.022 16.022c5.945 5.945 13.737 8.919 21.527 8.919s15.584-2.972 21.527-8.919c11.89-11.89 11.89-31.166 0-43.056z" fill="#FF8E9E"/><path d="m782.256 149.097-16.023-16.022c-11.888-11.89-31.166-11.89-43.056 0s-11.89 31.166 0 43.056l16.023 16.022-16.023 16.022c-11.89 11.89-11.89 31.166 0 43.056 5.945 5.945 13.737 8.919 21.527 8.919s15.584-2.972 21.527-8.919l16.023-16.022a133.655 133.655 0 0 1-7.1-43.056 134.053 134.053 0 0 1 7.102-43.056z" fill="#EA5B70"/><path d="m444.07 402.338 14.78-6.083 14.777 8.486c7.503.166 17.897.166 25.424 0l14.776-8.486 14.78 6.083c21.665-3.747 36.017-12.846 36.017-34.511 0-21.663-14.356-40.691-36.017-51.595l-14.78-.008-14.776-8.886a100.45 100.45 0 0 0-25.424 0l-14.777 8.886-14.78.008c-21.66 10.904-36.017 29.932-36.017 51.595 0 21.667 14.352 30.764 36.017 34.51z" fill="#FFF"/><path d="M499.049 307.34v97.4c10.747-.237 20.751-.878 29.556-2.4v-86.104c-8.803-4.433-18.81-7.522-29.556-8.896zm-54.979 95c8.803 1.522 18.81 2.163 29.557 2.4v-97.4c-10.748 1.374-20.752 4.463-29.557 8.894z" fill="#D4D4FF"/><path d="M347.408 272.831c-25.18 0-45.668 20.486-45.668 45.668v21.04c0 25.182 20.488 45.668 45.668 45.668s45.668-20.486 45.668-45.668V318.5c0-25.182-20.487-45.668-45.668-45.668zm277.859 0c-25.18 0-45.668 20.486-45.668 45.668v21.04c0 25.182 20.488 45.668 45.668 45.668s45.668-20.486 45.668-45.668V318.5c0-25.182-20.486-45.668-45.668-45.668z" fill="#FFF"/><path d="M347.406 303.277a15.223 15.223 0 0 0-15.223 15.222v21.04c0 8.407 6.814 15.223 15.223 15.223s15.223-6.816 15.223-15.223V318.5a15.223 15.223 0 0 0-15.223-15.222zm277.861 0a15.223 15.223 0 0 0-15.223 15.222v21.04c0 8.407 6.814 15.223 15.223 15.223s15.223-6.816 15.223-15.223V318.5a15.223 15.223 0 0 0-15.223-15.222z" fill="#313D40"/><path d="M843.148 716.19c0-22.42 18.174-40.595 40.594-40.595s40.594 18.174 40.594 40.594c22.42 0 40.594 18.174 40.594 40.594s-18.174 40.594-40.594 40.594c0 22.42-18.174 40.594-40.594 40.594s-40.594-18.174-40.594-40.594c-22.42 0-40.594-18.174-40.594-40.594s18.174-40.594 40.594-40.594z" fill="#FFDBE0"/><path d="M860.462 756.783a23.28 23.28 0 1 0 46.56 0 23.28 23.28 0 1 0-46.56 0zM103.754 105.532c15.852-15.852 41.556-15.854 57.408 0s15.852 41.556 0 57.408c15.854 15.854 15.852 41.556 0 57.407s-41.556 15.854-57.408 0c-15.852 15.852-41.556 15.854-57.408 0s-15.852-41.555 0-57.407c-15.854-15.854-15.852-41.556 0-57.408s41.554-15.854 57.408 0z" fill="#FFB5C0"/><path d="M80.474 162.94a23.28 23.28 0 1 0 46.56 0 23.28 23.28 0 1 0-46.56 0z" fill="#FFDBE0"/><path d="M144.413 875.964 87.58 978.803c-8.133 14.717-2.795 33.24 11.923 41.373a30.303 30.303 0 0 0 14.697 3.806c10.722 0 21.12-5.677 26.676-15.726l56.831-102.839z" fill="#D4D4FF"/><path d="M323.963 615.155h-71.818v157.51h32.475a90.886 90.886 0 0 0 43.662-24.32c37.026-37.023 35.648-98.011-4.319-133.19z" fill="#EFEDFF"/><path d="M280.3 639.475a90.886 90.886 0 0 1 43.663-24.32c-35.875-31.572-90.583-30.244-124.85 4.023-35.67 35.67-35.67 93.5 0 129.17-36.985 36.983-56.22 87.14-55.222 137.473.256 12.876 6.225 24.979 16.012 33.351a45.802 45.802 0 0 0 29.772 10.997h18.16l27.128-40.993c-1.187-27.005 9.225-56.738 28.733-76.242v-37.851h.359c6.905 0 13.806-.833 20.563-2.416a93.32 93.32 0 0 1-4.32-4.023c-35.667-35.67-35.667-93.5.002-129.17z" fill="#D4D4FF"/><path d="M367.703 772.665H243.4c-16.814 0-30.446 13.632-30.446 30.446s13.632 30.445 30.446 30.445h124.304c16.814 0 30.445-13.631 30.445-30.445s-13.629-30.446-30.445-30.446zm-159.3 97.3H184.03c-16.625 0-30.102 13.477-30.102 30.102s13.477 30.102 30.102 30.102h15.67c24.25 0 36.404 26.654 22.687 45.368-14.78 20.17-.188 48.443 24.533 48.443 9.347 0 18.57-4.291 24.54-12.394 45.152-61.317-3.756-141.621-63.057-141.621zM721.34 783.871a15.223 15.223 0 0 0-16.722 13.556 774.861 774.861 0 0 1-19.709 110.31 15.223 15.223 0 1 0 29.502 7.518 805.28 805.28 0 0 0 20.486-114.66 15.223 15.223 0 0 0-13.557-16.724zM257.115 3.227c-18.427 14.397-33.473 32.17-44.718 52.827a15.223 15.223 0 1 0 26.74 14.555c9.24-16.976 21.597-31.574 36.723-43.389a15.223 15.223 0 0 0-18.745-23.993zM88.848 617.158c-19.313-17.045-33.494-38.945-41.012-63.33a15.225 15.225 0 0 0-19.033-10.063 15.22 15.22 0 0 0-10.06 19.03c9.17 29.741 26.444 56.432 49.958 77.187a15.158 15.158 0 0 0 10.067 3.81 15.223 15.223 0 0 0 10.08-26.634zm916.038-240.078c-10.085-25.74-26.615-48.798-47.805-66.675a15.223 15.223 0 1 0-19.633 23.268c17.331 14.624 30.847 33.474 39.092 54.514a15.229 15.229 0 0 0 14.177 9.673 15.223 15.223 0 0 0 14.17-20.78z" fill="#EFEDFF"/></svg>