<?xml version="1.0" standalone="no"?><!DOCTYPE svg PUBLIC "-//W3C//DTD SVG 1.1//EN" "http://www.w3.org/Graphics/SVG/1.1/DTD/svg11.dtd"><svg t="1624436392010" class="icon" viewBox="0 0 1024 1024" version="1.1" xmlns="http://www.w3.org/2000/svg" p-id="19191" xmlns:xlink="http://www.w3.org/1999/xlink" width="200" height="200"><defs><style type="text/css"></style></defs><path d="M836.511081 237.193014h-161.210978c0 150.424982-53.952644 284.480386-142.029006 387.06994-11.517425 13.415018-2.146897 34.13402 15.53307 34.13402h6.88367v25.836941c0 17.06804 13.837392 30.905433 30.905433 30.905433h33.859992v15.41563c0 12.829875 15.850366 18.914125 24.40911 9.358165a749.491767 749.491767 0 0 0 132.215501-208.465384C816.513205 438.206068 836.511081 339.201545 836.511081 237.193014z" fill="#E8B5B1" p-id="19192"></path><path d="M967.97661 176.972748l-5.999775-1.380442 1.384563-5.985352c8.92961-38.580282-23.863115-74.028813-62.400128-68.733682-31.284539 4.297915-54.511002 21.38862-75.469006 44.588297h-195.940443v258.777369h97.970221c8.925489 38.782197 43.733247 78.891268 67.002978 100.533311 56.09336 52.174551 113.684604 14.399871 112.021892-33.077054l-0.214278-6.137819 6.154302-0.214277c61.054712-2.126294 93.134551-95.308233-27.347187-146.048773 44.512064-3.877602 92.436089-19.089256 117.4221-56.254068 21.644105-32.195219 4.133087-77.152322-34.585239-86.06751z" fill="#FFB5C0" p-id="19193"></path><path d="M823.747137 31.11559c-17.133972-34.797457-69.125151-42.148829-96.225095-13.163654-27.099944-28.985175-79.093183-21.633803-96.225094 13.163654-15.654632 31.793449-12.302423 80.222262-1.745127 114.34804-20.960064-23.199678-44.184467-40.290382-75.469006-44.588298-38.539074-5.295131-71.331799 30.1534-62.400129 68.733682l1.384564 5.985352-5.999775 1.380443c-38.720386 8.915187-56.231404 53.87229-34.58524 86.069569 24.979831 37.154511 72.887372 52.374406 117.422101 56.254069-120.481738 50.740539-88.399839 143.920419-27.347187 146.048772l6.154302 0.214278-0.214278 6.137819c-1.662712 47.476926 55.928531 85.249545 112.021891 33.077054 23.26973-21.642044 58.077489-61.751115 67.002978-100.533312-2.67641-10.705642-4.953111-31.923252-4.95311-48.371122l65.678165-175.83955c8.47633-7.864402 27.470809-27.81695 37.245167-34.568756 10.555235-34.127839 13.909505-82.554592-1.745127-114.34804z" fill="#FF8E9E" p-id="19194"></path><path d="M788.247097 180.030326h-65.678165v175.839549c1.640048 0.080354 3.292459 0.123622 4.95311 0.123622 54.377078 0 98.458527-44.081449 98.458527-98.458527-0.00206-31.463791-14.760435-59.480596-37.733472-77.504644z" fill="#FFDBE0" p-id="19195"></path><path d="M727.522042 159.078503c-54.377078 0-98.458527 44.081449-98.458527 98.458527 0 52.716427 41.429763 95.753272 93.505417 98.334906 0-65.665803 16.474656-130.181924 65.678165-175.83955a98.032032 98.032032 0 0 0-60.725055-20.953883z" fill="#FFB5C0" p-id="19196"></path><path d="M502.11636 776.952274h-8.241448v-28.04359c0-15.850366-12.848419-28.698785-28.698785-28.698785h-28.859493a24.950986 24.950986 0 0 0-14.257706 4.528676c-97.203767 67.728225-215.046181 106.879227-340.174037 107.142954-44.635686 0.094777-82.340314 36.822793-81.878792 81.456419C0.465559 957.464724 36.375612 993.094567 80.609527 993.094567c153.645328 0 304.797618-48.200113 431.281191-135.845859 10.932282-7.580072 18.924427-21.316507 18.924427-36.849577v-14.748073c0-15.850366-10.569658-28.698785-28.698785-28.698784z" fill="#D6948C" p-id="19197"></path><path d="M1023.981374 635.615549c0-22.35699-19.927823-43.852748-45.408322-43.852748-26.96396 0-45.702954 23.061634-45.702953 42.694825 0-19.9134-18.304258-42.694825-45.161079-42.694825-25.08903 0-45.486616 17.605795-45.488676 42.694825v-0.05769c-0.032966-23.556121-21.856322-42.635074-45.412443-42.635075-23.578785 0-45.412443 19.11398-45.412442 42.694825h-45.606117v316.07398L845.051282 1024h99.121964v-54.515123C992.350694 936.770447 1024.004038 881.542439 1024.004038 818.919791z" fill="#FFDDCF" p-id="19198"></path><path d="M751.395459 709.00359v-74.548025c-1.318632-23.630294-20.869408-42.692765-45.560789-42.692764-26.543646 0-45.194044 20.164765-45.194044 46.813489l-0.088596 64.054599c-14.985014 0-28.847131 4.297915-40.102889 12.508459-16.993867 12.393078-28.04359 33.002881-28.04359 55.63802v48.140362c0 62.340378 31.371074 117.345867 79.179719 150.113868V1024H845.051282c-60.918728-85.568901-93.655823-209.955026-93.655823-314.99641z" fill="#FFCBBE" p-id="19199"></path><path d="M394.30997 428.604781h-61.810865l-71.702664 119.974889 71.702664 119.974889h61.810865c42.684523-22.993642 71.700604-68.092909 71.700604-119.974889s-29.01608-96.981247-71.700604-119.974889z" fill="#EFEDFF" p-id="19200"></path><path d="M329.814453 592.286133a135.674849 135.674849 0 0 1-7.207147-43.706463 135.90973 135.90973 0 0 1 7.207147-43.706463c11.123895-32.829811 34.391565-60.053376 64.495517-76.268426-19.198455-10.343018-41.157795-16.221231-64.493457-16.221232-75.219702 0-136.196121 60.976419-136.196121 136.196121s60.976419 136.196121 136.196121 136.196121c23.335662 0 45.295002-5.878213 64.493457-16.221232-30.089529-16.208869-53.365441-43.457159-64.495517-76.268426z" fill="#D4D4FF" p-id="19201"></path><path d="M373.520916 548.57967l16.264499-16.264499c12.069602-12.069602 12.069602-31.636861 0-43.706463-12.067541-12.069602-31.636861-12.069602-43.706463 0l-16.264499 16.264499-43.706463 43.706463 43.706463 43.706463 16.264499 16.264499c6.034801 6.034801 13.944531 9.053231 21.852201 9.053231s15.819461-3.01637 21.852201-9.053231c12.069602-12.069602 12.069602-31.636861 0-43.706463z" fill="#FF8E9E" p-id="19202"></path><path d="M329.814453 504.873207l-16.264499-16.264499c-12.067541-12.069602-31.636861-12.069602-43.706463 0s-12.069602 31.636861 0 43.706463l16.264499 16.264499-16.264499 16.264499c-12.069602 12.069602-12.069602 31.636861 0 43.706463 6.034801 6.034801 13.944531 9.053231 21.852201 9.053231s15.819461-3.01637 21.852201-9.053231l16.264499-16.264499a135.674849 135.674849 0 0 1-7.207146-43.706463 136.086922 136.086922 0 0 1 7.209207-43.706463z" fill="#EA5B70" p-id="19203"></path></svg>