<svg class="icon" viewBox="0 0 1024 1024" xmlns="http://www.w3.org/2000/svg" width="200" height="200"><path d="M836.511 237.193h-161.21c0 150.425-53.954 284.48-142.03 387.07-11.517 13.415-2.147 34.134 15.533 34.134h6.884v25.837c0 17.068 13.837 30.905 30.905 30.905h33.86v15.416c0 12.83 15.85 18.914 24.41 9.358a749.492 749.492 0 0 0 132.215-208.465c39.435-93.242 59.433-192.246 59.433-294.255z" fill="#E8B5B1"/><path d="m967.977 176.973-6-1.38 1.384-5.986c8.93-38.58-23.863-74.029-62.4-68.734-31.284 4.298-54.51 21.389-75.469 44.589h-195.94v258.777h97.97c8.926 38.782 43.733 78.891 67.003 100.533 56.093 52.175 113.685 14.4 112.022-33.077l-.214-6.138 6.154-.214c61.055-2.126 93.134-95.308-27.347-146.049 44.512-3.877 92.436-19.089 117.422-56.254 21.644-32.195 4.133-77.152-34.585-86.067z" fill="#FFB5C0"/><path d="M823.747 31.116c-17.134-34.798-69.125-42.15-96.225-13.164-27.1-28.985-79.093-21.634-96.225 13.164-15.655 31.793-12.302 80.222-1.745 114.348-20.96-23.2-44.185-40.29-75.47-44.589-38.538-5.295-71.331 30.154-62.4 68.734l1.385 5.985-6 1.38c-38.72 8.916-56.23 53.873-34.585 86.07 24.98 37.155 72.888 52.375 117.422 56.254-120.481 50.741-88.4 143.92-27.347 146.05l6.154.213-.214 6.138c-1.663 47.477 55.929 85.25 112.022 33.077 23.27-21.642 58.078-61.75 67.003-100.533-2.676-10.706-4.953-31.923-4.953-48.371l65.678-175.84c8.476-7.864 27.47-27.817 37.245-34.568 10.555-34.128 13.91-82.555-1.745-114.348z" fill="#FF8E9E"/><path d="M788.247 180.03H722.57v175.84c1.64.08 3.292.123 4.953.123 54.377 0 98.459-44.081 98.459-98.458-.002-31.464-14.76-59.48-37.734-77.505z" fill="#FFDBE0"/><path d="M727.522 159.079c-54.377 0-98.458 44.081-98.458 98.458 0 52.716 41.43 95.753 93.505 98.335 0-65.666 16.475-130.182 65.678-175.84a98.032 98.032 0 0 0-60.725-20.953z" fill="#FFB5C0"/><path d="M502.116 776.952h-8.241V748.91c0-15.85-12.849-28.7-28.699-28.7h-28.86a24.951 24.951 0 0 0-14.257 4.53c-97.204 67.728-215.046 106.879-340.174 107.143-44.636.094-82.34 36.822-81.879 81.456.46 44.127 36.37 79.757 80.604 79.757 153.645 0 304.797-48.2 431.28-135.846 10.933-7.58 18.925-21.317 18.925-36.85v-14.748c0-15.85-10.57-28.699-28.699-28.699z" fill="#D6948C"/><path d="M1023.981 635.616c0-22.357-19.927-43.853-45.408-43.853-26.964 0-45.703 23.061-45.703 42.695 0-19.914-18.304-42.695-45.161-42.695-25.089 0-45.487 17.606-45.489 42.695v-.058c-.033-23.556-21.856-42.635-45.412-42.635-23.579 0-45.413 19.114-45.413 42.695H705.79v316.074L845.051 1024h99.122v-54.515c48.178-32.715 79.831-87.943 79.831-150.565z" fill="#FFDDCF"/><path d="M751.395 709.004v-74.548c-1.318-23.63-20.869-42.693-45.56-42.693-26.544 0-45.194 20.165-45.194 46.813l-.089 64.055c-14.985 0-28.847 4.298-40.103 12.508-16.994 12.393-28.043 33.003-28.043 55.638v48.14c0 62.341 31.37 117.347 79.18 150.115V1024H845.05c-60.918-85.569-93.656-209.955-93.656-314.996z" fill="#FFCBBE"/><path d="M394.31 428.605H332.5L260.795 548.58 332.5 668.555h61.811c42.684-22.994 71.7-68.093 71.7-119.975s-29.016-96.982-71.7-119.975z" fill="#EFEDFF"/><path d="M329.814 592.286a135.675 135.675 0 0 1-7.207-43.706 135.91 135.91 0 0 1 7.207-43.707c11.124-32.83 34.392-60.053 64.496-76.268-19.198-10.343-41.158-16.221-64.493-16.221-75.22 0-136.197 60.976-136.197 136.196s60.977 136.196 136.197 136.196c23.335 0 45.295-5.878 64.493-16.221-30.09-16.21-53.365-43.458-64.496-76.269z" fill="#D4D4FF"/><path d="m373.52 548.58 16.265-16.265c12.07-12.07 12.07-31.637 0-43.706-12.067-12.07-31.636-12.07-43.706 0l-16.265 16.264-43.706 43.707 43.706 43.706 16.265 16.265c6.035 6.034 13.944 9.053 21.852 9.053s15.82-3.017 21.852-9.053c12.07-12.07 12.07-31.637 0-43.707z" fill="#FF8E9E"/><path d="M329.814 504.873 313.55 488.61c-12.068-12.07-31.637-12.07-43.707 0s-12.07 31.637 0 43.706l16.265 16.265-16.265 16.264c-12.07 12.07-12.07 31.637 0 43.707 6.035 6.034 13.945 9.053 21.853 9.053s15.82-3.017 21.852-9.053l16.264-16.265a135.675 135.675 0 0 1-7.207-43.706 136.087 136.087 0 0 1 7.21-43.707z" fill="#EA5B70"/></svg>