<svg class="icon" viewBox="0 0 1024 1024" xmlns="http://www.w3.org/2000/svg" width="200" height="200"><path d="M659.61 0H364.39c-34.139 0-61.811 27.673-61.811 61.81L512 164.83 721.421 61.811C721.421 27.673 693.75 0 659.611 0zM20.29 225.208c-27.052 27.055-27.052 70.918 0 97.97l86.713 86.713c27.052 27.052 70.915 27.052 97.968 0V225.208z" fill="#70DCBA"/><path d="M1003.71 225.208H819.03V409.89c27.053 27.052 70.914 27.052 97.968 0l86.713-86.713c27.05-27.052 27.05-70.915-.002-97.97z" fill="#B0EBD8"/><path d="M766.436 563.484v-206.19l52.595 52.594 184.679-184.682L922.8 145.29A289.316 289.316 0 0 0 719.49 61.81h-71.577a192.817 192.817 0 0 0-99.349 27.565L320.244 226.64v336.844l-82.414 77.22v340.548C324.24 1009.005 416.366 1024 511.998 1024c131.797 0 256.946-28.462 369.635-79.577 41.115-18.649 62.048-65.102 48.726-108.235a664.848 664.848 0 0 0-163.923-272.704z" fill="#FFB5C0"/><path d="M302.579 61.81a289.32 289.32 0 0 0-205.826 85.994L20.29 225.208 204.971 409.89l52.59-52.591v206.186a664.858 664.858 0 0 0-163.922 272.7c-13.285 43.016 7.142 89.337 48.126 107.965a889.984 889.984 0 0 0 96.065 37.103c0-83.888 18.702-159.952 59.775-231.451 47.069-81.937 109.751-163.061 134.665-186.319l79.73-79.73V276.48c0-94.212 57.004-179.058 144.225-214.67z" fill="#FF8E9E"/><path d="M641.947 682.42c0-22.758 18.449-41.206 41.207-41.206s41.208 18.448 41.208 41.207c22.758 0 41.207 18.448 41.207 41.207s-18.449 41.207-41.207 41.207c0 22.759-18.449 41.208-41.208 41.208s-41.207-18.449-41.207-41.208c-22.759 0-41.207-18.448-41.207-41.207s18.448-41.207 41.207-41.207z" fill="#FFDBE0"/><path d="M659.522 723.628a23.632 23.632 0 1 0 47.265 0 23.632 23.632 0 1 0-47.265 0z" fill="#FFB5C0"/><path d="M297.867 733.93c0-39.827 32.285-72.113 72.112-72.113s72.113 32.286 72.113 72.113c39.827 0 72.113 32.286 72.113 72.113s-32.286 72.112-72.113 72.112c0 39.827-32.286 72.113-72.113 72.113s-72.112-32.286-72.112-72.113c-39.827 0-72.113-32.286-72.113-72.112s32.286-72.113 72.113-72.113z" fill="#FFDBE0"/><path d="M328.624 806.043a41.356 41.356 0 1 0 82.71 0 41.356 41.356 0 1 0-82.71 0z" fill="#FFB5C0"/><path d="M766.436 357.294H540.653L400.436 400.83v130.827l31.834 31.826h334.164c25.802-64.501 27.108-138.378.002-206.19z" fill="#70DCBA"/><path d="M257.56 357.298a277.772 277.772 0 0 0 0 206.186h174.71l.002-43.813c0-56.712 31.608-94.703 79.726-137.115l28.653-25.258H400.433z" fill="#30CD9C"/><path d="M511.994 279.731a1286.498 1286.498 0 0 0-11.138-12.922c-39.104-46.676-105.431-72.811-165.429-49.045-62.767 23.33-102.983 87.301-116.526 127.33-12.195 37.946-3.033 56.353 12.04 70.123 17.584 16.062 40.825 24.495 64.64 24.495h314.566z" fill="#70DCBA"/><path d="M805.087 345.094c-13.543-40.029-53.76-104-116.524-127.33-60-23.766-126.333 2.37-165.427 49.045a1235.86 1235.86 0 0 0-11.14 12.922l98.151 159.981h118.308c22.879 0 45.23-7.809 62.578-22.724 16.277-13.991 26.797-32.252 14.054-71.894z" fill="#B0EBD8"/><path d="M512.21 387.923c-37.54 0-75.147-4.525-111.012-13.574-12.113-3.055-22.652-4.42-34.171-4.42-17.606 0-35.574 3.242-53.403 9.633a15.455 15.455 0 0 1-10.431-29.092c21.184-7.595 42.661-11.446 63.832-11.446 13.983 0 27.244 1.704 41.732 5.36 66.775 16.847 140.01 16.87 206.23.061 14.571-3.696 27.91-5.419 41.976-5.419 21.172 0 42.647 3.851 63.83 11.444a15.453 15.453 0 1 1-10.428 29.092c-17.828-6.391-35.796-9.63-53.404-9.63-11.59 0-22.192 1.378-34.375 4.469-35.517 9.014-72.912 13.522-110.376 13.522z" fill="#30CD9C"/><path d="m512.105 279.733-.11-.002-61.81 40.563v148.344h138.644c20.509-19.994 33.25-47.918 33.25-78.824 0-60.76-49.228-110.02-109.974-110.08z" fill="#70DCBA"/><path d="M478.855 358.557c0-30.906 12.632-58.832 33.14-78.826-60.796 0-110.082 49.286-110.082 110.083s49.286 110.083 110.083 110.083c29.892 0 56.996-11.919 76.833-31.26-60.748-.057-109.974-49.32-109.974-110.08z" fill="#30CD9C"/></svg>