<?xml version="1.0" standalone="no"?><!DOCTYPE svg PUBLIC "-//W3C//DTD SVG 1.1//EN" "http://www.w3.org/Graphics/SVG/1.1/DTD/svg11.dtd"><svg t="1624436398008" class="icon" viewBox="0 0 1024 1024" version="1.1" xmlns="http://www.w3.org/2000/svg" p-id="19334" xmlns:xlink="http://www.w3.org/1999/xlink" width="200" height="200"><defs><style type="text/css"></style></defs><path d="M659.610527 0H364.389473c-34.138141 0-61.810865 27.672724-61.810865 61.810865L512 164.828974l209.421392-103.018109c0-34.138141-27.672724-61.810865-61.810865-61.810865zM20.290447 225.207887c-27.052555 27.054616-27.052555 70.917666 0 97.970222l86.712402 86.712402c27.052555 27.052555 70.915606 27.052555 97.968161 0v-184.682624z" fill="#70DCBA" p-id="19335"></path><path d="M1003.709553 225.207887h-184.678503v184.682624c27.052555 27.052555 70.913545 27.052555 97.968161 0l86.712403-86.712402c27.050495-27.052555 27.050495-70.915606-0.002061-97.970222z" fill="#B0EBD8" p-id="19336"></path><path d="M766.436185 563.48433V357.293586l52.594865 52.594865 184.678503-184.682624-80.908362-79.915268A289.316056 289.316056 0 0 0 719.488773 61.810865H647.911791a192.816934 192.816934 0 0 0-99.348604 27.565586L320.244153 226.639839v336.844491l-82.414487 77.220314v340.546962C324.241256 1009.004684 416.366229 1024 511.99794 1024c131.797247 0 256.945706-28.461843 369.635155-79.577368 41.114527-18.648338 62.047807-65.101264 48.725505-108.234946a664.847968 664.847968 0 0 0-163.922415-272.703356z" fill="#FFB5C0" p-id="19337"></path><path d="M302.578608 61.810865a289.320177 289.320177 0 0 0-205.826061 85.993336L20.290447 225.207887l184.680563 184.682624 52.590745-52.590744v206.186623a664.85827 664.85827 0 0 0-163.922415 272.699236c-13.285215 43.016241 7.141215 89.337304 48.12594 107.965038a889.983742 889.983742 0 0 0 96.064386 37.103002c0-83.887646 18.701907-159.952097 59.775227-231.450785 47.068974-81.936483 109.751372-163.061183 134.665272-186.318551l79.729835-79.729835V276.48c0-94.212121 57.00404-179.057835 144.225352-214.669135z" fill="#FF8E9E" p-id="19338"></path><path d="M641.947042 682.420797c0-22.758761 18.448483-41.207243 41.207244-41.207244s41.207243 18.448483 41.207243 41.207244c22.758761 0 41.207243 18.448483 41.207244 41.207243s-18.448483 41.207243-41.207244 41.207244c0 22.758761-18.448483 41.207243-41.207243 41.207243s-41.207243-18.448483-41.207244-41.207243c-22.758761 0-41.207243-18.448483-41.207243-41.207244s18.448483-41.207243 41.207243-41.207243z" fill="#FFDBE0" p-id="19339"></path><path d="M683.154286 723.62804m-23.632354 0a23.632354 23.632354 0 1 0 47.264708 0 23.632354 23.632354 0 1 0-47.264708 0Z" fill="#FFB5C0" p-id="19340"></path><path d="M297.866559 733.929851c0-39.826801 32.285875-72.112676 72.112676-72.112676s72.112676 32.285875 72.112676 72.112676c39.826801 0 72.112676 32.285875 72.112677 72.112676s-32.285875 72.112676-72.112677 72.112676c0 39.826801-32.285875 72.112676-72.112676 72.112676s-72.112676-32.285875-72.112676-72.112676c-39.826801 0-72.112676-32.285875-72.112676-72.112676s32.285875-72.112676 72.112676-72.112676z" fill="#FFDBE0" p-id="19341"></path><path d="M369.979235 806.042527m-41.355589 0a41.35559 41.35559 0 1 0 82.711179 0 41.35559 41.35559 0 1 0-82.711179 0Z" fill="#FFB5C0" p-id="19342"></path><path d="M766.436185 357.293586H540.653457l-140.217948 43.537513v130.826816l31.834656 31.826415H766.434125c25.801915-64.501698 27.108185-138.378044 0.00206-206.190744z" fill="#70DCBA" p-id="19343"></path><path d="M257.559694 357.297706a277.771847 277.771847 0 0 0 0 206.186624h174.710471l0.00206-43.813602c0-56.711469 31.608016-94.702487 79.725715-137.115042l28.653456-25.25798h-140.217947z" fill="#30CD9C" p-id="19344"></path><path d="M511.993819 279.731252a1286.498382 1286.498382 0 0 0-11.138318-12.922592c-39.103614-46.675445-105.430793-72.811139-165.428539-49.044861-62.766873 23.329481-102.983082 87.301666-116.525843 127.330382-12.195284 37.94569-3.032853 56.352966 12.040756 70.122366 17.583131 16.062584 40.824016 24.495646 64.639743 24.495646h314.565794z" fill="#70DCBA" p-id="19345"></path><path d="M805.086519 345.094181c-13.542761-40.028716-53.75897-104.000901-116.523783-127.330382-59.999807-23.766278-126.333167 2.369416-165.426478 49.044861a1235.860861 1235.860861 0 0 0-11.140379 12.922592l98.151533 159.980941h118.308057c22.878262 0 45.22907-7.808773 62.57732-22.723734 16.276861-13.99192 26.79707-32.252909 14.05373-71.894278z" fill="#B0EBD8" p-id="19346"></path><path d="M512.210157 387.92293c-37.539799 0-75.14759-4.524555-111.012314-13.573666-12.112869-3.055517-22.651622-4.419477-34.171107-4.419477-17.605795 0-35.574213 3.24095-53.402527 9.632193a15.454777 15.454777 0 0 1-10.431613-29.092314c21.184644-7.594495 42.661859-11.445312 63.83208-11.445312 13.983678 0 27.244169 1.70392 41.732636 5.359002 66.774278 16.847581 140.009851 16.870245 206.229891 0.061811 14.570881-3.69629 27.909666-5.418753 41.975759-5.418753 21.172282 0 42.647437 3.850817 63.83002 11.443252a15.452716 15.452716 0 1 1-10.427493 29.092314c-17.828314-6.391243-35.796732-9.630133-53.404588-9.630133-11.589537 0-22.192161 1.378382-34.375082 4.468926-35.516523 9.014085-72.912097 13.522157-110.375662 13.522157z" fill="#30CD9C" p-id="19347"></path><path d="M512.105078 279.733312l-0.109199-0.00206-61.810865 40.56235v148.344016h138.643831c20.508845-19.993755 33.250125-47.917843 33.250125-78.823276 0-60.76008-49.228233-110.02128-109.973892-110.08103z" fill="#70DCBA" p-id="19348"></path><path d="M478.854954 358.556588c0-30.905433 12.63208-58.831581 33.140925-78.825336-60.797167 0-110.083091 49.285924-110.08309 110.08309s49.285924 110.083091 110.08309 110.083091c29.891734 0 56.995799-11.919195 76.832966-31.259815-60.747718-0.05769-109.973891-49.32095-109.973891-110.08103z" fill="#30CD9C" p-id="19349"></path></svg>