<svg class="icon" viewBox="0 0 1024 1024" xmlns="http://www.w3.org/2000/svg" width="200" height="200"><path d="M61.88 663.107c-21.74 81.246-.913 171.628 63.237 235.775 63.813 63.816 154.274 85.036 235.78 63.256l-63.194-235.842zM121.49 68.651l176.214 657.645.437.118 484.634-484.635-.138-.14C609.535 68.536 356.541 2.61 121.49 68.651z" fill="#FF8E9E"/><path d="M782.774 241.78 298.14 726.411 955.35 902.51c65.987-234.865.216-487.64-172.576-660.732z" fill="#FFB5C0"/><path d="M360.857 1024c-27.31 0-52.304-18.226-59.707-45.862L59.927 77.878C51.086 44.88 70.666 10.963 103.662 2.122c33.005-8.837 66.917 10.743 75.756 43.738L420.64 946.122c8.84 32.997-10.74 66.915-43.738 75.756a61.96 61.96 0 0 1-16.046 2.122z" fill="#D6948C"/><path d="M81.38 942.62c-24.156-24.156-24.156-63.317 0-87.473l658.825-658.825c24.154-24.156 63.319-24.156 87.473 0 24.155 24.155 24.155 63.319 0 87.474L168.852 942.62c-24.15 24.153-63.317 24.158-87.473 0z" fill="#E8B5B1"/><path d="M946.124 964.072 45.86 722.85c-32.997-8.84-52.579-42.756-43.738-75.753 8.84-32.997 42.75-52.585 75.756-43.737l900.263 241.223c32.996 8.84 52.578 42.758 43.737 75.755-8.837 32.978-42.742 52.585-75.755 43.735z" fill="#F2D4D3"/><path d="M266.798 726.296a30.905 30.905 0 1 0 61.81 0 30.905 30.905 0 1 0-61.81 0z" fill="#FF8E9E"/><path d="M741.149 560.027c0-22.759 18.448-41.207 41.207-41.207s41.207 18.448 41.207 41.207c22.759 0 41.207 18.449 41.207 41.207s-18.448 41.208-41.207 41.208c0 22.758-18.448 41.207-41.207 41.207s-41.207-18.449-41.207-41.207c-22.76 0-41.208-18.449-41.208-41.208s18.449-41.207 41.208-41.207z" fill="#FFDBE0"/><path d="M758.724 601.234a23.632 23.632 0 1 0 47.264 0 23.632 23.632 0 1 0-47.264 0z" fill="#FFB5C0"/><path d="M368.3 196.592c0-35.276 28.595-63.872 63.87-63.872s63.872 28.596 63.872 63.872c35.275 0 63.871 28.595 63.871 63.87s-28.596 63.872-63.871 63.872c0 35.275-28.596 63.871-63.871 63.871s-63.872-28.596-63.872-63.871c-35.275 0-63.87-28.596-63.87-63.871s28.595-63.871 63.87-63.871z" fill="#FFDBE0"/><path d="M396.114 260.463a36.056 36.056 0 1 0 72.113 0 36.056 36.056 0 1 0-72.113 0z" fill="#FF8E9E"/></svg>