<?xml version="1.0" standalone="no"?><!DOCTYPE svg PUBLIC "-//W3C//DTD SVG 1.1//EN" "http://www.w3.org/Graphics/SVG/1.1/DTD/svg11.dtd"><svg t="1624436346366" class="icon" viewBox="0 0 1024 1024" version="1.1" xmlns="http://www.w3.org/2000/svg" p-id="17447" xmlns:xlink="http://www.w3.org/1999/xlink" width="200" height="200"><defs><style type="text/css"></style></defs><path d="M61.880176 663.106962c-21.740942 81.246262-0.91274 171.628169 63.236636 235.775485 63.813537 63.815598 154.273738 85.035268 235.779605 63.255179L297.703049 726.296209zM121.488514 68.651268l176.214535 657.644941 0.436797 0.117441L782.774115 241.77938l-0.138044-0.140104C609.534743 68.535887 356.540812 2.608419 121.488514 68.651268z" fill="#FF8E9E" p-id="17448"></path><path d="M782.774115 241.77938L298.139846 726.41159l657.210205 176.099154c65.987219-234.864805 0.216338-487.640338-172.575936-660.731364z" fill="#FFB5C0" p-id="17449"></path><path d="M360.85727 1024c-27.310101 0-52.304354-18.225964-59.707235-45.861602L59.926952 77.877569C51.085938 44.880869 70.66556 10.963187 103.66226 2.122173 136.667202-6.71472 170.578703 12.864901 179.417657 45.859541l241.223082 900.26289c8.841014 32.9967-10.740668 66.914382-43.737368 75.755396a61.959211 61.959211 0 0 1-16.046101 2.122173z" fill="#D6948C" p-id="17450"></path><path d="M81.379443 942.619815c-24.155686-24.155686-24.155686-63.31699 0-87.472676L740.204973 196.32161c24.153626-24.155686 63.31905-24.155686 87.472676 0 24.155686 24.155686 24.155686 63.31905 0 87.474736L168.852119 942.619815c-24.149505 24.153626-63.31699 24.157746-87.472676 0z" fill="#E8B5B1" p-id="17451"></path><path d="M946.123749 964.072306L45.86086 722.849223C12.86416 714.008209-6.717522 680.092588 2.123492 647.095887c8.838954-32.9967 42.750455-52.584563 75.755396-43.737368l900.262889 241.223083c32.9967 8.841014 52.578382 42.758696 43.737369 75.755396-8.836893 32.978157-42.742213 52.584563-75.755397 43.735308z" fill="#F2D4D3" p-id="17452"></path><path d="M297.703049 726.296209m-30.905433 0a30.905433 30.905433 0 1 0 61.810866 0 30.905433 30.905433 0 1 0-61.810866 0Z" fill="#FF8E9E" p-id="17453"></path><path d="M741.148618 560.027042c0-22.758761 18.448483-41.207243 41.207244-41.207243s41.207243 18.448483 41.207243 41.207243c22.758761 0 41.207243 18.448483 41.207244 41.207244s-18.448483 41.207243-41.207244 41.207243c0 22.758761-18.448483 41.207243-41.207243 41.207244s-41.207243-18.448483-41.207244-41.207244c-22.758761 0-41.207243-18.448483-41.207243-41.207243s18.448483-41.207243 41.207243-41.207244z" fill="#FFDBE0" p-id="17454"></path><path d="M782.355862 601.234286m-23.632354 0a23.632354 23.632354 0 1 0 47.264708 0 23.632354 23.632354 0 1 0-47.264708 0Z" fill="#FFB5C0" p-id="17455"></path><path d="M368.299299 196.591517c0-35.275461 28.595767-63.871227 63.871227-63.871227s63.871227 28.595767 63.871227 63.871227c35.275461 0 63.871227 28.595767 63.871228 63.871227s-28.595767 63.871227-63.871228 63.871228c0 35.275461-28.595767 63.871227-63.871227 63.871227s-63.871227-28.595767-63.871227-63.871227c-35.275461 0-63.871227-28.595767-63.871228-63.871228s28.595767-63.871227 63.871228-63.871227z" fill="#FFDBE0" p-id="17456"></path><path d="M432.170526 260.462744m-36.056338 0a36.056338 36.056338 0 1 0 72.112676 0 36.056338 36.056338 0 1 0-72.112676 0Z" fill="#FF8E9E" p-id="17457"></path></svg>