<svg class="icon" viewBox="0 0 1024 1024" xmlns="http://www.w3.org/2000/svg" width="200" height="200"><path d="M215.496 368.904h42.51v43.706c-28.816 28.816-75.702 28.816-104.518 0s-28.817-75.702 0-104.518c19.386-19.386 19.384-50.926 0-70.31-19.386-19.386-50.926-19.386-70.31 0l-30.405 30.405c-12.07 12.07-31.637 12.07-43.706 0s-12.07-31.637 0-43.706l30.404-30.405c43.484-43.484 114.24-43.484 157.725 0 43.484 43.486 43.486 114.239 0 157.725-4.714 4.714-4.716 12.389 0 17.103s13.963 2.476 18.3 0z" fill="#9EA2E3"/><path d="M808.53 368.904h-42.509v43.706c28.816 28.816 75.702 28.816 104.518 0s28.816-75.702 0-104.518c-19.386-19.386-19.384-50.926 0-70.31 19.386-19.386 50.926-19.386 70.31 0l30.405 30.405c12.07 12.07 31.637 12.07 43.706 0s12.07-31.637 0-43.706l-30.405-30.405c-43.484-43.484-114.238-43.484-157.724 0-43.484 43.486-43.486 114.239 0 157.725 4.714 4.714 4.716 12.389 0 17.103s-13.966 2.476-18.3 0z" fill="#D4D4FF"/><path d="M849.995 394.615a601.65 601.65 0 0 0-41.465-25.711c-56.089-31.73-118.419-52.64-182.276-63.795-39.031-6.818-78.631-9.95-117.729-9.801l-177.65 68.886v481.93L650.68 924.95c93.718-35.762 174.64-109.327 215.693-220.724 24.001-65.133 37.11-135.543 37.11-209.022v-.639c-.044-40.086-20.332-77.467-53.488-99.95z" fill="#EFEDFF"/><path d="M407.796 679.52c-26.541-72.725-40.008-149.22-40.008-226.984v-.699c.045-43.844 22.238-84.73 58.502-109.322 25.987-17.623 53.784-33.382 82.235-47.21-36.973.215-74.158 3.417-110.753 9.802-64.013 11.171-126.213 32.086-182.276 63.795a603.633 603.633 0 0 0-41.464 25.71c-33.156 22.484-53.444 59.867-53.487 99.953v.639c0 73.479 13.108 143.89 37.109 209.02C237.53 920.972 468.33 994.537 650.68 924.95c-111.37-40.414-199.13-125.544-242.884-245.43z" fill="#D4D4FF"/><path d="M626.254 305.109 441.003 179.11c-15.191-16.814-32.026-29.203-54.7-32.318-27.933-3.839-51.701 21.856-45.23 49.817l1.004 4.337-4.348 1.001c-28.064 6.462-40.756 39.048-25.066 62.384a75.704 75.704 0 0 0 22.864 22.044c15.44 9.624 38.852 16.693 62.243 18.73-87.326 36.778-64.073 104.315-19.82 105.858l4.46.154-.156 4.449c-1.205 34.412 40.537 61.79 81.195 23.974 16.866-15.685 42.095-44.757 48.564-72.867 6.47 28.11 31.697 57.18 48.563 72.867 40.657 37.816 82.398 10.438 81.195-23.974l-.157-4.449 4.461-.154c44.252-1.541 67.506-69.078-19.82-105.855z" fill="#FF8E9E"/><path d="M637.722 146.795c-22.676 3.115-39.51 15.502-54.7 32.318 7.652-24.734 10.081-59.835-1.263-82.88-12.418-25.22-50.104-30.549-69.746-9.541-19.643-21.01-57.327-15.68-69.745 9.541-11.346 23.043-8.915 58.146-1.265 82.88 2.59 8.372 6.13 16.593 10.425 24.59 25.5 47.472 78.715 86.726 132.305 98.36 14.323 3.11 28.672 4.253 42.521 3.048 23.394-2.038 46.806-9.107 62.246-18.731a75.704 75.704 0 0 0 22.864-22.044c15.69-23.335 2.998-55.922-25.067-62.383l-4.35-1.002 1.004-4.339c6.474-27.963-17.294-53.656-45.229-49.817z" fill="#FFB5C0"/><path d="M583.733 302.061c18.5-31.758 14.154-73.167-13.057-100.38-32.403-32.404-84.932-32.393-117.325 0-.662.661-1.288 1.343-1.923 2.02l4.816 118.058z" fill="#FFDBE0"/><path d="M451.428 203.702c-30.441 32.525-29.815 83.566 1.923 115.304 32.415 32.416 84.944 32.38 117.325 0a83.094 83.094 0 0 0 13.059-16.945c-53.592-11.632-106.808-50.886-132.307-98.36z" fill="#FFB5C0"/><path d="M323.373 583.882c-33.403 0-60.482 21.564-60.482 48.163s27.077 48.165 60.482 48.165c33.402 0 60.482-21.564 60.482-48.165s-27.078-48.163-60.482-48.163zm377.281 0c-33.403 0-60.482 21.564-60.482 48.163s27.08 48.165 60.482 48.165 60.482-21.564 60.482-48.165-27.08-48.163-60.482-48.163z" fill="#FF8E9E"/><path d="M708.85 581.865c-17.787-20.383-49.477-20.4-67.27.06a15.449 15.449 0 0 0 1.516 21.798 15.449 15.449 0 0 0 21.798-1.516 13.689 13.689 0 0 1 20.672-.02 15.447 15.447 0 0 0 21.803 1.48 15.453 15.453 0 0 0 1.481-21.802zm-389.532.315a15.449 15.449 0 0 0 1.516 21.799 15.449 15.449 0 0 0 21.8-1.517 13.689 13.689 0 0 1 20.673-.018 15.461 15.461 0 0 0 21.805 1.48 15.457 15.457 0 0 0 1.479-21.806c-17.863-20.461-49.55-20.319-67.273.062zm253.585 14.025c-37.62 30.102-84.565 30.957-122.429 3.812a15.455 15.455 0 0 0-18.007 25.12c48.499 34.77 110.707 34.44 159.744-4.797a15.453 15.453 0 0 0 2.413-21.72 15.45 15.45 0 0 0-21.72-2.415z" fill="#313D40"/></svg>