<?xml version="1.0" standalone="no"?><!DOCTYPE svg PUBLIC "-//W3C//DTD SVG 1.1//EN" "http://www.w3.org/Graphics/SVG/1.1/DTD/svg11.dtd"><svg t="1624436407264" class="icon" viewBox="0 0 1024 1024" version="1.1" xmlns="http://www.w3.org/2000/svg" p-id="19773" xmlns:xlink="http://www.w3.org/1999/xlink" width="200" height="200"><defs><style type="text/css"></style></defs><path d="M215.49637 368.903726h42.509393v43.706463c-28.816225 28.816225-75.701827 28.816225-104.518053 0s-28.816225-75.701827 0-104.518052c19.385948-19.385948 19.383887-50.925972 0-70.309859-19.385948-19.385948-50.925972-19.385948-70.309859 0l-30.404764 30.404764c-12.069602 12.069602-31.636861 12.069602-43.706463 0s-12.069602-31.636861 0-43.706463l30.404764-30.404764c43.483944-43.483944 114.238841-43.483944 157.724845 0 43.483944 43.486004 43.486004 114.238841 0 157.724845-4.714109 4.714109-4.716169 12.388958 0 17.103066s13.963074 2.476555 18.300137 0z" fill="#9EA2E3" p-id="19774"></path><path d="M808.530414 368.903726h-42.509392v43.706463c28.816225 28.816225 75.701827 28.816225 104.518052 0s28.816225-75.701827 0-104.518052c-19.385948-19.385948-19.383887-50.925972 0-70.309859 19.385948-19.385948 50.925972-19.385948 70.30986 0l30.404764 30.404764c12.069602 12.069602 31.636861 12.069602 43.706463 0s12.069602-31.636861 0-43.706463l-30.404765-30.404764c-43.483944-43.483944-114.238841-43.483944-157.724845 0-43.483944 43.486004-43.486004 114.238841 0 157.724845 4.714109 4.714109 4.716169 12.388958 0 17.103066s-13.965135 2.476555-18.300137 0z" fill="#D4D4FF" p-id="19775"></path><path d="M849.995203 394.614986a601.650479 601.650479 0 0 0-41.464789-25.71126c-56.089239-31.729577-118.419316-52.640193-182.27612-63.794994-39.031501-6.817738-78.631662-9.949489-117.729095-9.801142l-177.650607 68.886148v481.931075l319.805295 78.825336c93.717634-35.761706 174.640419-109.326938 215.693135-220.724539 24.001159-65.132169 37.109183-135.542986 37.109183-209.021682v-0.638713c-0.043268-40.086406-20.331654-77.467557-53.487002-99.950229z" fill="#EFEDFF" p-id="19776"></path><path d="M407.796153 679.519807c-26.541586-72.724604-40.008113-149.21967-40.008113-226.98392v-0.698462c0.045328-43.844507 22.237489-84.730334 58.501924-109.322817 25.987348-17.622278 53.783694-33.381988 82.235235-47.209079-36.973199 0.214278-74.158616 3.41608-110.752708 9.801143-64.013392 11.171284-126.213666 32.08602-182.276121 63.794994a603.632547 603.632547 0 0 0-41.464789 25.71126c-33.155348 22.482672-53.443734 59.865883-53.487002 99.952289v0.638713c0 73.478696 13.108024 143.889513 37.109184 209.019621 79.876121 216.74804 310.675831 290.313272 493.026124 220.7266-111.370817-40.414004-199.129883-125.544048-242.883734-245.430342z" fill="#D4D4FF" p-id="19777"></path><path d="M626.254294 305.108732l-185.251284-125.997328c-15.19105-16.814616-32.02627-29.203573-54.700555-32.318841-27.93233-3.838455-51.700668 21.856322-45.229071 49.817497l1.003397 4.337063-4.347365 1.001336c-28.064193 6.461296-40.756024 39.047984-25.066366 62.383646a75.703887 75.703887 0 0 0 22.863839 22.043815c15.440354 9.623952 38.852249 16.693054 62.243542 18.730752-87.32639 36.777465-64.073143 104.314076-19.820685 105.857288l4.460685 0.154527-0.156588 4.448322c-1.205312 34.412169 40.537626 61.790262 81.194753 23.974374 16.866125-15.685537 42.09526-44.757247 48.564796-72.866769 6.469537 28.109521 31.696612 57.179171 48.562737 72.866769 40.657127 37.815887 82.398004 10.437795 81.194752-23.974374l-0.156587-4.448322 4.460684-0.154527c44.252459-1.541151 67.505706-69.077763-19.820684-105.855228z" fill="#FF8E9E" p-id="19778"></path><path d="M637.72227 146.794624c-22.676346 3.115268-39.509505 15.502165-54.700556 32.318841 7.652185-24.734648 10.081352-59.834978-1.263002-82.880129-12.417803-25.220893-50.103887-30.54899-69.74532-9.541537-19.643493-21.009513-57.327517-15.679356-69.74532 9.541537-11.346414 23.043091-8.915187 58.145481-1.265062 82.880129 2.589875 8.371252 6.129577 16.592097 10.425433 24.590422 25.499042 47.470744 78.714076 86.724765 132.304096 98.35963 14.323638 3.109087 28.672 4.252588 42.521755 3.047276 23.393352-2.037698 46.805247-9.106801 62.245601-18.730753a75.703887 75.703887 0 0 0 22.863839-22.043815c15.689658-23.335662 2.997827-55.92235-25.066366-62.383646l-4.349424-1.001336 1.003396-4.339122c6.473658-27.963235-17.29468-53.655952-45.22907-49.817497z" fill="#FFB5C0" p-id="19779"></path><path d="M583.732539 302.061457c18.499992-31.758423 14.154688-73.167581-13.056515-100.380845-32.403316-32.403316-84.932249-32.393014-117.325263 0-0.661376 0.661376-1.287726 1.343356-1.922318 2.021215l4.815066 118.056692z" fill="#FFDBE0" p-id="19780"></path><path d="M451.428443 203.701827c-30.441851 32.524877-29.815501 83.566229 1.922318 115.304048 32.415678 32.415678 84.944612 32.380652 117.325263 0a83.094406 83.094406 0 0 0 13.058576-16.944418c-53.59208-11.632805-106.807115-50.886825-132.306157-98.35963z" fill="#FFB5C0" p-id="19781"></path><path d="M323.372813 583.881915c-33.402592 0-60.481932 21.563751-60.481932 48.163027s27.07728 48.165087 60.481932 48.165086c33.402592 0 60.481932-21.563751 60.481931-48.165086s-27.07728-48.163026-60.481931-48.163027zM700.653972 583.881915c-33.402592 0-60.481932 21.563751-60.481932 48.163027s27.07934 48.165087 60.481932 48.165086 60.481932-21.563751 60.481931-48.165086-27.07934-48.163026-60.481931-48.163027z" fill="#FF8E9E" p-id="19782"></path><path d="M708.850093 581.864821c-17.787107-20.383163-49.477537-20.399646-67.270825 0.05975a15.448596 15.448596 0 0 0 1.516426 21.798632 15.448596 15.448596 0 0 0 21.798632-1.516426 13.689046 13.689046 0 0 1 20.671614-0.020604 15.446535 15.446535 0 0 0 21.802752 1.4814 15.452716 15.452716 0 0 0 1.481401-21.802752zM319.31802 582.180056a15.448596 15.448596 0 0 0 1.516427 21.798632 15.448596 15.448596 0 0 0 21.798631-1.516426 13.689046 13.689046 0 0 1 20.673675-0.018544 15.460958 15.460958 0 0 0 21.804812 1.47934 15.456837 15.456837 0 0 0 1.47934-21.804813c-17.86334-20.461457-49.54965-20.319292-67.272885 0.061811zM572.903276 596.204942c-37.620153 30.101891-84.565505 30.956942-122.428781 3.81167a15.454777 15.454777 0 0 0-18.007565 25.119935c48.498865 34.770672 110.70738 34.441014 159.744-4.796523a15.452716 15.452716 0 0 0 2.412684-21.720338 15.450656 15.450656 0 0 0-21.720338-2.414744z" fill="#313D40" p-id="19783"></path></svg>