<?xml version="1.0" standalone="no"?><!DOCTYPE svg PUBLIC "-//W3C//DTD SVG 1.1//EN" "http://www.w3.org/Graphics/SVG/1.1/DTD/svg11.dtd"><svg t="1624436401367" class="icon" viewBox="0 0 1024 1024" version="1.1" xmlns="http://www.w3.org/2000/svg" p-id="19480" xmlns:xlink="http://www.w3.org/1999/xlink" width="200" height="200"><defs><style type="text/css"></style></defs><path d="M629.976279 898.936079c-22.970966-28.845056-55.565879-49.57847-92.82339-57.179142h-41.915987l-106.615448 86.009775V1003.396389l20.603612 20.603611h255.907155v-24.353469c0.00206-38.079595-13.173949-73.107794-35.155942-100.710452z" fill="#FFDDCF" p-id="19481"></path><path d="M537.152889 841.756937A158.396443 158.396443 0 0 0 505.454233 838.567498c-50.297536 0-95.229892 23.589075-124.519986 60.368581-21.981993 27.602658-35.155942 62.630858-35.155942 100.710452V1024h63.448821v-24.353469c-0.00206-77.749788 55.063151-143.001425 127.925763-157.889594z" fill="#FFCBBE" p-id="19482"></path><path d="M676.431241 961.422712a177.388852 177.388852 0 0 1 4.155749 38.221759V1024h-131.280031v-62.577288z" fill="#FFDBE0" p-id="19483"></path><path d="M635.298191 906.058747c11.69667-2.107749 20.786984 3.201801 25.198217 11.63486a176.278318 176.278318 0 0 1 15.934833 43.729105l-30.114238 5.455836c-37.836472 6.854822-72.316616 27.489338-97.010044 57.121452H475.284365c32.092185-60.797136 90.5982-105.366869 160.013826-117.941253zM334.479284 961.422712a177.388852 177.388852 0 0 0-4.155748 38.221759V1024h131.280031v-62.577288z" fill="#FFB5C0" p-id="19484"></path><path d="M375.612334 906.058747c-11.69667-2.107749-20.786984 3.201801-25.198217 11.63486a176.278318 176.278318 0 0 0-15.934833 43.729105l30.114239 5.455836c37.836472 6.854822 72.316616 27.489338 97.010044 57.121452h74.022594c-32.092185-60.797136-90.59614-105.366869-160.013827-117.941253z" fill="#FF8E9E" p-id="19485"></path><path d="M278.816568 227.338703a226.639725 133.923474 0 1 0 453.27945 0 226.639725 133.923474 0 1 0-453.27945 0Z" fill="#4C5699" p-id="19486"></path><path d="M804.208658 498.60791h-597.50473c-39.826781 0-72.11264 32.285859-72.11264 72.11264s32.285859 72.11264 72.11264 72.11264h597.50473c39.826781 0 72.11264-32.285859 72.11264-72.11264s-32.285859-72.11264-72.11264-72.11264z" fill="#FFCBBE" p-id="19487"></path><path d="M555.207833 276.115692h-91.263696L206.703928 570.72055l257.242269 294.604858h91.263697C696.519762 841.633315 804.208658 718.763679 804.208658 570.72055s-107.688896-270.912765-249.000825-294.604858z" fill="#FFDDCF" p-id="19488"></path><path d="M305.805239 571.136743c0-148.304795 107.882569-271.39695 249.404655-295.021051A300.637595 300.637595 0 0 0 505.456293 271.968185c-164.608432 0-298.752365 133.428987-298.752365 298.752365 0 165.444939 134.261373 298.752365 298.752365 298.752365 16.952651 0 33.569464-1.434011 49.753601-4.147507-141.522086-23.624101-249.404655-145.887991-249.404655-294.188665z" fill="#FFCBBE" p-id="19489"></path><path d="M282.93729 668.847309a59.750473 47.388306 0 1 0 119.500946 0 59.750473 47.388306 0 1 0-119.500946 0Z" fill="#FF8E9E" p-id="19490"></path><path d="M608.47435 668.847309a59.750473 47.388306 0 1 0 119.500946 0 59.750473 47.388306 0 1 0-119.500946 0Z" fill="#FF8E9E" p-id="19491"></path><path d="M376.78674 583.082717a15.450648 15.450648 0 0 0-15.452708 15.452708v24.724334c0 8.536076 6.916632 15.452709 15.452708 15.452708s15.452709-6.916632 15.452709-15.452708v-24.724334c0-8.536076-6.916632-15.452709-15.452709-15.452708zM634.121725 583.082717a15.450648 15.450648 0 0 0-15.452708 15.452708v24.724334c0 8.536076 6.916632 15.452709 15.452708 15.452708s15.452709-6.916632 15.452709-15.452708v-24.724334c0-8.536076-6.916632-15.452709-15.452709-15.452708zM549.527418 610.872868a15.446527 15.446527 0 0 0-21.800681 1.499943c-11.797628 13.534512-32.755621 13.524211-44.542948 0a15.452709 15.452709 0 1 0-23.300624 20.300738c24.110346 27.67271 67.054453 27.647986 91.142135 0a15.448588 15.448588 0 0 0-1.497882-21.800681z" fill="#313D40" p-id="19492"></path><path d="M291.137528 249.607086c-87.186242 18.450534-155.518119 86.199329-174.599124 173.249587l-11.917129 54.37499A97.768257 97.768257 0 0 0 134.591288 570.72055h39.729944c64.635589 0 79.933771-48.888249 125.638762-94.59324 45.062158-45.062158 130.511516-68.770734 205.496299-68.770734V227.278952c-73.491021 0.00206-145.185408 7.697509-214.318765 22.328134z" fill="#4C5699" p-id="19493"></path><path d="M906.291311 477.231663l-11.917129-54.37499c-6.774467-30.911598-23.749783-59.264228-41.584269-83.965898-32.390937-44.860243-76.787599-77.385104-133.014855-89.28575-69.133358-14.630624-140.827744-22.326073-214.318765-22.326073v180.077624c74.986844 0 160.434141 23.708576 205.496299 68.770734C756.655523 521.832301 771.955765 570.72055 836.589293 570.72055h39.729944a97.770317 97.770317 0 0 0 29.972074-93.488887z" fill="#676FB2" p-id="19494"></path><path d="M349.161418 13.576235c-18.102333-18.104393-47.454238-18.100273-65.562752 0-18.102333 18.104393-18.102333 47.456298 0 65.560691l141.320171 141.32017h131.121382z" fill="#CE857A" p-id="19495"></path><path d="M613.963152 58.368486c6.626121-24.730515-8.049831-50.14919-32.780346-56.777372-24.730515-6.622001-50.15125 8.051891-56.777372 32.780346L474.544695 220.459157h95.988105z" fill="#D6948C" p-id="19496"></path><path d="M892.977257 150.750958l-3.910565-0.900377 0.902438-3.902324c5.822581-25.150828-15.555727-48.261899-40.681831-44.808734-20.395515 2.802091-35.537109 13.944524-49.201424 29.069635l-16.128507-16.128507h-90.021299v184.834997h42.280671c5.81846 25.282692 28.511277 51.430735 43.681717 65.542149 36.56935 34.014502 74.115311 9.387005 73.031561-21.56374l-0.140105-4.001221 4.011523-0.140105c39.804117-1.386623 60.718843-62.134311-17.828305-95.213409 21.040408-1.831661 42.099359-8.191996 55.986193-16.847573a68.11966 68.11966 0 0 0 20.564465-19.826855c14.111413-20.99302 2.694952-50.301657-22.546532-56.113936z" fill="#FFDBE0" p-id="19497"></path><path d="M798.948556 55.661171c-11.169218-22.684576-45.066279-27.479036-62.733876-8.581404-17.667597-18.897632-51.562598-14.103172-62.733876 8.581404-10.204969 20.727233-8.018926 52.300207-1.137319 74.545926-13.664315-15.125111-28.805909-26.265484-49.201424-29.069635-25.124044-3.453165-46.502351 19.657906-40.681831 44.808734l0.902438 3.902324-3.910565 0.900378c-25.243545 5.812279-36.657945 35.120916-22.546532 56.111875a68.094936 68.094936 0 0 0 20.564464 19.826855c13.886834 8.655577 34.945785 15.013852 55.986194 16.847573-78.545087 33.079098-57.630361 93.826786-17.828305 95.213409l4.011523 0.140105-0.140105 4.001221c-1.08375 30.952805 36.462211 55.578242 73.031561 21.56374 15.170439-14.109353 37.863257-40.257396 43.681717-65.542148V194.074172c0-24.790265 14.132017-46.263349 34.770654-56.849484a63.576564 63.576564 0 0 1 29.09848-7.019651c6.887787-22.243659 9.07177-53.816633-1.133198-74.543866z" fill="#FFB5C0" p-id="19498"></path><path d="M750.620725 175.910028c-11.877982-6.257317-27.09787-4.289672-36.973181 6.253196-11.690489 12.489909-11.07032 32.29204 1.792515 43.982529v0.002061c14.410166 13.105957 37.525357 9.778474 47.497505-7.339007 8.768897-15.050938 3.354268-34.638791-12.316839-42.898779z" fill="#FF8E9E" p-id="19499"></path><path d="M590.003212 211.665535c-14.265941-8.38567-30.169868-14.457554-46.788741-18.102333l-56.186048-0.294631-33.965053 33.787862v208.98037l33.787862 33.787862h111.449055c55.28567-8.008624 98.306011-30.499526 111.486141-96.334245 12.463125-58.409178-54.405896-124.726022-119.783216-161.824885z" fill="#8288CB" p-id="19500"></path><path d="M461.591204 318.660089c-2.070663-45.663784 31.371059-90.326232 81.625328-125.096887a176.737778 176.737778 0 0 0-37.760239-4.077454c-29.881418-0.028845-59.713386 7.571827-84.546919 22.179787-65.377319 37.100923-132.24634 103.421888-119.785276 161.824885 20.770501 98.553254 104.180101 100.335467 204.332195 100.714573 33.610671-0.010302 65.029118-0.39765 92.846054-4.380328-75.256751-22.793775-131.891958-58.87894-136.711143-151.164576z" fill="#676FB2" p-id="19501"></path></svg>