<svg class="icon" viewBox="0 0 1024 1024" xmlns="http://www.w3.org/2000/svg" width="200" height="200"><path d="M629.976 898.936c-22.97-28.845-55.566-49.578-92.823-57.18h-41.916l-106.616 86.01v75.63L409.225 1024h255.907v-24.353c.002-38.08-13.174-73.108-35.156-100.71z" fill="#FFDDCF"/><path d="M537.153 841.757a158.396 158.396 0 0 0-31.699-3.19c-50.297 0-95.23 23.59-124.52 60.37-21.982 27.602-35.156 62.63-35.156 100.71V1024h63.45v-24.353c-.003-77.75 55.062-143.002 127.925-157.89z" fill="#FFCBBE"/><path d="M676.431 961.423a177.389 177.389 0 0 1 4.156 38.221V1024h-131.28v-62.577z" fill="#FFDBE0"/><path d="M635.298 906.059c11.697-2.108 20.787 3.202 25.198 11.635a176.278 176.278 0 0 1 15.935 43.729l-30.114 5.456c-37.836 6.854-72.317 27.489-97.01 57.121h-74.023c32.093-60.797 90.599-105.367 160.014-117.941zM334.48 961.423a177.389 177.389 0 0 0-4.155 38.221V1024h131.28v-62.577z" fill="#FFB5C0"/><path d="M375.612 906.059c-11.696-2.108-20.787 3.202-25.198 11.635a176.278 176.278 0 0 0-15.935 43.729l30.115 5.456c37.836 6.854 72.316 27.489 97.01 57.121h74.022c-32.092-60.797-90.596-105.367-160.014-117.941z" fill="#FF8E9E"/><path d="M278.817 227.339a226.64 133.923 0 1 0 453.279 0 226.64 133.923 0 1 0-453.28 0z" fill="#4C5699"/><path d="M804.209 498.608H206.704c-39.827 0-72.113 32.286-72.113 72.113s32.286 72.112 72.113 72.112h597.505c39.826 0 72.112-32.286 72.112-72.112s-32.286-72.113-72.112-72.113z" fill="#FFCBBE"/><path d="M555.208 276.116h-91.264L206.704 570.72l257.242 294.604h91.264c141.31-23.692 248.999-146.561 248.999-294.604s-107.69-270.913-249.001-294.605z" fill="#FFDDCF"/><path d="M305.805 571.137c0-148.305 107.883-271.397 249.405-295.021a300.638 300.638 0 0 0-49.754-4.148c-164.608 0-298.752 133.43-298.752 298.753 0 165.444 134.261 298.752 298.752 298.752 16.953 0 33.57-1.434 49.754-4.148-141.522-23.624-249.405-145.888-249.405-294.188z" fill="#FFCBBE"/><path d="M282.937 668.847a59.75 47.388 0 1 0 119.501 0 59.75 47.388 0 1 0-119.5 0zM608.474 668.847a59.75 47.388 0 1 0 119.501 0 59.75 47.388 0 1 0-119.5 0z" fill="#FF8E9E"/><path d="M376.787 583.083a15.45 15.45 0 0 0-15.453 15.452v24.725c0 8.536 6.917 15.452 15.453 15.452s15.452-6.916 15.452-15.452v-24.725c0-8.536-6.916-15.452-15.452-15.452zm257.335 0a15.45 15.45 0 0 0-15.453 15.452v24.725c0 8.536 6.917 15.452 15.453 15.452s15.452-6.916 15.452-15.452v-24.725c0-8.536-6.916-15.452-15.452-15.452zm-84.595 27.79a15.447 15.447 0 0 0-21.8 1.5c-11.798 13.534-32.756 13.524-44.543 0a15.453 15.453 0 1 0-23.3 20.3c24.11 27.673 67.054 27.649 91.141 0a15.449 15.449 0 0 0-1.498-21.8z" fill="#313D40"/><path d="M291.138 249.607c-87.187 18.45-155.519 86.2-174.6 173.25l-11.917 54.375a97.768 97.768 0 0 0 29.97 93.489h39.73c64.636 0 79.934-48.889 125.639-94.594 45.062-45.062 130.512-68.77 205.496-68.77V227.279c-73.49.002-145.185 7.697-214.318 22.328z" fill="#4C5699"/><path d="m906.291 477.232-11.917-54.375c-6.774-30.912-23.75-59.265-41.584-83.966-32.391-44.86-76.788-77.385-133.015-89.286-69.133-14.63-140.828-22.326-214.319-22.326v180.078c74.987 0 160.434 23.708 205.497 68.77 45.703 45.705 61.003 94.594 125.636 94.594h39.73a97.77 97.77 0 0 0 29.972-93.49z" fill="#676FB2"/><path d="M349.161 13.576c-18.102-18.104-47.454-18.1-65.562 0-18.103 18.105-18.103 47.457 0 65.56l141.32 141.321H556.04z" fill="#CE857A"/><path d="M613.963 58.368c6.626-24.73-8.05-50.149-32.78-56.777-24.73-6.622-50.151 8.052-56.778 32.78l-49.86 186.088h95.988z" fill="#D6948C"/><path d="m892.977 150.751-3.91-.9.902-3.903c5.823-25.15-15.556-48.262-40.682-44.808-20.395 2.802-35.537 13.944-49.201 29.07l-16.129-16.13h-90.02v184.836h42.28c5.818 25.282 28.511 51.43 43.681 65.542 36.57 34.014 74.116 9.387 73.032-21.564l-.14-4.001 4.011-.14c39.805-1.387 60.72-62.135-17.828-95.214 21.04-1.831 42.1-8.192 55.986-16.847a68.12 68.12 0 0 0 20.565-19.827c14.111-20.993 2.695-50.302-22.547-56.114z" fill="#FFDBE0"/><path d="M798.949 55.661c-11.17-22.684-45.067-27.479-62.734-8.581-17.668-18.898-51.563-14.103-62.734 8.581-10.205 20.727-8.02 52.3-1.138 74.546-13.664-15.125-28.805-26.265-49.2-29.07-25.125-3.453-46.503 19.658-40.683 44.81l.903 3.902-3.91.9c-25.244 5.812-36.659 35.12-22.547 56.112a68.095 68.095 0 0 0 20.564 19.827c13.887 8.655 34.946 15.013 55.986 16.847-78.545 33.08-57.63 93.827-17.828 95.214l4.011.14-.14 4c-1.083 30.954 36.463 55.58 73.032 21.565 15.17-14.11 37.863-40.258 43.682-65.542V194.074c0-24.79 14.132-46.263 34.77-56.85a63.577 63.577 0 0 1 29.099-7.019c6.888-22.244 9.072-53.817-1.133-74.544z" fill="#FFB5C0"/><path d="M750.62 175.91c-11.877-6.257-27.097-4.29-36.972 6.253-11.69 12.49-11.07 32.292 1.792 43.983v.002c14.41 13.106 37.525 9.778 47.498-7.34 8.768-15.05 3.354-34.638-12.317-42.898z" fill="#FF8E9E"/><path d="M590.003 211.666c-14.266-8.386-30.17-14.458-46.789-18.103l-56.186-.294-33.965 33.787v208.98l33.788 33.789h111.45c55.285-8.009 98.305-30.5 111.485-96.335 12.464-58.409-54.405-124.726-119.783-161.824z" fill="#8288CB"/><path d="M461.591 318.66c-2.07-45.664 31.371-90.326 81.626-125.097a176.738 176.738 0 0 0-37.76-4.077c-29.882-.03-59.714 7.572-84.548 22.18-65.377 37.1-132.246 103.421-119.785 161.824 20.77 98.554 104.18 100.336 204.332 100.715 33.611-.01 65.03-.398 92.846-4.38-75.256-22.794-131.892-58.88-136.71-151.165z" fill="#676FB2"/></svg>