<?xml version="1.0" standalone="no"?><!DOCTYPE svg PUBLIC "-//W3C//DTD SVG 1.1//EN" "http://www.w3.org/Graphics/SVG/1.1/DTD/svg11.dtd"><svg t="1624436409930" class="icon" viewBox="0 0 1024 1024" version="1.1" xmlns="http://www.w3.org/2000/svg" p-id="19914" xmlns:xlink="http://www.w3.org/1999/xlink" width="200" height="200"><defs><style type="text/css"></style></defs><path d="M189.038229 134.438632c-34.138141 0-61.810865 27.674785-61.810865 61.810865v40.236813h123.621731V196.249497c0-34.13608-27.672724-61.810865-61.810866-61.810865z" fill="#8288CB" p-id="19915"></path><path d="M838.567404 227.15493h-50.134792l-73.200548-100.566278c-15.514527-21.314447-37.216322-36.779525-61.666639-44.746946h-174.623936c-45.515461 0-82.414487 36.899026-82.414487 82.414487v423.670213c0 199.016563 161.3346 360.353223 360.353223 360.353224H838.567404c102.412362 0 185.432596-83.020233 185.432596-185.432596v-61.810865l-82.414487-144.225352 82.414487-144.225352c0-102.410302-83.020233-185.430535-185.432596-185.430535z" fill="#676FB2" p-id="19916"></path><path d="M615.283895 75.71831h-191.284024a123.62173 123.62173 0 0 0-99.948169 50.870342l-73.200547 100.566278H185.432596c-102.412362 0-185.432596 83.020233-185.432596 185.432595l82.414487 144.225352-82.414487 144.225352v61.810866c0 102.412362 83.020233 185.432596 185.432596 185.432595h605.746478c-65.622535 0-122.599791-34.364781-155.557344-85.799662-18.477328-28.834769-29.875252-62.845167-29.875251-99.632933v-350.26157l-87.050302-185.432595 73.200547-100.566278c15.512467-21.314447 37.216322-36.779525 61.66664-44.746946a123.489867 123.489867 0 0 0-38.279469-6.123396z" fill="#4C5699" p-id="19917"></path><path d="M0 412.587525h605.746479v288.450704H0z" fill="#70DCBA" p-id="19918"></path><path d="M605.746479 412.587525h418.253521v288.450704H605.746479z" fill="#B0EBD8" p-id="19919"></path><path d="M635.62173 251.143726h-123.62173l-222.714849 316.100765L512 862.482028h123.62173c120.807276-48.904757 206.036217-167.326133 206.036218-305.669151s-85.228942-256.764394-206.036218-305.669151z" fill="#EFEDFF" p-id="19920"></path><path d="M560.976869 293.469746a329.151099 329.151099 0 0 1 74.644861-42.32602c-38.178511-15.456837-79.900845-23.988797-123.62173-23.988796-182.063903 0-329.657948 147.594044-329.657948 329.657947s147.594044 329.657948 329.657948 329.657948c43.720885 0 85.443219-8.53196 123.62173-23.988797a329.151099 329.151099 0 0 1-74.644861-42.32602z" fill="#D4D4FF" p-id="19921"></path><path d="M560.976869 293.469746h-41.207243L388.37827 556.812877l131.391356 263.343131h41.207243C685.358873 797.077891 779.847082 687.779799 779.847082 556.812877s-94.488209-240.265014-218.870213-263.343131z" fill="#FFDBE0" p-id="19922"></path><path d="M501.710551 762.591549c-45.123992-56.400354-72.125038-127.932008-72.125038-205.778672s27.001046-149.378318 72.125038-205.778672a331.518455 331.518455 0 0 1 59.264258-57.564459 268.152016 268.152016 0 0 0-48.976869-4.503951c-147.692942 0-267.847082 120.154141-267.847083 267.847082s120.154141 267.847082 267.847083 267.847083c16.72602 0 33.091477-1.555573 48.976869-4.503952a331.586447 331.586447 0 0 1-59.264258-57.564459z" fill="#FFB5C0" p-id="19923"></path><path d="M573.810865 120.531187h-123.62173c-17.06804 0-30.905433 13.837392-30.905433 30.905433s13.837392 30.905433 30.905433 30.905432h123.62173c17.06804 0 30.905433-13.837392 30.905433-30.905432s-13.837392-30.905433-30.905433-30.905433z" fill="#8288CB" p-id="19924"></path><path d="M682.377529 482.922109l-4.302036-0.991035 0.993095-4.291734c6.403606-27.666543-17.111308-53.087292-44.749007-49.290044-22.435284 3.082302-39.091252 15.339396-54.121593 31.97476l-17.741779-17.741778h-99.025127v203.318599H509.939638c6.399485 27.812829 31.362833 56.573425 48.049706 72.096193 40.226511 37.416177 81.526471 10.326535 80.333521-23.720949l-0.154527-4.400934 4.413296-0.154527c43.782696-1.524668 66.790761-68.348394-19.610527-104.73439 23.144048-2.015034 46.3087-9.012024 61.586285-18.532958a74.955976 74.955976 0 0 0 22.622777-21.808934c15.520708-23.088419 2.962801-55.326905-24.80264-61.722269z" fill="#FFB5C0" p-id="19925"></path><path d="M578.945288 378.323702c-12.28594-24.955107-49.572314-30.227573-69.00565-9.440579-19.435396-20.786994-56.71971-15.514527-69.00565 9.440579-11.226913 22.799968-8.822471 57.529433-1.25064 82.000354-15.030342-16.637425-31.68631-28.892459-54.121593-31.97476-27.635638-3.797247-51.152612 21.623501-44.749007 49.290044l0.993095 4.291734-4.302036 0.991035c-27.767501 6.393304-40.325408 38.633851-24.80058 61.72433a74.908588 74.908588 0 0 0 22.622777 21.808933c15.275525 9.520934 38.440177 16.515863 61.584225 18.532958-86.401288 36.388056-63.395284 103.209722-19.610527 104.73439l4.413296 0.154527-0.154527 4.400934c-1.19295 34.047485 40.10907 61.137127 80.333521 23.72095 16.686873-15.520708 41.650221-44.283364 48.049706-72.096193v-115.320532c0-27.268893 15.545433-50.890946 38.246503-62.534052a69.934873 69.934873 0 0 1 32.009787-7.722237c7.569771-24.472982 9.974213-59.200386-1.2527-82.002415z" fill="#FF8E9E" p-id="19926"></path><path d="M567.982101 482.656322a82.041561 82.041561 0 0 0-19.7939-14.607968h-61.652217v131.302761l23.403654 23.403654c21.011573 0 42.019026-7.994205 58.040402-24.015582a82.200209 82.200209 0 0 0 12.918471-16.765167c18.306318-31.422584 14.006342-72.392885-12.91641-99.317698z" fill="#FFDBE0" p-id="19927"></path><path d="M548.186141 468.048354c-31.544145-16.618881-71.96227-11.393803-98.19068 16.60858-31.043477 33.169771-29.397247 85.752274 4.763557 116.803992v0.00206h0.00206c15.625787 14.212378 35.403203 21.291783 55.176499 21.293843V530.584467c0.00206-27.270954 15.547493-50.893006 38.248564-62.536113z" fill="#FFB5C0" p-id="19928"></path></svg>