<svg class="icon" viewBox="0 0 1024 1024" xmlns="http://www.w3.org/2000/svg" width="200" height="200"><path d="M189.038 134.439c-34.138 0-61.81 27.674-61.81 61.81v40.237h123.621V196.25c0-34.136-27.673-61.81-61.81-61.81z" fill="#8288CB"/><path d="M838.567 227.155h-50.134l-73.2-100.566c-15.515-21.315-37.217-36.78-61.668-44.747H478.941c-45.515 0-82.414 36.899-82.414 82.414v423.67c0 199.017 161.335 360.354 360.353 360.354h81.687C940.98 948.28 1024 865.26 1024 762.847v-61.81L941.586 556.81 1024 412.585c0-102.41-83.02-185.43-185.433-185.43z" fill="#676FB2"/><path d="M615.284 75.718H424a123.622 123.622 0 0 0-99.948 50.87l-73.2 100.567h-65.42C83.02 227.155 0 310.175 0 412.588l82.414 144.225L0 701.038v61.811c0 102.412 83.02 185.433 185.433 185.433h605.746c-65.622 0-122.6-34.365-155.557-85.8-18.478-28.835-29.876-62.845-29.876-99.633V412.588l-87.05-185.433 73.2-100.566c15.513-21.315 37.217-36.78 61.667-44.747a123.49 123.49 0 0 0-38.28-6.124z" fill="#4C5699"/><path d="M0 412.588h605.746v288.45H0z" fill="#70DCBA"/><path d="M605.746 412.588H1024v288.45H605.746z" fill="#B0EBD8"/><path d="M635.622 251.144H512l-222.715 316.1L512 862.482h123.622c120.807-48.905 206.036-167.326 206.036-305.67s-85.229-256.764-206.036-305.668z" fill="#EFEDFF"/><path d="M560.977 293.47a329.151 329.151 0 0 1 74.645-42.326c-38.179-15.457-79.901-23.99-123.622-23.99-182.064 0-329.658 147.595-329.658 329.659S329.936 886.47 512 886.47c43.72 0 85.443-8.532 123.622-23.989a329.151 329.151 0 0 1-74.645-42.326z" fill="#D4D4FF"/><path d="M560.977 293.47H519.77L388.378 556.813 519.77 820.156h41.207c124.382-23.078 218.87-132.376 218.87-263.343S685.36 316.548 560.977 293.47z" fill="#FFDBE0"/><path d="M501.71 762.592c-45.123-56.4-72.124-127.932-72.124-205.78s27-149.377 72.125-205.778a331.518 331.518 0 0 1 59.264-57.564 268.152 268.152 0 0 0-48.977-4.504c-147.693 0-267.847 120.154-267.847 267.847S364.305 824.66 511.998 824.66c16.726 0 33.091-1.556 48.977-4.504a331.586 331.586 0 0 1-59.264-57.564z" fill="#FFB5C0"/><path d="M573.81 120.531H450.19c-17.069 0-30.906 13.838-30.906 30.906s13.837 30.905 30.905 30.905h123.622c17.068 0 30.905-13.837 30.905-30.905s-13.837-30.906-30.905-30.906z" fill="#8288CB"/><path d="m682.378 482.922-4.303-.99.994-4.293c6.403-27.666-17.112-53.087-44.75-49.29-22.435 3.083-39.09 15.34-54.121 31.975l-17.742-17.742h-99.025v203.319h46.509c6.4 27.813 31.362 56.573 48.05 72.096 40.226 37.416 81.526 10.327 80.333-23.72l-.155-4.402 4.414-.154c43.782-1.525 66.79-68.349-19.61-104.735 23.143-2.015 46.308-9.012 61.585-18.533a74.956 74.956 0 0 0 22.623-21.809c15.52-23.088 2.963-55.327-24.802-61.722z" fill="#FFB5C0"/><path d="M578.945 378.324c-12.286-24.955-49.572-30.228-69.005-9.44-19.436-20.788-56.72-15.515-69.006 9.44-11.227 22.8-8.822 57.53-1.25 82-15.031-16.637-31.687-28.892-54.122-31.975-27.636-3.797-51.153 21.624-44.75 49.29l.994 4.292-4.302.991c-27.768 6.393-40.326 38.634-24.8 61.724a74.909 74.909 0 0 0 22.622 21.81c15.276 9.52 38.44 16.515 61.584 18.532-86.401 36.388-63.395 103.21-19.61 104.735l4.413.154-.155 4.401c-1.192 34.048 40.11 61.137 80.334 23.721 16.687-15.52 41.65-44.283 48.05-72.096v-115.32c0-27.27 15.545-50.892 38.246-62.535a69.935 69.935 0 0 1 32.01-7.722c7.57-24.473 9.974-59.2-1.253-82.002z" fill="#FF8E9E"/><path d="M567.982 482.656a82.042 82.042 0 0 0-19.794-14.608h-61.652v131.303l23.404 23.404c21.011 0 42.019-7.994 58.04-24.016a82.2 82.2 0 0 0 12.919-16.765c18.306-31.423 14.006-72.393-12.917-99.318z" fill="#FFDBE0"/><path d="M548.186 468.048c-31.544-16.619-71.962-11.393-98.19 16.609-31.044 33.17-29.398 85.752 4.763 116.804v.002h.002c15.626 14.212 35.403 21.292 55.177 21.294v-92.173c.002-27.27 15.547-50.893 38.248-62.536z" fill="#FFB5C0"/></svg>