<?xml version="1.0" standalone="no"?><!DOCTYPE svg PUBLIC "-//W3C//DTD SVG 1.1//EN" "http://www.w3.org/Graphics/SVG/1.1/DTD/svg11.dtd"><svg t="1624436389049" class="icon" viewBox="0 0 1024 1024" version="1.1" xmlns="http://www.w3.org/2000/svg" p-id="19044" xmlns:xlink="http://www.w3.org/1999/xlink" width="200" height="200"><defs><style type="text/css"></style></defs><path d="M615.018109 1024h-206.036218v-80.354125l103.018109-41.207243 103.018109 41.207243z" fill="#D4D4FF" p-id="19045"></path><path d="M676.828974 820.024145h-329.657948v61.810865c0 34.138141 27.672724 61.810865 61.810865 61.810865h206.036218c34.138141 0 61.810865-27.672724 61.810865-61.810865z" fill="#9EA2E3" p-id="19046"></path><path d="M512 61.810865m-61.810865 0a61.810865 61.810865 0 1 0 123.62173 0 61.810865 61.810865 0 1 0-123.62173 0Z" fill="#9EA2E3" p-id="19047"></path><path d="M900.37827 123.62173H236.94165v696.402415h663.43662c68.274221 0 123.62173-55.347509 123.62173-123.621731V247.243461c0-68.274221-55.347509-123.62173-123.62173-123.621731z" fill="#8288CB" p-id="19048"></path><path d="M515.090543 696.402414V247.243461c0-68.274221 55.347509-123.62173 123.621731-123.621731H123.62173C55.347509 123.62173 0 178.969239 0 247.243461v449.158953c0 68.274221 55.347509 123.62173 123.62173 123.621731h515.090544c-68.274221 0-123.62173-55.347509-123.621731-123.621731z" fill="#676FB2" p-id="19049"></path><path d="M838.567404 247.243461H515.090543l-103.018108 218.351002L515.090543 696.402414h323.476861c34.138141 0 61.810865-27.674785 61.810866-61.810865V309.054326c0-34.13608-27.672724-61.810865-61.810866-61.810865z" fill="#FFDBE0" p-id="19050"></path><path d="M123.62173 309.054326v39.146881c0 17.06804 13.837392 30.905433 30.905433 30.905433s30.905433 13.837392 30.905433 30.905432v123.621731c0 17.06804-13.837392 30.905433-30.905433 30.905432s-30.905433 13.837392-30.905433 30.905433v39.146881c0 34.13608 27.672724 61.810865 61.810866 61.810865h329.657947V247.243461H185.432596c-34.138141 0-61.810865 27.674785-61.810866 61.810865z" fill="#FFB5C0" p-id="19051"></path><path d="M92.716298 471.822938m-30.905433 0a30.905433 30.905433 0 1 0 61.810865 0 30.905433 30.905433 0 1 0-61.810865 0Z" fill="#FF8E9E" p-id="19052"></path><path d="M787.05835 61.810865H531.62907l-56.507493 25.054004v73.513723L531.62907 185.432596H787.05835c34.138141 0 61.810865-27.674785 61.810865-61.810866 0-34.138141-27.672724-61.810865-61.810865-61.810865z" fill="#EFEDFF" p-id="19053"></path><path d="M531.62907 61.810865H236.94165c-34.138141 0-61.810865 27.672724-61.810865 61.810865 0 34.13608 27.672724 61.810865 61.810865 61.810866h294.68742c-34.13608-34.13608-34.13608-89.48565 0-123.621731z" fill="#D4D4FF" p-id="19054"></path><path d="M787.05835 758.21328H531.62907l-56.507493 25.054004v73.513722L531.62907 881.83501H787.05835c34.138141 0 61.810865-27.674785 61.810865-61.810865 0-34.138141-27.672724-61.810865-61.810865-61.810865z" fill="#EFEDFF" p-id="19055"></path><path d="M531.62907 758.21328H236.94165c-34.138141 0-61.810865 27.672724-61.810865 61.810865 0 34.13608 27.672724 61.810865 61.810865 61.810865h294.68742c-34.13608-34.13608-34.13608-89.48565 0-123.62173z" fill="#D4D4FF" p-id="19056"></path><path d="M662.795847 417.763155l-3.685988-0.848869 0.85093-3.675686c5.486744-23.698286-14.657416-45.474254-38.330978-42.220942-19.216998 2.641384-33.485006 13.13893-46.360209 27.390455l-15.197232-15.197232h-84.82099v174.158294H515.090543c5.482624 23.823968 26.863002 48.459718 41.157795 61.755235 34.457497 32.048934 69.833915 8.845135 68.811976-20.319291l-0.131863-3.768403 3.780764-0.131863c37.504773-1.30627 57.210076-58.545191-16.798133-89.71435 19.824805-1.726584 39.668153-7.718117 52.753514-15.875091a64.200885 64.200885 0 0 0 19.377706-18.681303c13.295517-19.777416 2.538366-47.392451-21.246455-52.870954z" fill="#FFB5C0" p-id="19057"></path><path d="M574.200274 328.168306c-10.52433-21.374197-42.462004-25.890511-59.109731-8.086922-16.647726-17.80565-48.5854-13.289336-59.10973 8.086922-9.61571 19.530173-7.557408 49.279742-1.071388 70.239807-12.875203-14.251525-27.141151-24.74907-46.36021-27.390455-23.673561-3.253312-43.817722 18.522656-38.330978 42.220942l0.85093 3.675686-3.685988 0.848869c-23.784821 5.476443-34.541972 33.093537-21.244394 52.870954a64.176161 64.176161 0 0 0 19.377706 18.681303c13.08536 8.154913 32.926648 14.146447 52.753513 15.875091-74.008209 31.169159-54.302905 88.40808-16.798133 89.71435l3.780765 0.131863-0.131863 3.768403c-1.02194 29.164427 34.356539 52.368225 68.811975 20.319291 14.294793-13.295517 35.675171-37.931268 41.157795-61.755235v-98.782004c0-23.358326 13.316121-43.591082 32.761819-53.565296a59.888547 59.888547 0 0 1 27.4193-6.613762c6.48602-20.962125 8.544322-50.709634-1.071388-70.239807z" fill="#FF8E9E" p-id="19058"></path><path d="M564.807082 417.536515a70.254229 70.254229 0 0 0-16.95472-12.512579H495.043219v112.47105l20.047324 20.047324c17.997264 0 35.992467-6.846584 49.716539-20.570656a70.353127 70.353127 0 0 0 11.066206-14.360724c15.679356-26.918632 11.997489-62.012781-11.066206-85.074415z" fill="#FFDBE0" p-id="19059"></path><path d="M547.852362 405.021875c-27.01959-14.235042-61.641915-9.759936-84.108104 14.226801-26.591034 28.412394-25.179686 73.453972 4.079517 100.051187v0.002061h0.00206c13.386173 12.17468 30.326471 18.238326 47.262648 18.238325v-78.953078c0.00206-23.356266 13.318181-43.591082 32.763879-53.565296z" fill="#FFB5C0" p-id="19060"></path></svg>