<svg class="icon" viewBox="0 0 1024 1024" xmlns="http://www.w3.org/2000/svg" width="200" height="200"><path d="M615.018 1024H408.982v-80.354L512 902.439l103.018 41.207z" fill="#D4D4FF"/><path d="M676.829 820.024H347.171v61.811c0 34.138 27.673 61.81 61.81 61.81h206.037c34.138 0 61.811-27.672 61.811-61.81zM450.19 61.81a61.81 61.81 0 1 0 123.62 0 61.81 61.81 0 1 0-123.62 0z" fill="#9EA2E3"/><path d="M900.378 123.622H236.942v696.402h663.436c68.274 0 123.622-55.347 123.622-123.622V247.243c0-68.274-55.348-123.621-123.622-123.621z" fill="#8288CB"/><path d="M515.09 696.402V247.243c0-68.274 55.348-123.621 123.622-123.621h-515.09C55.348 123.622 0 178.969 0 247.243v449.16c0 68.274 55.348 123.621 123.622 123.621h515.09c-68.274 0-123.621-55.347-123.621-123.622z" fill="#676FB2"/><path d="M838.567 247.243H515.091L412.072 465.594l103.019 230.808h323.476c34.139 0 61.811-27.674 61.811-61.81V309.054c0-34.136-27.672-61.81-61.81-61.81z" fill="#FFDBE0"/><path d="M123.622 309.054v39.147c0 17.068 13.837 30.906 30.905 30.906s30.906 13.837 30.906 30.905v123.622c0 17.068-13.838 30.905-30.906 30.905s-30.905 13.838-30.905 30.906v39.147c0 34.136 27.672 61.81 61.81 61.81h329.659V247.243H185.433c-34.139 0-61.811 27.675-61.811 61.811z" fill="#FFB5C0"/><path d="M61.811 471.823a30.905 30.905 0 1 0 61.81 0 30.905 30.905 0 1 0-61.81 0z" fill="#FF8E9E"/><path d="M787.058 61.81H531.63l-56.507 25.055v73.514l56.507 25.054h255.43c34.137 0 61.81-27.675 61.81-61.811 0-34.138-27.673-61.811-61.81-61.811z" fill="#EFEDFF"/><path d="M531.63 61.81H236.941c-34.138 0-61.811 27.674-61.811 61.812 0 34.136 27.673 61.81 61.81 61.81H531.63c-34.136-34.135-34.136-89.485 0-123.621z" fill="#D4D4FF"/><path d="M787.058 758.213H531.63l-56.507 25.054v73.514l56.507 25.054h255.43c34.137 0 61.81-27.675 61.81-61.81 0-34.139-27.673-61.812-61.81-61.812z" fill="#EFEDFF"/><path d="M531.63 758.213H236.941c-34.138 0-61.811 27.673-61.811 61.811 0 34.136 27.673 61.811 61.81 61.811H531.63c-34.136-34.136-34.136-89.486 0-123.622z" fill="#D4D4FF"/><path d="m662.796 417.763-3.686-.849.85-3.675c5.488-23.699-14.657-45.475-38.33-42.221-19.217 2.641-33.485 13.139-46.36 27.39l-15.198-15.197h-84.82v174.158h39.839c5.482 23.824 26.863 48.46 41.157 61.755 34.458 32.05 69.834 8.846 68.812-20.319l-.132-3.768 3.781-.132c37.505-1.306 57.21-58.545-16.798-89.714 19.825-1.727 39.668-7.719 52.754-15.876a64.2 64.2 0 0 0 19.377-18.68c13.296-19.778 2.539-47.393-21.246-52.872z" fill="#FFB5C0"/><path d="M574.2 328.168c-10.524-21.374-42.462-25.89-59.11-8.087-16.647-17.805-48.585-13.289-59.11 8.087-9.615 19.53-7.557 49.28-1.07 70.24-12.876-14.251-27.142-24.749-46.36-27.39-23.674-3.254-43.819 18.522-38.332 42.22l.851 3.676-3.686.85c-23.785 5.476-34.542 33.093-21.244 52.87a64.176 64.176 0 0 0 19.377 18.681c13.086 8.155 32.927 14.147 52.754 15.876-74.008 31.169-54.303 88.408-16.798 89.714l3.78.132-.131 3.768c-1.022 29.165 34.356 52.368 68.812 20.32 14.295-13.296 35.675-37.932 41.158-61.756v-98.782c0-23.358 13.316-43.59 32.761-53.565a59.889 59.889 0 0 1 27.42-6.614c6.486-20.962 8.544-50.71-1.072-70.24z" fill="#FF8E9E"/><path d="M564.807 417.537a70.254 70.254 0 0 0-16.955-12.513h-52.809v112.471l20.048 20.047c17.997 0 35.992-6.846 49.716-20.57a70.353 70.353 0 0 0 11.066-14.361c15.68-26.919 11.998-62.013-11.066-85.074z" fill="#FFDBE0"/><path d="M547.852 405.022c-27.02-14.235-61.642-9.76-84.108 14.227-26.59 28.412-25.18 73.454 4.08 100.05v.003h.002c13.386 12.175 30.326 18.238 47.262 18.238v-78.953c.003-23.356 13.319-43.59 32.764-53.565z" fill="#FFB5C0"/></svg>