<?xml version="1.0" standalone="no"?><!DOCTYPE svg PUBLIC "-//W3C//DTD SVG 1.1//EN" "http://www.w3.org/Graphics/SVG/1.1/DTD/svg11.dtd"><svg t="1624436404523" class="icon" viewBox="0 0 1024 1024" version="1.1" xmlns="http://www.w3.org/2000/svg" p-id="19632" xmlns:xlink="http://www.w3.org/1999/xlink" width="200" height="200"><defs><style type="text/css"></style></defs><path d="M362.08732 874.160462v-82.770763H82.791367a516.752216 516.752216 0 0 0 67.169732 82.651263C246.664003 970.741805 375.240645 1024 511.99897 1024c36.029481 0 71.480001-3.733369 105.939489-10.944622v-138.874312z" fill="#D4D4FF" p-id="19633"></path><path d="M874.036841 149.963159a516.305118 516.305118 0 0 0-83.928684-68.012418L362.08732 874.160462c-0.065931 0 0.065931 0 0 0 71.203913 71.148283 159.570609 118.740493 255.851139 138.894916 96.342341-20.166784 184.871805-67.787839 256.098382-139.014416C970.739745 777.333937 1023.99794 648.759355 1023.99794 512.00103s-53.258195-265.332907-149.961099-362.037871z" fill="#EFEDFF" p-id="19634"></path><path d="M511.99897 0.00206C375.238585 0.00206 246.664003 53.260255 149.961099 149.963159 53.258195 246.668123 0 375.242706 0 512.00103c0 100.730904 28.925366 197.003193 82.791367 279.388669 82.385476 53.866 178.565049 82.770763 279.295953 82.770763 91.247076 0 178.927672-23.720902 255.851139-68.222575V10.946682A516.871717 516.871717 0 0 0 511.99897 0.00206z" fill="#676FB2" p-id="19635"></path><path d="M790.108157 81.950741a506.116648 506.116648 0 0 0-172.169698-71.001998c-96.344402 20.166784-184.871805 67.787839-256.100443 139.014416V512.00103h-149.961098c0 36.144861 3.737489 71.725184 11.020855 106.302112 17.039161 80.875234 53.484834 156.251372 106.901676 220.478913a522.955954 522.955954 0 0 0 32.28375 35.376347c136.760385-0.00206 265.425623-53.237591 362.130587-149.940495 96.702904-96.702904 149.959038-225.277486 149.961099-362.037871 0.00206-100.236418-30.689033-198.093123-84.066728-280.229295z" fill="#8288CB" p-id="19636"></path><path d="M83.27143 83.27349a97.817558 97.817558 0 0 0 26.693999-11.311365c9.965952-6.09866 9.965952-20.381062 0-26.479722a97.877308 97.877308 0 0 0-26.693999-11.309305 97.817558 97.817558 0 0 0-11.311366-26.693998c-6.09866-9.965952-20.381062-9.965952-26.479721 0a97.867006 97.867006 0 0 0-11.311365 26.696059 97.877308 97.877308 0 0 0-26.693999 11.309305c-9.965952 6.09866-9.965952 20.381062 0 26.479721a97.817558 97.817558 0 0 0 26.693999 11.311366 97.817558 97.817558 0 0 0 11.311365 26.693998c6.09866 9.965952 20.381062 9.965952 26.479721 0a97.858765 97.858765 0 0 0 11.311366-26.696059zM907.515599 907.826713a137.335225 137.335225 0 0 0 37.46555-15.875059c13.987771-8.560788 13.987771-28.60395 0-37.164738a137.267233 137.267233 0 0 0-37.46555-15.872998 137.374371 137.374371 0 0 0-15.875059-37.467611c-8.560788-13.987771-28.60395-13.987771-37.164738 0a137.320802 137.320802 0 0 0-15.875059 37.467611 137.392915 137.392915 0 0 0-37.46555 15.872998c-13.987771 8.560788-13.987771 28.60395 0 37.164738a137.335225 137.335225 0 0 0 37.46555 15.875059 137.362009 137.362009 0 0 0 15.875059 37.46555c8.560788 13.987771 28.60395 13.987771 37.164738 0a137.388794 137.388794 0 0 0 15.875059-37.46555z" fill="#FFDBE0" p-id="19637"></path><path d="M737.084843 301.008006l-7.36578-1.695675 1.699795-7.349297c10.965225-47.367631-29.298291-90.892694-76.616473-84.390204-38.411255 5.278637-66.92867 26.261323-92.662542 54.745773l-30.375859-30.375858h-169.540681v348.10573h79.628717c10.956984 47.616934 53.694991 96.861552 82.265976 123.436049 68.871588 64.058591 139.581015 17.679932 137.54126-40.613777l-0.263726-7.53473 7.555333-0.263725c74.962006-2.610474 114.351931-117.020095-33.575594-179.319141 39.626866-3.4511 79.286698-15.427961 105.440882-31.729513 15.918326-9.920624 28.913004-22.740172 38.73061-37.341929 26.578619-39.527969 5.078783-94.72496-42.461918-105.673703z" fill="#FFDBE0" p-id="19638"></path><path d="M559.999131 121.923747c-21.036255-42.723584-84.872328-51.752073-118.147111-16.163509-33.274782-35.588564-97.110855-26.562136-118.14711 16.163509-19.22108 39.035543-15.104485 98.497476-2.140712 140.396916-25.733872-28.48445-54.251287-49.467136-92.662542-54.745773-47.316122-6.50249-87.579639 37.022573-76.616473 84.390205l1.699795 7.349297-7.36578 1.695674c-47.540701 10.946682-69.040537 66.145734-42.463979 105.677824 9.817606 14.601757 22.812284 27.421305 38.73061 37.341929 26.154185 16.301553 65.814016 28.276354 105.440883 31.729513-147.927525 62.299046-108.539661 176.706606-33.575595 179.319141l7.555333 0.263726-0.263726 7.534729c-2.041815 58.29371 68.669673 104.672369 137.541261 40.613777 28.570985-26.574498 71.308991-75.819115 82.265975-123.436049V382.612606c0-46.687713 26.615705-87.130481 65.484359-107.066504a119.712982 119.712982 0 0 1 54.803463-13.221318c12.965833-41.903562 17.080368-101.363434-2.138651-140.401037z" fill="#FFB5C0" p-id="19639"></path><path d="M541.225148 300.552667a140.489633 140.489633 0 0 0-33.888768-25.010686h-105.554202v224.805664l40.069842 40.071903c35.973851 0.00206 71.941521-13.686958 99.373128-41.116504a140.677125 140.677125 0 0 0 22.120004-28.704908c31.340106-53.802129 23.978447-123.949079-22.120004-170.045469z" fill="#FFB5C0" p-id="19640"></path><path d="M507.33638 275.541981c-54.008165-28.453544-123.20735-19.505409-168.112853 28.435001-53.151056 56.789648-50.330426 146.819053 8.154897 199.982471v0.004121l0.004121-0.002061c26.755809 24.334889 60.613673 36.453915 94.469475 36.455975v-157.809002c0-46.687713 26.615705-87.130481 65.48436-107.066505z" fill="#FF8E9E" p-id="19641"></path><path d="M359.44182 372.475645a15.450625 15.450625 0 0 0-15.452685 15.452685v23.298529c0 8.536063 6.916622 15.452685 15.452685 15.452685s15.452685-6.916622 15.452685-15.452685v-23.298529a15.452685 15.452685 0 0 0-15.452685-15.452685zM524.270462 372.475645a15.450625 15.450625 0 0 0-15.452685 15.452685v23.298529c0 8.536063 6.916622 15.452685 15.452685 15.452685s15.452685-6.916622 15.452685-15.452685v-23.298529a15.452685 15.452685 0 0 0-15.452685-15.452685zM474.675584 397.121648a15.452685 15.452685 0 0 0-21.802708 1.493759c-2.785604 3.195615-6.799181 5.025213-11.016735 5.025213s-8.23113-1.831658-11.016734-5.025213a15.452685 15.452685 0 0 0-23.296468 20.308949c8.653504 9.926805 21.161937 15.621635 34.311142 15.621635s25.657639-5.69483 34.311142-15.621635a15.452685 15.452685 0 0 0-1.489639-21.802708z" fill="#313D40" p-id="19642"></path></svg>