<svg class="icon" viewBox="0 0 1024 1024" xmlns="http://www.w3.org/2000/svg" width="200" height="200"><path d="M362.087 874.16v-82.77H82.791a516.752 516.752 0 0 0 67.17 82.651C246.664 970.741 375.241 1024 512 1024c36.03 0 71.48-3.733 105.94-10.945V874.181z" fill="#D4D4FF"/><path d="M874.037 149.963a516.305 516.305 0 0 0-83.929-68.012l-428.02 792.21c-.067 0 .065 0 0 0 71.203 71.148 159.57 118.74 255.85 138.894 96.343-20.166 184.872-67.787 256.099-139.014 96.703-96.707 149.96-225.282 149.96-362.04s-53.257-265.333-149.96-362.038z" fill="#EFEDFF"/><path d="M511.999.002c-136.76 0-265.335 53.258-362.038 149.961C53.258 246.668 0 375.243 0 512.001c0 100.73 28.925 197.003 82.791 279.389 82.386 53.866 178.565 82.77 279.296 82.77 91.247 0 178.928-23.72 255.851-68.222V10.947A516.872 516.872 0 0 0 512 .002z" fill="#676FB2"/><path d="M790.108 81.95a506.117 506.117 0 0 0-172.17-71.001c-96.344 20.167-184.871 67.788-256.1 139.014v362.038H211.877c0 36.145 3.737 71.725 11.02 106.302 17.04 80.875 53.486 156.252 106.902 220.48a522.956 522.956 0 0 0 32.284 35.375c136.76-.002 265.426-53.237 362.13-149.94 96.704-96.703 149.96-225.278 149.962-362.038.002-100.236-30.69-198.093-84.067-280.23z" fill="#8288CB"/><path d="M83.271 83.273a97.818 97.818 0 0 0 26.694-11.31c9.966-6.1 9.966-20.382 0-26.48a97.877 97.877 0 0 0-26.694-11.31A97.818 97.818 0 0 0 71.961 7.48c-6.1-9.966-20.382-9.966-26.48 0a97.867 97.867 0 0 0-11.312 26.696 97.877 97.877 0 0 0-26.694 11.31c-9.966 6.098-9.966 20.38 0 26.48a97.818 97.818 0 0 0 26.694 11.31A97.818 97.818 0 0 0 45.48 109.97c6.099 9.966 20.381 9.966 26.48 0a97.859 97.859 0 0 0 11.311-26.697zm824.245 824.554a137.335 137.335 0 0 0 37.465-15.875c13.988-8.561 13.988-28.604 0-37.165a137.267 137.267 0 0 0-37.465-15.873 137.374 137.374 0 0 0-15.875-37.468c-8.561-13.987-28.604-13.987-37.165 0a137.32 137.32 0 0 0-15.875 37.468 137.393 137.393 0 0 0-37.466 15.873c-13.988 8.56-13.988 28.604 0 37.165a137.335 137.335 0 0 0 37.466 15.875 137.362 137.362 0 0 0 15.875 37.465c8.56 13.988 28.604 13.988 37.165 0a137.389 137.389 0 0 0 15.875-37.465zM737.085 301.008l-7.366-1.696 1.7-7.349c10.965-47.368-29.298-90.893-76.617-84.39-38.41 5.278-66.928 26.261-92.662 54.746l-30.376-30.376h-169.54v348.105h79.628c10.957 47.617 53.695 96.862 82.266 123.437 68.872 64.058 139.581 17.68 137.541-40.614l-.263-7.535 7.555-.264c74.962-2.61 114.352-117.02-33.576-179.319 39.627-3.45 79.287-15.428 105.441-31.73 15.918-9.92 28.913-22.74 38.73-37.341 26.58-39.528 5.08-94.725-42.461-105.674z" fill="#FFDBE0"/><path d="M560 121.924C538.962 79.2 475.126 70.172 441.851 105.76c-33.275-35.588-97.11-26.562-118.147 16.164-19.221 39.035-15.105 98.497-2.14 140.397-25.735-28.485-54.252-49.467-92.663-54.746-47.316-6.503-87.58 37.022-76.617 84.39l1.7 7.35-7.366 1.695c-47.54 10.947-69.04 66.146-42.464 105.678 9.818 14.602 22.813 27.421 38.73 37.342 26.155 16.301 65.815 28.276 105.442 31.73-147.928 62.298-108.54 176.706-33.576 179.318l7.555.264-.263 7.535C220 721.17 290.713 767.549 359.584 703.49c28.571-26.575 71.309-75.82 82.266-123.436V382.613c0-46.688 26.616-87.13 65.484-107.067a119.713 119.713 0 0 1 54.804-13.221c12.966-41.904 17.08-101.364-2.139-140.401z" fill="#FFB5C0"/><path d="M541.225 300.553a140.49 140.49 0 0 0-33.889-25.011H401.782v224.806l40.07 40.072c35.974.002 71.942-13.687 99.373-41.117a140.677 140.677 0 0 0 22.12-28.705c31.34-53.802 23.979-123.949-22.12-170.045z" fill="#FFB5C0"/><path d="M507.336 275.542c-54.008-28.454-123.207-19.505-168.112 28.435-53.152 56.79-50.33 146.819 8.154 199.982v.005l.005-.002c26.755 24.334 60.613 36.453 94.469 36.455V382.608c0-46.687 26.616-87.13 65.484-107.066z" fill="#FF8E9E"/><path d="M359.442 372.476a15.45 15.45 0 0 0-15.453 15.452v23.299c0 8.536 6.917 15.453 15.453 15.453s15.453-6.917 15.453-15.453v-23.299a15.453 15.453 0 0 0-15.453-15.452zm164.828 0a15.45 15.45 0 0 0-15.452 15.452v23.299c0 8.536 6.916 15.453 15.452 15.453s15.453-6.917 15.453-15.453v-23.299a15.453 15.453 0 0 0-15.453-15.452zm-49.594 24.646a15.453 15.453 0 0 0-21.803 1.493c-2.786 3.196-6.8 5.026-11.017 5.026s-8.231-1.832-11.017-5.026a15.453 15.453 0 0 0-23.296 20.31c8.653 9.926 21.162 15.621 34.311 15.621s25.658-5.695 34.311-15.622a15.453 15.453 0 0 0-1.49-21.802z" fill="#313D40"/></svg>