<svg class="icon" viewBox="0 0 1024 1024" xmlns="http://www.w3.org/2000/svg" width="200" height="200"><path d="m530.125.616-275.668 256.93 275.668 256.929c134.313-9.418 239.422-121.146 239.422-256.93 0-135.763-105.089-247.51-239.422-256.929z" fill="#FF8E9E"/><path d="M418.35 257.545c0-94.66 38.014-188.115 111.775-256.929A259.474 259.474 0 0 0 512.002 0C369.821 0 254.457 115.176 254.457 257.545c0 142.182 115.172 257.546 257.545 257.546 6.045 0 12.09-.194 18.123-.616-71.591-66.791-111.775-159.29-111.775-256.93z" fill="#EA5B70"/><path d="m837.253 537.67-8.24-5.017A247.429 247.429 0 0 0 699.82 496.25H419.426v438.053h576.623l27.953-15.716V645.922c-70.712-27.883-132.32-64.38-186.75-108.252z" fill="#8288CB"/><path d="M598.875 816.468c-71.126-28.394-117.778-97.253-117.778-173.837V496.25H320.392a247.437 247.437 0 0 0-123.133 32.807C140.286 576.784 75.298 616.23.002 645.922v288.382h598.873z" fill="#676FB2"/><path d="M602.565 236.363c51.827 99.744 112.267 187.699 187.586 259.888a729.69 729.69 0 0 0 47.102 41.421 62.738 62.738 0 0 1-28.25 18.432c-11.099 3.497-18.852 13.502-18.852 25.14v37.895c0 18.226-15.78 32.77-34.423 30.71-15.768-1.741-27.388-15.66-27.388-31.524v-25.396c0-17.128-14.006-31.948-31.134-31.824-17.67.127-30.677 14.952-30.677 31.715v6.642c0 15.56-11.175 29.313-26.595 31.4-18.883 2.555-35.04-11.968-35.216-30.312-.14-14.597-9.844-27.567-24.143-30.501-21.113-4.331-37.67 12.096-37.67 31.014v7.428c0 18.226-15.78 32.77-34.422 30.71-15.768-1.741-27.388-15.66-27.388-31.524v-76.559a85.966 85.966 0 0 0-26.785-62.353l-13.712-13.013v-219.39z" fill="#EFEDFF"/><path d="M602.565 236.363c-10.652-20.5-31.783-33.417-54.886-33.417h-71.352c-23.103 0-44.234 12.916-54.886 33.417-51.826 99.744-112.267 187.699-187.586 259.888a735.238 735.238 0 0 1-36.594 32.807 49.214 49.214 0 0 0 19.427 13.264c10.273 3.83 17.167 13.533 17.167 24.5 0 15.863 11.623 29.783 27.39 31.522 18.643 2.058 34.421-12.484 34.421-30.71V530.2h.04c.415-16.507 13.383-30.93 30.913-30.903 16.98.027 30.858 14.818 30.858 31.797v6.882c0 15.863 11.62 29.78 27.386 31.524 18.644 2.06 34.425-12.484 34.425-30.71v-7.776c0-16.753 12.99-31.577 30.662-31.715 17.134-.13 31.149 14.69 31.149 31.824V368.043c-.002-56.873 60.733-131.68 121.466-131.68z" fill="#D4D4FF"/><path d="M933.338 815.634c-15.323-76.005-105.524-110.102-167.345-62.042-62.124-47.912-152.254-13.5-167.118 62.878L436.764 1024H352.68h566.746c61.073-.054 104.576-48.602 104.576-104.011v-1.403c-.482-52.698-39.885-96.114-90.664-102.952z" fill="#FFDBE0"/><path d="M233.16 746.737 89.967 844.604C41.02 844.343.002 884.116.002 934.304.002 983.844 40.161 1024 89.7 1024h347.066l15.057-24.288V787.817c-36.633-88.495-152.366-110.294-218.662-41.08z" fill="#FFB5C0"/><path d="M329.306 440.28a51.746 41.207 0 1 0 103.492 0 51.746 41.207 0 1 0-103.492 0zM591.206 440.28a51.746 41.207 0 1 0 103.492 0 51.746 41.207 0 1 0-103.492 0z" fill="#FF8E9E"/><path d="M551.732 409.316a15.461 15.461 0 0 0-21.51 3.86c-2.86 4.113-9.03 11.011-18.22 11.011s-15.36-6.898-18.22-11.01a15.465 15.465 0 0 0-21.51-3.861 15.455 15.455 0 0 0-3.861 21.51c10.728 15.42 26.618 24.265 43.591 24.265s32.863-8.845 43.591-24.265a15.453 15.453 0 0 0-3.861-21.51zm-109.164-25.848a15.453 15.453 0 0 0-21.803 1.498 11.721 11.721 0 0 1-8.954 4.086 11.888 11.888 0 0 1-8.955-4.086 15.453 15.453 0 0 0-23.3 20.305c8.134 9.334 19.89 14.687 32.253 14.687s24.118-5.353 32.253-14.687a15.45 15.45 0 0 0-1.494-21.803zm200.382 0a15.453 15.453 0 0 0-21.802 1.498 11.88 11.88 0 0 1-8.955 4.086 11.723 11.723 0 0 1-8.954-4.086 15.453 15.453 0 0 0-23.3 20.305c8.134 9.334 19.89 14.687 32.252 14.687s24.119-5.353 32.253-14.687a15.45 15.45 0 0 0-1.494-21.803z" fill="#313D40"/><path d="m659.707 807.172-3.686-.85.851-3.675c5.487-23.698-14.657-45.474-38.33-42.22-19.218 2.64-33.486 13.138-46.36 27.39l-15.198-15.198h-84.821v174.159h39.839c5.483 23.824 26.863 48.46 41.158 61.755 11.802 10.975 23.71 15.467 34.227 15.467 20.249 0 35.256-16.61 34.585-35.784l-.132-3.769 3.78-.132c37.505-1.306 57.21-58.545-16.797-89.714 19.824-1.727 39.668-7.718 52.753-15.875a64.2 64.2 0 0 0 19.378-18.681c13.295-19.78 2.538-47.395-21.247-52.873z" fill="#FFB5C0"/><path d="M571.112 717.577c-10.525-21.374-42.462-25.89-59.11-8.087-16.648-17.806-48.585-13.29-59.11 8.087-9.615 19.53-7.557 49.28-1.071 70.24-12.875-14.252-27.141-24.75-46.36-27.39-23.674-3.254-43.818 18.522-38.331 42.22l.85 3.676-3.685.849c-23.785 5.476-34.542 33.093-21.245 52.87a64.176 64.176 0 0 0 19.378 18.682c13.085 8.155 32.927 14.146 52.753 15.875-74.008 31.17-54.302 88.408-16.798 89.714l3.781.132-.132 3.769c-.673 19.223 14.466 35.856 34.734 35.784 10.48-.037 22.334-4.541 34.078-15.467 14.295-13.296 35.675-37.931 41.158-61.755v-98.782c0-23.359 13.316-43.591 32.762-53.566a59.889 59.889 0 0 1 27.42-6.613c6.483-20.96 8.543-50.708-1.072-70.238z" fill="#FF8E9E"/><path d="M561.719 806.945a70.254 70.254 0 0 0-16.955-12.513h-52.81v112.471l20.048 20.048c17.997 0 35.992-6.847 49.717-20.57a70.353 70.353 0 0 0 11.066-14.362c15.68-26.918 11.997-62.012-11.066-85.074z" fill="#FFDBE0"/><path d="M544.764 794.43c-27.02-14.235-61.642-9.76-84.108 14.227-26.591 28.413-25.18 73.454 4.08 100.051v.002h.001c13.386 12.175 30.327 18.239 47.263 18.239v-78.953c.002-23.357 13.318-43.591 32.764-53.566z" fill="#FFB5C0"/><path d="M119.841 746.737c0-31.293 25.367-56.66 56.66-56.66s56.66 25.367 56.66 56.66c31.293 0 56.66 25.367 56.66 56.66s-25.367 56.66-56.66 56.66c0 31.293-25.367 56.66-56.66 56.66s-56.66-25.367-56.66-56.66c-31.293 0-56.66-25.367-56.66-56.66s25.367-56.66 56.66-56.66z" fill="#FF8E9E"/><path d="M154.838 803.397a21.663 21.663 0 1 0 43.326 0 21.663 21.663 0 1 0-43.326 0z" fill="#FFDBE0"/><path d="M812.664 833.569c16.092-16.091 42.184-16.094 58.276 0s16.091 42.184 0 58.275c16.093 16.094 16.091 42.184 0 58.276s-42.184 16.093-58.276 0c-16.091 16.091-42.183 16.093-58.275 0s-16.091-42.184 0-58.276c-16.093-16.093-16.091-42.184 0-58.275s42.182-16.091 58.275 0z" fill="#FFB5C0"/><path d="M789.032 891.844a23.632 23.632 0 1 0 47.265 0 23.632 23.632 0 1 0-47.265 0z" fill="#FFDBE0"/></svg>