<?xml version="1.0" standalone="no"?><!DOCTYPE svg PUBLIC "-//W3C//DTD SVG 1.1//EN" "http://www.w3.org/Graphics/SVG/1.1/DTD/svg11.dtd"><svg t="1624436460158" class="icon" viewBox="0 0 1024 1024" version="1.1" xmlns="http://www.w3.org/2000/svg" p-id="22388" xmlns:xlink="http://www.w3.org/1999/xlink" width="200" height="200"><defs><style type="text/css"></style></defs><path d="M530.124953 0.616151L254.456763 257.545349l275.66819 256.929197C664.437889 505.056632 769.547255 393.329383 769.547255 257.545349 769.547255 121.781918 664.458493 10.034066 530.124953 0.616151z" fill="#FF8E9E" p-id="22389"></path><path d="M418.350316 257.545349c0-94.66127 38.013678-188.115168 111.774637-256.929198A259.473745 259.473745 0 0 0 512.002009 0.000103c-142.181459 0-257.545246 115.176294-257.545246 257.545246 0 142.181459 115.172174 257.545246 257.545246 257.545245 6.045102 0 12.090204-0.193674 18.122944-0.616048-71.591397-66.790754-111.774637-159.288644-111.774637-256.929197z" fill="#EA5B70" p-id="22390"></path><path d="M837.252809 537.670101l-8.239387-5.016981a247.428868 247.428868 0 0 0-129.192937-36.404536h-280.39466v438.053558h576.623202L1024.001957 918.585701V645.921519c-70.711623-27.882878-132.320566-64.38013-186.749148-108.251418z" fill="#8288CB" p-id="22391"></path><path d="M598.875111 816.467981c-71.125755-28.393848-117.778531-97.253206-117.778532-173.83686v-146.382537h-160.704112a247.43711 247.43711 0 0 0-123.133412 32.807144C140.285926 576.784013 75.297988 616.229643 0.00206 645.921519v288.382683h598.873051z" fill="#676FB2" p-id="22392"></path><path d="M602.565219 236.362767c51.826345 99.744183 112.267063 187.698975 187.585655 259.887878a729.689552 729.689552 0 0 0 47.101935 41.421517 62.738022 62.738022 0 0 1-28.249623 18.431998c-11.09917 3.496434-18.852312 13.501552-18.852312 25.140536V619.138874c0 18.225962-15.780312 32.770057-34.422467 30.709695-15.76795-1.741006-27.388392-15.658751-27.388392-31.523538v-25.396022c0-17.127789-14.006341-31.947973-31.134129-31.824351-17.669664 0.127742-30.676729 14.952047-30.67673 31.715152v6.642607c0 15.559854-11.175403 29.31277-26.595152 31.399916-18.883217 2.554849-35.040576-11.968643-35.215707-30.312045-0.140105-14.597665-9.844409-27.567643-24.143321-30.501598-21.112529-4.330881-37.669598 12.096385-37.669598 31.014628v7.427605c0 18.225962-15.780312 32.770057-34.422467 30.709695-15.76795-1.741006-27.388392-15.658751-27.388392-31.523538v-76.55893c0-23.578782-9.683701-46.121203-26.784706-62.352734l-13.711708-13.013246V236.362767z" fill="#EFEDFF" p-id="22393"></path><path d="M602.565219 236.362767c-10.652071-20.500602-31.783144-33.417011-54.885982-33.41701h-71.352396c-23.102839 0-44.233911 12.916409-54.885982 33.41701-51.826345 99.744183-112.267063 187.698975-187.585655 259.887878a735.238107 735.238107 0 0 1-36.594089 32.807143 49.213806 49.213806 0 0 0 19.427153 13.264611c10.272965 3.830213 17.166936 13.532457 17.166936 24.499764 0 15.862727 11.622502 29.782532 27.390452 31.521477 18.642155 2.058302 34.420407-12.483733 34.420407-30.709695v-37.432656h0.039147c0.416193-16.50762 13.384111-30.930154 30.913671-30.903369 16.979443 0.026785 30.858041 14.818123 30.858041 31.797566v6.881609c0 15.862727 11.620441 29.780472 27.386331 31.523538 18.644215 2.060362 34.424528-12.483733 34.424528-30.709695v-7.775806c0-16.752803 12.990582-31.577107 30.662307-31.715152 17.13397-0.129803 31.148552 14.690381 31.148552 31.824351V368.042561c-0.00206-56.872171 60.73329-131.679794 121.466579-131.679794z" fill="#D4D4FF" p-id="22394"></path><path d="M933.337789 815.633534c-15.322912-76.004693-105.523498-110.101623-167.344659-62.041619-62.124034-47.911657-152.254568-13.499492-167.118019 62.878126L436.763771 1024h-84.083372 566.745826c61.073249-0.053569 104.575732-48.601878 104.575732-104.011193v-1.403106c-0.482125-52.697878-39.884487-96.113825-90.664168-102.952167z" fill="#FFDBE0" p-id="22395"></path><path d="M233.160862 746.73709l-143.195157 97.867194C41.019746 844.342618 0.00206 884.115845 0.00206 934.304202 0.00206 983.843545 40.160575 1024 89.699919 1024h347.065912l15.057126-24.287547V787.816587c-36.633236-88.494607-152.365828-110.293236-218.662095-41.079497z" fill="#FFB5C0" p-id="22396"></path><path d="M329.305593 440.280912a51.745991 41.207239 0 1 0 103.491981 0 51.745991 41.207239 0 1 0-103.491981 0Z" fill="#FF8E9E" p-id="22397"></path><path d="M591.206444 440.280912a51.745991 41.207239 0 1 0 103.491981 0 51.745991 41.207239 0 1 0-103.491981 0Z" fill="#FF8E9E" p-id="22398"></path><path d="M551.731969 409.315732a15.460956 15.460956 0 0 0-21.510179 3.861118c-2.859782 4.112482-9.030566 11.010574-18.219781 11.010575s-15.359998-6.898092-18.219781-11.010575a15.465077 15.465077 0 0 0-21.510179-3.861118 15.454775 15.454775 0 0 0-3.861118 21.510179c10.728305 15.419749 26.617816 24.264883 43.591078 24.264883s32.862773-8.845134 43.591078-24.264883a15.452715 15.452715 0 0 0-3.861118-21.510179zM442.567811 383.468491a15.452715 15.452715 0 0 0-21.802751 1.497883 11.721399 11.721399 0 0 1-8.954333 4.085698 11.888289 11.888289 0 0 1-8.954333-4.085698 15.452715 15.452715 0 0 0-23.300633 20.304867c8.134309 9.33344 19.890734 14.68626 32.252906 14.68626s24.118597-5.35282 32.252906-14.68626a15.450654 15.450654 0 0 0-1.493762-21.80275zM642.950374 383.468491a15.452715 15.452715 0 0 0-21.80275 1.497883 11.880047 11.880047 0 0 1-8.954333 4.085698 11.72346 11.72346 0 0 1-8.954334-4.085698 15.452715 15.452715 0 0 0-23.300633 20.304867c8.134309 9.33344 19.890734 14.68626 32.252906 14.68626s24.118597-5.35282 32.252906-14.68626a15.450654 15.450654 0 0 0-1.493762-21.80275z" fill="#313D40" p-id="22399"></path><path d="M659.707298 807.171627l-3.685988-0.848869 0.85093-3.675685c5.486744-23.698283-14.657415-45.474249-38.330974-42.220938-19.216996 2.641384-33.485003 13.138928-46.360205 27.390452l-15.19723-15.19723h-84.820981v174.158277H512.002009c5.482623 23.823965 26.862999 48.459713 41.15779 61.755229 11.801753 10.975548 23.710646 15.467137 34.226733 15.467137 20.249237 0 35.256914-16.610638 34.585236-35.784367l-0.131863-3.768402 3.780764-0.131863c37.504769-1.306269 57.210071-58.545185-16.798131-89.714341 19.824803-1.726583 39.668149-7.718116 52.753508-15.875089a64.200879 64.200879 0 0 0 19.377704-18.681302c13.295516-19.779475 2.538366-47.394506-21.246452-52.873009z" fill="#FFB5C0" p-id="22400"></path><path d="M571.111733 717.576787c-10.524329-21.374195-42.462-25.890508-59.109724-8.08692-16.647725-17.805648-48.585396-13.289335-59.109725 8.08692-9.615709 19.530171-7.557408 49.279737-1.071388 70.2398-12.875202-14.251524-27.141148-24.749068-46.360204-27.390452-23.673559-3.253312-43.817718 18.522654-38.330974 42.220938l0.850929 3.675685-3.685987 0.848869c-23.784819 5.476442-34.541968 33.093534-21.244393 52.870949a64.176155 64.176155 0 0 0 19.377705 18.681302c13.085359 8.154913 32.926645 14.146445 52.753507 15.875089-74.008202 31.169156-54.3029 88.408072-16.798131 89.714341l3.780764 0.131863-0.131863 3.768402c-0.673738 19.223177 14.465801 35.856479 34.733582 35.784367 10.481061-0.037087 22.334324-4.541038 34.078387-15.467138 14.294791-13.295516 35.675167-37.931264 41.157791-61.755229v-98.781994c0-23.358324 13.316119-43.591078 32.761815-53.56529a59.888541 59.888541 0 0 1 27.419298-6.613762c6.483959-20.960062 8.544321-50.707568-1.071389-70.23774z" fill="#FF8E9E" p-id="22401"></path><path d="M561.718543 806.944988a70.254222 70.254222 0 0 0-16.954719-12.512579H491.954687v112.471039l20.047322 20.047322c17.997262 0 35.992463-6.846583 49.716534-20.570654a70.35312 70.35312 0 0 0 11.066204-14.360722c15.679355-26.918629 11.997488-62.012774-11.066204-85.074406z" fill="#FFDBE0" p-id="22402"></path><path d="M544.763824 794.430349c-27.019587-14.235041-61.641909-9.759935-84.108096 14.226799-26.591032 28.412392-25.179684 73.453964 4.079517 100.051177v0.002061h0.00206c13.386172 12.174679 30.326468 18.238324 47.262643 18.238324v-78.953071c0.00206-23.356263 13.31818-43.591078 32.763876-53.56529z" fill="#FFB5C0" p-id="22403"></path><path d="M119.840954 746.73709c0-31.292778 25.367177-56.659954 56.659954-56.659954s56.659954 25.367177 56.659954 56.659954c31.292778 0 56.659954 25.367177 56.659954 56.659954s-25.367177 56.659954-56.659954 56.659954c0 31.292778-25.367177 56.659954-56.659954 56.659954s-56.659954-25.367177-56.659954-56.659954c-31.292778 0-56.659954-25.367177-56.659954-56.659954s25.367177-56.659954 56.659954-56.659954z" fill="#FF8E9E" p-id="22404"></path><path d="M176.500908 803.397044m-21.662646 0a21.662646 21.662646 0 1 0 43.325292 0 21.662646 21.662646 0 1 0-43.325292 0Z" fill="#FFDBE0" p-id="22405"></path><path d="M812.664449 833.568985c16.091427-16.091427 42.183851-16.093487 58.275278 0s16.091427 42.183851 0 58.275278c16.093487 16.093487 16.091427 42.183851 0 58.275278s-42.183851 16.093487-58.275278 0c-16.091427 16.091427-42.183851 16.093487-58.275277 0s-16.091427-42.183851 0-58.275278c-16.093487-16.093487-16.091427-42.183851 0-58.275278s42.181791-16.091427 58.275277 0z" fill="#FFB5C0" p-id="22406"></path><path d="M812.664449 891.844263m-23.632351 0a23.632352 23.632352 0 1 0 47.264703 0 23.632352 23.632352 0 1 0-47.264703 0Z" fill="#FFDBE0" p-id="22407"></path></svg>