<svg class="icon" viewBox="0 0 1024 1024" xmlns="http://www.w3.org/2000/svg" width="200" height="200"><path d="M512 0c-17.068 0-30.905 13.837-30.905 30.905V155.24h61.81V30.905C542.905 13.837 529.068 0 512 0z" fill="#9EA2E3"/><path d="M728.338 515.602V274.42l-123.053-46.867-155.15 85.795v275.063l-31.02 13.033V786.42h376.498c22.759 0 41.207-18.449 41.207-41.208V532.723z" fill="#EFEDFF"/><path d="m652.063 503.56-46.786-17.817.01-.006-93.334-35.548-.002-20.603v-33.823a198.256 198.256 0 0 1 93.338-168.21l-93.334-35.548-216.289 82.415v242.863L187.184 532.72v212.491c0 22.76 18.448 41.208 41.207 41.208h283.535v-36.84h.027v-15.708c.562-101.905 53.441-176.247 140.11-230.311z" fill="#D4D4FF"/><path d="m760.818 244.637-20.283-.247c-35.778-.437-71.307-7.11-104.413-20.682-44.205-18.12-81.495-46.608-95.45-80.847-5.075-12.448-16.316-19.24-28.149-19.24-11.758 0-23.694 6.301-29.389 19.968-13.767 33.033-49.792 61.174-92.584 79.618-35.063 15.115-73.023 22.33-111.206 22.33h-17.375c-16.932 1.554-29.428 16.077-27.965 33.016 1.473 17.07 16.553 30.102 33.614 28.536h23.114c16.76 0 33.515-1.31 49.994-4.372 66.758-12.4 136.275-45.116 171.326-88.454 35.083 43.381 105.548 75.552 172.6 87.768 16.458 2.997 33.182 4.295 49.91 4.295h23.064c16.623.86 30.936-11.191 32.366-27.773 1.506-17.41-11.723-33.016-29.174-33.916zM863.836 502.82l-20.283-.247H740.535c-35.778-.437-71.307-7.11-104.413-20.682-44.205-18.121-81.495-46.608-95.45-80.847-5.073-12.448-16.316-19.24-28.149-19.24-11.758 0-23.694 6.301-29.389 19.968-13.767 33.033-49.792 61.174-92.584 79.618-35.063 15.115-73.023 22.33-111.206 22.33H158.95c-16.932 1.554-29.428 16.077-27.966 33.016 1.474 17.07 16.553 30.102 33.615 28.536h126.132c16.76 0 33.515-1.31 49.994-4.372 66.758-12.4 136.275-45.116 171.326-88.454 35.085 43.381 105.55 75.552 172.6 87.767 16.458 2.998 33.182 4.296 49.912 4.296h126.082c16.623.86 30.937-11.192 32.366-27.773 1.505-17.408-11.725-33.014-29.176-33.916z" fill="#EA5B70"/><path d="M385.242 596.01c-24.16 0-43.813 19.655-43.813 43.813 0 8.534 6.916 15.453 15.453 15.453s15.452-6.92 15.452-15.453c0-7.119 5.792-12.908 12.908-12.908s12.909 5.791 12.909 12.908c0 8.534 6.916 15.453 15.452 15.453s15.453-6.92 15.453-15.453c-.002-24.158-19.656-43.814-43.814-43.814zm253.518 0c-24.16 0-43.814 19.655-43.814 43.813 0 8.534 6.917 15.453 15.453 15.453s15.452-6.92 15.452-15.453c0-7.119 5.792-12.908 12.909-12.908s12.908 5.791 12.908 12.908c0 8.534 6.916 15.453 15.453 15.453s15.452-6.92 15.452-15.453c-.002-24.158-19.656-43.814-43.813-43.814zm-86.523 24.105a15.449 15.449 0 0 0-21.8 1.496c-9.771 11.207-27.111 11.198-36.873 0a15.453 15.453 0 0 0-23.297 20.307c22.083 25.339 61.401 25.314 83.466 0a15.453 15.453 0 0 0-1.496-21.803z" fill="#313D40"/><path d="M933.336 815.634c-15.323-76.005-105.524-110.102-167.345-62.042-62.124-47.912-152.254-13.5-167.118 62.878L436.762 1024h-84.084 566.746c61.074-.054 104.576-48.602 104.576-104.011v-1.403c-.482-52.698-39.884-96.114-90.664-102.952z" fill="#FFDBE0"/><path d="M233.159 746.737 89.964 844.604C41.018 844.343 0 884.116 0 934.304 0 983.844 40.159 1024 89.698 1024h347.066l15.057-24.288V787.817c-36.633-88.495-152.366-110.294-218.662-41.08zM659.705 807.172l-3.686-.85.851-3.675c5.487-23.698-14.657-45.474-38.33-42.22-19.218 2.64-33.486 13.138-46.36 27.39l-15.198-15.198H472.16v174.159H512c5.483 23.824 26.863 48.46 41.158 61.755 11.802 10.975 23.71 15.467 34.227 15.467 20.249 0 35.256-16.61 34.585-35.784l-.132-3.769 3.78-.132c37.505-1.306 57.21-58.545-16.797-89.714 19.824-1.727 39.668-7.718 52.753-15.875a64.2 64.2 0 0 0 19.378-18.681c13.295-19.78 2.538-47.395-21.247-52.873z" fill="#FFB5C0"/><path d="M571.11 717.577c-10.525-21.374-42.462-25.89-59.11-8.087-16.648-17.806-48.585-13.29-59.11 8.087-9.615 19.53-7.557 49.28-1.071 70.24-12.875-14.252-27.141-24.75-46.36-27.39-23.674-3.254-43.818 18.522-38.331 42.22l.85 3.676-3.685.849c-23.785 5.476-34.542 33.093-21.245 52.87a64.176 64.176 0 0 0 19.378 18.682c13.085 8.155 32.927 14.146 52.753 15.875-74.008 31.17-54.302 88.408-16.798 89.714l3.781.132-.132 3.769c-.674 19.223 14.466 35.856 34.734 35.784 10.48-.037 22.334-4.541 34.078-15.467 14.295-13.296 35.675-37.931 41.158-61.755v-98.782c0-23.359 13.316-43.592 32.762-53.566a59.889 59.889 0 0 1 27.42-6.613c6.483-20.96 8.543-50.708-1.072-70.238z" fill="#FF8E9E"/><path d="M561.717 806.945a70.254 70.254 0 0 0-16.955-12.513h-52.81v112.471L512 926.951c17.997 0 35.992-6.847 49.717-20.57a70.353 70.353 0 0 0 11.066-14.362c15.68-26.918 11.997-62.012-11.066-85.074z" fill="#FFDBE0"/><path d="M544.762 794.43c-27.02-14.235-61.642-9.76-84.108 14.227-26.591 28.413-25.18 73.454 4.08 100.051v.002h.001c13.386 12.175 30.327 18.239 47.263 18.239v-78.953c.002-23.357 13.318-43.591 32.764-53.566z" fill="#FFB5C0"/><path d="M119.839 746.737c0-31.293 25.367-56.66 56.66-56.66s56.66 25.367 56.66 56.66c31.293 0 56.66 25.367 56.66 56.66s-25.367 56.66-56.66 56.66c0 31.293-25.367 56.66-56.66 56.66s-56.66-25.367-56.66-56.66c-31.293 0-56.66-25.367-56.66-56.66s25.367-56.66 56.66-56.66z" fill="#FF8E9E"/><path d="M154.836 803.397a21.663 21.663 0 1 0 43.326 0 21.663 21.663 0 1 0-43.326 0z" fill="#FFDBE0"/><path d="M812.662 833.569c16.092-16.091 42.184-16.094 58.276 0s16.091 42.184 0 58.275c16.093 16.094 16.091 42.184 0 58.276s-42.184 16.093-58.276 0c-16.091 16.091-42.183 16.093-58.275 0s-16.091-42.184 0-58.276c-16.093-16.093-16.091-42.184 0-58.275s42.182-16.091 58.275 0z" fill="#FFB5C0"/><path d="M789.03 891.844a23.632 23.632 0 1 0 47.265 0 23.632 23.632 0 1 0-47.265 0z" fill="#FFDBE0"/></svg>