<?xml version="1.0" standalone="no"?><!DOCTYPE svg PUBLIC "-//W3C//DTD SVG 1.1//EN" "http://www.w3.org/Graphics/SVG/1.1/DTD/svg11.dtd"><svg t="1624436437934" class="icon" viewBox="0 0 1024 1024" version="1.1" xmlns="http://www.w3.org/2000/svg" p-id="21230" xmlns:xlink="http://www.w3.org/1999/xlink" width="200" height="200"><defs><style type="text/css"></style></defs><path d="M512 0c-17.06804 0-30.905433 13.837392-30.905433 30.905433v124.334615h61.810866V30.905433c0-17.06804-13.837392-30.905433-30.905433-30.905433z" fill="#9EA2E3" p-id="21231"></path><path d="M728.338028 515.601513V274.419638l-123.05307-46.867059-155.149393 85.795542v275.062471l-31.020812 13.033851v184.975195h376.498221c22.758761 0 41.207243-18.448483 41.207243-41.207244V532.723123z" fill="#EFEDFF" p-id="21232"></path><path d="M652.063421 503.560757l-46.786705-17.818013 0.010302-0.006181-93.334406-35.547428-0.002061-20.603622v-33.822905a198.25629 198.25629 0 0 1 93.338527-168.210029l-93.334406-35.547428-216.288579 82.414487v242.863131l-108.48219 15.438293V745.212394c0 22.758761 18.448483 41.207243 41.207244 41.207244h283.53468v-36.839276h0.026785v-15.708201c0.562479-101.905513 53.441674-176.247501 140.110809-230.311404z" fill="#D4D4FF" p-id="21233"></path><path d="M760.817577 244.637103l-20.282205-0.247244c-35.778189-0.436797-71.307074-7.11031-104.412974-20.681915-44.20507-18.120885-81.495565-46.607453-95.450398-80.846552-5.074672-12.448708-16.316008-19.239662-28.148668-19.239662-11.758487 0-23.694165 6.300588-29.389006 19.96697-13.76734 33.033787-49.792773 61.174213-92.584435 79.618576-35.063243 15.114817-73.023356 22.330205-111.205988 22.330205h-17.375034c-16.932056 1.553513-29.428153 16.077006-27.965296 33.015243 1.473159 17.070101 16.55295 30.101891 33.614809 28.536016h23.113143c16.761046 0 33.515911-1.31039 49.994688-4.372088 66.757795-12.39926 136.274414-45.115751 171.325296-88.453409 35.083847 43.380926 105.548233 75.551421 172.60066 87.767308 16.458173 2.997827 33.182133 4.295855 49.910213 4.295855h23.063694c16.623002 0.859171 30.936338-11.191887 32.36623-27.773682 1.506125-17.41006-11.723461-33.015243-29.174729-33.915621zM863.835686 502.819026l-20.282205-0.247243h-103.018109c-35.778189-0.436797-71.307074-7.11031-104.412974-20.681916-44.20507-18.120885-81.495565-46.607453-95.450398-80.846551-5.072612-12.448708-16.316008-19.239662-28.148668-19.239662-11.758487 0-23.694165 6.300588-29.389006 19.96697-13.76734 33.033787-49.792773 61.174213-92.584435 79.618575-35.063243 15.114817-73.023356 22.330205-111.205988 22.330205H158.950761c-16.932056 1.553513-29.428153 16.077006-27.965296 33.015244 1.473159 17.070101 16.55295 30.101891 33.614809 28.536016h126.131251c16.761046 0 33.515911-1.31039 49.994688-4.372089 66.757795-12.39926 136.274414-45.115751 171.325296-88.453408 35.085907 43.380926 105.550294 75.551421 172.60066 87.767308 16.458173 2.997827 33.182133 4.295855 49.912274 4.295855h126.081802c16.623002 0.859171 30.936338-11.191887 32.36623-27.773682 1.504064-17.408-11.725521-33.013183-29.176789-33.915622z" fill="#EA5B70" p-id="21234"></path><path d="M385.242398 596.009207c-24.159807 0-43.813602 19.655855-43.813601 43.813602 0 8.53402 6.916636 15.452716 15.452716 15.452716s15.452716-6.918696 15.452716-15.452716c0-7.118551 5.791678-12.908169 12.908169-12.908169s12.908169 5.791678 12.908169 12.908169c0 8.53402 6.916636 15.452716 15.452717 15.452716s15.452716-6.918696 15.452716-15.452716c-0.00206-24.157746-19.655855-43.813602-43.813602-43.813602zM638.759662 596.009207c-24.159807 0-43.813602 19.655855-43.813602 43.813602 0 8.53402 6.916636 15.452716 15.452717 15.452716s15.452716-6.918696 15.452716-15.452716c0-7.118551 5.791678-12.908169 12.908169-12.908169s12.908169 5.791678 12.908169 12.908169c0 8.53402 6.916636 15.452716 15.452716 15.452716s15.452716-6.918696 15.452717-15.452716c-0.00206-24.157746-19.655855-43.813602-43.813602-43.813602zM552.236813 620.115445a15.448596 15.448596 0 0 0-21.800692 1.495823c-9.770237 11.20631-27.110245 11.198068-36.872242 0a15.452716 15.452716 0 0 0-23.296515 20.306929c22.082962 25.338334 61.400853 25.31361 83.465272 0a15.452716 15.452716 0 0 0-1.495823-21.802752z" fill="#313D40" p-id="21235"></path><path d="M933.335823 815.633513c-15.322913-76.0047-105.523509-110.101634-167.344676-62.041626-62.12404-47.911662-152.254584-13.499493-167.118036 62.878133L436.761755 1024h-84.083381 566.745884c61.073256-0.053569 104.575742-48.601883 104.575742-104.011203v-1.403107c-0.482125-52.697883-39.884491-96.113835-90.664177-102.952177z" fill="#FFDBE0" p-id="21236"></path><path d="M233.158825 746.737062l-143.195171 97.867204C41.01769 844.3426 0 884.115831 0 934.304193 0 983.843541 40.158519 1024 89.697867 1024h347.065948l15.057127-24.287549V787.816563c-36.633239-88.494616-152.365843-110.293247-218.662117-41.079501z" fill="#FFB5C0" p-id="21237"></path><path d="M659.705304 807.171606l-3.685988-0.84887 0.850929-3.675686c5.486744-23.698286-14.657416-45.474254-38.330977-42.220941-19.216998 2.641384-33.485006 13.13893-46.36021 27.390454l-15.197231-15.197231h-84.82099v174.158294H512c5.482624 23.823968 26.863002 48.459718 41.157795 61.755235 11.801755 10.975549 23.710648 15.467139 34.226736 15.467139 20.249239 0 35.256918-16.61064 34.58524-35.78437l-0.131864-3.768403 3.780765-0.131863c37.504773-1.30627 57.210076-58.545191-16.798133-89.71435 19.824805-1.726584 39.668153-7.718117 52.753513-15.87509a64.200885 64.200885 0 0 0 19.377707-18.681304c13.295517-19.779477 2.538366-47.394511-21.246455-52.873014z" fill="#FFB5C0" p-id="21238"></path><path d="M571.10973 717.576757c-10.52433-21.374197-42.462004-25.890511-59.10973-8.086922-16.647726-17.80565-48.5854-13.289336-59.10973 8.086922-9.61571 19.530173-7.557408 49.279742-1.071389 70.239806-12.875203-14.251525-27.141151-24.74907-46.360209-27.390454-23.673561-3.253312-43.817722 18.522656-38.330978 42.220941l0.85093 3.675686-3.685988 0.84887c-23.784821 5.476443-34.541972 33.093537-21.244395 52.870953a64.176161 64.176161 0 0 0 19.377707 18.681304c13.08536 8.154913 32.926648 14.146447 52.753513 15.875091-74.008209 31.169159-54.302905 88.40808-16.798133 89.71435l3.780765 0.131863-0.131864 3.768402c-0.673738 19.223179 14.465803 35.856483 34.733586 35.784371 10.481062-0.037087 22.334326-4.541038 34.07839-15.467139 14.294793-13.295517 35.675171-37.931268 41.157795-61.755236v-98.782004c0-23.358326 13.316121-43.591082 32.761819-53.565295a59.888547 59.888547 0 0 1 27.4193-6.613763c6.48396-20.960064 8.544322-50.707573-1.071389-70.237746z" fill="#FF8E9E" p-id="21239"></path><path d="M561.716539 806.944966a70.254229 70.254229 0 0 0-16.95472-12.51258H491.952676v112.471051l20.047324 20.047324c17.997264 0 35.992467-6.846584 49.716539-20.570656a70.353127 70.353127 0 0 0 11.066205-14.360725c15.679356-26.918632 11.997489-62.012781-11.066205-85.074414z" fill="#FFDBE0" p-id="21240"></path><path d="M544.761819 794.430326c-27.01959-14.235042-61.641915-9.759936-84.108105 14.226801-26.591034 28.412394-25.179686 73.453972 4.079517 100.051187v0.00206h0.002061c13.386173 12.17468 30.326471 18.238326 47.262648 18.238326v-78.953078c0.00206-23.356266 13.318181-43.591082 32.763879-53.565296z" fill="#FFB5C0" p-id="21241"></path><path d="M119.838905 746.737062c0-31.292781 25.367179-56.65996 56.65996-56.659959s56.65996 25.367179 56.65996 56.659959c31.292781 0 56.65996 25.367179 56.65996 56.65996s-25.367179 56.65996-56.65996 56.65996c0 31.292781-25.367179 56.65996-56.65996 56.65996s-56.65996-25.367179-56.65996-56.65996c-31.292781 0-56.65996-25.367179-56.659959-56.65996s25.367179-56.65996 56.659959-56.65996z" fill="#FF8E9E" p-id="21242"></path><path d="M176.498865 803.397022m-21.662648 0a21.662648 21.662648 0 1 0 43.325296 0 21.662648 21.662648 0 1 0-43.325296 0Z" fill="#FFDBE0" p-id="21243"></path><path d="M812.662471 833.568966c16.091429-16.091429 42.183855-16.093489 58.275284 0s16.091429 42.183855 0 58.275283c16.093489 16.093489 16.091429 42.183855 0 58.275284s-42.183855 16.093489-58.275284 0c-16.091429 16.091429-42.183855 16.093489-58.275284 0s-16.091429-42.183855 0-58.275284c-16.093489-16.093489-16.091429-42.183855 0-58.275283s42.181795-16.091429 58.275284 0z" fill="#FFB5C0" p-id="21244"></path><path d="M812.662471 891.844249m-23.632354 0a23.632354 23.632354 0 1 0 47.264708 0 23.632354 23.632354 0 1 0-47.264708 0Z" fill="#FFDBE0" p-id="21245"></path></svg>