<?xml version="1.0" standalone="no"?><!DOCTYPE svg PUBLIC "-//W3C//DTD SVG 1.1//EN" "http://www.w3.org/Graphics/SVG/1.1/DTD/svg11.dtd"><svg t="1624436418951" class="icon" viewBox="0 0 1024 1024" version="1.1" xmlns="http://www.w3.org/2000/svg" p-id="20353" xmlns:xlink="http://www.w3.org/1999/xlink" width="200" height="200"><defs><style type="text/css"></style></defs><path d="M548.056338 720.096579h30.905433v92.716298h-30.905433zM670.441851 720.096579h30.905433v92.716298h-30.905433z" fill="#EFEDFF" p-id="20354"></path><path d="M685.894567 632.531187c-17.06804 0-30.905433 13.837392-30.905432 30.905433v41.207243c0 17.06804 13.837392 30.905433 30.905432 30.905433s30.905433-13.837392 30.905433-30.905433v-41.207243c0-17.06804-13.837392-30.905433-30.905433-30.905433z" fill="#FFB5C0" p-id="20355"></path><path d="M563.509054 632.531187c-17.06804 0-30.905433 13.837392-30.905432 30.905433v41.207243c0 17.06804 13.837392 30.905433 30.905432 30.905433s30.905433-13.837392 30.905433-30.905433v-41.207243c0-17.06804-13.837392-30.905433-30.905433-30.905433z" fill="#70DCBA" p-id="20356"></path><path d="M460.490946 736.729883h-123.621731c-17.06804 0-30.905433 13.837392-30.905432 30.905433V797.360161l92.716297 41.207243 92.716298-41.207243v-29.724845c0-17.06804-13.837392-30.905433-30.905432-30.905433z" fill="#D4D4FF" p-id="20357"></path><path d="M244.152918 797.360161L197.794769 838.567404l-46.358149-41.207243V460.892716h92.716298zM779.847082 797.360161l46.358149 41.207243 46.358149-41.207243V460.892716h-92.716298z" fill="#EFEDFF" p-id="20358"></path><path d="M185.482044 196.136177a100.658994 100.658994 0 0 0-89.805006 55.190922L11.109473 418.348298A103.009867 103.009867 0 0 0 0 464.883638v23.411895c0 56.552821 45.845119 102.4 102.4 102.4 53.742487 0 102.4-42.124105 102.4-104.911581l102.4-45.494857-19.985513-244.152918H185.482044zM614.4 440.289095l-102.4-41.207244-102.4 41.207244v48.006438c0 56.552821 45.845119 102.4 102.4 102.4 53.742487 0 102.4-42.124105 102.4-104.911581z" fill="#FFB5C0" p-id="20359"></path><path d="M1012.890527 418.348298l-84.567565-167.021199a100.658994 100.658994 0 0 0-89.805006-55.190922H736.785513l-75.753336 41.207244-87.83942-41.207244h-122.385514l-89.213682 41.207244-74.379074-41.207244-82.414487 244.152918h614.4l102.4 150.406438 102.4-125.811895a103.018109 103.018109 0 0 0-11.109473-46.53534z" fill="#FFDBE0" p-id="20360"></path><path d="M287.214487 196.136177l-82.414487 244.152918 102.4 62.428973 102.4-62.428973 41.207243-244.152918zM736.785513 196.136177h-163.592756l41.207243 244.152918c0 4.44008 102.4 62.428974 102.4 62.428973l102.4-62.428973z" fill="#EFEDFF" p-id="20361"></path><path d="M409.6 440.289095H204.8v48.006438c0 56.552821 45.845119 102.4 102.4 102.4 53.742487 0 102.4-42.124105 102.4-104.911581zM614.4 440.289095v48.006438c0 56.552821 45.845119 102.4 102.4 102.4 56.552821 0 102.4-45.847179 102.4-102.4v-48.006438z" fill="#D4D4FF" p-id="20362"></path><path d="M819.2 440.289095v48.006438c0 56.552821 45.845119 102.4 102.4 102.4s102.4-45.845119 102.4-102.4v-23.411895c0-8.317682-1.02606-16.571493-2.997827-24.594543z" fill="#FFB5C0" p-id="20363"></path><path d="M151.43662 797.360161c-34.138141 0-61.810865 27.674785-61.810865 61.810865v103.018109c0 34.13608 27.672724 61.810865 61.810865 61.810865h422.374245V797.360161z" fill="#70DCBA" p-id="20364"></path><path d="M934.374245 962.189135v-103.018109c0-34.13608-27.674785-61.810865-61.810865-61.810865h-298.752515c-34.138141 0-61.810865 27.674785-61.810865 61.810865v103.018109c0 34.13608 27.672724 61.810865 61.810865 61.810865h298.752515c34.13608 0 61.810865-27.674785 61.810865-61.810865z" fill="#B0EBD8" p-id="20365"></path><path d="M279.360386 948.50833a60.481932 48.165087 0 1 0 120.963863 0 60.481932 48.165087 0 1 0-120.963863 0Z" fill="#FF8E9E" p-id="20366"></path><path d="M623.675751 948.50833a60.481932 48.165087 0 1 0 120.963863 0 60.481932 48.165087 0 1 0-120.963863 0Z" fill="#FF8E9E" p-id="20367"></path><path d="M383.332443 870.206326a15.452716 15.452716 0 0 0-15.452717 15.452716v24.724346a15.452716 15.452716 0 0 0 30.905433 0v-24.724346a15.452716 15.452716 0 0 0-15.452716-15.452716zM640.667557 870.206326a15.452716 15.452716 0 0 0-15.452716 15.452716v24.724346a15.452716 15.452716 0 0 0 30.905433 0v-24.724346a15.452716 15.452716 0 0 0-15.452717-15.452716zM556.075268 898.000612a15.452716 15.452716 0 0 0-21.802753 1.495823c-5.624789 6.453054-13.742616 10.153465-22.274575 10.153464s-16.649787-3.70041-22.274576-10.153464c-5.608306-6.434511-15.368241-7.104129-21.802752-1.495823s-7.104129 15.368241-1.495823 21.802752c11.494761 13.188378 28.1054 20.754028 45.57109 20.754028s34.07633-7.56359 45.571091-20.754028a15.448596 15.448596 0 0 0-1.491702-21.802752z" fill="#313D40" p-id="20368"></path><path d="M659.705304 108.708829l-3.685988-0.848869 0.850929-3.675686c5.486744-23.698286-14.657416-45.474254-38.330977-42.220942-19.216998 2.641384-33.485006 13.13893-46.36021 27.390455l-15.197231-15.197232h-84.82099v174.158294H512c5.482624 23.823968 26.863002 48.459718 41.157795 61.755236 11.801755 10.975549 23.710648 15.467139 34.226736 15.467138 20.249239 0 35.256918-16.61064 34.58524-35.78437l-0.131864-3.770463 3.780765-0.131863c37.504773-1.30627 57.210076-58.545191-16.798133-89.71435 27.332765-2.379718 56.77534-11.7214 72.129159-34.556394 13.297577-19.777416 2.540427-47.392451-21.244394-52.870954z" fill="#FFB5C0" p-id="20369"></path><path d="M571.10973 19.11398C560.5854-2.262278 528.647726-6.778592 512 11.027058c-16.647726-17.80565-48.5854-13.289336-59.10973 8.086922-9.61571 19.530173-7.557408 49.279742-1.071389 70.239807-12.875203-14.251525-27.141151-24.74907-46.360209-27.390455-23.673561-3.253312-43.817722 18.522656-38.330978 42.220942l0.85093 3.675686-3.685988 0.848869c-23.784821 5.476443-34.541972 33.093537-21.244395 52.870954 15.347638 22.828813 44.781972 32.172555 72.129159 34.556394-74.008209 31.169159-54.302905 88.40808-16.798132 89.71435l3.780764 0.131863-0.131863 3.770463c-0.673738 19.223179 14.465803 35.856483 34.733586 35.78437 10.481062-0.037087 22.334326-4.541038 34.08045-15.467138 14.294793-13.295517 35.675171-37.931268 41.157795-61.755236V149.532845c0-23.358326 13.316121-43.591082 32.761819-53.565296a59.888547 59.888547 0 0 1 27.4193-6.613762c6.48396-20.962125 8.544322-50.709634-1.071389-70.239807z" fill="#FF8E9E" p-id="20370"></path><path d="M561.716539 108.482189a70.254229 70.254229 0 0 0-16.95472-12.512579H491.952676v112.47105l20.047324 20.047324c17.997264 0 35.992467-6.846584 49.716539-20.570656a70.353127 70.353127 0 0 0 11.066205-14.360724c15.679356-26.918632 11.997489-62.012781-11.066205-85.074415z" fill="#FFDBE0" p-id="20371"></path><path d="M544.761819 95.967549c-27.01959-14.235042-61.641915-9.759936-84.108105 14.226801-26.591034 28.412394-25.179686 73.453972 4.079517 100.051187v0.002061h0.002061c13.386173 12.17468 30.326471 18.238326 47.262648 18.238326v-78.953079c0.00206-23.356266 13.318181-43.591082 32.763879-53.565296z" fill="#FFB5C0" p-id="20372"></path></svg>