<svg class="icon" viewBox="0 0 1024 1024" xmlns="http://www.w3.org/2000/svg" width="200" height="200"><path d="M548.056 720.097h30.906v92.716h-30.906zm122.386 0h30.905v92.716h-30.905z" fill="#EFEDFF"/><path d="M685.895 632.531c-17.068 0-30.906 13.838-30.906 30.906v41.207c0 17.068 13.838 30.905 30.906 30.905s30.905-13.837 30.905-30.905v-41.207c0-17.068-13.837-30.906-30.905-30.906z" fill="#FFB5C0"/><path d="M563.51 632.531c-17.069 0-30.906 13.838-30.906 30.906v41.207c0 17.068 13.837 30.905 30.905 30.905s30.905-13.837 30.905-30.905v-41.207c0-17.068-13.837-30.906-30.905-30.906z" fill="#70DCBA"/><path d="M460.49 736.73H336.87c-17.069 0-30.906 13.837-30.906 30.905v29.725l92.716 41.207 92.716-41.207v-29.725c0-17.068-13.837-30.905-30.905-30.905z" fill="#D4D4FF"/><path d="m244.153 797.36-46.358 41.207-46.358-41.207V460.893h92.716zm535.694 0 46.358 41.207 46.358-41.207V460.893h-92.716z" fill="#EFEDFF"/><path d="M185.482 196.136a100.659 100.659 0 0 0-89.805 55.191L11.109 418.348A103.01 103.01 0 0 0 0 464.884v23.412c0 56.552 45.845 102.4 102.4 102.4 53.742 0 102.4-42.125 102.4-104.912l102.4-45.495-19.986-244.153H185.482zM614.4 440.29 512 399.082l-102.4 41.207v48.007c0 56.552 45.845 102.4 102.4 102.4 53.742 0 102.4-42.125 102.4-104.912z" fill="#FFB5C0"/><path d="m1012.89 418.348-84.567-167.02a100.659 100.659 0 0 0-89.805-55.192H736.786l-75.754 41.207-87.84-41.207H450.808l-89.213 41.207-74.38-41.207L204.8 440.29h614.4l102.4 150.407L1024 464.884a103.018 103.018 0 0 0-11.11-46.536z" fill="#FFDBE0"/><path d="M287.214 196.136 204.8 440.29l102.4 62.43 102.4-62.43 41.207-244.153zm449.572 0H573.193L614.4 440.29c0 4.44 102.4 62.43 102.4 62.43l102.4-62.43z" fill="#EFEDFF"/><path d="M409.6 440.29H204.8v48.006c0 56.552 45.845 102.4 102.4 102.4 53.742 0 102.4-42.125 102.4-104.912zm204.8 0v48.006c0 56.552 45.845 102.4 102.4 102.4 56.553 0 102.4-45.848 102.4-102.4v-48.007z" fill="#D4D4FF"/><path d="M819.2 440.29v48.006c0 56.552 45.845 102.4 102.4 102.4s102.4-45.846 102.4-102.4v-23.412a103.05 103.05 0 0 0-2.998-24.595z" fill="#FFB5C0"/><path d="M151.437 797.36c-34.139 0-61.811 27.675-61.811 61.811v103.018c0 34.136 27.672 61.811 61.81 61.811h422.375V797.36z" fill="#70DCBA"/><path d="M934.374 962.19V859.17c0-34.136-27.675-61.81-61.81-61.81H573.81c-34.138 0-61.811 27.674-61.811 61.81v103.018c0 34.136 27.673 61.811 61.81 61.811h298.753c34.136 0 61.811-27.675 61.811-61.81z" fill="#B0EBD8"/><path d="M279.36 948.508a60.482 48.165 0 1 0 120.964 0 60.482 48.165 0 1 0-120.964 0zM623.676 948.508a60.482 48.165 0 1 0 120.964 0 60.482 48.165 0 1 0-120.964 0z" fill="#FF8E9E"/><path d="M383.332 870.206a15.453 15.453 0 0 0-15.452 15.453v24.724a15.453 15.453 0 0 0 30.905 0V885.66a15.453 15.453 0 0 0-15.453-15.453zm257.336 0a15.453 15.453 0 0 0-15.453 15.453v24.724a15.453 15.453 0 0 0 30.905 0V885.66a15.453 15.453 0 0 0-15.452-15.453zm-84.593 27.795a15.453 15.453 0 0 0-21.802 1.495c-5.625 6.453-13.743 10.154-22.275 10.154s-16.65-3.7-22.275-10.154c-5.608-6.434-15.368-7.104-21.802-1.495s-7.105 15.368-1.496 21.802c11.495 13.189 28.105 20.754 45.57 20.754s34.077-7.563 45.572-20.754a15.449 15.449 0 0 0-1.492-21.802z" fill="#313D40"/><path d="m659.705 108.709-3.686-.849.851-3.676c5.487-23.698-14.657-45.474-38.33-42.22-19.218 2.64-33.486 13.138-46.36 27.39l-15.198-15.197H472.16v174.158H512c5.483 23.824 26.863 48.46 41.158 61.755 11.802 10.976 23.71 15.467 34.227 15.467 20.249 0 35.256-16.61 34.585-35.784l-.132-3.77 3.78-.132c37.505-1.307 57.21-58.546-16.797-89.715 27.332-2.38 56.775-11.721 72.129-34.556 13.297-19.778 2.54-47.393-21.245-52.871z" fill="#FFB5C0"/><path d="M571.11 19.114C560.585-2.262 528.648-6.779 512 11.027c-16.648-17.806-48.585-13.29-59.11 8.087-9.615 19.53-7.557 49.28-1.071 70.24-12.875-14.252-27.141-24.75-46.36-27.39-23.674-3.254-43.818 18.522-38.331 42.22l.85 3.676-3.685.849c-23.785 5.476-34.542 33.093-21.245 52.87 15.348 22.83 44.782 32.173 72.13 34.557-74.009 31.17-54.304 88.408-16.799 89.715l3.781.131-.132 3.77c-.674 19.224 14.466 35.857 34.734 35.785 10.48-.037 22.334-4.54 34.08-15.467 14.295-13.295 35.675-37.931 41.158-61.755v-98.782c0-23.358 13.316-43.591 32.762-53.565a59.889 59.889 0 0 1 27.42-6.614c6.483-20.962 8.543-50.71-1.072-70.24z" fill="#FF8E9E"/><path d="M561.717 108.482a70.254 70.254 0 0 0-16.955-12.512h-52.81v112.47L512 228.489c17.997 0 35.992-6.847 49.717-20.57a70.353 70.353 0 0 0 11.066-14.361c15.68-26.919 11.997-62.013-11.066-85.075z" fill="#FFDBE0"/><path d="M544.762 95.968c-27.02-14.235-61.642-9.76-84.108 14.226-26.591 28.413-25.18 73.454 4.08 100.052v.002h.001c13.386 12.174 30.327 18.238 47.263 18.238v-78.953c.002-23.356 13.318-43.591 32.764-53.565z" fill="#FFB5C0"/></svg>