<?xml version="1.0" standalone="no"?><!DOCTYPE svg PUBLIC "-//W3C//DTD SVG 1.1//EN" "http://www.w3.org/Graphics/SVG/1.1/DTD/svg11.dtd"><svg t="1624436440338" class="icon" viewBox="0 0 1024 1024" version="1.1" xmlns="http://www.w3.org/2000/svg" p-id="21376" xmlns:xlink="http://www.w3.org/1999/xlink" width="200" height="200"><defs><style type="text/css"></style></defs><path d="M144.237714 631.325875H62.696821c-16.641545 0-30.961062 12.788668-31.744 29.41167-0.834447 17.74796 13.305819 32.399195 30.870406 32.399195 11.793513 0 21.21761 7.213328 23.399534 17.313224 1.907895 8.832773-1.872869 17.813891-9.32726 22.923589-28.810044 19.73827-47.112241 53.693038-44.777851 91.75823 3.133811 51.109344 44.135018 92.697755 95.199034 96.490881 60.609674 4.501891 111.183324-43.341779 111.183324-102.997505V724.588169c0-51.506994-41.7553-93.262294-93.262294-93.262294z" fill="#FF8E9E" p-id="21377"></path><path d="M589.263581 213.84705h-43.630229L496.547284 295.661972l49.086068 81.814921H589.263581c29.205634-15.609304 49.086068-46.384934 49.086069-81.814921s-19.878374-66.205618-49.086069-81.814922z" fill="#FFDBE0" p-id="21378"></path><path d="M540.179573 295.661972c0-35.429988 19.878374-66.205618 49.086069-81.814922a92.293924 92.293924 0 0 0-43.63023-10.901376c-51.206181 0-92.716298 41.510117-92.716297 92.716298s41.510117 92.716298 92.716297 92.716298a92.293924 92.293924 0 0 0 43.63023-10.901377c-29.207694-15.609304-49.086068-46.384934-49.086069-81.814921z" fill="#FFB5C0" p-id="21379"></path><path d="M231.440483 590.118632C-0.688161 420.942294 77.554093 122.165054 388.409175 36.289159l24.68726 89.368209c-225.306785 62.243541-302.893843 261.381666-127.048113 389.532073z" fill="#FF8E9E" p-id="21380"></path><path d="M858.517891 590.118632l-54.607839-74.929191c175.404813-127.83105 98.981859-327.088676-127.050173-389.532073l24.68726-89.368209c311.555606 86.067509 388.584306 385.030181 156.970752 553.829473z" fill="#FFB5C0" p-id="21381"></path><path d="M777.424097 326.567404h-175.130785c-10.802479 0-43.657014 6.191388-83.516781 14.651236v94.317199c39.859767 8.459847 72.714302 14.651235 83.516781 14.651235l98.693408 20.603622 76.437377-20.603622c34.138141 0 61.810865-27.674785 61.810865-61.810865s-27.674785-61.808805-61.810865-61.808805z" fill="#FFB5C0" p-id="21382"></path><path d="M540.482447 388.37827c0-34.13608 27.672724-61.810865 61.810865-61.810866h-288.450704c-34.138141 0-61.810865 27.674785-61.810866 61.810866s27.672724 61.810865 61.810866 61.810865l128.867412 20.603622 159.583292-20.603622c-34.138141 0-61.810865-27.674785-61.810865-61.810865z" fill="#FF8E9E" p-id="21383"></path><path d="M868.341698 505.029795c-17.756201-33.785819-52.90392-54.84066-91.072129-54.84066H478.622133c-38.050769 0-73.124314 20.910616-90.913481 54.548088-44.262761 83.696032-76.043847 173.597875-74.442946 257.866688 2.661988 139.989247 114.251203 252.423211 252.281047 260.866576h123.62173c136.641159-8.389795 252.431453-119.548394 252.431453-268.794849 0-79.457867-29.026382-165.480048-73.258238-249.645843z" fill="#FFDBE0" p-id="21384"></path><path d="M436.885376 762.603911c-1.602962-84.268813 30.178125-174.170656 74.442946-257.866688 17.789167-33.635412 52.862712-54.548089 90.913481-54.548088h-288.450704c-38.050769 0-73.124314 20.910616-90.913481 54.548088-44.262761 83.696032-76.043847 173.597875-74.442946 257.866688C151.203799 908.193223 271.782374 1024 417.398471 1024h255.155251c5.569159 0 11.105352-0.191614 16.612701-0.529513-138.029843-8.443364-249.616998-120.877328-252.281047-260.866576z" fill="#FFB5C0" p-id="21385"></path><path d="M524.376596 123.62173c44.106173 0 87.093569 5.696901 127.769239 16.932057a61.889159 61.889159 0 0 0 16.491139 2.247855c27.106125 0 51.978817-17.972539 59.544467-45.371236 9.088258-32.903984-10.217336-66.947348-43.123381-76.035605C633.666447 7.196845 579.602543 0 524.376596 0l-34.809819 19.878374V109.776097z" fill="#E8B5B1" p-id="21386"></path><path d="M524.376596 0c-55.228008 0-109.289851 7.196845-160.681465 21.394801-32.906044 9.088258-52.211638 43.133682-43.12338 76.035605s43.12338 52.22194 76.035605 43.123381C437.280966 129.318632 480.268362 123.62173 524.376596 123.62173c-34.138141-34.13608-34.138141-89.48565 0-123.62173z" fill="#D6948C" p-id="21387"></path><path d="M692.685521 744.330559l-3.685988-0.848869 0.85093-3.675686c5.486744-23.698286-14.657416-45.474254-38.330978-42.220942-19.216998 2.641384-33.485006 13.13893-46.360209 27.390455l-15.197232-15.197231h-84.82099v174.158293h39.839163c5.482624 23.823968 26.863002 48.459718 41.157795 61.755236 11.801755 10.975549 23.710648 15.467139 34.226736 15.467139 20.249239 0 35.256918-16.61064 34.58524-35.78437l-0.131863-3.768403 3.780764-0.131863c37.504773-1.30627 57.210076-58.545191-16.798132-89.71435 27.332765-2.379718 56.77534-11.7214 72.129158-34.556395 13.297577-19.779477 2.540427-47.394511-21.244394-52.873014z" fill="#FFB5C0" p-id="21388"></path><path d="M604.087887 654.73571c-10.52433-21.374197-42.462004-25.890511-59.10973-8.086921-16.647726-17.80565-48.5854-13.289336-59.10973 8.086921-9.61571 19.530173-7.557408 49.279742-1.071389 70.239807-12.875203-14.251525-27.141151-24.74907-46.360209-27.390455-23.673561-3.253312-43.817722 18.522656-38.330978 42.220942l0.85093 3.675686-3.685988 0.848869c-23.784821 5.476443-34.541972 33.093537-21.244395 52.870954 15.347638 22.828813 44.781972 32.172555 72.129159 34.556394-74.008209 31.169159-54.302905 88.40808-16.798132 89.714351l3.780764 0.131863-0.131863 3.768402c-0.673738 19.223179 14.465803 35.856483 34.733585 35.78437 10.481062-0.037087 22.334326-4.541038 34.078391-15.467138 14.294793-13.295517 35.675171-37.931268 41.157795-61.755236v-98.782004c0-23.358326 13.316121-43.591082 32.761818-53.565296a59.888547 59.888547 0 0 1 27.4193-6.613762c6.48808-20.960064 8.546382-50.707573-1.069328-70.237747z" fill="#FF8E9E" p-id="21389"></path><path d="M594.696757 744.10392a70.254229 70.254229 0 0 0-16.954721-12.51258h-52.809143v112.47105l20.047324 20.047324c17.997264 0 35.992467-6.846584 49.71654-20.570656a70.353127 70.353127 0 0 0 11.066205-14.360724c15.679356-26.918632 11.995429-62.012781-11.066205-85.074414z" fill="#FFDBE0" p-id="21390"></path><path d="M577.742036 731.58928c-27.01959-14.235042-61.641915-9.759936-84.108104 14.2268-26.591034 28.412394-25.179686 73.453972 4.079517 100.051188v0.00206h0.00206c13.386173 12.17468 30.326471 18.238326 47.262648 18.238326v-78.953079c0.00206-23.356266 13.316121-43.591082 32.763879-53.565295z" fill="#FFB5C0" p-id="21391"></path><path d="M338.352676 576.079324a55.69159 44.349296 0 1 0 111.383179 0 55.69159 44.349296 0 1 0-111.383179 0Z" fill="#FF8E9E" p-id="21392"></path><path d="M640.222519 576.079324a55.69159 44.349296 0 1 0 111.383179 0 55.69159 44.349296 0 1 0-111.383179 0Z" fill="#FF8E9E" p-id="21393"></path><path d="M426.503211 559.083396a53.569416 53.569416 0 0 0 40.385159-18.392853 15.452716 15.452716 0 0 0-23.300636-20.304869 22.670165 22.670165 0 0 1-17.084523 7.79229 22.672225 22.672225 0 0 1-17.086583-7.79229 15.454777 15.454777 0 0 0-23.300636 20.304869 53.569416 53.569416 0 0 0 40.387219 18.392853zM663.457223 559.083396a53.571477 53.571477 0 0 0 40.38722-18.392853 15.452716 15.452716 0 0 0-23.300636-20.304869 22.672225 22.672225 0 0 1-17.086584 7.79229 22.670165 22.670165 0 0 1-17.084523-7.79229 15.454777 15.454777 0 0 0-23.300636 20.304869 53.569416 53.569416 0 0 0 40.385159 18.392853zM544.819509 579.044185c18.122946 0 35.355815-7.84998 47.281191-21.532845a15.452716 15.452716 0 0 0-1.497883-21.802752 15.452716 15.452716 0 0 0-21.802753 1.497883c-6.053344 6.947541-14.797521 10.934342-23.982615 10.934342s-17.927211-3.986801-23.982616-10.934342a15.454777 15.454777 0 0 0-23.300636 20.304869 62.731847 62.731847 0 0 0 47.285312 21.532845z" fill="#313D40" p-id="21394"></path></svg>