<svg class="icon" viewBox="0 0 1024 1024" xmlns="http://www.w3.org/2000/svg" width="200" height="200"><path d="M144.238 631.326H62.697c-16.642 0-30.961 12.789-31.744 29.412-.835 17.748 13.306 32.399 30.87 32.399 11.794 0 21.218 7.213 23.4 17.313 1.908 8.833-1.873 17.814-9.327 22.924-28.81 19.738-47.113 53.693-44.778 91.758 3.133 51.11 44.135 92.698 95.199 96.49 60.61 4.503 111.183-43.341 111.183-102.997v-94.037c0-51.507-41.755-93.262-93.262-93.262z" fill="#FF8E9E"/><path d="M589.264 213.847h-43.63l-49.087 81.815 49.086 81.815h43.63c29.206-15.61 49.087-46.385 49.087-81.815s-19.879-66.206-49.086-81.815z" fill="#FFDBE0"/><path d="M540.18 295.662c0-35.43 19.878-66.206 49.086-81.815a92.294 92.294 0 0 0-43.63-10.901c-51.207 0-92.717 41.51-92.717 92.716s41.51 92.716 92.716 92.716a92.294 92.294 0 0 0 43.63-10.901c-29.207-15.61-49.085-46.385-49.085-81.815z" fill="#FFB5C0"/><path d="M231.44 590.119C-.688 420.942 77.554 122.165 388.41 36.289l24.686 89.368C187.79 187.901 110.203 387.04 286.048 515.19z" fill="#FF8E9E"/><path d="m858.518 590.119-54.608-74.93c175.405-127.83 98.982-327.088-127.05-389.532l24.687-89.368c311.556 86.068 388.584 385.03 156.97 553.83z" fill="#FFB5C0"/><path d="M777.424 326.567h-175.13c-10.803 0-43.658 6.192-83.517 14.652v94.317c39.86 8.46 72.714 14.651 83.516 14.651l98.694 20.604 76.437-20.604c34.138 0 61.811-27.675 61.811-61.81s-27.675-61.81-61.81-61.81z" fill="#FFB5C0"/><path d="M540.482 388.378c0-34.136 27.673-61.81 61.811-61.81h-288.45c-34.139 0-61.811 27.674-61.811 61.81s27.672 61.811 61.81 61.811l128.868 20.604 159.583-20.604c-34.138 0-61.81-27.675-61.81-61.81z" fill="#FF8E9E"/><path d="M868.342 505.03c-17.757-33.786-52.904-54.84-91.072-54.84H478.622c-38.05 0-73.124 20.91-90.913 54.547-44.263 83.696-76.044 173.598-74.443 257.867 2.662 139.99 114.25 252.423 252.28 260.866h123.622C825.81 1015.08 941.6 903.922 941.6 754.676c0-79.458-29.026-165.48-73.258-249.646z" fill="#FFDBE0"/><path d="M436.885 762.604c-1.603-84.269 30.179-174.17 74.443-257.867 17.79-33.635 52.863-54.548 90.914-54.548h-288.45c-38.052 0-73.125 20.91-90.914 54.548-44.263 83.696-76.044 173.598-74.443 257.867C151.204 908.194 271.782 1024 417.398 1024h255.156c5.569 0 11.105-.192 16.612-.53-138.03-8.443-249.617-120.877-252.28-260.866z" fill="#FFB5C0"/><path d="M524.377 123.622c44.106 0 87.093 5.697 127.769 16.932a61.89 61.89 0 0 0 16.491 2.248c27.106 0 51.979-17.973 59.544-45.372 9.089-32.904-10.217-66.947-43.123-76.035C633.666 7.197 579.603 0 524.377 0l-34.81 19.878v89.898z" fill="#E8B5B1"/><path d="M524.377 0c-55.228 0-109.29 7.197-160.682 21.395-32.906 9.088-52.212 43.133-43.123 76.035s43.123 52.222 76.035 43.124c40.674-11.235 83.661-16.932 127.77-16.932-34.139-34.136-34.139-89.486 0-123.622z" fill="#D6948C"/><path d="m692.686 744.33-3.686-.848.85-3.676c5.487-23.698-14.657-45.474-38.33-42.22-19.218 2.64-33.486 13.138-46.36 27.39l-15.198-15.198h-84.82v174.159h39.838c5.483 23.824 26.863 48.46 41.158 61.755 11.802 10.975 23.71 15.467 34.227 15.467 20.249 0 35.257-16.61 34.585-35.784l-.132-3.769 3.78-.132c37.506-1.306 57.211-58.545-16.797-89.714 27.333-2.38 56.775-11.721 72.129-34.556 13.297-19.78 2.54-47.395-21.244-52.873z" fill="#FFB5C0"/><path d="M604.088 654.736c-10.524-21.374-42.462-25.89-59.11-8.087-16.648-17.806-48.585-13.29-59.11 8.087-9.615 19.53-7.557 49.28-1.071 70.24-12.875-14.252-27.141-24.75-46.36-27.39-23.674-3.254-43.818 18.522-38.331 42.22l.85 3.676-3.685.849c-23.785 5.476-34.542 33.093-21.245 52.87 15.348 22.83 44.782 32.173 72.13 34.557-74.009 31.17-54.303 88.408-16.799 89.714l3.781.132-.132 3.769c-.673 19.223 14.466 35.856 34.734 35.784 10.481-.037 22.334-4.541 34.078-15.467 14.295-13.296 35.675-37.932 41.158-61.755v-98.782c0-23.359 13.316-43.592 32.762-53.566a59.889 59.889 0 0 1 27.42-6.614c6.487-20.96 8.546-50.707-1.07-70.237z" fill="#FF8E9E"/><path d="M594.697 744.104a70.254 70.254 0 0 0-16.955-12.513h-52.81v112.471l20.048 20.048c17.997 0 35.993-6.847 49.717-20.57a70.353 70.353 0 0 0 11.066-14.362c15.68-26.918 11.995-62.012-11.066-85.074z" fill="#FFDBE0"/><path d="M577.742 731.59c-27.02-14.236-61.642-9.76-84.108 14.226-26.591 28.412-25.18 73.454 4.08 100.051v.002h.002c13.386 12.175 30.326 18.239 47.262 18.239v-78.953c.002-23.357 13.316-43.592 32.764-53.566z" fill="#FFB5C0"/><path d="M338.353 576.08a55.692 44.35 0 1 0 111.383 0 55.692 44.35 0 1 0-111.383 0zM640.223 576.08a55.692 44.35 0 1 0 111.383 0 55.692 44.35 0 1 0-111.383 0z" fill="#FF8E9E"/><path d="M426.503 559.083a53.57 53.57 0 0 0 40.385-18.392 15.453 15.453 0 0 0-23.3-20.305 22.67 22.67 0 0 1-17.085 7.792 22.672 22.672 0 0 1-17.086-7.792 15.455 15.455 0 0 0-23.301 20.305 53.57 53.57 0 0 0 40.387 18.392zm236.954 0a53.571 53.571 0 0 0 40.387-18.392 15.453 15.453 0 0 0-23.3-20.305 22.672 22.672 0 0 1-17.087 7.792 22.67 22.67 0 0 1-17.084-7.792 15.455 15.455 0 0 0-23.3 20.305 53.57 53.57 0 0 0 40.384 18.392zM544.82 579.044a62.714 62.714 0 0 0 47.28-21.533 15.453 15.453 0 0 0-1.497-21.802 15.453 15.453 0 0 0-21.803 1.497c-6.053 6.948-14.797 10.935-23.983 10.935s-17.927-3.987-23.982-10.935a15.455 15.455 0 0 0-23.3 20.305 62.732 62.732 0 0 0 47.285 21.533z" fill="#313D40"/></svg>