<?xml version="1.0" standalone="no"?><!DOCTYPE svg PUBLIC "-//W3C//DTD SVG 1.1//EN" "http://www.w3.org/Graphics/SVG/1.1/DTD/svg11.dtd"><svg t="1624436415661" class="icon" viewBox="0 0 1024 1024" version="1.1" xmlns="http://www.w3.org/2000/svg" p-id="20209" xmlns:xlink="http://www.w3.org/1999/xlink" width="200" height="200"><defs><style type="text/css"></style></defs><path d="M226.627477 393.904161v30.905433c8.521658 0 15.452716 6.931058 15.452716 15.452716v30.905432c0 8.53402 6.916636 15.452716 15.452716 15.452717s15.452716-6.918696 15.452717-15.452717v-30.905432c0-25.562913-20.797296-46.358149-46.358149-46.358149z" fill="#9EA2E3" p-id="20210"></path><path d="M870.047678 590.637843h-52.415614c-2.637264-12.877264-6.121336-24.936563-10.63971-35.881207-20.986849-50.839437-71.061891-83.588893-126.061199-83.588894H401.51926l-112.110487 101.837522v357.555251L379.6753 1024h236.412137c79.307461 0 149.019815-51.070197 173.321786-125.338012v-0.00206h80.574584c85.059992 0 154.016193-68.95208 154.016193-154.012073 0-85.035268-68.921175-153.974986-153.952322-154.010012z m61.205119 155.866398c-0.988974 33.33872-29.217996 59.441449-62.573199 59.441449h-40.638584c-9.535356 0-16.763107-8.542262-15.240499-17.951935 4.852153-29.998873 8.554624-60.521078 10.268845-90.048129 0.475944-8.187879 7.215388-14.591485 15.41769-14.591485h31.494696c34.41835 0 62.301231 28.509231 61.271051 63.1501z" fill="#EFEDFF" p-id="20211"></path><path d="M399.300249 971.860475a1776.384515 1776.384515 0 0 1-19.62701-73.196427c-23.001883-93.861859-45.496918-220.598857-27.643879-308.024145 2.624901-12.85872 6.108974-24.882994 10.608805-35.811155 20.951823-50.882704 71.061891-83.661006 126.090044-83.661006H143.135421c-55.028153 0-105.140282 32.778302-126.090045 83.661006-4.497771 10.92404-7.967421 22.956555-10.592322 35.811155-16.923815 82.855404 2.379718 201.019235 24.027944 293.051493a182.830358 182.830358 0 0 0 4.205199 14.972652C58.986109 972.927742 128.700523 1024 208.012105 1024h260.833609c-32.19728 0-60.543742-21.229972-69.545465-52.139525z" fill="#D4D4FF" p-id="20212"></path><path d="M289.412893 655.419751l-41.388555-44.032h-62.696821l-43.51897 46.298398v126.903887l46.446745 36.530222a78.388539 78.388539 0 0 0 48.455597 16.771348 72.87501 72.87501 0 0 0 11.313449-0.885956c34.572877-5.431115 61.017626-35.347573 61.017626-71.445119v-60.597312a72.329014 72.329014 0 0 0-19.629071-49.543468z" fill="#FFB5C0" p-id="20213"></path><path d="M187.004652 765.558471v-60.597312a72.331074 72.331074 0 0 1 19.62907-49.541408l41.390616-44.032-52.302294-55.640081-93.690849 99.672081a72.326954 72.326954 0 0 0-19.62907 49.541408v60.597312c0 39.948362 32.384773 72.331074 72.331074 72.331074h81.97563a72.87501 72.87501 0 0 0 11.313449-0.885955c-34.570817-5.431115-61.017626-35.347573-61.017626-71.445119z" fill="#FF8E9E" p-id="20214"></path><path d="M195.722044 591.804008a15.452716 15.452716 0 0 1-15.452716-15.452716v-136.088982c0-25.562913 20.797296-46.358149 46.358149-46.358149 8.53608 0 15.452716 6.918696 15.452716 15.452716s-6.916636 15.452716-15.452716 15.452717c-8.521658 0-15.452716 6.931058-15.452716 15.452716v136.088982a15.452716 15.452716 0 0 1-15.452717 15.452716z" fill="#9EA2E3" p-id="20215"></path><path d="M318.735968 826.287646a51.509054 41.019751 0 1 0 103.018108 0 51.509054 41.019751 0 1 0-103.018108 0Z" fill="#FF8E9E" p-id="20216"></path><path d="M628.62062 826.287646a51.509054 41.019751 0 1 0 103.018108 0 51.509054 41.019751 0 1 0-103.018108 0Z" fill="#FF8E9E" p-id="20217"></path><path d="M396.520821 755.133038a15.452716 15.452716 0 0 0-15.452716 15.452717v24.724346c0 8.53402 6.916636 15.452716 15.452716 15.452716s15.452716-6.918696 15.452716-15.452716v-24.724346a15.452716 15.452716 0 0 0-15.452716-15.452717zM653.855936 755.133038a15.452716 15.452716 0 0 0-15.452717 15.452717v24.724346c0 8.53402 6.916636 15.452716 15.452717 15.452716s15.452716-6.918696 15.452716-15.452716v-24.724346a15.452716 15.452716 0 0 0-15.452716-15.452717zM569.263646 782.925264a15.448596 15.448596 0 0 0-21.800692 1.495823c-5.624789 6.453054-13.744676 10.155525-22.276636 10.155525s-16.647726-3.70041-22.272515-10.153465a15.454777 15.454777 0 0 0-23.300636 20.304869c11.494761 13.188378 28.1054 20.754028 45.571091 20.754028s34.07633-7.56359 45.57109-20.751968a15.452716 15.452716 0 0 0-1.491702-21.804812z" fill="#313D40" p-id="20218"></path><path d="M701.703726 138.112258l-4.683203-1.07757 1.08169-4.670841c6.970205-30.108072-18.621553-57.772555-48.69872-53.639469-24.415292 3.35427-42.540298 16.693054-58.897513 34.797457l-19.307654-19.307654h-107.763123v221.262294h50.612797c6.964024 30.26672 34.129899 61.567742 52.289932 78.458591 14.993256 13.944531 30.122495 19.649674 43.483943 19.649674 25.725682 0 44.792274-21.102229 43.939284-45.463951l-0.166889-4.788282 4.802704-0.166889c47.647936-1.658592 72.683396-74.379074-21.341232-113.977175 34.725344-3.024612 72.131219-14.890237 91.638729-43.902198 16.892909-25.130237 3.226527-60.216145-26.990745-67.173987z" fill="#FFB5C0" p-id="20219"></path><path d="M589.14408 24.283429c-13.371751-27.155573-53.946463-32.893682-75.09608-10.272966-21.149618-22.620716-61.72433-16.882608-75.09608 10.272966-12.215887 24.812942-9.599227 62.606165-1.3619 89.238406-16.357215-18.104402-34.482221-31.443187-58.897513-34.797457-30.075107-4.133087-55.666865 23.531396-48.69872 53.639469l1.08169 4.670841-4.681143 1.07757c-30.217272 6.957843-43.883654 42.043751-26.990744 67.169867 19.499268 29.003718 56.892781 40.875525 91.638728 43.902197-94.024628 39.598101-68.989167 112.318584-21.341231 113.977175l4.802704 0.166889-0.16689 4.788282c-0.85505 24.421473 18.378431 45.554608 44.126777 45.463952 13.316121-0.047388 28.375308-5.769014 43.296451-19.649674 18.160032-16.890849 45.325907-48.191871 52.289931-78.458592V189.977755c0-29.675396 16.917634-55.382535 41.623437-68.053763a76.109779 76.109779 0 0 1 34.834543-8.404217c8.237328-26.632241 10.851928-64.425465-1.36396-89.236346z" fill="#FF8E9E" p-id="20220"></path><path d="M577.212523 137.821746a89.271372 89.271372 0 0 0-21.541086-15.897754h-67.091574v142.890237l25.470197 25.470198c22.865899 0.00206 45.727678-8.698849 63.162463-26.135695a89.469167 89.469167 0 0 0 14.059912-18.244507c19.917521-34.195831 15.240499-78.782068-14.059912-108.082479z" fill="#FFDBE0" p-id="20221"></path><path d="M555.671437 121.923992c-34.327694-18.085859-78.312306-12.39926-106.854503 18.073497-33.783759 36.097545-31.991243 93.322044 5.183871 127.111984v0.004121l0.00206-0.002061c17.006229 15.467139 38.526712 23.170833 60.047195 23.172894V189.977755c-0.00206-29.675396 16.915573-55.382535 41.621377-68.053763z" fill="#FFB5C0" p-id="20222"></path></svg>