<svg class="icon" viewBox="0 0 1024 1024" xmlns="http://www.w3.org/2000/svg" width="200" height="200"><path d="M226.627 393.904v30.906c8.522 0 15.453 6.93 15.453 15.452v30.906c0 8.534 6.917 15.452 15.453 15.452s15.453-6.918 15.453-15.452v-30.906c0-25.563-20.798-46.358-46.359-46.358z" fill="#9EA2E3"/><path d="M870.048 590.638h-52.416c-2.637-12.877-6.121-24.937-10.64-35.881-20.986-50.84-71.062-83.59-126.06-83.59H401.518L289.41 573.006v357.556L379.675 1024h236.412c79.308 0 149.02-51.07 173.322-125.338v-.002h80.575c85.06 0 154.016-68.952 154.016-154.012 0-85.035-68.921-153.975-153.952-154.01zm61.205 155.866c-.99 33.339-29.218 59.442-62.573 59.442H828.04c-9.535 0-16.763-8.543-15.24-17.952 4.852-30 8.554-60.521 10.268-90.048.476-8.188 7.216-14.592 15.418-14.592h31.495c34.418 0 62.301 28.51 61.27 63.15z" fill="#EFEDFF"/><path d="M399.3 971.86a1776.385 1776.385 0 0 1-19.627-73.196c-23.002-93.862-45.497-220.599-27.644-308.024 2.625-12.859 6.11-24.883 10.61-35.811 20.951-50.883 71.061-83.661 126.09-83.661H143.134c-55.028 0-105.14 32.778-126.09 83.66-4.497 10.925-7.967 22.957-10.592 35.812-16.924 82.855 2.38 201.02 24.028 293.051a182.83 182.83 0 0 0 4.205 14.973C58.986 972.928 128.701 1024 208.012 1024h260.834c-32.198 0-60.544-21.23-69.546-52.14z" fill="#D4D4FF"/><path d="m289.413 655.42-41.389-44.032h-62.696l-43.52 46.298V784.59l46.447 36.53a78.389 78.389 0 0 0 48.456 16.772 72.875 72.875 0 0 0 11.313-.886c34.573-5.431 61.018-35.348 61.018-71.445v-60.598a72.329 72.329 0 0 0-19.63-49.543z" fill="#FFB5C0"/><path d="M187.005 765.558v-60.597a72.331 72.331 0 0 1 19.629-49.541l41.39-44.032-52.302-55.64-93.69 99.672a72.327 72.327 0 0 0-19.63 49.541v60.597c0 39.949 32.385 72.332 72.331 72.332h81.976a72.875 72.875 0 0 0 11.313-.886c-34.57-5.432-61.017-35.348-61.017-71.446z" fill="#FF8E9E"/><path d="M195.722 591.804a15.453 15.453 0 0 1-15.453-15.453V440.262c0-25.563 20.798-46.358 46.358-46.358 8.537 0 15.453 6.919 15.453 15.453s-6.916 15.453-15.453 15.453c-8.521 0-15.452 6.93-15.452 15.452v136.09a15.453 15.453 0 0 1-15.453 15.452z" fill="#9EA2E3"/><path d="M318.736 826.288a51.51 41.02 0 1 0 103.018 0 51.51 41.02 0 1 0-103.018 0zM628.62 826.288a51.51 41.02 0 1 0 103.019 0 51.51 41.02 0 1 0-103.018 0z" fill="#FF8E9E"/><path d="M396.52 755.133a15.453 15.453 0 0 0-15.452 15.453v24.724c0 8.534 6.917 15.453 15.453 15.453s15.453-6.919 15.453-15.453v-24.724a15.453 15.453 0 0 0-15.453-15.453zm257.336 0a15.453 15.453 0 0 0-15.453 15.453v24.724c0 8.534 6.917 15.453 15.453 15.453s15.453-6.919 15.453-15.453v-24.724a15.453 15.453 0 0 0-15.453-15.453zm-84.592 27.792a15.449 15.449 0 0 0-21.801 1.496c-5.625 6.453-13.745 10.156-22.277 10.156s-16.647-3.7-22.272-10.154a15.455 15.455 0 0 0-23.3 20.305c11.494 13.188 28.105 20.754 45.57 20.754s34.077-7.564 45.571-20.752a15.453 15.453 0 0 0-1.491-21.805z" fill="#313D40"/><path d="m701.704 138.112-4.683-1.077 1.081-4.671c6.97-30.108-18.621-57.773-48.699-53.64-24.415 3.355-42.54 16.693-58.897 34.798l-19.308-19.308H463.435v221.262h50.613c6.964 30.267 34.13 61.568 52.29 78.46 14.993 13.944 30.122 19.649 43.484 19.649 25.726 0 44.792-21.102 43.94-45.464l-.168-4.788 4.803-.167c47.648-1.659 72.683-74.38-21.341-113.978 34.725-3.024 72.131-14.89 91.638-43.902 16.893-25.13 3.227-60.216-26.99-67.174z" fill="#FFB5C0"/><path d="M589.144 24.283C575.772-2.872 535.198-8.61 514.048 14.01c-21.15-22.62-61.724-16.882-75.096 10.273-12.216 24.813-9.6 62.607-1.362 89.239-16.357-18.105-34.482-31.443-58.897-34.798-30.076-4.133-55.667 23.532-48.7 53.64l1.082 4.67-4.68 1.078c-30.218 6.958-43.884 42.044-26.991 67.17 19.499 29.004 56.892 40.876 91.638 43.902-94.024 39.598-68.989 112.319-21.34 113.977l4.802.167-.167 4.789c-.855 24.421 18.378 45.554 44.127 45.464 13.316-.048 28.375-5.77 43.296-19.65 18.16-16.89 45.326-48.192 52.29-78.459V189.978c0-29.676 16.918-55.383 41.623-68.054a76.11 76.11 0 0 1 34.835-8.404c8.237-26.632 10.852-64.426-1.364-89.237z" fill="#FF8E9E"/><path d="M577.213 137.822a89.271 89.271 0 0 0-21.542-15.898H488.58v142.89l25.47 25.47c22.866.002 45.728-8.698 63.163-26.135a89.47 89.47 0 0 0 14.06-18.245c19.917-34.196 15.24-78.782-14.06-108.082z" fill="#FFDBE0"/><path d="M555.671 121.924c-34.327-18.086-78.312-12.4-106.854 18.073-33.784 36.098-31.991 93.323 5.184 127.112v.005l.002-.002c17.006 15.467 38.527 23.17 60.047 23.172V189.978c-.002-29.676 16.916-55.383 41.621-68.054z" fill="#FFB5C0"/></svg>