<?xml version="1.0" standalone="no"?><!DOCTYPE svg PUBLIC "-//W3C//DTD SVG 1.1//EN" "http://www.w3.org/Graphics/SVG/1.1/DTD/svg11.dtd"><svg t="1624436452328" class="icon" viewBox="0 0 1024 1024" version="1.1" xmlns="http://www.w3.org/2000/svg" p-id="21953" xmlns:xlink="http://www.w3.org/1999/xlink" width="200" height="200"><defs><style type="text/css"></style></defs><path d="M340.211123 0h-59.571252a44.20095 44.20095 0 0 0-31.4061 13.095662l-18.809047 18.988298v107.563267h151.370688v-20.603621c8.92961-6.59934 12.928773-15.947203 12.928773-25.179686V54.513062C394.724185 24.409111 370.296531 0 340.211123 0z" fill="#8288CB" p-id="21954"></path><path d="M251.026286 93.894825v-61.810865C251.026286 14.717167 263.303984 0 282.809433 0H202.521239C172.435831 0 148.008177 24.409111 148.008177 54.513062v39.381763c0 9.222181 4.009465 18.555622 12.928773 25.14672v20.603622h103.018108v-20.603622c-8.919308-6.591099-12.928773-15.9266-12.928772-25.14672z" fill="#676FB2" p-id="21955"></path><path d="M480.235396 538.294342a993.669408 993.669408 0 0 0-72.178607-201.091348v-0.00206a248.739284 248.739284 0 0 1-26.261377-111.243075c30.021537 0 54.263759-24.751131 53.435493-54.960161-0.799421-29.117038-25.420748-51.954093-54.550148-51.954092h-90.90524a59.96272 59.96272 0 0 0-46.726954 22.383774l-66.638293 82.859525V1024h189.913883c60.819831 0 112.446326-46.020249 120.94738-106.242575l-41.207243-139.20631 47.90136-170.55266a840.907976 840.907976 0 0 0-13.730254-69.704113z" fill="#70DCBA" p-id="21956"></path><path d="M192.268877 917.757425l-4.203139-309.75691c38.376306-250.132089 109.771976-261.225078 109.765795-382.042656-29.52293 0-53.456097-23.935227-53.456096-53.458157s23.933167-53.456097 53.458157-53.456096H160.93695c-29.52293 0-53.456097 23.933167-53.456097 53.456096s23.933167 53.458157 53.456097 53.458157c0 37.708748-8.58965 75.907863-26.261377 111.245135v0.00206c-43.321175 89.155992-72.578318 183.955316-85.9068 270.795461l57.545915 170.55266-50.942455 139.20631h0.175131C64.050479 977.979751 115.592499 1024 176.41027 1024h136.894583c-60.817771 0-112.532861-46.020249-121.035976-106.242575z" fill="#30CD9C" p-id="21957"></path><path d="M493.96359 607.998455H188.065738L114.597344 778.551115l77.669473 139.20631h295.000595l7.833497-54.846841c11.958342-84.693247 11.795573-170.628893-1.137319-254.912129z" fill="#EFEDFF" p-id="21958"></path><path d="M184.526036 862.908523C172.569755 778.217336 175.130785 692.28169 188.065738 607.998455H48.770833c-12.934954 84.283235-13.095662 170.218881-1.13938 254.910068l7.742841 54.846841h136.894583z" fill="#D4D4FF" p-id="21959"></path><path d="M71.51105 787.882495a56.65996 45.121932 0 1 0 113.31992 0 56.65996 45.121932 0 1 0-113.31992 0Z" fill="#FF8E9E" p-id="21960"></path><path d="M357.901392 787.882495a56.65996 45.121932 0 1 0 113.31992 0 56.65996 45.121932 0 1 0-113.31992 0Z" fill="#FF8E9E" p-id="21961"></path><path d="M923.326584 714.243091h-119.552516a74.030873 74.030873 0 0 0-53.981489 23.368627l-39.754688 42.358986c3.64066 57.133843 9.61365 138.483123 16.769288 189.184515l42.249787 36.703292a74.028813 74.028813 0 0 0 48.550374 18.143549h87.499461c31.770785 0 58.693537-23.389231 63.135678-54.846841 7.157698-50.699332 13.128628-132.050672 16.769288-189.184515 2.270519-35.61336-26.001771-65.727614-61.685183-65.727613z" fill="#EFEDFF" p-id="21962"></path><path d="M768.014423 969.153159c-7.157698-50.699332-13.128628-132.050672-16.769288-189.184515-2.270519-35.6113 26.003831-65.727614 61.687243-65.727614h-185.432595c-35.683412 0-63.957763 30.114254-61.687244 65.727614 3.64066 57.133843 9.61365 138.483123 16.769288 189.184515C587.023968 1000.610769 613.94672 1024 645.717505 1024h185.432596c-31.772845 0-58.693537-23.389231-63.135678-54.846841z" fill="#D4D4FF" p-id="21963"></path><path d="M655.506286 849.909698c-27.732475-0.123622-50.293441 17.679968-50.392338 39.76293-0.098897 22.085022 22.303421 40.086406 50.035895 40.210028s50.293441-17.679968 50.392338-39.76293c0.096837-22.082962-22.305481-40.086406-50.035895-40.210028zM892.977449 853.183614c-27.730414-0.123622-50.29138 17.679968-50.390278 39.762929-0.098897 22.085022 22.303421 40.086406 50.033835 40.210028 27.732475 0.123622 50.293441-17.679968 50.392338-39.762929s-22.303421-40.086406-50.035895-40.210028z" fill="#FF8E9E" p-id="21964"></path><path d="M156.818286 727.886809a15.452716 15.452716 0 0 0-15.452717 15.452716v24.724346c0 8.53402 6.916636 15.452716 15.452717 15.452717s15.452716-6.918696 15.452716-15.452717v-24.724346a15.452716 15.452716 0 0 0-15.452716-15.452716zM317.151549 756.264177a15.452716 15.452716 0 0 0-21.802752 1.497883c-12.702133 14.575002-35.275461 14.560579-47.963171 0a15.454777 15.454777 0 0 0-23.300636 20.30487c25.018978 28.707026 69.570189 28.680241 94.562382 0a15.452716 15.452716 0 0 0-1.495823-21.802753zM390.685875 723.269537c-24.320515 0-44.104113 19.785658-44.104112 44.104113 0 8.53402 6.916636 15.452716 15.452716 15.452716s15.452716-6.918696 15.452716-15.452716c0-7.277199 5.921481-13.19868 13.19868-13.19868s13.19868 5.921481 13.19868 13.19868c0 8.53402 6.916636 15.452716 15.452717 15.452716s15.452716-6.918696 15.452716-15.452716c0-24.318455-19.783598-44.104113-44.104113-44.104113z" fill="#313D40" p-id="21965"></path><path d="M880.633819 830.74627h-0.067992a15.452716 15.452716 0 0 0-15.450656 15.386784l-0.043268 9.862954a15.452716 15.452716 0 0 0 15.386785 15.518648h0.067992a15.452716 15.452716 0 0 0 15.450656-15.386785l0.043268-9.862953a15.452716 15.452716 0 0 0-15.386785-15.518648zM668.134245 829.615131h-0.067991a15.452716 15.452716 0 0 0-15.450656 15.386784l-0.043268 9.862954a15.452716 15.452716 0 0 0 15.386785 15.518648h0.067992a15.452716 15.452716 0 0 0 15.450656-15.386785l0.043267-9.862953a15.452716 15.452716 0 0 0-15.386785-15.518648zM775.51208 812.924137c-8.53608 0-15.452716 6.918696-15.452716 15.452716s6.916636 15.452716 15.452716 15.452716c4.044491 0 7.334889 3.290398 7.33489 7.33489s-3.290398 7.334889-7.33489 7.334889c-8.53608 0-15.452716 6.918696-15.452716 15.452716s6.916636 15.452716 15.452716 15.452717c4.044491 0 7.334889 3.290398 7.33489 7.334889s-3.290398 7.334889-7.33489 7.334889c-8.53608 0-15.452716 6.918696-15.452716 15.452717s6.916636 15.452716 15.452716 15.452716c31.2866 0 49.442511-35.809095 30.635526-61.025867 18.77402-25.177626 0.694342-61.029988-30.635526-61.029988z" fill="#313D40" p-id="21966"></path></svg>