<svg class="icon" viewBox="0 0 1024 1024" xmlns="http://www.w3.org/2000/svg" width="200" height="200"><path d="M340.211 0H280.64a44.2 44.2 0 0 0-31.406 13.096l-18.81 18.988v107.563h151.371v-20.603c8.93-6.6 12.93-15.948 12.93-25.18v-39.35C394.724 24.408 370.296 0 340.21 0z" fill="#8288CB"/><path d="M251.026 93.895V32.084C251.026 14.717 263.304 0 282.81 0h-80.288c-30.085 0-54.513 24.41-54.513 54.513v39.382c0 9.222 4.01 18.555 12.929 25.147v20.603h103.018v-20.603c-8.92-6.592-12.929-15.927-12.929-25.147z" fill="#676FB2"/><path d="M480.235 538.294a993.67 993.67 0 0 0-72.178-201.091v-.002a248.74 248.74 0 0 1-26.262-111.243c30.022 0 54.264-24.751 53.436-54.96-.8-29.117-25.42-51.954-54.55-51.954h-90.905a59.963 59.963 0 0 0-46.727 22.383l-66.639 82.86V1024h189.914c60.82 0 112.446-46.02 120.948-106.243l-41.208-139.206 47.902-170.553a840.908 840.908 0 0 0-13.73-69.704z" fill="#70DCBA"/><path d="m192.269 917.757-4.203-309.756c38.376-250.133 109.772-261.226 109.766-382.043-29.523 0-53.457-23.935-53.457-53.458s23.934-53.456 53.459-53.456H160.937c-29.523 0-53.456 23.933-53.456 53.456s23.933 53.458 53.456 53.458c0 37.709-8.59 75.908-26.261 111.245v.002C91.354 426.361 62.097 521.16 48.769 608.001l57.546 170.552L55.372 917.76h.175C64.05 977.98 115.592 1024 176.41 1024h136.895c-60.818 0-112.533-46.02-121.036-106.243z" fill="#30CD9C"/><path d="M493.964 607.998H188.066l-73.469 170.553 77.67 139.206h295l7.834-54.846c11.958-84.694 11.795-170.63-1.137-254.913z" fill="#EFEDFF"/><path d="M184.526 862.909c-11.956-84.692-9.395-170.627 3.54-254.91H48.77c-12.935 84.283-13.096 170.218-1.14 254.91l7.743 54.846H192.27z" fill="#D4D4FF"/><path d="M71.511 787.882a56.66 45.122 0 1 0 113.32 0 56.66 45.122 0 1 0-113.32 0zM357.901 787.882a56.66 45.122 0 1 0 113.32 0 56.66 45.122 0 1 0-113.32 0z" fill="#FF8E9E"/><path d="M923.327 714.243H803.774a74.03 74.03 0 0 0-53.981 23.369l-39.755 42.359c3.64 57.134 9.614 138.483 16.77 189.184l42.249 36.704a74.029 74.029 0 0 0 48.55 18.143h87.5c31.77 0 58.693-23.39 63.135-54.847 7.158-50.7 13.13-132.05 16.77-189.184 2.27-35.614-26.002-65.728-61.685-65.728z" fill="#EFEDFF"/><path d="M768.014 969.153c-7.157-50.7-13.128-132.05-16.769-189.184-2.27-35.612 26.004-65.728 61.687-65.728H627.5c-35.684 0-63.958 30.114-61.687 65.728 3.64 57.133 9.613 138.483 16.769 189.184 4.442 31.458 31.365 54.847 63.136 54.847H831.15c-31.773 0-58.693-23.39-63.136-54.847z" fill="#D4D4FF"/><path d="M655.506 849.91c-27.732-.124-50.293 17.68-50.392 39.763-.099 22.085 22.303 40.086 50.036 40.21s50.293-17.68 50.392-39.763c.097-22.083-22.305-40.087-50.036-40.21zm237.471 3.274c-27.73-.124-50.29 17.68-50.39 39.763-.099 22.085 22.304 40.086 50.034 40.21 27.732.123 50.293-17.68 50.392-39.763s-22.303-40.087-50.036-40.21z" fill="#FF8E9E"/><path d="M156.818 727.887a15.453 15.453 0 0 0-15.452 15.453v24.724c0 8.534 6.916 15.453 15.452 15.453s15.453-6.92 15.453-15.453V743.34a15.453 15.453 0 0 0-15.453-15.453zm160.334 28.377a15.453 15.453 0 0 0-21.803 1.498c-12.702 14.575-35.276 14.56-47.963 0a15.455 15.455 0 0 0-23.301 20.305c25.019 28.707 69.57 28.68 94.562 0a15.453 15.453 0 0 0-1.495-21.803zm73.534-32.994c-24.32 0-44.104 19.785-44.104 44.104 0 8.534 6.916 15.452 15.452 15.452s15.453-6.918 15.453-15.452c0-7.278 5.922-13.199 13.199-13.199s13.199 5.921 13.199 13.199c0 8.534 6.916 15.452 15.452 15.452s15.453-6.918 15.453-15.452c0-24.319-19.784-44.104-44.104-44.104zM880.634 830.746h-.068a15.453 15.453 0 0 0-15.45 15.387l-.044 9.863a15.453 15.453 0 0 0 15.387 15.519h.068a15.453 15.453 0 0 0 15.45-15.387l.044-9.863a15.453 15.453 0 0 0-15.387-15.519zm-212.5-1.13h-.068a15.453 15.453 0 0 0-15.45 15.386l-.044 9.863a15.453 15.453 0 0 0 15.387 15.519h.068a15.453 15.453 0 0 0 15.45-15.387l.044-9.863a15.453 15.453 0 0 0-15.387-15.519zm107.378-16.692c-8.536 0-15.453 6.919-15.453 15.453s6.917 15.453 15.453 15.453c4.045 0 7.335 3.29 7.335 7.334s-3.29 7.335-7.335 7.335c-8.536 0-15.453 6.919-15.453 15.453s6.917 15.453 15.453 15.453c4.045 0 7.335 3.29 7.335 7.335s-3.29 7.335-7.335 7.335c-8.536 0-15.453 6.918-15.453 15.452s6.917 15.453 15.453 15.453c31.287 0 49.443-35.81 30.636-61.026 18.774-25.178.694-61.03-30.636-61.03z" fill="#313D40"/></svg>