<?xml version="1.0" standalone="no"?><!DOCTYPE svg PUBLIC "-//W3C//DTD SVG 1.1//EN" "http://www.w3.org/Graphics/SVG/1.1/DTD/svg11.dtd"><svg t="1624436435299" class="icon" viewBox="0 0 1024 1024" version="1.1" xmlns="http://www.w3.org/2000/svg" p-id="21083" xmlns:xlink="http://www.w3.org/1999/xlink" width="200" height="200"><defs><style type="text/css"></style></defs><path d="M752.940813 84.588169H512L240.940813 480.117956 512 875.647742h240.940813C914.223903 800.189038 1024 733.814471 1024 562.532443S914.223903 160.046873 752.940813 84.588169z" fill="#FFDBE0" p-id="21084"></path><path d="M481.881626 480.117956c0-171.282028 109.776097-320.071082 271.059187-395.529787-71.818044-33.600386-153.818398-52.706125-240.940813-52.706125-87.149199 0-169.196942 19.085135-241.031469 52.706125C109.722527 160.057175 0 391.275139 0 562.532443c0 247.554575 229.229714 365.821425 512 365.821424 87.122414 0 169.122769-19.103678 240.940813-52.706125-161.283091-75.458704-271.059187-224.247759-271.059187-395.529786z" fill="#FFB5C0" p-id="21085"></path><path d="M385.242398 276.001996c-24.159807 0-43.813602 19.653795-43.813601 43.813602 0 8.53402 6.916636 15.452716 15.452716 15.452716s15.452716-6.918696 15.452716-15.452716c0-7.118551 5.791678-12.908169 12.908169-12.908169s12.908169 5.789618 12.908169 12.908169c0 8.53402 6.916636 15.452716 15.452717 15.452716s15.452716-6.918696 15.452716-15.452716c-0.00206-24.159807-19.655855-43.813602-43.813602-43.813602zM638.757602 276.001996c-24.159807 0-43.813602 19.653795-43.813602 43.813602 0 8.53402 6.916636 15.452716 15.452716 15.452716s15.452716-6.918696 15.452717-15.452716c0-7.118551 5.791678-12.908169 12.908169-12.908169s12.908169 5.789618 12.908169 12.908169c0 8.53402 6.916636 15.452716 15.452716 15.452716s15.452716-6.918696 15.452716-15.452716c0-24.159807-19.653795-43.813602-43.813601-43.813602z" fill="#313D40" p-id="21086"></path><path d="M815.781859 828.061618c-44.654229-130.620781-130.350873-253.146398-242.043106-364.836572-34.13608-34.13608-89.48359-34.13608-123.619671 0l-0.00206 0.002061c-26.457111 26.459171-51.457545 53.53439-74.801449 81.188571l-41.207243 95.151646v307.08462l147.762994 45.463951h217.069457c84.979638 0.00206 144.330431-83.648644 116.841078-164.054277z" fill="#70DCBA" p-id="21087"></path><path d="M375.317634 544.415678c-75.333022 89.236346-133.400209 184.495131-167.42091 284.525714-27.235928 80.078036 32.557843 163.176563 117.139831 163.176564h156.836829c-97.529304-155.182358-127.179976-305.504322-106.55575-447.702278z" fill="#30CD9C" p-id="21088"></path><path d="M601.075638 572.121368c-27.357489 4.742954-52.819445 16.915573-73.690914 34.686197v-77.663291a15.452716 15.452716 0 1 0-30.907493 0.00206v77.663292c-20.87559-17.772684-46.337545-29.945304-73.692973-34.686197a15.452716 15.452716 0 1 0-5.278648 30.450092c31.694551 5.494986 60.216145 23.446922 78.971621 49.479598v175.946688c-46.572427-51.412217-109.638052-86.576419-178.588072-98.53064a15.452716 15.452716 0 0 0-5.278648 30.450093c74.339928 12.891686 141.087421 55.710133 183.86672 117.745577v55.844056a15.452716 15.452716 0 1 0 30.907493-0.00206v-55.844056c42.7793-62.033384 109.528853-104.853891 183.866721-117.741457a15.390905 15.390905 0 0 0 8.278535-4.287614 15.452716 15.452716 0 0 0-13.557183-26.162479c-68.95208 11.954221-132.017706 47.116362-178.588073 98.53064v-175.944628c18.755477-26.036797 47.27501-43.984612 78.971622-49.477537a15.390905 15.390905 0 0 0 8.278535-4.287613 15.432113 15.432113 0 0 0 4.308218-13.575727 15.452716 15.452716 0 0 0-17.867461-12.594994z" fill="#18C08B" p-id="21089"></path><path d="M803.893569 298.346624a46.215984 46.215984 0 0 1-32.780362-13.577787c-18.102342-18.104402-18.102342-47.456322 0-65.560724l173.748282-173.750342c18.104402-18.102342 47.456322-18.102342 65.560724 0 18.102342 18.104402 18.102342 47.456322 0 65.560724l-173.748281 173.750342a46.215984 46.215984 0 0 1-32.780363 13.577787z" fill="#E8B5B1" p-id="21090"></path><path d="M864.453795 294.446358c-21.425706-21.423646-50.897127-29.502326-78.629602-24.388507 5.113819-27.711871-2.95662-57.197714-24.390567-78.629602a15.452716 15.452716 0 1 0-21.850141 21.854262c22.429103 22.429103 22.429103 58.732684 0 81.163847a15.452716 15.452716 0 0 0-0.00206 21.852201 15.448596 15.448596 0 0 0 21.852201 0c22.429103-22.427042 58.732684-22.433223 81.165907 0a15.452716 15.452716 0 0 0 21.852201 0 15.448596 15.448596 0 0 0 0.002061-21.852201z" fill="#FF8E9E" p-id="21091"></path><path d="M513.221795 304.606004c-18.687485 0-33.835268 16.95266-33.835268 37.863276s15.149843 37.863276 33.835268 37.863275c18.687485 0 33.837328-16.95266 33.837328-37.863275s-15.149843-37.863276-33.837328-37.863276z" fill="#4C5699" p-id="21092"></path><path d="M94.980636 662.41262m-15.452716 0a15.452716 15.452716 0 1 0 30.905432 0 15.452716 15.452716 0 1 0-30.905432 0Z" fill="#FF8E9E" p-id="21093"></path><path d="M280.413231 538.790889m-15.452716 0a15.452716 15.452716 0 1 0 30.905433 0 15.452716 15.452716 0 1 0-30.905433 0Z" fill="#FF8E9E" p-id="21094"></path><path d="M177.395123 312.15105m-15.452717 0a15.452716 15.452716 0 1 0 30.905433 0 15.452716 15.452716 0 1 0-30.905433 0Z" fill="#FF8E9E" p-id="21095"></path><path d="M589.469618 106.114833m-15.452717 0a15.452716 15.452716 0 1 0 30.905433 0 15.452716 15.452716 0 1 0-30.905433 0Z" fill="#FF8E9E" p-id="21096"></path><path d="M713.091348 435.772781m-15.452716 0a15.452716 15.452716 0 1 0 30.905432 0 15.452716 15.452716 0 1 0-30.905432 0Z" fill="#FF8E9E" p-id="21097"></path><path d="M939.731187 538.790889m-15.452716 0a15.452716 15.452716 0 1 0 30.905432 0 15.452716 15.452716 0 1 0-30.905432 0Z" fill="#FF8E9E" p-id="21098"></path><path d="M857.3167 724.223485m-15.452716 0a15.452716 15.452716 0 1 0 30.905432 0 15.452716 15.452716 0 1 0-30.905432 0Z" fill="#FF8E9E" p-id="21099"></path></svg>