<svg class="icon" viewBox="0 0 1024 1024" xmlns="http://www.w3.org/2000/svg" width="200" height="200"><path d="M752.94 84.588H512l-271.06 395.53L512 875.648h240.94C914.225 800.189 1024 733.814 1024 562.532S914.224 160.047 752.94 84.588z" fill="#FFDBE0"/><path d="M481.882 480.118c0-171.282 109.776-320.071 271.059-395.53C681.123 50.988 599.122 31.882 512 31.882c-87.15 0-169.197 19.085-241.031 52.706C109.723 160.058 0 391.275 0 562.532c0 247.555 229.23 365.822 512 365.822 87.122 0 169.123-19.104 240.94-52.706-161.282-75.459-271.058-224.248-271.058-395.53z" fill="#FFB5C0"/><path d="M385.242 276.002c-24.16 0-43.813 19.654-43.813 43.814 0 8.534 6.916 15.452 15.453 15.452s15.452-6.918 15.452-15.452c0-7.119 5.792-12.909 12.908-12.909s12.909 5.79 12.909 12.909c0 8.534 6.916 15.452 15.452 15.452s15.453-6.918 15.453-15.452c-.002-24.16-19.656-43.814-43.814-43.814zm253.516 0c-24.16 0-43.814 19.654-43.814 43.814 0 8.534 6.917 15.452 15.453 15.452s15.452-6.918 15.452-15.452c0-7.119 5.792-12.909 12.909-12.909s12.908 5.79 12.908 12.909c0 8.534 6.916 15.452 15.452 15.452s15.453-6.918 15.453-15.452c0-24.16-19.654-43.814-43.813-43.814z" fill="#313D40"/><path d="M815.782 828.062C771.128 697.44 685.43 574.915 573.739 463.225c-34.136-34.136-89.484-34.136-123.62 0l-.002.002c-26.457 26.46-51.458 53.534-74.801 81.189l-41.208 95.151v307.085l147.763 45.464h217.07c84.98.002 144.33-83.649 116.84-164.054z" fill="#70DCBA"/><path d="M375.318 544.416c-75.333 89.236-133.4 184.495-167.421 284.525-27.236 80.078 32.558 163.177 117.14 163.177h156.836c-97.529-155.182-127.18-305.504-106.555-447.702z" fill="#30CD9C"/><path d="M601.076 572.121c-27.358 4.743-52.82 16.916-73.691 34.687v-77.664a15.453 15.453 0 1 0-30.908.002v77.664c-20.875-17.773-46.337-29.946-73.693-34.687a15.453 15.453 0 1 0-5.278 30.45c31.694 5.496 60.216 23.447 78.971 49.48V828c-46.572-51.412-109.638-86.577-178.588-98.53a15.453 15.453 0 0 0-5.278 30.45c74.34 12.89 141.087 55.71 183.866 117.745v55.844a15.453 15.453 0 1 0 30.908-.002v-55.844c42.779-62.034 109.529-104.854 183.866-117.742a15.39 15.39 0 0 0 8.279-4.287 15.453 15.453 0 0 0-13.557-26.163c-68.952 11.954-132.018 47.117-178.588 98.53V652.058c18.755-26.037 47.275-43.984 78.971-49.477a15.39 15.39 0 0 0 8.279-4.288 15.432 15.432 0 0 0 4.308-13.576 15.453 15.453 0 0 0-17.867-12.595z" fill="#18C08B"/><path d="M803.894 298.347a46.216 46.216 0 0 1-32.78-13.578c-18.103-18.105-18.103-47.456 0-65.56L944.86 45.457c18.105-18.103 47.457-18.103 65.561 0 18.103 18.104 18.103 47.456 0 65.56l-173.748 173.75a46.216 46.216 0 0 1-32.78 13.579z" fill="#E8B5B1"/><path d="M864.454 294.446c-21.426-21.423-50.897-29.502-78.63-24.388 5.114-27.712-2.956-57.198-24.39-78.63a15.453 15.453 0 1 0-21.85 21.855c22.429 22.429 22.429 58.732 0 81.163a15.453 15.453 0 0 0-.003 21.853 15.449 15.449 0 0 0 21.853 0c22.429-22.427 58.732-22.434 81.166 0a15.453 15.453 0 0 0 21.852 0 15.449 15.449 0 0 0 .002-21.853z" fill="#FF8E9E"/><path d="M513.222 304.606c-18.688 0-33.835 16.953-33.835 37.863s15.15 37.864 33.835 37.864c18.687 0 33.837-16.953 33.837-37.864s-15.15-37.863-33.837-37.863z" fill="#4C5699"/><path d="M79.528 662.413a15.453 15.453 0 1 0 30.905 0 15.453 15.453 0 1 0-30.905 0zM264.961 538.79a15.453 15.453 0 1 0 30.905 0 15.453 15.453 0 1 0-30.905 0zM161.942 312.151a15.453 15.453 0 1 0 30.906 0 15.453 15.453 0 1 0-30.906 0zM574.017 106.115a15.453 15.453 0 1 0 30.905 0 15.453 15.453 0 1 0-30.905 0zM697.639 435.773a15.453 15.453 0 1 0 30.905 0 15.453 15.453 0 1 0-30.905 0zM924.278 538.79a15.453 15.453 0 1 0 30.906 0 15.453 15.453 0 1 0-30.906 0zM841.864 724.223a15.453 15.453 0 1 0 30.905 0 15.453 15.453 0 1 0-30.905 0z" fill="#FF8E9E"/></svg>