<?xml version="1.0" standalone="no"?><!DOCTYPE svg PUBLIC "-//W3C//DTD SVG 1.1//EN" "http://www.w3.org/Graphics/SVG/1.1/DTD/svg11.dtd"><svg t="1624436412476" class="icon" viewBox="0 0 1024 1024" version="1.1" xmlns="http://www.w3.org/2000/svg" p-id="20059" xmlns:xlink="http://www.w3.org/1999/xlink" width="200" height="200"><defs><style type="text/css"></style></defs><path d="M840.800837 42.789602L455.1134 58.229956c-16.484958 0.659316-29.648612 14.232982-29.648611 30.880708s13.161594 30.219332 29.648611 30.880708l385.687437 15.440354c26.39736 1.059026 48.245441-20.039082 48.245441-46.321062s-21.84808-47.380089-48.245441-46.321062z" fill="#FF8E9E" p-id="20060"></path><path d="M512 306.907429c-44.227734-29.660974-97.389199-46.98862-154.527163-46.98862-153.3713 0-278.148893 124.777594-278.148893 278.148893h556.297786c0-96.233336-49.131396-181.202672-123.62173-231.160273z" fill="#E8B5B1" p-id="20061"></path><path d="M357.472837 321.729674c-119.288789 0-216.338028 97.049239-216.338028 216.338028h432.676056c0-119.288789-97.049239-216.338028-216.338028-216.338028z" fill="#D6948C" p-id="20062"></path><path d="M357.472837 383.540539c-85.206278 0-154.527163 69.320885-154.527163 154.527163h309.054326c0-85.206278-69.320885-154.527163-154.527163-154.527163z" fill="#E8B5B1" p-id="20063"></path><path d="M357.472837 445.351404c-51.123767 0-92.716298 41.592531-92.716298 92.716298h185.432596c0-51.123767-41.592531-92.716298-92.716298-92.716298z" fill="#D6948C" p-id="20064"></path><path d="M604.716298 0c-17.06804 0-30.905433 13.837392-30.905433 30.905433l-41.207243 132.207259 41.207243 143.794737h61.810865l41.207244-142.422536L635.62173 30.905433c0-17.06804-13.837392-30.905433-30.905432-30.905433z" fill="#F2D4D3" p-id="20065"></path><path d="M542.905433 0c-17.06804 0-30.905433 13.837392-30.905433 30.905433v276.001996h61.810865V30.905433c0-17.06804-13.837392-30.905433-30.905432-30.905433zM666.527163 0c-17.06804 0-30.905433 13.837392-30.905433 30.905433v276.001996h61.810866V30.905433c0-17.06804-13.837392-30.905433-30.905433-30.905433z" fill="#E8B5B1" p-id="20066"></path><path d="M666.527163 259.918809c-57.137964 0-110.299429 17.325586-154.527163 46.98862-74.490334 49.957602-123.62173 134.926938-123.62173 231.160273h556.297786c0-153.3713-124.777594-278.148893-278.148893-278.148893z" fill="#F2D4D3" p-id="20067"></path><path d="M666.527163 321.729674c-119.288789 0-216.338028 97.049239-216.338028 216.338028h432.676056c0-119.288789-97.049239-216.338028-216.338028-216.338028z" fill="#E8B5B1" p-id="20068"></path><path d="M666.527163 383.540539c-85.206278 0-154.527163 69.320885-154.527163 154.527163h309.054326c0-85.206278-69.320885-154.527163-154.527163-154.527163z" fill="#F2D4D3" p-id="20069"></path><path d="M666.527163 445.351404c-51.123767 0-92.716298 41.592531-92.716298 92.716298h185.432596c0-51.123767-41.590471-92.716298-92.716298-92.716298z" fill="#E8B5B1" p-id="20070"></path><path d="M216.884024 776.756539c0 136.548443 110.695018 247.243461 247.243461 247.243461h271.013859c51.206181 0 92.716298-41.510117 92.716298-92.716298v-15.034463c74.257513-57.418173 132.460684-134.593159 166.712145-223.654374l-388.841851-61.810865-388.841851 61.810865V776.756539z" fill="#EFEDFF" p-id="20071"></path><path d="M957.390551 507.16227H278.173618c-33.84763 0-61.287533 27.439903-61.287533 61.287533v124.145062h777.685762a513.133199 513.133199 0 0 0 28.711147-109.374326c5.911179-40.102889-25.354817-76.05827-65.892443-76.058269z" fill="#FFB5C0" p-id="20072"></path><path d="M196.142358 916.249239V931.283702c0 51.206181 41.510117 92.716298 92.716298 92.716298h175.268829a74.632499 74.632499 0 0 1-41.345288-66.799002v-40.951759c-74.257513-57.418173-132.458624-134.593159-166.712145-223.654374l-109.446438-61.810865-117.193401 61.810865c34.253521 89.061215 92.454632 166.236201 166.712145 223.654374z" fill="#D4D4FF" p-id="20073"></path><path d="M293.249288 507.16227h-226.639839c-40.537626 0-71.803622 35.95538-65.888322 76.058269a513.013698 513.013698 0 0 0 28.711147 109.374326h226.639839a513.147622 513.147622 0 0 1-28.711147-109.372265c-5.9153-40.102889 25.350696-76.06033 65.888322-76.06033z" fill="#FF8E9E" p-id="20074"></path><path d="M335.641239 772.120724c-33.239823-0.103018-60.255292 21.271179-60.337706 47.742713s26.79707 48.01468 60.036894 48.117698c33.239823 0.105078 60.255292-21.269119 60.337706-47.740652s-26.79707-48.01468-60.036894-48.119759zM690.719936 773.142664c-33.239823-0.103018-60.253231 21.271179-60.337707 47.742712-0.082414 26.471533 26.79707 48.01468 60.036894 48.117698s60.255292-21.271179 60.337706-47.740651c0.082414-26.471533-26.79707-48.01468-60.036893-48.119759z" fill="#FF8E9E" p-id="20075"></path><path d="M380.136821 753.577465a15.452716 15.452716 0 0 0-15.452716 15.452716v20.603622a15.452716 15.452716 0 0 0 30.905432 0v-20.603622a15.452716 15.452716 0 0 0-15.452716-15.452716zM643.863179 753.577465a15.452716 15.452716 0 0 0-15.452716 15.452716v20.603622a15.452716 15.452716 0 0 0 30.905432 0v-20.603622a15.452716 15.452716 0 0 0-15.452716-15.452716zM552.661247 792.17629a15.448596 15.448596 0 0 0-20.605682 7.275139c-3.432563 7.178302-10.901376 11.816177-19.025384 11.816177s-15.592821-4.637875-19.025384-11.816177a15.452716 15.452716 0 0 0-27.880821 13.330543c8.538141 17.855099 26.949537 29.391066 46.906205 29.391066 19.958728 0 38.370125-11.535968 46.906205-29.391066a15.452716 15.452716 0 0 0-7.275139-20.605682z" fill="#313D40" p-id="20076"></path><path d="M380.136821 753.577465a15.452716 15.452716 0 0 0-15.452716 15.452716v20.603622a15.452716 15.452716 0 0 0 30.905432 0v-20.603622a15.452716 15.452716 0 0 0-15.452716-15.452716zM643.863179 753.577465a15.452716 15.452716 0 0 0-15.452716 15.452716v20.603622a15.452716 15.452716 0 0 0 30.905432 0v-20.603622a15.452716 15.452716 0 0 0-15.452716-15.452716zM552.661247 792.17629a15.448596 15.448596 0 0 0-20.605682 7.275139c-3.432563 7.178302-10.901376 11.816177-19.025384 11.816177s-15.592821-4.637875-19.025384-11.816177a15.452716 15.452716 0 0 0-27.880821 13.330543c8.538141 17.855099 26.949537 29.391066 46.906205 29.391066 19.958728 0 38.370125-11.535968 46.906205-29.391066a15.452716 15.452716 0 0 0-7.275139-20.605682z" fill="#313D40" p-id="20077"></path><path d="M840.800837 104.600467L455.1134 120.040821c-16.484958 0.659316-29.648612 14.232982-29.648611 30.880708s13.161594 30.219332 29.648611 30.880708l385.687437 15.440355c26.39736 1.059026 48.245441-20.039082 48.245441-46.321063s-21.84808-47.380089-48.245441-46.321062z" fill="#FFB5C0" p-id="20078"></path></svg>