<svg class="icon" viewBox="0 0 1024 1024" xmlns="http://www.w3.org/2000/svg" width="200" height="200"><path d="M840.8 42.79 455.114 58.23c-16.485.66-29.648 14.233-29.648 30.88s13.161 30.22 29.648 30.881l385.688 15.44c26.397 1.06 48.245-20.038 48.245-46.32s-21.848-47.38-48.245-46.321z" fill="#FF8E9E"/><path d="M512 306.907c-44.228-29.66-97.39-46.988-154.527-46.988-153.371 0-278.15 124.777-278.15 278.149h556.299c0-96.234-49.132-181.203-123.622-231.16z" fill="#E8B5B1"/><path d="M357.473 321.73c-119.289 0-216.338 97.049-216.338 216.338H573.81c0-119.29-97.05-216.338-216.338-216.338z" fill="#D6948C"/><path d="M357.473 383.54c-85.206 0-154.527 69.321-154.527 154.528H512c0-85.207-69.32-154.527-154.527-154.527z" fill="#E8B5B1"/><path d="M357.473 445.351c-51.124 0-92.716 41.593-92.716 92.717h185.432c0-51.124-41.592-92.717-92.716-92.717z" fill="#D6948C"/><path d="M604.716 0c-17.068 0-30.905 13.837-30.905 30.905l-41.207 132.208 41.207 143.794h61.81l41.208-142.422-41.207-133.58C635.622 13.837 621.784 0 604.716 0z" fill="#F2D4D3"/><path d="M542.905 0C525.837 0 512 13.837 512 30.905v276.002h61.81V30.905C573.81 13.837 559.974 0 542.906 0zm123.622 0c-17.068 0-30.905 13.837-30.905 30.905v276.002h61.81V30.905C697.433 13.837 683.596 0 666.528 0z" fill="#E8B5B1"/><path d="M666.527 259.919c-57.138 0-110.3 17.325-154.527 46.988-74.49 49.958-123.622 134.927-123.622 231.16h556.298c0-153.37-124.778-278.148-278.149-278.148z" fill="#F2D4D3"/><path d="M666.527 321.73c-119.289 0-216.338 97.049-216.338 216.338h432.676c0-119.29-97.049-216.338-216.338-216.338z" fill="#E8B5B1"/><path d="M666.527 383.54C581.321 383.54 512 452.862 512 538.069h309.054c0-85.207-69.32-154.527-154.527-154.527z" fill="#F2D4D3"/><path d="M666.527 445.351c-51.124 0-92.716 41.593-92.716 92.717h185.432c0-51.124-41.59-92.717-92.716-92.717z" fill="#E8B5B1"/><path d="M216.884 776.757c0 136.548 110.695 247.243 247.243 247.243h271.014c51.207 0 92.717-41.51 92.717-92.716v-15.035c74.257-57.418 132.46-134.593 166.712-223.654l-388.842-61.811-388.842 61.81v84.163z" fill="#EFEDFF"/><path d="M957.39 507.162H278.175c-33.848 0-61.288 27.44-61.288 61.288v124.145h777.686a513.133 513.133 0 0 0 28.711-109.374c5.911-40.103-25.355-76.059-65.892-76.059z" fill="#FFB5C0"/><path d="M196.142 916.25v15.034c0 51.206 41.51 92.716 92.717 92.716h175.268a74.632 74.632 0 0 1-41.345-66.799v-40.952c-74.257-57.418-132.458-134.593-166.712-223.654l-109.446-61.811-117.194 61.81c34.254 89.062 92.455 166.237 166.712 223.655z" fill="#D4D4FF"/><path d="M293.25 507.162H66.61c-40.538 0-71.804 35.956-65.889 76.059a513.014 513.014 0 0 0 28.711 109.374h226.64a513.148 513.148 0 0 1-28.711-109.372c-5.915-40.103 25.35-76.06 65.888-76.06zM335.641 772.12c-33.24-.102-60.255 21.272-60.337 47.743s26.797 48.015 60.036 48.118c33.24.105 60.256-21.269 60.338-47.74s-26.797-48.015-60.037-48.12zm355.079 1.023c-33.24-.103-60.253 21.27-60.338 47.742-.082 26.472 26.797 48.015 60.037 48.118s60.255-21.271 60.338-47.74c.082-26.472-26.797-48.015-60.037-48.12z" fill="#FF8E9E"/><path d="M380.137 753.577a15.453 15.453 0 0 0-15.453 15.453v20.604a15.453 15.453 0 0 0 30.906 0V769.03a15.453 15.453 0 0 0-15.453-15.453zm263.726 0a15.453 15.453 0 0 0-15.453 15.453v20.604a15.453 15.453 0 0 0 30.906 0V769.03a15.453 15.453 0 0 0-15.453-15.453zm-91.202 38.6a15.449 15.449 0 0 0-20.605 7.274c-3.433 7.179-10.902 11.817-19.026 11.817s-15.593-4.638-19.025-11.817a15.453 15.453 0 0 0-27.881 13.331c8.538 17.855 26.95 29.391 46.906 29.391 19.959 0 38.37-11.536 46.906-29.391a15.453 15.453 0 0 0-7.275-20.606z" fill="#313D40"/><path d="M380.137 753.577a15.453 15.453 0 0 0-15.453 15.453v20.604a15.453 15.453 0 0 0 30.906 0V769.03a15.453 15.453 0 0 0-15.453-15.453zm263.726 0a15.453 15.453 0 0 0-15.453 15.453v20.604a15.453 15.453 0 0 0 30.906 0V769.03a15.453 15.453 0 0 0-15.453-15.453zm-91.202 38.6a15.449 15.449 0 0 0-20.605 7.274c-3.433 7.179-10.902 11.817-19.026 11.817s-15.593-4.638-19.025-11.817a15.453 15.453 0 0 0-27.881 13.331c8.538 17.855 26.95 29.391 46.906 29.391 19.959 0 38.37-11.536 46.906-29.391a15.453 15.453 0 0 0-7.275-20.606z" fill="#313D40"/><path d="m840.8 104.6-385.687 15.44c-16.485.66-29.648 14.234-29.648 30.882s13.161 30.219 29.648 30.88l385.688 15.44c26.397 1.06 48.245-20.038 48.245-46.32s-21.848-47.38-48.245-46.322z" fill="#FFB5C0"/></svg>