<?xml version="1.0" standalone="no"?><!DOCTYPE svg PUBLIC "-//W3C//DTD SVG 1.1//EN" "http://www.w3.org/Graphics/SVG/1.1/DTD/svg11.dtd"><svg t="1624436427259" class="icon" viewBox="0 0 1024 1024" version="1.1" xmlns="http://www.w3.org/2000/svg" p-id="20642" xmlns:xlink="http://www.w3.org/1999/xlink" width="200" height="200"><defs><style type="text/css"></style></defs><path d="M914.796684 623.484137c26.104789-29.158245 26.098608-73.239694 0-102.391759 12.164378-13.586028 19.56932-31.523541 19.56932-51.195879 0-70.697207-87.804394-103.576467-134.389183-50.767324-30.627284-34.721223-84.59435-34.686197-115.190728 0-30.627284-34.721223-84.59435-34.686197-115.190729 0-30.627284-34.721223-84.499573-34.601722-115.095952 0.084475l-41.207243 41.207243 0.00206 326.126487 41.207244 41.207244c30.627284 34.721223 84.497513 34.772732 115.093891 0.086535 30.627284 34.721223 84.59435 34.686197 115.190729 0 30.627284 34.721223 84.59435 34.686197 115.190728 0 46.570366 52.79472 134.389183 19.960789 134.389183-50.767324 0-19.672338-7.404942-37.609851-19.56932-51.195879 26.104789-29.160306 26.098608-73.241755 0-102.393819z" fill="#EFEDFF" p-id="20643"></path><path d="M454.501473 725.873835c-24.953046-28.824467-24.959227-73.55905 0-102.391759-24.953046-28.824467-24.959227-73.55905 0-102.389698-23.852813-27.559404-26.082125-72.549473 0-101.880788-30.627284-34.721223-84.689127-34.770672-115.285505-0.084475-30.627284-34.721223-84.59435-34.686197-115.190729 0-46.570366-52.79472-134.389183-19.958728-134.389183 50.767324 0 19.672338 7.404942 37.609851 19.56932 51.195879-26.104789 29.158245-26.098608 73.241755 0 102.391758-26.104789 29.158245-26.098608 73.239694 0 102.391759-12.164378 13.586028-19.56932 31.523541-19.56932 51.195879 0 70.697207 87.804394 103.576467 134.389183 50.767324 30.627284 34.721223 84.59435 34.686197 115.190729 0 30.627284 34.721223 84.691187 34.599662 115.287565-0.086535-25.979107-29.207694-23.962012-74.193642-0.00206-101.876668z" fill="#D4D4FF" p-id="20644"></path><path d="M987.793256 367.201867c-41.170157-41.170157-86.770093-76.354962-136.208483-105.259782l-102.995445 69.345609 61.810865 208.238745c56.233465 55.304241 132.790342 47.10606 177.393063 2.50334 48.274286-48.278406 48.274286-126.551565 0-174.827912z" fill="#FFDBE0" p-id="20645"></path><path d="M85.356684 572.154334c42.801964 13.895082 91.675815 3.875541 125.680032-30.126616 44.841722-44.841722 97.931074-78.429746 155.839614-99.379509l180.294052-68.581215 45.863662 50.979541c81.666575 15.656692 156.853312 54.95192 217.366149 114.477843-6.098672-96.719581 8.944032-190.871952 41.18458-277.584354a671.416402 671.416402 0 0 0-147.233481-63.879469l-74.158616 30.000934-64.765424-55.813151c-50.264596-3.947654-101.798374-2.530125-154.902149 5.513529L85.356684 345.106543z" fill="#FFB5C0" p-id="20646"></path><path d="M410.527163 177.761867c-137.333441 20.801416-269.241948 84.361529-374.320419 189.44-48.276346 48.276346-48.276346 126.549505 0 174.827912a123.044829 123.044829 0 0 0 49.14994 30.126615c60.352129-165.449143 176.006439-304.682237 325.170479-394.394527zM704.351292 198.060555c-45.253795-13.497433-91.694358-22.105626-138.92198-25.812217-55.337207 46.852636-103.129368 101.619123-142.44932 163.477376a724.052475 724.052475 0 0 0-56.101602 106.922495c72.401127-26.193384 151.053392-31.999485 226.157715-17.599613a693.320113 693.320113 0 0 1 34.496643-95.658495c20.87971-46.852636 46.59097-90.744531 76.818544-131.329546z" fill="#FF8E9E" p-id="20647"></path><path d="M287.601835 684.357537a60.481932 48.165087 0 1 0 120.963863 0 60.481932 48.165087 0 1 0-120.963863 0Z" fill="#FF8E9E" p-id="20648"></path><path d="M615.432241 684.357537a60.481932 48.165087 0 1 0 120.963864 0 60.481932 48.165087 0 1 0-120.963864 0Z" fill="#FF8E9E" p-id="20649"></path><path d="M383.332443 597.816145a15.452716 15.452716 0 0 0-15.452717 15.452716v24.724346c0 8.53402 6.916636 15.452716 15.452717 15.452717s15.452716-6.918696 15.452716-15.452717v-24.724346a15.452716 15.452716 0 0 0-15.452716-15.452716zM640.665497 597.816145a15.452716 15.452716 0 0 0-15.452716 15.452716v24.724346c0 8.53402 6.916636 15.452716 15.452716 15.452717s15.452716-6.918696 15.452716-15.452717v-24.724346a15.452716 15.452716 0 0 0-15.452716-15.452716zM556.073207 625.60631a15.452716 15.452716 0 0 0-21.802752 1.497883c-5.622728 6.453054-13.740555 10.153465-22.272515 10.153465s-16.647726-3.70041-22.272515-10.153465a15.454777 15.454777 0 0 0-23.300636 20.304869c11.494761 13.188378 28.1054 20.754028 45.57109 20.754029s34.07633-7.56359 45.571091-20.754029a15.450656 15.450656 0 0 0-1.493763-21.802752z" fill="#313D40" p-id="20650"></path><path d="M332.63105 526.200016m-15.452716 0a15.452716 15.452716 0 1 0 30.905433 0 15.452716 15.452716 0 1 0-30.905433 0Z" fill="#9EA2E3" p-id="20651"></path><path d="M394.441915 787.866012m-15.452716 0a15.452716 15.452716 0 1 0 30.905433 0 15.452716 15.452716 0 1 0-30.905433 0Z" fill="#9EA2E3" p-id="20652"></path><path d="M497.460024 726.055147m-15.452716 0a15.452716 15.452716 0 1 0 30.905432 0 15.452716 15.452716 0 1 0-30.905432 0Z" fill="#D4D4FF" p-id="20653"></path><path d="M682.89262 767.26239m-15.452717 0a15.452716 15.452716 0 1 0 30.905433 0 15.452716 15.452716 0 1 0-30.905433 0Z" fill="#D4D4FF" p-id="20654"></path><path d="M827.117972 670.425368m-15.452716 0a15.452716 15.452716 0 1 0 30.905432 0 15.452716 15.452716 0 1 0-30.905432 0Z" fill="#D4D4FF" p-id="20655"></path><path d="M864.204491 781.684926m-15.452716 0a15.452716 15.452716 0 1 0 30.905432 0 15.452716 15.452716 0 1 0-30.905432 0Z" fill="#D4D4FF" p-id="20656"></path><path d="M555.150165 499.415308m-15.452716 0a15.452716 15.452716 0 1 0 30.905432 0 15.452716 15.452716 0 1 0-30.905432 0Z" fill="#D4D4FF" p-id="20657"></path><path d="M209.00932 721.934423m-15.452716 0a15.452716 15.452716 0 1 0 30.905432 0 15.452716 15.452716 0 1 0-30.905432 0Z" fill="#9EA2E3" p-id="20658"></path></svg>