<svg class="icon" viewBox="0 0 1024 1024" xmlns="http://www.w3.org/2000/svg" width="200" height="200"><path d="M914.797 623.484c26.104-29.158 26.098-73.24 0-102.392 12.164-13.586 19.569-31.523 19.569-51.196 0-70.697-87.804-103.576-134.39-50.767-30.626-34.721-84.594-34.686-115.19 0-30.627-34.721-84.594-34.686-115.19 0-30.628-34.721-84.5-34.602-115.097.085l-41.207 41.207.002 326.126 41.207 41.208c30.628 34.72 84.498 34.772 115.094.086 30.628 34.721 84.595 34.686 115.191 0 30.627 34.721 84.594 34.686 115.19 0 46.571 52.795 134.39 19.96 134.39-50.767 0-19.673-7.405-37.61-19.57-51.196 26.105-29.16 26.1-73.242 0-102.394z" fill="#EFEDFF"/><path d="M454.501 725.874c-24.953-28.825-24.959-73.56 0-102.392-24.953-28.824-24.959-73.559 0-102.39-23.852-27.559-26.082-72.55 0-101.88-30.627-34.722-84.689-34.771-115.285-.085-30.627-34.721-84.594-34.686-115.19 0-46.571-52.795-134.39-19.959-134.39 50.767 0 19.673 7.405 37.61 19.57 51.196-26.105 29.159-26.1 73.242 0 102.392-26.105 29.158-26.1 73.24 0 102.392-12.165 13.586-19.57 31.523-19.57 51.196 0 70.697 87.804 103.576 134.39 50.767 30.627 34.721 84.594 34.686 115.19 0 30.627 34.721 84.691 34.6 115.288-.086-25.98-29.208-23.962-74.194-.003-101.877z" fill="#D4D4FF"/><path d="M987.793 367.202c-41.17-41.17-86.77-76.355-136.208-105.26l-102.996 69.346L810.4 539.526c56.234 55.305 132.79 47.106 177.393 2.504 48.275-48.279 48.275-126.552 0-174.828z" fill="#FFDBE0"/><path d="M85.357 572.154c42.802 13.895 91.675 3.876 125.68-30.126 44.841-44.842 97.93-78.43 155.84-99.38l180.293-68.581 45.864 50.98c81.667 15.656 156.853 54.951 217.366 114.477-6.098-96.72 8.944-190.872 41.185-277.584a671.416 671.416 0 0 0-147.234-63.88l-74.158 30.001-64.766-55.813c-50.264-3.947-101.798-2.53-154.902 5.514L85.357 345.107z" fill="#FFB5C0"/><path d="M410.527 177.762c-137.333 20.801-269.242 84.361-374.32 189.44-48.277 48.276-48.277 126.55 0 174.828a123.045 123.045 0 0 0 49.15 30.126c60.352-165.449 176.006-304.682 325.17-394.394zm293.824 20.299c-45.254-13.498-91.694-22.106-138.922-25.813-55.337 46.853-103.13 101.62-142.449 163.478a724.052 724.052 0 0 0-56.102 106.922c72.402-26.193 151.054-32 226.158-17.6a693.32 693.32 0 0 1 34.497-95.658c20.88-46.853 46.59-90.744 76.818-131.33zM287.602 684.358a60.482 48.165 0 1 0 120.964 0 60.482 48.165 0 1 0-120.964 0zM615.432 684.358a60.482 48.165 0 1 0 120.964 0 60.482 48.165 0 1 0-120.964 0z" fill="#FF8E9E"/><path d="M383.332 597.816a15.453 15.453 0 0 0-15.452 15.453v24.724c0 8.534 6.916 15.453 15.452 15.453s15.453-6.919 15.453-15.453V613.27a15.453 15.453 0 0 0-15.453-15.453zm257.333 0a15.453 15.453 0 0 0-15.452 15.453v24.724c0 8.534 6.916 15.453 15.452 15.453s15.453-6.919 15.453-15.453V613.27a15.453 15.453 0 0 0-15.453-15.453zm-84.592 27.79a15.453 15.453 0 0 0-21.803 1.498c-5.622 6.453-13.74 10.154-22.272 10.154s-16.648-3.7-22.273-10.154a15.455 15.455 0 0 0-23.3 20.305c11.495 13.188 28.105 20.754 45.57 20.754s34.077-7.563 45.572-20.754a15.45 15.45 0 0 0-1.494-21.803z" fill="#313D40"/><path d="M317.178 526.2a15.453 15.453 0 1 0 30.906 0 15.453 15.453 0 1 0-30.906 0zM378.98900000000003 787.866a15.453 15.453 0 1 0 30.906 0 15.453 15.453 0 1 0-30.906 0z" fill="#9EA2E3"/><path d="M482.007 726.055a15.453 15.453 0 1 0 30.906 0 15.453 15.453 0 1 0-30.906 0zM667.44 767.262a15.453 15.453 0 1 0 30.905 0 15.453 15.453 0 1 0-30.905 0zM811.6650000000001 670.425a15.453 15.453 0 1 0 30.906 0 15.453 15.453 0 1 0-30.906 0zM848.752 781.685a15.453 15.453 0 1 0 30.905 0 15.453 15.453 0 1 0-30.905 0zM539.697 499.415a15.453 15.453 0 1 0 30.906 0 15.453 15.453 0 1 0-30.906 0z" fill="#D4D4FF"/><path d="M193.557 721.934a15.453 15.453 0 1 0 30.905 0 15.453 15.453 0 1 0-30.905 0z" fill="#9EA2E3"/></svg>