<?xml version="1.0" standalone="no"?><!DOCTYPE svg PUBLIC "-//W3C//DTD SVG 1.1//EN" "http://www.w3.org/Graphics/SVG/1.1/DTD/svg11.dtd"><svg t="1624436357024" class="icon" viewBox="0 0 1024 1024" version="1.1" xmlns="http://www.w3.org/2000/svg" p-id="17892" xmlns:xlink="http://www.w3.org/1999/xlink" width="200" height="200"><defs><style type="text/css"></style></defs><path d="M752.940813 116.470213H512L240.940813 512 512 907.529787h261.544435C934.827525 832.071082 1024 765.696515 1024 594.414487S914.223903 191.928918 752.940813 116.470213z" fill="#B0EBD8" p-id="17893"></path><path d="M640.543936 822.150439l-15.796797-29.782536V201.462213c37.210141-33.878535 80.44272-62.649433 128.195734-84.992-71.820105-33.600386-153.820459-52.706125-240.942873-52.706124-87.149199 0-169.196942 19.085135-241.031469 52.706124C109.722527 191.939219 0 423.157183 0 594.414487c0 247.554575 229.229714 365.821425 512 365.821424 87.122414 0 189.72639-19.103678 261.544435-52.706124-47.934326-22.427042-93.138672-51.331863-133.000499-85.379348z" fill="#70DCBA" p-id="17894"></path><path d="M624.745078 201.462213c-100.213956-25.529948-209.468781-16.04198-301.373295 26.972201C212.600531 280.281368 123.62173 463.676266 123.62173 594.414487c0 75.656499 29.848467 130.385899 93.938093 172.242157 103.947332 67.886873 286.928097 85.910922 422.984113 55.495855v-586.791147z" fill="#D6948C" p-id="17895"></path><path d="M900.37827 594.414487c0-130.793851-89.03237-314.135179-199.822165-365.971831-24.3473-11.391742-49.77835-20.348137-75.808966-26.980443-88.465771 80.545738-142.863453 189.967453-142.863453 310.537787 0 120.37666 64.39662 229.641787 158.66025 310.150439 29.502326-6.595219 56.810366-15.454777 80.61373-26.593095C875.738398 723.232451 900.37827 686.415839 900.37827 594.414487z" fill="#E8B5B1" p-id="17896"></path><path d="M284.770897 550.102278a55.69159 44.349296 0 1 0 111.383179 0 55.69159 44.349296 0 1 0-111.383179 0Z" fill="#FFDBE0" p-id="17897"></path><path d="M627.845924 550.102278a55.69159 44.349296 0 1 0 111.383179 0 55.69159 44.349296 0 1 0-111.383179 0Z" fill="#FFDBE0" p-id="17898"></path><path d="M126.594833 774.424209m-15.452716 0a15.452716 15.452716 0 1 0 30.905432 0 15.452716 15.452716 0 1 0-30.905432 0Z" fill="#30CD9C" p-id="17899"></path><path d="M126.594833 362.351775m-15.452716 0a15.452716 15.452716 0 1 0 30.905432 0 15.452716 15.452716 0 1 0-30.905432 0Z" fill="#30CD9C" p-id="17900"></path><path d="M538.667268 135.711936m-15.452717 0a15.452716 15.452716 0 1 0 30.905433 0 15.452716 15.452716 0 1 0-30.905433 0Z" fill="#30CD9C" p-id="17901"></path><path d="M744.703485 176.919179m-15.452716 0a15.452716 15.452716 0 1 0 30.905432 0 15.452716 15.452716 0 1 0-30.905432 0Z" fill="#70DCBA" p-id="17902"></path><path d="M942.498254 467.430245m-15.452717 0a15.452716 15.452716 0 1 0 30.905433 0 15.452716 15.452716 0 1 0-30.905433 0Z" fill="#70DCBA" p-id="17903"></path><path d="M722.039501 863.238181m-15.452716 0a15.452716 15.452716 0 1 0 30.905432 0 15.452716 15.452716 0 1 0-30.905432 0Z" fill="#70DCBA" p-id="17904"></path><path d="M385.08169 467.557988c-24.159807 0-43.813602 19.653795-43.813601 43.813602 0 8.53608 6.916636 15.452716 15.452716 15.452716s15.452716-6.916636 15.452716-15.452716c0-7.116491 5.791678-12.908169 12.908169-12.908169s12.908169 5.791678 12.908169 12.908169c0 8.53608 6.916636 15.452716 15.452716 15.452716s15.452716-6.916636 15.452717-15.452716c0-24.159807-19.653795-43.813602-43.813602-43.813602zM638.598954 467.557988c-24.159807 0-43.813602 19.653795-43.813602 43.813602 0 8.53608 6.916636 15.452716 15.452716 15.452716s15.452716-6.916636 15.452717-15.452716c0-7.116491 5.791678-12.908169 12.908169-12.908169s12.908169 5.791678 12.908169 12.908169c0 8.53608 6.916636 15.452716 15.452716 15.452716s15.452716-6.916636 15.452716-15.452716c0-24.159807-19.653795-43.813602-43.813601-43.813602zM513.289787 483.531976c-8.53608 0-15.452716 6.916636-15.452717 15.452716s6.916636 15.452716 15.452717 15.452716c4.044491 0 7.334889 3.290398 7.334889 7.33489s-3.290398 7.334889-7.334889 7.334889c-8.53608 0-15.452716 6.916636-15.452717 15.452716s6.916636 15.452716 15.452717 15.452717c4.044491 0 7.334889 3.290398 7.334889 7.334889s-3.290398 7.334889-7.334889 7.334889c-8.53608 0-15.452716 6.916636-15.452717 15.452717s6.916636 15.452716 15.452717 15.452716c31.2866 0 49.440451-35.809095 30.635525-61.025867 18.77196-25.177626 0.694342-61.029988-30.635525-61.029988z" fill="#313D40" p-id="17905"></path></svg>