<svg class="icon" viewBox="0 0 1024 1024" xmlns="http://www.w3.org/2000/svg" width="200" height="200"><path d="M752.94 116.47H512L240.94 512 512 907.53h261.544C934.828 832.07 1024 765.697 1024 594.414S914.224 191.93 752.94 116.47z" fill="#B0EBD8"/><path d="m640.544 822.15-15.797-29.782V201.462c37.21-33.878 80.443-62.65 128.196-84.992-71.82-33.6-153.82-52.706-240.943-52.706-87.15 0-169.197 19.085-241.031 52.706C109.723 191.94 0 423.157 0 594.414 0 841.97 229.23 960.236 512 960.236c87.122 0 189.726-19.104 261.544-52.706-47.934-22.427-93.138-51.332-133-85.38z" fill="#70DCBA"/><path d="M624.745 201.462c-100.214-25.53-209.469-16.042-301.373 26.972-110.771 51.847-199.75 235.242-199.75 365.98 0 75.657 29.848 130.386 93.938 172.243 103.947 67.887 286.928 85.91 422.984 55.495v-586.79z" fill="#D6948C"/><path d="M900.378 594.414c0-130.793-89.032-314.135-199.822-365.971-24.347-11.392-49.778-20.348-75.809-26.98C536.281 282.007 481.884 391.43 481.884 512c0 120.377 64.396 229.642 158.66 310.15 29.502-6.595 56.81-15.454 80.614-26.593 154.58-72.325 179.22-109.141 179.22-201.143z" fill="#E8B5B1"/><path d="M284.77 550.102a55.692 44.35 0 1 0 111.384 0 55.692 44.35 0 1 0-111.383 0zM627.846 550.102a55.692 44.35 0 1 0 111.383 0 55.692 44.35 0 1 0-111.383 0z" fill="#FFDBE0"/><path d="M111.142 774.424a15.453 15.453 0 1 0 30.906 0 15.453 15.453 0 1 0-30.906 0zM111.142 362.352a15.453 15.453 0 1 0 30.906 0 15.453 15.453 0 1 0-30.906 0zM523.215 135.712a15.453 15.453 0 1 0 30.905 0 15.453 15.453 0 1 0-30.905 0z" fill="#30CD9C"/><path d="M729.251 176.92a15.453 15.453 0 1 0 30.905 0 15.453 15.453 0 1 0-30.905 0zM927.046 467.43a15.453 15.453 0 1 0 30.905 0 15.453 15.453 0 1 0-30.905 0zM706.587 863.238a15.453 15.453 0 1 0 30.905 0 15.453 15.453 0 1 0-30.905 0z" fill="#70DCBA"/><path d="M385.082 467.558c-24.16 0-43.814 19.654-43.814 43.814 0 8.536 6.917 15.452 15.453 15.452s15.453-6.916 15.453-15.452c0-7.117 5.791-12.909 12.908-12.909s12.908 5.792 12.908 12.909c0 8.536 6.916 15.452 15.453 15.452s15.452-6.916 15.452-15.452c0-24.16-19.654-43.814-43.813-43.814zm253.517 0c-24.16 0-43.814 19.654-43.814 43.814 0 8.536 6.917 15.452 15.453 15.452s15.453-6.916 15.453-15.452c0-7.117 5.791-12.909 12.908-12.909s12.908 5.792 12.908 12.909c0 8.536 6.917 15.452 15.453 15.452s15.453-6.916 15.453-15.452c0-24.16-19.654-43.814-43.814-43.814zm-125.31 15.974c-8.535 0-15.452 6.917-15.452 15.453s6.917 15.452 15.453 15.452c4.044 0 7.335 3.29 7.335 7.335s-3.29 7.335-7.335 7.335c-8.536 0-15.453 6.917-15.453 15.453s6.917 15.453 15.453 15.453c4.044 0 7.335 3.29 7.335 7.335s-3.29 7.334-7.335 7.334c-8.536 0-15.453 6.917-15.453 15.453s6.917 15.453 15.453 15.453c31.286 0 49.44-35.81 30.635-61.026 18.772-25.178.695-61.03-30.635-61.03z" fill="#313D40"/></svg>