<?xml version="1.0" standalone="no"?><!DOCTYPE svg PUBLIC "-//W3C//DTD SVG 1.1//EN" "http://www.w3.org/Graphics/SVG/1.1/DTD/svg11.dtd"><svg t="1624436431715" class="icon" viewBox="0 0 1024 1024" version="1.1" xmlns="http://www.w3.org/2000/svg" p-id="20940" xmlns:xlink="http://www.w3.org/1999/xlink" width="200" height="200"><defs><style type="text/css"></style></defs><path d="M707.75295 228.834125L18.104402 918.484732A61.806744 61.806744 0 0 0 0 962.189135c0 34.13608 27.672724 61.810865 61.810865 61.810865a61.810865 61.810865 0 0 0 43.706463-18.104402l689.648547-689.648548z" fill="#D6948C" p-id="20941"></path><path d="M439.605054 712.429972c-17.63464-48.665755-53.897014-90.144966-99.148748-114.941425h-107.921771v322.21798h142.976773c51.101103-42.944129 88.06606-141.118326 64.093746-207.276555z" fill="#FFDBE0" p-id="20942"></path><path d="M277.491638 639.367469c16.307767-16.307767 38.423694-30.897191 62.966728-41.878922a206.804732 206.804732 0 0 0-28.886277-13.091541c-62.869891-22.781425-153.422809 9.485907-198.909425 54.972523-65.750278 65.750278-36.276797 158.044201 38.825465 233.146463 71.690302 71.692362 159.045537 101.796314 224.025239 47.192596-88.758342-53.742487-190.208515-188.154334-98.02173-280.341119z" fill="#FFB5C0" p-id="20943"></path><path d="M728.072241 423.979268c-17.63464-48.665755-53.897014-90.144966-99.148748-114.941425h-107.921771v322.21798h142.976773c51.101103-42.944129 88.06606-141.118326 64.093746-207.276555z" fill="#EFEDFF" p-id="20944"></path><path d="M565.958825 350.916765c16.307767-16.307767 38.423694-30.897191 62.966728-41.878922a206.804732 206.804732 0 0 0-28.886277-13.091541c-62.869891-22.781425-153.422809 9.485907-198.909425 54.972523-65.750278 65.750278-36.276797 158.044201 38.825465 233.146463 71.690302 71.692362 159.045537 101.796314 224.025239 47.192595-88.758342-53.742487-190.208515-188.154334-98.02173-280.341118z" fill="#D4D4FF" p-id="20945"></path><path d="M1016.522946 135.528563c-17.63464-48.665755-53.897014-90.144966-99.148749-114.941424h-107.92177v322.21798h142.976772c51.101103-42.944129 88.06606-141.118326 64.093747-207.276556z" fill="#B0EBD8" p-id="20946"></path><path d="M854.409529 62.46606c16.307767-16.307767 38.423694-30.897191 62.966729-41.878921a206.804732 206.804732 0 0 0-28.886278-13.091541c-62.869891-22.781425-153.422809 9.485907-198.909425 54.972523-65.750278 65.750278-36.276797 158.044201 38.825465 233.146463 71.690302 71.692362 159.045537 101.796314 224.02524 47.192595-88.758342-53.742487-190.208515-188.154334-98.021731-280.341119z" fill="#70DCBA" p-id="20947"></path><path d="M727.956861 74.811751c-12.405441 12.405441-9.832048 35.087968 5.74429 50.664305 15.578398 15.576338 38.260926 18.14767 50.666366 5.74429 12.405441-12.405441 9.832048-35.087968-5.74429-50.664306-15.578398-15.576338-38.262986-18.14973-50.666366-5.744289zM943.450141 245.385014c-15.576338-15.576338-38.260926-18.14767-50.664306-5.74429-12.405441 12.405441-9.832048 35.087968 5.74429 50.664306 15.578398 15.576338 38.260926 18.14767 50.666366 5.74429 12.40338-12.405441 9.829988-35.087968-5.74635-50.664306zM439.506157 363.262455c-12.405441 12.405441-9.832048 35.087968 5.74429 50.664306 15.578398 15.576338 38.260926 18.14767 50.666366 5.744289 12.405441-12.405441 9.832048-35.087968-5.74429-50.664306-15.578398-15.576338-38.262986-18.14973-50.666366-5.744289zM654.999437 533.835718c-15.576338-15.576338-38.260926-18.14767-50.664306-5.744289-12.405441 12.405441-9.832048 35.087968 5.74429 50.664305 15.578398 15.576338 38.260926 18.14767 50.666366 5.74429 12.40338-12.405441 9.829988-35.087968-5.74635-50.664306z" fill="#FF8E9E" p-id="20948"></path><path d="M151.03897 651.713159c-12.405441 12.405441-9.834109 35.087968 5.74429 50.664306 15.576338 15.576338 38.260926 18.14767 50.664305 5.74429 12.405441-12.405441 9.832048-35.087968-5.744289-50.664306s-38.258865-18.14973-50.664306-5.74429zM366.532249 822.286423c-15.576338-15.576338-38.258865-18.14767-50.664305-5.74429-12.405441 12.405441-9.832048 35.087968 5.744289 50.664306s38.260926 18.14767 50.664306 5.744289 9.834109-35.087968-5.74429-50.664305z" fill="#FF8E9E" p-id="20949"></path><path d="M236.138109 677.484169a15.452716 15.452716 0 0 0-21.854262-21.854262l-17.482173 17.482173a15.452716 15.452716 0 0 0 21.854262 21.854262zM370.420153 789.911952a15.456837 15.456837 0 0 0-21.854262 0l-17.482173 17.482173a15.452716 15.452716 0 0 0 21.854262 21.854261l17.482173-17.482173a15.452716 15.452716 0 0 0 0-21.854261zM282.720837 712.753449a15.448596 15.448596 0 0 0-0.00206 21.852201 7.332829 7.332829 0 1 1-10.371864 10.371863 15.452716 15.452716 0 0 0-21.854261 21.854262 7.332829 7.332829 0 1 1-10.371863 10.371863c-6.040982-6.034801-15.825642-6.034801-21.852201 0.00206a15.448596 15.448596 0 0 0 0.00206 21.852201c22.122109 22.122109 60.284137 9.636314 64.814873-21.491637 31.076443-4.526616 43.642592-42.657738 21.491638-64.814874a15.458897 15.458897 0 0 0-21.856322 0.002061z" fill="#313D40" p-id="20950"></path><path d="M516.363847 380.792016a15.452716 15.452716 0 0 0-21.854261-21.854261l-17.482174 17.482173a15.452716 15.452716 0 0 0 21.854262 21.854261zM667.128789 509.702696a15.456837 15.456837 0 0 0-21.854262 0l-17.482173 17.482173c-9.766117 9.770237-2.713497 26.380877 10.928161 26.380877a15.413569 15.413569 0 0 0 10.928161-4.524555l17.482173-17.482173a15.456837 15.456837 0 0 0-0.00206-21.856322zM581.425964 491.666286a9.621891 9.621891 0 0 1-13.616934 0 9.638374 9.638374 0 0 1 0-13.618994 15.452716 15.452716 0 0 0-21.854261-21.854262 9.632193 9.632193 0 0 1-13.618994-13.616933 15.452716 15.452716 0 0 0-21.854262-21.854262c-23.980555 23.980555-9.551839 64.96528 23.929046 68.873787 1.02194 8.748298 4.850093 17.230809 11.54627 23.929046 15.838004 15.838004 41.485392 15.842125 57.327517 0a15.458897 15.458897 0 0 0-21.858382-21.858382z" fill="#313D40" p-id="20951"></path><path d="M813.056 78.728499a15.456837 15.456837 0 0 0-21.854262 0l-17.482173 17.482173a15.452716 15.452716 0 0 0 21.854262 21.854262l17.482173-17.482173a15.452716 15.452716 0 0 0 0-21.854262zM947.338044 213.010543a15.456837 15.456837 0 0 0-21.854261 0l-17.482173 17.482173a15.452716 15.452716 0 0 0 21.854261 21.854262l17.482173-17.482173a15.452716 15.452716 0 0 0 0-21.854262zM874.205489 181.299509c-17.960177 1.213553-32.726793-13.631356-31.496757-31.496756a15.452716 15.452716 0 0 0-30.83332-2.120113c-2.511581 36.569368 27.794286 66.947348 64.446069 64.450189a15.452716 15.452716 0 0 0 14.358664-16.474656c-0.583082-8.513416-7.985964-14.931445-16.474656-14.358664z" fill="#313D40" p-id="20952"></path></svg>