<svg class="icon" viewBox="0 0 1024 1024" xmlns="http://www.w3.org/2000/svg" width="200" height="200"><path d="M707.753 228.834 18.104 918.484A61.807 61.807 0 0 0 0 962.19C0 996.325 27.673 1024 61.81 1024a61.81 61.81 0 0 0 43.707-18.104l689.649-689.649z" fill="#D6948C"/><path d="M439.605 712.43c-17.635-48.666-53.897-90.145-99.149-114.941H232.535v322.218H375.51c51.101-42.945 88.066-141.119 64.094-207.277z" fill="#FFDBE0"/><path d="M277.492 639.367c16.307-16.307 38.423-30.897 62.966-41.878a206.805 206.805 0 0 0-28.886-13.092c-62.87-22.781-153.423 9.486-198.91 54.973-65.75 65.75-36.276 158.044 38.826 233.146 71.69 71.692 159.046 101.796 224.025 47.193-88.758-53.743-190.208-188.155-98.021-280.342z" fill="#FFB5C0"/><path d="M728.072 423.98c-17.634-48.666-53.897-90.146-99.149-114.942H521.002v322.218h142.976c51.102-42.944 88.067-141.119 64.094-207.277z" fill="#EFEDFF"/><path d="M565.959 350.917c16.308-16.308 38.424-30.897 62.967-41.88a206.805 206.805 0 0 0-28.887-13.09c-62.87-22.782-153.423 9.485-198.91 54.972-65.75 65.75-36.276 158.044 38.826 233.146 71.69 71.693 159.046 101.797 224.026 47.193-88.759-53.743-190.209-188.154-98.022-280.341z" fill="#D4D4FF"/><path d="M1016.523 135.529c-17.635-48.666-53.897-90.145-99.149-114.942H809.452v322.218H952.43c51.101-42.944 88.066-141.118 64.094-207.276z" fill="#B0EBD8"/><path d="M854.41 62.466c16.307-16.308 38.423-30.897 62.966-41.879A206.805 206.805 0 0 0 888.49 7.496c-62.87-22.782-153.423 9.486-198.91 54.972-65.75 65.75-36.276 158.044 38.826 233.147 71.69 71.692 159.046 101.796 224.025 47.192-88.758-53.742-190.208-188.154-98.021-280.34z" fill="#70DCBA"/><path d="M727.957 74.812c-12.406 12.405-9.832 35.088 5.744 50.664 15.579 15.576 38.261 18.148 50.667 5.744 12.405-12.405 9.832-35.088-5.745-50.664-15.578-15.576-38.263-18.15-50.666-5.744zM943.45 245.385c-15.576-15.576-38.26-18.148-50.664-5.744-12.406 12.405-9.832 35.088 5.744 50.664 15.579 15.576 38.261 18.148 50.666 5.744 12.404-12.405 9.83-35.088-5.746-50.664zM439.506 363.262c-12.405 12.406-9.832 35.088 5.744 50.665 15.579 15.576 38.261 18.147 50.667 5.744 12.405-12.405 9.832-35.088-5.744-50.664-15.579-15.577-38.263-18.15-50.667-5.745zM655 533.836c-15.576-15.577-38.26-18.148-50.664-5.745-12.405 12.406-9.832 35.088 5.744 50.665 15.579 15.576 38.261 18.147 50.667 5.744 12.403-12.405 9.83-35.088-5.747-50.664zM151.039 651.713c-12.405 12.406-9.834 35.088 5.744 50.664 15.577 15.577 38.261 18.148 50.665 5.745 12.405-12.406 9.832-35.088-5.745-50.665s-38.259-18.15-50.664-5.744zm215.493 170.573c-15.576-15.576-38.259-18.147-50.664-5.744-12.405 12.406-9.832 35.088 5.744 50.664s38.261 18.148 50.665 5.745 9.834-35.088-5.745-50.665z" fill="#FF8E9E"/><path d="M236.138 677.484a15.453 15.453 0 0 0-21.854-21.854l-17.482 17.482a15.453 15.453 0 0 0 21.854 21.854zM370.42 789.912a15.457 15.457 0 0 0-21.854 0l-17.482 17.482a15.453 15.453 0 0 0 21.854 21.854l17.482-17.482a15.453 15.453 0 0 0 0-21.854zm-87.7-77.159a15.449 15.449 0 0 0-.001 21.853 7.333 7.333 0 1 1-10.372 10.372 15.453 15.453 0 0 0-21.854 21.854 7.333 7.333 0 1 1-10.372 10.372c-6.041-6.035-15.826-6.035-21.852.002a15.449 15.449 0 0 0 .002 21.852c22.122 22.122 60.284 9.636 64.815-21.492 31.076-4.526 43.642-42.657 21.491-64.815a15.459 15.459 0 0 0-21.856.002zM516.364 380.792a15.453 15.453 0 0 0-21.854-21.854l-17.483 17.482a15.453 15.453 0 0 0 21.855 21.854zm150.765 128.91a15.457 15.457 0 0 0-21.854 0l-17.483 17.483c-9.766 9.77-2.713 26.38 10.929 26.38a15.414 15.414 0 0 0 10.928-4.524l17.482-17.482a15.457 15.457 0 0 0-.002-21.856zm-85.703-18.036a9.622 9.622 0 0 1-13.617 0 9.638 9.638 0 0 1 0-13.619 15.453 15.453 0 0 0-21.854-21.854 9.632 9.632 0 0 1-13.62-13.617 15.453 15.453 0 0 0-21.853-21.854c-23.981 23.98-9.552 64.965 23.929 68.874 1.021 8.748 4.85 17.23 11.546 23.929 15.838 15.838 41.485 15.842 57.327 0a15.459 15.459 0 0 0-21.858-21.859zM813.056 78.728a15.457 15.457 0 0 0-21.854 0L773.72 96.211a15.453 15.453 0 0 0 21.854 21.854l17.482-17.482a15.453 15.453 0 0 0 0-21.855zm134.282 134.283a15.457 15.457 0 0 0-21.854 0l-17.482 17.482a15.453 15.453 0 0 0 21.854 21.854l17.482-17.482a15.453 15.453 0 0 0 0-21.854zM874.205 181.3c-17.96 1.213-32.726-13.632-31.496-31.497a15.453 15.453 0 0 0-30.834-2.12c-2.511 36.569 27.795 66.947 64.446 64.45a15.453 15.453 0 0 0 14.36-16.475c-.584-8.513-7.987-14.931-16.476-14.358z" fill="#313D40"/></svg>