<svg class="icon" viewBox="0 0 1024 1024" xmlns="http://www.w3.org/2000/svg" width="200" height="200"><path d="M409.694 108.17a63.165 63.165 0 0 0-34.786-47.543L263.944 6.445c-15.167-7.411-32.313-8.468-48.277-2.977-15.958 5.489-28.827 16.864-36.232 32.033-7.407 15.164-8.462 32.309-2.975 48.27s16.864 28.831 32.03 36.238l81.05 39.574 22.736 153.868 62.333 40.917 65.094-43.13z" fill="#70DCBA"/><path d="M789.19 202.948H614c-66 0-119.503 53.502-119.503 119.503v582.047c0 66 53.502 119.502 119.502 119.502h122.686c32.338 0 59.21-24.924 61.637-57.172l52.504-697.426c2.702-35.865-25.67-66.454-61.636-66.454z" fill="#EFEDFF"/><path d="M537.765 942.203v-656.84c0-45.515 34.84-82.415 80.355-82.415h-335.9c-35.967 0-64.338 30.589-61.637 66.452l52.505 697.428c2.427 32.248 29.299 57.172 61.636 57.172h273.442c-40.818-4.918-70.4-39.65-70.4-81.797z" fill="#D4D4FF"/><path d="m744.566 857.498 35.192-443.36H537.765l-43.268 38.476V862.01l43.268 38.367h160.572c24.255 0 44.41-18.694 46.23-42.879z" fill="#FFB5C0"/><path d="m293.467 414.138 33.376 443.36c1.822 24.185 21.976 42.879 46.23 42.879h164.696v-486.24z" fill="#FF8E9E"/><path d="M330.156 574.343a51.51 41.02 0 1 0 103.02 0 51.51 41.02 0 1 0-103.02 0zM640.047 574.343a51.51 41.02 0 1 0 103.02 0 51.51 41.02 0 1 0-103.02 0z" fill="#FFDBE0"/><path d="M407.942 494.946A15.45 15.45 0 0 0 392.49 510.4v24.725c0 8.536 6.917 15.453 15.453 15.453s15.453-6.917 15.453-15.453v-24.725c0-8.536-6.917-15.453-15.453-15.453zm257.338 0a15.45 15.45 0 0 0-15.452 15.453v24.725c0 8.536 6.916 15.453 15.452 15.453s15.453-6.917 15.453-15.453v-24.725a15.453 15.453 0 0 0-15.453-15.453zm-84.595 27.79a15.447 15.447 0 0 0-21.8 1.5c-11.799 13.535-32.759 13.525-44.546 0a15.453 15.453 0 1 0-23.301 20.302c24.11 27.673 67.057 27.646 91.145 0a15.449 15.449 0 0 0-1.498-21.801z" fill="#313D40"/><path d="M389.672 780.924a49.45 49.45 0 1 0 98.9 0 49.45 49.45 0 1 0-98.9 0zM587.4699999999999 780.924a49.45 49.45 0 1 0 98.898 0 49.45 49.45 0 1 0-98.898 0z" fill="#676FB2"/><path d="M488.571 780.924a49.45 49.45 0 1 0 98.899 0 49.45 49.45 0 1 0-98.899 0z" fill="#676FB2"/><path d="M389.672 780.924a49.45 49.45 0 1 0 98.9 0 49.45 49.45 0 1 0-98.9 0z" fill="#4C5699"/><path d="M439.13 695.257a49.45 49.45 0 1 0 98.899 0 49.45 49.45 0 1 0-98.899 0z" fill="#4C5699"/><path d="M538.028 695.257a49.45 49.45 0 1 0 98.9 0 49.45 49.45 0 1 0-98.9 0z" fill="#676FB2"/><path d="M488.571 780.924a49.45 49.45 0 1 0 98.899 0 49.45 49.45 0 1 0-98.899 0z" fill="#676FB2"/><path d="M488.571 780.924a49.45 49.45 0 1 0 98.899 0 49.45 49.45 0 1 0-98.899 0z" fill="#676FB2"/></svg>