<?xml version="1.0" standalone="no"?><!DOCTYPE svg PUBLIC "-//W3C//DTD SVG 1.1//EN" "http://www.w3.org/Graphics/SVG/1.1/DTD/svg11.dtd"><svg t="1624436377216" class="icon" viewBox="0 0 1024 1024" version="1.1" xmlns="http://www.w3.org/2000/svg" p-id="18609" xmlns:xlink="http://www.w3.org/1999/xlink" width="200" height="200"><defs><style type="text/css"></style></defs><path d="M409.693562 108.170504a63.165273 63.165273 0 0 0-34.785507-47.543421L263.943872 6.445095c-15.166506-7.411211-32.313044-8.468189-48.276919-2.977258-15.957694 5.48887-28.826869 16.864265-36.231899 32.032831-7.40709 15.164446-8.462008 32.308923-2.975198 48.270738s16.864265 28.83099 32.03077 36.23808l81.049429 39.573846 22.736367 153.867613 62.332877 40.917218 65.093794-43.130073z" fill="#70DCBA" p-id="18610"></path><path d="M789.189995 202.948289h-175.190555c-66.000365 0-119.502425 53.50206-119.502424 119.502425v582.046861c0 66.000365 53.50206 119.502425 119.502424 119.502425h122.685722c32.337768 0 59.209331-24.924497 61.636466-57.171608l52.504833-697.426453c2.701167-35.86515-25.670357-66.45365-61.636466-66.45365z" fill="#EFEDFF" p-id="18611"></path><path d="M537.765135 942.202651V285.363755c0-45.516001 34.839078-82.415465 80.355078-82.415466H282.219502c-35.966109 0-64.337633 30.5885-61.636467 66.45159l52.504833 697.428513c2.427135 32.247111 29.298698 57.171608 61.636466 57.171608h273.442152c-40.81832-4.918143-70.401351-39.65008-70.401351-81.797349z" fill="#D4D4FF" p-id="18612"></path><path d="M744.566141 857.498096L779.757545 414.137919h-241.99241l-43.268119 38.47566v409.396764l43.268119 38.366459h160.572111c24.254871 0 44.409573-18.693888 46.228895-42.878706z" fill="#FFB5C0" p-id="18613"></path><path d="M293.467152 414.137919l33.376203 443.360177c1.821382 24.184818 21.976084 42.878706 46.228895 42.878706h164.697006V414.137919z" fill="#FF8E9E" p-id="18614"></path><path d="M330.156457 574.343282a51.509666 41.020237 0 1 0 103.019332 0 51.509666 41.020237 0 1 0-103.019332 0Z" fill="#FFDBE0" p-id="18615"></path><path d="M640.046848 574.343282a51.509666 41.020237 0 1 0 103.019332 0 51.509666 41.020237 0 1 0-103.019332 0Z" fill="#FFDBE0" p-id="18616"></path><path d="M407.942234 494.946283a15.450839 15.450839 0 0 0-15.4529 15.4529v24.724639c0 8.536182 6.916718 15.4529 15.4529 15.4529s15.4529-6.916718 15.452899-15.4529v-24.724639c0-8.536182-6.916718-15.4529-15.452899-15.4529zM665.280403 494.946283a15.450839 15.450839 0 0 0-15.4529 15.4529v24.724639c0 8.536182 6.916718 15.4529 15.4529 15.4529s15.4529-6.916718 15.4529-15.4529v-24.724639a15.4529 15.4529 0 0 0-15.4529-15.4529zM580.685049 522.736778a15.446719 15.446719 0 0 0-21.800951 1.499961c-11.797774 13.53468-32.758087 13.524378-44.545559 0a15.4529 15.4529 0 1 0-23.300913 20.30099c24.110644 27.673053 67.057343 27.646268 91.145324 0a15.448779 15.448779 0 0 0-1.497901-21.800951z" fill="#313D40" p-id="18617"></path><path d="M439.122064 780.923827m-49.449279 0a49.449279 49.449279 0 1 0 98.898559 0 49.449279 49.449279 0 1 0-98.898559 0Z" fill="#676FB2" p-id="18618"></path><path d="M636.919181 780.923827m-49.449279 0a49.449279 49.449279 0 1 0 98.898558 0 49.449279 49.449279 0 1 0-98.898558 0Z" fill="#676FB2" p-id="18619"></path><path d="M538.020623 780.923827m-49.449279 0a49.449279 49.449279 0 1 0 98.898558 0 49.449279 49.449279 0 1 0-98.898558 0Z" fill="#676FB2" p-id="18620"></path><path d="M439.122064 780.923827m-49.449279 0a49.449279 49.449279 0 1 0 98.898559 0 49.449279 49.449279 0 1 0-98.898559 0Z" fill="#4C5699" p-id="18621"></path><path d="M488.579585 695.257071m-49.449279 0a49.449279 49.449279 0 1 0 98.898558 0 49.449279 49.449279 0 1 0-98.898558 0Z" fill="#4C5699" p-id="18622"></path><path d="M587.478144 695.257071m-49.44928 0a49.449279 49.449279 0 1 0 98.898559 0 49.449279 49.449279 0 1 0-98.898559 0Z" fill="#676FB2" p-id="18623"></path><path d="M538.020623 780.923827m-49.449279 0a49.449279 49.449279 0 1 0 98.898558 0 49.449279 49.449279 0 1 0-98.898558 0Z" fill="#676FB2" p-id="18624"></path><path d="M538.020623 780.923827m-49.449279 0a49.449279 49.449279 0 1 0 98.898558 0 49.449279 49.449279 0 1 0-98.898558 0Z" fill="#676FB2" p-id="18625"></path></svg>