<?xml version="1.0" standalone="no"?><!DOCTYPE svg PUBLIC "-//W3C//DTD SVG 1.1//EN" "http://www.w3.org/Graphics/SVG/1.1/DTD/svg11.dtd"><svg t="1624436458151" class="icon" viewBox="0 0 1024 1024" version="1.1" xmlns="http://www.w3.org/2000/svg" p-id="22241" xmlns:xlink="http://www.w3.org/1999/xlink" width="200" height="200"><defs><style type="text/css"></style></defs><path d="M457.579763 958.157139m-65.840801 0a65.840801 65.840801 0 1 0 131.681603 0 65.840801 65.840801 0 1 0-131.681603 0Z" fill="#676FB2" p-id="22242"></path><path d="M720.947089 958.157139m-65.840801 0a65.840801 65.840801 0 1 0 131.681602 0 65.840801 65.840801 0 1 0-131.681602 0Z" fill="#8288CB" p-id="22243"></path><path d="M202.946296 638.801644c-19.880395 0-36.056265-16.175871-36.056266-36.056265v-82.414321c0-19.880395 16.175871-36.056265 36.056266-36.056266H228.700771l56.659846-49.450653-56.659846-43.265458H202.946296c-71.006119 0-128.772377 57.766258-128.772377 128.772377v82.414321c0 71.006119 57.766258 128.772377 128.772377 128.772376H228.700771l56.659846-43.269578-56.659846-49.446533z" fill="#676FB2" p-id="22244"></path><path d="M681.888882 25.754475h-92.716112v92.716112h92.716112c19.880395 0 36.056265 16.175871 36.056265 36.056265v51.508951l49.450653 30.90537 43.265458-30.90537V154.526852c0-71.006119-57.768318-128.772377-128.772376-128.772377z" fill="#EFEDFF" p-id="22245"></path><path d="M496.456659 25.754475c-71.006119 0-128.772377 57.766258-128.772377 128.772377v51.508951l47.390295 30.90537 45.325817-30.90537V154.526852c0-19.880395 16.175871-36.056265 36.056265-36.056265h92.716111v-92.716112z" fill="#D4D4FF" p-id="22246"></path><path d="M826.235505 206.126458H624.207098c-93.396029 0-169.108006 75.837658-169.108006 169.388215V788.766864c0 93.550556 75.711976 169.388215 169.108006 169.388214H826.235505c67.975332 0 123.407204-55.658512 123.407204-123.745103L949.826081 329.92101c0-68.086591-55.615244-123.794552-123.590576-123.794552z" fill="#FFB5C0" p-id="22247"></path><path d="M537.49281 834.362587V329.92101c0-68.086591 55.615244-123.794552 123.590576-123.794552H352.291348c-67.975332 0-123.590576 55.70796-123.590577 123.794552V834.362587c0 68.086591 55.615244 123.794552 123.590577 123.794552h308.792038c-67.975332 0-123.590576-55.70796-123.590576-123.794552z" fill="#FF8E9E" p-id="22248"></path><path d="M656.134406 0h-56.659846l-32.794718 19.130424v105.966274L599.47456 144.225062h56.659846c14.224712 0 25.754475-11.531824 25.754476-25.754475v-92.716112c0-14.222651-11.531824-25.754475-25.754476-25.754475z" fill="#8288CB" p-id="22249"></path><path d="M599.47456 0h-77.263426c-14.224712 0-25.754475 11.531824-25.754475 25.754475v92.716112c0 14.222651 11.529764 25.754475 25.754475 25.754475h77.263426c-28.480329-43.856781-28.480329-100.368281 0-144.225062z" fill="#676FB2" p-id="22250"></path><path d="M364.865713 655.414311a60.48181 48.16499 0 1 0 120.963619 0 60.48181 48.16499 0 1 0-120.963619 0Z" fill="#FFDBE0" p-id="22251"></path><path d="M692.69752 655.414311a60.48181 48.16499 0 1 0 120.96362 0 60.48181 48.16499 0 1 0-120.96362 0Z" fill="#FFDBE0" p-id="22252"></path><path d="M354.382611 331.808298c0-35.27539 28.595709-63.871099 63.871099-63.871099s63.871099 28.595709 63.871099 63.871099c35.27539 0 63.871099 28.595709 63.871098 63.871099s-28.595709 63.871099-63.871098 63.871099c0 35.27539-28.595709 63.871099-63.871099 63.871099s-63.871099-28.595709-63.871099-63.871099c-35.27539 0-63.871099-28.595709-63.871099-63.871099s28.595709-63.871099 63.871099-63.871099z" fill="#FFDBE0" p-id="22253"></path><path d="M418.25371 395.679397m-36.056266 0a36.056265 36.056265 0 1 0 72.112531 0 36.056265 36.056265 0 1 0-72.112531 0Z" fill="#FF8E9E" p-id="22254"></path><path d="M846.808179 772.724916c0-22.756654-18.448446-41.207161-41.20716-41.207161s-41.207161 18.450506-41.207161 41.207161c-22.758715 0-41.207161 18.450506-41.20716 41.207161s18.448446 41.207161 41.20716 41.20716c0 22.756654 18.448446 41.207161 41.207161 41.207161s41.207161-18.450506 41.20716-41.207161c22.758715 0 41.207161-18.450506 41.207161-41.20716s-18.448446-41.207161-41.207161-41.207161z" fill="#FFDBE0" p-id="22255"></path><path d="M805.601019 813.932077m-15.452685 0a15.452685 15.452685 0 1 0 30.90537 0 15.452685 15.452685 0 1 0-30.90537 0Z" fill="#FFB5C0" p-id="22256"></path><path d="M460.596128 568.873093a15.450625 15.450625 0 0 0-15.452686 15.452685v24.724296c0 8.536063 6.916622 15.452685 15.452686 15.452686s15.452685-6.916622 15.452685-15.452686v-24.724296a15.452685 15.452685 0 0 0-15.452685-15.452685zM717.928664 568.873093a15.450625 15.450625 0 0 0-15.452685 15.452685v24.724296c0 8.536063 6.916622 15.452685 15.452685 15.452686s15.452685-6.916622 15.452685-15.452686v-24.724296c0-8.536063-6.916622-15.452685-15.452685-15.452685zM633.336545 596.663202a15.446504 15.446504 0 0 0-21.800649 1.499941c-11.79761 13.534492-32.755572 13.52419-44.54288 0a15.452685 15.452685 0 1 0-23.300589 20.300707c24.11031 27.672669 67.054352 27.647944 91.141998 0a15.448564 15.448564 0 0 0-1.49788-21.800648z" fill="#313D40" p-id="22257"></path></svg>