<svg class="icon" viewBox="0 0 1024 1024" xmlns="http://www.w3.org/2000/svg" width="200" height="200"><path d="M391.739 958.157a65.84 65.84 0 1 0 131.682 0 65.84 65.84 0 1 0-131.682 0z" fill="#676FB2"/><path d="M655.107 958.157a65.84 65.84 0 1 0 131.68 0 65.84 65.84 0 1 0-131.68 0z" fill="#8288CB"/><path d="M202.946 638.802c-19.88 0-36.056-16.176-36.056-36.057v-82.414c0-19.88 16.176-36.056 36.056-36.056h25.755l56.66-49.45-56.66-43.266h-25.755c-71.006 0-128.772 57.766-128.772 128.772v82.414c0 71.006 57.766 128.773 128.772 128.773h25.755l56.66-43.27-56.66-49.446z" fill="#676FB2"/><path d="M681.889 25.754h-92.716v92.717h92.716c19.88 0 36.056 16.175 36.056 36.056v51.509l49.45 30.905 43.266-30.905v-51.51c0-71.005-57.768-128.772-128.772-128.772z" fill="#EFEDFF"/><path d="M496.457 25.754c-71.006 0-128.773 57.767-128.773 128.773v51.509l47.39 30.905 45.326-30.905v-51.51c0-19.88 16.176-36.055 36.057-36.055h92.716V25.754z" fill="#D4D4FF"/><path d="M826.236 206.126H624.207c-93.396 0-169.108 75.838-169.108 169.389v413.252c0 93.55 75.712 169.388 169.108 169.388h202.029c67.975 0 123.407-55.658 123.407-123.745l.183-504.489c0-68.087-55.615-123.795-123.59-123.795z" fill="#FFB5C0"/><path d="M537.493 834.363V329.92c0-68.087 55.615-123.795 123.59-123.795H352.291c-67.975 0-123.59 55.708-123.59 123.795v504.442c0 68.086 55.615 123.794 123.59 123.794h308.792c-67.975 0-123.59-55.708-123.59-123.794z" fill="#FF8E9E"/><path d="M656.134 0h-56.66L566.68 19.13v105.967l32.795 19.128h56.66c14.224 0 25.754-11.532 25.754-25.754V25.754C681.889 11.532 670.357 0 656.134 0z" fill="#8288CB"/><path d="M599.475 0H522.21c-14.225 0-25.754 11.532-25.754 25.754v92.717c0 14.222 11.53 25.754 25.754 25.754h77.264c-28.48-43.857-28.48-100.368 0-144.225z" fill="#676FB2"/><path d="M364.866 655.414a60.482 48.165 0 1 0 120.963 0 60.482 48.165 0 1 0-120.963 0zM692.698 655.414a60.482 48.165 0 1 0 120.963 0 60.482 48.165 0 1 0-120.963 0zM354.383 331.808c0-35.275 28.595-63.87 63.87-63.87s63.872 28.595 63.872 63.87c35.275 0 63.87 28.596 63.87 63.871s-28.595 63.871-63.87 63.871c0 35.276-28.596 63.872-63.871 63.872s-63.871-28.596-63.871-63.872c-35.276 0-63.871-28.595-63.871-63.87s28.595-63.872 63.87-63.872z" fill="#FFDBE0"/><path d="M382.197 395.68a36.056 36.056 0 1 0 72.113 0 36.056 36.056 0 1 0-72.113 0z" fill="#FF8E9E"/><path d="M846.808 772.725c0-22.757-18.448-41.207-41.207-41.207s-41.207 18.45-41.207 41.207c-22.759 0-41.207 18.45-41.207 41.207s18.448 41.207 41.207 41.207c0 22.757 18.448 41.207 41.207 41.207s41.207-18.45 41.207-41.207c22.759 0 41.207-18.45 41.207-41.207s-18.448-41.207-41.207-41.207z" fill="#FFDBE0"/><path d="M790.148 813.932a15.453 15.453 0 1 0 30.906 0 15.453 15.453 0 1 0-30.906 0z" fill="#FFB5C0"/><path d="M460.596 568.873a15.45 15.45 0 0 0-15.453 15.453v24.724c0 8.536 6.917 15.453 15.453 15.453s15.453-6.917 15.453-15.453v-24.724a15.453 15.453 0 0 0-15.453-15.453zm257.333 0a15.45 15.45 0 0 0-15.453 15.453v24.724c0 8.536 6.917 15.453 15.453 15.453s15.452-6.917 15.452-15.453v-24.724c0-8.536-6.916-15.453-15.452-15.453zm-84.592 27.79a15.447 15.447 0 0 0-21.801 1.5c-11.798 13.535-32.756 13.524-44.543 0a15.453 15.453 0 1 0-23.3 20.3c24.11 27.674 67.054 27.649 91.141 0a15.449 15.449 0 0 0-1.497-21.8z" fill="#313D40"/></svg>