<svg class="icon" viewBox="0 0 1024 1024" xmlns="http://www.w3.org/2000/svg" width="200" height="200"><path d="m512 0-41.207 31.96L512 61.81c17.068 0 30.905 13.838 30.905 30.906S529.068 123.622 512 123.622l-41.067 34.01 41.067 27.8c25.973 0 49.45-10.594 66.282-27.8a92.613 92.613 0 0 0 26.434-64.916C604.716 41.51 563.206 0 512 0z" fill="#E8B5B1"/><path d="M512 123.622c-17.068 0-30.905-13.838-30.905-30.906S494.932 61.811 512 61.811C494.932 44.743 494.932 17.068 512 0c-51.206 0-92.716 41.51-92.716 92.716s41.51 92.717 92.716 92.717c-17.068-17.068-17.068-44.743 0-61.811z" fill="#CE857A"/><path d="M779.845 467.7 627.38 315.235H402.8V962.19h377.047V467.702z" fill="#FFDBE0"/><path d="m625.78 316.836 1.6-1.6L512 199.855 244.153 467.701V962.19h230.76V681.06A515.088 515.088 0 0 1 625.78 316.836z" fill="#FFB5C0"/><path d="m474.913 684.04-79.26 46.358 79.26 46.359h296.693V684.04z" fill="#E8B5B1"/><path d="M474.913 684.04H252.394v92.717h222.52c-25.603-25.603-25.603-67.115 0-92.717zm243.123-216.338h123.622V962.19H718.036z" fill="#D6948C"/><path d="M182.342 467.702h123.622V962.19H182.342z" fill="#CE857A"/><path d="M887.818 404.618c-117.504-37.93-254.58-117.7-300.555-230.493a84.675 84.675 0 0 0-8.981-16.493H470.93V331.65l41.207 29.906c70.056 86.622 193.853 156.2 326.567 198.66 52.443 16.776 105.969-22.83 105.969-77.89.002-35.526-23.045-66.794-56.856-77.708z" fill="#FF8E9E"/><path d="M513.374 123.622c-.472 0-.943.039-1.417.047h-.027c-24.646.412-49.42 10.994-65.754 33.961-3.81 5.357-7.164 11.728-9.946 18.405-46.35 111.219-183.512 192.216-300.042 230.606-33.767 11.126-56.864 42.267-56.864 77.818 0 55.243 53.812 94.935 106.362 77.896C318.297 519.362 441.715 448.63 512.14 361.556v-46.885c0-58.9 24.133-114.845 65.637-156.637.169-.171.338-.229.507-.402-15.333-22.06-39.604-34.01-64.91-34.01z" fill="#EA5B70"/><path d="M862.262 900.378H474.913l-67.991 61.811L474.913 1024h387.349c34.138 0 61.81-27.675 61.81-61.81 0-34.139-27.672-61.812-61.81-61.812z" fill="#E8B5B1"/><path d="M474.913 900.378H161.738c-34.138 0-61.81 27.673-61.81 61.811 0 34.136 27.672 61.811 61.81 61.811h313.175c-34.138-34.136-34.138-89.486 0-123.622z" fill="#D6948C"/><path d="M390.422 561.925c-28.338 0-51.31 18.294-51.31 40.86s22.972 40.862 51.31 40.862c28.336 0 51.31-18.294 51.31-40.861s-22.974-40.861-51.31-40.861zm243.156 0c-28.336 0-51.31 18.294-51.31 40.86s22.972 40.862 51.31 40.862 51.31-18.294 51.31-40.861c.001-22.567-22.972-40.861-51.31-40.861z" fill="#FF8E9E"/><path d="M403.936 516.244a15.45 15.45 0 0 0-15.453 15.453v24.724c0 8.536 6.917 15.453 15.453 15.453s15.453-6.917 15.453-15.453v-24.724a15.453 15.453 0 0 0-15.453-15.453zm216.126 0a15.45 15.45 0 0 0-15.453 15.453v24.724c0 8.536 6.917 15.453 15.453 15.453s15.453-6.917 15.453-15.453v-24.724c0-8.536-6.917-15.453-15.453-15.453zm-63.989 27.793a15.449 15.449 0 0 0-21.8 1.5c-11.794 13.532-32.76 13.52-44.543 0a15.449 15.449 0 0 0-21.801-1.5 15.453 15.453 0 0 0-1.5 21.8c24.108 27.669 67.054 27.646 91.142 0a15.449 15.449 0 0 0-1.498-21.8z" fill="#313D40"/></svg>