<svg class="icon" viewBox="0 0 1024 1024" xmlns="http://www.w3.org/2000/svg" width="200" height="200"><path d="M996.066 499.988a943.188 943.188 0 0 0-207.771-62.796c-98.863-17.814-199.542-19.787-299.231-5.876a949.689 949.689 0 0 0-152.327 34.173 944.14 944.14 0 0 0-141.629 57.262A945.471 945.471 0 0 0 16.833 639.003C6.121 647.85 0 661.08 0 674.97c0 39.643 46.117 61.254 76.701 36.031 118.557-97.77 254.23-163.999 425.179-187.86 62.14-8.674 124.188-10.57 185.385-5.83 93.56 7.244 185.138 29.996 272.031 67.744 30.562 13.277 64.704-9.2 64.704-42.521a46.368 46.368 0 0 0-27.934-42.547z" fill="#4C5699"/><path d="M611.019 110.182H412.322L196.874 325.628v139.861h139.861c51.956 0 101.733-8.49 139.864-46.62 54.208-54.21 145.412-219.426 134.42-308.687z" fill="#FFB5C0"/><path d="M611.019 110.182c-2.06-16.734-7.706-30.807-17.868-40.968-64.37-64.372-285.286 52.18-349.655 116.55-38.131 38.131-46.622 86.194-46.622 139.864v104.911h104.895c-8.804-61.963 10.615-127.18 58.277-174.844 45.124-45.124 151.79-110.753 250.973-145.513z" fill="#FF8E9E"/><path d="m196.874 325.628-21.51 44.87v120.099l21.512 21.51c25.748 25.748 67.493 25.748 93.242 0l46.617-46.618-34.964-34.952z" fill="#8288CB"/><path d="m196.874 325.628-46.62 46.62c-25.748 25.748-25.748 67.493 0 93.241l25.11 25.11 59.717-60.06c18.383-18.467 48.266-18.423 66.69 0z" fill="#676FB2"/><path d="M884.056 155.506a63.554 63.554 0 0 0-11.396-36.396h-99.225v200.533h99.225a63.558 63.558 0 0 0 11.396-36.395c35.276 0 63.871-28.595 63.871-63.87s-28.598-63.872-63.87-63.872z" fill="#FFDBE0"/><path d="M784.129 219.377c0-51.57 38.633-94.09 88.531-100.267-11.534-16.6-30.73-27.475-52.475-27.475-35.276 0-63.871 28.595-63.871 63.87-35.276 0-63.872 28.597-63.872 63.872s28.596 63.871 63.872 63.871c0 35.276 28.595 63.872 63.87 63.872 21.746 0 40.942-10.877 52.476-27.477-49.898-6.177-88.531-48.697-88.531-100.266z" fill="#FFB5C0"/><path d="M784.129 219.377a36.056 36.056 0 1 0 72.112 0 36.056 36.056 0 1 0-72.112 0z" fill="#FF8E9E"/><path d="M297.257 734.937c0-22.756-18.449-41.207-41.208-41.207s-41.207 18.45-41.207 41.207c-22.759 0-41.207 18.45-41.207 41.208s18.448 41.207 41.207 41.207c0 22.757 18.449 41.207 41.207 41.207s41.208-18.45 41.208-41.207c22.758 0 41.207-18.45 41.207-41.207s-18.449-41.208-41.207-41.208z" fill="#FFB5C0"/><path d="M240.597 776.145a15.453 15.453 0 1 0 30.905 0 15.453 15.453 0 1 0-30.905 0z" fill="#FFDBE0"/><path d="M471.819 972.664V773.967L687.265 558.52h139.861v139.861c0 51.957-8.49 101.733-46.62 139.864-54.21 54.206-219.426 145.41-308.687 134.418z" fill="#B0EBD8"/><path d="M471.819 972.664c-16.734-2.06-30.807-7.706-40.968-17.867-64.372-64.37 52.18-285.284 116.55-349.654 38.131-38.131 86.193-46.622 139.864-46.622h104.911v104.895c-61.963-8.804-127.18 10.615-174.844 58.277-45.124 45.122-110.753 151.787-145.513 250.971z" fill="#70DCBA"/><path d="m873.746 558.52-11.505-11.506c-19.394-19.392-50.835-19.392-70.23 0l-44.697 44.7v26.852l79.814 79.814 46.62-46.62c25.744-25.746 25.744-67.49-.002-93.24z" fill="#8288CB"/><path d="m873.746 558.52-46.62-46.619c-25.748-25.748-67.493-25.748-93.241 0l-46.618 46.618 60.047 60.047 59.744-60.045c18.379-18.467 48.262-18.424 66.688 0z" fill="#676FB2"/><path d="m307.462 192.636-15.853 15.852a15.453 15.453 0 0 0 21.855 21.854l15.852-15.852a15.453 15.453 0 0 0-21.854-21.854zm160.432 138.578a15.457 15.457 0 0 0-21.854 0l-15.853 15.852a15.453 15.453 0 0 0 21.854 21.854l15.853-15.852a15.457 15.457 0 0 0 0-21.854zm-74.905-36.646c-15.364 1.073-28.082-11.672-27.027-27.024a15.453 15.453 0 0 0-14.357-16.477 15.449 15.449 0 0 0-16.477 14.357c-2.336 33.988 25.841 62.322 59.973 59.977a15.453 15.453 0 0 0 14.361-16.472c-.585-8.516-8.005-14.928-16.473-14.361zM585.988 669.162a15.453 15.453 0 0 0-21.855-21.854l-15.805 15.805a15.453 15.453 0 0 0 21.855 21.854zm150.515 128.664a15.457 15.457 0 0 0-21.854 0l-15.803 15.803a15.453 15.453 0 0 0 21.854 21.854l15.803-15.803a15.453 15.453 0 0 0 0-21.854zm-84.021-11.715a11.48 11.48 0 0 1-16.224 0 11.482 11.482 0 0 1 0-16.222 15.453 15.453 0 0 0-21.854-21.854 11.476 11.476 0 0 1-16.221 0 11.48 11.48 0 0 1 0-16.223 15.453 15.453 0 0 0-21.854-21.854c-25.312 25.311-9.57 68.723 25.882 72.127 3.393 35.399 46.787 51.222 72.127 25.882a15.453 15.453 0 0 0 0-21.854 15.457 15.457 0 0 0-21.856-.002z" fill="#313D40"/></svg>