<?xml version="1.0" standalone="no"?><!DOCTYPE svg PUBLIC "-//W3C//DTD SVG 1.1//EN" "http://www.w3.org/Graphics/SVG/1.1/DTD/svg11.dtd"><svg t="1624436466608" class="icon" viewBox="0 0 1024 1024" version="1.1" xmlns="http://www.w3.org/2000/svg" p-id="22690" xmlns:xlink="http://www.w3.org/1999/xlink" width="200" height="200"><defs><style type="text/css"></style></defs><path d="M996.06561 499.988089A943.188475 943.188475 0 0 0 788.294567 437.19237c-98.862358-17.813891-199.541956-19.787718-299.230519-5.876153a949.688918 949.688918 0 0 0-152.326696 34.173167 944.140362 944.140362 0 0 0-141.629296 57.261586A945.471356 945.471356 0 0 0 16.833159 639.002785C6.121336 647.84998 0 661.079565 0 674.970527c0 39.643429 46.117087 61.254567 76.701103 36.031614 118.55736-97.770366 254.230149-163.998648 425.178398-187.859702 62.140523-8.674125 124.18833-10.569658 185.385207-5.830825 93.561046 7.244233 185.137964 29.996813 272.031678 67.744708C989.857738 598.333296 1024 575.856805 1024 542.534567a46.368451 46.368451 0 0 0-27.93439-42.546478z" fill="#4C5699" p-id="22691"></path><path d="M611.018946 110.181988h-198.697208L196.873787 325.627879v139.861505h139.861505c51.956153 0 101.732443-8.490753 139.863565-46.619815 54.208129-54.210189 145.412121-219.426511 134.420089-308.687581z" fill="#FFB5C0" p-id="22692"></path><path d="M611.018946 110.181988c-2.060362-16.734262-7.705755-30.806535-17.867461-40.968242C528.78165 4.841851 307.865497 121.394479 243.495662 185.764314c-38.131123 38.131123-46.621875 86.193191-46.621875 139.863565v104.911582h104.895098c-8.803928-61.963332 10.614986-127.179976 58.277344-174.844395 45.123992-45.123992 151.788942-110.752708 250.972717-145.513078z" fill="#FF8E9E" p-id="22693"></path><path d="M196.873787 325.627879l-21.510181 44.870568v120.098511l21.512241 21.510181c25.748346 25.748346 67.493344 25.748346 93.24169 0l46.617755-46.617755-34.964346-34.951984z" fill="#8288CB" p-id="22694"></path><path d="M196.873787 325.627879l-46.619815 46.619815c-25.748346 25.748346-25.748346 67.493344 0 93.24169l25.109634 25.109634 59.717537-60.059557c18.382551-18.467026 48.266044-18.423759 66.689803 0z" fill="#676FB2" p-id="22695"></path><path d="M884.05608 155.505835a63.553932 63.553932 0 0 0-11.395863-36.396298h-99.224982v200.53299h99.224982a63.558052 63.558052 0 0 0 11.395863-36.394237c35.275461 0 63.871227-28.595767 63.871228-63.871228s-28.597827-63.871227-63.871228-63.871227z" fill="#FFDBE0" p-id="22696"></path><path d="M784.128515 219.377062c0-51.570865 38.633851-94.090559 88.531702-100.267525-11.533907-16.600338-30.730302-27.47493-52.475364-27.474929-35.275461 0-63.871227 28.595767-63.871227 63.871227-35.275461 0-63.871227 28.595767-63.871228 63.871227s28.595767 63.871227 63.871228 63.871228c0 35.275461 28.595767 63.871227 63.871227 63.871227 21.745062 0 40.941457-10.876652 52.475364-27.47699-49.897851-6.176966-88.531702-48.69666-88.531702-100.265465z" fill="#FFB5C0" p-id="22697"></path><path d="M820.184853 219.377062m-36.056338 0a36.056338 36.056338 0 1 0 72.112676 0 36.056338 36.056338 0 1 0-72.112676 0Z" fill="#FF8E9E" p-id="22698"></path><path d="M297.256692 734.937368c0-22.7567-18.448483-41.207243-41.207243-41.207243s-41.207243 18.450543-41.207244 41.207243c-22.758761 0-41.207243 18.450543-41.207243 41.207244s18.448483 41.207243 41.207243 41.207243c0 22.7567 18.448483 41.207243 41.207244 41.207244s41.207243-18.450543 41.207243-41.207244c22.758761 0 41.207243-18.450543 41.207244-41.207243s-18.448483-41.207243-41.207244-41.207244z" fill="#FFB5C0" p-id="22699"></path><path d="M256.049449 776.144612m-15.452717 0a15.452716 15.452716 0 1 0 30.905433 0 15.452716 15.452716 0 1 0-30.905433 0Z" fill="#FFDBE0" p-id="22700"></path><path d="M471.818817 972.664016v-198.697207l215.445891-215.445891h139.861505v139.861505c0 51.956153-8.490753 101.732443-46.619815 139.863565-54.210189 54.206068-219.426511 145.41006-308.687581 134.418028z" fill="#B0EBD8" p-id="22701"></path><path d="M471.818817 972.664016c-16.734262-2.060362-30.806535-7.705755-40.968242-17.867461-64.371895-64.369835 52.180732-285.283928 116.550568-349.653762 38.131123-38.131123 86.193191-46.621875 139.863565-46.621875h104.911582v104.895098c-61.963332-8.803928-127.179976 10.614986-174.844395 58.277344-45.123992 45.121932-110.752708 151.786881-145.513078 250.970656z" fill="#70DCBA" p-id="22702"></path><path d="M873.746028 558.520918l-11.505062-11.507123c-19.394189-19.392129-50.835316-19.392129-70.229505 0l-44.697497 44.699557v26.8527l79.81431 79.81431 46.619815-46.619815c25.744225-25.746286 25.744225-67.491284-0.002061-93.239629z" fill="#8288CB" p-id="22703"></path><path d="M873.746028 558.520918l-46.619815-46.619815c-25.748346-25.748346-67.493344-25.748346-93.24169 0l-46.617754 46.617754 60.047195 60.047195 59.744322-60.045134c18.378431-18.467026 48.261924-18.423759 66.687742 0z" fill="#676FB2" p-id="22704"></path><path d="M307.461666 192.635622l-15.852427 15.852426a15.452716 15.452716 0 0 0 21.854262 21.854262l15.852427-15.852427a15.452716 15.452716 0 0 0-21.854262-21.854261zM467.893827 331.213521a15.456837 15.456837 0 0 0-21.854262 0l-15.852426 15.852427a15.452716 15.452716 0 0 0 21.854261 21.854261l15.852427-15.852426a15.456837 15.456837 0 0 0 0-21.854262zM392.98936 294.56792c-15.364121 1.073449-28.082736-11.671952-27.027831-27.023711a15.452716 15.452716 0 0 0-14.356603-16.476716 15.448596 15.448596 0 0 0-16.476717 14.356604c-2.336451 33.987734 25.841062 62.321835 59.973022 59.977142a15.452716 15.452716 0 0 0 14.360725-16.472595c-0.585143-8.515477-8.004507-14.927324-16.472596-14.360724z" fill="#313D40" p-id="22705"></path><path d="M585.987606 669.162366a15.452716 15.452716 0 0 0-21.854262-21.854261l-15.805038 15.805038a15.452716 15.452716 0 0 0 21.854261 21.854261zM736.503243 797.825803a15.456837 15.456837 0 0 0-21.854261 0l-15.802978 15.802978a15.452716 15.452716 0 0 0 21.854262 21.854261l15.802977-15.802978a15.452716 15.452716 0 0 0 0-21.854261zM652.481674 786.110584a11.480338 11.480338 0 0 1-16.223292 0 11.482398 11.482398 0 0 1 0-16.221232 15.452716 15.452716 0 0 0-21.854261-21.854261 11.476217 11.476217 0 0 1-16.221232 0 11.480338 11.480338 0 0 1 0-16.223292 15.452716 15.452716 0 0 0-21.854261-21.854262c-25.311549 25.311549-9.570382 68.72338 25.882269 72.127099 3.393416 35.399082 46.786704 51.222664 72.127099 25.882269a15.452716 15.452716 0 0 0 0-21.854261 15.456837 15.456837 0 0 0-21.856322-0.00206z" fill="#313D40" p-id="22706"></path></svg>