<svg class="icon" viewBox="0 0 1024 1024" xmlns="http://www.w3.org/2000/svg" width="200" height="200"><path d="M996.46 880.79a164.092 164.092 0 0 0-44.778-18.972 164.256 164.256 0 0 0-18.972-44.78c-10.232-16.718-34.19-16.718-44.42 0a164.198 164.198 0 0 0-18.974 44.78 164.146 164.146 0 0 0-44.778 18.972c-16.718 10.232-16.718 34.188 0 44.42a164.146 164.146 0 0 0 44.78 18.974 164.18 164.18 0 0 0 18.972 44.778c10.23 16.718 34.188 16.718 44.42 0a164.242 164.242 0 0 0 18.972-44.778 164.186 164.186 0 0 0 44.778-18.974c16.72-10.232 16.72-34.188 0-44.42z" fill="#FFDBE0"/><path d="M199.46 83.79a164.092 164.092 0 0 0-44.778-18.972 164.256 164.256 0 0 0-18.972-44.78c-10.232-16.718-34.19-16.718-44.42 0a164.198 164.198 0 0 0-18.974 44.78A164.146 164.146 0 0 0 27.538 83.79c-16.718 10.232-16.718 34.188 0 44.42a164.146 164.146 0 0 0 44.78 18.974 164.18 164.18 0 0 0 18.972 44.778c10.23 16.718 34.188 16.718 44.42 0a164.242 164.242 0 0 0 18.972-44.778 164.186 164.186 0 0 0 44.778-18.974c16.72-10.232 16.72-34.188 0-44.42zM322.958 150.438a15 15 0 0 0-15 15v11.98a15 15 0 0 0 30 0v-11.98a15 15 0 0 0-15-15zm31.98-31.98a15 15 0 0 0 0 30h11.98a15 15 0 0 0 0-30zm-63.96 30a15 15 0 0 0 0-30H279c-8.286 0-15 6.716-15 15s6.714 15 15 15zm46.98-58.958a15 15 0 0 0-30 0v11.98a15 15 0 0 0 30 0z" fill="#B0EBD8"/><path d="M965.042 150.438a15 15 0 0 0-15 15v11.98a15 15 0 0 0 30 0v-11.98a15 15 0 0 0-15-15zm31.978-31.98a15 15 0 0 0 0 30H1009a15 15 0 0 0 0-30zm-63.958 30a15 15 0 0 0 0-30h-11.978c-8.286 0-15 6.716-15 15s6.714 15 15 15zm46.98-58.958a15 15 0 0 0-30 0v11.98a15 15 0 0 0 30 0z" fill="#FFDBE0"/><path d="M58.958 430.438a15 15 0 0 0-15 15v11.98a15 15 0 0 0 30 0v-11.98a15 15 0 0 0-15-15zm31.98-31.978a15 15 0 0 0 0 30h11.98a15 15 0 0 0 0-30zm-63.96 30a15 15 0 0 0 0-30H15c-8.286 0-15 6.716-15 15s6.714 15 15 15zm46.98-58.96a15 15 0 0 0-30 0v11.98a15 15 0 0 0 30 0z" fill="#B0EBD8"/><path d="M718.96 974.52a15 15 0 0 0-15 15v11.98a15 15 0 0 0 30 0v-11.98a15 15 0 0 0-15-15zm31.978-31.978a15 15 0 0 0 0 30h11.98a15 15 0 0 0 0-30zm-63.958 30a15 15 0 0 0 0-30H675c-8.286 0-15 6.716-15 15s6.714 15 15 15zm46.98-58.958a15 15 0 0 0-30 0v11.98a15 15 0 0 0 30 0z" fill="#FFDBE0"/><path d="M274.472 424.672a651.86 651.86 0 0 0-48.122-174.538c-6.8-15.722-25.382-22.554-40.762-15.01-14.368 7.046-20.666 24.128-14.322 38.82 99.882 231.33 42.106 505.324-145.418 675.328-12.274 11.128-13.204 30.102-2.076 42.376a29.92 29.92 0 0 0 22.236 9.85 29.886 29.886 0 0 0 20.14-7.774c52.992-48.042 97.398-104.082 131.984-166.558 33.7-60.87 57.376-126.536 70.376-195.168 12.984-68.534 14.99-138.29 5.964-207.326z" fill="#70DCBA"/><path d="M679.318 542.46V326.462l-52.41-59.308c1.436-28.31-2.498-54.158-19.798-76.97-21.312-28.102-65.062-26.4-84.072 4.06l-2.948 4.724-4.732-2.96c-36.62-22.912-92.338 5.052-76.626 72.728 5.144 22.168 19.6 49.13 38.488 71.624-109.77-44.712-148.944 35.594-111.164 76.1l3.808 4.084-4.072 3.796c-31.504 29.374-18.798 90.512 50.612 93.024 28.794 1.042 76.824-2.354 107.408-21.498-19.142 30.584-22.54 78.616-21.498 107.41 2.512 69.41 63.652 82.114 93.024 50.612l3.796-4.072 4.084 3.808c40.504 37.78 120.812-1.392 76.1-111.164z" fill="#FFB5C0"/><path d="M626.906 267.156c15.11-28.646 44.008-61.844 74.428-72.19 33.292-11.324 71.338 17.294 70.13 53.252 35.956-1.208 64.576 36.838 53.252 70.13-10.348 30.418-43.544 59.318-72.19 74.426 104.87-5.32 117.046 76.326 72.91 103.868l-4.724 2.95 2.962 4.732c22.73 36.332-4.676 92.422-72.73 76.626-22.168-5.146-49.132-19.6-71.624-38.49-71.54-60.074-95.994-192.676-52.414-275.304z" fill="#FFDBE0"/><path d="M789.458 780.824c-164.194-65.678-347.73-60.034-508.342 16.6-14.956 7.134-21.292 25.042-14.158 39.994 5.146 10.786 15.894 17.09 27.098 17.09 4.33 0 8.728-.944 12.896-2.932 145.458-69.4 311.678-74.498 460.358-14.988 14.786 5.918 31.612-.936 38.246-15.414 7.136-15.578-.19-33.986-16.098-40.35z" fill="#FFB5C0"/><path d="m352.568 279.9-39.482-16.76a15 15 0 1 0-11.722 27.614l39.482 16.76a14.996 14.996 0 0 0 19.668-7.946 15 15 0 0 0-7.946-19.668zM508.476 87.334a15.002 15.002 0 0 0-27.818 11.238l16.062 39.758a15.002 15.002 0 0 0 27.818-11.238zm436.31 423.946-39.48-16.758a15.004 15.004 0 0 0-11.722 27.618l39.48 16.758a15.002 15.002 0 0 0 11.722-27.618zm-37.784-218.798 39.758-16.062a15.002 15.002 0 0 0-11.238-27.818l-39.758 16.062a15.002 15.002 0 0 0 11.238 27.818zM749.426 663.708a15 15 0 0 0-27.818 11.238l16.064 39.758a15.002 15.002 0 0 0 27.818-11.238zm9.58-582.348a15 15 0 0 0-19.67 7.948l-16.758 39.482a15 15 0 0 0 27.618 11.72l16.758-39.482a15 15 0 0 0-7.948-19.668z" fill="#FFDBE0"/><path d="M600.536 420.234a32.846 36.754 45 1 0 51.978-51.978 32.846 36.754 45 1 0-51.978 51.978zM517.516 281.158a15 15 0 0 0 21.214 21.214 12.546 12.546 0 0 1 17.72-.002 12.52 12.52 0 0 1 0 17.72 15 15 0 0 0 21.214 21.214c16.622-16.622 16.624-43.52 0-60.148-16.584-16.58-43.566-16.58-60.148.002zM739.674 443.17c-16.584-16.58-43.562-16.584-60.146 0a15 15 0 0 0 21.21 21.214 12.544 12.544 0 0 1 17.72 0 12.518 12.518 0 0 1 .002 17.718 14.996 14.996 0 0 0-.002 21.212 15 15 0 0 0 21.212.002c16.628-16.622 16.628-43.522.004-60.146z" fill="#313D40"/></svg>