<svg class="icon" viewBox="0 0 1024 1024" xmlns="http://www.w3.org/2000/svg" width="200" height="200"><path d="M395.802 314.28c48.183-41.03 116.92-45.963 163.15-2.745l186.586 207.448H265.956c-40.721 0-58.894-51.128-27.308-76.83zM0 761.035V304.625c0-30.284 41.66-38.556 53.232-10.57l193.064 466.981z" fill="#FF8E9E"/><path d="M983.683 718.253 751.73 237.92 587.333 545.085l-49.527-53.46h-255.47l-33.945 27.356L25.448 700.387C9.36 716.472 0 738.287 0 761.036c0 47.372 38.727 85.773 86.096 85.773h734.678v-30.393l84.263 30.393c60.333-.995 108.898-65.907 78.646-128.556z" fill="#FFB5C0"/><path d="m905.037 846.809-303.724-327.84-186.587-207.436c-46.23-43.218-114.964-38.284-163.15 2.746L94.422 442.152c-31.585 25.7-13.413 76.829 27.308 76.829h350.328a103.012 103.012 0 0 1 75.57 33.004L820.774 846.81zm-235.81-573.8 78.946-79.603c21.442-21.62 56.205-21.62 77.647 0l178.54 180.022c51.771 52.2-7.868 137.57-74.049 106L684.568 362.195c-34.33-16.38-42.197-62.11-15.342-89.187z" fill="#FFDBE0"/></svg>