<?xml version="1.0" standalone="no"?><!DOCTYPE svg PUBLIC "-//W3C//DTD SVG 1.1//EN" "http://www.w3.org/Graphics/SVG/1.1/DTD/svg11.dtd"><svg t="1624436367465" class="icon" viewBox="0 0 1024 1024" version="1.1" xmlns="http://www.w3.org/2000/svg" p-id="18181" xmlns:xlink="http://www.w3.org/1999/xlink" width="200" height="200"><defs><style type="text/css"></style></defs><path d="M395.801755 314.279404c48.18363-41.030052 116.919372-45.962559 163.149778-2.744402l186.586399 207.447565H265.95567c-40.720998 0-58.893392-51.127887-27.30804-76.828845zM0 761.035976V304.624547c0-30.283203 41.660523-38.555557 53.231517-10.569658l193.064177 466.981087z" fill="#FF8E9E" p-id="18182"></path><path d="M983.682833 718.252555l-231.951453-480.332233-164.398358 307.164974-49.526986-53.460218H282.335549l-33.944467 27.355429-222.943549 181.406648C9.360225 716.472402 0 738.287517 0 761.035976 0 808.407823 38.726567 846.808853 86.096354 846.808853h734.677763v-30.392402L905.036748 846.808853c60.333586-0.995155 108.898382-65.906865 78.646085-128.556298z" fill="#FFB5C0" p-id="18183"></path><path d="M905.036748 846.808853L601.312579 518.968145l-186.586398-207.435203c-46.230406-43.218157-114.964089-38.28359-163.149779 2.746462l-157.154124 127.872258c-31.585352 25.700958-13.412958 76.828845 27.30804 76.828845h350.327501a103.011928 103.011928 0 0 1 75.569964 33.004942L820.774117 846.808853zM669.226237 273.00829l78.946898-79.602093c21.442189-21.61938 56.20462-21.61938 77.646809 0l178.540684 180.022085c51.77072 52.199276-7.868523 137.570382-74.049417 105.999452l-245.743517-117.232547c-34.329755-16.379879-42.196217-62.109618-15.341457-89.186897z" fill="#FFDBE0" p-id="18184"></path></svg>