<?xml version="1.0" standalone="no"?><!DOCTYPE svg PUBLIC "-//W3C//DTD SVG 1.1//EN" "http://www.w3.org/Graphics/SVG/1.1/DTD/svg11.dtd"><svg t="1624436448692" class="icon" viewBox="0 0 1024 1024" version="1.1" xmlns="http://www.w3.org/2000/svg" p-id="21813" xmlns:xlink="http://www.w3.org/1999/xlink" width="200" height="200"><defs><style type="text/css"></style></defs><path d="M771.967211 61.810616H334.446944v900.374647h256.357471l108.69809-181.162796 181.162796-108.69809V170.508706c0-60.032531-48.665559-108.69809-108.69809-108.69809z" fill="#FFB5C0" p-id="21814"></path><path d="M373.410296 744.791144V383.196977l67.940169-69.841876h-67.940169v-34.150365C373.410296 159.141734 470.741414 61.810616 590.806476 61.810616l-350.717559-0.00412c-60.030471 0-108.69809 48.665559-108.69809 108.696029v682.980527c0 60.032531 48.665559 108.696029 108.69809 108.69603l350.717559 0.006181c-120.065062 0-217.396179-97.331117-217.39618-217.394119z" fill="#FF8E9E" p-id="21815"></path><path d="M699.502505 672.326437c-60.032531 0-108.69809 48.665559-108.69809 108.69809V962.185263l289.858826-289.858826z" fill="#FF8E9E" p-id="21816"></path><path d="M384.814355 6.601374c-8.801832-8.801832-23.073903-8.801832-31.875735 0L84.299379 275.242675c-8.801832 8.801832-8.801832 23.073903 0 31.875735l15.938898 15.938898c8.801832 8.801832 23.073903 8.801832 31.875735 0L400.751192 54.413946c8.801832-8.801832 8.801832-23.073903 0-31.875735zM132.111951 700.940632c-8.801832-8.801832-23.073903-8.801832-31.875735 0l-15.938897 15.938898c-8.801832 8.801832-8.801832 23.073903 0 31.875735l268.641301 268.641301c8.801832 8.801832 23.073903 8.801832 31.875735 0l15.938898-15.938898c8.801832-8.801832 8.801832-23.071843 0-31.875735zM939.700621 275.242675L671.06138 6.601374c-8.801832-8.801832-23.073903-8.801832-31.875735 0l-15.938898 15.938897c-8.801832 8.801832-8.801832 23.073903 0 31.875735L891.888049 323.055247c8.801832 8.801832 23.073903 8.801832 31.875735 0l15.938897-15.938897c8.801832-8.801832 8.801832-23.071843-0.00206-31.873675z" fill="#FFDBE0" p-id="21817"></path><path d="M363.469089 512.372924a15.452654 15.452654 0 0 0-28.93561 0l-34.768472 92.715925a15.452654 15.452654 0 0 0 28.93767 10.851884l2.03563-5.426972h36.528014l2.035629 5.426972a15.452654 15.452654 0 0 0 28.937671-10.851884z m-21.143352 67.235528l6.675547-17.801457 6.675546 17.801457zM587.994093 512.374984a15.452654 15.452654 0 0 0-28.93561-0.00206l-34.768472 92.715925a15.452654 15.452654 0 0 0 28.93767 10.851884l2.03563-5.426972h36.528014l2.033569 5.424911a15.448533 15.448533 0 0 0 19.892717 9.044954 15.452654 15.452654 0 0 0 9.044953-19.892717z m-21.143352 67.233468l6.675547-17.801457 6.675546 17.801457zM821.191126 595.114676V533.198981c8.051863-0.531571 14.422477-7.213299 14.422477-15.401145 0-8.536046-6.916608-15.452654-15.452654-15.452654h-28.844954a15.450594 15.450594 0 0 0-15.452654 15.452654c0 8.187846 6.370614 14.867514 14.422477 15.401145v61.915695c-8.051863 0.531571-14.422477 7.213299-14.422477 15.401145 0 8.536046 6.916608 15.452654 15.452654 15.452654h28.844954c8.536046 0 15.452654-6.916608 15.452654-15.452654 0-8.187846-6.368554-14.869574-14.422477-15.401145zM271.08076 502.345182a15.450594 15.450594 0 0 0-15.452654 15.452654v30.905308h-35.030137v-30.905308c0-8.536046-6.916608-15.452654-15.452654-15.452654s-15.452654 6.916608-15.452654 15.452654v92.715925c0 8.536046 6.916608 15.452654 15.452654 15.452654s15.452654-6.916608 15.452654-15.452654v-30.905309h35.030137v30.905309c0 8.536046 6.916608 15.452654 15.452654 15.452654s15.452654-6.916608 15.452654-15.452654v-92.715925a15.452654 15.452654 0 0 0-15.452654-15.452654zM494.625036 502.345182a15.450594 15.450594 0 0 0-15.452654 15.452654v45.513217l-40.078004-54.650887c-8.779168-11.976837-27.913674-5.785474-27.913675 9.13973v92.715925c0 8.536046 6.916608 15.452654 15.452655 15.452654s15.452654-6.916608 15.452654-15.452654v-45.513217l40.078003 54.650886c8.801832 12.003622 27.913674 5.754568 27.913675-9.139729v-92.715925a15.452654 15.452654 0 0 0-15.452654-15.452654zM734.00107 506.900624l-35.401 35.598795-35.401-35.598795c-9.735172-9.77844-26.409616-2.824745-26.409616 10.897212v92.715925c0 8.536046 6.916608 15.452654 15.452654 15.452654s15.452654-6.916608 15.452654-15.452654v-55.262812l19.948346 20.059605a15.462956 15.462956 0 0 0 21.915984 0l19.948347-20.059605v55.262812c0 8.536046 6.916608 15.452654 15.452654 15.452654s15.452654-6.916608 15.452654-15.452654v-92.715925c-0.00206-13.736379-16.695048-20.661229-26.411677-10.897212z" fill="#EA5B70" p-id="21818"></path><path d="M659.704709 242.816826l-3.685973-0.848866 0.850926-3.675671c5.486722-23.69819-14.657358-45.474071-38.330823-42.220772-19.216921 2.641374-33.484871 13.138877-46.360023 27.390344l-15.19717-15.19717h-84.820649v174.157593H512c5.482602 23.823872 26.862894 48.459523 41.157629 61.754987 11.801707 10.975505 23.710552 15.467077 34.226599 15.467077 20.249158 0 35.256776-16.610573 34.5851-35.784227l-0.131863-3.770447 3.78075-0.131863c37.504622-1.306264 57.209846-58.544956-16.798065-89.713989 27.332655-2.379709 56.775112-11.721353 72.128868-34.556255 13.297524-19.777337 2.540416-47.39432-21.244309-52.870741z" fill="#FF8E9E" p-id="21819"></path><path d="M571.109493 153.220277C560.585205 131.846166 528.647659 127.32987 512 145.133388c-16.647659-17.805578-48.585205-13.289283-59.109493 8.086889-9.615672 19.530094-7.557378 49.279544-1.071384 70.239524-12.875151-14.251468-27.141042-24.748971-46.360022-27.390345-23.673466-3.253299-43.817546 18.522581-38.330824 42.220772l0.850926 3.675672-3.685973 0.848865c-23.784725 5.476421-34.541833 33.093404-21.244309 52.870741 15.347576 22.828721 44.781792 32.172426 72.128869 34.556256-74.007911 31.169034-54.302687 88.407725-16.798065 89.713989l3.780749 0.131862-0.131862 3.770448c-0.673736 19.223102 14.465745 35.856339 34.733445 35.784226 10.48102-0.037086 22.334236-4.54102 34.080314-15.467076 14.294735-13.295464 35.675027-37.931115 41.157629-61.754987v-98.781607c0-23.358232 13.316067-43.590907 32.761687-53.56508a59.888306 59.888306 0 0 1 27.41919-6.613736c6.483934-20.96204 8.544288-50.70943-1.071384-70.239524z" fill="#EA5B70" p-id="21820"></path><path d="M561.716339 242.588126a70.253947 70.253947 0 0 0-16.954652-12.512529H491.952757v112.470598l20.047243 20.047243c17.997191 0 35.992322-6.846556 49.716339-20.570573a70.352844 70.352844 0 0 0 11.066161-14.360666c15.679293-26.916463 11.997441-62.010471-11.066161-85.074073z" fill="#FFDBE0" p-id="21821"></path><path d="M544.761687 230.075597c-27.019481-14.234985-61.641667-9.759896-84.107766 14.226744-26.590927 28.41228-25.179585 73.453676 4.079501 100.050784v0.002061h0.00206c13.386119 12.174631 30.326349 18.238253 47.262458 18.238252v-78.95276c0.00206-23.356172 13.318127-43.590907 32.763747-53.565081z" fill="#FFB5C0" p-id="21822"></path></svg>