<svg class="icon" viewBox="0 0 1024 1024" xmlns="http://www.w3.org/2000/svg" width="200" height="200"><path d="M771.967 61.81h-437.52v900.375h256.357l108.699-181.163 181.162-108.698V170.51c0-60.033-48.665-108.698-108.698-108.698z" fill="#FFB5C0"/><path d="M373.41 744.791V383.197l67.94-69.842h-67.94v-34.15c0-120.063 97.331-217.394 217.396-217.394l-350.717-.005c-60.03 0-108.698 48.666-108.698 108.697v682.98c0 60.033 48.665 108.696 108.698 108.696l350.717.006c-120.065 0-217.396-97.33-217.396-217.394z" fill="#FF8E9E"/><path d="M699.503 672.326c-60.033 0-108.699 48.666-108.699 108.699v181.16l289.86-289.859z" fill="#FF8E9E"/><path d="M384.814 6.601c-8.801-8.801-23.074-8.801-31.875 0L84.299 275.243c-8.801 8.802-8.801 23.074 0 31.875l15.94 15.94c8.801 8.801 23.073 8.801 31.875 0L400.751 54.413c8.802-8.802 8.802-23.074 0-31.876zm-252.702 694.34c-8.802-8.802-23.074-8.802-31.876 0L84.297 716.88c-8.802 8.801-8.802 23.073 0 31.875l268.642 268.642c8.801 8.801 23.074 8.801 31.875 0l15.94-15.94c8.801-8.801 8.801-23.071 0-31.875zm807.589-425.698L671.06 6.6c-8.801-8.801-23.074-8.801-31.875 0l-15.94 15.94c-8.801 8.801-8.801 23.073 0 31.875l268.642 268.64c8.802 8.801 23.074 8.801 31.876 0l15.939-15.94c8.802-8.801 8.802-23.071-.002-31.873z" fill="#FFDBE0"/><path d="M363.47 512.373a15.453 15.453 0 0 0-28.937 0l-34.768 92.716a15.453 15.453 0 0 0 28.938 10.852l2.035-5.427h36.528l2.036 5.427a15.453 15.453 0 0 0 28.938-10.852zm-21.144 67.235L349 561.807l6.676 17.801zm245.668-67.233a15.453 15.453 0 0 0-28.936-.002l-34.768 92.716a15.453 15.453 0 0 0 28.938 10.852l2.035-5.427h36.528l2.034 5.425a15.449 15.449 0 0 0 19.893 9.045 15.453 15.453 0 0 0 9.045-19.893zm-21.143 67.233 6.675-17.801 6.676 17.801zm254.34 15.507v-61.916c8.052-.532 14.423-7.213 14.423-15.401 0-8.536-6.917-15.453-15.453-15.453h-28.845a15.45 15.45 0 0 0-15.453 15.453c0 8.188 6.371 14.867 14.423 15.401v61.916c-8.052.531-14.423 7.213-14.423 15.4 0 8.537 6.917 15.453 15.453 15.453h28.845c8.536 0 15.453-6.916 15.453-15.452 0-8.188-6.369-14.87-14.423-15.401zm-550.11-92.77a15.45 15.45 0 0 0-15.453 15.453v30.905h-35.03v-30.905c0-8.536-6.917-15.453-15.453-15.453s-15.452 6.917-15.452 15.453v92.716c0 8.536 6.916 15.452 15.452 15.452s15.453-6.916 15.453-15.452v-30.906h35.03v30.906c0 8.536 6.917 15.452 15.453 15.452s15.452-6.916 15.452-15.452v-92.716a15.453 15.453 0 0 0-15.452-15.453zm223.544 0a15.45 15.45 0 0 0-15.453 15.453v45.513l-40.078-54.65c-8.779-11.978-27.913-5.786-27.913 9.139v92.716c0 8.536 6.916 15.452 15.452 15.452s15.453-6.916 15.453-15.452v-45.513l40.078 54.65c8.802 12.004 27.914 5.755 27.914-9.14v-92.715a15.453 15.453 0 0 0-15.453-15.453zm239.376 4.556-35.4 35.598-35.402-35.598c-9.735-9.779-26.41-2.825-26.41 10.897v92.716c0 8.536 6.917 15.452 15.453 15.452s15.453-6.916 15.453-15.452V555.25l19.948 20.06a15.463 15.463 0 0 0 21.916 0l19.948-20.06v55.263c0 8.536 6.917 15.452 15.453 15.452s15.453-6.916 15.453-15.452v-92.716C760.41 504.06 743.718 497.137 734 506.9z" fill="#EA5B70"/><path d="m659.705 242.817-3.686-.849.85-3.676c5.487-23.698-14.657-45.474-38.33-42.22-19.217 2.64-33.485 13.138-46.36 27.39l-15.197-15.197H472.16v174.157H512c5.483 23.824 26.863 48.46 41.158 61.755 11.801 10.976 23.71 15.467 34.226 15.467 20.25 0 35.257-16.61 34.585-35.784l-.132-3.77 3.781-.132c37.505-1.306 57.21-58.545-16.798-89.714 27.333-2.38 56.775-11.722 72.129-34.556 13.298-19.778 2.54-47.395-21.244-52.871z" fill="#FF8E9E"/><path d="M571.11 153.22c-10.525-21.374-42.462-25.89-59.11-8.087-16.648-17.805-48.585-13.289-59.11 8.087-9.615 19.53-7.557 49.28-1.07 70.24-12.876-14.252-27.142-24.75-46.36-27.39-23.674-3.254-43.818 18.522-38.332 42.22l.851 3.676-3.686.849c-23.784 5.476-34.542 33.093-21.244 52.87 15.347 22.83 44.782 32.173 72.129 34.557-74.008 31.169-54.303 88.407-16.798 89.714l3.78.132-.131 3.77c-.674 19.223 14.465 35.856 34.733 35.784 10.481-.037 22.334-4.54 34.08-15.467 14.295-13.295 35.675-37.93 41.158-61.755V283.64c0-23.359 13.316-43.591 32.762-53.565a59.888 59.888 0 0 1 27.419-6.614c6.484-20.962 8.544-50.71-1.072-70.24z" fill="#EA5B70"/><path d="M561.716 242.588a70.254 70.254 0 0 0-16.954-12.512h-52.81v112.47L512 362.593c17.997 0 35.992-6.846 49.716-20.57a70.353 70.353 0 0 0 11.066-14.36c15.68-26.917 11.998-62.011-11.066-85.075z" fill="#FFDBE0"/><path d="M544.762 230.076c-27.02-14.235-61.642-9.76-84.108 14.226-26.591 28.413-25.18 73.454 4.08 100.051v.002h.001c13.387 12.175 30.327 18.238 47.263 18.238v-78.952c.002-23.356 13.318-43.591 32.764-53.565z" fill="#FFB5C0"/></svg>