<?xml version="1.0" standalone="no"?><!DOCTYPE svg PUBLIC "-//W3C//DTD SVG 1.1//EN" "http://www.w3.org/Graphics/SVG/1.1/DTD/svg11.dtd"><svg t="1624436421659" class="icon" viewBox="0 0 1024 1024" version="1.1" xmlns="http://www.w3.org/2000/svg" p-id="20503" xmlns:xlink="http://www.w3.org/1999/xlink" width="200" height="200"><defs><style type="text/css"></style></defs><path d="M907.927437 109.500008c-96.59802 19.402431-193.354688-4.977835-290.152564-34.669714l-88.717135 38.642092v711.447179l90.202656 70.573586c95.887195 29.201513 191.733183 53.027541 287.420524 34.181408C974.147477 916.387284 1024 876.791243 1024 806.726567V205.403686c0-62.375404-57.498527-107.666286-116.072563-95.903678z" fill="#EFEDFF" p-id="20504"></path><path d="M552.636523 496.864579c-2.171622-203.654439 25.946141-302.541521 65.13835-422.034285C455.548137 25.068427 285.510567-39.622825 123.62173 61.810865 57.014342 403.462181 73.089288 313.809642 48.904757 472.783066 85.119742 696.740314 68.078487 603.263742 123.62173 882.642672c162.381264-101.742744 332.917441-36.705352 495.638664 12.850479-49.473416-149.017755-64.901408-236.993159-66.623871-398.628572z" fill="#D4D4FF" p-id="20505"></path><path d="M61.810865 0C27.674785 0 0 27.672724 0 61.810865v900.37827c0 34.138141 27.674785 61.810865 61.810865 61.810865s61.810865-27.672724 61.810865-61.810865V61.810865C123.62173 27.672724 95.949006 0 61.810865 0z" fill="#D6948C" p-id="20506"></path><path d="M861.206664 355.575243l-7.17006-1.65035 1.656531-7.153577c10.672676-46.110905-28.521594-88.480193-74.58305-82.150761-37.391453 5.138543-64.981763 27.25241-90.031646 54.980765H456.514447l0.203976 307.607952h117.094503c10.666495 46.354028 52.269328 94.290414 80.082156 120.158261 67.042125 62.358922 135.876765 17.212266 133.890576-39.534229l-0.257545-7.33489 7.355493-0.255484c72.971847-2.542487 111.317247-113.913304-32.685586-174.558004 38.574101-3.360451 77.183227-15.01798 102.643123-30.88689 15.495984-9.656918 28.146608-22.134471 37.702567-36.348909 25.869907-38.483445 4.940748-92.21563-41.337046-102.873884z" fill="#FFB5C0" p-id="20507"></path><path d="M688.820282 181.24594c-20.47794-41.590471-82.618463-50.377915-115.009417-15.732926-32.390954-34.64293-94.531477-25.857545-115.009416 15.732926-18.710149 37.99926-14.90672 97.570511-2.289063 138.35744-25.049883-27.728354-52.607227-49.842221-89.99868-54.980764-46.061457-6.329433-85.255726 36.039855-74.58305 82.15076l1.656531 7.153578-7.17006 1.65035c-46.277795 10.656193-67.206954 64.390439-41.334986 102.871823 9.55596 14.214439 22.206584 26.691992 37.702567 36.348909 25.459895 15.868909 64.066962 27.526439 102.643123 30.88689-144.000773 60.6447-105.657433 172.017577-32.685586 174.558004l7.355493 0.255484-0.257545 7.33489c-1.986189 56.744435 66.84639 101.893151 133.890576 39.534229 27.812829-25.867847 69.415662-73.804233 80.082157-120.158261a286.178125 286.178125 0 0 1-6.88161-38.710085l91.257561-244.323927c10.130801-9.399372 21.207308-16.503501 32.889562-24.57394 12.615598-40.784869 16.451992-100.356121-2.258157-138.35538z" fill="#FF8E9E" p-id="20508"></path><path d="M691.076378 319.60338h-166.073432v271.992531l48.80998 35.615421c97.290302 0 176.160966-78.870664 176.160965-176.160966-0.00206-52.259026-22.758761-99.187895-58.897513-131.446986z" fill="#FFDBE0" p-id="20509"></path><path d="M545.927984 440.425078a192.596475 192.596475 0 0 1 145.148394-120.821698c-31.146495-27.802527-72.236298-44.71398-117.265513-44.71398-45.049819 0-86.149924 16.89497-117.298479 44.71398C420.390117 351.862471 397.649899 398.807823 397.649899 451.050366c0 97.312966 78.897449 176.160966 176.160966 176.160966a192.600596 192.600596 0 0 1-27.882881-186.786254z" fill="#FFB5C0" p-id="20510"></path><path d="M463.352789 429.585513a15.452716 15.452716 0 0 0-15.452717 15.452716v24.724346a15.452716 15.452716 0 0 0 30.905433 0v-24.724346a15.452716 15.452716 0 0 0-15.452716-15.452716zM679.48066 429.585513a15.452716 15.452716 0 0 0-15.452716 15.452716v24.724346a15.452716 15.452716 0 0 0 30.905432 0v-24.724346a15.452716 15.452716 0 0 0-15.452716-15.452716zM615.491992 457.375678a15.452716 15.452716 0 0 0-21.802753 1.497883c-5.622728 6.453054-13.740555 10.153465-22.272515 10.153465s-16.649787-3.70041-22.272515-10.153465a15.452716 15.452716 0 0 0-23.300636 20.30487c11.494761 13.188378 28.1054 20.754028 45.573151 20.754028s34.07839-7.56359 45.573151-20.754028a15.454777 15.454777 0 0 0-1.497883-21.802753z" fill="#313D40" p-id="20511"></path></svg>