<svg class="icon" viewBox="0 0 1024 1024" xmlns="http://www.w3.org/2000/svg" width="200" height="200"><path d="M907.927 109.5c-96.598 19.402-193.354-4.978-290.152-34.67l-88.717 38.642V824.92l90.202 70.573c95.888 29.202 191.734 53.028 287.42 34.182C974.148 916.387 1024 876.79 1024 806.727V205.404c0-62.376-57.499-107.667-116.073-95.904z" fill="#EFEDFF"/><path d="M552.637 496.865c-2.172-203.655 25.946-302.542 65.138-422.035C455.548 25.068 285.51-39.623 123.622 61.81c-66.608 341.652-50.533 252-74.717 410.973 36.215 223.957 19.173 130.48 74.717 409.86 162.381-101.743 332.917-36.706 495.638 12.85-49.473-149.018-64.901-236.993-66.623-398.628z" fill="#D4D4FF"/><path d="M61.81 0C27.676 0 0 27.673 0 61.81v900.38C0 996.326 27.675 1024 61.81 1024s61.812-27.673 61.812-61.81V61.81C123.622 27.674 95.949 0 61.81 0z" fill="#D6948C"/><path d="m861.207 355.575-7.17-1.65 1.656-7.154c10.673-46.11-28.521-88.48-74.583-82.15-37.391 5.138-64.982 27.252-90.032 54.98H456.514l.204 307.608h117.095c10.666 46.354 52.27 94.29 80.082 120.159 67.042 62.358 135.877 17.212 133.89-39.535l-.257-7.335 7.356-.255C867.855 697.7 906.2 586.33 762.198 525.685c38.574-3.36 77.183-15.018 102.643-30.887 15.496-9.657 28.147-22.134 37.703-36.349 25.87-38.483 4.94-92.216-41.337-102.874z" fill="#FFB5C0"/><path d="M688.82 181.246c-20.478-41.59-82.618-50.378-115.01-15.733-32.39-34.643-94.53-25.858-115.009 15.733-18.71 38-14.906 97.57-2.289 138.357-25.05-27.728-52.607-49.842-89.998-54.98-46.062-6.33-85.256 36.04-74.583 82.15l1.656 7.154-7.17 1.65c-46.278 10.656-67.207 64.39-41.335 102.872 9.556 14.215 22.207 26.692 37.703 36.349 25.46 15.869 64.067 27.526 102.643 30.887-144 60.645-105.658 172.018-32.686 174.558l7.356.255-.258 7.335c-1.986 56.745 66.847 101.893 133.89 39.535 27.814-25.868 69.416-73.805 80.083-120.159a286.178 286.178 0 0 1-6.882-38.71l91.258-244.324c10.13-9.4 21.207-16.503 32.89-24.574 12.615-40.785 16.451-100.356-2.259-138.355z" fill="#FF8E9E"/><path d="M691.076 319.603H525.003v271.993l48.81 35.615c97.29 0 176.16-78.87 176.16-176.16-.001-52.26-22.758-99.189-58.897-131.448z" fill="#FFDBE0"/><path d="M545.928 440.425a192.596 192.596 0 0 1 145.148-120.822c-31.146-27.802-72.236-44.714-117.265-44.714-45.05 0-86.15 16.895-117.299 44.714-36.122 32.26-58.862 79.205-58.862 131.447 0 97.313 78.897 176.161 176.16 176.161a192.6 192.6 0 0 1-27.882-186.786z" fill="#FFB5C0"/><path d="M463.353 429.586a15.453 15.453 0 0 0-15.453 15.452v24.725a15.453 15.453 0 0 0 30.906 0v-24.725a15.453 15.453 0 0 0-15.453-15.452zm216.128 0a15.453 15.453 0 0 0-15.453 15.452v24.725a15.453 15.453 0 0 0 30.905 0v-24.725a15.453 15.453 0 0 0-15.452-15.452zm-63.989 27.79a15.453 15.453 0 0 0-21.803 1.498c-5.622 6.453-13.74 10.153-22.272 10.153s-16.65-3.7-22.273-10.153a15.453 15.453 0 0 0-23.3 20.304 60.45 60.45 0 0 0 45.573 20.754 60.442 60.442 0 0 0 45.573-20.754 15.455 15.455 0 0 0-1.498-21.802z" fill="#313D40"/></svg>