<?xml version="1.0" standalone="no"?><!DOCTYPE svg PUBLIC "-//W3C//DTD SVG 1.1//EN" "http://www.w3.org/Graphics/SVG/1.1/DTD/svg11.dtd"><svg t="1624436380708" class="icon" viewBox="0 0 1024 1024" version="1.1" xmlns="http://www.w3.org/2000/svg" p-id="18756" xmlns:xlink="http://www.w3.org/1999/xlink" width="200" height="200"><defs><style type="text/css"></style></defs><path d="M512 247.243461L123.62173 370.865191v653.134809h776.75654c68.274221 0 123.62173-55.347509 123.62173-123.62173V370.865191z" fill="#EFEDFF" p-id="18757"></path><path d="M247.243461 900.37827V370.865191H0v529.513079c0 68.274221 55.347509 123.62173 123.62173 123.62173h247.243461c-68.274221 0-123.62173-55.347509-123.62173-123.62173z" fill="#D4D4FF" p-id="18758"></path><path d="M900.37827 123.62173H123.62173v247.243461h900.37827v-123.62173c0-68.274221-55.347509-123.62173-123.62173-123.621731z" fill="#FF8E9E" p-id="18759"></path><path d="M123.62173 123.62173C55.347509 123.62173 0 178.969239 0 247.243461v123.62173h247.243461c0-62.696821 23.350085-119.931622 61.810865-163.514463V123.62173H123.62173z" fill="#EA5B70" p-id="18760"></path><path d="M269.907445 0c-34.13608 0-61.810865 27.674785-61.810866 61.810865v185.432596c0 15.184869 5.478503 29.077891 14.56264 39.837102C233.997392 300.512064 250.954173 309.054326 269.907445 309.054326c34.13608 0 61.810865-27.674785 61.810865-61.810865V61.810865c0-34.13608-27.674785-61.810865-61.810865-61.810865zM756.152918 309.054326c-34.13608 0-61.810865-27.674785-61.810866-61.810865V61.810865c0-34.13608 27.674785-61.810865 61.810866-61.810865s61.810865 27.674785 61.810865 61.810865v185.432596c0 34.13608-27.674785 61.810865-61.810865 61.810865z" fill="#D4D4FF" p-id="18761"></path><path d="M752.454567 609.428346l-5.999774-1.380443 1.384563-5.985352c8.92961-38.580282-23.863115-74.028813-62.400129-68.733682-31.284539 4.297915-54.511002 21.38862-75.469006 44.588298h-195.940442v258.777368h97.970221c8.925489 38.782197 43.733247 78.891268 67.002978 100.533312 56.09336 52.174551 113.684604 14.399871 112.021891-33.077054l-0.214277-6.137819 6.154301-0.214278c61.054712-2.126294 93.134551-95.308233-27.347187-146.048772 44.512064-3.877602 92.436089-19.089256 117.422101-56.254069 21.646165-32.193159 4.135147-77.152322-34.58524-86.067509z" fill="#FFB5C0" p-id="18762"></path><path d="M608.225095 463.571187c-17.133972-34.797457-69.125151-42.148829-96.225095-13.163654-27.099944-28.985175-79.093183-21.633803-96.225095 13.163654-15.654632 31.793449-12.302423 80.222262-1.745126 114.34804-20.960064-23.199678-44.184467-40.290382-75.469006-44.588297-38.539074-5.295131-71.331799 30.1534-62.400129 68.733682l1.384563 5.985352-5.999774 1.380442c-38.720386 8.915187-56.231404 53.87229-34.58524 86.07163 24.979831 37.154511 72.887372 52.374406 117.422101 56.254069-120.481738 50.740539-88.399839 143.920419-27.347187 146.048772l6.154301 0.214278-0.214277 6.137819c-1.662712 47.476926 55.928531 85.249545 112.021891 33.077054 23.26973-21.642044 58.077489-61.751115 67.002978-100.533312-2.67641-10.705642-4.953111-31.923252-4.953111-48.371122l65.678165-175.83955c8.47633-7.864402 27.470809-27.81695 37.245167-34.568756 10.557296-34.127839 13.909505-82.556652-1.745126-114.350101z" fill="#FF8E9E" p-id="18763"></path><path d="M572.725054 612.487984h-65.678165v175.839549c1.640048 0.080354 3.292459 0.123622 4.953111 0.123622 54.377078 0 98.458527-44.081449 98.458527-98.458527 0-31.463791-14.760435-59.480596-37.733473-77.504644z" fill="#FFDBE0" p-id="18764"></path><path d="M512 591.534101c-54.377078 0-98.458527 44.081449-98.458527 98.458527 0 52.716427 41.429763 95.753272 93.505416 98.334905 0-65.665803 16.474656-130.181924 65.678165-175.839549a98.023791 98.023791 0 0 0-60.725054-20.953883z" fill="#FFB5C0" p-id="18765"></path></svg>