<svg class="icon" viewBox="0 0 1024 1024" xmlns="http://www.w3.org/2000/svg" width="200" height="200"><path d="M512 247.243 123.622 370.865V1024h776.756C968.652 1024 1024 968.652 1024 900.378V370.865z" fill="#EFEDFF"/><path d="M247.243 900.378V370.865H0v529.513C0 968.652 55.348 1024 123.622 1024h247.243c-68.274 0-123.622-55.348-123.622-123.622z" fill="#D4D4FF"/><path d="M900.378 123.622H123.622v247.243H1024V247.243c0-68.274-55.348-123.621-123.622-123.621z" fill="#FF8E9E"/><path d="M123.622 123.622C55.348 123.622 0 178.969 0 247.243v123.622h247.243c0-62.697 23.35-119.931 61.811-163.514v-83.73H123.622z" fill="#EA5B70"/><path d="M269.907 0c-34.136 0-61.81 27.675-61.81 61.81v185.433c0 15.185 5.478 29.078 14.562 39.838 11.338 13.431 28.295 21.973 47.248 21.973 34.137 0 61.811-27.674 61.811-61.81V61.81C331.718 27.675 304.044 0 269.908 0zm486.246 309.054c-34.136 0-61.81-27.674-61.81-61.81V61.81C694.342 27.675 722.016 0 756.152 0s61.81 27.675 61.81 61.81v185.433c0 34.137-27.674 61.811-61.81 61.811z" fill="#D4D4FF"/><path d="m752.455 609.428-6-1.38 1.384-5.985c8.93-38.58-23.863-74.03-62.4-68.734-31.284 4.298-54.51 21.388-75.469 44.588H414.03v258.778H512c8.925 38.782 43.733 78.89 67.003 100.533 56.093 52.174 113.685 14.4 112.022-33.077l-.214-6.138 6.154-.214c61.055-2.127 93.134-95.309-27.347-146.05 44.512-3.877 92.436-19.088 117.422-56.253 21.646-32.193 4.135-77.152-34.585-86.068z" fill="#FFB5C0"/><path d="M608.225 463.571C591.091 428.774 539.1 421.422 512 450.408c-27.1-28.986-79.093-21.634-96.225 13.163-15.655 31.794-12.303 80.222-1.745 114.348-20.96-23.2-44.185-40.29-75.47-44.588-38.538-5.295-71.331 30.153-62.4 68.734l1.385 5.985-6 1.38c-38.72 8.916-56.231 53.873-34.585 86.072 24.98 37.155 72.888 52.374 117.422 56.254-120.481 50.74-88.4 143.92-27.347 146.049l6.154.214-.214 6.138c-1.663 47.477 55.929 85.25 112.022 33.077 23.27-21.642 58.078-61.751 67.003-100.533-2.676-10.706-4.953-31.924-4.953-48.371l65.678-175.84c8.476-7.864 27.47-27.817 37.245-34.569 10.558-34.128 13.91-82.556-1.745-114.35z" fill="#FF8E9E"/><path d="M572.725 612.488h-65.678v175.84c1.64.08 3.292.123 4.953.123 54.377 0 98.459-44.081 98.459-98.458 0-31.464-14.76-59.481-37.734-77.505z" fill="#FFDBE0"/><path d="M512 591.534c-54.377 0-98.459 44.082-98.459 98.459 0 52.716 41.43 95.753 93.506 98.335 0-65.666 16.475-130.182 65.678-175.84A98.024 98.024 0 0 0 512 591.534z" fill="#FFB5C0"/></svg>