<svg style="position: absolute; width: 0; height: 0;" width="0" height="0" version="1.1" xmlns="http://www.w3.org/2000/svg" xmlns:xlink="http://www.w3.org/1999/xlink"><defs><symbol id="uni306E" viewBox="0 -212 1024 1024"><path d="M812 -108.14 q-16 0 -61 -35 q-25 -19 -51 -33 q-24 -13 -51 -21 q-55 -12 -84 -3 q-29 9 -43 38 q-15 25 -70 34 q-29 4 -62 17 q-30 12 -67 35 q-69 43 -124 112 q-57 66 -95 147 q-36 77 -55 126 q-19 49 -25 92 q-6 43 2 83 q7 41 21 70 q15 31 65 90 q50 59 99 88 q49 23 124 41 q77 20 122 8 q42 -14 93 -58 q52 -49 95 -129 q43 -75 66 -169 q23 -93 34 -265 q12 -178 18 -189 q6 -4 20 -1 q11 3 29 14 q14 12 26 31 q14 19 23 42 q20 59 32 175 q11 118 0 210 q-13 82 -24 141 q-12 57 -29 97 q-8 17 -14 29 q-8 9 -14 14 q-16 5 -16 16 q5 13 50 39 q46 24 70 26 q54 -2 111 -57 q57 -55 104 -149 q46 -95 35 -215 q-12 -120 -72 -240 q-43 -76 -138 -161 q-93 -84 -144 -90 ZM446 656.86 q-40 31 -80 44 q-40 16 -66 -4 q-20 -19 -32 -88 q-14 -66 -8 -159 q8 -141 56 -241 q47 -97 139 -152 l47 -29 l2 140 q3 129 -3 262 q-6 134 -16 168 q-4 11 -13 27 q-9 15 -26 32 Z"></path></symbol><symbol id="uni304F" viewBox="0 -212 1024 1024"><path d="M585 717.91 q118 56 79 80 q-39 25 -219 -54 q-146 -58 -278 -171 q-131 -111 -151 -185 l0 -70 q42 -104 140 -231 q98 -128 213 -245 q15 -10 55 -38 q39 -27 139 38 q47 33 45 48 q-1 14 -23 45 l-261 311 q-20 37 -45 72 q-25 36 -27 70 q12 110 132 194 q120 84 201 136 Z"></path></symbol><symbol id="uniE001" viewBox="0 -212 1024 1024"><path d="M799 -80.03 q0 -64 -19 -90 q-20 -25 -55 -32 q-35 -6 -55 10 q-20 16 -20 67 q0 26 -1 45 q-1 17 -4 27 q-2 22 -11 29 q-11 9 -34 9 q-26 1 -25 10 q1 10 31 18 q27 4 36 15 q10 12 17 47 q9 32 21 48 q11 15 50 31 q39 17 58 6 q21 -12 21 -58 q0 -44 8 -52 q13 -7 62 -13 q50 -7 78 -4 q12 1 20 9 q6 8 11 22 q4 15 16 24 q11 11 33 18 q42 14 63 5 q20 -12 20 -57 q0 -6 2 -11 q3 -5 10 -8 q11 -2 64 -2 q26 0 39 -5 q13 -2 11 -9 q-2 -13 -30 -25 q-27 -10 -55 -12 q-22 0 -25 -12 q-2 -10 -4 -65 l0 -75 l-46 -14 q-44 -16 -62 -5 q-18 13 -26 63 l0 17 q-6 66 -20 80 q-15 14 -71 13 l-108 0 l0 -64 ZM387 -155.03 q-29 12 -50 75 q-22 61 -33 70 q-12 11 -54 -22 q-42 -31 -90 -51 q-48 -22 -57 -13 q-1 1 2 3 q1 4 6 6 q8 10 24 24 q16 13 36 26 q125 92 90 92 q-10 0 -11 5 q-1 6 1 16 q5 11 -2 27 q-8 16 -26 38 q-43 46 -95 80 q-50 36 -80 37 q-14 0 -21 3 q-6 4 -7 10 q0 23 32 42 q33 18 60 16 q22 -2 102 -42 q80 -38 84 -30 q10 17 14 49 q5 30 0 50 q-16 28 -88 85 q-74 54 -125 75 q-46 12 -45 21 q0 6 37 17 q40 12 89 1 q49 -12 77 -34 q13 -13 24 -19 q11 -7 18 -8 q10 -2 15 -2 q6 -1 10 -1 q5 11 5 95 q-1 85 -8 115 q-6 18 -38 14 l-14 0 q-18 0 -19 8 q-1 10 14 29 q32 40 82 48 q49 11 85 -11 q33 -19 48 -44 q14 -26 20 -62 q4 -18 5 -48 q1 -28 1 -69 q0 -81 -20 -186 q-21 -103 -55 -188 q-9 -25 -4 -44 q4 -20 32 -68 q15 -25 25 -46 q8 -20 12 -36 q8 -35 0 -82 q-7 -48 -41 -69 q-28 -17 -34 -17 q-9 0 -33 15 ZM1074 698.97 q2 16 38 21 q38 8 68 -2 q26 -15 49 -96 q21 -83 22 -179 q0 -91 -14 -138 q-16 -47 -50 -64 q-72 -39 -178 -53 q-105 -15 -210 0 l-189 32 q-10 1 -22 9 l-16 7 q-3 9 -12 21 q-5 12 -8 21 q-3 9 -4 35 l0 112 q-2 92 4 125 q5 37 28 88 q22 49 52 65 q43 11 164 15 q119 2 145 -3 q12 -8 44 -14 q30 -7 58 -7 q14 0 21 2 q9 1 10 3 ZM962 344.97 q4 -34 4 -53 q0 -23 -3 -31 q-1 -11 -8 -19 q-8 -8 -19 -12 q-2 -4 60 -9 q61 -6 72 11 q8 19 1 103 l-10 90 l-103 0 l6 -80 ZM753 264.97 q0 -12 24 -19 q22 -7 72 -12 l33 0 l-14 129 q-1 42 -12 55 q-12 14 -60 13 l-78 0 l7 -72 q4 -34 8 -54 q4 -20 10 -21 q10 -2 10 -19 ZM838 659.97 q-2 2 -9 4 q-9 2 -21 6 q-28 8 -39 0 q-10 -8 -23 -50 q-6 -22 -11 -46 q-5 -24 -8 -51 l-9 -49 l139 0 l-19 186 ZM1052 537.97 q1 55 -15 81 q-17 24 -55 31 q-36 6 -42 3 q-8 -4 1 -29 q4 -10 5 -33 q1 -22 1 -54 l0 -63 l105 0 l0 64 Z"></path></symbol><symbol id="uni767D" viewBox="0 -212 1024 1024"><path d="M301 -204 q48 10 100 19 q53 10 106 23 q7 1 13 12 q4 12 2 22 q-18 90 -109 129 q-90 36 -172 -14 q-4 -4 -5 -7 q-2 -2 1 2 q17 -46 32 -91 q14 -45 32 -95 ZM16 88 q48 -3 101 -8 q52 -6 106 -6 q137 2 277 5 q139 2 277 6 q22 0 46 3 q22 4 44 7 q25 2 31 18 q5 15 2 36 q-8 93 -16 183 q-7 93 -17 184 q-4 43 -12 83 q-7 43 -13 85 q-8 60 -41 88 q-34 29 -93 31 q-103 1 -204 1 q-101 -1 -200 -1 l-288 0 l0 -715 ZM197 390 q72 7 138 14 q67 5 132 9 q47 2 94 3 q47 2 94 3 q24 0 39 -11 q14 -11 15 -38 q2 -109 10 -215 q0 -23 -10 -31 q-10 -10 -33 -10 q-35 0 -71 2 q-34 0 -71 -7 q-87 -11 -171 -4 q-86 8 -166 19 l0 266 ZM426 773 q105 0 210 -1 q8 0 18 -6 q10 -6 11 -13 q8 -72 17 -147 q8 -73 17 -155 q-126 7 -250 -10 q-123 -15 -249 4 q2 79 8 160 q4 80 8 168 l210 0 Z"></path></symbol><symbol id="uni3055" viewBox="0 -212 1024 1024"><path d="M442 191.15 q22 43 25 46 q3 4 58 109 l16 44 q-23 -8 -53 -12 q-30 -5 -67 -9 q-64 -8 -91 -3 q-26 4 -65 28 q-41 23 -65 45 q-26 22 -58 71 q-33 48 -28 88 q4 40 46 75 q70 61 169 95 q100 34 232 36 q117 1 148 -19 q33 -18 30 -29 q-3 -9 -33 -25 q-28 -14 -40 -14 q-12 1 -31 14 q-11 6 -23 11 q-11 4 -25 7 q-34 10 -127 -13 q-94 -24 -156 -119 q-25 -65 32 -133 q58 -67 189 -55 l96 22 q17 4 38 -12 q21 -15 -24 -101 l-56 -142 q-2 -5 0 -9 q1 -5 8 -6 q94 -8 129 -12 q35 -3 54 -8 q27 -6 49 -16 q24 -10 44 -24 q40 -29 42 -56 q3 -25 -34 -57 q-37 -31 -58 -25 q-19 8 -49 58 q-13 26 -48 40 q-35 16 -139 21 q-28 3 -40 -6 q-10 -9 -10 -41 q-2 -26 -15 -94 q-14 -67 -26 -86 q-26 -24 -83 -50 q-55 -27 -76 -29 q-8 -1 -12 3 q-5 5 -8 12 q-6 12 5 53 q26 75 57 159 q31 86 31 97 q-16 3 -99 4 q-82 2 -148 2 q-26 4 -66 6 q-19 1 -32 1 q-14 0 -18 2 q-21 7 6 25 q28 19 59 27 q28 4 105 4 l235 0 Z"></path></symbol><symbol id="uni3089" viewBox="0 -212 1024 1024"><path d="M747 -133.92 q-18 -24 -42 -41 q-23 -17 -58 -26 q-15 -6 -29 1 q-15 8 -35 28 q-84 91 -75 146 q9 56 110 58 l38 0 q6 -5 12 -8 q6 -1 12 -6 q5 0 8 -1 q3 0 6 -7 q4 -3 11 -9 q4 -7 15 -16 q17 -21 29 -49 q11 -26 11 -38 q0 -6 -2 -14 q-3 -9 -11 -18 ZM226 32.08 q-6 -29 -14 -67 q-7 -38 -23 -57 q-34 -30 -82 -12 q-50 19 -68 38 q-23 46 -12 174 q10 129 39 192 q14 29 56 48 q42 19 93 19 q26 0 54 -6 q30 -6 62 -12 q207 -9 252 128 q44 135 -98 157 l-91 8 q-84 7 -125 23 q-40 16 -29 74 q3 26 12 37 q9 10 37 20 q42 10 99 7 q57 -3 128 -15 q38 -9 67 -18 q29 -11 50 -22 q49 -23 95 -74 q46 -51 62 -98 q10 -49 -6 -119 q-18 -68 -70 -117 q-57 -43 -141 -64 q-83 -20 -168 -20 q-40 0 -69 1 q-29 3 -46 8 q-15 6 -24 8 q-9 1 -14 -3 q-6 -8 -6 -116 l-20 -122 Z"></path></symbol><symbol id="uni8358" viewBox="0 -212 1024 1024"><path d="M676 50.16 q13 -14 20 -33 q7 -19 23 -51 l-256 0 q0 17 4 43 q2 26 18 41 q0 16 -4 21 q-2 2 -18 2 q-61 18 -87 7 q-25 -9 -40 -71 q0 -17 -12 -29 q-15 -13 -30 -14 l-149 0 q-2 0 -10 -3 q-10 -3 -11 -18 q48 -15 96 -18 q48 -3 95 -3 l0 -65 q-18 -31 -10 -47 q7 -16 53 -16 q46 -1 58 8 q14 10 26 55 q1 32 14 49 q12 16 29 16 l211 0 q17 2 31 -5 q12 -7 12 -37 q13 -63 43 -80 q29 -17 105 15 q-1 30 -9 53 q-10 24 -11 54 q32 17 63 13 q32 -4 64 -35 q18 -15 56 -18 q38 -2 71 -2 q3 0 12 12 q9 14 10 30 q1 31 -6 36 q-7 7 -37 6 q-96 33 -190 0 q-32 1 -48 14 q-17 12 -17 29 q-15 32 -32 45 q-14 12 -31 -4 l-106 0 ZM315 115.16 q31 15 64 31 q32 17 63 33 q17 0 30 12 q13 12 13 29 l0 383 q0 31 2 63 q4 33 19 65 q0 29 -16 38 q-16 10 -48 25 q-17 1 -44 9 q-29 4 -62 -9 l0 -21 q-3 -159 -12 -309 q-11 -149 -9 -307 l0 -42 ZM613 391.16 l-107 0 l0 -22 q48 0 96 -3 q48 -3 94 -18 l0 -148 q-2 -62 11 -74 q13 -15 75 -11 l22 0 q61 13 73 30 q14 16 10 75 q3 17 12 45 q10 30 11 62 l0 21 q17 2 43 -5 q24 -7 41 -37 q6 -16 56 -16 q50 0 71 16 q15 18 6 39 q-9 23 -27 24 l-127 0 q-16 15 -28 19 l-15 3 l0 191 q-12 59 -26 76 q-13 17 -59 30 q-62 2 -84 -11 q-23 -12 -22 -74 q-15 -46 -18 -98 q-2 -51 -2 -114 l-106 0 ZM294 369.16 q-49 30 -93 22 q-44 -10 -77 -43 q-16 -31 -28 -51 q-13 -19 -15 -34 l-2 -13 q-4 -13 -18 -30 l63 0 q64 17 102 51 q37 36 68 98 ZM272 517.16 q11 49 -28 83 q-40 34 -78 66 q-21 15 -74 5 q-54 -9 -74 -26 q22 -66 103 -103 q81 -38 151 -25 ZM973 731.16 q17 -48 58 -65 q41 -15 90 0 q3 3 9 21 q6 19 -9 21 q-15 17 -31 30 q-16 13 -32 13 q-111 16 -222 18 q-112 4 -223 4 l-65 0 l0 -22 q110 -1 213 -10 q102 -9 212 -10 Z"></path></symbol></defs></svg>